<?xml version="1.0" encoding="UTF-8" standalone="no"?>
<!DOCTYPE svg PUBLIC "-//W3C//DTD SVG 1.1//EN"
 "http://www.w3.org/Graphics/SVG/1.1/DTD/svg11.dtd">
<!-- Generated by graphviz version 2.38.0 (20140413.2041)
 -->
<!-- Title: Modules/MFT/src/BasicDigitQcTask.cxx Pages: 1 -->
<svg width="1215pt" height="319pt"
 viewBox="0.00 0.00 1214.50 319.00" xmlns="http://www.w3.org/2000/svg" xmlns:xlink="http://www.w3.org/1999/xlink">
<g id="graph0" class="graph" transform="scale(1 1) rotate(0) translate(4 315)">
<title>Modules/MFT/src/BasicDigitQcTask.cxx</title>
<!-- Node1 -->
<g id="node1" class="node"><title>Node1</title>
<polygon fill="#bfbfbf" stroke="black" points="146,-280.5 146,-310.5 287,-310.5 287,-280.5 146,-280.5"/>
<text text-anchor="start" x="154" y="-298.5" font-family="Helvetica,sans-Serif" font-size="10.00">Modules/MFT/src/BasicDigit</text>
<text text-anchor="middle" x="216.5" y="-287.5" font-family="Helvetica,sans-Serif" font-size="10.00">QcTask.cxx</text>
</g>
<!-- Node2 -->
<g id="node2" class="node"><title>Node2</title>
<polygon fill="none" stroke="#bfbfbf" points="0,-224.5 0,-243.5 65,-243.5 65,-224.5 0,-224.5"/>
<text text-anchor="middle" x="32.5" y="-231.5" font-family="Helvetica,sans-Serif" font-size="10.00">TCanvas.h</text>
</g>
<!-- Node1&#45;&gt;Node2 -->
<g id="edge1" class="edge"><title>Node1&#45;&gt;Node2</title>
<path fill="none" stroke="midnightblue" d="M172.895,-280.399C141.1,-270.118 98.5255,-256.351 68.6253,-246.682"/>
<polygon fill="midnightblue" stroke="midnightblue" points="69.5968,-243.318 59.005,-243.571 67.443,-249.978 69.5968,-243.318"/>
</g>
<!-- Node3 -->
<g id="node3" class="node"><title>Node3</title>
<polygon fill="none" stroke="#bfbfbf" points="83.5,-224.5 83.5,-243.5 127.5,-243.5 127.5,-224.5 83.5,-224.5"/>
<text text-anchor="middle" x="105.5" y="-231.5" font-family="Helvetica,sans-Serif" font-size="10.00">TH1.h</text>
</g>
<!-- Node1&#45;&gt;Node3 -->
<g id="edge2" class="edge"><title>Node1&#45;&gt;Node3</title>
<path fill="none" stroke="midnightblue" d="M190.195,-280.399C172.236,-270.773 148.576,-258.09 130.829,-248.577"/>
<polygon fill="midnightblue" stroke="midnightblue" points="132.119,-245.297 121.651,-243.658 128.812,-251.467 132.119,-245.297"/>
</g>
<!-- Node4 -->
<g id="node4" class="node"><title>Node4</title>
<polygon fill="none" stroke="#bfbfbf" points="146,-224.5 146,-243.5 287,-243.5 287,-224.5 146,-224.5"/>
<text text-anchor="middle" x="216.5" y="-231.5" font-family="Helvetica,sans-Serif" font-size="10.00">DataFormatsITSMFT/Digit.h</text>
</g>
<!-- Node1&#45;&gt;Node4 -->
<g id="edge3" class="edge"><title>Node1&#45;&gt;Node4</title>
<path fill="none" stroke="midnightblue" d="M216.5,-280.399C216.5,-272.466 216.5,-262.458 216.5,-253.858"/>
<polygon fill="midnightblue" stroke="midnightblue" points="220,-253.658 216.5,-243.658 213,-253.658 220,-253.658"/>
</g>
<!-- Node5 -->
<g id="node5" class="node"><title>Node5</title>
<g id="a_node5"><a xlink:href="QcInfoLogger_8h.html" target="_top" xlink:title="QualityControl/QcInfoLogger.h">
<polygon fill="none" stroke="black" points="305,-224.5 305,-243.5 454,-243.5 454,-224.5 305,-224.5"/>
<text text-anchor="middle" x="379.5" y="-231.5" font-family="Helvetica,sans-Serif" font-size="10.00">QualityControl/QcInfoLogger.h</text>
</a>
</g>
</g>
<!-- Node1&#45;&gt;Node5 -->
<g id="edge4" class="edge"><title>Node1&#45;&gt;Node5</title>
<path fill="none" stroke="midnightblue" d="M255.129,-280.399C282.844,-270.283 319.805,-256.791 346.217,-247.149"/>
<polygon fill="midnightblue" stroke="midnightblue" points="347.589,-250.375 355.782,-243.658 345.188,-243.799 347.589,-250.375"/>
</g>
<!-- Node7 -->
<g id="node7" class="node"><title>Node7</title>
<g id="a_node7"><a xlink:href="BasicDigitQcTask_8h.html" target="_top" xlink:title="MFT/BasicDigitQcTask.h">
<polygon fill="none" stroke="black" points="472.5,-224.5 472.5,-243.5 600.5,-243.5 600.5,-224.5 472.5,-224.5"/>
<text text-anchor="middle" x="536.5" y="-231.5" font-family="Helvetica,sans-Serif" font-size="10.00">MFT/BasicDigitQcTask.h</text>
</a>
</g>
</g>
<!-- Node1&#45;&gt;Node7 -->
<g id="edge6" class="edge"><title>Node1&#45;&gt;Node7</title>
<path fill="none" stroke="midnightblue" d="M287.122,-281.369C345.393,-270.534 426.952,-255.369 480.718,-245.372"/>
<polygon fill="midnightblue" stroke="midnightblue" points="481.562,-248.775 490.753,-243.506 480.282,-241.893 481.562,-248.775"/>
</g>
<!-- Node6 -->
<g id="node6" class="node"><title>Node6</title>
<polygon fill="none" stroke="#bfbfbf" points="313.5,-168.5 313.5,-187.5 443.5,-187.5 443.5,-168.5 313.5,-168.5"/>
<text text-anchor="middle" x="378.5" y="-175.5" font-family="Helvetica,sans-Serif" font-size="10.00">InfoLogger/InfoLogger.hxx</text>
</g>
<!-- Node5&#45;&gt;Node6 -->
<g id="edge5" class="edge"><title>Node5&#45;&gt;Node6</title>
<path fill="none" stroke="midnightblue" d="M379.335,-224.083C379.204,-217.006 379.016,-206.861 378.852,-197.986"/>
<polygon fill="midnightblue" stroke="midnightblue" points="382.347,-197.685 378.662,-187.751 375.348,-197.814 382.347,-197.685"/>
</g>
<!-- Node8 -->
<g id="node8" class="node"><title>Node8</title>
<polygon fill="none" stroke="#bfbfbf" points="629.5,-168.5 629.5,-187.5 679.5,-187.5 679.5,-168.5 629.5,-168.5"/>
<text text-anchor="middle" x="654.5" y="-175.5" font-family="Helvetica,sans-Serif" font-size="10.00">TH1F.h</text>
</g>
<!-- Node7&#45;&gt;Node8 -->
<g id="edge7" class="edge"><title>Node7&#45;&gt;Node8</title>
<path fill="none" stroke="midnightblue" d="M555.197,-224.444C574.444,-215.636 604.652,-201.812 626.7,-191.722"/>
<polygon fill="midnightblue" stroke="midnightblue" points="628.253,-194.86 635.89,-187.516 625.34,-188.495 628.253,-194.86"/>
</g>
<!-- Node9 -->
<g id="node9" class="node"><title>Node9</title>
<g id="a_node9"><a xlink:href="TaskInterface_8h.html" target="_top" xlink:title="QualityControl/TaskInterface.h">
<polygon fill="none" stroke="black" points="461.5,-168.5 461.5,-187.5 611.5,-187.5 611.5,-168.5 461.5,-168.5"/>
<text text-anchor="middle" x="536.5" y="-175.5" font-family="Helvetica,sans-Serif" font-size="10.00">QualityControl/TaskInterface.h</text>
</a>
</g>
</g>
<!-- Node7&#45;&gt;Node9 -->
<g id="edge8" class="edge"><title>Node7&#45;&gt;Node9</title>
<path fill="none" stroke="midnightblue" d="M536.5,-224.083C536.5,-217.006 536.5,-206.861 536.5,-197.986"/>
<polygon fill="midnightblue" stroke="midnightblue" points="540,-197.751 536.5,-187.751 533,-197.751 540,-197.751"/>
</g>
<!-- Node10 -->
<g id="node10" class="node"><title>Node10</title>
<polygon fill="none" stroke="#bfbfbf" points="669,-0.5 669,-19.5 704,-19.5 704,-0.5 669,-0.5"/>
<text text-anchor="middle" x="686.5" y="-7.5" font-family="Helvetica,sans-Serif" font-size="10.00">map</text>
</g>
<!-- Node9&#45;&gt;Node10 -->
<g id="edge9" class="edge"><title>Node9&#45;&gt;Node10</title>
<path fill="none" stroke="midnightblue" d="M493.433,-168.486C473.104,-162.074 450.677,-150.991 438.5,-132 420.268,-103.565 416.852,-81.9291 438.5,-56 466.353,-22.6382 600.293,-13.9562 658.92,-11.7405"/>
<polygon fill="midnightblue" stroke="midnightblue" points="659.073,-15.2374 668.948,-11.3975 658.834,-8.24147 659.073,-15.2374"/>
</g>
<!-- Node11 -->
<g id="node11" class="node"><title>Node11</title>
<polygon fill="none" stroke="#bfbfbf" points="531.5,-56.5 531.5,-75.5 583.5,-75.5 583.5,-56.5 531.5,-56.5"/>
<text text-anchor="middle" x="557.5" y="-63.5" font-family="Helvetica,sans-Serif" font-size="10.00">memory</text>
</g>
<!-- Node9&#45;&gt;Node11 -->
<g id="edge10" class="edge"><title>Node9&#45;&gt;Node11</title>
<path fill="none" stroke="midnightblue" d="M528.1,-168.133C517.284,-155.587 500.853,-131.958 509.5,-112 514.768,-99.8399 525.12,-89.4594 534.865,-81.7429"/>
<polygon fill="midnightblue" stroke="midnightblue" points="537.144,-84.4116 543.13,-75.6698 532.999,-78.7707 537.144,-84.4116"/>
</g>
<!-- Node12 -->
<g id="node12" class="node"><title>Node12</title>
<polygon fill="none" stroke="#bfbfbf" points="799,-0.5 799,-19.5 840,-19.5 840,-0.5 799,-0.5"/>
<text text-anchor="middle" x="819.5" y="-7.5" font-family="Helvetica,sans-Serif" font-size="10.00">string</text>
</g>
<!-- Node9&#45;&gt;Node12 -->
<g id="edge11" class="edge"><title>Node9&#45;&gt;Node12</title>
<path fill="none" stroke="midnightblue" d="M527.48,-168.34C519.428,-159.932 508.202,-146.363 503.5,-132 492.668,-98.9107 495.804,-78.3509 522.5,-56 542.753,-39.0433 716.967,-20.7414 788.766,-13.8438"/>
<polygon fill="midnightblue" stroke="midnightblue" points="789.355,-17.3037 798.979,-12.8734 788.693,-10.3351 789.355,-17.3037"/>
</g>
<!-- Node13 -->
<g id="node13" class="node"><title>Node13</title>
<polygon fill="none" stroke="#bfbfbf" points="413,-0.5 413,-19.5 496,-19.5 496,-0.5 413,-0.5"/>
<text text-anchor="middle" x="454.5" y="-7.5" font-family="Helvetica,sans-Serif" font-size="10.00">unordered_map</text>
</g>
<!-- Node9&#45;&gt;Node13 -->
<g id="edge12" class="edge"><title>Node9&#45;&gt;Node13</title>
<path fill="none" stroke="midnightblue" d="M461.342,-169.312C438.048,-162.981 414.773,-151.756 400.5,-132 380.72,-104.62 386.173,-86.5888 400.5,-56 406.545,-43.0941 418.312,-32.5985 429.323,-24.9999"/>
<polygon fill="midnightblue" stroke="midnightblue" points="431.328,-27.8723 437.867,-19.5364 427.557,-21.9748 431.328,-27.8723"/>
</g>
<!-- Node14 -->
<g id="node14" class="node"><title>Node14</title>
<polygon fill="none" stroke="#bfbfbf" points="519,-112.5 519,-131.5 644,-131.5 644,-112.5 519,-112.5"/>
<text text-anchor="middle" x="581.5" y="-119.5" font-family="Helvetica,sans-Serif" font-size="10.00">Framework/InitContext.h</text>
</g>
<!-- Node9&#45;&gt;Node14 -->
<g id="edge13" class="edge"><title>Node9&#45;&gt;Node14</title>
<path fill="none" stroke="midnightblue" d="M543.931,-168.083C550.353,-160.377 559.806,-149.033 567.622,-139.653"/>
<polygon fill="midnightblue" stroke="midnightblue" points="570.494,-141.674 574.207,-131.751 565.117,-137.193 570.494,-141.674"/>
</g>
<!-- Node15 -->
<g id="node15" class="node"><title>Node15</title>
<polygon fill="none" stroke="#bfbfbf" points="662.5,-112.5 662.5,-131.5 822.5,-131.5 822.5,-112.5 662.5,-112.5"/>
<text text-anchor="middle" x="742.5" y="-119.5" font-family="Helvetica,sans-Serif" font-size="10.00">Framework/ProcessingContext.h</text>
</g>
<!-- Node9&#45;&gt;Node15 -->
<g id="edge14" class="edge"><title>Node9&#45;&gt;Node15</title>
<path fill="none" stroke="midnightblue" d="M569.141,-168.444C604.55,-159.162 661.209,-144.309 700.053,-134.127"/>
<polygon fill="midnightblue" stroke="midnightblue" points="701.226,-137.438 710.011,-131.516 699.451,-130.667 701.226,-137.438"/>
</g>
<!-- Node16 -->
<g id="node16" class="node"><title>Node16</title>
<g id="a_node16"><a xlink:href="Activity_8h.html" target="_top" xlink:title="QualityControl/Activity.h">
<polygon fill="none" stroke="black" points="841,-112.5 841,-131.5 964,-131.5 964,-112.5 841,-112.5"/>
<text text-anchor="middle" x="902.5" y="-119.5" font-family="Helvetica,sans-Serif" font-size="10.00">QualityControl/Activity.h</text>
</a>
</g>
</g>
<!-- Node9&#45;&gt;Node16 -->
<g id="edge15" class="edge"><title>Node9&#45;&gt;Node16</title>
<path fill="none" stroke="midnightblue" d="M594.494,-168.444C659.814,-158.806 765.837,-143.163 834.87,-132.978"/>
<polygon fill="midnightblue" stroke="midnightblue" points="835.396,-136.439 844.778,-131.516 834.374,-129.514 835.396,-136.439"/>
</g>
<!-- Node17 -->
<g id="node17" class="node"><title>Node17</title>
<g id="a_node17"><a xlink:href="ObjectsManager_8h.html" target="_top" xlink:title="QualityControl/ObjectsManager.h">
<polygon fill="none" stroke="black" points="982,-112.5 982,-131.5 1143,-131.5 1143,-112.5 982,-112.5"/>
<text text-anchor="middle" x="1062.5" y="-119.5" font-family="Helvetica,sans-Serif" font-size="10.00">QualityControl/ObjectsManager.h</text>
</a>
</g>
</g>
<!-- Node9&#45;&gt;Node17 -->
<g id="edge16" class="edge"><title>Node9&#45;&gt;Node17</title>
<path fill="none" stroke="midnightblue" d="M611.604,-168.933C614.608,-168.617 617.583,-168.305 620.5,-168 686.338,-161.122 862.586,-143.238 971.593,-132.198"/>
<polygon fill="midnightblue" stroke="midnightblue" points="972.003,-135.675 981.6,-131.185 971.298,-128.71 972.003,-135.675"/>
</g>
<!-- Node17&#45;&gt;Node11 -->
<g id="edge30" class="edge"><title>Node17&#45;&gt;Node11</title>
<path fill="none" stroke="midnightblue" d="M982.76,-112.473C871.706,-100.598 674.995,-79.5638 593.952,-70.8979"/>
<polygon fill="midnightblue" stroke="midnightblue" points="594.07,-67.3905 583.754,-69.8074 593.325,-74.3509 594.07,-67.3905"/>
</g>
<!-- Node17&#45;&gt;Node12 -->
<g id="edge29" class="edge"><title>Node17&#45;&gt;Node12</title>
<path fill="none" stroke="midnightblue" d="M1004.81,-112.478C942.898,-102.844 851.725,-87.0663 839.5,-76 826.526,-64.2556 821.871,-44.3216 820.251,-29.6182"/>
<polygon fill="midnightblue" stroke="midnightblue" points="823.74,-29.3328 819.516,-19.6162 816.759,-29.8458 823.74,-29.3328"/>
</g>
<!-- Node18 -->
<g id="node18" class="node"><title>Node18</title>
<g id="a_node18"><a xlink:href="MonitorObject_8h.html" target="_top" xlink:title="QualityControl/MonitorObject.h">
<polygon fill="none" stroke="black" points="987,-56.5 987,-75.5 1138,-75.5 1138,-56.5 987,-56.5"/>
<text text-anchor="middle" x="1062.5" y="-63.5" font-family="Helvetica,sans-Serif" font-size="10.00">QualityControl/MonitorObject.h</text>
</a>
</g>
</g>
<!-- Node17&#45;&gt;Node18 -->
<g id="edge17" class="edge"><title>Node17&#45;&gt;Node18</title>
<path fill="none" stroke="midnightblue" d="M1062.5,-112.083C1062.5,-105.006 1062.5,-94.8611 1062.5,-85.9865"/>
<polygon fill="midnightblue" stroke="midnightblue" points="1066,-85.751 1062.5,-75.7511 1059,-85.7511 1066,-85.751"/>
</g>
<!-- Node22 -->
<g id="node22" class="node"><title>Node22</title>
<g id="a_node22"><a xlink:href="Quality_8h.html" target="_top" xlink:title="QualityControl/Quality.h">
<polygon fill="none" stroke="black" points="848,-56.5 848,-75.5 969,-75.5 969,-56.5 848,-56.5"/>
<text text-anchor="middle" x="908.5" y="-63.5" font-family="Helvetica,sans-Serif" font-size="10.00">QualityControl/Quality.h</text>
</a>
</g>
</g>
<!-- Node17&#45;&gt;Node22 -->
<g id="edge23" class="edge"><title>Node17&#45;&gt;Node22</title>
<path fill="none" stroke="midnightblue" d="M1038.1,-112.444C1012.3,-103.399 971.423,-89.064 942.482,-78.9158"/>
<polygon fill="midnightblue" stroke="midnightblue" points="943.382,-75.5226 932.788,-75.5164 941.066,-82.1283 943.382,-75.5226"/>
</g>
<!-- Node23 -->
<g id="node23" class="node"><title>Node23</title>
<g id="a_node23"><a xlink:href="TaskConfig_8h.html" target="_top" xlink:title="QualityControl/TaskConfig.h">
<polygon fill="none" stroke="black" points="651.5,-56.5 651.5,-75.5 791.5,-75.5 791.5,-56.5 651.5,-56.5"/>
<text text-anchor="middle" x="721.5" y="-63.5" font-family="Helvetica,sans-Serif" font-size="10.00">QualityControl/TaskConfig.h</text>
</a>
</g>
</g>
<!-- Node17&#45;&gt;Node23 -->
<g id="edge26" class="edge"><title>Node17&#45;&gt;Node23</title>
<path fill="none" stroke="midnightblue" d="M1008.47,-112.444C947.859,-102.846 849.638,-87.2916 785.303,-77.1037"/>
<polygon fill="midnightblue" stroke="midnightblue" points="785.704,-73.6237 775.28,-75.5164 784.609,-80.5375 785.704,-73.6237"/>
</g>
<!-- Node18&#45;&gt;Node10 -->
<g id="edge19" class="edge"><title>Node18&#45;&gt;Node10</title>
<path fill="none" stroke="midnightblue" d="M1002.92,-56.4435C920.486,-44.6044 774.948,-23.7026 714.273,-14.9887"/>
<polygon fill="midnightblue" stroke="midnightblue" points="714.69,-11.5127 704.294,-13.5555 713.695,-18.4416 714.69,-11.5127"/>
</g>
<!-- Node18&#45;&gt;Node12 -->
<g id="edge18" class="edge"><title>Node18&#45;&gt;Node12</title>
<path fill="none" stroke="midnightblue" d="M1024,-56.4435C975.801,-45.7335 894.232,-27.6072 850.083,-17.7961"/>
<polygon fill="midnightblue" stroke="midnightblue" points="850.743,-14.3576 840.222,-15.6049 849.225,-21.191 850.743,-14.3576"/>
</g>
<!-- Node19 -->
<g id="node19" class="node"><title>Node19</title>
<polygon fill="none" stroke="#bfbfbf" points="899.5,-0.5 899.5,-19.5 955.5,-19.5 955.5,-0.5 899.5,-0.5"/>
<text text-anchor="middle" x="927.5" y="-7.5" font-family="Helvetica,sans-Serif" font-size="10.00">Rtypes.h</text>
</g>
<!-- Node18&#45;&gt;Node19 -->
<g id="edge20" class="edge"><title>Node18&#45;&gt;Node19</title>
<path fill="none" stroke="midnightblue" d="M1041.11,-56.4435C1018.79,-47.5171 983.597,-33.4387 958.292,-23.3168"/>
<polygon fill="midnightblue" stroke="midnightblue" points="959.376,-19.9807 948.791,-19.5164 956.776,-26.4801 959.376,-19.9807"/>
</g>
<!-- Node20 -->
<g id="node20" class="node"><title>Node20</title>
<polygon fill="none" stroke="#bfbfbf" points="1013,-0.5 1013,-19.5 1072,-19.5 1072,-0.5 1013,-0.5"/>
<text text-anchor="middle" x="1042.5" y="-7.5" font-family="Helvetica,sans-Serif" font-size="10.00">TObject.h</text>
</g>
<!-- Node18&#45;&gt;Node20 -->
<g id="edge21" class="edge"><title>Node18&#45;&gt;Node20</title>
<path fill="none" stroke="midnightblue" d="M1059.2,-56.083C1056.52,-48.8486 1052.65,-38.4087 1049.31,-29.3968"/>
<polygon fill="midnightblue" stroke="midnightblue" points="1052.5,-27.9129 1045.74,-19.7511 1045.93,-30.3442 1052.5,-27.9129"/>
</g>
<!-- Node21 -->
<g id="node21" class="node"><title>Node21</title>
<polygon fill="none" stroke="#bfbfbf" points="1090.5,-0.5 1090.5,-19.5 1206.5,-19.5 1206.5,-0.5 1090.5,-0.5"/>
<text text-anchor="middle" x="1148.5" y="-7.5" font-family="Helvetica,sans-Serif" font-size="10.00">Common/Exceptions.h</text>
</g>
<!-- Node18&#45;&gt;Node21 -->
<g id="edge22" class="edge"><title>Node18&#45;&gt;Node21</title>
<path fill="none" stroke="midnightblue" d="M1076.32,-56.324C1089.73,-47.9002 1110.32,-34.9709 1126.09,-25.0741"/>
<polygon fill="midnightblue" stroke="midnightblue" points="1128.11,-27.9364 1134.72,-19.6545 1124.39,-22.0081 1128.11,-27.9364"/>
</g>
<!-- Node22&#45;&gt;Node12 -->
<g id="edge25" class="edge"><title>Node22&#45;&gt;Node12</title>
<path fill="none" stroke="midnightblue" d="M894.201,-56.324C880.317,-47.9002 859.008,-34.9709 842.696,-25.0741"/>
<polygon fill="midnightblue" stroke="midnightblue" points="844.129,-21.8495 833.764,-19.6545 840.498,-27.8341 844.129,-21.8495"/>
</g>
<!-- Node22&#45;&gt;Node19 -->
<g id="edge24" class="edge"><title>Node22&#45;&gt;Node19</title>
<path fill="none" stroke="midnightblue" d="M911.637,-56.083C914.183,-48.8486 917.856,-38.4087 921.027,-29.3968"/>
<polygon fill="midnightblue" stroke="midnightblue" points="924.403,-30.3459 924.421,-19.7511 917.8,-28.0225 924.403,-30.3459"/>
</g>
<!-- Node23&#45;&gt;Node12 -->
<g id="edge27" class="edge"><title>Node23&#45;&gt;Node12</title>
<path fill="none" stroke="midnightblue" d="M737.245,-56.324C752.819,-47.7428 776.877,-34.486 794.959,-24.5224"/>
<polygon fill="midnightblue" stroke="midnightblue" points="796.724,-27.546 803.794,-19.6545 793.346,-21.4152 796.724,-27.546"/>
</g>
<!-- Node23&#45;&gt;Node13 -->
<g id="edge28" class="edge"><title>Node23&#45;&gt;Node13</title>
<path fill="none" stroke="midnightblue" d="M679.193,-56.4435C632.283,-46.9561 556.596,-31.6487 506.206,-21.4574"/>
<polygon fill="midnightblue" stroke="midnightblue" points="506.665,-17.9794 496.169,-19.4275 505.277,-24.8405 506.665,-17.9794"/>
</g>
</g>
</svg>
