<?xml version="1.0" encoding="UTF-8" standalone="no"?>
<!DOCTYPE svg PUBLIC "-//W3C//DTD SVG 1.1//EN"
 "http://www.w3.org/Graphics/SVG/1.1/DTD/svg11.dtd">
<!-- Generated by graphviz version 2.38.0 (20140413.2041)
 -->
<!-- Title: Modules/MFT/src/BasicClusterQcTask.cxx Pages: 1 -->
<svg width="1229pt" height="319pt"
 viewBox="0.00 0.00 1228.50 319.00" xmlns="http://www.w3.org/2000/svg" xmlns:xlink="http://www.w3.org/1999/xlink">
<g id="graph0" class="graph" transform="scale(1 1) rotate(0) translate(4 315)">
<title>Modules/MFT/src/BasicClusterQcTask.cxx</title>
<!-- Node1 -->
<g id="node1" class="node"><title>Node1</title>
<polygon fill="#bfbfbf" stroke="black" points="145.5,-280.5 145.5,-310.5 297.5,-310.5 297.5,-280.5 145.5,-280.5"/>
<text text-anchor="start" x="153.5" y="-298.5" font-family="Helvetica,sans-Serif" font-size="10.00">Modules/MFT/src/BasicCluster</text>
<text text-anchor="middle" x="221.5" y="-287.5" font-family="Helvetica,sans-Serif" font-size="10.00">QcTask.cxx</text>
</g>
<!-- Node2 -->
<g id="node2" class="node"><title>Node2</title>
<polygon fill="none" stroke="#bfbfbf" points="0,-224.5 0,-243.5 65,-243.5 65,-224.5 0,-224.5"/>
<text text-anchor="middle" x="32.5" y="-231.5" font-family="Helvetica,sans-Serif" font-size="10.00">TCanvas.h</text>
</g>
<!-- Node1&#45;&gt;Node2 -->
<g id="edge1" class="edge"><title>Node1&#45;&gt;Node2</title>
<path fill="none" stroke="midnightblue" d="M176.71,-280.399C144.051,-270.118 100.32,-256.351 69.607,-246.682"/>
<polygon fill="midnightblue" stroke="midnightblue" points="70.3148,-243.235 59.7253,-243.571 68.2128,-249.912 70.3148,-243.235"/>
</g>
<!-- Node3 -->
<g id="node3" class="node"><title>Node3</title>
<polygon fill="none" stroke="#bfbfbf" points="83.5,-224.5 83.5,-243.5 127.5,-243.5 127.5,-224.5 83.5,-224.5"/>
<text text-anchor="middle" x="105.5" y="-231.5" font-family="Helvetica,sans-Serif" font-size="10.00">TH1.h</text>
</g>
<!-- Node1&#45;&gt;Node3 -->
<g id="edge2" class="edge"><title>Node1&#45;&gt;Node3</title>
<path fill="none" stroke="midnightblue" d="M194.01,-280.399C175.068,-270.684 150.058,-257.855 131.456,-248.314"/>
<polygon fill="midnightblue" stroke="midnightblue" points="132.874,-245.108 122.379,-243.658 129.679,-251.336 132.874,-245.108"/>
</g>
<!-- Node4 -->
<g id="node4" class="node"><title>Node4</title>
<polygon fill="none" stroke="#bfbfbf" points="145.5,-224.5 145.5,-243.5 297.5,-243.5 297.5,-224.5 145.5,-224.5"/>
<text text-anchor="middle" x="221.5" y="-231.5" font-family="Helvetica,sans-Serif" font-size="10.00">DataFormatsITSMFT/Cluster.h</text>
</g>
<!-- Node1&#45;&gt;Node4 -->
<g id="edge3" class="edge"><title>Node1&#45;&gt;Node4</title>
<path fill="none" stroke="midnightblue" d="M221.5,-280.399C221.5,-272.466 221.5,-262.458 221.5,-253.858"/>
<polygon fill="midnightblue" stroke="midnightblue" points="225,-253.658 221.5,-243.658 218,-253.658 225,-253.658"/>
</g>
<!-- Node5 -->
<g id="node5" class="node"><title>Node5</title>
<g id="a_node5"><a xlink:href="QcInfoLogger_8h.html" target="_top" xlink:title="QualityControl/QcInfoLogger.h">
<polygon fill="none" stroke="black" points="316,-224.5 316,-243.5 465,-243.5 465,-224.5 316,-224.5"/>
<text text-anchor="middle" x="390.5" y="-231.5" font-family="Helvetica,sans-Serif" font-size="10.00">QualityControl/QcInfoLogger.h</text>
</a>
</g>
</g>
<!-- Node1&#45;&gt;Node5 -->
<g id="edge4" class="edge"><title>Node1&#45;&gt;Node5</title>
<path fill="none" stroke="midnightblue" d="M261.551,-280.399C290.412,-270.238 328.945,-256.672 356.353,-247.022"/>
<polygon fill="midnightblue" stroke="midnightblue" points="357.639,-250.28 365.909,-243.658 355.314,-243.677 357.639,-250.28"/>
</g>
<!-- Node7 -->
<g id="node7" class="node"><title>Node7</title>
<g id="a_node7"><a xlink:href="BasicClusterQcTask_8h.html" target="_top" xlink:title="MFT/BasicClusterQcTask.h">
<polygon fill="none" stroke="black" points="483,-224.5 483,-243.5 622,-243.5 622,-224.5 483,-224.5"/>
<text text-anchor="middle" x="552.5" y="-231.5" font-family="Helvetica,sans-Serif" font-size="10.00">MFT/BasicClusterQcTask.h</text>
</a>
</g>
</g>
<!-- Node1&#45;&gt;Node7 -->
<g id="edge6" class="edge"><title>Node1&#45;&gt;Node7</title>
<path fill="none" stroke="midnightblue" d="M297.854,-280.775C358.065,-269.951 440.715,-255.094 495.317,-245.279"/>
<polygon fill="midnightblue" stroke="midnightblue" points="495.951,-248.721 505.174,-243.507 494.713,-241.832 495.951,-248.721"/>
</g>
<!-- Node6 -->
<g id="node6" class="node"><title>Node6</title>
<polygon fill="none" stroke="#bfbfbf" points="325.5,-168.5 325.5,-187.5 455.5,-187.5 455.5,-168.5 325.5,-168.5"/>
<text text-anchor="middle" x="390.5" y="-175.5" font-family="Helvetica,sans-Serif" font-size="10.00">InfoLogger/InfoLogger.hxx</text>
</g>
<!-- Node5&#45;&gt;Node6 -->
<g id="edge5" class="edge"><title>Node5&#45;&gt;Node6</title>
<path fill="none" stroke="midnightblue" d="M390.5,-224.083C390.5,-217.006 390.5,-206.861 390.5,-197.986"/>
<polygon fill="midnightblue" stroke="midnightblue" points="394,-197.751 390.5,-187.751 387,-197.751 394,-197.751"/>
</g>
<!-- Node8 -->
<g id="node8" class="node"><title>Node8</title>
<polygon fill="none" stroke="#bfbfbf" points="643.5,-168.5 643.5,-187.5 693.5,-187.5 693.5,-168.5 643.5,-168.5"/>
<text text-anchor="middle" x="668.5" y="-175.5" font-family="Helvetica,sans-Serif" font-size="10.00">TH1F.h</text>
</g>
<!-- Node7&#45;&gt;Node8 -->
<g id="edge7" class="edge"><title>Node7&#45;&gt;Node8</title>
<path fill="none" stroke="midnightblue" d="M570.881,-224.444C589.716,-215.675 619.231,-201.935 640.879,-191.858"/>
<polygon fill="midnightblue" stroke="midnightblue" points="642.617,-194.91 650.205,-187.516 639.662,-188.564 642.617,-194.91"/>
</g>
<!-- Node9 -->
<g id="node9" class="node"><title>Node9</title>
<g id="a_node9"><a xlink:href="TaskInterface_8h.html" target="_top" xlink:title="QualityControl/TaskInterface.h">
<polygon fill="none" stroke="black" points="475.5,-168.5 475.5,-187.5 625.5,-187.5 625.5,-168.5 475.5,-168.5"/>
<text text-anchor="middle" x="550.5" y="-175.5" font-family="Helvetica,sans-Serif" font-size="10.00">QualityControl/TaskInterface.h</text>
</a>
</g>
</g>
<!-- Node7&#45;&gt;Node9 -->
<g id="edge8" class="edge"><title>Node7&#45;&gt;Node9</title>
<path fill="none" stroke="midnightblue" d="M552.17,-224.083C551.908,-217.006 551.532,-206.861 551.203,-197.986"/>
<polygon fill="midnightblue" stroke="midnightblue" points="554.692,-197.615 550.824,-187.751 547.697,-197.874 554.692,-197.615"/>
</g>
<!-- Node10 -->
<g id="node10" class="node"><title>Node10</title>
<polygon fill="none" stroke="#bfbfbf" points="683,-0.5 683,-19.5 718,-19.5 718,-0.5 683,-0.5"/>
<text text-anchor="middle" x="700.5" y="-7.5" font-family="Helvetica,sans-Serif" font-size="10.00">map</text>
</g>
<!-- Node9&#45;&gt;Node10 -->
<g id="edge9" class="edge"><title>Node9&#45;&gt;Node10</title>
<path fill="none" stroke="midnightblue" d="M507.433,-168.486C487.104,-162.074 464.677,-150.991 452.5,-132 434.268,-103.565 430.852,-81.9291 452.5,-56 480.353,-22.6382 614.293,-13.9562 672.92,-11.7405"/>
<polygon fill="midnightblue" stroke="midnightblue" points="673.073,-15.2374 682.948,-11.3975 672.834,-8.24147 673.073,-15.2374"/>
</g>
<!-- Node11 -->
<g id="node11" class="node"><title>Node11</title>
<polygon fill="none" stroke="#bfbfbf" points="545.5,-56.5 545.5,-75.5 597.5,-75.5 597.5,-56.5 545.5,-56.5"/>
<text text-anchor="middle" x="571.5" y="-63.5" font-family="Helvetica,sans-Serif" font-size="10.00">memory</text>
</g>
<!-- Node9&#45;&gt;Node11 -->
<g id="edge10" class="edge"><title>Node9&#45;&gt;Node11</title>
<path fill="none" stroke="midnightblue" d="M542.1,-168.133C531.284,-155.587 514.853,-131.958 523.5,-112 528.768,-99.8399 539.12,-89.4594 548.865,-81.7429"/>
<polygon fill="midnightblue" stroke="midnightblue" points="551.144,-84.4116 557.13,-75.6698 546.999,-78.7707 551.144,-84.4116"/>
</g>
<!-- Node12 -->
<g id="node12" class="node"><title>Node12</title>
<polygon fill="none" stroke="#bfbfbf" points="813,-0.5 813,-19.5 854,-19.5 854,-0.5 813,-0.5"/>
<text text-anchor="middle" x="833.5" y="-7.5" font-family="Helvetica,sans-Serif" font-size="10.00">string</text>
</g>
<!-- Node9&#45;&gt;Node12 -->
<g id="edge11" class="edge"><title>Node9&#45;&gt;Node12</title>
<path fill="none" stroke="midnightblue" d="M541.48,-168.34C533.428,-159.932 522.202,-146.363 517.5,-132 506.668,-98.9107 509.804,-78.3509 536.5,-56 556.753,-39.0433 730.967,-20.7414 802.766,-13.8438"/>
<polygon fill="midnightblue" stroke="midnightblue" points="803.355,-17.3037 812.979,-12.8734 802.693,-10.3351 803.355,-17.3037"/>
</g>
<!-- Node13 -->
<g id="node13" class="node"><title>Node13</title>
<polygon fill="none" stroke="#bfbfbf" points="427,-0.5 427,-19.5 510,-19.5 510,-0.5 427,-0.5"/>
<text text-anchor="middle" x="468.5" y="-7.5" font-family="Helvetica,sans-Serif" font-size="10.00">unordered_map</text>
</g>
<!-- Node9&#45;&gt;Node13 -->
<g id="edge12" class="edge"><title>Node9&#45;&gt;Node13</title>
<path fill="none" stroke="midnightblue" d="M475.342,-169.312C452.048,-162.981 428.773,-151.756 414.5,-132 394.72,-104.62 400.173,-86.5888 414.5,-56 420.545,-43.0941 432.312,-32.5985 443.323,-24.9999"/>
<polygon fill="midnightblue" stroke="midnightblue" points="445.328,-27.8723 451.867,-19.5364 441.557,-21.9748 445.328,-27.8723"/>
</g>
<!-- Node14 -->
<g id="node14" class="node"><title>Node14</title>
<polygon fill="none" stroke="#bfbfbf" points="533,-112.5 533,-131.5 658,-131.5 658,-112.5 533,-112.5"/>
<text text-anchor="middle" x="595.5" y="-119.5" font-family="Helvetica,sans-Serif" font-size="10.00">Framework/InitContext.h</text>
</g>
<!-- Node9&#45;&gt;Node14 -->
<g id="edge13" class="edge"><title>Node9&#45;&gt;Node14</title>
<path fill="none" stroke="midnightblue" d="M557.931,-168.083C564.353,-160.377 573.806,-149.033 581.622,-139.653"/>
<polygon fill="midnightblue" stroke="midnightblue" points="584.494,-141.674 588.207,-131.751 579.117,-137.193 584.494,-141.674"/>
</g>
<!-- Node15 -->
<g id="node15" class="node"><title>Node15</title>
<polygon fill="none" stroke="#bfbfbf" points="676.5,-112.5 676.5,-131.5 836.5,-131.5 836.5,-112.5 676.5,-112.5"/>
<text text-anchor="middle" x="756.5" y="-119.5" font-family="Helvetica,sans-Serif" font-size="10.00">Framework/ProcessingContext.h</text>
</g>
<!-- Node9&#45;&gt;Node15 -->
<g id="edge14" class="edge"><title>Node9&#45;&gt;Node15</title>
<path fill="none" stroke="midnightblue" d="M583.141,-168.444C618.55,-159.162 675.209,-144.309 714.053,-134.127"/>
<polygon fill="midnightblue" stroke="midnightblue" points="715.226,-137.438 724.011,-131.516 713.451,-130.667 715.226,-137.438"/>
</g>
<!-- Node16 -->
<g id="node16" class="node"><title>Node16</title>
<g id="a_node16"><a xlink:href="Activity_8h.html" target="_top" xlink:title="QualityControl/Activity.h">
<polygon fill="none" stroke="black" points="855,-112.5 855,-131.5 978,-131.5 978,-112.5 855,-112.5"/>
<text text-anchor="middle" x="916.5" y="-119.5" font-family="Helvetica,sans-Serif" font-size="10.00">QualityControl/Activity.h</text>
</a>
</g>
</g>
<!-- Node9&#45;&gt;Node16 -->
<g id="edge15" class="edge"><title>Node9&#45;&gt;Node16</title>
<path fill="none" stroke="midnightblue" d="M608.494,-168.444C673.814,-158.806 779.837,-143.163 848.87,-132.978"/>
<polygon fill="midnightblue" stroke="midnightblue" points="849.396,-136.439 858.778,-131.516 848.374,-129.514 849.396,-136.439"/>
</g>
<!-- Node17 -->
<g id="node17" class="node"><title>Node17</title>
<g id="a_node17"><a xlink:href="ObjectsManager_8h.html" target="_top" xlink:title="QualityControl/ObjectsManager.h">
<polygon fill="none" stroke="black" points="996,-112.5 996,-131.5 1157,-131.5 1157,-112.5 996,-112.5"/>
<text text-anchor="middle" x="1076.5" y="-119.5" font-family="Helvetica,sans-Serif" font-size="10.00">QualityControl/ObjectsManager.h</text>
</a>
</g>
</g>
<!-- Node9&#45;&gt;Node17 -->
<g id="edge16" class="edge"><title>Node9&#45;&gt;Node17</title>
<path fill="none" stroke="midnightblue" d="M625.604,-168.933C628.608,-168.617 631.583,-168.305 634.5,-168 700.338,-161.122 876.586,-143.238 985.593,-132.198"/>
<polygon fill="midnightblue" stroke="midnightblue" points="986.003,-135.675 995.6,-131.185 985.298,-128.71 986.003,-135.675"/>
</g>
<!-- Node17&#45;&gt;Node11 -->
<g id="edge30" class="edge"><title>Node17&#45;&gt;Node11</title>
<path fill="none" stroke="midnightblue" d="M996.76,-112.473C885.706,-100.598 688.995,-79.5638 607.952,-70.8979"/>
<polygon fill="midnightblue" stroke="midnightblue" points="608.07,-67.3905 597.754,-69.8074 607.325,-74.3509 608.07,-67.3905"/>
</g>
<!-- Node17&#45;&gt;Node12 -->
<g id="edge29" class="edge"><title>Node17&#45;&gt;Node12</title>
<path fill="none" stroke="midnightblue" d="M1018.81,-112.478C956.898,-102.844 865.725,-87.0663 853.5,-76 840.526,-64.2556 835.871,-44.3216 834.251,-29.6182"/>
<polygon fill="midnightblue" stroke="midnightblue" points="837.74,-29.3328 833.516,-19.6162 830.759,-29.8458 837.74,-29.3328"/>
</g>
<!-- Node18 -->
<g id="node18" class="node"><title>Node18</title>
<g id="a_node18"><a xlink:href="MonitorObject_8h.html" target="_top" xlink:title="QualityControl/MonitorObject.h">
<polygon fill="none" stroke="black" points="1001,-56.5 1001,-75.5 1152,-75.5 1152,-56.5 1001,-56.5"/>
<text text-anchor="middle" x="1076.5" y="-63.5" font-family="Helvetica,sans-Serif" font-size="10.00">QualityControl/MonitorObject.h</text>
</a>
</g>
</g>
<!-- Node17&#45;&gt;Node18 -->
<g id="edge17" class="edge"><title>Node17&#45;&gt;Node18</title>
<path fill="none" stroke="midnightblue" d="M1076.5,-112.083C1076.5,-105.006 1076.5,-94.8611 1076.5,-85.9865"/>
<polygon fill="midnightblue" stroke="midnightblue" points="1080,-85.751 1076.5,-75.7511 1073,-85.7511 1080,-85.751"/>
</g>
<!-- Node22 -->
<g id="node22" class="node"><title>Node22</title>
<g id="a_node22"><a xlink:href="Quality_8h.html" target="_top" xlink:title="QualityControl/Quality.h">
<polygon fill="none" stroke="black" points="862,-56.5 862,-75.5 983,-75.5 983,-56.5 862,-56.5"/>
<text text-anchor="middle" x="922.5" y="-63.5" font-family="Helvetica,sans-Serif" font-size="10.00">QualityControl/Quality.h</text>
</a>
</g>
</g>
<!-- Node17&#45;&gt;Node22 -->
<g id="edge23" class="edge"><title>Node17&#45;&gt;Node22</title>
<path fill="none" stroke="midnightblue" d="M1052.1,-112.444C1026.3,-103.399 985.423,-89.064 956.482,-78.9158"/>
<polygon fill="midnightblue" stroke="midnightblue" points="957.382,-75.5226 946.788,-75.5164 955.066,-82.1283 957.382,-75.5226"/>
</g>
<!-- Node23 -->
<g id="node23" class="node"><title>Node23</title>
<g id="a_node23"><a xlink:href="TaskConfig_8h.html" target="_top" xlink:title="QualityControl/TaskConfig.h">
<polygon fill="none" stroke="black" points="665.5,-56.5 665.5,-75.5 805.5,-75.5 805.5,-56.5 665.5,-56.5"/>
<text text-anchor="middle" x="735.5" y="-63.5" font-family="Helvetica,sans-Serif" font-size="10.00">QualityControl/TaskConfig.h</text>
</a>
</g>
</g>
<!-- Node17&#45;&gt;Node23 -->
<g id="edge26" class="edge"><title>Node17&#45;&gt;Node23</title>
<path fill="none" stroke="midnightblue" d="M1022.47,-112.444C961.859,-102.846 863.638,-87.2916 799.303,-77.1037"/>
<polygon fill="midnightblue" stroke="midnightblue" points="799.704,-73.6237 789.28,-75.5164 798.609,-80.5375 799.704,-73.6237"/>
</g>
<!-- Node18&#45;&gt;Node10 -->
<g id="edge19" class="edge"><title>Node18&#45;&gt;Node10</title>
<path fill="none" stroke="midnightblue" d="M1016.92,-56.4435C934.486,-44.6044 788.948,-23.7026 728.273,-14.9887"/>
<polygon fill="midnightblue" stroke="midnightblue" points="728.69,-11.5127 718.294,-13.5555 727.695,-18.4416 728.69,-11.5127"/>
</g>
<!-- Node18&#45;&gt;Node12 -->
<g id="edge18" class="edge"><title>Node18&#45;&gt;Node12</title>
<path fill="none" stroke="midnightblue" d="M1038,-56.4435C989.801,-45.7335 908.232,-27.6072 864.083,-17.7961"/>
<polygon fill="midnightblue" stroke="midnightblue" points="864.743,-14.3576 854.222,-15.6049 863.225,-21.191 864.743,-14.3576"/>
</g>
<!-- Node19 -->
<g id="node19" class="node"><title>Node19</title>
<polygon fill="none" stroke="#bfbfbf" points="913.5,-0.5 913.5,-19.5 969.5,-19.5 969.5,-0.5 913.5,-0.5"/>
<text text-anchor="middle" x="941.5" y="-7.5" font-family="Helvetica,sans-Serif" font-size="10.00">Rtypes.h</text>
</g>
<!-- Node18&#45;&gt;Node19 -->
<g id="edge20" class="edge"><title>Node18&#45;&gt;Node19</title>
<path fill="none" stroke="midnightblue" d="M1055.11,-56.4435C1032.79,-47.5171 997.597,-33.4387 972.292,-23.3168"/>
<polygon fill="midnightblue" stroke="midnightblue" points="973.376,-19.9807 962.791,-19.5164 970.776,-26.4801 973.376,-19.9807"/>
</g>
<!-- Node20 -->
<g id="node20" class="node"><title>Node20</title>
<polygon fill="none" stroke="#bfbfbf" points="1027,-0.5 1027,-19.5 1086,-19.5 1086,-0.5 1027,-0.5"/>
<text text-anchor="middle" x="1056.5" y="-7.5" font-family="Helvetica,sans-Serif" font-size="10.00">TObject.h</text>
</g>
<!-- Node18&#45;&gt;Node20 -->
<g id="edge21" class="edge"><title>Node18&#45;&gt;Node20</title>
<path fill="none" stroke="midnightblue" d="M1073.2,-56.083C1070.52,-48.8486 1066.65,-38.4087 1063.31,-29.3968"/>
<polygon fill="midnightblue" stroke="midnightblue" points="1066.5,-27.9129 1059.74,-19.7511 1059.93,-30.3442 1066.5,-27.9129"/>
</g>
<!-- Node21 -->
<g id="node21" class="node"><title>Node21</title>
<polygon fill="none" stroke="#bfbfbf" points="1104.5,-0.5 1104.5,-19.5 1220.5,-19.5 1220.5,-0.5 1104.5,-0.5"/>
<text text-anchor="middle" x="1162.5" y="-7.5" font-family="Helvetica,sans-Serif" font-size="10.00">Common/Exceptions.h</text>
</g>
<!-- Node18&#45;&gt;Node21 -->
<g id="edge22" class="edge"><title>Node18&#45;&gt;Node21</title>
<path fill="none" stroke="midnightblue" d="M1090.32,-56.324C1103.73,-47.9002 1124.32,-34.9709 1140.09,-25.0741"/>
<polygon fill="midnightblue" stroke="midnightblue" points="1142.11,-27.9364 1148.72,-19.6545 1138.39,-22.0081 1142.11,-27.9364"/>
</g>
<!-- Node22&#45;&gt;Node12 -->
<g id="edge25" class="edge"><title>Node22&#45;&gt;Node12</title>
<path fill="none" stroke="midnightblue" d="M908.201,-56.324C894.317,-47.9002 873.008,-34.9709 856.696,-25.0741"/>
<polygon fill="midnightblue" stroke="midnightblue" points="858.129,-21.8495 847.764,-19.6545 854.498,-27.8341 858.129,-21.8495"/>
</g>
<!-- Node22&#45;&gt;Node19 -->
<g id="edge24" class="edge"><title>Node22&#45;&gt;Node19</title>
<path fill="none" stroke="midnightblue" d="M925.637,-56.083C928.183,-48.8486 931.856,-38.4087 935.027,-29.3968"/>
<polygon fill="midnightblue" stroke="midnightblue" points="938.403,-30.3459 938.421,-19.7511 931.8,-28.0225 938.403,-30.3459"/>
</g>
<!-- Node23&#45;&gt;Node12 -->
<g id="edge27" class="edge"><title>Node23&#45;&gt;Node12</title>
<path fill="none" stroke="midnightblue" d="M751.245,-56.324C766.819,-47.7428 790.877,-34.486 808.959,-24.5224"/>
<polygon fill="midnightblue" stroke="midnightblue" points="810.724,-27.546 817.794,-19.6545 807.346,-21.4152 810.724,-27.546"/>
</g>
<!-- Node23&#45;&gt;Node13 -->
<g id="edge28" class="edge"><title>Node23&#45;&gt;Node13</title>
<path fill="none" stroke="midnightblue" d="M693.193,-56.4435C646.283,-46.9561 570.596,-31.6487 520.206,-21.4574"/>
<polygon fill="midnightblue" stroke="midnightblue" points="520.665,-17.9794 510.169,-19.4275 519.277,-24.8405 520.665,-17.9794"/>
</g>
</g>
</svg>
