<?xml version="1.0" encoding="UTF-8" standalone="no"?>
<!DOCTYPE svg PUBLIC "-//W3C//DTD SVG 1.1//EN"
 "http://www.w3.org/Graphics/SVG/1.1/DTD/svg11.dtd">
<!-- Generated by graphviz version 2.38.0 (20140413.2041)
 -->
<!-- Title: Modules/MFT/include/MFT/BasicDigitQcTask.h Pages: 1 -->
<!--zoomable 263 -->
<svg id="main" version="1.1" xmlns="http://www.w3.org/2000/svg" xmlns:xlink="http://www.w3.org/1999/xlink" xml:space="preserve" onload="init(evt)">
<style type="text/css"><![CDATA[
.edge:hover path { stroke: red; }
.edge:hover polygon { stroke: red; fill: red; }
]]></style>
<script type="text/javascript"><![CDATA[
var edges = document.getElementsByTagName('g');
if (edges && edges.length) {
  for (var i=0;i<edges.length;i++) {
    if (edges[i].id.substr(0,4)=='edge') {
      edges[i].setAttribute('class','edge');
    }
  }
}
]]></script>
        <defs>
                <circle id="rim" cx="0" cy="0" r="7"/>
                <circle id="rim2" cx="0" cy="0" r="3.5"/>
                <g id="zoomPlus">
                        <use xlink:href="#rim" fill="#404040">
                                <set attributeName="fill" to="#808080" begin="zoomplus.mouseover" end="zoomplus.mouseout"/>
                        </use>
                        <path d="M-4,0h8M0,-4v8" fill="none" stroke="white" stroke-width="1.5" pointer-events="none"/>
                </g>
                <g id="zoomMin">
                        <use xlink:href="#rim" fill="#404040">
                                <set attributeName="fill" to="#808080" begin="zoomminus.mouseover" end="zoomminus.mouseout"/>
                        </use>
                        <path d="M-4,0h8" fill="none" stroke="white" stroke-width="1.5" pointer-events="none"/>
                </g>
                <g id="dirArrow">
                        <path fill="none" stroke="white" stroke-width="1.5" d="M0,-3.0v7 M-2.5,-0.5L0,-3.0L2.5,-0.5"/>
                </g>
               <g id="resetDef">
                       <use xlink:href="#rim2" fill="#404040">
                               <set attributeName="fill" to="#808080" begin="reset.mouseover" end="reset.mouseout"/>
                       </use>
               </g>
        </defs>

<script type="text/javascript">
var viewWidth = 827;
var viewHeight = 263;
var sectionId = 'dynsection-0';
</script>
<script xlink:href="svgpan.js"/>
<svg id="graph" class="graph">
<g id="viewport">
<title>Modules/MFT/include/MFT/BasicDigitQcTask.h</title>
<!-- Node1 -->
<g id="node1" class="node"><title>Node1</title>
<polygon fill="#bfbfbf" stroke="black" points="24.6311,-224.5 24.6311,-254.5 155.631,-254.5 155.631,-224.5 24.6311,-224.5"/>
<text text-anchor="start" x="32.6311" y="-242.5" font-family="Helvetica,sans-Serif" font-size="10.00">Modules/MFT/include</text>
<text text-anchor="middle" x="90.1311" y="-231.5" font-family="Helvetica,sans-Serif" font-size="10.00">/MFT/BasicDigitQcTask.h</text>
</g>
<!-- Node2 -->
<g id="node2" class="node"><title>Node2</title>
<polygon fill="none" stroke="#bfbfbf" points="6.13114,-168.5 6.13114,-187.5 56.1311,-187.5 56.1311,-168.5 6.13114,-168.5"/>
<text text-anchor="middle" x="31.1311" y="-175.5" font-family="Helvetica,sans-Serif" font-size="10.00">TH1F.h</text>
</g>
<!-- Node1&#45;&gt;Node2 -->
<g id="edge1" class="edge"><title>Node1&#45;&gt;Node2</title>
<path fill="none" stroke="midnightblue" d="M76.149,-224.399C67.3988,-215.575 56.1022,-204.183 47.0144,-195.018"/>
<polygon fill="midnightblue" stroke="midnightblue" points="49.2427,-192.294 39.7162,-187.658 44.2721,-197.223 49.2427,-192.294"/>
</g>
<!-- Node3 -->
<g id="node3" class="node"><title>Node3</title>
<g id="a_node3"><a xlink:href="TaskInterface_8h.html" target="_top" xlink:title="QualityControl/TaskInterface.h">
<polygon fill="none" stroke="black" points="74.1311,-168.5 74.1311,-187.5 224.131,-187.5 224.131,-168.5 74.1311,-168.5"/>
<text text-anchor="middle" x="149.131" y="-175.5" font-family="Helvetica,sans-Serif" font-size="10.00">QualityControl/TaskInterface.h</text>
</a>
</g>
</g>
<!-- Node1&#45;&gt;Node3 -->
<g id="edge2" class="edge"><title>Node1&#45;&gt;Node3</title>
<path fill="none" stroke="midnightblue" d="M104.113,-224.399C112.863,-215.575 124.16,-204.183 133.248,-195.018"/>
<polygon fill="midnightblue" stroke="midnightblue" points="135.99,-197.223 140.546,-187.658 131.02,-192.294 135.99,-197.223"/>
</g>
<!-- Node4 -->
<g id="node4" class="node"><title>Node4</title>
<polygon fill="none" stroke="#bfbfbf" points="281.631,-0.5 281.631,-19.5 316.631,-19.5 316.631,-0.5 281.631,-0.5"/>
<text text-anchor="middle" x="299.131" y="-7.5" font-family="Helvetica,sans-Serif" font-size="10.00">map</text>
</g>
<!-- Node3&#45;&gt;Node4 -->
<g id="edge3" class="edge"><title>Node3&#45;&gt;Node4</title>
<path fill="none" stroke="midnightblue" d="M106.064,-168.486C85.7348,-162.074 63.3083,-150.991 51.1311,-132 32.8989,-103.565 29.4835,-81.9291 51.1311,-56 78.9842,-22.6382 212.924,-13.9562 271.551,-11.7405"/>
<polygon fill="midnightblue" stroke="midnightblue" points="271.704,-15.2374 281.579,-11.3975 271.465,-8.24147 271.704,-15.2374"/>
</g>
<!-- Node5 -->
<g id="node5" class="node"><title>Node5</title>
<polygon fill="none" stroke="#bfbfbf" points="144.131,-56.5 144.131,-75.5 196.131,-75.5 196.131,-56.5 144.131,-56.5"/>
<text text-anchor="middle" x="170.131" y="-63.5" font-family="Helvetica,sans-Serif" font-size="10.00">memory</text>
</g>
<!-- Node3&#45;&gt;Node5 -->
<g id="edge4" class="edge"><title>Node3&#45;&gt;Node5</title>
<path fill="none" stroke="midnightblue" d="M140.731,-168.133C129.916,-155.587 113.485,-131.958 122.131,-112 127.399,-99.8399 137.751,-89.4594 147.496,-81.7429"/>
<polygon fill="midnightblue" stroke="midnightblue" points="149.775,-84.4116 155.761,-75.6698 145.63,-78.7707 149.775,-84.4116"/>
</g>
<!-- Node6 -->
<g id="node6" class="node"><title>Node6</title>
<polygon fill="none" stroke="#bfbfbf" points="411.631,-0.5 411.631,-19.5 452.631,-19.5 452.631,-0.5 411.631,-0.5"/>
<text text-anchor="middle" x="432.131" y="-7.5" font-family="Helvetica,sans-Serif" font-size="10.00">string</text>
</g>
<!-- Node3&#45;&gt;Node6 -->
<g id="edge5" class="edge"><title>Node3&#45;&gt;Node6</title>
<path fill="none" stroke="midnightblue" d="M140.111,-168.34C132.059,-159.932 120.833,-146.363 116.131,-132 105.299,-98.9107 108.435,-78.3509 135.131,-56 155.384,-39.0433 329.598,-20.7414 401.397,-13.8438"/>
<polygon fill="midnightblue" stroke="midnightblue" points="401.986,-17.3037 411.61,-12.8734 401.324,-10.3351 401.986,-17.3037"/>
</g>
<!-- Node7 -->
<g id="node7" class="node"><title>Node7</title>
<polygon fill="none" stroke="#bfbfbf" points="25.6311,-0.5 25.6311,-19.5 108.631,-19.5 108.631,-0.5 25.6311,-0.5"/>
<text text-anchor="middle" x="67.1311" y="-7.5" font-family="Helvetica,sans-Serif" font-size="10.00">unordered_map</text>
</g>
<!-- Node3&#45;&gt;Node7 -->
<g id="edge6" class="edge"><title>Node3&#45;&gt;Node7</title>
<path fill="none" stroke="midnightblue" d="M73.973,-169.312C50.6793,-162.981 27.4039,-151.756 13.1311,-132 -6.64931,-104.62 -1.19589,-86.5888 13.1311,-56 19.176,-43.0941 30.943,-32.5985 41.9537,-24.9999"/>
<polygon fill="midnightblue" stroke="midnightblue" points="43.9587,-27.8723 50.4981,-19.5364 40.1877,-21.9748 43.9587,-27.8723"/>
</g>
<!-- Node8 -->
<g id="node8" class="node"><title>Node8</title>
<polygon fill="none" stroke="#bfbfbf" points="131.631,-112.5 131.631,-131.5 256.631,-131.5 256.631,-112.5 131.631,-112.5"/>
<text text-anchor="middle" x="194.131" y="-119.5" font-family="Helvetica,sans-Serif" font-size="10.00">Framework/InitContext.h</text>
</g>
<!-- Node3&#45;&gt;Node8 -->
<g id="edge7" class="edge"><title>Node3&#45;&gt;Node8</title>
<path fill="none" stroke="midnightblue" d="M156.562,-168.083C162.984,-160.377 172.437,-149.033 180.254,-139.653"/>
<polygon fill="midnightblue" stroke="midnightblue" points="183.125,-141.674 186.839,-131.751 177.748,-137.193 183.125,-141.674"/>
</g>
<!-- Node9 -->
<g id="node9" class="node"><title>Node9</title>
<polygon fill="none" stroke="#bfbfbf" points="275.131,-112.5 275.131,-131.5 435.131,-131.5 435.131,-112.5 275.131,-112.5"/>
<text text-anchor="middle" x="355.131" y="-119.5" font-family="Helvetica,sans-Serif" font-size="10.00">Framework/ProcessingContext.h</text>
</g>
<!-- Node3&#45;&gt;Node9 -->
<g id="edge8" class="edge"><title>Node3&#45;&gt;Node9</title>
<path fill="none" stroke="midnightblue" d="M181.772,-168.444C217.181,-159.162 273.84,-144.309 312.684,-134.127"/>
<polygon fill="midnightblue" stroke="midnightblue" points="313.857,-137.438 322.643,-131.516 312.082,-130.667 313.857,-137.438"/>
</g>
<!-- Node10 -->
<g id="node10" class="node"><title>Node10</title>
<g id="a_node10"><a xlink:href="Activity_8h.html" target="_top" xlink:title="QualityControl/Activity.h">
<polygon fill="none" stroke="black" points="453.631,-112.5 453.631,-131.5 576.631,-131.5 576.631,-112.5 453.631,-112.5"/>
<text text-anchor="middle" x="515.131" y="-119.5" font-family="Helvetica,sans-Serif" font-size="10.00">QualityControl/Activity.h</text>
</a>
</g>
</g>
<!-- Node3&#45;&gt;Node10 -->
<g id="edge9" class="edge"><title>Node3&#45;&gt;Node10</title>
<path fill="none" stroke="midnightblue" d="M207.125,-168.444C272.445,-158.806 378.468,-143.163 447.501,-132.978"/>
<polygon fill="midnightblue" stroke="midnightblue" points="448.027,-136.439 457.409,-131.516 447.005,-129.514 448.027,-136.439"/>
</g>
<!-- Node11 -->
<g id="node11" class="node"><title>Node11</title>
<g id="a_node11"><a xlink:href="ObjectsManager_8h.html" target="_top" xlink:title="QualityControl/ObjectsManager.h">
<polygon fill="none" stroke="black" points="594.631,-112.5 594.631,-131.5 755.631,-131.5 755.631,-112.5 594.631,-112.5"/>
<text text-anchor="middle" x="675.131" y="-119.5" font-family="Helvetica,sans-Serif" font-size="10.00">QualityControl/ObjectsManager.h</text>
</a>
</g>
</g>
<!-- Node3&#45;&gt;Node11 -->
<g id="edge10" class="edge"><title>Node3&#45;&gt;Node11</title>
<path fill="none" stroke="midnightblue" d="M224.215,-169.292C319.125,-159.548 482.38,-142.788 584.236,-132.331"/>
<polygon fill="midnightblue" stroke="midnightblue" points="584.612,-135.811 594.203,-131.308 583.898,-128.848 584.612,-135.811"/>
</g>
<!-- Node11&#45;&gt;Node5 -->
<g id="edge24" class="edge"><title>Node11&#45;&gt;Node5</title>
<path fill="none" stroke="midnightblue" d="M595.391,-112.473C484.337,-100.598 287.626,-79.5638 206.583,-70.8979"/>
<polygon fill="midnightblue" stroke="midnightblue" points="206.701,-67.3905 196.385,-69.8074 205.956,-74.3509 206.701,-67.3905"/>
</g>
<!-- Node11&#45;&gt;Node6 -->
<g id="edge23" class="edge"><title>Node11&#45;&gt;Node6</title>
<path fill="none" stroke="midnightblue" d="M616.88,-112.481C554.666,-102.887 463.316,-87.1783 451.131,-76 438.29,-64.2199 433.949,-44.2915 432.57,-29.5992"/>
<polygon fill="midnightblue" stroke="midnightblue" points="436.064,-29.391 432.002,-19.6061 429.076,-29.7889 436.064,-29.391"/>
</g>
<!-- Node12 -->
<g id="node12" class="node"><title>Node12</title>
<g id="a_node12"><a xlink:href="MonitorObject_8h.html" target="_top" xlink:title="QualityControl/MonitorObject.h">
<polygon fill="none" stroke="black" points="599.631,-56.5 599.631,-75.5 750.631,-75.5 750.631,-56.5 599.631,-56.5"/>
<text text-anchor="middle" x="675.131" y="-63.5" font-family="Helvetica,sans-Serif" font-size="10.00">QualityControl/MonitorObject.h</text>
</a>
</g>
</g>
<!-- Node11&#45;&gt;Node12 -->
<g id="edge11" class="edge"><title>Node11&#45;&gt;Node12</title>
<path fill="none" stroke="midnightblue" d="M675.131,-112.083C675.131,-105.006 675.131,-94.8611 675.131,-85.9865"/>
<polygon fill="midnightblue" stroke="midnightblue" points="678.631,-85.751 675.131,-75.7511 671.631,-85.7511 678.631,-85.751"/>
</g>
<!-- Node16 -->
<g id="node16" class="node"><title>Node16</title>
<g id="a_node16"><a xlink:href="Quality_8h.html" target="_top" xlink:title="QualityControl/Quality.h">
<polygon fill="none" stroke="black" points="460.631,-56.5 460.631,-75.5 581.631,-75.5 581.631,-56.5 460.631,-56.5"/>
<text text-anchor="middle" x="521.131" y="-63.5" font-family="Helvetica,sans-Serif" font-size="10.00">QualityControl/Quality.h</text>
</a>
</g>
</g>
<!-- Node11&#45;&gt;Node16 -->
<g id="edge17" class="edge"><title>Node11&#45;&gt;Node16</title>
<path fill="none" stroke="midnightblue" d="M650.729,-112.444C624.935,-103.399 584.055,-89.064 555.113,-78.9158"/>
<polygon fill="midnightblue" stroke="midnightblue" points="556.014,-75.5226 545.419,-75.5164 553.697,-82.1283 556.014,-75.5226"/>
</g>
<!-- Node17 -->
<g id="node17" class="node"><title>Node17</title>
<g id="a_node17"><a xlink:href="TaskConfig_8h.html" target="_top" xlink:title="QualityControl/TaskConfig.h">
<polygon fill="none" stroke="black" points="264.131,-56.5 264.131,-75.5 404.131,-75.5 404.131,-56.5 264.131,-56.5"/>
<text text-anchor="middle" x="334.131" y="-63.5" font-family="Helvetica,sans-Serif" font-size="10.00">QualityControl/TaskConfig.h</text>
</a>
</g>
</g>
<!-- Node11&#45;&gt;Node17 -->
<g id="edge20" class="edge"><title>Node11&#45;&gt;Node17</title>
<path fill="none" stroke="midnightblue" d="M621.099,-112.444C560.49,-102.846 462.269,-87.2916 397.934,-77.1037"/>
<polygon fill="midnightblue" stroke="midnightblue" points="398.335,-73.6237 387.911,-75.5164 397.24,-80.5375 398.335,-73.6237"/>
</g>
<!-- Node12&#45;&gt;Node4 -->
<g id="edge13" class="edge"><title>Node12&#45;&gt;Node4</title>
<path fill="none" stroke="midnightblue" d="M615.553,-56.4435C533.117,-44.6044 387.579,-23.7026 326.904,-14.9887"/>
<polygon fill="midnightblue" stroke="midnightblue" points="327.321,-11.5127 316.925,-13.5555 326.326,-18.4416 327.321,-11.5127"/>
</g>
<!-- Node12&#45;&gt;Node6 -->
<g id="edge12" class="edge"><title>Node12&#45;&gt;Node6</title>
<path fill="none" stroke="midnightblue" d="M636.627,-56.4435C588.432,-45.7335 506.863,-27.6072 462.714,-17.7961"/>
<polygon fill="midnightblue" stroke="midnightblue" points="463.374,-14.3576 452.853,-15.6049 461.856,-21.191 463.374,-14.3576"/>
</g>
<!-- Node13 -->
<g id="node13" class="node"><title>Node13</title>
<polygon fill="none" stroke="#bfbfbf" points="512.131,-0.5 512.131,-19.5 568.131,-19.5 568.131,-0.5 512.131,-0.5"/>
<text text-anchor="middle" x="540.131" y="-7.5" font-family="Helvetica,sans-Serif" font-size="10.00">Rtypes.h</text>
</g>
<!-- Node12&#45;&gt;Node13 -->
<g id="edge14" class="edge"><title>Node12&#45;&gt;Node13</title>
<path fill="none" stroke="midnightblue" d="M653.74,-56.4435C631.424,-47.5171 596.228,-33.4387 570.923,-23.3168"/>
<polygon fill="midnightblue" stroke="midnightblue" points="572.007,-19.9807 561.422,-19.5164 569.407,-26.4801 572.007,-19.9807"/>
</g>
<!-- Node14 -->
<g id="node14" class="node"><title>Node14</title>
<polygon fill="none" stroke="#bfbfbf" points="625.631,-0.5 625.631,-19.5 684.631,-19.5 684.631,-0.5 625.631,-0.5"/>
<text text-anchor="middle" x="655.131" y="-7.5" font-family="Helvetica,sans-Serif" font-size="10.00">TObject.h</text>
</g>
<!-- Node12&#45;&gt;Node14 -->
<g id="edge15" class="edge"><title>Node12&#45;&gt;Node14</title>
<path fill="none" stroke="midnightblue" d="M671.829,-56.083C669.149,-48.8486 665.283,-38.4087 661.945,-29.3968"/>
<polygon fill="midnightblue" stroke="midnightblue" points="665.128,-27.9129 658.372,-19.7511 658.563,-30.3442 665.128,-27.9129"/>
</g>
<!-- Node15 -->
<g id="node15" class="node"><title>Node15</title>
<polygon fill="none" stroke="#bfbfbf" points="703.131,-0.5 703.131,-19.5 819.131,-19.5 819.131,-0.5 703.131,-0.5"/>
<text text-anchor="middle" x="761.131" y="-7.5" font-family="Helvetica,sans-Serif" font-size="10.00">Common/Exceptions.h</text>
</g>
<!-- Node12&#45;&gt;Node15 -->
<g id="edge16" class="edge"><title>Node12&#45;&gt;Node15</title>
<path fill="none" stroke="midnightblue" d="M688.949,-56.324C702.364,-47.9002 722.955,-34.9709 738.717,-25.0741"/>
<polygon fill="midnightblue" stroke="midnightblue" points="740.74,-27.9364 747.348,-19.6545 737.018,-22.0081 740.74,-27.9364"/>
</g>
<!-- Node16&#45;&gt;Node6 -->
<g id="edge19" class="edge"><title>Node16&#45;&gt;Node6</title>
<path fill="none" stroke="midnightblue" d="M506.832,-56.324C492.948,-47.9002 471.639,-34.9709 455.327,-25.0741"/>
<polygon fill="midnightblue" stroke="midnightblue" points="456.76,-21.8495 446.395,-19.6545 453.129,-27.8341 456.76,-21.8495"/>
</g>
<!-- Node16&#45;&gt;Node13 -->
<g id="edge18" class="edge"><title>Node16&#45;&gt;Node13</title>
<path fill="none" stroke="midnightblue" d="M524.269,-56.083C526.814,-48.8486 530.487,-38.4087 533.658,-29.3968"/>
<polygon fill="midnightblue" stroke="midnightblue" points="537.035,-30.3459 537.052,-19.7511 530.431,-28.0225 537.035,-30.3459"/>
</g>
<!-- Node17&#45;&gt;Node6 -->
<g id="edge21" class="edge"><title>Node17&#45;&gt;Node6</title>
<path fill="none" stroke="midnightblue" d="M349.877,-56.324C365.45,-47.7428 389.508,-34.486 407.59,-24.5224"/>
<polygon fill="midnightblue" stroke="midnightblue" points="409.356,-27.546 416.425,-19.6545 405.977,-21.4152 409.356,-27.546"/>
</g>
<!-- Node17&#45;&gt;Node7 -->
<g id="edge22" class="edge"><title>Node17&#45;&gt;Node7</title>
<path fill="none" stroke="midnightblue" d="M291.824,-56.4435C244.914,-46.9561 169.227,-31.6487 118.837,-21.4574"/>
<polygon fill="midnightblue" stroke="midnightblue" points="119.296,-17.9794 108.801,-19.4275 117.908,-24.8405 119.296,-17.9794"/>
</g>
</g>
</svg>
        <g id="navigator" transform="translate(0 0)" fill="#404254">
                <rect fill="#f2f5e9" fill-opacity="0.5" stroke="#606060" stroke-width=".5" x="0" y="0" width="60" height="60"/>
                <use id="zoomplus" xlink:href="#zoomPlus" x="17" y="9" onmousedown="handleZoom(evt,'in')"/>
                <use id="zoomminus" xlink:href="#zoomMin" x="42" y="9" onmousedown="handleZoom(evt,'out')"/>
                <use id="reset" xlink:href="#resetDef" x="30" y="36" onmousedown="handleReset()"/>
                <g id="arrowUp" xlink:href="#dirArrow" transform="translate(30 24)" onmousedown="handlePan(0,-1)">
                  <use xlink:href="#rim" fill="#404040">
                        <set attributeName="fill" to="#808080" begin="arrowUp.mouseover" end="arrowUp.mouseout"/>
                  </use>
                  <path fill="none" stroke="white" stroke-width="1.5" d="M0,-3.0v7 M-2.5,-0.5L0,-3.0L2.5,-0.5"/>
                </g>
                <g id="arrowRight" xlink:href="#dirArrow" transform="rotate(90) translate(36 -43)" onmousedown="handlePan(1,0)">
                  <use xlink:href="#rim" fill="#404040">
                        <set attributeName="fill" to="#808080" begin="arrowRight.mouseover" end="arrowRight.mouseout"/>
                  </use>
                  <path fill="none" stroke="white" stroke-width="1.5" d="M0,-3.0v7 M-2.5,-0.5L0,-3.0L2.5,-0.5"/>
                </g>
                <g id="arrowDown" xlink:href="#dirArrow" transform="rotate(180) translate(-30 -48)" onmousedown="handlePan(0,1)">
                  <use xlink:href="#rim" fill="#404040">
                        <set attributeName="fill" to="#808080" begin="arrowDown.mouseover" end="arrowDown.mouseout"/>
                  </use>
                  <path fill="none" stroke="white" stroke-width="1.5" d="M0,-3.0v7 M-2.5,-0.5L0,-3.0L2.5,-0.5"/>
                </g>
                <g id="arrowLeft" xlink:href="#dirArrow" transform="rotate(270) translate(-36 17)" onmousedown="handlePan(-1,0)">
                  <use xlink:href="#rim" fill="#404040">
                        <set attributeName="fill" to="#808080" begin="arrowLeft.mouseover" end="arrowLeft.mouseout"/>
                  </use>
                  <path fill="none" stroke="white" stroke-width="1.5" d="M0,-3.0v7 M-2.5,-0.5L0,-3.0L2.5,-0.5"/>
                </g>
        </g>
        <svg viewBox="0 0 15 15" width="100%" height="30px" preserveAspectRatio="xMaxYMin meet">
         <g id="arrow_out" transform="scale(0.3 0.3)">
          <a xlink:href="BasicDigitQcTask_8h__incl_org.svg" target="_base">
           <rect id="button" ry="5" rx="5" y="6" x="6" height="38" width="38"
                fill="#f2f5e9" fill-opacity="0.5" stroke="#606060" stroke-width="1.0"/>
           <path id="arrow"
             d="M 11.500037,31.436501 C 11.940474,20.09759 22.043105,11.32322 32.158766,21.979434 L 37.068811,17.246167 C 37.068811,17.246167 37.088388,32 37.088388,32 L 22.160133,31.978069 C 22.160133,31.978069 26.997745,27.140456 26.997745,27.140456 C 18.528582,18.264221 13.291696,25.230495 11.500037,31.436501 z"
             style="fill:#404040;"/>
          </a>
         </g>
        </svg>
</svg>
