<?xml version="1.0" encoding="UTF-8" standalone="no"?>
<!DOCTYPE svg PUBLIC "-//W3C//DTD SVG 1.1//EN"
 "http://www.w3.org/Graphics/SVG/1.1/DTD/svg11.dtd">
<!-- Generated by graphviz version 2.38.0 (20140413.2041)
 -->
<!-- Title: Modules/MFT/src/BasicTrackQcTask.cxx Pages: 1 -->
<!--zoomable 319 -->
<svg id="main" version="1.1" xmlns="http://www.w3.org/2000/svg" xmlns:xlink="http://www.w3.org/1999/xlink" xml:space="preserve" onload="init(evt)">
<style type="text/css"><![CDATA[
.edge:hover path { stroke: red; }
.edge:hover polygon { stroke: red; fill: red; }
]]></style>
<script type="text/javascript"><![CDATA[
var edges = document.getElementsByTagName('g');
if (edges && edges.length) {
  for (var i=0;i<edges.length;i++) {
    if (edges[i].id.substr(0,4)=='edge') {
      edges[i].setAttribute('class','edge');
    }
  }
}
]]></script>
        <defs>
                <circle id="rim" cx="0" cy="0" r="7"/>
                <circle id="rim2" cx="0" cy="0" r="3.5"/>
                <g id="zoomPlus">
                        <use xlink:href="#rim" fill="#404040">
                                <set attributeName="fill" to="#808080" begin="zoomplus.mouseover" end="zoomplus.mouseout"/>
                        </use>
                        <path d="M-4,0h8M0,-4v8" fill="none" stroke="white" stroke-width="1.5" pointer-events="none"/>
                </g>
                <g id="zoomMin">
                        <use xlink:href="#rim" fill="#404040">
                                <set attributeName="fill" to="#808080" begin="zoomminus.mouseover" end="zoomminus.mouseout"/>
                        </use>
                        <path d="M-4,0h8" fill="none" stroke="white" stroke-width="1.5" pointer-events="none"/>
                </g>
                <g id="dirArrow">
                        <path fill="none" stroke="white" stroke-width="1.5" d="M0,-3.0v7 M-2.5,-0.5L0,-3.0L2.5,-0.5"/>
                </g>
               <g id="resetDef">
                       <use xlink:href="#rim2" fill="#404040">
                               <set attributeName="fill" to="#808080" begin="reset.mouseover" end="reset.mouseout"/>
                       </use>
               </g>
        </defs>

<script type="text/javascript">
var viewWidth = 1367;
var viewHeight = 319;
var sectionId = 'dynsection-0';
</script>
<script xlink:href="svgpan.js"/>
<svg id="graph" class="graph">
<g id="viewport">
<title>Modules/MFT/src/BasicTrackQcTask.cxx</title>
<!-- Node1 -->
<g id="node1" class="node"><title>Node1</title>
<polygon fill="#bfbfbf" stroke="black" points="224.5,-280.5 224.5,-310.5 370.5,-310.5 370.5,-280.5 224.5,-280.5"/>
<text text-anchor="start" x="232.5" y="-298.5" font-family="Helvetica,sans-Serif" font-size="10.00">Modules/MFT/src/BasicTrack</text>
<text text-anchor="middle" x="297.5" y="-287.5" font-family="Helvetica,sans-Serif" font-size="10.00">QcTask.cxx</text>
</g>
<!-- Node2 -->
<g id="node2" class="node"><title>Node2</title>
<polygon fill="none" stroke="#bfbfbf" points="0,-224.5 0,-243.5 65,-243.5 65,-224.5 0,-224.5"/>
<text text-anchor="middle" x="32.5" y="-231.5" font-family="Helvetica,sans-Serif" font-size="10.00">TCanvas.h</text>
</g>
<!-- Node1&#45;&gt;Node2 -->
<g id="edge1" class="edge"><title>Node1&#45;&gt;Node2</title>
<path fill="none" stroke="midnightblue" d="M235.034,-280.475C185.736,-269.406 118.286,-254.261 75.0478,-244.553"/>
<polygon fill="midnightblue" stroke="midnightblue" points="75.6612,-241.104 65.1374,-242.328 74.1277,-247.934 75.6612,-241.104"/>
</g>
<!-- Node3 -->
<g id="node3" class="node"><title>Node3</title>
<polygon fill="none" stroke="#bfbfbf" points="83.5,-224.5 83.5,-243.5 127.5,-243.5 127.5,-224.5 83.5,-224.5"/>
<text text-anchor="middle" x="105.5" y="-231.5" font-family="Helvetica,sans-Serif" font-size="10.00">TH1.h</text>
</g>
<!-- Node1&#45;&gt;Node3 -->
<g id="edge2" class="edge"><title>Node1&#45;&gt;Node3</title>
<path fill="none" stroke="midnightblue" d="M251.999,-280.399C216.73,-269.47 168.748,-254.6 137.457,-244.903"/>
<polygon fill="midnightblue" stroke="midnightblue" points="138.116,-241.443 127.528,-241.826 136.044,-248.13 138.116,-241.443"/>
</g>
<!-- Node4 -->
<g id="node4" class="node"><title>Node4</title>
<polygon fill="none" stroke="#bfbfbf" points="145.5,-224.5 145.5,-243.5 295.5,-243.5 295.5,-224.5 145.5,-224.5"/>
<text text-anchor="middle" x="220.5" y="-231.5" font-family="Helvetica,sans-Serif" font-size="10.00">DataFormatsMFT/TrackMFT.h</text>
</g>
<!-- Node1&#45;&gt;Node4 -->
<g id="edge3" class="edge"><title>Node1&#45;&gt;Node4</title>
<path fill="none" stroke="midnightblue" d="M279.252,-280.399C267.371,-271.218 251.893,-259.258 239.806,-249.918"/>
<polygon fill="midnightblue" stroke="midnightblue" points="241.757,-247.003 231.704,-243.658 237.477,-252.542 241.757,-247.003"/>
</g>
<!-- Node5 -->
<g id="node5" class="node"><title>Node5</title>
<polygon fill="none" stroke="#bfbfbf" points="313,-224.5 313,-243.5 438,-243.5 438,-224.5 313,-224.5"/>
<text text-anchor="middle" x="375.5" y="-231.5" font-family="Helvetica,sans-Serif" font-size="10.00">MFTTracking/TrackCA.h</text>
</g>
<!-- Node1&#45;&gt;Node5 -->
<g id="edge4" class="edge"><title>Node1&#45;&gt;Node5</title>
<path fill="none" stroke="midnightblue" d="M315.985,-280.399C328.02,-271.218 343.7,-259.258 355.943,-249.918"/>
<polygon fill="midnightblue" stroke="midnightblue" points="358.322,-252.506 364.15,-243.658 354.077,-246.94 358.322,-252.506"/>
</g>
<!-- Node6 -->
<g id="node6" class="node"><title>Node6</title>
<g id="a_node6"><a xlink:href="QcInfoLogger_8h.html" target="_top" xlink:title="QualityControl/QcInfoLogger.h">
<polygon fill="none" stroke="black" points="456,-224.5 456,-243.5 605,-243.5 605,-224.5 456,-224.5"/>
<text text-anchor="middle" x="530.5" y="-231.5" font-family="Helvetica,sans-Serif" font-size="10.00">QualityControl/QcInfoLogger.h</text>
</a>
</g>
</g>
<!-- Node1&#45;&gt;Node6 -->
<g id="edge5" class="edge"><title>Node1&#45;&gt;Node6</title>
<path fill="none" stroke="midnightblue" d="M352.423,-280.475C393.673,-269.941 449.378,-255.716 487.433,-245.998"/>
<polygon fill="midnightblue" stroke="midnightblue" points="488.366,-249.372 497.189,-243.506 486.634,-242.59 488.366,-249.372"/>
</g>
<!-- Node8 -->
<g id="node8" class="node"><title>Node8</title>
<g id="a_node8"><a xlink:href="BasicTrackQcTask_8h.html" target="_top" xlink:title="MFT/BasicTrackQcTask.h">
<polygon fill="none" stroke="black" points="623.5,-224.5 623.5,-243.5 755.5,-243.5 755.5,-224.5 623.5,-224.5"/>
<text text-anchor="middle" x="689.5" y="-231.5" font-family="Helvetica,sans-Serif" font-size="10.00">MFT/BasicTrackQcTask.h</text>
</a>
</g>
</g>
<!-- Node1&#45;&gt;Node8 -->
<g id="edge7" class="edge"><title>Node1&#45;&gt;Node8</title>
<path fill="none" stroke="midnightblue" d="M370.772,-283.378C443.324,-272.366 553.416,-255.656 623.372,-245.037"/>
<polygon fill="midnightblue" stroke="midnightblue" points="624.031,-248.477 633.393,-243.516 622.981,-241.557 624.031,-248.477"/>
</g>
<!-- Node7 -->
<g id="node7" class="node"><title>Node7</title>
<polygon fill="none" stroke="#bfbfbf" points="465.5,-168.5 465.5,-187.5 595.5,-187.5 595.5,-168.5 465.5,-168.5"/>
<text text-anchor="middle" x="530.5" y="-175.5" font-family="Helvetica,sans-Serif" font-size="10.00">InfoLogger/InfoLogger.hxx</text>
</g>
<!-- Node6&#45;&gt;Node7 -->
<g id="edge6" class="edge"><title>Node6&#45;&gt;Node7</title>
<path fill="none" stroke="midnightblue" d="M530.5,-224.083C530.5,-217.006 530.5,-206.861 530.5,-197.986"/>
<polygon fill="midnightblue" stroke="midnightblue" points="534,-197.751 530.5,-187.751 527,-197.751 534,-197.751"/>
</g>
<!-- Node9 -->
<g id="node9" class="node"><title>Node9</title>
<polygon fill="none" stroke="#bfbfbf" points="781.5,-168.5 781.5,-187.5 831.5,-187.5 831.5,-168.5 781.5,-168.5"/>
<text text-anchor="middle" x="806.5" y="-175.5" font-family="Helvetica,sans-Serif" font-size="10.00">TH1F.h</text>
</g>
<!-- Node8&#45;&gt;Node9 -->
<g id="edge8" class="edge"><title>Node8&#45;&gt;Node9</title>
<path fill="none" stroke="midnightblue" d="M708.039,-224.444C727.123,-215.636 757.075,-201.812 778.936,-191.722"/>
<polygon fill="midnightblue" stroke="midnightblue" points="780.435,-194.885 788.048,-187.516 777.501,-188.529 780.435,-194.885"/>
</g>
<!-- Node10 -->
<g id="node10" class="node"><title>Node10</title>
<g id="a_node10"><a xlink:href="TaskInterface_8h.html" target="_top" xlink:title="QualityControl/TaskInterface.h">
<polygon fill="none" stroke="black" points="613.5,-168.5 613.5,-187.5 763.5,-187.5 763.5,-168.5 613.5,-168.5"/>
<text text-anchor="middle" x="688.5" y="-175.5" font-family="Helvetica,sans-Serif" font-size="10.00">QualityControl/TaskInterface.h</text>
</a>
</g>
</g>
<!-- Node8&#45;&gt;Node10 -->
<g id="edge9" class="edge"><title>Node8&#45;&gt;Node10</title>
<path fill="none" stroke="midnightblue" d="M689.335,-224.083C689.204,-217.006 689.016,-206.861 688.852,-197.986"/>
<polygon fill="midnightblue" stroke="midnightblue" points="692.347,-197.685 688.662,-187.751 685.348,-197.814 692.347,-197.685"/>
</g>
<!-- Node11 -->
<g id="node11" class="node"><title>Node11</title>
<polygon fill="none" stroke="#bfbfbf" points="821,-0.5 821,-19.5 856,-19.5 856,-0.5 821,-0.5"/>
<text text-anchor="middle" x="838.5" y="-7.5" font-family="Helvetica,sans-Serif" font-size="10.00">map</text>
</g>
<!-- Node10&#45;&gt;Node11 -->
<g id="edge10" class="edge"><title>Node10&#45;&gt;Node11</title>
<path fill="none" stroke="midnightblue" d="M645.433,-168.486C625.104,-162.074 602.677,-150.991 590.5,-132 572.268,-103.565 568.852,-81.9291 590.5,-56 618.353,-22.6382 752.293,-13.9562 810.92,-11.7405"/>
<polygon fill="midnightblue" stroke="midnightblue" points="811.073,-15.2374 820.948,-11.3975 810.834,-8.24147 811.073,-15.2374"/>
</g>
<!-- Node12 -->
<g id="node12" class="node"><title>Node12</title>
<polygon fill="none" stroke="#bfbfbf" points="683.5,-56.5 683.5,-75.5 735.5,-75.5 735.5,-56.5 683.5,-56.5"/>
<text text-anchor="middle" x="709.5" y="-63.5" font-family="Helvetica,sans-Serif" font-size="10.00">memory</text>
</g>
<!-- Node10&#45;&gt;Node12 -->
<g id="edge11" class="edge"><title>Node10&#45;&gt;Node12</title>
<path fill="none" stroke="midnightblue" d="M680.364,-168.116C669.893,-155.549 654.004,-131.896 662.5,-112 667.647,-99.9469 677.781,-89.5764 687.326,-81.8389"/>
<polygon fill="midnightblue" stroke="midnightblue" points="689.54,-84.5532 695.422,-75.7409 685.328,-78.9619 689.54,-84.5532"/>
</g>
<!-- Node13 -->
<g id="node13" class="node"><title>Node13</title>
<polygon fill="none" stroke="#bfbfbf" points="951,-0.5 951,-19.5 992,-19.5 992,-0.5 951,-0.5"/>
<text text-anchor="middle" x="971.5" y="-7.5" font-family="Helvetica,sans-Serif" font-size="10.00">string</text>
</g>
<!-- Node10&#45;&gt;Node13 -->
<g id="edge12" class="edge"><title>Node10&#45;&gt;Node13</title>
<path fill="none" stroke="midnightblue" d="M679.749,-168.286C671.937,-159.84 661.049,-146.246 656.5,-132 645.941,-98.9326 648.065,-78.4969 674.5,-56 694.616,-38.8809 868.91,-20.6736 940.748,-13.8226"/>
<polygon fill="midnightblue" stroke="midnightblue" points="941.34,-17.2824 950.967,-12.859 940.682,-10.3133 941.34,-17.2824"/>
</g>
<!-- Node14 -->
<g id="node14" class="node"><title>Node14</title>
<polygon fill="none" stroke="#bfbfbf" points="565,-0.5 565,-19.5 648,-19.5 648,-0.5 565,-0.5"/>
<text text-anchor="middle" x="606.5" y="-7.5" font-family="Helvetica,sans-Serif" font-size="10.00">unordered_map</text>
</g>
<!-- Node10&#45;&gt;Node14 -->
<g id="edge13" class="edge"><title>Node10&#45;&gt;Node14</title>
<path fill="none" stroke="midnightblue" d="M613.342,-169.312C590.048,-162.981 566.773,-151.756 552.5,-132 532.72,-104.62 538.173,-86.5888 552.5,-56 558.545,-43.0941 570.312,-32.5985 581.323,-24.9999"/>
<polygon fill="midnightblue" stroke="midnightblue" points="583.328,-27.8723 589.867,-19.5364 579.557,-21.9748 583.328,-27.8723"/>
</g>
<!-- Node15 -->
<g id="node15" class="node"><title>Node15</title>
<polygon fill="none" stroke="#bfbfbf" points="671,-112.5 671,-131.5 796,-131.5 796,-112.5 671,-112.5"/>
<text text-anchor="middle" x="733.5" y="-119.5" font-family="Helvetica,sans-Serif" font-size="10.00">Framework/InitContext.h</text>
</g>
<!-- Node10&#45;&gt;Node15 -->
<g id="edge14" class="edge"><title>Node10&#45;&gt;Node15</title>
<path fill="none" stroke="midnightblue" d="M695.931,-168.083C702.353,-160.377 711.806,-149.033 719.622,-139.653"/>
<polygon fill="midnightblue" stroke="midnightblue" points="722.494,-141.674 726.207,-131.751 717.117,-137.193 722.494,-141.674"/>
</g>
<!-- Node16 -->
<g id="node16" class="node"><title>Node16</title>
<polygon fill="none" stroke="#bfbfbf" points="814.5,-112.5 814.5,-131.5 974.5,-131.5 974.5,-112.5 814.5,-112.5"/>
<text text-anchor="middle" x="894.5" y="-119.5" font-family="Helvetica,sans-Serif" font-size="10.00">Framework/ProcessingContext.h</text>
</g>
<!-- Node10&#45;&gt;Node16 -->
<g id="edge15" class="edge"><title>Node10&#45;&gt;Node16</title>
<path fill="none" stroke="midnightblue" d="M721.141,-168.444C756.55,-159.162 813.209,-144.309 852.053,-134.127"/>
<polygon fill="midnightblue" stroke="midnightblue" points="853.226,-137.438 862.011,-131.516 851.451,-130.667 853.226,-137.438"/>
</g>
<!-- Node17 -->
<g id="node17" class="node"><title>Node17</title>
<g id="a_node17"><a xlink:href="Activity_8h.html" target="_top" xlink:title="QualityControl/Activity.h">
<polygon fill="none" stroke="black" points="993,-112.5 993,-131.5 1116,-131.5 1116,-112.5 993,-112.5"/>
<text text-anchor="middle" x="1054.5" y="-119.5" font-family="Helvetica,sans-Serif" font-size="10.00">QualityControl/Activity.h</text>
</a>
</g>
</g>
<!-- Node10&#45;&gt;Node17 -->
<g id="edge16" class="edge"><title>Node10&#45;&gt;Node17</title>
<path fill="none" stroke="midnightblue" d="M746.494,-168.444C811.814,-158.806 917.837,-143.163 986.87,-132.978"/>
<polygon fill="midnightblue" stroke="midnightblue" points="987.396,-136.439 996.778,-131.516 986.374,-129.514 987.396,-136.439"/>
</g>
<!-- Node18 -->
<g id="node18" class="node"><title>Node18</title>
<g id="a_node18"><a xlink:href="ObjectsManager_8h.html" target="_top" xlink:title="QualityControl/ObjectsManager.h">
<polygon fill="none" stroke="black" points="1134,-112.5 1134,-131.5 1295,-131.5 1295,-112.5 1134,-112.5"/>
<text text-anchor="middle" x="1214.5" y="-119.5" font-family="Helvetica,sans-Serif" font-size="10.00">QualityControl/ObjectsManager.h</text>
</a>
</g>
</g>
<!-- Node10&#45;&gt;Node18 -->
<g id="edge17" class="edge"><title>Node10&#45;&gt;Node18</title>
<path fill="none" stroke="midnightblue" d="M763.604,-168.933C766.608,-168.617 769.583,-168.305 772.5,-168 838.338,-161.122 1014.59,-143.238 1123.59,-132.198"/>
<polygon fill="midnightblue" stroke="midnightblue" points="1124,-135.675 1133.6,-131.185 1123.3,-128.71 1124,-135.675"/>
</g>
<!-- Node18&#45;&gt;Node12 -->
<g id="edge31" class="edge"><title>Node18&#45;&gt;Node12</title>
<path fill="none" stroke="midnightblue" d="M1134.76,-112.473C1023.71,-100.598 826.995,-79.5638 745.952,-70.8979"/>
<polygon fill="midnightblue" stroke="midnightblue" points="746.07,-67.3905 735.754,-69.8074 745.325,-74.3509 746.07,-67.3905"/>
</g>
<!-- Node18&#45;&gt;Node13 -->
<g id="edge30" class="edge"><title>Node18&#45;&gt;Node13</title>
<path fill="none" stroke="midnightblue" d="M1156.81,-112.478C1094.9,-102.844 1003.72,-87.0663 991.5,-76 978.526,-64.2556 973.871,-44.3216 972.251,-29.6182"/>
<polygon fill="midnightblue" stroke="midnightblue" points="975.74,-29.3328 971.516,-19.6162 968.759,-29.8458 975.74,-29.3328"/>
</g>
<!-- Node19 -->
<g id="node19" class="node"><title>Node19</title>
<g id="a_node19"><a xlink:href="MonitorObject_8h.html" target="_top" xlink:title="QualityControl/MonitorObject.h">
<polygon fill="none" stroke="black" points="1139,-56.5 1139,-75.5 1290,-75.5 1290,-56.5 1139,-56.5"/>
<text text-anchor="middle" x="1214.5" y="-63.5" font-family="Helvetica,sans-Serif" font-size="10.00">QualityControl/MonitorObject.h</text>
</a>
</g>
</g>
<!-- Node18&#45;&gt;Node19 -->
<g id="edge18" class="edge"><title>Node18&#45;&gt;Node19</title>
<path fill="none" stroke="midnightblue" d="M1214.5,-112.083C1214.5,-105.006 1214.5,-94.8611 1214.5,-85.9865"/>
<polygon fill="midnightblue" stroke="midnightblue" points="1218,-85.751 1214.5,-75.7511 1211,-85.7511 1218,-85.751"/>
</g>
<!-- Node23 -->
<g id="node23" class="node"><title>Node23</title>
<g id="a_node23"><a xlink:href="Quality_8h.html" target="_top" xlink:title="QualityControl/Quality.h">
<polygon fill="none" stroke="black" points="1000,-56.5 1000,-75.5 1121,-75.5 1121,-56.5 1000,-56.5"/>
<text text-anchor="middle" x="1060.5" y="-63.5" font-family="Helvetica,sans-Serif" font-size="10.00">QualityControl/Quality.h</text>
</a>
</g>
</g>
<!-- Node18&#45;&gt;Node23 -->
<g id="edge24" class="edge"><title>Node18&#45;&gt;Node23</title>
<path fill="none" stroke="midnightblue" d="M1190.1,-112.444C1164.3,-103.399 1123.42,-89.064 1094.48,-78.9158"/>
<polygon fill="midnightblue" stroke="midnightblue" points="1095.38,-75.5226 1084.79,-75.5164 1093.07,-82.1283 1095.38,-75.5226"/>
</g>
<!-- Node24 -->
<g id="node24" class="node"><title>Node24</title>
<g id="a_node24"><a xlink:href="TaskConfig_8h.html" target="_top" xlink:title="QualityControl/TaskConfig.h">
<polygon fill="none" stroke="black" points="803.5,-56.5 803.5,-75.5 943.5,-75.5 943.5,-56.5 803.5,-56.5"/>
<text text-anchor="middle" x="873.5" y="-63.5" font-family="Helvetica,sans-Serif" font-size="10.00">QualityControl/TaskConfig.h</text>
</a>
</g>
</g>
<!-- Node18&#45;&gt;Node24 -->
<g id="edge27" class="edge"><title>Node18&#45;&gt;Node24</title>
<path fill="none" stroke="midnightblue" d="M1160.47,-112.444C1099.86,-102.846 1001.64,-87.2916 937.303,-77.1037"/>
<polygon fill="midnightblue" stroke="midnightblue" points="937.704,-73.6237 927.28,-75.5164 936.609,-80.5375 937.704,-73.6237"/>
</g>
<!-- Node19&#45;&gt;Node11 -->
<g id="edge20" class="edge"><title>Node19&#45;&gt;Node11</title>
<path fill="none" stroke="midnightblue" d="M1154.92,-56.4435C1072.49,-44.6044 926.948,-23.7026 866.273,-14.9887"/>
<polygon fill="midnightblue" stroke="midnightblue" points="866.69,-11.5127 856.294,-13.5555 865.695,-18.4416 866.69,-11.5127"/>
</g>
<!-- Node19&#45;&gt;Node13 -->
<g id="edge19" class="edge"><title>Node19&#45;&gt;Node13</title>
<path fill="none" stroke="midnightblue" d="M1176,-56.4435C1127.8,-45.7335 1046.23,-27.6072 1002.08,-17.7961"/>
<polygon fill="midnightblue" stroke="midnightblue" points="1002.74,-14.3576 992.222,-15.6049 1001.22,-21.191 1002.74,-14.3576"/>
</g>
<!-- Node20 -->
<g id="node20" class="node"><title>Node20</title>
<polygon fill="none" stroke="#bfbfbf" points="1051.5,-0.5 1051.5,-19.5 1107.5,-19.5 1107.5,-0.5 1051.5,-0.5"/>
<text text-anchor="middle" x="1079.5" y="-7.5" font-family="Helvetica,sans-Serif" font-size="10.00">Rtypes.h</text>
</g>
<!-- Node19&#45;&gt;Node20 -->
<g id="edge21" class="edge"><title>Node19&#45;&gt;Node20</title>
<path fill="none" stroke="midnightblue" d="M1193.11,-56.4435C1170.79,-47.5171 1135.6,-33.4387 1110.29,-23.3168"/>
<polygon fill="midnightblue" stroke="midnightblue" points="1111.38,-19.9807 1100.79,-19.5164 1108.78,-26.4801 1111.38,-19.9807"/>
</g>
<!-- Node21 -->
<g id="node21" class="node"><title>Node21</title>
<polygon fill="none" stroke="#bfbfbf" points="1165,-0.5 1165,-19.5 1224,-19.5 1224,-0.5 1165,-0.5"/>
<text text-anchor="middle" x="1194.5" y="-7.5" font-family="Helvetica,sans-Serif" font-size="10.00">TObject.h</text>
</g>
<!-- Node19&#45;&gt;Node21 -->
<g id="edge22" class="edge"><title>Node19&#45;&gt;Node21</title>
<path fill="none" stroke="midnightblue" d="M1211.2,-56.083C1208.52,-48.8486 1204.65,-38.4087 1201.31,-29.3968"/>
<polygon fill="midnightblue" stroke="midnightblue" points="1204.5,-27.9129 1197.74,-19.7511 1197.93,-30.3442 1204.5,-27.9129"/>
</g>
<!-- Node22 -->
<g id="node22" class="node"><title>Node22</title>
<polygon fill="none" stroke="#bfbfbf" points="1242.5,-0.5 1242.5,-19.5 1358.5,-19.5 1358.5,-0.5 1242.5,-0.5"/>
<text text-anchor="middle" x="1300.5" y="-7.5" font-family="Helvetica,sans-Serif" font-size="10.00">Common/Exceptions.h</text>
</g>
<!-- Node19&#45;&gt;Node22 -->
<g id="edge23" class="edge"><title>Node19&#45;&gt;Node22</title>
<path fill="none" stroke="midnightblue" d="M1228.32,-56.324C1241.73,-47.9002 1262.32,-34.9709 1278.09,-25.0741"/>
<polygon fill="midnightblue" stroke="midnightblue" points="1280.11,-27.9364 1286.72,-19.6545 1276.39,-22.0081 1280.11,-27.9364"/>
</g>
<!-- Node23&#45;&gt;Node13 -->
<g id="edge26" class="edge"><title>Node23&#45;&gt;Node13</title>
<path fill="none" stroke="midnightblue" d="M1046.2,-56.324C1032.32,-47.9002 1011.01,-34.9709 994.696,-25.0741"/>
<polygon fill="midnightblue" stroke="midnightblue" points="996.129,-21.8495 985.764,-19.6545 992.498,-27.8341 996.129,-21.8495"/>
</g>
<!-- Node23&#45;&gt;Node20 -->
<g id="edge25" class="edge"><title>Node23&#45;&gt;Node20</title>
<path fill="none" stroke="midnightblue" d="M1063.64,-56.083C1066.18,-48.8486 1069.86,-38.4087 1073.03,-29.3968"/>
<polygon fill="midnightblue" stroke="midnightblue" points="1076.4,-30.3459 1076.42,-19.7511 1069.8,-28.0225 1076.4,-30.3459"/>
</g>
<!-- Node24&#45;&gt;Node13 -->
<g id="edge28" class="edge"><title>Node24&#45;&gt;Node13</title>
<path fill="none" stroke="midnightblue" d="M889.245,-56.324C904.819,-47.7428 928.877,-34.486 946.959,-24.5224"/>
<polygon fill="midnightblue" stroke="midnightblue" points="948.724,-27.546 955.794,-19.6545 945.346,-21.4152 948.724,-27.546"/>
</g>
<!-- Node24&#45;&gt;Node14 -->
<g id="edge29" class="edge"><title>Node24&#45;&gt;Node14</title>
<path fill="none" stroke="midnightblue" d="M831.193,-56.4435C784.283,-46.9561 708.596,-31.6487 658.206,-21.4574"/>
<polygon fill="midnightblue" stroke="midnightblue" points="658.665,-17.9794 648.169,-19.4275 657.277,-24.8405 658.665,-17.9794"/>
</g>
</g>
</svg>
        <g id="navigator" transform="translate(0 0)" fill="#404254">
                <rect fill="#f2f5e9" fill-opacity="0.5" stroke="#606060" stroke-width=".5" x="0" y="0" width="60" height="60"/>
                <use id="zoomplus" xlink:href="#zoomPlus" x="17" y="9" onmousedown="handleZoom(evt,'in')"/>
                <use id="zoomminus" xlink:href="#zoomMin" x="42" y="9" onmousedown="handleZoom(evt,'out')"/>
                <use id="reset" xlink:href="#resetDef" x="30" y="36" onmousedown="handleReset()"/>
                <g id="arrowUp" xlink:href="#dirArrow" transform="translate(30 24)" onmousedown="handlePan(0,-1)">
                  <use xlink:href="#rim" fill="#404040">
                        <set attributeName="fill" to="#808080" begin="arrowUp.mouseover" end="arrowUp.mouseout"/>
                  </use>
                  <path fill="none" stroke="white" stroke-width="1.5" d="M0,-3.0v7 M-2.5,-0.5L0,-3.0L2.5,-0.5"/>
                </g>
                <g id="arrowRight" xlink:href="#dirArrow" transform="rotate(90) translate(36 -43)" onmousedown="handlePan(1,0)">
                  <use xlink:href="#rim" fill="#404040">
                        <set attributeName="fill" to="#808080" begin="arrowRight.mouseover" end="arrowRight.mouseout"/>
                  </use>
                  <path fill="none" stroke="white" stroke-width="1.5" d="M0,-3.0v7 M-2.5,-0.5L0,-3.0L2.5,-0.5"/>
                </g>
                <g id="arrowDown" xlink:href="#dirArrow" transform="rotate(180) translate(-30 -48)" onmousedown="handlePan(0,1)">
                  <use xlink:href="#rim" fill="#404040">
                        <set attributeName="fill" to="#808080" begin="arrowDown.mouseover" end="arrowDown.mouseout"/>
                  </use>
                  <path fill="none" stroke="white" stroke-width="1.5" d="M0,-3.0v7 M-2.5,-0.5L0,-3.0L2.5,-0.5"/>
                </g>
                <g id="arrowLeft" xlink:href="#dirArrow" transform="rotate(270) translate(-36 17)" onmousedown="handlePan(-1,0)">
                  <use xlink:href="#rim" fill="#404040">
                        <set attributeName="fill" to="#808080" begin="arrowLeft.mouseover" end="arrowLeft.mouseout"/>
                  </use>
                  <path fill="none" stroke="white" stroke-width="1.5" d="M0,-3.0v7 M-2.5,-0.5L0,-3.0L2.5,-0.5"/>
                </g>
        </g>
        <svg viewBox="0 0 15 15" width="100%" height="30px" preserveAspectRatio="xMaxYMin meet">
         <g id="arrow_out" transform="scale(0.3 0.3)">
          <a xlink:href="BasicTrackQcTask_8cxx__incl_org.svg" target="_base">
           <rect id="button" ry="5" rx="5" y="6" x="6" height="38" width="38"
                fill="#f2f5e9" fill-opacity="0.5" stroke="#606060" stroke-width="1.0"/>
           <path id="arrow"
             d="M 11.500037,31.436501 C 11.940474,20.09759 22.043105,11.32322 32.158766,21.979434 L 37.068811,17.246167 C 37.068811,17.246167 37.088388,32 37.088388,32 L 22.160133,31.978069 C 22.160133,31.978069 26.997745,27.140456 26.997745,27.140456 C 18.528582,18.264221 13.291696,25.230495 11.500037,31.436501 z"
             style="fill:#404040;"/>
          </a>
         </g>
        </svg>
</svg>
