<?xml version="1.0" encoding="UTF-8" standalone="no"?>
<!DOCTYPE svg PUBLIC "-//W3C//DTD SVG 1.1//EN"
 "http://www.w3.org/Graphics/SVG/1.1/DTD/svg11.dtd">
<!-- Generated by graphviz version 2.38.0 (20140413.2041)
 -->
<!-- Title: Modules/Example/src/BenchmarkTask.cxx Pages: 1 -->
<!--zoomable 330 -->
<svg id="main" version="1.1" xmlns="http://www.w3.org/2000/svg" xmlns:xlink="http://www.w3.org/1999/xlink" xml:space="preserve" onload="init(evt)">
<style type="text/css"><![CDATA[
.edge:hover path { stroke: red; }
.edge:hover polygon { stroke: red; fill: red; }
]]></style>
<script type="text/javascript"><![CDATA[
var edges = document.getElementsByTagName('g');
if (edges && edges.length) {
  for (var i=0;i<edges.length;i++) {
    if (edges[i].id.substr(0,4)=='edge') {
      edges[i].setAttribute('class','edge');
    }
  }
}
]]></script>
        <defs>
                <circle id="rim" cx="0" cy="0" r="7"/>
                <circle id="rim2" cx="0" cy="0" r="3.5"/>
                <g id="zoomPlus">
                        <use xlink:href="#rim" fill="#404040">
                                <set attributeName="fill" to="#808080" begin="zoomplus.mouseover" end="zoomplus.mouseout"/>
                        </use>
                        <path d="M-4,0h8M0,-4v8" fill="none" stroke="white" stroke-width="1.5" pointer-events="none"/>
                </g>
                <g id="zoomMin">
                        <use xlink:href="#rim" fill="#404040">
                                <set attributeName="fill" to="#808080" begin="zoomminus.mouseover" end="zoomminus.mouseout"/>
                        </use>
                        <path d="M-4,0h8" fill="none" stroke="white" stroke-width="1.5" pointer-events="none"/>
                </g>
                <g id="dirArrow">
                        <path fill="none" stroke="white" stroke-width="1.5" d="M0,-3.0v7 M-2.5,-0.5L0,-3.0L2.5,-0.5"/>
                </g>
               <g id="resetDef">
                       <use xlink:href="#rim2" fill="#404040">
                               <set attributeName="fill" to="#808080" begin="reset.mouseover" end="reset.mouseout"/>
                       </use>
               </g>
        </defs>

<script type="text/javascript">
var viewWidth = 1301;
var viewHeight = 330;
var sectionId = 'dynsection-0';
</script>
<script xlink:href="svgpan.js"/>
<svg id="graph" class="graph">
<g id="viewport">
<title>Modules/Example/src/BenchmarkTask.cxx</title>
<!-- Node1 -->
<g id="node1" class="node"><title>Node1</title>
<polygon fill="#bfbfbf" stroke="black" points="1017.69,-291.5 1017.69,-321.5 1128.69,-321.5 1128.69,-291.5 1017.69,-291.5"/>
<text text-anchor="start" x="1025.69" y="-309.5" font-family="Helvetica,sans-Serif" font-size="10.00">Modules/Example/src</text>
<text text-anchor="middle" x="1073.19" y="-298.5" font-family="Helvetica,sans-Serif" font-size="10.00">/BenchmarkTask.cxx</text>
</g>
<!-- Node2 -->
<g id="node2" class="node"><title>Node2</title>
<g id="a_node2"><a xlink:href="BenchmarkTask_8h.html" target="_top" xlink:title="Example/BenchmarkTask.h">
<polygon fill="none" stroke="black" points="628.689,-230 628.689,-249 765.689,-249 765.689,-230 628.689,-230"/>
<text text-anchor="middle" x="697.189" y="-237" font-family="Helvetica,sans-Serif" font-size="10.00">Example/BenchmarkTask.h</text>
</a>
</g>
</g>
<!-- Node1&#45;&gt;Node2 -->
<g id="edge1" class="edge"><title>Node1&#45;&gt;Node2</title>
<path fill="none" stroke="midnightblue" d="M1017.48,-296.412C957.385,-286.535 858.923,-270.132 774.189,-255 766.833,-253.686 759.089,-252.269 751.462,-250.853"/>
<polygon fill="midnightblue" stroke="midnightblue" points="752.018,-247.396 741.545,-249 750.732,-254.277 752.018,-247.396"/>
</g>
<!-- Node19 -->
<g id="node19" class="node"><title>Node19</title>
<polygon fill="none" stroke="#bfbfbf" points="783.689,-224.5 783.689,-254.5 918.689,-254.5 918.689,-224.5 783.689,-224.5"/>
<text text-anchor="start" x="791.689" y="-242.5" font-family="Helvetica,sans-Serif" font-size="10.00">Configuration/Configuration</text>
<text text-anchor="middle" x="851.189" y="-231.5" font-family="Helvetica,sans-Serif" font-size="10.00">Factory.h</text>
</g>
<!-- Node1&#45;&gt;Node19 -->
<g id="edge28" class="edge"><title>Node1&#45;&gt;Node19</title>
<path fill="none" stroke="midnightblue" d="M1025.29,-291.476C991.271,-281.515 945.407,-268.086 909.293,-257.512"/>
<polygon fill="midnightblue" stroke="midnightblue" points="909.964,-254.062 899.383,-254.611 907.997,-260.78 909.964,-254.062"/>
</g>
<!-- Node20 -->
<g id="node20" class="node"><title>Node20</title>
<g id="a_node20"><a xlink:href="QcInfoLogger_8h.html" target="_top" xlink:title="QualityControl/QcInfoLogger.h">
<polygon fill="none" stroke="black" points="936.689,-230 936.689,-249 1085.69,-249 1085.69,-230 936.689,-230"/>
<text text-anchor="middle" x="1011.19" y="-237" font-family="Helvetica,sans-Serif" font-size="10.00">QualityControl/QcInfoLogger.h</text>
</a>
</g>
</g>
<!-- Node1&#45;&gt;Node20 -->
<g id="edge29" class="edge"><title>Node1&#45;&gt;Node20</title>
<path fill="none" stroke="midnightblue" d="M1059.74,-291.396C1049.97,-281.161 1036.75,-267.296 1026.57,-256.622"/>
<polygon fill="midnightblue" stroke="midnightblue" points="1028.92,-254.015 1019.48,-249.195 1023.85,-258.846 1028.92,-254.015"/>
</g>
<!-- Node22 -->
<g id="node22" class="node"><title>Node22</title>
<polygon fill="none" stroke="#bfbfbf" points="1103.69,-230 1103.69,-249 1168.69,-249 1168.69,-230 1103.69,-230"/>
<text text-anchor="middle" x="1136.19" y="-237" font-family="Helvetica,sans-Serif" font-size="10.00">TCanvas.h</text>
</g>
<!-- Node1&#45;&gt;Node22 -->
<g id="edge31" class="edge"><title>Node1&#45;&gt;Node22</title>
<path fill="none" stroke="midnightblue" d="M1086.86,-291.396C1096.78,-281.161 1110.22,-267.296 1120.56,-256.622"/>
<polygon fill="midnightblue" stroke="midnightblue" points="1123.32,-258.811 1127.76,-249.195 1118.29,-253.939 1123.32,-258.811"/>
</g>
<!-- Node23 -->
<g id="node23" class="node"><title>Node23</title>
<polygon fill="none" stroke="#bfbfbf" points="1187.19,-230 1187.19,-249 1231.19,-249 1231.19,-230 1187.19,-230"/>
<text text-anchor="middle" x="1209.19" y="-237" font-family="Helvetica,sans-Serif" font-size="10.00">TH1.h</text>
</g>
<!-- Node1&#45;&gt;Node23 -->
<g id="edge32" class="edge"><title>Node1&#45;&gt;Node23</title>
<path fill="none" stroke="midnightblue" d="M1102.7,-291.396C1126.35,-280.092 1159.27,-264.361 1182.22,-253.39"/>
<polygon fill="midnightblue" stroke="midnightblue" points="1183.88,-256.477 1191.39,-249.007 1180.86,-250.161 1183.88,-256.477"/>
</g>
<!-- Node24 -->
<g id="node24" class="node"><title>Node24</title>
<polygon fill="none" stroke="#bfbfbf" points="1249.19,-230 1249.19,-249 1293.19,-249 1293.19,-230 1249.19,-230"/>
<text text-anchor="middle" x="1271.19" y="-237" font-family="Helvetica,sans-Serif" font-size="10.00">thread</text>
</g>
<!-- Node1&#45;&gt;Node24 -->
<g id="edge33" class="edge"><title>Node1&#45;&gt;Node24</title>
<path fill="none" stroke="midnightblue" d="M1126.49,-291.494C1159.62,-282.273 1202.85,-269.293 1240.19,-255 1241.61,-254.456 1243.06,-253.875 1244.51,-253.271"/>
<polygon fill="midnightblue" stroke="midnightblue" points="1246.27,-256.321 1254,-249.076 1243.44,-249.919 1246.27,-256.321"/>
</g>
<!-- Node3 -->
<g id="node3" class="node"><title>Node3</title>
<g id="a_node3"><a xlink:href="TaskInterface_8h.html" target="_top" xlink:title="QualityControl/TaskInterface.h">
<polygon fill="none" stroke="black" points="565.189,-168.5 565.189,-187.5 715.189,-187.5 715.189,-168.5 565.189,-168.5"/>
<text text-anchor="middle" x="640.189" y="-175.5" font-family="Helvetica,sans-Serif" font-size="10.00">QualityControl/TaskInterface.h</text>
</a>
</g>
</g>
<!-- Node2&#45;&gt;Node3 -->
<g id="edge2" class="edge"><title>Node2&#45;&gt;Node3</title>
<path fill="none" stroke="midnightblue" d="M689.022,-229.975C680.303,-220.873 666.285,-206.241 655.5,-194.983"/>
<polygon fill="midnightblue" stroke="midnightblue" points="657.786,-192.309 648.341,-187.509 652.731,-197.151 657.786,-192.309"/>
</g>
<!-- Node5 -->
<g id="node5" class="node"><title>Node5</title>
<polygon fill="none" stroke="#bfbfbf" points="767.189,-56.5 767.189,-75.5 819.189,-75.5 819.189,-56.5 767.189,-56.5"/>
<text text-anchor="middle" x="793.189" y="-63.5" font-family="Helvetica,sans-Serif" font-size="10.00">memory</text>
</g>
<!-- Node2&#45;&gt;Node5 -->
<g id="edge26" class="edge"><title>Node2&#45;&gt;Node5</title>
<path fill="none" stroke="midnightblue" d="M702.082,-229.76C717.169,-202.806 763.176,-120.616 783.436,-84.4237"/>
<polygon fill="midnightblue" stroke="midnightblue" points="786.59,-85.9549 788.42,-75.5194 780.482,-82.5357 786.59,-85.9549"/>
</g>
<!-- Node6 -->
<g id="node6" class="node"><title>Node6</title>
<polygon fill="none" stroke="#bfbfbf" points="541.689,-0.5 541.689,-19.5 582.689,-19.5 582.689,-0.5 541.689,-0.5"/>
<text text-anchor="middle" x="562.189" y="-7.5" font-family="Helvetica,sans-Serif" font-size="10.00">string</text>
</g>
<!-- Node2&#45;&gt;Node6 -->
<g id="edge27" class="edge"><title>Node2&#45;&gt;Node6</title>
<path fill="none" stroke="midnightblue" d="M711.885,-229.966C756.106,-203.261 881.682,-119.303 828.189,-56 813.119,-38.1666 660.145,-20.8131 593.238,-14.0113"/>
<polygon fill="midnightblue" stroke="midnightblue" points="593.202,-10.4902 582.903,-12.9751 592.504,-17.4553 593.202,-10.4902"/>
</g>
<!-- Node18 -->
<g id="node18" class="node"><title>Node18</title>
<polygon fill="none" stroke="#bfbfbf" points="503.189,-168.5 503.189,-187.5 547.189,-187.5 547.189,-168.5 503.189,-168.5"/>
<text text-anchor="middle" x="525.189" y="-175.5" font-family="Helvetica,sans-Serif" font-size="10.00">vector</text>
</g>
<!-- Node2&#45;&gt;Node18 -->
<g id="edge25" class="edge"><title>Node2&#45;&gt;Node18</title>
<path fill="none" stroke="midnightblue" d="M672.546,-229.975C642.156,-219.462 590.439,-201.572 557.057,-190.024"/>
<polygon fill="midnightblue" stroke="midnightblue" points="557.925,-186.621 547.33,-186.659 555.636,-193.236 557.925,-186.621"/>
</g>
<!-- Node4 -->
<g id="node4" class="node"><title>Node4</title>
<polygon fill="none" stroke="#bfbfbf" points="29.6891,-0.5 29.6891,-19.5 64.6891,-19.5 64.6891,-0.5 29.6891,-0.5"/>
<text text-anchor="middle" x="47.1891" y="-7.5" font-family="Helvetica,sans-Serif" font-size="10.00">map</text>
</g>
<!-- Node3&#45;&gt;Node4 -->
<g id="edge3" class="edge"><title>Node3&#45;&gt;Node4</title>
<path fill="none" stroke="midnightblue" d="M565.098,-168.801C562.09,-168.521 559.112,-168.253 556.189,-168 495.728,-162.766 52.6633,-176.304 11.1891,-132 -16.2778,-102.659 14.078,-53.2658 33.5107,-27.6036"/>
<polygon fill="midnightblue" stroke="midnightblue" points="36.3843,-29.6116 39.8161,-19.588 30.8825,-25.2837 36.3843,-29.6116"/>
</g>
<!-- Node3&#45;&gt;Node5 -->
<g id="edge4" class="edge"><title>Node3&#45;&gt;Node5</title>
<path fill="none" stroke="midnightblue" d="M652.195,-168.368C678.338,-149.573 740.657,-104.768 772.974,-81.5334"/>
<polygon fill="midnightblue" stroke="midnightblue" points="775.163,-84.2707 781.239,-75.5914 771.077,-78.5871 775.163,-84.2707"/>
</g>
<!-- Node3&#45;&gt;Node6 -->
<g id="edge5" class="edge"><title>Node3&#45;&gt;Node6</title>
<path fill="none" stroke="midnightblue" d="M645.277,-168.486C652.286,-155.554 662.992,-130.509 653.189,-112 639.861,-86.8358 619.632,-96.8046 600.189,-76 587.245,-62.1491 576.771,-43.13 570.123,-29.2441"/>
<polygon fill="midnightblue" stroke="midnightblue" points="573.146,-27.4383 565.807,-19.7967 566.779,-30.3469 573.146,-27.4383"/>
</g>
<!-- Node7 -->
<g id="node7" class="node"><title>Node7</title>
<polygon fill="none" stroke="#bfbfbf" points="721.689,-0.5 721.689,-19.5 804.689,-19.5 804.689,-0.5 721.689,-0.5"/>
<text text-anchor="middle" x="763.189" y="-7.5" font-family="Helvetica,sans-Serif" font-size="10.00">unordered_map</text>
</g>
<!-- Node3&#45;&gt;Node7 -->
<g id="edge6" class="edge"><title>Node3&#45;&gt;Node7</title>
<path fill="none" stroke="midnightblue" d="M680.933,-168.403C726.251,-156.398 797.158,-129.745 828.189,-76 840.322,-54.9853 815.112,-36.0036 792.638,-24.0533"/>
<polygon fill="midnightblue" stroke="midnightblue" points="794.118,-20.8799 783.61,-19.5273 790.981,-27.1377 794.118,-20.8799"/>
</g>
<!-- Node8 -->
<g id="node8" class="node"><title>Node8</title>
<polygon fill="none" stroke="#bfbfbf" points="20.6891,-112.5 20.6891,-131.5 145.689,-131.5 145.689,-112.5 20.6891,-112.5"/>
<text text-anchor="middle" x="83.1891" y="-119.5" font-family="Helvetica,sans-Serif" font-size="10.00">Framework/InitContext.h</text>
</g>
<!-- Node3&#45;&gt;Node8 -->
<g id="edge7" class="edge"><title>Node3&#45;&gt;Node8</title>
<path fill="none" stroke="midnightblue" d="M565.09,-168.889C562.084,-168.585 559.108,-168.287 556.189,-168 381.328,-150.785 334.775,-151.083 156.006,-132.053"/>
<polygon fill="midnightblue" stroke="midnightblue" points="156.318,-128.566 146.003,-130.982 155.574,-135.526 156.318,-128.566"/>
</g>
<!-- Node9 -->
<g id="node9" class="node"><title>Node9</title>
<polygon fill="none" stroke="#bfbfbf" points="164.189,-112.5 164.189,-131.5 324.189,-131.5 324.189,-112.5 164.189,-112.5"/>
<text text-anchor="middle" x="244.189" y="-119.5" font-family="Helvetica,sans-Serif" font-size="10.00">Framework/ProcessingContext.h</text>
</g>
<!-- Node3&#45;&gt;Node9 -->
<g id="edge8" class="edge"><title>Node3&#45;&gt;Node9</title>
<path fill="none" stroke="midnightblue" d="M577.442,-168.444C506.623,-158.786 391.584,-143.099 316.904,-132.916"/>
<polygon fill="midnightblue" stroke="midnightblue" points="317.024,-129.4 306.643,-131.516 316.078,-136.336 317.024,-129.4"/>
</g>
<!-- Node10 -->
<g id="node10" class="node"><title>Node10</title>
<g id="a_node10"><a xlink:href="Activity_8h.html" target="_top" xlink:title="QualityControl/Activity.h">
<polygon fill="none" stroke="black" points="342.689,-112.5 342.689,-131.5 465.689,-131.5 465.689,-112.5 342.689,-112.5"/>
<text text-anchor="middle" x="404.189" y="-119.5" font-family="Helvetica,sans-Serif" font-size="10.00">QualityControl/Activity.h</text>
</a>
</g>
</g>
<!-- Node3&#45;&gt;Node10 -->
<g id="edge9" class="edge"><title>Node3&#45;&gt;Node10</title>
<path fill="none" stroke="midnightblue" d="M602.794,-168.444C561.797,-159.063 495.935,-143.993 451.405,-133.804"/>
<polygon fill="midnightblue" stroke="midnightblue" points="451.938,-130.335 441.409,-131.516 450.376,-137.159 451.938,-130.335"/>
</g>
<!-- Node11 -->
<g id="node11" class="node"><title>Node11</title>
<g id="a_node11"><a xlink:href="ObjectsManager_8h.html" target="_top" xlink:title="QualityControl/ObjectsManager.h">
<polygon fill="none" stroke="black" points="483.689,-112.5 483.689,-131.5 644.689,-131.5 644.689,-112.5 483.689,-112.5"/>
<text text-anchor="middle" x="564.189" y="-119.5" font-family="Helvetica,sans-Serif" font-size="10.00">QualityControl/ObjectsManager.h</text>
</a>
</g>
</g>
<!-- Node3&#45;&gt;Node11 -->
<g id="edge10" class="edge"><title>Node3&#45;&gt;Node11</title>
<path fill="none" stroke="midnightblue" d="M627.978,-168.324C616.413,-160.107 598.814,-147.602 585.028,-137.807"/>
<polygon fill="midnightblue" stroke="midnightblue" points="586.801,-134.773 576.622,-131.834 582.747,-140.479 586.801,-134.773"/>
</g>
<!-- Node11&#45;&gt;Node5 -->
<g id="edge24" class="edge"><title>Node11&#45;&gt;Node5</title>
<path fill="none" stroke="midnightblue" d="M602.169,-112.471C639.261,-104.079 697.56,-90.7238 756.914,-76.272"/>
<polygon fill="midnightblue" stroke="midnightblue" points="757.949,-79.6221 766.833,-73.8488 756.288,-72.822 757.949,-79.6221"/>
</g>
<!-- Node11&#45;&gt;Node6 -->
<g id="edge23" class="edge"><title>Node11&#45;&gt;Node6</title>
<path fill="none" stroke="midnightblue" d="M564.032,-112.368C563.709,-94.617 562.965,-53.6664 562.527,-29.5974"/>
<polygon fill="midnightblue" stroke="midnightblue" points="566.027,-29.5261 562.345,-19.5914 559.028,-29.6534 566.027,-29.5261"/>
</g>
<!-- Node12 -->
<g id="node12" class="node"><title>Node12</title>
<g id="a_node12"><a xlink:href="MonitorObject_8h.html" target="_top" xlink:title="QualityControl/MonitorObject.h">
<polygon fill="none" stroke="black" points="224.689,-56.5 224.689,-75.5 375.689,-75.5 375.689,-56.5 224.689,-56.5"/>
<text text-anchor="middle" x="300.189" y="-63.5" font-family="Helvetica,sans-Serif" font-size="10.00">QualityControl/MonitorObject.h</text>
</a>
</g>
</g>
<!-- Node11&#45;&gt;Node12 -->
<g id="edge11" class="edge"><title>Node11&#45;&gt;Node12</title>
<path fill="none" stroke="midnightblue" d="M522.357,-112.444C476.11,-102.984 401.577,-87.7384 351.753,-77.5472"/>
<polygon fill="midnightblue" stroke="midnightblue" points="352.324,-74.0915 341.825,-75.5164 350.921,-80.9495 352.324,-74.0915"/>
</g>
<!-- Node16 -->
<g id="node16" class="node"><title>Node16</title>
<g id="a_node16"><a xlink:href="Quality_8h.html" target="_top" xlink:title="QualityControl/Quality.h">
<polygon fill="none" stroke="black" points="393.689,-56.5 393.689,-75.5 514.689,-75.5 514.689,-56.5 393.689,-56.5"/>
<text text-anchor="middle" x="454.189" y="-63.5" font-family="Helvetica,sans-Serif" font-size="10.00">QualityControl/Quality.h</text>
</a>
</g>
</g>
<!-- Node11&#45;&gt;Node16 -->
<g id="edge17" class="edge"><title>Node11&#45;&gt;Node16</title>
<path fill="none" stroke="midnightblue" d="M546.516,-112.324C528.795,-103.625 501.286,-90.1202 480.901,-80.113"/>
<polygon fill="midnightblue" stroke="midnightblue" points="482.338,-76.9195 471.819,-75.6545 479.253,-83.2031 482.338,-76.9195"/>
</g>
<!-- Node17 -->
<g id="node17" class="node"><title>Node17</title>
<g id="a_node17"><a xlink:href="TaskConfig_8h.html" target="_top" xlink:title="QualityControl/TaskConfig.h">
<polygon fill="none" stroke="black" points="609.189,-56.5 609.189,-75.5 749.189,-75.5 749.189,-56.5 609.189,-56.5"/>
<text text-anchor="middle" x="679.189" y="-63.5" font-family="Helvetica,sans-Serif" font-size="10.00">QualityControl/TaskConfig.h</text>
</a>
</g>
</g>
<!-- Node11&#45;&gt;Node17 -->
<g id="edge20" class="edge"><title>Node11&#45;&gt;Node17</title>
<path fill="none" stroke="midnightblue" d="M582.411,-112.444C601.085,-103.675 630.345,-89.9355 651.806,-79.8579"/>
<polygon fill="midnightblue" stroke="midnightblue" points="653.488,-82.935 661.052,-75.5164 650.513,-76.5988 653.488,-82.935"/>
</g>
<!-- Node12&#45;&gt;Node4 -->
<g id="edge13" class="edge"><title>Node12&#45;&gt;Node4</title>
<path fill="none" stroke="midnightblue" d="M260.1,-56.4435C208.245,-45.3756 119.282,-26.3874 74.5549,-16.8409"/>
<polygon fill="midnightblue" stroke="midnightblue" points="75.203,-13.4005 64.6927,-14.7359 73.7418,-20.2463 75.203,-13.4005"/>
</g>
<!-- Node12&#45;&gt;Node6 -->
<g id="edge12" class="edge"><title>Node12&#45;&gt;Node6</title>
<path fill="none" stroke="midnightblue" d="M341.704,-56.4435C394.557,-45.5501 484.637,-26.9841 531.625,-17.2994"/>
<polygon fill="midnightblue" stroke="midnightblue" points="532.425,-20.7083 541.512,-15.2616 531.012,-13.8524 532.425,-20.7083"/>
</g>
<!-- Node13 -->
<g id="node13" class="node"><title>Node13</title>
<polygon fill="none" stroke="#bfbfbf" points="387.189,-0.5 387.189,-19.5 443.189,-19.5 443.189,-0.5 387.189,-0.5"/>
<text text-anchor="middle" x="415.189" y="-7.5" font-family="Helvetica,sans-Serif" font-size="10.00">Rtypes.h</text>
</g>
<!-- Node12&#45;&gt;Node13 -->
<g id="edge14" class="edge"><title>Node12&#45;&gt;Node13</title>
<path fill="none" stroke="midnightblue" d="M318.411,-56.4435C337.085,-47.6751 366.345,-33.9355 387.806,-23.8579"/>
<polygon fill="midnightblue" stroke="midnightblue" points="389.488,-26.935 397.052,-19.5164 386.513,-20.5988 389.488,-26.935"/>
</g>
<!-- Node14 -->
<g id="node14" class="node"><title>Node14</title>
<polygon fill="none" stroke="#bfbfbf" points="290.689,-0.5 290.689,-19.5 349.689,-19.5 349.689,-0.5 290.689,-0.5"/>
<text text-anchor="middle" x="320.189" y="-7.5" font-family="Helvetica,sans-Serif" font-size="10.00">TObject.h</text>
</g>
<!-- Node12&#45;&gt;Node14 -->
<g id="edge15" class="edge"><title>Node12&#45;&gt;Node14</title>
<path fill="none" stroke="midnightblue" d="M303.492,-56.083C306.171,-48.8486 310.038,-38.4087 313.375,-29.3968"/>
<polygon fill="midnightblue" stroke="midnightblue" points="316.757,-30.3442 316.948,-19.7511 310.193,-27.9129 316.757,-30.3442"/>
</g>
<!-- Node15 -->
<g id="node15" class="node"><title>Node15</title>
<polygon fill="none" stroke="#bfbfbf" points="156.189,-0.5 156.189,-19.5 272.189,-19.5 272.189,-0.5 156.189,-0.5"/>
<text text-anchor="middle" x="214.189" y="-7.5" font-family="Helvetica,sans-Serif" font-size="10.00">Common/Exceptions.h</text>
</g>
<!-- Node12&#45;&gt;Node15 -->
<g id="edge16" class="edge"><title>Node12&#45;&gt;Node15</title>
<path fill="none" stroke="midnightblue" d="M286.372,-56.324C272.956,-47.9002 252.365,-34.9709 236.603,-25.0741"/>
<polygon fill="midnightblue" stroke="midnightblue" points="238.302,-22.0081 227.972,-19.6545 234.58,-27.9364 238.302,-22.0081"/>
</g>
<!-- Node16&#45;&gt;Node6 -->
<g id="edge19" class="edge"><title>Node16&#45;&gt;Node6</title>
<path fill="none" stroke="midnightblue" d="M471.541,-56.324C488.861,-47.6641 515.704,-34.2424 535.691,-24.249"/>
<polygon fill="midnightblue" stroke="midnightblue" points="537.501,-27.2572 544.88,-19.6545 534.371,-20.9962 537.501,-27.2572"/>
</g>
<!-- Node16&#45;&gt;Node13 -->
<g id="edge18" class="edge"><title>Node16&#45;&gt;Node13</title>
<path fill="none" stroke="midnightblue" d="M447.749,-56.083C442.24,-48.4554 434.158,-37.2645 427.424,-27.9408"/>
<polygon fill="midnightblue" stroke="midnightblue" points="430.202,-25.8087 421.509,-19.7511 424.527,-29.9071 430.202,-25.8087"/>
</g>
<!-- Node17&#45;&gt;Node6 -->
<g id="edge21" class="edge"><title>Node17&#45;&gt;Node6</title>
<path fill="none" stroke="midnightblue" d="M660.65,-56.4435C641.566,-47.6356 611.614,-33.8116 589.753,-23.722"/>
<polygon fill="midnightblue" stroke="midnightblue" points="591.188,-20.5292 580.641,-19.5164 588.254,-26.8849 591.188,-20.5292"/>
</g>
<!-- Node17&#45;&gt;Node7 -->
<g id="edge22" class="edge"><title>Node17&#45;&gt;Node7</title>
<path fill="none" stroke="midnightblue" d="M692.685,-56.324C705.789,-47.9002 725.901,-34.9709 741.296,-25.0741"/>
<polygon fill="midnightblue" stroke="midnightblue" points="743.207,-28.0063 749.727,-19.6545 739.422,-22.118 743.207,-28.0063"/>
</g>
<!-- Node21 -->
<g id="node21" class="node"><title>Node21</title>
<polygon fill="none" stroke="#bfbfbf" points="946.189,-168.5 946.189,-187.5 1076.19,-187.5 1076.19,-168.5 946.189,-168.5"/>
<text text-anchor="middle" x="1011.19" y="-175.5" font-family="Helvetica,sans-Serif" font-size="10.00">InfoLogger/InfoLogger.hxx</text>
</g>
<!-- Node20&#45;&gt;Node21 -->
<g id="edge30" class="edge"><title>Node20&#45;&gt;Node21</title>
<path fill="none" stroke="midnightblue" d="M1011.19,-229.975C1011.19,-221.58 1011.19,-208.481 1011.19,-197.663"/>
<polygon fill="midnightblue" stroke="midnightblue" points="1014.69,-197.509 1011.19,-187.509 1007.69,-197.509 1014.69,-197.509"/>
</g>
</g>
</svg>
        <g id="navigator" transform="translate(0 0)" fill="#404254">
                <rect fill="#f2f5e9" fill-opacity="0.5" stroke="#606060" stroke-width=".5" x="0" y="0" width="60" height="60"/>
                <use id="zoomplus" xlink:href="#zoomPlus" x="17" y="9" onmousedown="handleZoom(evt,'in')"/>
                <use id="zoomminus" xlink:href="#zoomMin" x="42" y="9" onmousedown="handleZoom(evt,'out')"/>
                <use id="reset" xlink:href="#resetDef" x="30" y="36" onmousedown="handleReset()"/>
                <g id="arrowUp" xlink:href="#dirArrow" transform="translate(30 24)" onmousedown="handlePan(0,-1)">
                  <use xlink:href="#rim" fill="#404040">
                        <set attributeName="fill" to="#808080" begin="arrowUp.mouseover" end="arrowUp.mouseout"/>
                  </use>
                  <path fill="none" stroke="white" stroke-width="1.5" d="M0,-3.0v7 M-2.5,-0.5L0,-3.0L2.5,-0.5"/>
                </g>
                <g id="arrowRight" xlink:href="#dirArrow" transform="rotate(90) translate(36 -43)" onmousedown="handlePan(1,0)">
                  <use xlink:href="#rim" fill="#404040">
                        <set attributeName="fill" to="#808080" begin="arrowRight.mouseover" end="arrowRight.mouseout"/>
                  </use>
                  <path fill="none" stroke="white" stroke-width="1.5" d="M0,-3.0v7 M-2.5,-0.5L0,-3.0L2.5,-0.5"/>
                </g>
                <g id="arrowDown" xlink:href="#dirArrow" transform="rotate(180) translate(-30 -48)" onmousedown="handlePan(0,1)">
                  <use xlink:href="#rim" fill="#404040">
                        <set attributeName="fill" to="#808080" begin="arrowDown.mouseover" end="arrowDown.mouseout"/>
                  </use>
                  <path fill="none" stroke="white" stroke-width="1.5" d="M0,-3.0v7 M-2.5,-0.5L0,-3.0L2.5,-0.5"/>
                </g>
                <g id="arrowLeft" xlink:href="#dirArrow" transform="rotate(270) translate(-36 17)" onmousedown="handlePan(-1,0)">
                  <use xlink:href="#rim" fill="#404040">
                        <set attributeName="fill" to="#808080" begin="arrowLeft.mouseover" end="arrowLeft.mouseout"/>
                  </use>
                  <path fill="none" stroke="white" stroke-width="1.5" d="M0,-3.0v7 M-2.5,-0.5L0,-3.0L2.5,-0.5"/>
                </g>
        </g>
        <svg viewBox="0 0 15 15" width="100%" height="30px" preserveAspectRatio="xMaxYMin meet">
         <g id="arrow_out" transform="scale(0.3 0.3)">
          <a xlink:href="BenchmarkTask_8cxx__incl_org.svg" target="_base">
           <rect id="button" ry="5" rx="5" y="6" x="6" height="38" width="38"
                fill="#f2f5e9" fill-opacity="0.5" stroke="#606060" stroke-width="1.0"/>
           <path id="arrow"
             d="M 11.500037,31.436501 C 11.940474,20.09759 22.043105,11.32322 32.158766,21.979434 L 37.068811,17.246167 C 37.068811,17.246167 37.088388,32 37.088388,32 L 22.160133,31.978069 C 22.160133,31.978069 26.997745,27.140456 26.997745,27.140456 C 18.528582,18.264221 13.291696,25.230495 11.500037,31.436501 z"
             style="fill:#404040;"/>
          </a>
         </g>
        </svg>
</svg>
