<?xml version="1.0" encoding="UTF-8" standalone="no"?>
<!DOCTYPE svg PUBLIC "-//W3C//DTD SVG 1.1//EN"
 "http://www.w3.org/Graphics/SVG/1.1/DTD/svg11.dtd">
<!-- Generated by graphviz version 2.38.0 (20140413.2041)
 -->
<!-- Title: Modules/Example/include/Example/BenchmarkTask.h Pages: 1 -->
<!--zoomable 263 -->
<svg id="main" version="1.1" xmlns="http://www.w3.org/2000/svg" xmlns:xlink="http://www.w3.org/1999/xlink" xml:space="preserve" onload="init(evt)">
<style type="text/css"><![CDATA[
.edge:hover path { stroke: red; }
.edge:hover polygon { stroke: red; fill: red; }
]]></style>
<script type="text/javascript"><![CDATA[
var edges = document.getElementsByTagName('g');
if (edges && edges.length) {
  for (var i=0;i<edges.length;i++) {
    if (edges[i].id.substr(0,4)=='edge') {
      edges[i].setAttribute('class','edge');
    }
  }
}
]]></script>
        <defs>
                <circle id="rim" cx="0" cy="0" r="7"/>
                <circle id="rim2" cx="0" cy="0" r="3.5"/>
                <g id="zoomPlus">
                        <use xlink:href="#rim" fill="#404040">
                                <set attributeName="fill" to="#808080" begin="zoomplus.mouseover" end="zoomplus.mouseout"/>
                        </use>
                        <path d="M-4,0h8M0,-4v8" fill="none" stroke="white" stroke-width="1.5" pointer-events="none"/>
                </g>
                <g id="zoomMin">
                        <use xlink:href="#rim" fill="#404040">
                                <set attributeName="fill" to="#808080" begin="zoomminus.mouseover" end="zoomminus.mouseout"/>
                        </use>
                        <path d="M-4,0h8" fill="none" stroke="white" stroke-width="1.5" pointer-events="none"/>
                </g>
                <g id="dirArrow">
                        <path fill="none" stroke="white" stroke-width="1.5" d="M0,-3.0v7 M-2.5,-0.5L0,-3.0L2.5,-0.5"/>
                </g>
               <g id="resetDef">
                       <use xlink:href="#rim2" fill="#404040">
                               <set attributeName="fill" to="#808080" begin="reset.mouseover" end="reset.mouseout"/>
                       </use>
               </g>
        </defs>

<script type="text/javascript">
var viewWidth = 1040;
var viewHeight = 263;
var sectionId = 'dynsection-0';
</script>
<script xlink:href="svgpan.js"/>
<svg id="graph" class="graph">
<g id="viewport">
<title>Modules/Example/include/Example/BenchmarkTask.h</title>
<!-- Node1 -->
<g id="node1" class="node"><title>Node1</title>
<polygon fill="#bfbfbf" stroke="black" points="719.427,-224.5 719.427,-254.5 859.427,-254.5 859.427,-224.5 719.427,-224.5"/>
<text text-anchor="start" x="727.427" y="-242.5" font-family="Helvetica,sans-Serif" font-size="10.00">Modules/Example/include</text>
<text text-anchor="middle" x="789.427" y="-231.5" font-family="Helvetica,sans-Serif" font-size="10.00">/Example/BenchmarkTask.h</text>
</g>
<!-- Node2 -->
<g id="node2" class="node"><title>Node2</title>
<g id="a_node2"><a xlink:href="TaskInterface_8h.html" target="_top" xlink:title="QualityControl/TaskInterface.h">
<polygon fill="none" stroke="black" points="420.427,-168.5 420.427,-187.5 570.427,-187.5 570.427,-168.5 420.427,-168.5"/>
<text text-anchor="middle" x="495.427" y="-175.5" font-family="Helvetica,sans-Serif" font-size="10.00">QualityControl/TaskInterface.h</text>
</a>
</g>
</g>
<!-- Node1&#45;&gt;Node2 -->
<g id="edge1" class="edge"><title>Node1&#45;&gt;Node2</title>
<path fill="none" stroke="midnightblue" d="M720.125,-224.475C667.19,-213.761 595.389,-199.23 547.337,-189.506"/>
<polygon fill="midnightblue" stroke="midnightblue" points="547.954,-186.06 537.459,-187.506 546.566,-192.92 547.954,-186.06"/>
</g>
<!-- Node4 -->
<g id="node4" class="node"><title>Node4</title>
<polygon fill="none" stroke="#bfbfbf" points="736.427,-56.5 736.427,-75.5 788.427,-75.5 788.427,-56.5 736.427,-56.5"/>
<text text-anchor="middle" x="762.427" y="-63.5" font-family="Helvetica,sans-Serif" font-size="10.00">memory</text>
</g>
<!-- Node1&#45;&gt;Node4 -->
<g id="edge25" class="edge"><title>Node1&#45;&gt;Node4</title>
<path fill="none" stroke="midnightblue" d="M787.218,-224.465C782.375,-193.704 770.823,-120.329 765.371,-85.7003"/>
<polygon fill="midnightblue" stroke="midnightblue" points="768.787,-84.8937 763.775,-75.5597 761.873,-85.9824 768.787,-84.8937"/>
</g>
<!-- Node5 -->
<g id="node5" class="node"><title>Node5</title>
<polygon fill="none" stroke="#bfbfbf" points="573.927,-0.5 573.927,-19.5 614.927,-19.5 614.927,-0.5 573.927,-0.5"/>
<text text-anchor="middle" x="594.427" y="-7.5" font-family="Helvetica,sans-Serif" font-size="10.00">string</text>
</g>
<!-- Node1&#45;&gt;Node5 -->
<g id="edge26" class="edge"><title>Node1&#45;&gt;Node5</title>
<path fill="none" stroke="midnightblue" d="M795.697,-224.234C809.363,-190.706 837.526,-105.962 797.427,-56 792.001,-49.2392 680.391,-27.2822 625.027,-16.7449"/>
<polygon fill="midnightblue" stroke="midnightblue" points="625.544,-13.2806 615.067,-14.857 624.24,-20.1582 625.544,-13.2806"/>
</g>
<!-- Node17 -->
<g id="node17" class="node"><title>Node17</title>
<polygon fill="none" stroke="#bfbfbf" points="855.427,-168.5 855.427,-187.5 899.427,-187.5 899.427,-168.5 855.427,-168.5"/>
<text text-anchor="middle" x="877.427" y="-175.5" font-family="Helvetica,sans-Serif" font-size="10.00">vector</text>
</g>
<!-- Node1&#45;&gt;Node17 -->
<g id="edge24" class="edge"><title>Node1&#45;&gt;Node17</title>
<path fill="none" stroke="midnightblue" d="M810.282,-224.399C824.124,-215.04 842.238,-202.792 856.163,-193.377"/>
<polygon fill="midnightblue" stroke="midnightblue" points="858.299,-196.158 864.622,-187.658 854.378,-190.36 858.299,-196.158"/>
</g>
<!-- Node3 -->
<g id="node3" class="node"><title>Node3</title>
<polygon fill="none" stroke="#bfbfbf" points="996.927,-0.5 996.927,-19.5 1031.93,-19.5 1031.93,-0.5 996.927,-0.5"/>
<text text-anchor="middle" x="1014.43" y="-7.5" font-family="Helvetica,sans-Serif" font-size="10.00">map</text>
</g>
<!-- Node2&#45;&gt;Node3 -->
<g id="edge2" class="edge"><title>Node2&#45;&gt;Node3</title>
<path fill="none" stroke="midnightblue" d="M570.669,-172.56C697.795,-163.421 947.001,-137.912 1005.43,-76 1016.78,-63.9705 1018.15,-44.6787 1017.21,-30.2314"/>
<polygon fill="midnightblue" stroke="midnightblue" points="1020.65,-29.486 1016.11,-19.9149 1013.69,-30.2304 1020.65,-29.486"/>
</g>
<!-- Node2&#45;&gt;Node4 -->
<g id="edge3" class="edge"><title>Node2&#45;&gt;Node4</title>
<path fill="none" stroke="midnightblue" d="M570.622,-169.718C609.372,-163.615 656.352,-152.437 694.427,-132 716.801,-119.991 737.081,-98.5918 749.557,-83.639"/>
<polygon fill="midnightblue" stroke="midnightblue" points="752.407,-85.6814 755.958,-75.6996 746.957,-81.2878 752.407,-85.6814"/>
</g>
<!-- Node2&#45;&gt;Node5 -->
<g id="edge4" class="edge"><title>Node2&#45;&gt;Node5</title>
<path fill="none" stroke="midnightblue" d="M495.017,-168.301C493.928,-154.667 489.95,-128.157 475.427,-112 445.432,-78.6307 363.342,-90.9924 391.427,-56 412.68,-29.5199 512.316,-17.6575 563.661,-13.2285"/>
<polygon fill="midnightblue" stroke="midnightblue" points="564.158,-16.6995 573.838,-12.3936 563.586,-9.72295 564.158,-16.6995"/>
</g>
<!-- Node6 -->
<g id="node6" class="node"><title>Node6</title>
<polygon fill="none" stroke="#bfbfbf" points="190.927,-0.5 190.927,-19.5 273.927,-19.5 273.927,-0.5 190.927,-0.5"/>
<text text-anchor="middle" x="232.427" y="-7.5" font-family="Helvetica,sans-Serif" font-size="10.00">unordered_map</text>
</g>
<!-- Node2&#45;&gt;Node6 -->
<g id="edge5" class="edge"><title>Node2&#45;&gt;Node6</title>
<path fill="none" stroke="midnightblue" d="M420.279,-175.445C291.378,-171.993 39.3165,-161.511 12.4271,-132 -42.4035,-71.8235 99.8584,-35.0497 180.821,-19.5598"/>
<polygon fill="midnightblue" stroke="midnightblue" points="181.664,-22.963 190.853,-17.6889 180.381,-16.0817 181.664,-22.963"/>
</g>
<!-- Node7 -->
<g id="node7" class="node"><title>Node7</title>
<polygon fill="none" stroke="#bfbfbf" points="21.9271,-112.5 21.9271,-131.5 146.927,-131.5 146.927,-112.5 21.9271,-112.5"/>
<text text-anchor="middle" x="84.4271" y="-119.5" font-family="Helvetica,sans-Serif" font-size="10.00">Framework/InitContext.h</text>
</g>
<!-- Node2&#45;&gt;Node7 -->
<g id="edge6" class="edge"><title>Node2&#45;&gt;Node7</title>
<path fill="none" stroke="midnightblue" d="M430.303,-168.444C356.001,-158.681 234.8,-142.757 157.38,-132.585"/>
<polygon fill="midnightblue" stroke="midnightblue" points="157.596,-129.083 147.225,-131.251 156.684,-136.024 157.596,-129.083"/>
</g>
<!-- Node8 -->
<g id="node8" class="node"><title>Node8</title>
<polygon fill="none" stroke="#bfbfbf" points="165.427,-112.5 165.427,-131.5 325.427,-131.5 325.427,-112.5 165.427,-112.5"/>
<text text-anchor="middle" x="245.427" y="-119.5" font-family="Helvetica,sans-Serif" font-size="10.00">Framework/ProcessingContext.h</text>
</g>
<!-- Node2&#45;&gt;Node8 -->
<g id="edge7" class="edge"><title>Node2&#45;&gt;Node8</title>
<path fill="none" stroke="midnightblue" d="M455.814,-168.444C412.202,-159.023 342.027,-143.866 294.849,-133.675"/>
<polygon fill="midnightblue" stroke="midnightblue" points="295.369,-130.207 284.855,-131.516 293.891,-137.049 295.369,-130.207"/>
</g>
<!-- Node9 -->
<g id="node9" class="node"><title>Node9</title>
<g id="a_node9"><a xlink:href="Activity_8h.html" target="_top" xlink:title="QualityControl/Activity.h">
<polygon fill="none" stroke="black" points="343.927,-112.5 343.927,-131.5 466.927,-131.5 466.927,-112.5 343.927,-112.5"/>
<text text-anchor="middle" x="405.427" y="-119.5" font-family="Helvetica,sans-Serif" font-size="10.00">QualityControl/Activity.h</text>
</a>
</g>
</g>
<!-- Node2&#45;&gt;Node9 -->
<g id="edge8" class="edge"><title>Node2&#45;&gt;Node9</title>
<path fill="none" stroke="midnightblue" d="M480.967,-168.324C466.927,-159.9 445.379,-146.971 428.884,-137.074"/>
<polygon fill="midnightblue" stroke="midnightblue" points="430.227,-133.798 419.851,-131.655 426.625,-139.801 430.227,-133.798"/>
</g>
<!-- Node10 -->
<g id="node10" class="node"><title>Node10</title>
<g id="a_node10"><a xlink:href="ObjectsManager_8h.html" target="_top" xlink:title="QualityControl/ObjectsManager.h">
<polygon fill="none" stroke="black" points="523.927,-112.5 523.927,-131.5 684.927,-131.5 684.927,-112.5 523.927,-112.5"/>
<text text-anchor="middle" x="604.427" y="-119.5" font-family="Helvetica,sans-Serif" font-size="10.00">QualityControl/ObjectsManager.h</text>
</a>
</g>
</g>
<!-- Node2&#45;&gt;Node10 -->
<g id="edge9" class="edge"><title>Node2&#45;&gt;Node10</title>
<path fill="none" stroke="midnightblue" d="M512.94,-168.324C530.499,-159.625 557.758,-146.12 577.958,-136.113"/>
<polygon fill="midnightblue" stroke="midnightblue" points="579.551,-139.23 586.958,-131.655 576.443,-132.958 579.551,-139.23"/>
</g>
<!-- Node10&#45;&gt;Node4 -->
<g id="edge23" class="edge"><title>Node10&#45;&gt;Node4</title>
<path fill="none" stroke="midnightblue" d="M629.463,-112.444C656.043,-103.359 698.236,-88.9388 727.951,-78.7831"/>
<polygon fill="midnightblue" stroke="midnightblue" points="729.178,-82.0625 737.509,-75.5164 726.914,-75.4386 729.178,-82.0625"/>
</g>
<!-- Node10&#45;&gt;Node5 -->
<g id="edge22" class="edge"><title>Node10&#45;&gt;Node5</title>
<path fill="none" stroke="midnightblue" d="M600.061,-112.307C595.868,-103.437 589.827,-89.1449 587.427,-76 584.62,-60.6284 586.857,-42.9914 589.524,-29.9711"/>
<polygon fill="midnightblue" stroke="midnightblue" points="593.012,-30.4228 591.863,-19.8905 586.193,-28.8407 593.012,-30.4228"/>
</g>
<!-- Node11 -->
<g id="node11" class="node"><title>Node11</title>
<g id="a_node11"><a xlink:href="MonitorObject_8h.html" target="_top" xlink:title="QualityControl/MonitorObject.h">
<polygon fill="none" stroke="black" points="844.927,-56.5 844.927,-75.5 995.927,-75.5 995.927,-56.5 844.927,-56.5"/>
<text text-anchor="middle" x="920.427" y="-63.5" font-family="Helvetica,sans-Serif" font-size="10.00">QualityControl/MonitorObject.h</text>
</a>
</g>
</g>
<!-- Node10&#45;&gt;Node11 -->
<g id="edge10" class="edge"><title>Node10&#45;&gt;Node11</title>
<path fill="none" stroke="midnightblue" d="M654.498,-112.444C710.433,-102.885 800.935,-87.4195 860.564,-77.2298"/>
<polygon fill="midnightblue" stroke="midnightblue" points="861.323,-80.6509 870.59,-75.5164 860.144,-73.751 861.323,-80.6509"/>
</g>
<!-- Node15 -->
<g id="node15" class="node"><title>Node15</title>
<g id="a_node15"><a xlink:href="Quality_8h.html" target="_top" xlink:title="QualityControl/Quality.h">
<polygon fill="none" stroke="black" points="596.927,-56.5 596.927,-75.5 717.927,-75.5 717.927,-56.5 596.927,-56.5"/>
<text text-anchor="middle" x="657.427" y="-63.5" font-family="Helvetica,sans-Serif" font-size="10.00">QualityControl/Quality.h</text>
</a>
</g>
</g>
<!-- Node10&#45;&gt;Node15 -->
<g id="edge16" class="edge"><title>Node10&#45;&gt;Node15</title>
<path fill="none" stroke="midnightblue" d="M613.179,-112.083C620.897,-104.22 632.332,-92.5688 641.644,-83.0813"/>
<polygon fill="midnightblue" stroke="midnightblue" points="644.331,-85.3396 648.838,-75.7511 639.335,-80.4363 644.331,-85.3396"/>
</g>
<!-- Node16 -->
<g id="node16" class="node"><title>Node16</title>
<g id="a_node16"><a xlink:href="TaskConfig_8h.html" target="_top" xlink:title="QualityControl/TaskConfig.h">
<polygon fill="none" stroke="black" points="400.427,-56.5 400.427,-75.5 540.427,-75.5 540.427,-56.5 400.427,-56.5"/>
<text text-anchor="middle" x="470.427" y="-63.5" font-family="Helvetica,sans-Serif" font-size="10.00">QualityControl/TaskConfig.h</text>
</a>
</g>
</g>
<!-- Node10&#45;&gt;Node16 -->
<g id="edge19" class="edge"><title>Node10&#45;&gt;Node16</title>
<path fill="none" stroke="midnightblue" d="M583.194,-112.444C561.044,-103.517 526.108,-89.4387 500.991,-79.3168"/>
<polygon fill="midnightblue" stroke="midnightblue" points="502.144,-76.0079 491.56,-75.5164 499.527,-82.5006 502.144,-76.0079"/>
</g>
<!-- Node11&#45;&gt;Node3 -->
<g id="edge12" class="edge"><title>Node11&#45;&gt;Node3</title>
<path fill="none" stroke="midnightblue" d="M935.53,-56.324C950.33,-47.8215 973.121,-34.7288 990.409,-24.7975"/>
<polygon fill="midnightblue" stroke="midnightblue" points="992.434,-27.6707 999.362,-19.6545 988.947,-21.6009 992.434,-27.6707"/>
</g>
<!-- Node11&#45;&gt;Node5 -->
<g id="edge11" class="edge"><title>Node11&#45;&gt;Node5</title>
<path fill="none" stroke="midnightblue" d="M868.771,-56.4435C800.124,-45.0725 681.006,-25.3413 625.084,-16.0781"/>
<polygon fill="midnightblue" stroke="midnightblue" points="625.527,-12.6039 615.089,-14.4226 624.383,-19.5098 625.527,-12.6039"/>
</g>
<!-- Node12 -->
<g id="node12" class="node"><title>Node12</title>
<polygon fill="none" stroke="#bfbfbf" points="660.427,-0.5 660.427,-19.5 716.427,-19.5 716.427,-0.5 660.427,-0.5"/>
<text text-anchor="middle" x="688.427" y="-7.5" font-family="Helvetica,sans-Serif" font-size="10.00">Rtypes.h</text>
</g>
<!-- Node11&#45;&gt;Node12 -->
<g id="edge13" class="edge"><title>Node11&#45;&gt;Node12</title>
<path fill="none" stroke="midnightblue" d="M883.666,-56.4435C840.728,-46.4494 770.044,-29.9971 726.536,-19.8701"/>
<polygon fill="midnightblue" stroke="midnightblue" points="727.157,-16.4212 716.624,-17.5631 725.57,-23.239 727.157,-16.4212"/>
</g>
<!-- Node13 -->
<g id="node13" class="node"><title>Node13</title>
<polygon fill="none" stroke="#bfbfbf" points="900.927,-0.5 900.927,-19.5 959.927,-19.5 959.927,-0.5 900.927,-0.5"/>
<text text-anchor="middle" x="930.427" y="-7.5" font-family="Helvetica,sans-Serif" font-size="10.00">TObject.h</text>
</g>
<!-- Node11&#45;&gt;Node13 -->
<g id="edge14" class="edge"><title>Node11&#45;&gt;Node13</title>
<path fill="none" stroke="midnightblue" d="M922.078,-56.083C923.404,-48.9272 925.309,-38.6353 926.966,-29.6911"/>
<polygon fill="midnightblue" stroke="midnightblue" points="930.427,-30.2212 928.807,-19.7511 923.544,-28.9466 930.427,-30.2212"/>
</g>
<!-- Node14 -->
<g id="node14" class="node"><title>Node14</title>
<polygon fill="none" stroke="#bfbfbf" points="766.427,-0.5 766.427,-19.5 882.427,-19.5 882.427,-0.5 766.427,-0.5"/>
<text text-anchor="middle" x="824.427" y="-7.5" font-family="Helvetica,sans-Serif" font-size="10.00">Common/Exceptions.h</text>
</g>
<!-- Node11&#45;&gt;Node14 -->
<g id="edge15" class="edge"><title>Node11&#45;&gt;Node14</title>
<path fill="none" stroke="midnightblue" d="M905.003,-56.324C889.888,-47.8215 866.612,-34.7288 848.956,-24.7975"/>
<polygon fill="midnightblue" stroke="midnightblue" points="850.245,-21.5066 839.813,-19.6545 846.813,-27.6077 850.245,-21.5066"/>
</g>
<!-- Node15&#45;&gt;Node5 -->
<g id="edge18" class="edge"><title>Node15&#45;&gt;Node5</title>
<path fill="none" stroke="midnightblue" d="M647.305,-56.324C637.901,-48.2631 623.683,-36.0765 612.358,-26.3695"/>
<polygon fill="midnightblue" stroke="midnightblue" points="614.604,-23.6844 604.733,-19.8339 610.048,-28.9993 614.604,-23.6844"/>
</g>
<!-- Node15&#45;&gt;Node12 -->
<g id="edge17" class="edge"><title>Node15&#45;&gt;Node12</title>
<path fill="none" stroke="midnightblue" d="M662.546,-56.083C666.835,-48.6127 673.085,-37.7244 678.369,-28.5199"/>
<polygon fill="midnightblue" stroke="midnightblue" points="681.46,-30.1662 683.403,-19.7511 675.389,-26.6811 681.46,-30.1662"/>
</g>
<!-- Node16&#45;&gt;Node5 -->
<g id="edge20" class="edge"><title>Node16&#45;&gt;Node5</title>
<path fill="none" stroke="midnightblue" d="M490.075,-56.4435C510.392,-47.5961 542.33,-33.6875 565.525,-23.5865"/>
<polygon fill="midnightblue" stroke="midnightblue" points="567.1,-26.7181 574.871,-19.5164 564.305,-20.3002 567.1,-26.7181"/>
</g>
<!-- Node16&#45;&gt;Node6 -->
<g id="edge21" class="edge"><title>Node16&#45;&gt;Node6</title>
<path fill="none" stroke="midnightblue" d="M432.715,-56.4435C391.284,-47.0431 324.67,-31.9291 279.76,-21.7393"/>
<polygon fill="midnightblue" stroke="midnightblue" points="280.489,-18.3159 269.962,-19.5164 278.94,-25.1424 280.489,-18.3159"/>
</g>
</g>
</svg>
        <g id="navigator" transform="translate(0 0)" fill="#404254">
                <rect fill="#f2f5e9" fill-opacity="0.5" stroke="#606060" stroke-width=".5" x="0" y="0" width="60" height="60"/>
                <use id="zoomplus" xlink:href="#zoomPlus" x="17" y="9" onmousedown="handleZoom(evt,'in')"/>
                <use id="zoomminus" xlink:href="#zoomMin" x="42" y="9" onmousedown="handleZoom(evt,'out')"/>
                <use id="reset" xlink:href="#resetDef" x="30" y="36" onmousedown="handleReset()"/>
                <g id="arrowUp" xlink:href="#dirArrow" transform="translate(30 24)" onmousedown="handlePan(0,-1)">
                  <use xlink:href="#rim" fill="#404040">
                        <set attributeName="fill" to="#808080" begin="arrowUp.mouseover" end="arrowUp.mouseout"/>
                  </use>
                  <path fill="none" stroke="white" stroke-width="1.5" d="M0,-3.0v7 M-2.5,-0.5L0,-3.0L2.5,-0.5"/>
                </g>
                <g id="arrowRight" xlink:href="#dirArrow" transform="rotate(90) translate(36 -43)" onmousedown="handlePan(1,0)">
                  <use xlink:href="#rim" fill="#404040">
                        <set attributeName="fill" to="#808080" begin="arrowRight.mouseover" end="arrowRight.mouseout"/>
                  </use>
                  <path fill="none" stroke="white" stroke-width="1.5" d="M0,-3.0v7 M-2.5,-0.5L0,-3.0L2.5,-0.5"/>
                </g>
                <g id="arrowDown" xlink:href="#dirArrow" transform="rotate(180) translate(-30 -48)" onmousedown="handlePan(0,1)">
                  <use xlink:href="#rim" fill="#404040">
                        <set attributeName="fill" to="#808080" begin="arrowDown.mouseover" end="arrowDown.mouseout"/>
                  </use>
                  <path fill="none" stroke="white" stroke-width="1.5" d="M0,-3.0v7 M-2.5,-0.5L0,-3.0L2.5,-0.5"/>
                </g>
                <g id="arrowLeft" xlink:href="#dirArrow" transform="rotate(270) translate(-36 17)" onmousedown="handlePan(-1,0)">
                  <use xlink:href="#rim" fill="#404040">
                        <set attributeName="fill" to="#808080" begin="arrowLeft.mouseover" end="arrowLeft.mouseout"/>
                  </use>
                  <path fill="none" stroke="white" stroke-width="1.5" d="M0,-3.0v7 M-2.5,-0.5L0,-3.0L2.5,-0.5"/>
                </g>
        </g>
        <svg viewBox="0 0 15 15" width="100%" height="30px" preserveAspectRatio="xMaxYMin meet">
         <g id="arrow_out" transform="scale(0.3 0.3)">
          <a xlink:href="BenchmarkTask_8h__incl_org.svg" target="_base">
           <rect id="button" ry="5" rx="5" y="6" x="6" height="38" width="38"
                fill="#f2f5e9" fill-opacity="0.5" stroke="#606060" stroke-width="1.0"/>
           <path id="arrow"
             d="M 11.500037,31.436501 C 11.940474,20.09759 22.043105,11.32322 32.158766,21.979434 L 37.068811,17.246167 C 37.068811,17.246167 37.088388,32 37.088388,32 L 22.160133,31.978069 C 22.160133,31.978069 26.997745,27.140456 26.997745,27.140456 C 18.528582,18.264221 13.291696,25.230495 11.500037,31.436501 z"
             style="fill:#404040;"/>
          </a>
         </g>
        </svg>
</svg>
