<?xml version="1.0" encoding="UTF-8" standalone="no"?>
<!DOCTYPE svg PUBLIC "-//W3C//DTD SVG 1.1//EN"
 "http://www.w3.org/Graphics/SVG/1.1/DTD/svg11.dtd">
<!-- Generated by graphviz version 2.38.0 (20140413.2041)
 -->
<!-- Title: Framework/include/QualityControl/CheckConfig.h Pages: 1 -->
<svg width="2089pt" height="240pt"
 viewBox="0.00 0.00 2088.50 240.00" xmlns="http://www.w3.org/2000/svg" xmlns:xlink="http://www.w3.org/1999/xlink">
<g id="graph0" class="graph" transform="scale(1 1) rotate(0) translate(4 236)">
<title>Framework/include/QualityControl/CheckConfig.h</title>
<!-- Node1 -->
<g id="node1" class="node"><title>Node1</title>
<polygon fill="#bfbfbf" stroke="black" points="900,-201.5 900,-231.5 1033,-231.5 1033,-201.5 900,-201.5"/>
<text text-anchor="start" x="908" y="-219.5" font-family="Helvetica,sans-Serif" font-size="10.00">Framework/include/Quality</text>
<text text-anchor="middle" x="966.5" y="-208.5" font-family="Helvetica,sans-Serif" font-size="10.00">Control/CheckConfig.h</text>
</g>
<!-- Node2 -->
<g id="node2" class="node"><title>Node2</title>
<g id="a_node2"><a xlink:href="Check_8h_source.html" target="_top" xlink:title="Framework/include/Quality\lControl/Check.h">
<polygon fill="none" stroke="black" points="900,-134.5 900,-164.5 1033,-164.5 1033,-134.5 900,-134.5"/>
<text text-anchor="start" x="908" y="-152.5" font-family="Helvetica,sans-Serif" font-size="10.00">Framework/include/Quality</text>
<text text-anchor="middle" x="966.5" y="-141.5" font-family="Helvetica,sans-Serif" font-size="10.00">Control/Check.h</text>
</a>
</g>
</g>
<!-- Node1&#45;&gt;Node2 -->
<g id="edge1" class="edge"><title>Node1&#45;&gt;Node2</title>
<path fill="none" stroke="midnightblue" d="M966.5,-191.108C966.5,-182.154 966.5,-172.323 966.5,-164.577"/>
<polygon fill="midnightblue" stroke="midnightblue" points="963,-191.396 966.5,-201.396 970,-191.396 963,-191.396"/>
</g>
<!-- Node3 -->
<g id="node3" class="node"><title>Node3</title>
<g id="a_node3"><a xlink:href="CheckRunner_8h.html" target="_top" xlink:title="Framework/include/Quality\lControl/CheckRunner.h">
<polygon fill="none" stroke="black" points="900,-67.5 900,-97.5 1033,-97.5 1033,-67.5 900,-67.5"/>
<text text-anchor="start" x="908" y="-85.5" font-family="Helvetica,sans-Serif" font-size="10.00">Framework/include/Quality</text>
<text text-anchor="middle" x="966.5" y="-74.5" font-family="Helvetica,sans-Serif" font-size="10.00">Control/CheckRunner.h</text>
</a>
</g>
</g>
<!-- Node2&#45;&gt;Node3 -->
<g id="edge2" class="edge"><title>Node2&#45;&gt;Node3</title>
<path fill="none" stroke="midnightblue" d="M966.5,-124.108C966.5,-115.154 966.5,-105.323 966.5,-97.5765"/>
<polygon fill="midnightblue" stroke="midnightblue" points="963,-124.396 966.5,-134.396 970,-124.396 963,-124.396"/>
</g>
<!-- Node6 -->
<g id="node6" class="node"><title>Node6</title>
<g id="a_node6"><a xlink:href="InfrastructureGenerator_8cxx.html" target="_top" xlink:title="Framework/src/Infrastructure\lGenerator.cxx">
<polygon fill="none" stroke="black" points="0,-0.5 0,-30.5 143,-30.5 143,-0.5 0,-0.5"/>
<text text-anchor="start" x="8" y="-18.5" font-family="Helvetica,sans-Serif" font-size="10.00">Framework/src/Infrastructure</text>
<text text-anchor="middle" x="71.5" y="-7.5" font-family="Helvetica,sans-Serif" font-size="10.00">Generator.cxx</text>
</a>
</g>
</g>
<!-- Node2&#45;&gt;Node6 -->
<g id="edge22" class="edge"><title>Node2&#45;&gt;Node6</title>
<path fill="none" stroke="midnightblue" d="M889.798,-141.839C798.474,-133.498 641.454,-117.86 507.5,-98 375.911,-78.4907 223.378,-48.1994 138.088,-30.5613"/>
<polygon fill="midnightblue" stroke="midnightblue" points="889.512,-145.328 899.787,-142.746 890.145,-138.356 889.512,-145.328"/>
</g>
<!-- Node15 -->
<g id="node15" class="node"><title>Node15</title>
<g id="a_node15"><a xlink:href="CheckRunnerFactory_8h.html" target="_top" xlink:title="Framework/include/Quality\lControl/CheckRunnerFactory.h">
<polygon fill="none" stroke="black" points="516.5,-67.5 516.5,-97.5 668.5,-97.5 668.5,-67.5 516.5,-67.5"/>
<text text-anchor="start" x="524.5" y="-85.5" font-family="Helvetica,sans-Serif" font-size="10.00">Framework/include/Quality</text>
<text text-anchor="middle" x="592.5" y="-74.5" font-family="Helvetica,sans-Serif" font-size="10.00">Control/CheckRunnerFactory.h</text>
</a>
</g>
</g>
<!-- Node2&#45;&gt;Node15 -->
<g id="edge14" class="edge"><title>Node2&#45;&gt;Node15</title>
<path fill="none" stroke="midnightblue" d="M889.512,-135.12C824.921,-123.894 733.159,-107.946 668.771,-96.7557"/>
<polygon fill="midnightblue" stroke="midnightblue" points="889.185,-138.615 899.636,-136.879 890.383,-131.719 889.185,-138.615"/>
</g>
<!-- Node17 -->
<g id="node17" class="node"><title>Node17</title>
<polygon fill="none" stroke="#bfbfbf" points="1051.5,-73 1051.5,-92 1183.5,-92 1183.5,-73 1051.5,-73"/>
<text text-anchor="middle" x="1117.5" y="-80" font-family="Helvetica,sans-Serif" font-size="10.00">Framework/src/Check.cxx</text>
</g>
<!-- Node2&#45;&gt;Node17 -->
<g id="edge21" class="edge"><title>Node2&#45;&gt;Node17</title>
<path fill="none" stroke="midnightblue" d="M1008.79,-130.295C1037.91,-117.76 1075.26,-101.682 1097.74,-92.007"/>
<polygon fill="midnightblue" stroke="midnightblue" points="1007.07,-127.227 999.265,-134.396 1009.83,-133.657 1007.07,-127.227"/>
</g>
<!-- Node18 -->
<g id="node18" class="node"><title>Node18</title>
<g id="a_node18"><a xlink:href="runITS_8cxx.html" target="_top" xlink:title="Modules/ITS/src/runITS.cxx">
<polygon fill="none" stroke="black" points="1201.5,-73 1201.5,-92 1341.5,-92 1341.5,-73 1201.5,-73"/>
<text text-anchor="middle" x="1271.5" y="-80" font-family="Helvetica,sans-Serif" font-size="10.00">Modules/ITS/src/runITS.cxx</text>
</a>
</g>
</g>
<!-- Node2&#45;&gt;Node18 -->
<g id="edge23" class="edge"><title>Node2&#45;&gt;Node18</title>
<path fill="none" stroke="midnightblue" d="M1042.11,-132.387C1102.07,-119.609 1183.5,-102.254 1231.48,-92.0287"/>
<polygon fill="midnightblue" stroke="midnightblue" points="1041.36,-128.968 1032.3,-134.476 1042.81,-135.815 1041.36,-128.968"/>
</g>
<!-- Node4 -->
<g id="node4" class="node"><title>Node4</title>
<g id="a_node4"><a xlink:href="CheckRunner_8cxx.html" target="_top" xlink:title="Framework/src/CheckRunner.cxx">
<polygon fill="none" stroke="black" points="1068.5,-6 1068.5,-25 1232.5,-25 1232.5,-6 1068.5,-6"/>
<text text-anchor="middle" x="1150.5" y="-13" font-family="Helvetica,sans-Serif" font-size="10.00">Framework/src/CheckRunner.cxx</text>
</a>
</g>
</g>
<!-- Node3&#45;&gt;Node4 -->
<g id="edge3" class="edge"><title>Node3&#45;&gt;Node4</title>
<path fill="none" stroke="midnightblue" d="M1016.19,-63.9459C1051.93,-51.3213 1098.55,-34.8502 1126.42,-25.007"/>
<polygon fill="midnightblue" stroke="midnightblue" points="1014.69,-60.7649 1006.43,-67.396 1017.02,-67.3652 1014.69,-60.7649"/>
</g>
<!-- Node5 -->
<g id="node5" class="node"><title>Node5</title>
<g id="a_node5"><a xlink:href="CheckRunnerFactory_8cxx.html" target="_top" xlink:title="Framework/src/CheckRunner\lFactory.cxx">
<polygon fill="none" stroke="black" points="720,-0.5 720,-30.5 865,-30.5 865,-0.5 720,-0.5"/>
<text text-anchor="start" x="728" y="-18.5" font-family="Helvetica,sans-Serif" font-size="10.00">Framework/src/CheckRunner</text>
<text text-anchor="middle" x="792.5" y="-7.5" font-family="Helvetica,sans-Serif" font-size="10.00">Factory.cxx</text>
</a>
</g>
</g>
<!-- Node3&#45;&gt;Node5 -->
<g id="edge4" class="edge"><title>Node3&#45;&gt;Node5</title>
<path fill="none" stroke="midnightblue" d="M919.168,-63.8185C891.2,-53.3707 856.273,-40.3231 830.182,-30.5765"/>
<polygon fill="midnightblue" stroke="midnightblue" points="918.152,-67.1752 928.745,-67.396 920.602,-60.6178 918.152,-67.1752"/>
</g>
<!-- Node3&#45;&gt;Node6 -->
<g id="edge5" class="edge"><title>Node3&#45;&gt;Node6</title>
<path fill="none" stroke="midnightblue" d="M889.618,-77.2373C700.795,-66.6957 224.367,-39.6328 152.5,-31 149.521,-30.6422 146.486,-30.2455 143.424,-29.8188"/>
<polygon fill="midnightblue" stroke="midnightblue" points="889.565,-80.7397 899.744,-77.8022 889.955,-73.7506 889.565,-80.7397"/>
</g>
<!-- Node7 -->
<g id="node7" class="node"><title>Node7</title>
<g id="a_node7"><a xlink:href="runBasic_8cxx.html" target="_top" xlink:title="This is an executable showing QC Task&#39;s usage in Data Processing Layer. ">
<polygon fill="none" stroke="black" points="1250.5,-6 1250.5,-25 1392.5,-25 1392.5,-6 1250.5,-6"/>
<text text-anchor="middle" x="1321.5" y="-13" font-family="Helvetica,sans-Serif" font-size="10.00">Framework/src/runBasic.cxx</text>
</a>
</g>
</g>
<!-- Node3&#45;&gt;Node7 -->
<g id="edge6" class="edge"><title>Node3&#45;&gt;Node7</title>
<path fill="none" stroke="midnightblue" d="M1043.25,-66.8711C1132.51,-50.3117 1156.17,-46.4518 1241.5,-31 1252.19,-29.0634 1263.69,-26.98 1274.55,-25.0133"/>
<polygon fill="midnightblue" stroke="midnightblue" points="1042.41,-63.4657 1033.22,-68.7329 1043.69,-70.348 1042.41,-63.4657"/>
</g>
<!-- Node8 -->
<g id="node8" class="node"><title>Node8</title>
<g id="a_node8"><a xlink:href="runMergerTest_8cxx.html" target="_top" xlink:title="This is DPL workflow to see HistoMerger in action. ">
<polygon fill="none" stroke="black" points="883,-6 883,-25 1050,-25 1050,-6 883,-6"/>
<text text-anchor="middle" x="966.5" y="-13" font-family="Helvetica,sans-Serif" font-size="10.00">Framework/src/runMergerTest.cxx</text>
</a>
</g>
</g>
<!-- Node3&#45;&gt;Node8 -->
<g id="edge7" class="edge"><title>Node3&#45;&gt;Node8</title>
<path fill="none" stroke="midnightblue" d="M966.5,-57.2495C966.5,-46.017 966.5,-33.3767 966.5,-25.1945"/>
<polygon fill="midnightblue" stroke="midnightblue" points="963,-57.3959 966.5,-67.396 970,-57.396 963,-57.3959"/>
</g>
<!-- Node9 -->
<g id="node9" class="node"><title>Node9</title>
<g id="a_node9"><a xlink:href="testCheckRunner_8cxx.html" target="_top" xlink:title="Framework/test/testCheck\lRunner.cxx">
<polygon fill="none" stroke="black" points="332,-0.5 332,-30.5 465,-30.5 465,-0.5 332,-0.5"/>
<text text-anchor="start" x="340" y="-18.5" font-family="Helvetica,sans-Serif" font-size="10.00">Framework/test/testCheck</text>
<text text-anchor="middle" x="398.5" y="-7.5" font-family="Helvetica,sans-Serif" font-size="10.00">Runner.cxx</text>
</a>
</g>
</g>
<!-- Node3&#45;&gt;Node9 -->
<g id="edge8" class="edge"><title>Node3&#45;&gt;Node9</title>
<path fill="none" stroke="midnightblue" d="M889.814,-75.69C792.809,-67.8678 620.764,-52.4185 474.5,-31 471.443,-30.5524 468.322,-30.0681 465.173,-29.5575"/>
<polygon fill="midnightblue" stroke="midnightblue" points="889.579,-79.1823 899.826,-76.4917 890.137,-72.2046 889.579,-79.1823"/>
</g>
<!-- Node10 -->
<g id="node10" class="node"><title>Node10</title>
<g id="a_node10"><a xlink:href="testCheckWorkflow_8cxx.html" target="_top" xlink:title="Framework/test/testCheck\lWorkflow.cxx">
<polygon fill="none" stroke="black" points="1411,-0.5 1411,-30.5 1544,-30.5 1544,-0.5 1411,-0.5"/>
<text text-anchor="start" x="1419" y="-18.5" font-family="Helvetica,sans-Serif" font-size="10.00">Framework/test/testCheck</text>
<text text-anchor="middle" x="1477.5" y="-7.5" font-family="Helvetica,sans-Serif" font-size="10.00">Workflow.cxx</text>
</a>
</g>
</g>
<!-- Node3&#45;&gt;Node10 -->
<g id="edge9" class="edge"><title>Node3&#45;&gt;Node10</title>
<path fill="none" stroke="midnightblue" d="M1043.35,-66.9705C1202.95,-44.3515 1246.06,-53.576 1401.5,-31 1404.56,-30.5559 1407.68,-30.0746 1410.83,-29.5663"/>
<polygon fill="midnightblue" stroke="midnightblue" points="1042.57,-63.5464 1033.17,-68.4337 1043.57,-70.4752 1042.57,-63.5464"/>
</g>
<!-- Node11 -->
<g id="node11" class="node"><title>Node11</title>
<g id="a_node11"><a xlink:href="testWorkflow_8cxx.html" target="_top" xlink:title="Framework/test/testWorkflow.cxx">
<polygon fill="none" stroke="black" points="1562.5,-6 1562.5,-25 1726.5,-25 1726.5,-6 1562.5,-6"/>
<text text-anchor="middle" x="1644.5" y="-13" font-family="Helvetica,sans-Serif" font-size="10.00">Framework/test/testWorkflow.cxx</text>
</a>
</g>
</g>
<!-- Node3&#45;&gt;Node11 -->
<g id="edge10" class="edge"><title>Node3&#45;&gt;Node11</title>
<path fill="none" stroke="midnightblue" d="M1043.38,-67.0036C1270.04,-38.171 1330.62,-56.5579 1553.5,-31 1567.33,-29.4144 1582.27,-27.2318 1595.96,-25.0412"/>
<polygon fill="midnightblue" stroke="midnightblue" points="1042.63,-63.5711 1033.16,-68.3211 1043.52,-70.5137 1042.63,-63.5711"/>
</g>
<!-- Node12 -->
<g id="node12" class="node"><title>Node12</title>
<polygon fill="none" stroke="#bfbfbf" points="483.5,-6 483.5,-25 701.5,-25 701.5,-6 483.5,-6"/>
<text text-anchor="middle" x="592.5" y="-13" font-family="Helvetica,sans-Serif" font-size="10.00">Modules/EMCAL/src/runQCEMCALDigits.cxx</text>
</g>
<!-- Node3&#45;&gt;Node12 -->
<g id="edge11" class="edge"><title>Node3&#45;&gt;Node12</title>
<path fill="none" stroke="midnightblue" d="M889.385,-68.0976C814.981,-55.1664 704.607,-35.9838 641.505,-25.0169"/>
<polygon fill="midnightblue" stroke="midnightblue" points="889.185,-71.6152 899.636,-69.8793 890.383,-64.7186 889.185,-71.6152"/>
</g>
<!-- Node13 -->
<g id="node13" class="node"><title>Node13</title>
<g id="a_node13"><a xlink:href="runTOF_8cxx.html" target="_top" xlink:title="This is an executable showing QC Task&#39;s usage in Data Processing Layer. ">
<polygon fill="none" stroke="black" points="1745,-6 1745,-25 1892,-25 1892,-6 1745,-6"/>
<text text-anchor="middle" x="1818.5" y="-13" font-family="Helvetica,sans-Serif" font-size="10.00">Modules/TOF/src/runTOF.cxx</text>
</a>
</g>
</g>
<!-- Node3&#45;&gt;Node13 -->
<g id="edge12" class="edge"><title>Node3&#45;&gt;Node13</title>
<path fill="none" stroke="midnightblue" d="M1043.24,-67.044C1350.44,-30.7703 1432.32,-65.2296 1735.5,-31 1748.58,-29.523 1762.72,-27.2924 1775.56,-25.0205"/>
<polygon fill="midnightblue" stroke="midnightblue" points="1042.66,-63.5877 1033.15,-68.2508 1043.49,-70.5381 1042.66,-63.5877"/>
</g>
<!-- Node14 -->
<g id="node14" class="node"><title>Node14</title>
<polygon fill="none" stroke="#bfbfbf" points="1910.5,-0.5 1910.5,-30.5 2080.5,-30.5 2080.5,-0.5 1910.5,-0.5"/>
<text text-anchor="start" x="1918.5" y="-18.5" font-family="Helvetica,sans-Serif" font-size="10.00">Modules/TPC/run/runTPCQCTrack</text>
<text text-anchor="middle" x="1995.5" y="-7.5" font-family="Helvetica,sans-Serif" font-size="10.00">Reader.cxx</text>
</g>
<!-- Node3&#45;&gt;Node14 -->
<g id="edge13" class="edge"><title>Node3&#45;&gt;Node14</title>
<path fill="none" stroke="midnightblue" d="M1043.33,-67.0433C1423.84,-23.8628 1524.54,-67.8576 1901.5,-31 1904.46,-30.7108 1907.47,-30.3905 1910.5,-30.045"/>
<polygon fill="midnightblue" stroke="midnightblue" points="1042.68,-63.5952 1033.14,-68.2127 1043.48,-70.5495 1042.68,-63.5952"/>
</g>
<!-- Node15&#45;&gt;Node5 -->
<g id="edge15" class="edge"><title>Node15&#45;&gt;Node5</title>
<path fill="none" stroke="midnightblue" d="M645.645,-64.2278C677.998,-53.7131 718.805,-40.4508 749.188,-30.5765"/>
<polygon fill="midnightblue" stroke="midnightblue" points="644.326,-60.9764 635.897,-67.396 646.489,-67.6337 644.326,-60.9764"/>
</g>
<!-- Node15&#45;&gt;Node6 -->
<g id="edge16" class="edge"><title>Node15&#45;&gt;Node6</title>
<path fill="none" stroke="midnightblue" d="M506.366,-73.2309C417.511,-64.3219 275.015,-48.9784 152.5,-31 149.39,-30.5437 146.217,-30.0587 143.014,-29.5534"/>
<polygon fill="midnightblue" stroke="midnightblue" points="506.098,-76.7215 516.396,-74.2321 506.793,-69.7561 506.098,-76.7215"/>
</g>
<!-- Node15&#45;&gt;Node8 -->
<g id="edge17" class="edge"><title>Node15&#45;&gt;Node8</title>
<path fill="none" stroke="midnightblue" d="M678.881,-66.4873C752.953,-53.6137 857.021,-35.527 917.546,-25.0081"/>
<polygon fill="midnightblue" stroke="midnightblue" points="677.888,-63.1072 668.635,-68.2679 679.087,-70.0039 677.888,-63.1072"/>
</g>
<!-- Node15&#45;&gt;Node9 -->
<g id="edge19" class="edge"><title>Node15&#45;&gt;Node9</title>
<path fill="none" stroke="midnightblue" d="M540.543,-64.0917C509.226,-53.5988 469.857,-40.4082 440.513,-30.5765"/>
<polygon fill="midnightblue" stroke="midnightblue" points="539.811,-67.5376 550.405,-67.396 542.035,-60.9003 539.811,-67.5376"/>
</g>
<!-- Node15&#45;&gt;Node12 -->
<g id="edge20" class="edge"><title>Node15&#45;&gt;Node12</title>
<path fill="none" stroke="midnightblue" d="M592.5,-57.2495C592.5,-46.017 592.5,-33.3767 592.5,-25.1945"/>
<polygon fill="midnightblue" stroke="midnightblue" points="589,-57.3959 592.5,-67.396 596,-57.396 589,-57.3959"/>
</g>
<!-- Node16 -->
<g id="node16" class="node"><title>Node16</title>
<polygon fill="none" stroke="#bfbfbf" points="161.5,-6 161.5,-25 313.5,-25 313.5,-6 161.5,-6"/>
<text text-anchor="middle" x="237.5" y="-13" font-family="Helvetica,sans-Serif" font-size="10.00">Framework/test/testCheck.cxx</text>
</g>
<!-- Node15&#45;&gt;Node16 -->
<g id="edge18" class="edge"><title>Node15&#45;&gt;Node16</title>
<path fill="none" stroke="midnightblue" d="M506.212,-65.7008C436.213,-52.8841 340.227,-35.3093 283.942,-25.0035"/>
<polygon fill="midnightblue" stroke="midnightblue" points="505.877,-69.1975 516.344,-67.5559 507.138,-62.312 505.877,-69.1975"/>
</g>
</g>
</svg>
