<?xml version="1.0" encoding="UTF-8" standalone="no"?>
<!DOCTYPE svg PUBLIC "-//W3C//DTD SVG 1.1//EN"
 "http://www.w3.org/Graphics/SVG/1.1/DTD/svg11.dtd">
<!-- Generated by graphviz version 2.38.0 (20140413.2041)
 -->
<!-- Title: o2::quality_control::checker::CheckInterface Pages: 1 -->
<!--zoomable 347 -->
<svg id="main" version="1.1" xmlns="http://www.w3.org/2000/svg" xmlns:xlink="http://www.w3.org/1999/xlink" xml:space="preserve" onload="init(evt)">
<style type="text/css"><![CDATA[
.edge:hover path { stroke: red; }
.edge:hover polygon { stroke: red; fill: red; }
]]></style>
<script type="text/javascript"><![CDATA[
var edges = document.getElementsByTagName('g');
if (edges && edges.length) {
  for (var i=0;i<edges.length;i++) {
    if (edges[i].id.substr(0,4)=='edge') {
      edges[i].setAttribute('class','edge');
    }
  }
}
]]></script>
        <defs>
                <circle id="rim" cx="0" cy="0" r="7"/>
                <circle id="rim2" cx="0" cy="0" r="3.5"/>
                <g id="zoomPlus">
                        <use xlink:href="#rim" fill="#404040">
                                <set attributeName="fill" to="#808080" begin="zoomplus.mouseover" end="zoomplus.mouseout"/>
                        </use>
                        <path d="M-4,0h8M0,-4v8" fill="none" stroke="white" stroke-width="1.5" pointer-events="none"/>
                </g>
                <g id="zoomMin">
                        <use xlink:href="#rim" fill="#404040">
                                <set attributeName="fill" to="#808080" begin="zoomminus.mouseover" end="zoomminus.mouseout"/>
                        </use>
                        <path d="M-4,0h8" fill="none" stroke="white" stroke-width="1.5" pointer-events="none"/>
                </g>
                <g id="dirArrow">
                        <path fill="none" stroke="white" stroke-width="1.5" d="M0,-3.0v7 M-2.5,-0.5L0,-3.0L2.5,-0.5"/>
                </g>
               <g id="resetDef">
                       <use xlink:href="#rim2" fill="#404040">
                               <set attributeName="fill" to="#808080" begin="reset.mouseover" end="reset.mouseout"/>
                       </use>
               </g>
        </defs>

<script type="text/javascript">
var viewWidth = 3333;
var viewHeight = 347;
var sectionId = 'dynsection-0';
</script>
<script xlink:href="svgpan.js"/>
<svg id="graph" class="graph">
<g id="viewport">
<title>o2::quality_control::checker::CheckInterface</title>
<!-- Node1 -->
<g id="node1" class="node"><title>Node1</title>
<polygon fill="#bfbfbf" stroke="black" points="1567,-182.5 1567,-338.5 1697,-338.5 1697,-182.5 1567,-182.5"/>
<text text-anchor="start" x="1575" y="-326.5" font-family="Helvetica,sans-Serif" font-size="10.00">o2::quality_control</text>
<text text-anchor="middle" x="1632" y="-315.5" font-family="Helvetica,sans-Serif" font-size="10.00">::checker::CheckInterface</text>
<polyline fill="none" stroke="black" points="1567,-308.5 1697,-308.5 "/>
<text text-anchor="start" x="1575" y="-296.5" font-family="Helvetica,sans-Serif" font-size="10.00"># mCustomParameters</text>
<polyline fill="none" stroke="black" points="1567,-289.5 1697,-289.5 "/>
<text text-anchor="start" x="1575" y="-277.5" font-family="Helvetica,sans-Serif" font-size="10.00">+ CheckInterface()</text>
<text text-anchor="start" x="1575" y="-266.5" font-family="Helvetica,sans-Serif" font-size="10.00">+ ~CheckInterface()</text>
<text text-anchor="start" x="1575" y="-255.5" font-family="Helvetica,sans-Serif" font-size="10.00">+ configure()</text>
<text text-anchor="start" x="1575" y="-244.5" font-family="Helvetica,sans-Serif" font-size="10.00">+ check()</text>
<text text-anchor="start" x="1575" y="-233.5" font-family="Helvetica,sans-Serif" font-size="10.00">+ beautify()</text>
<text text-anchor="start" x="1575" y="-222.5" font-family="Helvetica,sans-Serif" font-size="10.00">+ getAcceptedType()</text>
<text text-anchor="start" x="1575" y="-211.5" font-family="Helvetica,sans-Serif" font-size="10.00">+ isObjectCheckable()</text>
<text text-anchor="start" x="1575" y="-200.5" font-family="Helvetica,sans-Serif" font-size="10.00">+ isObjectCheckable()</text>
<text text-anchor="start" x="1575" y="-189.5" font-family="Helvetica,sans-Serif" font-size="10.00">+ setCustomParameters()</text>
</g>
<!-- Node2 -->
<g id="node2" class="node"><title>Node2</title>
<g id="a_node2"><a xlink:href="classo2_1_1quality__control_1_1test_1_1TestCheck.html" target="_top" xlink:title="{o2::quality_control\l::test::TestCheck\n|+ mValidString\l|+ TestCheck()\l+ ~TestCheck()\l+ configure()\l+ check()\l+ beautify()\l+ getAcceptedType()\l}">
<polygon fill="none" stroke="black" points="0,-11.5 0,-134.5 108,-134.5 108,-11.5 0,-11.5"/>
<text text-anchor="start" x="8" y="-122.5" font-family="Helvetica,sans-Serif" font-size="10.00">o2::quality_control</text>
<text text-anchor="middle" x="54" y="-111.5" font-family="Helvetica,sans-Serif" font-size="10.00">::test::TestCheck</text>
<polyline fill="none" stroke="black" points="0,-104.5 108,-104.5 "/>
<text text-anchor="start" x="8" y="-92.5" font-family="Helvetica,sans-Serif" font-size="10.00">+ mValidString</text>
<polyline fill="none" stroke="black" points="0,-85.5 108,-85.5 "/>
<text text-anchor="start" x="8" y="-73.5" font-family="Helvetica,sans-Serif" font-size="10.00">+ TestCheck()</text>
<text text-anchor="start" x="8" y="-62.5" font-family="Helvetica,sans-Serif" font-size="10.00">+ ~TestCheck()</text>
<text text-anchor="start" x="8" y="-51.5" font-family="Helvetica,sans-Serif" font-size="10.00">+ configure()</text>
<text text-anchor="start" x="8" y="-40.5" font-family="Helvetica,sans-Serif" font-size="10.00">+ check()</text>
<text text-anchor="start" x="8" y="-29.5" font-family="Helvetica,sans-Serif" font-size="10.00">+ beautify()</text>
<text text-anchor="start" x="8" y="-18.5" font-family="Helvetica,sans-Serif" font-size="10.00">+ getAcceptedType()</text>
</a>
</g>
</g>
<!-- Node1&#45;&gt;Node2 -->
<g id="edge1" class="edge"><title>Node1&#45;&gt;Node2</title>
<path fill="none" stroke="midnightblue" d="M1556.43,-257.186C1268.05,-247.902 246.496,-210.704 117,-146 110.908,-142.956 105.152,-139.041 99.7794,-134.61"/>
<polygon fill="none" stroke="midnightblue" points="1556.68,-260.696 1566.78,-257.517 1556.9,-253.699 1556.68,-260.696"/>
</g>
<!-- Node3 -->
<g id="node3" class="node"><title>Node3</title>
<g id="a_node3"><a xlink:href="classo2_1_1quality__control__modules_1_1common_1_1MeanIsAbove.html" target="_top" xlink:title="Check whether the mean of the plot is above a certain limit. ">
<polygon fill="none" stroke="black" points="126,-11.5 126,-134.5 294,-134.5 294,-11.5 126,-11.5"/>
<text text-anchor="start" x="134" y="-122.5" font-family="Helvetica,sans-Serif" font-size="10.00">o2::quality_control</text>
<text text-anchor="middle" x="210" y="-111.5" font-family="Helvetica,sans-Serif" font-size="10.00">_modules::common::MeanIsAbove</text>
<polyline fill="none" stroke="black" points="126,-104.5 294,-104.5 "/>
<text text-anchor="middle" x="210" y="-92.5" font-family="Helvetica,sans-Serif" font-size="10.00"> </text>
<polyline fill="none" stroke="black" points="126,-85.5 294,-85.5 "/>
<text text-anchor="start" x="134" y="-73.5" font-family="Helvetica,sans-Serif" font-size="10.00">+ MeanIsAbove()</text>
<text text-anchor="start" x="134" y="-62.5" font-family="Helvetica,sans-Serif" font-size="10.00">+ ~MeanIsAbove()</text>
<text text-anchor="start" x="134" y="-51.5" font-family="Helvetica,sans-Serif" font-size="10.00">+ configure()</text>
<text text-anchor="start" x="134" y="-40.5" font-family="Helvetica,sans-Serif" font-size="10.00">+ check()</text>
<text text-anchor="start" x="134" y="-29.5" font-family="Helvetica,sans-Serif" font-size="10.00">+ beautify()</text>
<text text-anchor="start" x="134" y="-18.5" font-family="Helvetica,sans-Serif" font-size="10.00">+ getAcceptedType()</text>
</a>
</g>
</g>
<!-- Node1&#45;&gt;Node3 -->
<g id="edge2" class="edge"><title>Node1&#45;&gt;Node3</title>
<path fill="none" stroke="midnightblue" d="M1556.51,-258.632C1310.48,-254.938 534.285,-236.24 303,-146 295.201,-142.957 287.514,-139.042 280.105,-134.612"/>
<polygon fill="none" stroke="midnightblue" points="1556.73,-262.135 1566.78,-258.782 1556.84,-255.136 1556.73,-262.135"/>
</g>
<!-- Node4 -->
<g id="node4" class="node"><title>Node4</title>
<g id="a_node4"><a xlink:href="classo2_1_1quality__control__modules_1_1common_1_1NonEmpty.html" target="_top" xlink:title="Check whether a plot is empty or not. ">
<polygon fill="none" stroke="black" points="312.5,-6 312.5,-140 467.5,-140 467.5,-6 312.5,-6"/>
<text text-anchor="start" x="320.5" y="-128" font-family="Helvetica,sans-Serif" font-size="10.00">o2::quality_control</text>
<text text-anchor="middle" x="390" y="-117" font-family="Helvetica,sans-Serif" font-size="10.00">_modules::common::NonEmpty</text>
<polyline fill="none" stroke="black" points="312.5,-110 467.5,-110 "/>
<text text-anchor="middle" x="390" y="-98" font-family="Helvetica,sans-Serif" font-size="10.00"> </text>
<polyline fill="none" stroke="black" points="312.5,-91 467.5,-91 "/>
<text text-anchor="start" x="320.5" y="-79" font-family="Helvetica,sans-Serif" font-size="10.00">+ NonEmpty()</text>
<text text-anchor="start" x="320.5" y="-68" font-family="Helvetica,sans-Serif" font-size="10.00">+ ~NonEmpty()</text>
<text text-anchor="start" x="320.5" y="-57" font-family="Helvetica,sans-Serif" font-size="10.00">+ configure()</text>
<text text-anchor="start" x="320.5" y="-46" font-family="Helvetica,sans-Serif" font-size="10.00">+ check()</text>
<text text-anchor="start" x="320.5" y="-35" font-family="Helvetica,sans-Serif" font-size="10.00">+ beautify()</text>
<text text-anchor="start" x="320.5" y="-24" font-family="Helvetica,sans-Serif" font-size="10.00">+ getAcceptedType()</text>
<text text-anchor="start" x="320.5" y="-13" font-family="Helvetica,sans-Serif" font-size="10.00">+ ClassDefOverride()</text>
</a>
</g>
</g>
<!-- Node1&#45;&gt;Node4 -->
<g id="edge3" class="edge"><title>Node1&#45;&gt;Node4</title>
<path fill="none" stroke="midnightblue" d="M1556.87,-257.819C1332.97,-251.923 673.579,-227.874 477,-146 472.837,-144.266 468.72,-142.263 464.674,-140.052"/>
<polygon fill="none" stroke="midnightblue" points="1556.8,-261.319 1566.88,-258.079 1556.98,-254.321 1556.8,-261.319"/>
</g>
<!-- Node5 -->
<g id="node5" class="node"><title>Node5</title>
<g id="a_node5"><a xlink:href="classo2_1_1quality__control__modules_1_1daq_1_1EverIncreasingGraph.html" target="_top" xlink:title="Check whether a plot is empty or not. ">
<polygon fill="none" stroke="black" points="486,-6 486,-140 638,-140 638,-6 486,-6"/>
<text text-anchor="start" x="494" y="-128" font-family="Helvetica,sans-Serif" font-size="10.00">o2::quality_control</text>
<text text-anchor="start" x="494" y="-117" font-family="Helvetica,sans-Serif" font-size="10.00">_modules::daq::EverIncreasing</text>
<text text-anchor="middle" x="562" y="-106" font-family="Helvetica,sans-Serif" font-size="10.00">Graph</text>
<polyline fill="none" stroke="black" points="486,-99 638,-99 "/>
<text text-anchor="middle" x="562" y="-87" font-family="Helvetica,sans-Serif" font-size="10.00"> </text>
<polyline fill="none" stroke="black" points="486,-80 638,-80 "/>
<text text-anchor="start" x="494" y="-68" font-family="Helvetica,sans-Serif" font-size="10.00">+ EverIncreasingGraph()</text>
<text text-anchor="start" x="494" y="-57" font-family="Helvetica,sans-Serif" font-size="10.00">+ ~EverIncreasingGraph()</text>
<text text-anchor="start" x="494" y="-46" font-family="Helvetica,sans-Serif" font-size="10.00">+ configure()</text>
<text text-anchor="start" x="494" y="-35" font-family="Helvetica,sans-Serif" font-size="10.00">+ check()</text>
<text text-anchor="start" x="494" y="-24" font-family="Helvetica,sans-Serif" font-size="10.00">+ beautify()</text>
<text text-anchor="start" x="494" y="-13" font-family="Helvetica,sans-Serif" font-size="10.00">+ getAcceptedType()</text>
</a>
</g>
</g>
<!-- Node1&#45;&gt;Node5 -->
<g id="edge4" class="edge"><title>Node1&#45;&gt;Node5</title>
<path fill="none" stroke="midnightblue" d="M1556.67,-256.452C1355.67,-247.433 810.797,-216.949 647,-146 643.007,-144.27 639.059,-142.289 635.18,-140.113"/>
<polygon fill="none" stroke="midnightblue" points="1556.7,-259.956 1566.84,-256.903 1557.01,-252.963 1556.7,-259.956"/>
</g>
<!-- Node6 -->
<g id="node6" class="node"><title>Node6</title>
<g id="a_node6"><a xlink:href="classo2_1_1quality__control__modules_1_1emcal_1_1DigitCheck.html" target="_top" xlink:title="Check whether a plot is empty or not. ">
<polygon fill="none" stroke="black" points="656,-6 656,-140 802,-140 802,-6 656,-6"/>
<text text-anchor="start" x="664" y="-128" font-family="Helvetica,sans-Serif" font-size="10.00">o2::quality_control</text>
<text text-anchor="middle" x="729" y="-117" font-family="Helvetica,sans-Serif" font-size="10.00">_modules::emcal::DigitCheck</text>
<polyline fill="none" stroke="black" points="656,-110 802,-110 "/>
<text text-anchor="middle" x="729" y="-98" font-family="Helvetica,sans-Serif" font-size="10.00"> </text>
<polyline fill="none" stroke="black" points="656,-91 802,-91 "/>
<text text-anchor="start" x="664" y="-79" font-family="Helvetica,sans-Serif" font-size="10.00">+ DigitCheck()</text>
<text text-anchor="start" x="664" y="-68" font-family="Helvetica,sans-Serif" font-size="10.00">+ ~DigitCheck()</text>
<text text-anchor="start" x="664" y="-57" font-family="Helvetica,sans-Serif" font-size="10.00">+ configure()</text>
<text text-anchor="start" x="664" y="-46" font-family="Helvetica,sans-Serif" font-size="10.00">+ check()</text>
<text text-anchor="start" x="664" y="-35" font-family="Helvetica,sans-Serif" font-size="10.00">+ beautify()</text>
<text text-anchor="start" x="664" y="-24" font-family="Helvetica,sans-Serif" font-size="10.00">+ getAcceptedType()</text>
<text text-anchor="start" x="664" y="-13" font-family="Helvetica,sans-Serif" font-size="10.00">+ ClassDefOverride()</text>
</a>
</g>
</g>
<!-- Node1&#45;&gt;Node6 -->
<g id="edge5" class="edge"><title>Node1&#45;&gt;Node6</title>
<path fill="none" stroke="midnightblue" d="M1556.95,-254.653C1380.37,-242.369 943.533,-206.617 811,-146 807.124,-144.227 803.295,-142.21 799.536,-140.004"/>
<polygon fill="none" stroke="midnightblue" points="1556.72,-258.145 1566.94,-255.341 1557.2,-251.161 1556.72,-258.145"/>
</g>
<!-- Node7 -->
<g id="node7" class="node"><title>Node7</title>
<g id="a_node7"><a xlink:href="classo2_1_1quality__control__modules_1_1emcal_1_1RawCheck.html" target="_top" xlink:title="EMCAL raw data check It is final because there is no reason to derive from it. Just remove it if need...">
<polygon fill="none" stroke="black" points="820,-6 820,-140 966,-140 966,-6 820,-6"/>
<text text-anchor="start" x="828" y="-128" font-family="Helvetica,sans-Serif" font-size="10.00">o2::quality_control</text>
<text text-anchor="middle" x="893" y="-117" font-family="Helvetica,sans-Serif" font-size="10.00">_modules::emcal::RawCheck</text>
<polyline fill="none" stroke="black" points="820,-110 966,-110 "/>
<text text-anchor="middle" x="893" y="-98" font-family="Helvetica,sans-Serif" font-size="10.00"> </text>
<polyline fill="none" stroke="black" points="820,-91 966,-91 "/>
<text text-anchor="start" x="828" y="-79" font-family="Helvetica,sans-Serif" font-size="10.00">+ RawCheck()</text>
<text text-anchor="start" x="828" y="-68" font-family="Helvetica,sans-Serif" font-size="10.00">+ ~RawCheck()</text>
<text text-anchor="start" x="828" y="-57" font-family="Helvetica,sans-Serif" font-size="10.00">+ configure()</text>
<text text-anchor="start" x="828" y="-46" font-family="Helvetica,sans-Serif" font-size="10.00">+ check()</text>
<text text-anchor="start" x="828" y="-35" font-family="Helvetica,sans-Serif" font-size="10.00">+ beautify()</text>
<text text-anchor="start" x="828" y="-24" font-family="Helvetica,sans-Serif" font-size="10.00">+ getAcceptedType()</text>
<text text-anchor="start" x="828" y="-13" font-family="Helvetica,sans-Serif" font-size="10.00">+ ClassDefOverride()</text>
</a>
</g>
</g>
<!-- Node1&#45;&gt;Node7 -->
<g id="edge6" class="edge"><title>Node1&#45;&gt;Node7</title>
<path fill="none" stroke="midnightblue" d="M1556.6,-259.539C1430.15,-256.827 1170.04,-239.209 975,-146 971.41,-144.285 967.858,-142.366 964.361,-140.289"/>
<polygon fill="none" stroke="midnightblue" points="1556.88,-263.045 1566.94,-259.734 1557.01,-256.046 1556.88,-263.045"/>
</g>
<!-- Node8 -->
<g id="node8" class="node"><title>Node8</title>
<g id="a_node8"><a xlink:href="classo2_1_1quality__control__modules_1_1example_1_1FakeCheck.html" target="_top" xlink:title="Check whether a plot is empty or not. ">
<polygon fill="none" stroke="black" points="984,-6 984,-140 1142,-140 1142,-6 984,-6"/>
<text text-anchor="start" x="992" y="-128" font-family="Helvetica,sans-Serif" font-size="10.00">o2::quality_control</text>
<text text-anchor="middle" x="1063" y="-117" font-family="Helvetica,sans-Serif" font-size="10.00">_modules::example::FakeCheck</text>
<polyline fill="none" stroke="black" points="984,-110 1142,-110 "/>
<text text-anchor="middle" x="1063" y="-98" font-family="Helvetica,sans-Serif" font-size="10.00"> </text>
<polyline fill="none" stroke="black" points="984,-91 1142,-91 "/>
<text text-anchor="start" x="992" y="-79" font-family="Helvetica,sans-Serif" font-size="10.00">+ FakeCheck()</text>
<text text-anchor="start" x="992" y="-68" font-family="Helvetica,sans-Serif" font-size="10.00">+ ~FakeCheck()</text>
<text text-anchor="start" x="992" y="-57" font-family="Helvetica,sans-Serif" font-size="10.00">+ configure()</text>
<text text-anchor="start" x="992" y="-46" font-family="Helvetica,sans-Serif" font-size="10.00">+ check()</text>
<text text-anchor="start" x="992" y="-35" font-family="Helvetica,sans-Serif" font-size="10.00">+ beautify()</text>
<text text-anchor="start" x="992" y="-24" font-family="Helvetica,sans-Serif" font-size="10.00">+ getAcceptedType()</text>
<text text-anchor="start" x="992" y="-13" font-family="Helvetica,sans-Serif" font-size="10.00">+ ClassDefOverride()</text>
</a>
</g>
</g>
<!-- Node1&#45;&gt;Node8 -->
<g id="edge7" class="edge"><title>Node1&#45;&gt;Node8</title>
<path fill="none" stroke="midnightblue" d="M1556.51,-252.342C1458.66,-240.734 1284.74,-212.05 1151,-146 1147.37,-144.208 1143.76,-142.241 1140.19,-140.14"/>
<polygon fill="none" stroke="midnightblue" points="1556.27,-255.838 1566.61,-253.512 1557.07,-248.885 1556.27,-255.838"/>
</g>
<!-- Node9 -->
<g id="node9" class="node"><title>Node9</title>
<g id="a_node9"><a xlink:href="classo2_1_1quality__control__modules_1_1mft_1_1BasicClusterQcCheck.html" target="_top" xlink:title="MFT Cluster Check. ">
<polygon fill="none" stroke="black" points="1160.5,-0.5 1160.5,-145.5 1301.5,-145.5 1301.5,-0.5 1160.5,-0.5"/>
<text text-anchor="start" x="1168.5" y="-133.5" font-family="Helvetica,sans-Serif" font-size="10.00">o2::quality_control</text>
<text text-anchor="start" x="1168.5" y="-122.5" font-family="Helvetica,sans-Serif" font-size="10.00">_modules::mft::BasicCluster</text>
<text text-anchor="middle" x="1231" y="-111.5" font-family="Helvetica,sans-Serif" font-size="10.00">QcCheck</text>
<polyline fill="none" stroke="black" points="1160.5,-104.5 1301.5,-104.5 "/>
<text text-anchor="middle" x="1231" y="-92.5" font-family="Helvetica,sans-Serif" font-size="10.00"> </text>
<polyline fill="none" stroke="black" points="1160.5,-85.5 1301.5,-85.5 "/>
<text text-anchor="start" x="1168.5" y="-73.5" font-family="Helvetica,sans-Serif" font-size="10.00">+ BasicClusterQcCheck()</text>
<text text-anchor="start" x="1168.5" y="-62.5" font-family="Helvetica,sans-Serif" font-size="10.00">+ ~BasicClusterQcCheck()</text>
<text text-anchor="start" x="1168.5" y="-51.5" font-family="Helvetica,sans-Serif" font-size="10.00">+ configure()</text>
<text text-anchor="start" x="1168.5" y="-40.5" font-family="Helvetica,sans-Serif" font-size="10.00">+ check()</text>
<text text-anchor="start" x="1168.5" y="-29.5" font-family="Helvetica,sans-Serif" font-size="10.00">+ beautify()</text>
<text text-anchor="start" x="1168.5" y="-18.5" font-family="Helvetica,sans-Serif" font-size="10.00">+ getAcceptedType()</text>
<text text-anchor="start" x="1168.5" y="-7.5" font-family="Helvetica,sans-Serif" font-size="10.00">+ ClassDefOverride()</text>
</a>
</g>
</g>
<!-- Node1&#45;&gt;Node9 -->
<g id="edge8" class="edge"><title>Node1&#45;&gt;Node9</title>
<path fill="none" stroke="midnightblue" d="M1557.23,-242.256C1489.48,-224.574 1388.55,-192.975 1310,-146 1307.29,-144.381 1304.6,-142.659 1301.92,-140.856"/>
<polygon fill="none" stroke="midnightblue" points="1556.42,-245.662 1566.97,-244.764 1558.16,-238.883 1556.42,-245.662"/>
</g>
<!-- Node10 -->
<g id="node10" class="node"><title>Node10</title>
<g id="a_node10"><a xlink:href="classo2_1_1quality__control__modules_1_1mft_1_1BasicDigitQcCheck.html" target="_top" xlink:title="MFT Digit Check. ">
<polygon fill="none" stroke="black" points="1319.5,-0.5 1319.5,-145.5 1462.5,-145.5 1462.5,-0.5 1319.5,-0.5"/>
<text text-anchor="start" x="1327.5" y="-133.5" font-family="Helvetica,sans-Serif" font-size="10.00">o2::quality_control</text>
<text text-anchor="start" x="1327.5" y="-122.5" font-family="Helvetica,sans-Serif" font-size="10.00">_modules::mft::BasicDigitQc</text>
<text text-anchor="middle" x="1391" y="-111.5" font-family="Helvetica,sans-Serif" font-size="10.00">Check</text>
<polyline fill="none" stroke="black" points="1319.5,-104.5 1462.5,-104.5 "/>
<text text-anchor="middle" x="1391" y="-92.5" font-family="Helvetica,sans-Serif" font-size="10.00"> </text>
<polyline fill="none" stroke="black" points="1319.5,-85.5 1462.5,-85.5 "/>
<text text-anchor="start" x="1327.5" y="-73.5" font-family="Helvetica,sans-Serif" font-size="10.00">+ BasicDigitQcCheck()</text>
<text text-anchor="start" x="1327.5" y="-62.5" font-family="Helvetica,sans-Serif" font-size="10.00">+ ~BasicDigitQcCheck()</text>
<text text-anchor="start" x="1327.5" y="-51.5" font-family="Helvetica,sans-Serif" font-size="10.00">+ configure()</text>
<text text-anchor="start" x="1327.5" y="-40.5" font-family="Helvetica,sans-Serif" font-size="10.00">+ check()</text>
<text text-anchor="start" x="1327.5" y="-29.5" font-family="Helvetica,sans-Serif" font-size="10.00">+ beautify()</text>
<text text-anchor="start" x="1327.5" y="-18.5" font-family="Helvetica,sans-Serif" font-size="10.00">+ getAcceptedType()</text>
<text text-anchor="start" x="1327.5" y="-7.5" font-family="Helvetica,sans-Serif" font-size="10.00">+ ClassDefOverride()</text>
</a>
</g>
</g>
<!-- Node1&#45;&gt;Node10 -->
<g id="edge9" class="edge"><title>Node1&#45;&gt;Node10</title>
<path fill="none" stroke="midnightblue" d="M1558.34,-210.305C1530.44,-190.97 1498.74,-168.132 1471,-146 1468.22,-143.786 1465.42,-141.504 1462.61,-139.176"/>
<polygon fill="none" stroke="midnightblue" points="1556.65,-213.39 1566.87,-216.189 1560.62,-207.629 1556.65,-213.39"/>
</g>
<!-- Node11 -->
<g id="node11" class="node"><title>Node11</title>
<g id="a_node11"><a xlink:href="classo2_1_1quality__control__modules_1_1mft_1_1BasicTrackQcCheck.html" target="_top" xlink:title="MFT Track Check. ">
<polygon fill="none" stroke="black" points="1480.5,-0.5 1480.5,-145.5 1627.5,-145.5 1627.5,-0.5 1480.5,-0.5"/>
<text text-anchor="start" x="1488.5" y="-133.5" font-family="Helvetica,sans-Serif" font-size="10.00">o2::quality_control</text>
<text text-anchor="start" x="1488.5" y="-122.5" font-family="Helvetica,sans-Serif" font-size="10.00">_modules::mft::BasicTrackQc</text>
<text text-anchor="middle" x="1554" y="-111.5" font-family="Helvetica,sans-Serif" font-size="10.00">Check</text>
<polyline fill="none" stroke="black" points="1480.5,-104.5 1627.5,-104.5 "/>
<text text-anchor="middle" x="1554" y="-92.5" font-family="Helvetica,sans-Serif" font-size="10.00"> </text>
<polyline fill="none" stroke="black" points="1480.5,-85.5 1627.5,-85.5 "/>
<text text-anchor="start" x="1488.5" y="-73.5" font-family="Helvetica,sans-Serif" font-size="10.00">+ BasicTrackQcCheck()</text>
<text text-anchor="start" x="1488.5" y="-62.5" font-family="Helvetica,sans-Serif" font-size="10.00">+ ~BasicTrackQcCheck()</text>
<text text-anchor="start" x="1488.5" y="-51.5" font-family="Helvetica,sans-Serif" font-size="10.00">+ configure()</text>
<text text-anchor="start" x="1488.5" y="-40.5" font-family="Helvetica,sans-Serif" font-size="10.00">+ check()</text>
<text text-anchor="start" x="1488.5" y="-29.5" font-family="Helvetica,sans-Serif" font-size="10.00">+ beautify()</text>
<text text-anchor="start" x="1488.5" y="-18.5" font-family="Helvetica,sans-Serif" font-size="10.00">+ getAcceptedType()</text>
<text text-anchor="start" x="1488.5" y="-7.5" font-family="Helvetica,sans-Serif" font-size="10.00">+ ClassDefOverride()</text>
</a>
</g>
</g>
<!-- Node1&#45;&gt;Node11 -->
<g id="edge10" class="edge"><title>Node1&#45;&gt;Node11</title>
<path fill="none" stroke="midnightblue" d="M1595.62,-172.991C1591.79,-163.879 1587.93,-154.686 1584.18,-145.767"/>
<polygon fill="none" stroke="midnightblue" points="1592.5,-174.581 1599.6,-182.443 1598.95,-171.868 1592.5,-174.581"/>
</g>
<!-- Node12 -->
<g id="node12" class="node"><title>Node12</title>
<g id="a_node12"><a xlink:href="classo2_1_1quality__control__modules_1_1muonchambers_1_1PedestalsCheck.html" target="_top" xlink:title="Check whether a plot is empty or not. ">
<polygon fill="none" stroke="black" points="1645.5,-0.5 1645.5,-145.5 1776.5,-145.5 1776.5,-0.5 1645.5,-0.5"/>
<text text-anchor="start" x="1653.5" y="-133.5" font-family="Helvetica,sans-Serif" font-size="10.00">o2::quality_control</text>
<text text-anchor="start" x="1653.5" y="-122.5" font-family="Helvetica,sans-Serif" font-size="10.00">_modules::muonchambers</text>
<text text-anchor="middle" x="1711" y="-111.5" font-family="Helvetica,sans-Serif" font-size="10.00">::PedestalsCheck</text>
<polyline fill="none" stroke="black" points="1645.5,-104.5 1776.5,-104.5 "/>
<text text-anchor="start" x="1653.5" y="-92.5" font-family="Helvetica,sans-Serif" font-size="10.00">+ minMCHpedestal</text>
<text text-anchor="start" x="1653.5" y="-81.5" font-family="Helvetica,sans-Serif" font-size="10.00">+ maxMCHpedestal</text>
<polyline fill="none" stroke="black" points="1645.5,-74.5 1776.5,-74.5 "/>
<text text-anchor="start" x="1653.5" y="-62.5" font-family="Helvetica,sans-Serif" font-size="10.00">+ PedestalsCheck()</text>
<text text-anchor="start" x="1653.5" y="-51.5" font-family="Helvetica,sans-Serif" font-size="10.00">+ ~PedestalsCheck()</text>
<text text-anchor="start" x="1653.5" y="-40.5" font-family="Helvetica,sans-Serif" font-size="10.00">+ configure()</text>
<text text-anchor="start" x="1653.5" y="-29.5" font-family="Helvetica,sans-Serif" font-size="10.00">+ check()</text>
<text text-anchor="start" x="1653.5" y="-18.5" font-family="Helvetica,sans-Serif" font-size="10.00">+ beautify()</text>
<text text-anchor="start" x="1653.5" y="-7.5" font-family="Helvetica,sans-Serif" font-size="10.00">+ getAcceptedType()</text>
</a>
</g>
</g>
<!-- Node1&#45;&gt;Node12 -->
<g id="edge11" class="edge"><title>Node1&#45;&gt;Node12</title>
<path fill="none" stroke="midnightblue" d="M1668.84,-172.991C1672.72,-163.879 1676.64,-154.686 1680.44,-145.767"/>
<polygon fill="none" stroke="midnightblue" points="1665.51,-171.871 1664.82,-182.443 1671.96,-174.614 1665.51,-171.871"/>
</g>
<!-- Node13 -->
<g id="node13" class="node"><title>Node13</title>
<g id="a_node13"><a xlink:href="classo2_1_1quality__control__modules_1_1skeleton_1_1SkeletonCheck.html" target="_top" xlink:title="Example QC Check. ">
<polygon fill="none" stroke="black" points="1795,-0.5 1795,-145.5 1905,-145.5 1905,-0.5 1795,-0.5"/>
<text text-anchor="start" x="1803" y="-133.5" font-family="Helvetica,sans-Serif" font-size="10.00">o2::quality_control</text>
<text text-anchor="start" x="1803" y="-122.5" font-family="Helvetica,sans-Serif" font-size="10.00">_modules::skeleton::</text>
<text text-anchor="middle" x="1850" y="-111.5" font-family="Helvetica,sans-Serif" font-size="10.00">SkeletonCheck</text>
<polyline fill="none" stroke="black" points="1795,-104.5 1905,-104.5 "/>
<text text-anchor="middle" x="1850" y="-92.5" font-family="Helvetica,sans-Serif" font-size="10.00"> </text>
<polyline fill="none" stroke="black" points="1795,-85.5 1905,-85.5 "/>
<text text-anchor="start" x="1803" y="-73.5" font-family="Helvetica,sans-Serif" font-size="10.00">+ SkeletonCheck()</text>
<text text-anchor="start" x="1803" y="-62.5" font-family="Helvetica,sans-Serif" font-size="10.00">+ ~SkeletonCheck()</text>
<text text-anchor="start" x="1803" y="-51.5" font-family="Helvetica,sans-Serif" font-size="10.00">+ configure()</text>
<text text-anchor="start" x="1803" y="-40.5" font-family="Helvetica,sans-Serif" font-size="10.00">+ check()</text>
<text text-anchor="start" x="1803" y="-29.5" font-family="Helvetica,sans-Serif" font-size="10.00">+ beautify()</text>
<text text-anchor="start" x="1803" y="-18.5" font-family="Helvetica,sans-Serif" font-size="10.00">+ getAcceptedType()</text>
<text text-anchor="start" x="1803" y="-7.5" font-family="Helvetica,sans-Serif" font-size="10.00">+ ClassDefOverride()</text>
</a>
</g>
</g>
<!-- Node1&#45;&gt;Node13 -->
<g id="edge12" class="edge"><title>Node1&#45;&gt;Node13</title>
<path fill="none" stroke="midnightblue" d="M1705.7,-209.962C1731.99,-191.074 1761.2,-168.624 1786,-146 1788.97,-143.295 1791.94,-140.464 1794.89,-137.554"/>
<polygon fill="none" stroke="midnightblue" points="1703.39,-207.31 1697.28,-215.964 1707.45,-213.01 1703.39,-207.31"/>
</g>
<!-- Node14 -->
<g id="node14" class="node"><title>Node14</title>
<g id="a_node14"><a xlink:href="classo2_1_1quality__control__modules_1_1tof_1_1TOFCheckCompressedCounter.html" target="_top" xlink:title="Checker for diagnostic histogram of TOF Raw data. ">
<polygon fill="none" stroke="black" points="1923.5,-0.5 1923.5,-145.5 2108.5,-145.5 2108.5,-0.5 1923.5,-0.5"/>
<text text-anchor="start" x="1931.5" y="-133.5" font-family="Helvetica,sans-Serif" font-size="10.00">o2::quality_control</text>
<text text-anchor="start" x="1931.5" y="-122.5" font-family="Helvetica,sans-Serif" font-size="10.00">_modules::tof::TOFCheckCompressed</text>
<text text-anchor="middle" x="2016" y="-111.5" font-family="Helvetica,sans-Serif" font-size="10.00">Counter</text>
<polyline fill="none" stroke="black" points="1923.5,-104.5 2108.5,-104.5 "/>
<text text-anchor="middle" x="2016" y="-92.5" font-family="Helvetica,sans-Serif" font-size="10.00"> </text>
<polyline fill="none" stroke="black" points="1923.5,-85.5 2108.5,-85.5 "/>
<text text-anchor="start" x="1931.5" y="-73.5" font-family="Helvetica,sans-Serif" font-size="10.00">+ TOFCheckCompressedCounter()</text>
<text text-anchor="start" x="1931.5" y="-62.5" font-family="Helvetica,sans-Serif" font-size="10.00">+ ~TOFCheckCompressedCounter()</text>
<text text-anchor="start" x="1931.5" y="-51.5" font-family="Helvetica,sans-Serif" font-size="10.00">+ configure()</text>
<text text-anchor="start" x="1931.5" y="-40.5" font-family="Helvetica,sans-Serif" font-size="10.00">+ check()</text>
<text text-anchor="start" x="1931.5" y="-29.5" font-family="Helvetica,sans-Serif" font-size="10.00">+ beautify()</text>
<text text-anchor="start" x="1931.5" y="-18.5" font-family="Helvetica,sans-Serif" font-size="10.00">+ getAcceptedType()</text>
<text text-anchor="start" x="1931.5" y="-7.5" font-family="Helvetica,sans-Serif" font-size="10.00">+ ClassDefOverride()</text>
</a>
</g>
</g>
<!-- Node1&#45;&gt;Node14 -->
<g id="edge13" class="edge"><title>Node1&#45;&gt;Node14</title>
<path fill="none" stroke="midnightblue" d="M1706.68,-234.802C1764.79,-214.325 1846.61,-182.699 1914,-146 1917.14,-144.29 1920.3,-142.501 1923.46,-140.65"/>
<polygon fill="none" stroke="midnightblue" points="1705.49,-231.511 1697.21,-238.117 1707.8,-238.119 1705.49,-231.511"/>
</g>
<!-- Node15 -->
<g id="node15" class="node"><title>Node15</title>
<g id="a_node15"><a xlink:href="classo2_1_1quality__control__modules_1_1tof_1_1TOFCheckDiagnostic.html" target="_top" xlink:title="Checker for diagnostic histogram of TOF Raw data. ">
<polygon fill="none" stroke="black" points="2126,-6 2126,-140 2302,-140 2302,-6 2126,-6"/>
<text text-anchor="start" x="2134" y="-128" font-family="Helvetica,sans-Serif" font-size="10.00">o2::quality_control</text>
<text text-anchor="middle" x="2214" y="-117" font-family="Helvetica,sans-Serif" font-size="10.00">_modules::tof::TOFCheckDiagnostic</text>
<polyline fill="none" stroke="black" points="2126,-110 2302,-110 "/>
<text text-anchor="middle" x="2214" y="-98" font-family="Helvetica,sans-Serif" font-size="10.00"> </text>
<polyline fill="none" stroke="black" points="2126,-91 2302,-91 "/>
<text text-anchor="start" x="2134" y="-79" font-family="Helvetica,sans-Serif" font-size="10.00">+ TOFCheckDiagnostic()</text>
<text text-anchor="start" x="2134" y="-68" font-family="Helvetica,sans-Serif" font-size="10.00">+ ~TOFCheckDiagnostic()</text>
<text text-anchor="start" x="2134" y="-57" font-family="Helvetica,sans-Serif" font-size="10.00">+ configure()</text>
<text text-anchor="start" x="2134" y="-46" font-family="Helvetica,sans-Serif" font-size="10.00">+ check()</text>
<text text-anchor="start" x="2134" y="-35" font-family="Helvetica,sans-Serif" font-size="10.00">+ beautify()</text>
<text text-anchor="start" x="2134" y="-24" font-family="Helvetica,sans-Serif" font-size="10.00">+ getAcceptedType()</text>
<text text-anchor="start" x="2134" y="-13" font-family="Helvetica,sans-Serif" font-size="10.00">+ ClassDefOverride()</text>
</a>
</g>
</g>
<!-- Node1&#45;&gt;Node15 -->
<g id="edge14" class="edge"><title>Node1&#45;&gt;Node15</title>
<path fill="none" stroke="midnightblue" d="M1707.44,-251.661C1805.77,-239.293 1981.3,-209.766 2118,-146 2121.87,-144.195 2125.74,-142.217 2129.57,-140.105"/>
<polygon fill="none" stroke="midnightblue" points="1706.79,-248.214 1697.3,-252.91 1707.65,-255.162 1706.79,-248.214"/>
</g>
<!-- Node16 -->
<g id="node16" class="node"><title>Node16</title>
<g id="a_node16"><a xlink:href="classo2_1_1quality__control__modules_1_1tof_1_1TOFCheckRawsMulti.html" target="_top" xlink:title="Check whether a plot is empty or not. ">
<polygon fill="none" stroke="black" points="2320.5,-0.5 2320.5,-145.5 2475.5,-145.5 2475.5,-0.5 2320.5,-0.5"/>
<text text-anchor="start" x="2328.5" y="-133.5" font-family="Helvetica,sans-Serif" font-size="10.00">o2::quality_control</text>
<text text-anchor="start" x="2328.5" y="-122.5" font-family="Helvetica,sans-Serif" font-size="10.00">_modules::tof::TOFCheckRaws</text>
<text text-anchor="middle" x="2398" y="-111.5" font-family="Helvetica,sans-Serif" font-size="10.00">Multi</text>
<polyline fill="none" stroke="black" points="2320.5,-104.5 2475.5,-104.5 "/>
<text text-anchor="start" x="2328.5" y="-92.5" font-family="Helvetica,sans-Serif" font-size="10.00">+ minTOFrawhits</text>
<text text-anchor="start" x="2328.5" y="-81.5" font-family="Helvetica,sans-Serif" font-size="10.00">+ maxTOFrawhits</text>
<polyline fill="none" stroke="black" points="2320.5,-74.5 2475.5,-74.5 "/>
<text text-anchor="start" x="2328.5" y="-62.5" font-family="Helvetica,sans-Serif" font-size="10.00">+ TOFCheckRawsMulti()</text>
<text text-anchor="start" x="2328.5" y="-51.5" font-family="Helvetica,sans-Serif" font-size="10.00">+ ~TOFCheckRawsMulti()</text>
<text text-anchor="start" x="2328.5" y="-40.5" font-family="Helvetica,sans-Serif" font-size="10.00">+ configure()</text>
<text text-anchor="start" x="2328.5" y="-29.5" font-family="Helvetica,sans-Serif" font-size="10.00">+ check()</text>
<text text-anchor="start" x="2328.5" y="-18.5" font-family="Helvetica,sans-Serif" font-size="10.00">+ beautify()</text>
<text text-anchor="start" x="2328.5" y="-7.5" font-family="Helvetica,sans-Serif" font-size="10.00">+ getAcceptedType()</text>
</a>
</g>
</g>
<!-- Node1&#45;&gt;Node16 -->
<g id="edge15" class="edge"><title>Node1&#45;&gt;Node16</title>
<path fill="none" stroke="midnightblue" d="M1707.19,-259.487C1836.49,-256.791 2106.72,-239.314 2311,-146 2314.12,-144.574 2317.22,-143.007 2320.29,-141.325"/>
<polygon fill="none" stroke="midnightblue" points="1706.94,-255.991 1697,-259.675 1707.07,-262.99 1706.94,-255.991"/>
</g>
<!-- Node17 -->
<g id="node17" class="node"><title>Node17</title>
<g id="a_node17"><a xlink:href="classo2_1_1quality__control__modules_1_1tof_1_1TOFCheckRawsTime.html" target="_top" xlink:title="Check whether a plot is empty or not. ">
<polygon fill="none" stroke="black" points="2493.5,-6 2493.5,-140 2670.5,-140 2670.5,-6 2493.5,-6"/>
<text text-anchor="start" x="2501.5" y="-128" font-family="Helvetica,sans-Serif" font-size="10.00">o2::quality_control</text>
<text text-anchor="middle" x="2582" y="-117" font-family="Helvetica,sans-Serif" font-size="10.00">_modules::tof::TOFCheckRawsTime</text>
<polyline fill="none" stroke="black" points="2493.5,-110 2670.5,-110 "/>
<text text-anchor="start" x="2501.5" y="-98" font-family="Helvetica,sans-Serif" font-size="10.00">+ minTOFrawTime</text>
<text text-anchor="start" x="2501.5" y="-87" font-family="Helvetica,sans-Serif" font-size="10.00">+ maxTOFrawTime</text>
<polyline fill="none" stroke="black" points="2493.5,-80 2670.5,-80 "/>
<text text-anchor="start" x="2501.5" y="-68" font-family="Helvetica,sans-Serif" font-size="10.00">+ TOFCheckRawsTime()</text>
<text text-anchor="start" x="2501.5" y="-57" font-family="Helvetica,sans-Serif" font-size="10.00">+ ~TOFCheckRawsTime()</text>
<text text-anchor="start" x="2501.5" y="-46" font-family="Helvetica,sans-Serif" font-size="10.00">+ configure()</text>
<text text-anchor="start" x="2501.5" y="-35" font-family="Helvetica,sans-Serif" font-size="10.00">+ check()</text>
<text text-anchor="start" x="2501.5" y="-24" font-family="Helvetica,sans-Serif" font-size="10.00">+ beautify()</text>
<text text-anchor="start" x="2501.5" y="-13" font-family="Helvetica,sans-Serif" font-size="10.00">+ getAcceptedType()</text>
</a>
</g>
</g>
<!-- Node1&#45;&gt;Node17 -->
<g id="edge16" class="edge"><title>Node1&#45;&gt;Node17</title>
<path fill="none" stroke="midnightblue" d="M1707.34,-254.333C1888.55,-241.132 2344.19,-203.125 2485,-146 2489.37,-144.226 2493.73,-142.208 2498.03,-140.002"/>
<polygon fill="none" stroke="midnightblue" points="1706.82,-250.861 1697.1,-255.074 1707.32,-257.843 1706.82,-250.861"/>
</g>
<!-- Node18 -->
<g id="node18" class="node"><title>Node18</title>
<g id="a_node18"><a xlink:href="classo2_1_1quality__control__modules_1_1tof_1_1TOFCheckRawsToT.html" target="_top" xlink:title="Check whether a plot is empty or not. ">
<polygon fill="none" stroke="black" points="2688.5,-0.5 2688.5,-145.5 2861.5,-145.5 2861.5,-0.5 2688.5,-0.5"/>
<text text-anchor="start" x="2696.5" y="-133.5" font-family="Helvetica,sans-Serif" font-size="10.00">o2::quality_control</text>
<text text-anchor="middle" x="2775" y="-122.5" font-family="Helvetica,sans-Serif" font-size="10.00">_modules::tof::TOFCheckRawsToT</text>
<polyline fill="none" stroke="black" points="2688.5,-115.5 2861.5,-115.5 "/>
<text text-anchor="start" x="2696.5" y="-103.5" font-family="Helvetica,sans-Serif" font-size="10.00">+ minTOFrawTot</text>
<text text-anchor="start" x="2696.5" y="-92.5" font-family="Helvetica,sans-Serif" font-size="10.00">+ maxTOFrawTot</text>
<polyline fill="none" stroke="black" points="2688.5,-85.5 2861.5,-85.5 "/>
<text text-anchor="start" x="2696.5" y="-73.5" font-family="Helvetica,sans-Serif" font-size="10.00">+ TOFCheckRawsToT()</text>
<text text-anchor="start" x="2696.5" y="-62.5" font-family="Helvetica,sans-Serif" font-size="10.00">+ ~TOFCheckRawsToT()</text>
<text text-anchor="start" x="2696.5" y="-51.5" font-family="Helvetica,sans-Serif" font-size="10.00">+ configure()</text>
<text text-anchor="start" x="2696.5" y="-40.5" font-family="Helvetica,sans-Serif" font-size="10.00">+ check()</text>
<text text-anchor="start" x="2696.5" y="-29.5" font-family="Helvetica,sans-Serif" font-size="10.00">+ beautify()</text>
<text text-anchor="start" x="2696.5" y="-18.5" font-family="Helvetica,sans-Serif" font-size="10.00">+ getAcceptedType()</text>
<text text-anchor="start" x="2696.5" y="-7.5" font-family="Helvetica,sans-Serif" font-size="10.00">+ ClassDefOverride()</text>
</a>
</g>
</g>
<!-- Node1&#45;&gt;Node18 -->
<g id="edge17" class="edge"><title>Node1&#45;&gt;Node18</title>
<path fill="none" stroke="midnightblue" d="M1707.48,-256.549C1917.07,-247.535 2502.4,-216.567 2680,-146 2682.79,-144.892 2685.57,-143.678 2688.32,-142.375"/>
<polygon fill="none" stroke="midnightblue" points="1707.04,-253.065 1697.19,-256.987 1707.33,-260.058 1707.04,-253.065"/>
</g>
<!-- Node19 -->
<g id="node19" class="node"><title>Node19</title>
<g id="a_node19"><a xlink:href="classo2_1_1quality__control__modules_1_1tpc_1_1PIDClusterCheck.html" target="_top" xlink:title="Check whether the cluster number for a track is smaller than 159 in PID task. ">
<polygon fill="none" stroke="black" points="2879.5,-11.5 2879.5,-134.5 3040.5,-134.5 3040.5,-11.5 2879.5,-11.5"/>
<text text-anchor="start" x="2887.5" y="-122.5" font-family="Helvetica,sans-Serif" font-size="10.00">o2::quality_control</text>
<text text-anchor="middle" x="2960" y="-111.5" font-family="Helvetica,sans-Serif" font-size="10.00">_modules::tpc::PIDClusterCheck</text>
<polyline fill="none" stroke="black" points="2879.5,-104.5 3040.5,-104.5 "/>
<text text-anchor="middle" x="2960" y="-92.5" font-family="Helvetica,sans-Serif" font-size="10.00"> </text>
<polyline fill="none" stroke="black" points="2879.5,-85.5 3040.5,-85.5 "/>
<text text-anchor="start" x="2887.5" y="-73.5" font-family="Helvetica,sans-Serif" font-size="10.00">+ PIDClusterCheck()</text>
<text text-anchor="start" x="2887.5" y="-62.5" font-family="Helvetica,sans-Serif" font-size="10.00">+ ~PIDClusterCheck()</text>
<text text-anchor="start" x="2887.5" y="-51.5" font-family="Helvetica,sans-Serif" font-size="10.00">+ configure()</text>
<text text-anchor="start" x="2887.5" y="-40.5" font-family="Helvetica,sans-Serif" font-size="10.00">+ check()</text>
<text text-anchor="start" x="2887.5" y="-29.5" font-family="Helvetica,sans-Serif" font-size="10.00">+ beautify()</text>
<text text-anchor="start" x="2887.5" y="-18.5" font-family="Helvetica,sans-Serif" font-size="10.00">+ getAcceptedType()</text>
</a>
</g>
</g>
<!-- Node1&#45;&gt;Node19 -->
<g id="edge18" class="edge"><title>Node1&#45;&gt;Node19</title>
<path fill="none" stroke="midnightblue" d="M1707.22,-258.293C1941.94,-253.644 2657.9,-232.544 2871,-146 2878.55,-142.934 2885.96,-139.003 2893.09,-134.563"/>
<polygon fill="none" stroke="midnightblue" points="1707.01,-254.796 1697.08,-258.489 1707.14,-261.795 1707.01,-254.796"/>
</g>
<!-- Node20 -->
<g id="node20" class="node"><title>Node20</title>
<g id="a_node20"><a xlink:href="classo2_1_1quality__control__modules_1_1tpc_1_1TrackClusterCheck.html" target="_top" xlink:title="Check whether the cluster number for a track is smaller than 40 or 20 in Track task. ">
<polygon fill="none" stroke="black" points="3059,-6 3059,-140 3199,-140 3199,-6 3059,-6"/>
<text text-anchor="start" x="3067" y="-128" font-family="Helvetica,sans-Serif" font-size="10.00">o2::quality_control</text>
<text text-anchor="start" x="3067" y="-117" font-family="Helvetica,sans-Serif" font-size="10.00">_modules::tpc::TrackCluster</text>
<text text-anchor="middle" x="3129" y="-106" font-family="Helvetica,sans-Serif" font-size="10.00">Check</text>
<polyline fill="none" stroke="black" points="3059,-99 3199,-99 "/>
<text text-anchor="middle" x="3129" y="-87" font-family="Helvetica,sans-Serif" font-size="10.00"> </text>
<polyline fill="none" stroke="black" points="3059,-80 3199,-80 "/>
<text text-anchor="start" x="3067" y="-68" font-family="Helvetica,sans-Serif" font-size="10.00">+ TrackClusterCheck()</text>
<text text-anchor="start" x="3067" y="-57" font-family="Helvetica,sans-Serif" font-size="10.00">+ ~TrackClusterCheck()</text>
<text text-anchor="start" x="3067" y="-46" font-family="Helvetica,sans-Serif" font-size="10.00">+ configure()</text>
<text text-anchor="start" x="3067" y="-35" font-family="Helvetica,sans-Serif" font-size="10.00">+ check()</text>
<text text-anchor="start" x="3067" y="-24" font-family="Helvetica,sans-Serif" font-size="10.00">+ beautify()</text>
<text text-anchor="start" x="3067" y="-13" font-family="Helvetica,sans-Serif" font-size="10.00">+ getAcceptedType()</text>
</a>
</g>
</g>
<!-- Node1&#45;&gt;Node20 -->
<g id="edge19" class="edge"><title>Node1&#45;&gt;Node20</title>
<path fill="none" stroke="midnightblue" d="M1707.54,-259.831C1964.96,-259.978 2805.46,-252.133 3050,-146 3053.92,-144.301 3057.76,-142.326 3061.53,-140.138"/>
<polygon fill="none" stroke="midnightblue" points="1707.18,-256.331 1697.17,-259.82 1707.17,-263.331 1707.18,-256.331"/>
</g>
<!-- Node21 -->
<g id="node21" class="node"><title>Node21</title>
<g id="a_node21"><a xlink:href="classTestCheck.html" target="_top" xlink:title="{TestCheck\n|+ mCheck\l+ mBeautify\l|+ TestCheck()\l+ configure()\l+ check()\l+ beautify()\l+ getAcceptedType()\l}">
<polygon fill="none" stroke="black" points="3217,-17 3217,-129 3325,-129 3325,-17 3217,-17"/>
<text text-anchor="middle" x="3271" y="-117" font-family="Helvetica,sans-Serif" font-size="10.00">TestCheck</text>
<polyline fill="none" stroke="black" points="3217,-110 3325,-110 "/>
<text text-anchor="start" x="3225" y="-98" font-family="Helvetica,sans-Serif" font-size="10.00">+ mCheck</text>
<text text-anchor="start" x="3225" y="-87" font-family="Helvetica,sans-Serif" font-size="10.00">+ mBeautify</text>
<polyline fill="none" stroke="black" points="3217,-80 3325,-80 "/>
<text text-anchor="start" x="3225" y="-68" font-family="Helvetica,sans-Serif" font-size="10.00">+ TestCheck()</text>
<text text-anchor="start" x="3225" y="-57" font-family="Helvetica,sans-Serif" font-size="10.00">+ configure()</text>
<text text-anchor="start" x="3225" y="-46" font-family="Helvetica,sans-Serif" font-size="10.00">+ check()</text>
<text text-anchor="start" x="3225" y="-35" font-family="Helvetica,sans-Serif" font-size="10.00">+ beautify()</text>
<text text-anchor="start" x="3225" y="-24" font-family="Helvetica,sans-Serif" font-size="10.00">+ getAcceptedType()</text>
</a>
</g>
</g>
<!-- Node1&#45;&gt;Node21 -->
<g id="edge20" class="edge"><title>Node1&#45;&gt;Node21</title>
<path fill="none" stroke="midnightblue" d="M1707.66,-257.418C2003.54,-248.819 3072.78,-213.322 3208,-146 3216.48,-141.781 3224.3,-135.871 3231.34,-129.232"/>
<polygon fill="none" stroke="midnightblue" points="1707.35,-253.925 1697.46,-257.712 1707.56,-260.922 1707.35,-253.925"/>
</g>
</g>
</svg>
        <g id="navigator" transform="translate(0 0)" fill="#404254">
                <rect fill="#f2f5e9" fill-opacity="0.5" stroke="#606060" stroke-width=".5" x="0" y="0" width="60" height="60"/>
                <use id="zoomplus" xlink:href="#zoomPlus" x="17" y="9" onmousedown="handleZoom(evt,'in')"/>
                <use id="zoomminus" xlink:href="#zoomMin" x="42" y="9" onmousedown="handleZoom(evt,'out')"/>
                <use id="reset" xlink:href="#resetDef" x="30" y="36" onmousedown="handleReset()"/>
                <g id="arrowUp" xlink:href="#dirArrow" transform="translate(30 24)" onmousedown="handlePan(0,-1)">
                  <use xlink:href="#rim" fill="#404040">
                        <set attributeName="fill" to="#808080" begin="arrowUp.mouseover" end="arrowUp.mouseout"/>
                  </use>
                  <path fill="none" stroke="white" stroke-width="1.5" d="M0,-3.0v7 M-2.5,-0.5L0,-3.0L2.5,-0.5"/>
                </g>
                <g id="arrowRight" xlink:href="#dirArrow" transform="rotate(90) translate(36 -43)" onmousedown="handlePan(1,0)">
                  <use xlink:href="#rim" fill="#404040">
                        <set attributeName="fill" to="#808080" begin="arrowRight.mouseover" end="arrowRight.mouseout"/>
                  </use>
                  <path fill="none" stroke="white" stroke-width="1.5" d="M0,-3.0v7 M-2.5,-0.5L0,-3.0L2.5,-0.5"/>
                </g>
                <g id="arrowDown" xlink:href="#dirArrow" transform="rotate(180) translate(-30 -48)" onmousedown="handlePan(0,1)">
                  <use xlink:href="#rim" fill="#404040">
                        <set attributeName="fill" to="#808080" begin="arrowDown.mouseover" end="arrowDown.mouseout"/>
                  </use>
                  <path fill="none" stroke="white" stroke-width="1.5" d="M0,-3.0v7 M-2.5,-0.5L0,-3.0L2.5,-0.5"/>
                </g>
                <g id="arrowLeft" xlink:href="#dirArrow" transform="rotate(270) translate(-36 17)" onmousedown="handlePan(-1,0)">
                  <use xlink:href="#rim" fill="#404040">
                        <set attributeName="fill" to="#808080" begin="arrowLeft.mouseover" end="arrowLeft.mouseout"/>
                  </use>
                  <path fill="none" stroke="white" stroke-width="1.5" d="M0,-3.0v7 M-2.5,-0.5L0,-3.0L2.5,-0.5"/>
                </g>
        </g>
        <svg viewBox="0 0 15 15" width="100%" height="30px" preserveAspectRatio="xMaxYMin meet">
         <g id="arrow_out" transform="scale(0.3 0.3)">
          <a xlink:href="classo2_1_1quality__control_1_1checker_1_1CheckInterface__inherit__graph_org.svg" target="_base">
           <rect id="button" ry="5" rx="5" y="6" x="6" height="38" width="38"
                fill="#f2f5e9" fill-opacity="0.5" stroke="#606060" stroke-width="1.0"/>
           <path id="arrow"
             d="M 11.500037,31.436501 C 11.940474,20.09759 22.043105,11.32322 32.158766,21.979434 L 37.068811,17.246167 C 37.068811,17.246167 37.088388,32 37.088388,32 L 22.160133,31.978069 C 22.160133,31.978069 26.997745,27.140456 26.997745,27.140456 C 18.528582,18.264221 13.291696,25.230495 11.500037,31.436501 z"
             style="fill:#404040;"/>
          </a>
         </g>
        </svg>
</svg>
