<?xml version="1.0" encoding="UTF-8" standalone="no"?>
<!DOCTYPE svg PUBLIC "-//W3C//DTD SVG 1.1//EN"
 "http://www.w3.org/Graphics/SVG/1.1/DTD/svg11.dtd">
<!-- Generated by graphviz version 2.38.0 (20140413.2041)
 -->
<!-- Title: Task Pages: 1 -->
<svg width="976pt" height="314pt"
 viewBox="0.00 0.00 975.50 314.00" xmlns="http://www.w3.org/2000/svg" xmlns:xlink="http://www.w3.org/1999/xlink">
<g id="graph0" class="graph" transform="scale(1 1) rotate(0) translate(4 310)">
<title>Task</title>
<!-- Node1 -->
<g id="node1" class="node"><title>Node1</title>
<polygon fill="#bfbfbf" stroke="black" points="437,-248.5 437,-305.5 475,-305.5 475,-248.5 437,-248.5"/>
<text text-anchor="middle" x="456" y="-293.5" font-family="Helvetica,sans-Serif" font-size="10.00">Task</text>
<polyline fill="none" stroke="black" points="437,-286.5 475,-286.5 "/>
<text text-anchor="middle" x="456" y="-274.5" font-family="Helvetica,sans-Serif" font-size="10.00"> </text>
<polyline fill="none" stroke="black" points="437,-267.5 475,-267.5 "/>
<text text-anchor="middle" x="456" y="-255.5" font-family="Helvetica,sans-Serif" font-size="10.00"> </text>
</g>
<!-- Node2 -->
<g id="node2" class="node"><title>Node2</title>
<g id="a_node2"><a xlink:href="classClustersRootFileReaderMFT.html" target="_top" xlink:title="{ClustersRootFileReaderMFT\n||+ init()\l+ run()\l}">
<polygon fill="none" stroke="black" points="0,-72 0,-140 142,-140 142,-72 0,-72"/>
<text text-anchor="middle" x="71" y="-128" font-family="Helvetica,sans-Serif" font-size="10.00">ClustersRootFileReaderMFT</text>
<polyline fill="none" stroke="black" points="0,-121 142,-121 "/>
<text text-anchor="middle" x="71" y="-109" font-family="Helvetica,sans-Serif" font-size="10.00"> </text>
<polyline fill="none" stroke="black" points="0,-102 142,-102 "/>
<text text-anchor="start" x="8" y="-90" font-family="Helvetica,sans-Serif" font-size="10.00">+ init()</text>
<text text-anchor="start" x="8" y="-79" font-family="Helvetica,sans-Serif" font-size="10.00">+ run()</text>
</a>
</g>
</g>
<!-- Node1&#45;&gt;Node2 -->
<g id="edge1" class="edge"><title>Node1&#45;&gt;Node2</title>
<path fill="none" stroke="midnightblue" d="M426.61,-276.419C369.138,-275.901 239.746,-268.045 151,-212 123.291,-194.501 101.576,-163.789 87.8046,-140.085"/>
<polygon fill="none" stroke="midnightblue" points="426.789,-279.919 436.796,-276.438 426.802,-272.919 426.789,-279.919"/>
</g>
<!-- Node3 -->
<g id="node3" class="node"><title>Node3</title>
<g id="a_node3"><a xlink:href="classDigitsRootFileReaderMFT.html" target="_top" xlink:title="{DigitsRootFileReaderMFT\n||+ init()\l+ run()\l}">
<polygon fill="none" stroke="black" points="160.5,-72 160.5,-140 291.5,-140 291.5,-72 160.5,-72"/>
<text text-anchor="middle" x="226" y="-128" font-family="Helvetica,sans-Serif" font-size="10.00">DigitsRootFileReaderMFT</text>
<polyline fill="none" stroke="black" points="160.5,-121 291.5,-121 "/>
<text text-anchor="middle" x="226" y="-109" font-family="Helvetica,sans-Serif" font-size="10.00"> </text>
<polyline fill="none" stroke="black" points="160.5,-102 291.5,-102 "/>
<text text-anchor="start" x="168.5" y="-90" font-family="Helvetica,sans-Serif" font-size="10.00">+ init()</text>
<text text-anchor="start" x="168.5" y="-79" font-family="Helvetica,sans-Serif" font-size="10.00">+ run()</text>
</a>
</g>
</g>
<!-- Node1&#45;&gt;Node3 -->
<g id="edge2" class="edge"><title>Node1&#45;&gt;Node3</title>
<path fill="none" stroke="midnightblue" d="M426.906,-269.355C393.513,-260.606 338.416,-242.63 300,-212 275.588,-192.536 255.745,-162.958 242.775,-140.15"/>
<polygon fill="none" stroke="midnightblue" points="426.385,-272.833 436.937,-271.875 428.091,-266.044 426.385,-272.833"/>
</g>
<!-- Node4 -->
<g id="node4" class="node"><title>Node4</title>
<g id="a_node4"><a xlink:href="classo2_1_1quality__control_1_1core_1_1HistoMerger.html" target="_top" xlink:title="A crude histogram merger for development purposes. ">
<polygon fill="none" stroke="black" points="309.5,-33.5 309.5,-178.5 442.5,-178.5 442.5,-33.5 309.5,-33.5"/>
<text text-anchor="start" x="317.5" y="-166.5" font-family="Helvetica,sans-Serif" font-size="10.00">o2::quality_control</text>
<text text-anchor="middle" x="376" y="-155.5" font-family="Helvetica,sans-Serif" font-size="10.00">::core::HistoMerger</text>
<polyline fill="none" stroke="black" points="309.5,-148.5 442.5,-148.5 "/>
<text text-anchor="middle" x="376" y="-136.5" font-family="Helvetica,sans-Serif" font-size="10.00"> </text>
<polyline fill="none" stroke="black" points="309.5,-129.5 442.5,-129.5 "/>
<text text-anchor="start" x="317.5" y="-117.5" font-family="Helvetica,sans-Serif" font-size="10.00">+ HistoMerger()</text>
<text text-anchor="start" x="317.5" y="-106.5" font-family="Helvetica,sans-Serif" font-size="10.00">+ ~HistoMerger()</text>
<text text-anchor="start" x="317.5" y="-95.5" font-family="Helvetica,sans-Serif" font-size="10.00">+ init()</text>
<text text-anchor="start" x="317.5" y="-84.5" font-family="Helvetica,sans-Serif" font-size="10.00">+ run()</text>
<text text-anchor="start" x="317.5" y="-73.5" font-family="Helvetica,sans-Serif" font-size="10.00">+ configureInputsOutputs()</text>
<text text-anchor="start" x="317.5" y="-62.5" font-family="Helvetica,sans-Serif" font-size="10.00">+ getName()</text>
<text text-anchor="start" x="317.5" y="-51.5" font-family="Helvetica,sans-Serif" font-size="10.00">+ getInputSpecs()</text>
<text text-anchor="start" x="317.5" y="-40.5" font-family="Helvetica,sans-Serif" font-size="10.00">+ getOutputSpec()</text>
</a>
</g>
</g>
<!-- Node1&#45;&gt;Node4 -->
<g id="edge3" class="edge"><title>Node1&#45;&gt;Node4</title>
<path fill="none" stroke="midnightblue" d="M438.522,-239.078C430.127,-221.343 419.768,-199.459 409.913,-178.642"/>
<polygon fill="none" stroke="midnightblue" points="435.526,-240.93 442.969,-248.471 441.853,-237.935 435.526,-240.93"/>
</g>
<!-- Node5 -->
<g id="node5" class="node"><title>Node5</title>
<g id="a_node5"><a xlink:href="classo2_1_1quality__control_1_1core_1_1TaskRunner.html" target="_top" xlink:title="A class driving the execution of a QC task inside DPL. ">
<polygon fill="none" stroke="black" points="460.5,-0.5 460.5,-211.5 611.5,-211.5 611.5,-0.5 460.5,-0.5"/>
<text text-anchor="start" x="468.5" y="-199.5" font-family="Helvetica,sans-Serif" font-size="10.00">o2::quality_control</text>
<text text-anchor="middle" x="536" y="-188.5" font-family="Helvetica,sans-Serif" font-size="10.00">::core::TaskRunner</text>
<polyline fill="none" stroke="black" points="460.5,-181.5 611.5,-181.5 "/>
<text text-anchor="middle" x="536" y="-169.5" font-family="Helvetica,sans-Serif" font-size="10.00"> </text>
<polyline fill="none" stroke="black" points="460.5,-162.5 611.5,-162.5 "/>
<text text-anchor="start" x="468.5" y="-150.5" font-family="Helvetica,sans-Serif" font-size="10.00">+ TaskRunner()</text>
<text text-anchor="start" x="468.5" y="-139.5" font-family="Helvetica,sans-Serif" font-size="10.00">+ ~TaskRunner()</text>
<text text-anchor="start" x="468.5" y="-128.5" font-family="Helvetica,sans-Serif" font-size="10.00">+ init()</text>
<text text-anchor="start" x="468.5" y="-117.5" font-family="Helvetica,sans-Serif" font-size="10.00">+ run()</text>
<text text-anchor="start" x="468.5" y="-106.5" font-family="Helvetica,sans-Serif" font-size="10.00">+ getDeviceName()</text>
<text text-anchor="start" x="468.5" y="-95.5" font-family="Helvetica,sans-Serif" font-size="10.00">+ getInputsSpecs()</text>
<text text-anchor="start" x="468.5" y="-84.5" font-family="Helvetica,sans-Serif" font-size="10.00">+ getOutputSpec()</text>
<text text-anchor="start" x="468.5" y="-73.5" font-family="Helvetica,sans-Serif" font-size="10.00">+ getOptions()</text>
<text text-anchor="start" x="468.5" y="-62.5" font-family="Helvetica,sans-Serif" font-size="10.00">+ setResetAfterPublish()</text>
<text text-anchor="start" x="468.5" y="-51.5" font-family="Helvetica,sans-Serif" font-size="10.00">+ endOfStream()</text>
<text text-anchor="start" x="468.5" y="-40.5" font-family="Helvetica,sans-Serif" font-size="10.00">+ completionPolicyCallback()</text>
<text text-anchor="start" x="468.5" y="-29.5" font-family="Helvetica,sans-Serif" font-size="10.00">+ createTaskRunnerIdString()</text>
<text text-anchor="start" x="468.5" y="-18.5" font-family="Helvetica,sans-Serif" font-size="10.00">+ createTaskDataOrigin()</text>
<text text-anchor="start" x="468.5" y="-7.5" font-family="Helvetica,sans-Serif" font-size="10.00">+ createTaskDataDescription()</text>
</a>
</g>
</g>
<!-- Node1&#45;&gt;Node5 -->
<g id="edge4" class="edge"><title>Node1&#45;&gt;Node5</title>
<path fill="none" stroke="midnightblue" d="M473.357,-239.333C477.373,-230.85 481.842,-221.409 486.493,-211.584"/>
<polygon fill="none" stroke="midnightblue" points="470.147,-237.935 469.031,-248.471 476.474,-240.93 470.147,-237.935"/>
</g>
<!-- Node6 -->
<g id="node6" class="node"><title>Node6</title>
<g id="a_node6"><a xlink:href="classo2_1_1quality__control_1_1example_1_1ExampleQualityPrinterSpec.html" target="_top" xlink:title="Example DPL task to be plugged after a QC check. ">
<polygon fill="none" stroke="black" points="629.5,-72 629.5,-140 814.5,-140 814.5,-72 629.5,-72"/>
<text text-anchor="start" x="637.5" y="-128" font-family="Helvetica,sans-Serif" font-size="10.00">o2::quality_control</text>
<text text-anchor="middle" x="722" y="-117" font-family="Helvetica,sans-Serif" font-size="10.00">::example::ExampleQualityPrinterSpec</text>
<polyline fill="none" stroke="black" points="629.5,-110 814.5,-110 "/>
<text text-anchor="middle" x="722" y="-98" font-family="Helvetica,sans-Serif" font-size="10.00"> </text>
<polyline fill="none" stroke="black" points="629.5,-91 814.5,-91 "/>
<text text-anchor="start" x="637.5" y="-79" font-family="Helvetica,sans-Serif" font-size="10.00">+ run()</text>
</a>
</g>
</g>
<!-- Node1&#45;&gt;Node6 -->
<g id="edge5" class="edge"><title>Node1&#45;&gt;Node6</title>
<path fill="none" stroke="midnightblue" d="M484.955,-268.898C519.392,-259.555 577.658,-240.858 621,-212 650.475,-192.375 677.918,-162.812 696.737,-140.05"/>
<polygon fill="none" stroke="midnightblue" points="483.855,-265.568 475.076,-271.498 485.637,-272.337 483.855,-265.568"/>
</g>
<!-- Node7 -->
<g id="node7" class="node"><title>Node7</title>
<g id="a_node7"><a xlink:href="classTracksRootFileReaderMFT.html" target="_top" xlink:title="{TracksRootFileReaderMFT\n||+ init()\l+ run()\l}">
<polygon fill="none" stroke="black" points="832.5,-72 832.5,-140 967.5,-140 967.5,-72 832.5,-72"/>
<text text-anchor="middle" x="900" y="-128" font-family="Helvetica,sans-Serif" font-size="10.00">TracksRootFileReaderMFT</text>
<polyline fill="none" stroke="black" points="832.5,-121 967.5,-121 "/>
<text text-anchor="middle" x="900" y="-109" font-family="Helvetica,sans-Serif" font-size="10.00"> </text>
<polyline fill="none" stroke="black" points="832.5,-102 967.5,-102 "/>
<text text-anchor="start" x="840.5" y="-90" font-family="Helvetica,sans-Serif" font-size="10.00">+ init()</text>
<text text-anchor="start" x="840.5" y="-79" font-family="Helvetica,sans-Serif" font-size="10.00">+ run()</text>
</a>
</g>
</g>
<!-- Node1&#45;&gt;Node7 -->
<g id="edge6" class="edge"><title>Node1&#45;&gt;Node7</title>
<path fill="none" stroke="midnightblue" d="M485.752,-273.711C562.886,-267.329 767.25,-247.44 824,-212 851.39,-194.895 871.953,-163.974 884.737,-140.101"/>
<polygon fill="none" stroke="midnightblue" points="485.012,-270.259 475.327,-274.555 485.577,-277.237 485.012,-270.259"/>
</g>
</g>
</svg>
