<?xml version="1.0" encoding="UTF-8" standalone="no"?>
<!DOCTYPE svg PUBLIC "-//W3C//DTD SVG 1.1//EN"
 "http://www.w3.org/Graphics/SVG/1.1/DTD/svg11.dtd">
<!-- Generated by graphviz version 2.38.0 (20140413.2041)
 -->
<!-- Title: o2::quality_control::core::TaskInterface Pages: 1 -->
<svg width="2852pt" height="578pt"
 viewBox="0.00 0.00 2852.00 578.00" xmlns="http://www.w3.org/2000/svg" xmlns:xlink="http://www.w3.org/1999/xlink">
<g id="graph0" class="graph" transform="scale(1 1) rotate(0) translate(4 574)">
<title>o2::quality_control::core::TaskInterface</title>
<!-- Node1 -->
<g id="node1" class="node"><title>Node1</title>
<polygon fill="#bfbfbf" stroke="black" points="1398,-281.5 1398,-569.5 1528,-569.5 1528,-281.5 1398,-281.5"/>
<text text-anchor="start" x="1406" y="-557.5" font-family="Helvetica,sans-Serif" font-size="10.00">o2::quality_control</text>
<text text-anchor="middle" x="1463" y="-546.5" font-family="Helvetica,sans-Serif" font-size="10.00">::core::TaskInterface</text>
<polyline fill="none" stroke="black" points="1398,-539.5 1528,-539.5 "/>
<text text-anchor="start" x="1406" y="-527.5" font-family="Helvetica,sans-Serif" font-size="10.00"># mCustomParameters</text>
<polyline fill="none" stroke="black" points="1398,-520.5 1528,-520.5 "/>
<text text-anchor="start" x="1406" y="-508.5" font-family="Helvetica,sans-Serif" font-size="10.00">+ TaskInterface()</text>
<text text-anchor="start" x="1406" y="-497.5" font-family="Helvetica,sans-Serif" font-size="10.00">+ TaskInterface()</text>
<text text-anchor="start" x="1406" y="-486.5" font-family="Helvetica,sans-Serif" font-size="10.00">+ ~TaskInterface()</text>
<text text-anchor="start" x="1406" y="-475.5" font-family="Helvetica,sans-Serif" font-size="10.00">+ TaskInterface()</text>
<text text-anchor="start" x="1406" y="-464.5" font-family="Helvetica,sans-Serif" font-size="10.00">+ TaskInterface()</text>
<text text-anchor="start" x="1406" y="-453.5" font-family="Helvetica,sans-Serif" font-size="10.00">+ operator=()</text>
<text text-anchor="start" x="1406" y="-442.5" font-family="Helvetica,sans-Serif" font-size="10.00">+ operator=()</text>
<text text-anchor="start" x="1406" y="-431.5" font-family="Helvetica,sans-Serif" font-size="10.00">+ loadCcdb()</text>
<text text-anchor="start" x="1406" y="-420.5" font-family="Helvetica,sans-Serif" font-size="10.00">+ initialize()</text>
<text text-anchor="start" x="1406" y="-409.5" font-family="Helvetica,sans-Serif" font-size="10.00">+ startOfActivity()</text>
<text text-anchor="start" x="1406" y="-398.5" font-family="Helvetica,sans-Serif" font-size="10.00">+ startOfCycle()</text>
<text text-anchor="start" x="1406" y="-387.5" font-family="Helvetica,sans-Serif" font-size="10.00">+ monitorData()</text>
<text text-anchor="start" x="1406" y="-376.5" font-family="Helvetica,sans-Serif" font-size="10.00">+ endOfCycle()</text>
<text text-anchor="start" x="1406" y="-365.5" font-family="Helvetica,sans-Serif" font-size="10.00">+ endOfActivity()</text>
<text text-anchor="start" x="1406" y="-354.5" font-family="Helvetica,sans-Serif" font-size="10.00">+ reset()</text>
<text text-anchor="start" x="1406" y="-343.5" font-family="Helvetica,sans-Serif" font-size="10.00">+ setObjectsManager()</text>
<text text-anchor="start" x="1406" y="-332.5" font-family="Helvetica,sans-Serif" font-size="10.00">+ setName()</text>
<text text-anchor="start" x="1406" y="-321.5" font-family="Helvetica,sans-Serif" font-size="10.00">+ setCustomParameters()</text>
<text text-anchor="start" x="1406" y="-310.5" font-family="Helvetica,sans-Serif" font-size="10.00">+ getName()</text>
<text text-anchor="start" x="1406" y="-299.5" font-family="Helvetica,sans-Serif" font-size="10.00"># getObjectsManager()</text>
<text text-anchor="start" x="1406" y="-288.5" font-family="Helvetica,sans-Serif" font-size="10.00"># retrieveCondition()</text>
</g>
<!-- Node2 -->
<g id="node2" class="node"><title>Node2</title>
<g id="a_node2"><a xlink:href="classo2_1_1quality__control_1_1test_1_1TestTask.html" target="_top" xlink:title="{o2::quality_control\l::test::TestTask\n|+ test\l|+ TestTask()\l+ ~TestTask()\l+ initialize()\l+ startOfActivity()\l+ startOfCycle()\l+ monitorData()\l+ endOfCycle()\l+ endOfActivity()\l+ reset()\l}">
<polygon fill="none" stroke="black" points="0,-44.5 0,-200.5 96,-200.5 96,-44.5 0,-44.5"/>
<text text-anchor="start" x="8" y="-188.5" font-family="Helvetica,sans-Serif" font-size="10.00">o2::quality_control</text>
<text text-anchor="middle" x="48" y="-177.5" font-family="Helvetica,sans-Serif" font-size="10.00">::test::TestTask</text>
<polyline fill="none" stroke="black" points="0,-170.5 96,-170.5 "/>
<text text-anchor="start" x="8" y="-158.5" font-family="Helvetica,sans-Serif" font-size="10.00">+ test</text>
<polyline fill="none" stroke="black" points="0,-151.5 96,-151.5 "/>
<text text-anchor="start" x="8" y="-139.5" font-family="Helvetica,sans-Serif" font-size="10.00">+ TestTask()</text>
<text text-anchor="start" x="8" y="-128.5" font-family="Helvetica,sans-Serif" font-size="10.00">+ ~TestTask()</text>
<text text-anchor="start" x="8" y="-117.5" font-family="Helvetica,sans-Serif" font-size="10.00">+ initialize()</text>
<text text-anchor="start" x="8" y="-106.5" font-family="Helvetica,sans-Serif" font-size="10.00">+ startOfActivity()</text>
<text text-anchor="start" x="8" y="-95.5" font-family="Helvetica,sans-Serif" font-size="10.00">+ startOfCycle()</text>
<text text-anchor="start" x="8" y="-84.5" font-family="Helvetica,sans-Serif" font-size="10.00">+ monitorData()</text>
<text text-anchor="start" x="8" y="-73.5" font-family="Helvetica,sans-Serif" font-size="10.00">+ endOfCycle()</text>
<text text-anchor="start" x="8" y="-62.5" font-family="Helvetica,sans-Serif" font-size="10.00">+ endOfActivity()</text>
<text text-anchor="start" x="8" y="-51.5" font-family="Helvetica,sans-Serif" font-size="10.00">+ reset()</text>
</a>
</g>
</g>
<!-- Node1&#45;&gt;Node2 -->
<g id="edge1" class="edge"><title>Node1&#45;&gt;Node2</title>
<path fill="none" stroke="midnightblue" d="M1387.36,-423.807C1132.83,-420.083 311.796,-396.343 105,-245 89.7701,-233.854 78.4715,-217.598 70.141,-200.581"/>
<polygon fill="none" stroke="midnightblue" points="1387.57,-427.31 1397.62,-423.951 1387.67,-420.311 1387.57,-427.31"/>
</g>
<!-- Node3 -->
<g id="node3" class="node"><title>Node3</title>
<g id="a_node3"><a xlink:href="classo2_1_1quality__control__modules_1_1daq_1_1DaqTask.html" target="_top" xlink:title="Example Quality Control Task It is final because there is no reason to derive from it...">
<polygon fill="none" stroke="black" points="114,-44.5 114,-200.5 240,-200.5 240,-44.5 114,-44.5"/>
<text text-anchor="start" x="122" y="-188.5" font-family="Helvetica,sans-Serif" font-size="10.00">o2::quality_control</text>
<text text-anchor="middle" x="177" y="-177.5" font-family="Helvetica,sans-Serif" font-size="10.00">_modules::daq::DaqTask</text>
<polyline fill="none" stroke="black" points="114,-170.5 240,-170.5 "/>
<text text-anchor="middle" x="177" y="-158.5" font-family="Helvetica,sans-Serif" font-size="10.00"> </text>
<polyline fill="none" stroke="black" points="114,-151.5 240,-151.5 "/>
<text text-anchor="start" x="122" y="-139.5" font-family="Helvetica,sans-Serif" font-size="10.00">+ DaqTask()</text>
<text text-anchor="start" x="122" y="-128.5" font-family="Helvetica,sans-Serif" font-size="10.00">+ ~DaqTask()</text>
<text text-anchor="start" x="122" y="-117.5" font-family="Helvetica,sans-Serif" font-size="10.00">+ initialize()</text>
<text text-anchor="start" x="122" y="-106.5" font-family="Helvetica,sans-Serif" font-size="10.00">+ startOfActivity()</text>
<text text-anchor="start" x="122" y="-95.5" font-family="Helvetica,sans-Serif" font-size="10.00">+ startOfCycle()</text>
<text text-anchor="start" x="122" y="-84.5" font-family="Helvetica,sans-Serif" font-size="10.00">+ monitorData()</text>
<text text-anchor="start" x="122" y="-73.5" font-family="Helvetica,sans-Serif" font-size="10.00">+ endOfCycle()</text>
<text text-anchor="start" x="122" y="-62.5" font-family="Helvetica,sans-Serif" font-size="10.00">+ endOfActivity()</text>
<text text-anchor="start" x="122" y="-51.5" font-family="Helvetica,sans-Serif" font-size="10.00">+ reset()</text>
</a>
</g>
</g>
<!-- Node1&#45;&gt;Node3 -->
<g id="edge2" class="edge"><title>Node1&#45;&gt;Node3</title>
<path fill="none" stroke="midnightblue" d="M1387.56,-421.709C1152.43,-411.74 437.341,-371.465 249,-245 232.512,-233.929 219.249,-217.7 208.822,-200.685"/>
<polygon fill="none" stroke="midnightblue" points="1387.59,-425.213 1397.73,-422.133 1387.88,-418.219 1387.59,-425.213"/>
</g>
<!-- Node4 -->
<g id="node4" class="node"><title>Node4</title>
<g id="a_node4"><a xlink:href="classo2_1_1quality__control__modules_1_1emcal_1_1DigitsQcTask.html" target="_top" xlink:title="QC Task for EMCAL digits. ">
<polygon fill="none" stroke="black" points="258.5,-44.5 258.5,-200.5 415.5,-200.5 415.5,-44.5 258.5,-44.5"/>
<text text-anchor="start" x="266.5" y="-188.5" font-family="Helvetica,sans-Serif" font-size="10.00">o2::quality_control</text>
<text text-anchor="middle" x="337" y="-177.5" font-family="Helvetica,sans-Serif" font-size="10.00">_modules::emcal::DigitsQcTask</text>
<polyline fill="none" stroke="black" points="258.5,-170.5 415.5,-170.5 "/>
<text text-anchor="middle" x="337" y="-158.5" font-family="Helvetica,sans-Serif" font-size="10.00"> </text>
<polyline fill="none" stroke="black" points="258.5,-151.5 415.5,-151.5 "/>
<text text-anchor="start" x="266.5" y="-139.5" font-family="Helvetica,sans-Serif" font-size="10.00">+ DigitsQcTask()</text>
<text text-anchor="start" x="266.5" y="-128.5" font-family="Helvetica,sans-Serif" font-size="10.00">+ ~DigitsQcTask()</text>
<text text-anchor="start" x="266.5" y="-117.5" font-family="Helvetica,sans-Serif" font-size="10.00">+ initialize()</text>
<text text-anchor="start" x="266.5" y="-106.5" font-family="Helvetica,sans-Serif" font-size="10.00">+ startOfActivity()</text>
<text text-anchor="start" x="266.5" y="-95.5" font-family="Helvetica,sans-Serif" font-size="10.00">+ startOfCycle()</text>
<text text-anchor="start" x="266.5" y="-84.5" font-family="Helvetica,sans-Serif" font-size="10.00">+ monitorData()</text>
<text text-anchor="start" x="266.5" y="-73.5" font-family="Helvetica,sans-Serif" font-size="10.00">+ endOfCycle()</text>
<text text-anchor="start" x="266.5" y="-62.5" font-family="Helvetica,sans-Serif" font-size="10.00">+ endOfActivity()</text>
<text text-anchor="start" x="266.5" y="-51.5" font-family="Helvetica,sans-Serif" font-size="10.00">+ reset()</text>
</a>
</g>
</g>
<!-- Node1&#45;&gt;Node4 -->
<g id="edge3" class="edge"><title>Node1&#45;&gt;Node4</title>
<path fill="none" stroke="midnightblue" d="M1387.78,-418.897C1177.14,-402.069 586.204,-346.745 424,-245 406.198,-233.833 390.951,-217.569 378.425,-200.552"/>
<polygon fill="none" stroke="midnightblue" points="1387.58,-422.392 1397.82,-419.693 1388.13,-415.414 1387.58,-422.392"/>
</g>
<!-- Node5 -->
<g id="node5" class="node"><title>Node5</title>
<g id="a_node5"><a xlink:href="classo2_1_1quality__control__modules_1_1emcal_1_1RawTask.html" target="_top" xlink:title="Example Quality Control DPL Task It is final because there is no reason to derive from it...">
<polygon fill="none" stroke="black" points="433.5,-44.5 433.5,-200.5 572.5,-200.5 572.5,-44.5 433.5,-44.5"/>
<text text-anchor="start" x="441.5" y="-188.5" font-family="Helvetica,sans-Serif" font-size="10.00">o2::quality_control</text>
<text text-anchor="middle" x="503" y="-177.5" font-family="Helvetica,sans-Serif" font-size="10.00">_modules::emcal::RawTask</text>
<polyline fill="none" stroke="black" points="433.5,-170.5 572.5,-170.5 "/>
<text text-anchor="middle" x="503" y="-158.5" font-family="Helvetica,sans-Serif" font-size="10.00"> </text>
<polyline fill="none" stroke="black" points="433.5,-151.5 572.5,-151.5 "/>
<text text-anchor="start" x="441.5" y="-139.5" font-family="Helvetica,sans-Serif" font-size="10.00">+ RawTask()</text>
<text text-anchor="start" x="441.5" y="-128.5" font-family="Helvetica,sans-Serif" font-size="10.00">+ ~RawTask()</text>
<text text-anchor="start" x="441.5" y="-117.5" font-family="Helvetica,sans-Serif" font-size="10.00">+ initialize()</text>
<text text-anchor="start" x="441.5" y="-106.5" font-family="Helvetica,sans-Serif" font-size="10.00">+ startOfActivity()</text>
<text text-anchor="start" x="441.5" y="-95.5" font-family="Helvetica,sans-Serif" font-size="10.00">+ startOfCycle()</text>
<text text-anchor="start" x="441.5" y="-84.5" font-family="Helvetica,sans-Serif" font-size="10.00">+ monitorData()</text>
<text text-anchor="start" x="441.5" y="-73.5" font-family="Helvetica,sans-Serif" font-size="10.00">+ endOfCycle()</text>
<text text-anchor="start" x="441.5" y="-62.5" font-family="Helvetica,sans-Serif" font-size="10.00">+ endOfActivity()</text>
<text text-anchor="start" x="441.5" y="-51.5" font-family="Helvetica,sans-Serif" font-size="10.00">+ reset()</text>
</a>
</g>
</g>
<!-- Node1&#45;&gt;Node5 -->
<g id="edge4" class="edge"><title>Node1&#45;&gt;Node5</title>
<path fill="none" stroke="midnightblue" d="M1387.61,-416.735C1199.14,-396.149 713.142,-335.486 581,-245 564.454,-233.67 550.632,-217.556 539.448,-200.755"/>
<polygon fill="none" stroke="midnightblue" points="1387.39,-420.231 1397.71,-417.83 1388.14,-413.272 1387.39,-420.231"/>
</g>
<!-- Node6 -->
<g id="node6" class="node"><title>Node6</title>
<g id="a_node6"><a xlink:href="classo2_1_1quality__control__modules_1_1example_1_1BenchmarkTask.html" target="_top" xlink:title="Quality Control Task for benchmarking It publishes a number of TH1F (configurable, see example.ini in module QualityControl). The histos are reset and refilled (1000 random) at EOC. They have 1000 bins. The monitoring of data blocks is empty (sleep 100 ms). ">
<polygon fill="none" stroke="black" points="590.5,-44.5 590.5,-200.5 769.5,-200.5 769.5,-44.5 590.5,-44.5"/>
<text text-anchor="start" x="598.5" y="-188.5" font-family="Helvetica,sans-Serif" font-size="10.00">o2::quality_control</text>
<text text-anchor="middle" x="680" y="-177.5" font-family="Helvetica,sans-Serif" font-size="10.00">_modules::example::BenchmarkTask</text>
<polyline fill="none" stroke="black" points="590.5,-170.5 769.5,-170.5 "/>
<text text-anchor="middle" x="680" y="-158.5" font-family="Helvetica,sans-Serif" font-size="10.00"> </text>
<polyline fill="none" stroke="black" points="590.5,-151.5 769.5,-151.5 "/>
<text text-anchor="start" x="598.5" y="-139.5" font-family="Helvetica,sans-Serif" font-size="10.00">+ BenchmarkTask()</text>
<text text-anchor="start" x="598.5" y="-128.5" font-family="Helvetica,sans-Serif" font-size="10.00">+ ~BenchmarkTask()</text>
<text text-anchor="start" x="598.5" y="-117.5" font-family="Helvetica,sans-Serif" font-size="10.00">+ initialize()</text>
<text text-anchor="start" x="598.5" y="-106.5" font-family="Helvetica,sans-Serif" font-size="10.00">+ startOfActivity()</text>
<text text-anchor="start" x="598.5" y="-95.5" font-family="Helvetica,sans-Serif" font-size="10.00">+ startOfCycle()</text>
<text text-anchor="start" x="598.5" y="-84.5" font-family="Helvetica,sans-Serif" font-size="10.00">+ monitorData()</text>
<text text-anchor="start" x="598.5" y="-73.5" font-family="Helvetica,sans-Serif" font-size="10.00">+ endOfCycle()</text>
<text text-anchor="start" x="598.5" y="-62.5" font-family="Helvetica,sans-Serif" font-size="10.00">+ endOfActivity()</text>
<text text-anchor="start" x="598.5" y="-51.5" font-family="Helvetica,sans-Serif" font-size="10.00">+ reset()</text>
</a>
</g>
</g>
<!-- Node1&#45;&gt;Node6 -->
<g id="edge5" class="edge"><title>Node1&#45;&gt;Node6</title>
<path fill="none" stroke="midnightblue" d="M1387.56,-420.039C1254.43,-409.023 973.423,-371.412 778,-245 760.024,-233.372 743.81,-217.35 729.982,-200.754"/>
<polygon fill="none" stroke="midnightblue" points="1387.41,-423.538 1397.66,-420.847 1387.97,-416.56 1387.41,-423.538"/>
</g>
<!-- Node7 -->
<g id="node7" class="node"><title>Node7</title>
<g id="a_node7"><a xlink:href="classo2_1_1quality__control__modules_1_1example_1_1ExampleTask.html" target="_top" xlink:title="Example Quality Control Task It is final because there is no reason to derive from it...">
<polygon fill="none" stroke="black" points="787.5,-33.5 787.5,-211.5 954.5,-211.5 954.5,-33.5 787.5,-33.5"/>
<text text-anchor="start" x="795.5" y="-199.5" font-family="Helvetica,sans-Serif" font-size="10.00">o2::quality_control</text>
<text text-anchor="middle" x="871" y="-188.5" font-family="Helvetica,sans-Serif" font-size="10.00">_modules::example::ExampleTask</text>
<polyline fill="none" stroke="black" points="787.5,-181.5 954.5,-181.5 "/>
<text text-anchor="middle" x="871" y="-169.5" font-family="Helvetica,sans-Serif" font-size="10.00"> </text>
<polyline fill="none" stroke="black" points="787.5,-162.5 954.5,-162.5 "/>
<text text-anchor="start" x="795.5" y="-150.5" font-family="Helvetica,sans-Serif" font-size="10.00">+ ExampleTask()</text>
<text text-anchor="start" x="795.5" y="-139.5" font-family="Helvetica,sans-Serif" font-size="10.00">+ ~ExampleTask()</text>
<text text-anchor="start" x="795.5" y="-128.5" font-family="Helvetica,sans-Serif" font-size="10.00">+ initialize()</text>
<text text-anchor="start" x="795.5" y="-117.5" font-family="Helvetica,sans-Serif" font-size="10.00">+ startOfActivity()</text>
<text text-anchor="start" x="795.5" y="-106.5" font-family="Helvetica,sans-Serif" font-size="10.00">+ startOfCycle()</text>
<text text-anchor="start" x="795.5" y="-95.5" font-family="Helvetica,sans-Serif" font-size="10.00">+ monitorData()</text>
<text text-anchor="start" x="795.5" y="-84.5" font-family="Helvetica,sans-Serif" font-size="10.00">+ endOfCycle()</text>
<text text-anchor="start" x="795.5" y="-73.5" font-family="Helvetica,sans-Serif" font-size="10.00">+ endOfActivity()</text>
<text text-anchor="start" x="795.5" y="-62.5" font-family="Helvetica,sans-Serif" font-size="10.00">+ reset()</text>
<text text-anchor="start" x="795.5" y="-51.5" font-family="Helvetica,sans-Serif" font-size="10.00">+ getHisto1()</text>
<text text-anchor="start" x="795.5" y="-40.5" font-family="Helvetica,sans-Serif" font-size="10.00">+ getHisto2()</text>
</a>
</g>
</g>
<!-- Node1&#45;&gt;Node7 -->
<g id="edge6" class="edge"><title>Node1&#45;&gt;Node7</title>
<path fill="none" stroke="midnightblue" d="M1387.73,-411.506C1283.95,-390.657 1094.81,-341.85 963,-245 950.207,-235.6 938.357,-223.932 927.711,-211.576"/>
<polygon fill="none" stroke="midnightblue" points="1387.32,-414.992 1397.81,-413.496 1388.68,-408.125 1387.32,-414.992"/>
</g>
<!-- Node8 -->
<g id="node8" class="node"><title>Node8</title>
<g id="a_node8"><a xlink:href="classo2_1_1quality__control__modules_1_1its_1_1ITSRawTask.html" target="_top" xlink:title="{o2::quality_control\l_modules::its::ITSRawTask\n||+ ITSRawTask()\l+ ~ITSRawTask()\l+ initialize()\l+ startOfActivity()\l+ startOfCycle()\l+ monitorData()\l+ endOfCycle()\l+ endOfActivity()\l+ reset()\l+ setNChips()\l+ ConfirmXAxis()\l+ ReverseYAxis()\l}">
<polygon fill="none" stroke="black" points="972.5,-28 972.5,-217 1111.5,-217 1111.5,-28 972.5,-28"/>
<text text-anchor="start" x="980.5" y="-205" font-family="Helvetica,sans-Serif" font-size="10.00">o2::quality_control</text>
<text text-anchor="middle" x="1042" y="-194" font-family="Helvetica,sans-Serif" font-size="10.00">_modules::its::ITSRawTask</text>
<polyline fill="none" stroke="black" points="972.5,-187 1111.5,-187 "/>
<text text-anchor="middle" x="1042" y="-175" font-family="Helvetica,sans-Serif" font-size="10.00"> </text>
<polyline fill="none" stroke="black" points="972.5,-168 1111.5,-168 "/>
<text text-anchor="start" x="980.5" y="-156" font-family="Helvetica,sans-Serif" font-size="10.00">+ ITSRawTask()</text>
<text text-anchor="start" x="980.5" y="-145" font-family="Helvetica,sans-Serif" font-size="10.00">+ ~ITSRawTask()</text>
<text text-anchor="start" x="980.5" y="-134" font-family="Helvetica,sans-Serif" font-size="10.00">+ initialize()</text>
<text text-anchor="start" x="980.5" y="-123" font-family="Helvetica,sans-Serif" font-size="10.00">+ startOfActivity()</text>
<text text-anchor="start" x="980.5" y="-112" font-family="Helvetica,sans-Serif" font-size="10.00">+ startOfCycle()</text>
<text text-anchor="start" x="980.5" y="-101" font-family="Helvetica,sans-Serif" font-size="10.00">+ monitorData()</text>
<text text-anchor="start" x="980.5" y="-90" font-family="Helvetica,sans-Serif" font-size="10.00">+ endOfCycle()</text>
<text text-anchor="start" x="980.5" y="-79" font-family="Helvetica,sans-Serif" font-size="10.00">+ endOfActivity()</text>
<text text-anchor="start" x="980.5" y="-68" font-family="Helvetica,sans-Serif" font-size="10.00">+ reset()</text>
<text text-anchor="start" x="980.5" y="-57" font-family="Helvetica,sans-Serif" font-size="10.00">+ setNChips()</text>
<text text-anchor="start" x="980.5" y="-46" font-family="Helvetica,sans-Serif" font-size="10.00">+ ConfirmXAxis()</text>
<text text-anchor="start" x="980.5" y="-35" font-family="Helvetica,sans-Serif" font-size="10.00">+ ReverseYAxis()</text>
</a>
</g>
</g>
<!-- Node1&#45;&gt;Node8 -->
<g id="edge7" class="edge"><title>Node1&#45;&gt;Node8</title>
<path fill="none" stroke="midnightblue" d="M1388.03,-398.367C1313.57,-369.607 1199.36,-317.627 1120,-245 1110.94,-236.708 1102.49,-227.139 1094.75,-217.086"/>
<polygon fill="none" stroke="midnightblue" points="1387.22,-401.804 1397.81,-402.1 1389.72,-395.264 1387.22,-401.804"/>
</g>
<!-- Node9 -->
<g id="node9" class="node"><title>Node9</title>
<g id="a_node9"><a xlink:href="classo2_1_1quality__control__modules_1_1mft_1_1BasicClusterQcTask.html" target="_top" xlink:title="MFT Cluster QC task. ">
<polygon fill="none" stroke="black" points="1129.5,-39 1129.5,-206 1270.5,-206 1270.5,-39 1129.5,-39"/>
<text text-anchor="start" x="1137.5" y="-194" font-family="Helvetica,sans-Serif" font-size="10.00">o2::quality_control</text>
<text text-anchor="start" x="1137.5" y="-183" font-family="Helvetica,sans-Serif" font-size="10.00">_modules::mft::BasicCluster</text>
<text text-anchor="middle" x="1200" y="-172" font-family="Helvetica,sans-Serif" font-size="10.00">QcTask</text>
<polyline fill="none" stroke="black" points="1129.5,-165 1270.5,-165 "/>
<text text-anchor="middle" x="1200" y="-153" font-family="Helvetica,sans-Serif" font-size="10.00"> </text>
<polyline fill="none" stroke="black" points="1129.5,-146 1270.5,-146 "/>
<text text-anchor="start" x="1137.5" y="-134" font-family="Helvetica,sans-Serif" font-size="10.00">+ BasicClusterQcTask()</text>
<text text-anchor="start" x="1137.5" y="-123" font-family="Helvetica,sans-Serif" font-size="10.00">+ ~BasicClusterQcTask()</text>
<text text-anchor="start" x="1137.5" y="-112" font-family="Helvetica,sans-Serif" font-size="10.00">+ initialize()</text>
<text text-anchor="start" x="1137.5" y="-101" font-family="Helvetica,sans-Serif" font-size="10.00">+ startOfActivity()</text>
<text text-anchor="start" x="1137.5" y="-90" font-family="Helvetica,sans-Serif" font-size="10.00">+ startOfCycle()</text>
<text text-anchor="start" x="1137.5" y="-79" font-family="Helvetica,sans-Serif" font-size="10.00">+ monitorData()</text>
<text text-anchor="start" x="1137.5" y="-68" font-family="Helvetica,sans-Serif" font-size="10.00">+ endOfCycle()</text>
<text text-anchor="start" x="1137.5" y="-57" font-family="Helvetica,sans-Serif" font-size="10.00">+ endOfActivity()</text>
<text text-anchor="start" x="1137.5" y="-46" font-family="Helvetica,sans-Serif" font-size="10.00">+ reset()</text>
</a>
</g>
</g>
<!-- Node1&#45;&gt;Node9 -->
<g id="edge8" class="edge"><title>Node1&#45;&gt;Node9</title>
<path fill="none" stroke="midnightblue" d="M1390.4,-360.071C1355.26,-327.247 1313.53,-285.74 1280,-245 1270.05,-232.91 1260.23,-219.55 1251.05,-206.243"/>
<polygon fill="none" stroke="midnightblue" points="1388.08,-362.697 1397.79,-366.94 1392.85,-357.569 1388.08,-362.697"/>
</g>
<!-- Node10 -->
<g id="node10" class="node"><title>Node10</title>
<g id="a_node10"><a xlink:href="classo2_1_1quality__control__modules_1_1mft_1_1BasicDigitQcTask.html" target="_top" xlink:title="MFT Digit QC task. ">
<polygon fill="none" stroke="black" points="1289,-44.5 1289,-200.5 1453,-200.5 1453,-44.5 1289,-44.5"/>
<text text-anchor="start" x="1297" y="-188.5" font-family="Helvetica,sans-Serif" font-size="10.00">o2::quality_control</text>
<text text-anchor="middle" x="1371" y="-177.5" font-family="Helvetica,sans-Serif" font-size="10.00">_modules::mft::BasicDigitQcTask</text>
<polyline fill="none" stroke="black" points="1289,-170.5 1453,-170.5 "/>
<text text-anchor="middle" x="1371" y="-158.5" font-family="Helvetica,sans-Serif" font-size="10.00"> </text>
<polyline fill="none" stroke="black" points="1289,-151.5 1453,-151.5 "/>
<text text-anchor="start" x="1297" y="-139.5" font-family="Helvetica,sans-Serif" font-size="10.00">+ BasicDigitQcTask()</text>
<text text-anchor="start" x="1297" y="-128.5" font-family="Helvetica,sans-Serif" font-size="10.00">+ ~BasicDigitQcTask()</text>
<text text-anchor="start" x="1297" y="-117.5" font-family="Helvetica,sans-Serif" font-size="10.00">+ initialize()</text>
<text text-anchor="start" x="1297" y="-106.5" font-family="Helvetica,sans-Serif" font-size="10.00">+ startOfActivity()</text>
<text text-anchor="start" x="1297" y="-95.5" font-family="Helvetica,sans-Serif" font-size="10.00">+ startOfCycle()</text>
<text text-anchor="start" x="1297" y="-84.5" font-family="Helvetica,sans-Serif" font-size="10.00">+ monitorData()</text>
<text text-anchor="start" x="1297" y="-73.5" font-family="Helvetica,sans-Serif" font-size="10.00">+ endOfCycle()</text>
<text text-anchor="start" x="1297" y="-62.5" font-family="Helvetica,sans-Serif" font-size="10.00">+ endOfActivity()</text>
<text text-anchor="start" x="1297" y="-51.5" font-family="Helvetica,sans-Serif" font-size="10.00">+ reset()</text>
</a>
</g>
</g>
<!-- Node1&#45;&gt;Node10 -->
<g id="edge9" class="edge"><title>Node1&#45;&gt;Node10</title>
<path fill="none" stroke="midnightblue" d="M1416.29,-271.673C1408.75,-247.009 1401.24,-222.428 1394.56,-200.581"/>
<polygon fill="none" stroke="midnightblue" points="1413.02,-272.953 1419.29,-281.493 1419.71,-270.907 1413.02,-272.953"/>
</g>
<!-- Node11 -->
<g id="node11" class="node"><title>Node11</title>
<g id="a_node11"><a xlink:href="classo2_1_1quality__control__modules_1_1mft_1_1BasicTrackQcTask.html" target="_top" xlink:title="MFT Track QC task. ">
<polygon fill="none" stroke="black" points="1471.5,-44.5 1471.5,-200.5 1640.5,-200.5 1640.5,-44.5 1471.5,-44.5"/>
<text text-anchor="start" x="1479.5" y="-188.5" font-family="Helvetica,sans-Serif" font-size="10.00">o2::quality_control</text>
<text text-anchor="middle" x="1556" y="-177.5" font-family="Helvetica,sans-Serif" font-size="10.00">_modules::mft::BasicTrackQcTask</text>
<polyline fill="none" stroke="black" points="1471.5,-170.5 1640.5,-170.5 "/>
<text text-anchor="middle" x="1556" y="-158.5" font-family="Helvetica,sans-Serif" font-size="10.00"> </text>
<polyline fill="none" stroke="black" points="1471.5,-151.5 1640.5,-151.5 "/>
<text text-anchor="start" x="1479.5" y="-139.5" font-family="Helvetica,sans-Serif" font-size="10.00">+ BasicTrackQcTask()</text>
<text text-anchor="start" x="1479.5" y="-128.5" font-family="Helvetica,sans-Serif" font-size="10.00">+ ~BasicTrackQcTask()</text>
<text text-anchor="start" x="1479.5" y="-117.5" font-family="Helvetica,sans-Serif" font-size="10.00">+ initialize()</text>
<text text-anchor="start" x="1479.5" y="-106.5" font-family="Helvetica,sans-Serif" font-size="10.00">+ startOfActivity()</text>
<text text-anchor="start" x="1479.5" y="-95.5" font-family="Helvetica,sans-Serif" font-size="10.00">+ startOfCycle()</text>
<text text-anchor="start" x="1479.5" y="-84.5" font-family="Helvetica,sans-Serif" font-size="10.00">+ monitorData()</text>
<text text-anchor="start" x="1479.5" y="-73.5" font-family="Helvetica,sans-Serif" font-size="10.00">+ endOfCycle()</text>
<text text-anchor="start" x="1479.5" y="-62.5" font-family="Helvetica,sans-Serif" font-size="10.00">+ endOfActivity()</text>
<text text-anchor="start" x="1479.5" y="-51.5" font-family="Helvetica,sans-Serif" font-size="10.00">+ reset()</text>
</a>
</g>
</g>
<!-- Node1&#45;&gt;Node11 -->
<g id="edge10" class="edge"><title>Node1&#45;&gt;Node11</title>
<path fill="none" stroke="midnightblue" d="M1510.22,-271.673C1517.84,-247.009 1525.43,-222.428 1532.18,-200.581"/>
<polygon fill="none" stroke="midnightblue" points="1506.79,-270.905 1507.18,-281.493 1513.48,-272.972 1506.79,-270.905"/>
</g>
<!-- Node12 -->
<g id="node12" class="node"><title>Node12</title>
<g id="a_node12"><a xlink:href="classo2_1_1quality__control__modules_1_1muonchambers_1_1PedestalsTask.html" target="_top" xlink:title="Quality Control Task for the analysis of MCH pedestal data. ">
<polygon fill="none" stroke="black" points="1658.5,-28 1658.5,-217 1789.5,-217 1789.5,-28 1658.5,-28"/>
<text text-anchor="start" x="1666.5" y="-205" font-family="Helvetica,sans-Serif" font-size="10.00">o2::quality_control</text>
<text text-anchor="start" x="1666.5" y="-194" font-family="Helvetica,sans-Serif" font-size="10.00">_modules::muonchambers</text>
<text text-anchor="middle" x="1724" y="-183" font-family="Helvetica,sans-Serif" font-size="10.00">::PedestalsTask</text>
<polyline fill="none" stroke="black" points="1658.5,-176 1789.5,-176 "/>
<text text-anchor="middle" x="1724" y="-164" font-family="Helvetica,sans-Serif" font-size="10.00"> </text>
<polyline fill="none" stroke="black" points="1658.5,-157 1789.5,-157 "/>
<text text-anchor="start" x="1666.5" y="-145" font-family="Helvetica,sans-Serif" font-size="10.00">+ PedestalsTask()</text>
<text text-anchor="start" x="1666.5" y="-134" font-family="Helvetica,sans-Serif" font-size="10.00">+ ~PedestalsTask()</text>
<text text-anchor="start" x="1666.5" y="-123" font-family="Helvetica,sans-Serif" font-size="10.00">+ initialize()</text>
<text text-anchor="start" x="1666.5" y="-112" font-family="Helvetica,sans-Serif" font-size="10.00">+ startOfActivity()</text>
<text text-anchor="start" x="1666.5" y="-101" font-family="Helvetica,sans-Serif" font-size="10.00">+ startOfCycle()</text>
<text text-anchor="start" x="1666.5" y="-90" font-family="Helvetica,sans-Serif" font-size="10.00">+ monitorDataReadout()</text>
<text text-anchor="start" x="1666.5" y="-79" font-family="Helvetica,sans-Serif" font-size="10.00">+ monitorDataDigits()</text>
<text text-anchor="start" x="1666.5" y="-68" font-family="Helvetica,sans-Serif" font-size="10.00">+ monitorData()</text>
<text text-anchor="start" x="1666.5" y="-57" font-family="Helvetica,sans-Serif" font-size="10.00">+ endOfCycle()</text>
<text text-anchor="start" x="1666.5" y="-46" font-family="Helvetica,sans-Serif" font-size="10.00">+ endOfActivity()</text>
<text text-anchor="start" x="1666.5" y="-35" font-family="Helvetica,sans-Serif" font-size="10.00">+ reset()</text>
</a>
</g>
</g>
<!-- Node1&#45;&gt;Node12 -->
<g id="edge11" class="edge"><title>Node1&#45;&gt;Node12</title>
<path fill="none" stroke="midnightblue" d="M1535.81,-362.738C1572.34,-329.815 1615.94,-287.426 1650,-245 1657.04,-236.237 1663.91,-226.751 1670.45,-217.075"/>
<polygon fill="none" stroke="midnightblue" points="1533.25,-360.338 1528.13,-369.617 1537.92,-365.553 1533.25,-360.338"/>
</g>
<!-- Node13 -->
<g id="node13" class="node"><title>Node13</title>
<g id="a_node13"><a xlink:href="classo2_1_1quality__control__modules_1_1muonchambers_1_1PhysicsTask.html" target="_top" xlink:title="Quality Control Task for the analysis of MCH physics data. ">
<polygon fill="none" stroke="black" points="1807.5,-28 1807.5,-217 1938.5,-217 1938.5,-28 1807.5,-28"/>
<text text-anchor="start" x="1815.5" y="-205" font-family="Helvetica,sans-Serif" font-size="10.00">o2::quality_control</text>
<text text-anchor="start" x="1815.5" y="-194" font-family="Helvetica,sans-Serif" font-size="10.00">_modules::muonchambers</text>
<text text-anchor="middle" x="1873" y="-183" font-family="Helvetica,sans-Serif" font-size="10.00">::PhysicsTask</text>
<polyline fill="none" stroke="black" points="1807.5,-176 1938.5,-176 "/>
<text text-anchor="middle" x="1873" y="-164" font-family="Helvetica,sans-Serif" font-size="10.00"> </text>
<polyline fill="none" stroke="black" points="1807.5,-157 1938.5,-157 "/>
<text text-anchor="start" x="1815.5" y="-145" font-family="Helvetica,sans-Serif" font-size="10.00">+ PhysicsTask()</text>
<text text-anchor="start" x="1815.5" y="-134" font-family="Helvetica,sans-Serif" font-size="10.00">+ ~PhysicsTask()</text>
<text text-anchor="start" x="1815.5" y="-123" font-family="Helvetica,sans-Serif" font-size="10.00">+ initialize()</text>
<text text-anchor="start" x="1815.5" y="-112" font-family="Helvetica,sans-Serif" font-size="10.00">+ startOfActivity()</text>
<text text-anchor="start" x="1815.5" y="-101" font-family="Helvetica,sans-Serif" font-size="10.00">+ startOfCycle()</text>
<text text-anchor="start" x="1815.5" y="-90" font-family="Helvetica,sans-Serif" font-size="10.00">+ monitorData()</text>
<text text-anchor="start" x="1815.5" y="-79" font-family="Helvetica,sans-Serif" font-size="10.00">+ endOfCycle()</text>
<text text-anchor="start" x="1815.5" y="-68" font-family="Helvetica,sans-Serif" font-size="10.00">+ endOfActivity()</text>
<text text-anchor="start" x="1815.5" y="-57" font-family="Helvetica,sans-Serif" font-size="10.00">+ reset()</text>
<text text-anchor="start" x="1815.5" y="-46" font-family="Helvetica,sans-Serif" font-size="10.00">+ getNumberOfDigits()</text>
<text text-anchor="start" x="1815.5" y="-35" font-family="Helvetica,sans-Serif" font-size="10.00">+ storeDigits()</text>
</a>
</g>
</g>
<!-- Node1&#45;&gt;Node13 -->
<g id="edge12" class="edge"><title>Node1&#45;&gt;Node13</title>
<path fill="none" stroke="midnightblue" d="M1537.77,-398.015C1610.99,-369.205 1722.41,-317.387 1799,-245 1807.8,-236.687 1815.93,-227.105 1823.35,-217.045"/>
<polygon fill="none" stroke="midnightblue" points="1536.2,-394.871 1528.14,-401.756 1538.73,-401.395 1536.2,-394.871"/>
</g>
<!-- Node14 -->
<g id="node14" class="node"><title>Node14</title>
<g id="a_node14"><a xlink:href="classo2_1_1quality__control__modules_1_1skeleton_1_1SkeletonTask.html" target="_top" xlink:title="Example Quality Control DPL Task. ">
<polygon fill="none" stroke="black" points="1956.5,-39 1956.5,-206 2063.5,-206 2063.5,-39 1956.5,-39"/>
<text text-anchor="start" x="1964.5" y="-194" font-family="Helvetica,sans-Serif" font-size="10.00">o2::quality_control</text>
<text text-anchor="start" x="1964.5" y="-183" font-family="Helvetica,sans-Serif" font-size="10.00">_modules::skeleton::</text>
<text text-anchor="middle" x="2010" y="-172" font-family="Helvetica,sans-Serif" font-size="10.00">SkeletonTask</text>
<polyline fill="none" stroke="black" points="1956.5,-165 2063.5,-165 "/>
<text text-anchor="middle" x="2010" y="-153" font-family="Helvetica,sans-Serif" font-size="10.00"> </text>
<polyline fill="none" stroke="black" points="1956.5,-146 2063.5,-146 "/>
<text text-anchor="start" x="1964.5" y="-134" font-family="Helvetica,sans-Serif" font-size="10.00">+ SkeletonTask()</text>
<text text-anchor="start" x="1964.5" y="-123" font-family="Helvetica,sans-Serif" font-size="10.00">+ ~SkeletonTask()</text>
<text text-anchor="start" x="1964.5" y="-112" font-family="Helvetica,sans-Serif" font-size="10.00">+ initialize()</text>
<text text-anchor="start" x="1964.5" y="-101" font-family="Helvetica,sans-Serif" font-size="10.00">+ startOfActivity()</text>
<text text-anchor="start" x="1964.5" y="-90" font-family="Helvetica,sans-Serif" font-size="10.00">+ startOfCycle()</text>
<text text-anchor="start" x="1964.5" y="-79" font-family="Helvetica,sans-Serif" font-size="10.00">+ monitorData()</text>
<text text-anchor="start" x="1964.5" y="-68" font-family="Helvetica,sans-Serif" font-size="10.00">+ endOfCycle()</text>
<text text-anchor="start" x="1964.5" y="-57" font-family="Helvetica,sans-Serif" font-size="10.00">+ endOfActivity()</text>
<text text-anchor="start" x="1964.5" y="-46" font-family="Helvetica,sans-Serif" font-size="10.00">+ reset()</text>
</a>
</g>
</g>
<!-- Node1&#45;&gt;Node14 -->
<g id="edge13" class="edge"><title>Node1&#45;&gt;Node14</title>
<path fill="none" stroke="midnightblue" d="M1538.09,-414.111C1641.61,-396.275 1828.84,-350.936 1948,-245 1960.12,-234.222 1970.2,-220.513 1978.45,-206.213"/>
<polygon fill="none" stroke="midnightblue" points="1537.32,-410.693 1528.04,-415.803 1538.48,-417.596 1537.32,-410.693"/>
</g>
<!-- Node15 -->
<g id="node15" class="node"><title>Node15</title>
<g id="a_node15"><a xlink:href="classo2_1_1quality__control__modules_1_1tof_1_1TaskDiagnostics.html" target="_top" xlink:title="TOF Quality Control DPL Task for TOF Compressed data. ">
<polygon fill="none" stroke="black" points="2081.5,-44.5 2081.5,-200.5 2236.5,-200.5 2236.5,-44.5 2081.5,-44.5"/>
<text text-anchor="start" x="2089.5" y="-188.5" font-family="Helvetica,sans-Serif" font-size="10.00">o2::quality_control</text>
<text text-anchor="middle" x="2159" y="-177.5" font-family="Helvetica,sans-Serif" font-size="10.00">_modules::tof::TaskDiagnostics</text>
<polyline fill="none" stroke="black" points="2081.5,-170.5 2236.5,-170.5 "/>
<text text-anchor="middle" x="2159" y="-158.5" font-family="Helvetica,sans-Serif" font-size="10.00"> </text>
<polyline fill="none" stroke="black" points="2081.5,-151.5 2236.5,-151.5 "/>
<text text-anchor="start" x="2089.5" y="-139.5" font-family="Helvetica,sans-Serif" font-size="10.00">+ TaskDiagnostics()</text>
<text text-anchor="start" x="2089.5" y="-128.5" font-family="Helvetica,sans-Serif" font-size="10.00">+ ~TaskDiagnostics()</text>
<text text-anchor="start" x="2089.5" y="-117.5" font-family="Helvetica,sans-Serif" font-size="10.00">+ initialize()</text>
<text text-anchor="start" x="2089.5" y="-106.5" font-family="Helvetica,sans-Serif" font-size="10.00">+ startOfActivity()</text>
<text text-anchor="start" x="2089.5" y="-95.5" font-family="Helvetica,sans-Serif" font-size="10.00">+ startOfCycle()</text>
<text text-anchor="start" x="2089.5" y="-84.5" font-family="Helvetica,sans-Serif" font-size="10.00">+ monitorData()</text>
<text text-anchor="start" x="2089.5" y="-73.5" font-family="Helvetica,sans-Serif" font-size="10.00">+ endOfCycle()</text>
<text text-anchor="start" x="2089.5" y="-62.5" font-family="Helvetica,sans-Serif" font-size="10.00">+ endOfActivity()</text>
<text text-anchor="start" x="2089.5" y="-51.5" font-family="Helvetica,sans-Serif" font-size="10.00">+ reset()</text>
</a>
</g>
</g>
<!-- Node1&#45;&gt;Node15 -->
<g id="edge14" class="edge"><title>Node1&#45;&gt;Node15</title>
<path fill="none" stroke="midnightblue" d="M1538.33,-418.256C1660.86,-404.844 1906.37,-364.091 2073,-245 2089.5,-233.204 2103.97,-217.218 2116.1,-200.721"/>
<polygon fill="none" stroke="midnightblue" points="1537.87,-414.786 1528.3,-419.324 1538.61,-421.746 1537.87,-414.786"/>
</g>
<!-- Node16 -->
<g id="node16" class="node"><title>Node16</title>
<g id="a_node16"><a xlink:href="classo2_1_1quality__control__modules_1_1tof_1_1TOFTask.html" target="_top" xlink:title="TOF Quality Control DPL Task. ">
<polygon fill="none" stroke="black" points="2255,-0.5 2255,-244.5 2395,-244.5 2395,-0.5 2255,-0.5"/>
<text text-anchor="start" x="2263" y="-232.5" font-family="Helvetica,sans-Serif" font-size="10.00">o2::quality_control</text>
<text text-anchor="middle" x="2325" y="-221.5" font-family="Helvetica,sans-Serif" font-size="10.00">_modules::tof::TOFTask</text>
<polyline fill="none" stroke="black" points="2255,-214.5 2395,-214.5 "/>
<text text-anchor="start" x="2263" y="-202.5" font-family="Helvetica,sans-Serif" font-size="10.00">+ fgNbinsMultiplicity</text>
<text text-anchor="start" x="2263" y="-191.5" font-family="Helvetica,sans-Serif" font-size="10.00">+ fgRangeMinMultiplicity</text>
<text text-anchor="start" x="2263" y="-180.5" font-family="Helvetica,sans-Serif" font-size="10.00">+ fgRangeMaxMultiplicity</text>
<text text-anchor="start" x="2263" y="-169.5" font-family="Helvetica,sans-Serif" font-size="10.00">+ fgNbinsTime</text>
<text text-anchor="start" x="2263" y="-158.5" font-family="Helvetica,sans-Serif" font-size="10.00">+ fgkNbinsWidthTime</text>
<text text-anchor="start" x="2263" y="-147.5" font-family="Helvetica,sans-Serif" font-size="10.00">+ fgRangeMinTime</text>
<text text-anchor="start" x="2263" y="-136.5" font-family="Helvetica,sans-Serif" font-size="10.00">+ fgRangeMaxTime</text>
<text text-anchor="start" x="2263" y="-125.5" font-family="Helvetica,sans-Serif" font-size="10.00">+ fgCutNmaxFiredMacropad</text>
<text text-anchor="start" x="2263" y="-114.5" font-family="Helvetica,sans-Serif" font-size="10.00">+ fgkFiredMacropadLimit</text>
<polyline fill="none" stroke="black" points="2255,-107.5 2395,-107.5 "/>
<text text-anchor="start" x="2263" y="-95.5" font-family="Helvetica,sans-Serif" font-size="10.00">+ TOFTask()</text>
<text text-anchor="start" x="2263" y="-84.5" font-family="Helvetica,sans-Serif" font-size="10.00">+ ~TOFTask()</text>
<text text-anchor="start" x="2263" y="-73.5" font-family="Helvetica,sans-Serif" font-size="10.00">+ initialize()</text>
<text text-anchor="start" x="2263" y="-62.5" font-family="Helvetica,sans-Serif" font-size="10.00">+ startOfActivity()</text>
<text text-anchor="start" x="2263" y="-51.5" font-family="Helvetica,sans-Serif" font-size="10.00">+ startOfCycle()</text>
<text text-anchor="start" x="2263" y="-40.5" font-family="Helvetica,sans-Serif" font-size="10.00">+ monitorData()</text>
<text text-anchor="start" x="2263" y="-29.5" font-family="Helvetica,sans-Serif" font-size="10.00">+ endOfCycle()</text>
<text text-anchor="start" x="2263" y="-18.5" font-family="Helvetica,sans-Serif" font-size="10.00">+ endOfActivity()</text>
<text text-anchor="start" x="2263" y="-7.5" font-family="Helvetica,sans-Serif" font-size="10.00">+ reset()</text>
</a>
</g>
</g>
<!-- Node1&#45;&gt;Node16 -->
<g id="edge15" class="edge"><title>Node1&#45;&gt;Node16</title>
<path fill="none" stroke="midnightblue" d="M1538.45,-425.295C1687.32,-423.248 2023.68,-400.32 2246,-245 2248.99,-242.911 2251.9,-240.668 2254.72,-238.296"/>
<polygon fill="none" stroke="midnightblue" points="1538.02,-421.8 1528.06,-425.408 1538.1,-428.799 1538.02,-421.8"/>
</g>
<!-- Node17 -->
<g id="node17" class="node"><title>Node17</title>
<g id="a_node17"><a xlink:href="classo2_1_1quality__control__modules_1_1tof_1_1TOFTaskCompressed.html" target="_top" xlink:title="TOF Quality Control DPL Task for TOF Compressed data. ">
<polygon fill="none" stroke="black" points="2413.5,-44.5 2413.5,-200.5 2592.5,-200.5 2592.5,-44.5 2413.5,-44.5"/>
<text text-anchor="start" x="2421.5" y="-188.5" font-family="Helvetica,sans-Serif" font-size="10.00">o2::quality_control</text>
<text text-anchor="middle" x="2503" y="-177.5" font-family="Helvetica,sans-Serif" font-size="10.00">_modules::tof::TOFTaskCompressed</text>
<polyline fill="none" stroke="black" points="2413.5,-170.5 2592.5,-170.5 "/>
<text text-anchor="middle" x="2503" y="-158.5" font-family="Helvetica,sans-Serif" font-size="10.00"> </text>
<polyline fill="none" stroke="black" points="2413.5,-151.5 2592.5,-151.5 "/>
<text text-anchor="start" x="2421.5" y="-139.5" font-family="Helvetica,sans-Serif" font-size="10.00">+ TOFTaskCompressed()</text>
<text text-anchor="start" x="2421.5" y="-128.5" font-family="Helvetica,sans-Serif" font-size="10.00">+ ~TOFTaskCompressed()</text>
<text text-anchor="start" x="2421.5" y="-117.5" font-family="Helvetica,sans-Serif" font-size="10.00">+ initialize()</text>
<text text-anchor="start" x="2421.5" y="-106.5" font-family="Helvetica,sans-Serif" font-size="10.00">+ startOfActivity()</text>
<text text-anchor="start" x="2421.5" y="-95.5" font-family="Helvetica,sans-Serif" font-size="10.00">+ startOfCycle()</text>
<text text-anchor="start" x="2421.5" y="-84.5" font-family="Helvetica,sans-Serif" font-size="10.00">+ monitorData()</text>
<text text-anchor="start" x="2421.5" y="-73.5" font-family="Helvetica,sans-Serif" font-size="10.00">+ endOfCycle()</text>
<text text-anchor="start" x="2421.5" y="-62.5" font-family="Helvetica,sans-Serif" font-size="10.00">+ endOfActivity()</text>
<text text-anchor="start" x="2421.5" y="-51.5" font-family="Helvetica,sans-Serif" font-size="10.00">+ reset()</text>
</a>
</g>
</g>
<!-- Node1&#45;&gt;Node17 -->
<g id="edge16" class="edge"><title>Node1&#45;&gt;Node17</title>
<path fill="none" stroke="midnightblue" d="M1538.24,-416.845C1734.41,-395.844 2256.48,-332.984 2404,-245 2422.81,-233.78 2439.58,-217.602 2453.73,-200.694"/>
<polygon fill="none" stroke="midnightblue" points="1537.6,-413.393 1528.03,-417.931 1538.35,-420.353 1537.6,-413.393"/>
</g>
<!-- Node18 -->
<g id="node18" class="node"><title>Node18</title>
<g id="a_node18"><a xlink:href="classo2_1_1quality__control__modules_1_1tpc_1_1PID.html" target="_top" xlink:title="TPC PID QC Task It is final because there is no reason to derive from it. Just remove it if needed...">
<polygon fill="none" stroke="black" points="2610.5,-44.5 2610.5,-200.5 2711.5,-200.5 2711.5,-44.5 2610.5,-44.5"/>
<text text-anchor="start" x="2618.5" y="-188.5" font-family="Helvetica,sans-Serif" font-size="10.00">o2::quality_control</text>
<text text-anchor="middle" x="2661" y="-177.5" font-family="Helvetica,sans-Serif" font-size="10.00">_modules::tpc::PID</text>
<polyline fill="none" stroke="black" points="2610.5,-170.5 2711.5,-170.5 "/>
<text text-anchor="middle" x="2661" y="-158.5" font-family="Helvetica,sans-Serif" font-size="10.00"> </text>
<polyline fill="none" stroke="black" points="2610.5,-151.5 2711.5,-151.5 "/>
<text text-anchor="start" x="2618.5" y="-139.5" font-family="Helvetica,sans-Serif" font-size="10.00">+ PID()</text>
<text text-anchor="start" x="2618.5" y="-128.5" font-family="Helvetica,sans-Serif" font-size="10.00">+ ~PID()</text>
<text text-anchor="start" x="2618.5" y="-117.5" font-family="Helvetica,sans-Serif" font-size="10.00">+ initialize()</text>
<text text-anchor="start" x="2618.5" y="-106.5" font-family="Helvetica,sans-Serif" font-size="10.00">+ startOfActivity()</text>
<text text-anchor="start" x="2618.5" y="-95.5" font-family="Helvetica,sans-Serif" font-size="10.00">+ startOfCycle()</text>
<text text-anchor="start" x="2618.5" y="-84.5" font-family="Helvetica,sans-Serif" font-size="10.00">+ monitorData()</text>
<text text-anchor="start" x="2618.5" y="-73.5" font-family="Helvetica,sans-Serif" font-size="10.00">+ endOfCycle()</text>
<text text-anchor="start" x="2618.5" y="-62.5" font-family="Helvetica,sans-Serif" font-size="10.00">+ endOfActivity()</text>
<text text-anchor="start" x="2618.5" y="-51.5" font-family="Helvetica,sans-Serif" font-size="10.00">+ reset()</text>
</a>
</g>
</g>
<!-- Node1&#45;&gt;Node18 -->
<g id="edge17" class="edge"><title>Node1&#45;&gt;Node18</title>
<path fill="none" stroke="midnightblue" d="M1538.47,-421.554C1764.65,-411.372 2431.79,-371.075 2602,-245 2617.17,-233.764 2628.63,-217.581 2637.22,-200.672"/>
<polygon fill="none" stroke="midnightblue" points="1538.19,-418.063 1528.36,-422.002 1538.5,-425.056 1538.19,-418.063"/>
</g>
<!-- Node19 -->
<g id="node19" class="node"><title>Node19</title>
<g id="a_node19"><a xlink:href="classo2_1_1quality__control__modules_1_1tpc_1_1Tracks.html" target="_top" xlink:title="Quality Control DPL Task for QC Module TPC for track related observables. ">
<polygon fill="none" stroke="black" points="2730,-44.5 2730,-200.5 2844,-200.5 2844,-44.5 2730,-44.5"/>
<text text-anchor="start" x="2738" y="-188.5" font-family="Helvetica,sans-Serif" font-size="10.00">o2::quality_control</text>
<text text-anchor="middle" x="2787" y="-177.5" font-family="Helvetica,sans-Serif" font-size="10.00">_modules::tpc::Tracks</text>
<polyline fill="none" stroke="black" points="2730,-170.5 2844,-170.5 "/>
<text text-anchor="middle" x="2787" y="-158.5" font-family="Helvetica,sans-Serif" font-size="10.00"> </text>
<polyline fill="none" stroke="black" points="2730,-151.5 2844,-151.5 "/>
<text text-anchor="start" x="2738" y="-139.5" font-family="Helvetica,sans-Serif" font-size="10.00">+ Tracks()</text>
<text text-anchor="start" x="2738" y="-128.5" font-family="Helvetica,sans-Serif" font-size="10.00">+ ~Tracks()</text>
<text text-anchor="start" x="2738" y="-117.5" font-family="Helvetica,sans-Serif" font-size="10.00">+ initialize()</text>
<text text-anchor="start" x="2738" y="-106.5" font-family="Helvetica,sans-Serif" font-size="10.00">+ startOfActivity()</text>
<text text-anchor="start" x="2738" y="-95.5" font-family="Helvetica,sans-Serif" font-size="10.00">+ startOfCycle()</text>
<text text-anchor="start" x="2738" y="-84.5" font-family="Helvetica,sans-Serif" font-size="10.00">+ monitorData()</text>
<text text-anchor="start" x="2738" y="-73.5" font-family="Helvetica,sans-Serif" font-size="10.00">+ endOfCycle()</text>
<text text-anchor="start" x="2738" y="-62.5" font-family="Helvetica,sans-Serif" font-size="10.00">+ endOfActivity()</text>
<text text-anchor="start" x="2738" y="-51.5" font-family="Helvetica,sans-Serif" font-size="10.00">+ reset()</text>
</a>
</g>
</g>
<!-- Node1&#45;&gt;Node19 -->
<g id="edge18" class="edge"><title>Node1&#45;&gt;Node19</title>
<path fill="none" stroke="midnightblue" d="M1538.07,-422.463C1778.83,-414.62 2527.24,-379.691 2721,-245 2736.97,-233.902 2749.44,-217.663 2759.02,-200.648"/>
<polygon fill="none" stroke="midnightblue" points="1537.89,-418.966 1528.01,-422.784 1538.12,-425.963 1537.89,-418.966"/>
</g>
</g>
</svg>
