<?xml version="1.0" encoding="UTF-8" standalone="no"?>
<!DOCTYPE svg PUBLIC "-//W3C//DTD SVG 1.1//EN"
 "http://www.w3.org/Graphics/SVG/1.1/DTD/svg11.dtd">
<!-- Generated by graphviz version 2.38.0 (20140413.2041)
 -->
<!-- Title: Modules/Daq/include/Daq/DaqTask.h Pages: 1 -->
<!--zoomable 263 -->
<svg id="main" version="1.1" xmlns="http://www.w3.org/2000/svg" xmlns:xlink="http://www.w3.org/1999/xlink" xml:space="preserve" onload="init(evt)">
<style type="text/css"><![CDATA[
.edge:hover path { stroke: red; }
.edge:hover polygon { stroke: red; fill: red; }
]]></style>
<script type="text/javascript"><![CDATA[
var edges = document.getElementsByTagName('g');
if (edges && edges.length) {
  for (var i=0;i<edges.length;i++) {
    if (edges[i].id.substr(0,4)=='edge') {
      edges[i].setAttribute('class','edge');
    }
  }
}
]]></script>
        <defs>
                <circle id="rim" cx="0" cy="0" r="7"/>
                <circle id="rim2" cx="0" cy="0" r="3.5"/>
                <g id="zoomPlus">
                        <use xlink:href="#rim" fill="#404040">
                                <set attributeName="fill" to="#808080" begin="zoomplus.mouseover" end="zoomplus.mouseout"/>
                        </use>
                        <path d="M-4,0h8M0,-4v8" fill="none" stroke="white" stroke-width="1.5" pointer-events="none"/>
                </g>
                <g id="zoomMin">
                        <use xlink:href="#rim" fill="#404040">
                                <set attributeName="fill" to="#808080" begin="zoomminus.mouseover" end="zoomminus.mouseout"/>
                        </use>
                        <path d="M-4,0h8" fill="none" stroke="white" stroke-width="1.5" pointer-events="none"/>
                </g>
                <g id="dirArrow">
                        <path fill="none" stroke="white" stroke-width="1.5" d="M0,-3.0v7 M-2.5,-0.5L0,-3.0L2.5,-0.5"/>
                </g>
               <g id="resetDef">
                       <use xlink:href="#rim2" fill="#404040">
                               <set attributeName="fill" to="#808080" begin="reset.mouseover" end="reset.mouseout"/>
                       </use>
               </g>
        </defs>

<script type="text/javascript">
var viewWidth = 827;
var viewHeight = 263;
var sectionId = 'dynsection-0';
</script>
<script xlink:href="svgpan.js"/>
<svg id="graph" class="graph">
<g id="viewport">
<title>Modules/Daq/include/Daq/DaqTask.h</title>
<!-- Node1 -->
<g id="node1" class="node"><title>Node1</title>
<polygon fill="#bfbfbf" stroke="black" points="94.1179,-224.5 94.1179,-254.5 202.118,-254.5 202.118,-224.5 94.1179,-224.5"/>
<text text-anchor="start" x="102.118" y="-242.5" font-family="Helvetica,sans-Serif" font-size="10.00">Modules/Daq/include</text>
<text text-anchor="middle" x="148.118" y="-231.5" font-family="Helvetica,sans-Serif" font-size="10.00">/Daq/DaqTask.h</text>
</g>
<!-- Node2 -->
<g id="node2" class="node"><title>Node2</title>
<g id="a_node2"><a xlink:href="TaskInterface_8h.html" target="_top" xlink:title="QualityControl/TaskInterface.h">
<polygon fill="none" stroke="black" points="73.1179,-168.5 73.1179,-187.5 223.118,-187.5 223.118,-168.5 73.1179,-168.5"/>
<text text-anchor="middle" x="148.118" y="-175.5" font-family="Helvetica,sans-Serif" font-size="10.00">QualityControl/TaskInterface.h</text>
</a>
</g>
</g>
<!-- Node1&#45;&gt;Node2 -->
<g id="edge1" class="edge"><title>Node1&#45;&gt;Node2</title>
<path fill="none" stroke="midnightblue" d="M148.118,-224.399C148.118,-216.466 148.118,-206.458 148.118,-197.858"/>
<polygon fill="midnightblue" stroke="midnightblue" points="151.618,-197.658 148.118,-187.658 144.618,-197.658 151.618,-197.658"/>
</g>
<!-- Node3 -->
<g id="node3" class="node"><title>Node3</title>
<polygon fill="none" stroke="#bfbfbf" points="281.618,-0.5 281.618,-19.5 316.618,-19.5 316.618,-0.5 281.618,-0.5"/>
<text text-anchor="middle" x="299.118" y="-7.5" font-family="Helvetica,sans-Serif" font-size="10.00">map</text>
</g>
<!-- Node2&#45;&gt;Node3 -->
<g id="edge2" class="edge"><title>Node2&#45;&gt;Node3</title>
<path fill="none" stroke="midnightblue" d="M105.728,-168.451C85.537,-162.022 63.2057,-150.933 51.1179,-132 32.9411,-103.53 29.4703,-81.9291 51.1179,-56 78.9709,-22.6382 212.911,-13.9562 271.538,-11.7405"/>
<polygon fill="midnightblue" stroke="midnightblue" points="271.691,-15.2374 281.566,-11.3975 271.452,-8.24147 271.691,-15.2374"/>
</g>
<!-- Node4 -->
<g id="node4" class="node"><title>Node4</title>
<polygon fill="none" stroke="#bfbfbf" points="144.118,-56.5 144.118,-75.5 196.118,-75.5 196.118,-56.5 144.118,-56.5"/>
<text text-anchor="middle" x="170.118" y="-63.5" font-family="Helvetica,sans-Serif" font-size="10.00">memory</text>
</g>
<!-- Node2&#45;&gt;Node4 -->
<g id="edge3" class="edge"><title>Node2&#45;&gt;Node4</title>
<path fill="none" stroke="midnightblue" d="M139.952,-168.103C129.447,-155.522 113.518,-131.851 122.118,-112 127.386,-99.8399 137.737,-89.4594 147.483,-81.7429"/>
<polygon fill="midnightblue" stroke="midnightblue" points="149.762,-84.4116 155.748,-75.6698 145.617,-78.7707 149.762,-84.4116"/>
</g>
<!-- Node5 -->
<g id="node5" class="node"><title>Node5</title>
<polygon fill="none" stroke="#bfbfbf" points="411.618,-0.5 411.618,-19.5 452.618,-19.5 452.618,-0.5 411.618,-0.5"/>
<text text-anchor="middle" x="432.118" y="-7.5" font-family="Helvetica,sans-Serif" font-size="10.00">string</text>
</g>
<!-- Node2&#45;&gt;Node5 -->
<g id="edge4" class="edge"><title>Node2&#45;&gt;Node5</title>
<path fill="none" stroke="midnightblue" d="M139.366,-168.286C131.555,-159.84 120.667,-146.246 116.118,-132 105.527,-98.8324 108.422,-78.3509 135.118,-56 155.371,-39.0433 329.585,-20.7414 401.384,-13.8438"/>
<polygon fill="midnightblue" stroke="midnightblue" points="401.973,-17.3037 411.597,-12.8734 401.311,-10.3351 401.973,-17.3037"/>
</g>
<!-- Node6 -->
<g id="node6" class="node"><title>Node6</title>
<polygon fill="none" stroke="#bfbfbf" points="25.6179,-0.5 25.6179,-19.5 108.618,-19.5 108.618,-0.5 25.6179,-0.5"/>
<text text-anchor="middle" x="67.1179" y="-7.5" font-family="Helvetica,sans-Serif" font-size="10.00">unordered_map</text>
</g>
<!-- Node2&#45;&gt;Node6 -->
<g id="edge5" class="edge"><title>Node2&#45;&gt;Node6</title>
<path fill="none" stroke="midnightblue" d="M72.7917,-168.984C49.9055,-162.61 27.13,-151.441 13.1179,-132 -6.6323,-104.598 -1.20911,-86.5888 13.1179,-56 19.1627,-43.0941 30.9298,-32.5985 41.9405,-24.9999"/>
<polygon fill="midnightblue" stroke="midnightblue" points="43.9455,-27.8723 50.4849,-19.5364 40.1745,-21.9748 43.9455,-27.8723"/>
</g>
<!-- Node7 -->
<g id="node7" class="node"><title>Node7</title>
<polygon fill="none" stroke="#bfbfbf" points="131.618,-112.5 131.618,-131.5 256.618,-131.5 256.618,-112.5 131.618,-112.5"/>
<text text-anchor="middle" x="194.118" y="-119.5" font-family="Helvetica,sans-Serif" font-size="10.00">Framework/InitContext.h</text>
</g>
<!-- Node2&#45;&gt;Node7 -->
<g id="edge6" class="edge"><title>Node2&#45;&gt;Node7</title>
<path fill="none" stroke="midnightblue" d="M155.714,-168.083C162.345,-160.298 172.139,-148.801 180.176,-139.367"/>
<polygon fill="midnightblue" stroke="midnightblue" points="182.843,-141.633 186.663,-131.751 177.514,-137.094 182.843,-141.633"/>
</g>
<!-- Node8 -->
<g id="node8" class="node"><title>Node8</title>
<polygon fill="none" stroke="#bfbfbf" points="275.118,-112.5 275.118,-131.5 435.118,-131.5 435.118,-112.5 275.118,-112.5"/>
<text text-anchor="middle" x="355.118" y="-119.5" font-family="Helvetica,sans-Serif" font-size="10.00">Framework/ProcessingContext.h</text>
</g>
<!-- Node2&#45;&gt;Node8 -->
<g id="edge7" class="edge"><title>Node2&#45;&gt;Node8</title>
<path fill="none" stroke="midnightblue" d="M180.918,-168.444C216.498,-159.162 273.432,-144.309 312.465,-134.127"/>
<polygon fill="midnightblue" stroke="midnightblue" points="313.679,-137.427 322.472,-131.516 311.912,-130.654 313.679,-137.427"/>
</g>
<!-- Node9 -->
<g id="node9" class="node"><title>Node9</title>
<g id="a_node9"><a xlink:href="Activity_8h.html" target="_top" xlink:title="QualityControl/Activity.h">
<polygon fill="none" stroke="black" points="453.618,-112.5 453.618,-131.5 576.618,-131.5 576.618,-112.5 453.618,-112.5"/>
<text text-anchor="middle" x="515.118" y="-119.5" font-family="Helvetica,sans-Serif" font-size="10.00">QualityControl/Activity.h</text>
</a>
</g>
</g>
<!-- Node2&#45;&gt;Node9 -->
<g id="edge8" class="edge"><title>Node2&#45;&gt;Node9</title>
<path fill="none" stroke="midnightblue" d="M206.27,-168.444C271.769,-158.806 378.081,-143.163 447.303,-132.978"/>
<polygon fill="midnightblue" stroke="midnightblue" points="447.854,-136.435 457.238,-131.516 446.835,-129.51 447.854,-136.435"/>
</g>
<!-- Node10 -->
<g id="node10" class="node"><title>Node10</title>
<g id="a_node10"><a xlink:href="ObjectsManager_8h.html" target="_top" xlink:title="QualityControl/ObjectsManager.h">
<polygon fill="none" stroke="black" points="594.618,-112.5 594.618,-131.5 755.618,-131.5 755.618,-112.5 594.618,-112.5"/>
<text text-anchor="middle" x="675.118" y="-119.5" font-family="Helvetica,sans-Serif" font-size="10.00">QualityControl/ObjectsManager.h</text>
</a>
</g>
</g>
<!-- Node2&#45;&gt;Node10 -->
<g id="edge9" class="edge"><title>Node2&#45;&gt;Node10</title>
<path fill="none" stroke="midnightblue" d="M223.344,-169.292C318.572,-159.534 482.474,-142.74 584.493,-132.286"/>
<polygon fill="midnightblue" stroke="midnightblue" points="584.883,-135.765 594.474,-131.263 584.169,-128.801 584.883,-135.765"/>
</g>
<!-- Node10&#45;&gt;Node4 -->
<g id="edge23" class="edge"><title>Node10&#45;&gt;Node4</title>
<path fill="none" stroke="midnightblue" d="M595.378,-112.473C484.323,-100.598 287.613,-79.5638 206.57,-70.8979"/>
<polygon fill="midnightblue" stroke="midnightblue" points="206.687,-67.3905 196.372,-69.8074 205.943,-74.3509 206.687,-67.3905"/>
</g>
<!-- Node10&#45;&gt;Node5 -->
<g id="edge22" class="edge"><title>Node10&#45;&gt;Node5</title>
<path fill="none" stroke="midnightblue" d="M616.867,-112.481C554.653,-102.887 463.303,-87.1783 451.118,-76 438.277,-64.2199 433.936,-44.2915 432.557,-29.5992"/>
<polygon fill="midnightblue" stroke="midnightblue" points="436.051,-29.391 431.988,-19.6061 429.062,-29.7889 436.051,-29.391"/>
</g>
<!-- Node11 -->
<g id="node11" class="node"><title>Node11</title>
<g id="a_node11"><a xlink:href="MonitorObject_8h.html" target="_top" xlink:title="QualityControl/MonitorObject.h">
<polygon fill="none" stroke="black" points="599.618,-56.5 599.618,-75.5 750.618,-75.5 750.618,-56.5 599.618,-56.5"/>
<text text-anchor="middle" x="675.118" y="-63.5" font-family="Helvetica,sans-Serif" font-size="10.00">QualityControl/MonitorObject.h</text>
</a>
</g>
</g>
<!-- Node10&#45;&gt;Node11 -->
<g id="edge10" class="edge"><title>Node10&#45;&gt;Node11</title>
<path fill="none" stroke="midnightblue" d="M675.118,-112.083C675.118,-105.006 675.118,-94.8611 675.118,-85.9865"/>
<polygon fill="midnightblue" stroke="midnightblue" points="678.618,-85.751 675.118,-75.7511 671.618,-85.7511 678.618,-85.751"/>
</g>
<!-- Node15 -->
<g id="node15" class="node"><title>Node15</title>
<g id="a_node15"><a xlink:href="Quality_8h.html" target="_top" xlink:title="QualityControl/Quality.h">
<polygon fill="none" stroke="black" points="460.618,-56.5 460.618,-75.5 581.618,-75.5 581.618,-56.5 460.618,-56.5"/>
<text text-anchor="middle" x="521.118" y="-63.5" font-family="Helvetica,sans-Serif" font-size="10.00">QualityControl/Quality.h</text>
</a>
</g>
</g>
<!-- Node10&#45;&gt;Node15 -->
<g id="edge16" class="edge"><title>Node10&#45;&gt;Node15</title>
<path fill="none" stroke="midnightblue" d="M650.716,-112.444C624.921,-103.399 584.041,-89.064 555.1,-78.9158"/>
<polygon fill="midnightblue" stroke="midnightblue" points="556,-75.5226 545.406,-75.5164 553.684,-82.1283 556,-75.5226"/>
</g>
<!-- Node16 -->
<g id="node16" class="node"><title>Node16</title>
<g id="a_node16"><a xlink:href="TaskConfig_8h.html" target="_top" xlink:title="QualityControl/TaskConfig.h">
<polygon fill="none" stroke="black" points="264.118,-56.5 264.118,-75.5 404.118,-75.5 404.118,-56.5 264.118,-56.5"/>
<text text-anchor="middle" x="334.118" y="-63.5" font-family="Helvetica,sans-Serif" font-size="10.00">QualityControl/TaskConfig.h</text>
</a>
</g>
</g>
<!-- Node10&#45;&gt;Node16 -->
<g id="edge19" class="edge"><title>Node10&#45;&gt;Node16</title>
<path fill="none" stroke="midnightblue" d="M621.085,-112.444C560.476,-102.846 462.255,-87.2916 397.921,-77.1037"/>
<polygon fill="midnightblue" stroke="midnightblue" points="398.322,-73.6237 387.898,-75.5164 397.227,-80.5375 398.322,-73.6237"/>
</g>
<!-- Node11&#45;&gt;Node3 -->
<g id="edge12" class="edge"><title>Node11&#45;&gt;Node3</title>
<path fill="none" stroke="midnightblue" d="M615.54,-56.4435C533.104,-44.6044 387.566,-23.7026 326.891,-14.9887"/>
<polygon fill="midnightblue" stroke="midnightblue" points="327.308,-11.5127 316.912,-13.5555 326.313,-18.4416 327.308,-11.5127"/>
</g>
<!-- Node11&#45;&gt;Node5 -->
<g id="edge11" class="edge"><title>Node11&#45;&gt;Node5</title>
<path fill="none" stroke="midnightblue" d="M636.614,-56.4435C588.419,-45.7335 506.85,-27.6072 462.7,-17.7961"/>
<polygon fill="midnightblue" stroke="midnightblue" points="463.361,-14.3576 452.84,-15.6049 461.843,-21.191 463.361,-14.3576"/>
</g>
<!-- Node12 -->
<g id="node12" class="node"><title>Node12</title>
<polygon fill="none" stroke="#bfbfbf" points="512.118,-0.5 512.118,-19.5 568.118,-19.5 568.118,-0.5 512.118,-0.5"/>
<text text-anchor="middle" x="540.118" y="-7.5" font-family="Helvetica,sans-Serif" font-size="10.00">Rtypes.h</text>
</g>
<!-- Node11&#45;&gt;Node12 -->
<g id="edge13" class="edge"><title>Node11&#45;&gt;Node12</title>
<path fill="none" stroke="midnightblue" d="M653.727,-56.4435C631.411,-47.5171 596.215,-33.4387 570.91,-23.3168"/>
<polygon fill="midnightblue" stroke="midnightblue" points="571.994,-19.9807 561.409,-19.5164 569.394,-26.4801 571.994,-19.9807"/>
</g>
<!-- Node13 -->
<g id="node13" class="node"><title>Node13</title>
<polygon fill="none" stroke="#bfbfbf" points="625.618,-0.5 625.618,-19.5 684.618,-19.5 684.618,-0.5 625.618,-0.5"/>
<text text-anchor="middle" x="655.118" y="-7.5" font-family="Helvetica,sans-Serif" font-size="10.00">TObject.h</text>
</g>
<!-- Node11&#45;&gt;Node13 -->
<g id="edge14" class="edge"><title>Node11&#45;&gt;Node13</title>
<path fill="none" stroke="midnightblue" d="M671.815,-56.083C669.136,-48.8486 665.269,-38.4087 661.932,-29.3968"/>
<polygon fill="midnightblue" stroke="midnightblue" points="665.114,-27.9129 658.359,-19.7511 658.55,-30.3442 665.114,-27.9129"/>
</g>
<!-- Node14 -->
<g id="node14" class="node"><title>Node14</title>
<polygon fill="none" stroke="#bfbfbf" points="703.118,-0.5 703.118,-19.5 819.118,-19.5 819.118,-0.5 703.118,-0.5"/>
<text text-anchor="middle" x="761.118" y="-7.5" font-family="Helvetica,sans-Serif" font-size="10.00">Common/Exceptions.h</text>
</g>
<!-- Node11&#45;&gt;Node14 -->
<g id="edge15" class="edge"><title>Node11&#45;&gt;Node14</title>
<path fill="none" stroke="midnightblue" d="M688.935,-56.324C702.351,-47.9002 722.942,-34.9709 738.704,-25.0741"/>
<polygon fill="midnightblue" stroke="midnightblue" points="740.727,-27.9364 747.335,-19.6545 737.005,-22.0081 740.727,-27.9364"/>
</g>
<!-- Node15&#45;&gt;Node5 -->
<g id="edge18" class="edge"><title>Node15&#45;&gt;Node5</title>
<path fill="none" stroke="midnightblue" d="M506.819,-56.324C492.935,-47.9002 471.626,-34.9709 455.314,-25.0741"/>
<polygon fill="midnightblue" stroke="midnightblue" points="456.747,-21.8495 446.382,-19.6545 453.116,-27.8341 456.747,-21.8495"/>
</g>
<!-- Node15&#45;&gt;Node12 -->
<g id="edge17" class="edge"><title>Node15&#45;&gt;Node12</title>
<path fill="none" stroke="midnightblue" d="M524.255,-56.083C526.801,-48.8486 530.474,-38.4087 533.645,-29.3968"/>
<polygon fill="midnightblue" stroke="midnightblue" points="537.021,-30.3459 537.039,-19.7511 530.418,-28.0225 537.021,-30.3459"/>
</g>
<!-- Node16&#45;&gt;Node5 -->
<g id="edge20" class="edge"><title>Node16&#45;&gt;Node5</title>
<path fill="none" stroke="midnightblue" d="M349.863,-56.324C365.437,-47.7428 389.495,-34.486 407.577,-24.5224"/>
<polygon fill="midnightblue" stroke="midnightblue" points="409.342,-27.546 416.412,-19.6545 405.964,-21.4152 409.342,-27.546"/>
</g>
<!-- Node16&#45;&gt;Node6 -->
<g id="edge21" class="edge"><title>Node16&#45;&gt;Node6</title>
<path fill="none" stroke="midnightblue" d="M291.811,-56.4435C244.901,-46.9561 169.214,-31.6487 118.824,-21.4574"/>
<polygon fill="midnightblue" stroke="midnightblue" points="119.283,-17.9794 108.787,-19.4275 117.895,-24.8405 119.283,-17.9794"/>
</g>
</g>
</svg>
        <g id="navigator" transform="translate(0 0)" fill="#404254">
                <rect fill="#f2f5e9" fill-opacity="0.5" stroke="#606060" stroke-width=".5" x="0" y="0" width="60" height="60"/>
                <use id="zoomplus" xlink:href="#zoomPlus" x="17" y="9" onmousedown="handleZoom(evt,'in')"/>
                <use id="zoomminus" xlink:href="#zoomMin" x="42" y="9" onmousedown="handleZoom(evt,'out')"/>
                <use id="reset" xlink:href="#resetDef" x="30" y="36" onmousedown="handleReset()"/>
                <g id="arrowUp" xlink:href="#dirArrow" transform="translate(30 24)" onmousedown="handlePan(0,-1)">
                  <use xlink:href="#rim" fill="#404040">
                        <set attributeName="fill" to="#808080" begin="arrowUp.mouseover" end="arrowUp.mouseout"/>
                  </use>
                  <path fill="none" stroke="white" stroke-width="1.5" d="M0,-3.0v7 M-2.5,-0.5L0,-3.0L2.5,-0.5"/>
                </g>
                <g id="arrowRight" xlink:href="#dirArrow" transform="rotate(90) translate(36 -43)" onmousedown="handlePan(1,0)">
                  <use xlink:href="#rim" fill="#404040">
                        <set attributeName="fill" to="#808080" begin="arrowRight.mouseover" end="arrowRight.mouseout"/>
                  </use>
                  <path fill="none" stroke="white" stroke-width="1.5" d="M0,-3.0v7 M-2.5,-0.5L0,-3.0L2.5,-0.5"/>
                </g>
                <g id="arrowDown" xlink:href="#dirArrow" transform="rotate(180) translate(-30 -48)" onmousedown="handlePan(0,1)">
                  <use xlink:href="#rim" fill="#404040">
                        <set attributeName="fill" to="#808080" begin="arrowDown.mouseover" end="arrowDown.mouseout"/>
                  </use>
                  <path fill="none" stroke="white" stroke-width="1.5" d="M0,-3.0v7 M-2.5,-0.5L0,-3.0L2.5,-0.5"/>
                </g>
                <g id="arrowLeft" xlink:href="#dirArrow" transform="rotate(270) translate(-36 17)" onmousedown="handlePan(-1,0)">
                  <use xlink:href="#rim" fill="#404040">
                        <set attributeName="fill" to="#808080" begin="arrowLeft.mouseover" end="arrowLeft.mouseout"/>
                  </use>
                  <path fill="none" stroke="white" stroke-width="1.5" d="M0,-3.0v7 M-2.5,-0.5L0,-3.0L2.5,-0.5"/>
                </g>
        </g>
        <svg viewBox="0 0 15 15" width="100%" height="30px" preserveAspectRatio="xMaxYMin meet">
         <g id="arrow_out" transform="scale(0.3 0.3)">
          <a xlink:href="DaqTask_8h__incl_org.svg" target="_base">
           <rect id="button" ry="5" rx="5" y="6" x="6" height="38" width="38"
                fill="#f2f5e9" fill-opacity="0.5" stroke="#606060" stroke-width="1.0"/>
           <path id="arrow"
             d="M 11.500037,31.436501 C 11.940474,20.09759 22.043105,11.32322 32.158766,21.979434 L 37.068811,17.246167 C 37.068811,17.246167 37.088388,32 37.088388,32 L 22.160133,31.978069 C 22.160133,31.978069 26.997745,27.140456 26.997745,27.140456 C 18.528582,18.264221 13.291696,25.230495 11.500037,31.436501 z"
             style="fill:#404040;"/>
          </a>
         </g>
        </svg>
</svg>
