<?xml version="1.0" encoding="UTF-8" standalone="no"?>
<!DOCTYPE svg PUBLIC "-//W3C//DTD SVG 1.1//EN"
 "http://www.w3.org/Graphics/SVG/1.1/DTD/svg11.dtd">
<!-- Generated by graphviz version 2.38.0 (20140413.2041)
 -->
<!-- Title: Framework/include/QualityControl/DatabaseInterface.h Pages: 1 -->
<!--zoomable 173 -->
<svg id="main" version="1.1" xmlns="http://www.w3.org/2000/svg" xmlns:xlink="http://www.w3.org/1999/xlink" xml:space="preserve" onload="init(evt)">
<style type="text/css"><![CDATA[
.edge:hover path { stroke: red; }
.edge:hover polygon { stroke: red; fill: red; }
]]></style>
<script type="text/javascript"><![CDATA[
var edges = document.getElementsByTagName('g');
if (edges && edges.length) {
  for (var i=0;i<edges.length;i++) {
    if (edges[i].id.substr(0,4)=='edge') {
      edges[i].setAttribute('class','edge');
    }
  }
}
]]></script>
        <defs>
                <circle id="rim" cx="0" cy="0" r="7"/>
                <circle id="rim2" cx="0" cy="0" r="3.5"/>
                <g id="zoomPlus">
                        <use xlink:href="#rim" fill="#404040">
                                <set attributeName="fill" to="#808080" begin="zoomplus.mouseover" end="zoomplus.mouseout"/>
                        </use>
                        <path d="M-4,0h8M0,-4v8" fill="none" stroke="white" stroke-width="1.5" pointer-events="none"/>
                </g>
                <g id="zoomMin">
                        <use xlink:href="#rim" fill="#404040">
                                <set attributeName="fill" to="#808080" begin="zoomminus.mouseover" end="zoomminus.mouseout"/>
                        </use>
                        <path d="M-4,0h8" fill="none" stroke="white" stroke-width="1.5" pointer-events="none"/>
                </g>
                <g id="dirArrow">
                        <path fill="none" stroke="white" stroke-width="1.5" d="M0,-3.0v7 M-2.5,-0.5L0,-3.0L2.5,-0.5"/>
                </g>
               <g id="resetDef">
                       <use xlink:href="#rim2" fill="#404040">
                               <set attributeName="fill" to="#808080" begin="reset.mouseover" end="reset.mouseout"/>
                       </use>
               </g>
        </defs>

<script type="text/javascript">
var viewWidth = 4500;
var viewHeight = 173;
var sectionId = 'dynsection-1';
</script>
<script xlink:href="svgpan.js"/>
<svg id="graph" class="graph">
<g id="viewport">
<title>Framework/include/QualityControl/DatabaseInterface.h</title>
<!-- Node1 -->
<g id="node1" class="node"><title>Node1</title>
<polygon fill="#bfbfbf" stroke="black" points="2483,-134.5 2483,-164.5 2623,-164.5 2623,-134.5 2483,-134.5"/>
<text text-anchor="start" x="2491" y="-152.5" font-family="Helvetica,sans-Serif" font-size="10.00">Framework/include/Quality</text>
<text text-anchor="middle" x="2553" y="-141.5" font-family="Helvetica,sans-Serif" font-size="10.00">Control/DatabaseInterface.h</text>
</g>
<!-- Node2 -->
<g id="node2" class="node"><title>Node2</title>
<g id="a_node2"><a xlink:href="CcdbDatabase_8h.html" target="_top" xlink:title="Framework/include/Quality\lControl/CcdbDatabase.h">
<polygon fill="none" stroke="black" points="771.5,-67.5 771.5,-97.5 904.5,-97.5 904.5,-67.5 771.5,-67.5"/>
<text text-anchor="start" x="779.5" y="-85.5" font-family="Helvetica,sans-Serif" font-size="10.00">Framework/include/Quality</text>
<text text-anchor="middle" x="838" y="-74.5" font-family="Helvetica,sans-Serif" font-size="10.00">Control/CcdbDatabase.h</text>
</a>
</g>
</g>
<!-- Node1&#45;&gt;Node2 -->
<g id="edge1" class="edge"><title>Node1&#45;&gt;Node2</title>
<path fill="none" stroke="midnightblue" d="M2472.44,-145.833C2258.51,-138.697 1658.36,-118.323 1159,-98 1071.07,-94.4214 969.618,-89.7473 904.697,-86.6866"/>
<polygon fill="midnightblue" stroke="midnightblue" points="2472.53,-149.338 2482.64,-146.173 2472.76,-142.342 2472.53,-149.338"/>
</g>
<!-- Node8 -->
<g id="node8" class="node"><title>Node8</title>
<g id="a_node8"><a xlink:href="CheckRunner_8h.html" target="_top" xlink:title="Framework/include/Quality\lControl/CheckRunner.h">
<polygon fill="none" stroke="black" points="2321.5,-67.5 2321.5,-97.5 2454.5,-97.5 2454.5,-67.5 2321.5,-67.5"/>
<text text-anchor="start" x="2329.5" y="-85.5" font-family="Helvetica,sans-Serif" font-size="10.00">Framework/include/Quality</text>
<text text-anchor="middle" x="2388" y="-74.5" font-family="Helvetica,sans-Serif" font-size="10.00">Control/CheckRunner.h</text>
</a>
</g>
</g>
<!-- Node1&#45;&gt;Node8 -->
<g id="edge7" class="edge"><title>Node1&#45;&gt;Node8</title>
<path fill="none" stroke="midnightblue" d="M2507.77,-130.682C2481.31,-120.257 2448.37,-107.281 2423.73,-97.5765"/>
<polygon fill="midnightblue" stroke="midnightblue" points="2506.61,-133.987 2517.2,-134.396 2509.18,-127.474 2506.61,-133.987"/>
</g>
<!-- Node20 -->
<g id="node20" class="node"><title>Node20</title>
<g id="a_node20"><a xlink:href="DatabaseFactory_8h.html" target="_top" xlink:title="Framework/include/Quality\lControl/DatabaseFactory.h">
<polygon fill="none" stroke="black" points="1168,-67.5 1168,-97.5 1302,-97.5 1302,-67.5 1168,-67.5"/>
<text text-anchor="start" x="1176" y="-85.5" font-family="Helvetica,sans-Serif" font-size="10.00">Framework/include/Quality</text>
<text text-anchor="middle" x="1235" y="-74.5" font-family="Helvetica,sans-Serif" font-size="10.00">Control/DatabaseFactory.h</text>
</a>
</g>
</g>
<!-- Node1&#45;&gt;Node20 -->
<g id="edge19" class="edge"><title>Node1&#45;&gt;Node20</title>
<path fill="none" stroke="midnightblue" d="M2472.55,-144.533C2232.51,-132.694 1524.28,-97.7663 1302.32,-86.8198"/>
<polygon fill="midnightblue" stroke="midnightblue" points="2472.44,-148.031 2482.6,-145.028 2472.79,-141.04 2472.44,-148.031"/>
</g>
<!-- Node24 -->
<g id="node24" class="node"><title>Node24</title>
<g id="a_node24"><a xlink:href="DummyDatabase_8h.html" target="_top" xlink:title="Framework/include/Quality\lControl/DummyDatabase.h">
<polygon fill="none" stroke="black" points="410,-67.5 410,-97.5 546,-97.5 546,-67.5 410,-67.5"/>
<text text-anchor="start" x="418" y="-85.5" font-family="Helvetica,sans-Serif" font-size="10.00">Framework/include/Quality</text>
<text text-anchor="middle" x="478" y="-74.5" font-family="Helvetica,sans-Serif" font-size="10.00">Control/DummyDatabase.h</text>
</a>
</g>
</g>
<!-- Node1&#45;&gt;Node24 -->
<g id="edge28" class="edge"><title>Node1&#45;&gt;Node24</title>
<path fill="none" stroke="midnightblue" d="M2472.84,-146.892C2220.92,-141.698 1422.65,-124.176 762,-98 688.25,-95.0779 603.783,-90.6237 546.268,-87.4234"/>
<polygon fill="midnightblue" stroke="midnightblue" points="2472.93,-150.394 2483,-147.101 2473.07,-143.396 2472.93,-150.394"/>
</g>
<!-- Node26 -->
<g id="node26" class="node"><title>Node26</title>
<g id="a_node26"><a xlink:href="MySqlDatabase_8h.html" target="_top" xlink:title="Framework/include/Quality\lControl/MySqlDatabase.h">
<polygon fill="none" stroke="black" points="2532.5,-67.5 2532.5,-97.5 2665.5,-97.5 2665.5,-67.5 2532.5,-67.5"/>
<text text-anchor="start" x="2540.5" y="-85.5" font-family="Helvetica,sans-Serif" font-size="10.00">Framework/include/Quality</text>
<text text-anchor="middle" x="2599" y="-74.5" font-family="Helvetica,sans-Serif" font-size="10.00">Control/MySqlDatabase.h</text>
</a>
</g>
</g>
<!-- Node1&#45;&gt;Node26 -->
<g id="edge32" class="edge"><title>Node1&#45;&gt;Node26</title>
<path fill="none" stroke="midnightblue" d="M2568.81,-126.157C2575.52,-116.679 2583.13,-105.919 2589.04,-97.5765"/>
<polygon fill="midnightblue" stroke="midnightblue" points="2565.9,-124.211 2562.98,-134.396 2571.62,-128.255 2565.9,-124.211"/>
</g>
<!-- Node28 -->
<g id="node28" class="node"><title>Node28</title>
<g id="a_node28"><a xlink:href="PostProcessingRunner_8h.html" target="_top" xlink:title="Framework/include/Quality\lControl/PostProcessingRunner.h">
<polygon fill="none" stroke="black" points="2729,-67.5 2729,-97.5 2889,-97.5 2889,-67.5 2729,-67.5"/>
<text text-anchor="start" x="2737" y="-85.5" font-family="Helvetica,sans-Serif" font-size="10.00">Framework/include/Quality</text>
<text text-anchor="middle" x="2809" y="-74.5" font-family="Helvetica,sans-Serif" font-size="10.00">Control/PostProcessingRunner.h</text>
</a>
</g>
</g>
<!-- Node1&#45;&gt;Node28 -->
<g id="edge34" class="edge"><title>Node1&#45;&gt;Node28</title>
<path fill="none" stroke="midnightblue" d="M2618.05,-131.984C2659.86,-121.367 2713.61,-107.72 2753.42,-97.6109"/>
<polygon fill="midnightblue" stroke="midnightblue" points="2617.06,-128.623 2608.23,-134.476 2618.79,-135.407 2617.06,-128.623"/>
</g>
<!-- Node32 -->
<g id="node32" class="node"><title>Node32</title>
<g id="a_node32"><a xlink:href="RepositoryBenchmark_8h.html" target="_top" xlink:title="Framework/src/Repository\lBenchmark.h">
<polygon fill="none" stroke="black" points="2907,-67.5 2907,-97.5 3039,-97.5 3039,-67.5 2907,-67.5"/>
<text text-anchor="start" x="2915" y="-85.5" font-family="Helvetica,sans-Serif" font-size="10.00">Framework/src/Repository</text>
<text text-anchor="middle" x="2973" y="-74.5" font-family="Helvetica,sans-Serif" font-size="10.00">Benchmark.h</text>
</a>
</g>
</g>
<!-- Node1&#45;&gt;Node32 -->
<g id="edge39" class="edge"><title>Node1&#45;&gt;Node32</title>
<path fill="none" stroke="midnightblue" d="M2633.27,-137.807C2703.29,-128.227 2807.56,-113.354 2898,-98 2900.88,-97.5117 2903.81,-97.0002 2906.78,-96.4732"/>
<polygon fill="midnightblue" stroke="midnightblue" points="2632.62,-134.362 2623.19,-139.182 2633.57,-141.298 2632.62,-134.362"/>
</g>
<!-- Node34 -->
<g id="node34" class="node"><title>Node34</title>
<g id="a_node34"><a xlink:href="TrendingTask_8cxx.html" target="_top" xlink:title="Framework/src/TrendingTask.cxx">
<polygon fill="none" stroke="black" points="3057.5,-73 3057.5,-92 3220.5,-92 3220.5,-73 3057.5,-73"/>
<text text-anchor="middle" x="3139" y="-80" font-family="Helvetica,sans-Serif" font-size="10.00">Framework/src/TrendingTask.cxx</text>
</a>
</g>
</g>
<!-- Node1&#45;&gt;Node34 -->
<g id="edge42" class="edge"><title>Node1&#45;&gt;Node34</title>
<path fill="none" stroke="midnightblue" d="M2633.36,-141.703C2731.43,-133.087 2902.19,-117.039 3048,-98 3061.17,-96.2808 3075.36,-94.1522 3088.53,-92.0603"/>
<polygon fill="midnightblue" stroke="midnightblue" points="2632.89,-138.232 2623.23,-142.59 2633.5,-145.205 2632.89,-138.232"/>
</g>
<!-- Node3 -->
<g id="node3" class="node"><title>Node3</title>
<g id="a_node3"><a xlink:href="CcdbDatabase_8cxx.html" target="_top" xlink:title="Framework/src/CcdbDatabase.cxx">
<polygon fill="none" stroke="black" points="395.5,-6 395.5,-25 564.5,-25 564.5,-6 395.5,-6"/>
<text text-anchor="middle" x="480" y="-13" font-family="Helvetica,sans-Serif" font-size="10.00">Framework/src/CcdbDatabase.cxx</text>
</a>
</g>
</g>
<!-- Node2&#45;&gt;Node3 -->
<g id="edge2" class="edge"><title>Node2&#45;&gt;Node3</title>
<path fill="none" stroke="midnightblue" d="M760.828,-67.4883C689.679,-54.5702 586.368,-35.8126 526.907,-25.0167"/>
<polygon fill="midnightblue" stroke="midnightblue" points="760.618,-71.0074 771.083,-69.3502 761.869,-64.12 760.618,-71.0074"/>
</g>
<!-- Node4 -->
<g id="node4" class="node"><title>Node4</title>
<g id="a_node4"><a xlink:href="DatabaseFactory_8cxx.html" target="_top" xlink:title="Framework/src/DatabaseFactory.cxx">
<polygon fill="none" stroke="black" points="198.5,-6 198.5,-25 377.5,-25 377.5,-6 198.5,-6"/>
<text text-anchor="middle" x="288" y="-13" font-family="Helvetica,sans-Serif" font-size="10.00">Framework/src/DatabaseFactory.cxx</text>
</a>
</g>
</g>
<!-- Node2&#45;&gt;Node4 -->
<g id="edge3" class="edge"><title>Node2&#45;&gt;Node4</title>
<path fill="none" stroke="midnightblue" d="M761.162,-73.7577C671.145,-64.4925 517.569,-48.0777 386,-31 372.099,-29.1957 357.117,-27.0706 343.15,-25.0119"/>
<polygon fill="midnightblue" stroke="midnightblue" points="760.976,-77.257 771.281,-74.7967 761.691,-70.2936 760.976,-77.257"/>
</g>
<!-- Node5 -->
<g id="node5" class="node"><title>Node5</title>
<g id="a_node5"><a xlink:href="testCcdbDatabase_8cxx.html" target="_top" xlink:title="Framework/test/testCcdbDatabase.cxx">
<polygon fill="none" stroke="black" points="958,-6 958,-25 1146,-25 1146,-6 958,-6"/>
<text text-anchor="middle" x="1052" y="-13" font-family="Helvetica,sans-Serif" font-size="10.00">Framework/test/testCcdbDatabase.cxx</text>
</a>
</g>
</g>
<!-- Node2&#45;&gt;Node5 -->
<g id="edge4" class="edge"><title>Node2&#45;&gt;Node5</title>
<path fill="none" stroke="midnightblue" d="M893.936,-64.5102C935.699,-51.8251 991.02,-35.0219 1023.92,-25.0287"/>
<polygon fill="midnightblue" stroke="midnightblue" points="892.722,-61.2207 884.171,-67.476 894.757,-67.9186 892.722,-61.2207"/>
</g>
<!-- Node6 -->
<g id="node6" class="node"><title>Node6</title>
<polygon fill="none" stroke="#bfbfbf" points="770,-0.5 770,-30.5 940,-30.5 940,-0.5 770,-0.5"/>
<text text-anchor="start" x="778" y="-18.5" font-family="Helvetica,sans-Serif" font-size="10.00">Framework/test/testCcdbDatabase</text>
<text text-anchor="middle" x="855" y="-7.5" font-family="Helvetica,sans-Serif" font-size="10.00">Extra.cxx</text>
</g>
<!-- Node2&#45;&gt;Node6 -->
<g id="edge5" class="edge"><title>Node2&#45;&gt;Node6</title>
<path fill="none" stroke="midnightblue" d="M844.225,-57.6971C846.608,-48.5871 849.248,-38.4929 851.318,-30.5765"/>
<polygon fill="midnightblue" stroke="midnightblue" points="840.833,-56.8358 841.689,-67.396 847.605,-58.607 840.833,-56.8358"/>
</g>
<!-- Node7 -->
<g id="node7" class="node"><title>Node7</title>
<g id="a_node7"><a xlink:href="testDbFactory_8cxx.html" target="_top" xlink:title="Framework/test/testDbFactory.cxx">
<polygon fill="none" stroke="black" points="582.5,-6 582.5,-25 751.5,-25 751.5,-6 582.5,-6"/>
<text text-anchor="middle" x="667" y="-13" font-family="Helvetica,sans-Serif" font-size="10.00">Framework/test/testDbFactory.cxx</text>
</a>
</g>
</g>
<!-- Node2&#45;&gt;Node7 -->
<g id="edge6" class="edge"><title>Node2&#45;&gt;Node7</title>
<path fill="none" stroke="midnightblue" d="M791.393,-63.7838C758.237,-51.1807 715.165,-34.8082 689.38,-25.007"/>
<polygon fill="midnightblue" stroke="midnightblue" points="790.304,-67.1144 800.896,-67.396 792.792,-60.5712 790.304,-67.1144"/>
</g>
<!-- Node9 -->
<g id="node9" class="node"><title>Node9</title>
<g id="a_node9"><a xlink:href="CheckRunner_8cxx.html" target="_top" xlink:title="Framework/src/CheckRunner.cxx">
<polygon fill="none" stroke="black" points="1324,-6 1324,-25 1488,-25 1488,-6 1324,-6"/>
<text text-anchor="middle" x="1406" y="-13" font-family="Helvetica,sans-Serif" font-size="10.00">Framework/src/CheckRunner.cxx</text>
</a>
</g>
</g>
<!-- Node8&#45;&gt;Node9 -->
<g id="edge8" class="edge"><title>Node8&#45;&gt;Node9</title>
<path fill="none" stroke="midnightblue" d="M2310.97,-79.7625C2156.29,-75.694 1797.04,-63.3229 1497,-31 1482.84,-29.475 1467.53,-27.2578 1453.58,-25.014"/>
<polygon fill="midnightblue" stroke="midnightblue" points="2311.22,-83.27 2321.31,-80.03 2311.4,-76.2724 2311.22,-83.27"/>
</g>
<!-- Node10 -->
<g id="node10" class="node"><title>Node10</title>
<g id="a_node10"><a xlink:href="CheckRunnerFactory_8cxx.html" target="_top" xlink:title="Framework/src/CheckRunner\lFactory.cxx">
<polygon fill="none" stroke="black" points="3411.5,-0.5 3411.5,-30.5 3556.5,-30.5 3556.5,-0.5 3411.5,-0.5"/>
<text text-anchor="start" x="3419.5" y="-18.5" font-family="Helvetica,sans-Serif" font-size="10.00">Framework/src/CheckRunner</text>
<text text-anchor="middle" x="3484" y="-7.5" font-family="Helvetica,sans-Serif" font-size="10.00">Factory.cxx</text>
</a>
</g>
</g>
<!-- Node8&#45;&gt;Node10 -->
<g id="edge9" class="edge"><title>Node8&#45;&gt;Node10</title>
<path fill="none" stroke="midnightblue" d="M2464.65,-72.3787C2483.69,-70.3577 2504.07,-68.4027 2523,-67 2912.93,-38.1065 3013.28,-73.1362 3402,-31 3405.02,-30.6728 3408.09,-30.3018 3411.2,-29.8962"/>
<polygon fill="midnightblue" stroke="midnightblue" points="2464.09,-68.9183 2454.53,-73.472 2464.84,-75.8778 2464.09,-68.9183"/>
</g>
<!-- Node11 -->
<g id="node11" class="node"><title>Node11</title>
<g id="a_node11"><a xlink:href="InfrastructureGenerator_8cxx.html" target="_top" xlink:title="Framework/src/Infrastructure\lGenerator.cxx">
<polygon fill="none" stroke="black" points="1506.5,-0.5 1506.5,-30.5 1649.5,-30.5 1649.5,-0.5 1506.5,-0.5"/>
<text text-anchor="start" x="1514.5" y="-18.5" font-family="Helvetica,sans-Serif" font-size="10.00">Framework/src/Infrastructure</text>
<text text-anchor="middle" x="1578" y="-7.5" font-family="Helvetica,sans-Serif" font-size="10.00">Generator.cxx</text>
</a>
</g>
</g>
<!-- Node8&#45;&gt;Node11 -->
<g id="edge10" class="edge"><title>Node8&#45;&gt;Node11</title>
<path fill="none" stroke="midnightblue" d="M2311.33,-78.9132C2178.2,-73.8138 1895.83,-60.3134 1659,-31 1656.02,-30.6315 1652.99,-30.2258 1649.93,-29.7917"/>
<polygon fill="midnightblue" stroke="midnightblue" points="2311.3,-82.4145 2321.43,-79.2947 2311.57,-75.4195 2311.3,-82.4145"/>
</g>
<!-- Node12 -->
<g id="node12" class="node"><title>Node12</title>
<g id="a_node12"><a xlink:href="runBasic_8cxx.html" target="_top" xlink:title="This is an executable showing QC Task&#39;s usage in Data Processing Layer. ">
<polygon fill="none" stroke="black" points="1850,-6 1850,-25 1992,-25 1992,-6 1850,-6"/>
<text text-anchor="middle" x="1921" y="-13" font-family="Helvetica,sans-Serif" font-size="10.00">Framework/src/runBasic.cxx</text>
</a>
</g>
</g>
<!-- Node8&#45;&gt;Node12 -->
<g id="edge11" class="edge"><title>Node8&#45;&gt;Node12</title>
<path fill="none" stroke="midnightblue" d="M2311.19,-72.6138C2232.98,-63.3001 2108.32,-47.7179 2001,-31 1989.56,-29.2185 1977.25,-27.0906 1965.78,-25.0209"/>
<polygon fill="midnightblue" stroke="midnightblue" points="2311.09,-76.1269 2321.43,-73.83 2311.91,-69.1757 2311.09,-76.1269"/>
</g>
<!-- Node13 -->
<g id="node13" class="node"><title>Node13</title>
<g id="a_node13"><a xlink:href="runMergerTest_8cxx.html" target="_top" xlink:title="This is DPL workflow to see HistoMerger in action. ">
<polygon fill="none" stroke="black" points="2721.5,-6 2721.5,-25 2888.5,-25 2888.5,-6 2721.5,-6"/>
<text text-anchor="middle" x="2805" y="-13" font-family="Helvetica,sans-Serif" font-size="10.00">Framework/src/runMergerTest.cxx</text>
</a>
</g>
</g>
<!-- Node8&#45;&gt;Node13 -->
<g id="edge12" class="edge"><title>Node8&#45;&gt;Node13</title>
<path fill="none" stroke="midnightblue" d="M2464.64,-69.5532C2547.44,-56.6471 2677.29,-36.4072 2750.34,-25.0202"/>
<polygon fill="midnightblue" stroke="midnightblue" points="2463.88,-66.1302 2454.54,-71.1287 2464.96,-73.0467 2463.88,-66.1302"/>
</g>
<!-- Node14 -->
<g id="node14" class="node"><title>Node14</title>
<g id="a_node14"><a xlink:href="testCheckRunner_8cxx.html" target="_top" xlink:title="Framework/test/testCheck\lRunner.cxx">
<polygon fill="none" stroke="black" points="2246.5,-0.5 2246.5,-30.5 2379.5,-30.5 2379.5,-0.5 2246.5,-0.5"/>
<text text-anchor="start" x="2254.5" y="-18.5" font-family="Helvetica,sans-Serif" font-size="10.00">Framework/test/testCheck</text>
<text text-anchor="middle" x="2313" y="-7.5" font-family="Helvetica,sans-Serif" font-size="10.00">Runner.cxx</text>
</a>
</g>
</g>
<!-- Node8&#45;&gt;Node14 -->
<g id="edge13" class="edge"><title>Node8&#45;&gt;Node14</title>
<path fill="none" stroke="midnightblue" d="M2363.88,-60.5978C2352.56,-50.7831 2339.36,-39.3442 2329.24,-30.5765"/>
<polygon fill="midnightblue" stroke="midnightblue" points="2361.88,-63.4915 2371.73,-67.396 2366.46,-58.2017 2361.88,-63.4915"/>
</g>
<!-- Node15 -->
<g id="node15" class="node"><title>Node15</title>
<g id="a_node15"><a xlink:href="testCheckWorkflow_8cxx.html" target="_top" xlink:title="Framework/test/testCheck\lWorkflow.cxx">
<polygon fill="none" stroke="black" points="2397.5,-0.5 2397.5,-30.5 2530.5,-30.5 2530.5,-0.5 2397.5,-0.5"/>
<text text-anchor="start" x="2405.5" y="-18.5" font-family="Helvetica,sans-Serif" font-size="10.00">Framework/test/testCheck</text>
<text text-anchor="middle" x="2464" y="-7.5" font-family="Helvetica,sans-Serif" font-size="10.00">Workflow.cxx</text>
</a>
</g>
</g>
<!-- Node8&#45;&gt;Node15 -->
<g id="edge14" class="edge"><title>Node8&#45;&gt;Node15</title>
<path fill="none" stroke="midnightblue" d="M2412.11,-60.8832C2423.66,-51.0054 2437.19,-39.4293 2447.54,-30.5765"/>
<polygon fill="midnightblue" stroke="midnightblue" points="2409.82,-58.2364 2404.49,-67.396 2414.37,-63.5561 2409.82,-58.2364"/>
</g>
<!-- Node16 -->
<g id="node16" class="node"><title>Node16</title>
<g id="a_node16"><a xlink:href="testWorkflow_8cxx.html" target="_top" xlink:title="Framework/test/testWorkflow.cxx">
<polygon fill="none" stroke="black" points="1668,-6 1668,-25 1832,-25 1832,-6 1668,-6"/>
<text text-anchor="middle" x="1750" y="-13" font-family="Helvetica,sans-Serif" font-size="10.00">Framework/test/testWorkflow.cxx</text>
</a>
</g>
</g>
<!-- Node8&#45;&gt;Node16 -->
<g id="edge15" class="edge"><title>Node8&#45;&gt;Node16</title>
<path fill="none" stroke="midnightblue" d="M2311.04,-76.0037C2205.01,-68.0646 2008.12,-52.0063 1841,-31 1827.67,-29.3241 1813.29,-27.1869 1799.98,-25.0715"/>
<polygon fill="midnightblue" stroke="midnightblue" points="2311.09,-79.5173 2321.33,-76.7697 2311.61,-72.5366 2311.09,-79.5173"/>
</g>
<!-- Node17 -->
<g id="node17" class="node"><title>Node17</title>
<polygon fill="none" stroke="#bfbfbf" points="2010,-6 2010,-25 2228,-25 2228,-6 2010,-6"/>
<text text-anchor="middle" x="2119" y="-13" font-family="Helvetica,sans-Serif" font-size="10.00">Modules/EMCAL/src/runQCEMCALDigits.cxx</text>
</g>
<!-- Node8&#45;&gt;Node17 -->
<g id="edge16" class="edge"><title>Node8&#45;&gt;Node17</title>
<path fill="none" stroke="midnightblue" d="M2320,-65.0694C2267.25,-52.3228 2196.26,-35.1694 2154.3,-25.0287"/>
<polygon fill="midnightblue" stroke="midnightblue" points="2319.42,-68.5292 2329.96,-67.476 2321.06,-61.7251 2319.42,-68.5292"/>
</g>
<!-- Node18 -->
<g id="node18" class="node"><title>Node18</title>
<g id="a_node18"><a xlink:href="runTOF_8cxx.html" target="_top" xlink:title="This is an executable showing QC Task&#39;s usage in Data Processing Layer. ">
<polygon fill="none" stroke="black" points="3057.5,-6 3057.5,-25 3204.5,-25 3204.5,-6 3057.5,-6"/>
<text text-anchor="middle" x="3131" y="-13" font-family="Helvetica,sans-Serif" font-size="10.00">Modules/TOF/src/runTOF.cxx</text>
</a>
</g>
</g>
<!-- Node8&#45;&gt;Node18 -->
<g id="edge17" class="edge"><title>Node8&#45;&gt;Node18</title>
<path fill="none" stroke="midnightblue" d="M2464.68,-72.7458C2483.72,-70.7148 2504.09,-68.6632 2523,-67 2755.98,-46.5077 2815.82,-59.163 3048,-31 3060.78,-29.4499 3074.58,-27.2522 3087.19,-25.0351"/>
<polygon fill="midnightblue" stroke="midnightblue" points="2464.12,-69.2852 2454.56,-73.8366 2464.87,-76.245 2464.12,-69.2852"/>
</g>
<!-- Node19 -->
<g id="node19" class="node"><title>Node19</title>
<polygon fill="none" stroke="#bfbfbf" points="3223,-0.5 3223,-30.5 3393,-30.5 3393,-0.5 3223,-0.5"/>
<text text-anchor="start" x="3231" y="-18.5" font-family="Helvetica,sans-Serif" font-size="10.00">Modules/TPC/run/runTPCQCTrack</text>
<text text-anchor="middle" x="3308" y="-7.5" font-family="Helvetica,sans-Serif" font-size="10.00">Reader.cxx</text>
</g>
<!-- Node8&#45;&gt;Node19 -->
<g id="edge18" class="edge"><title>Node8&#45;&gt;Node19</title>
<path fill="none" stroke="midnightblue" d="M2464.66,-72.527C2483.7,-70.502 2504.08,-68.508 2523,-67 2829.56,-42.5699 2908.09,-62.4818 3214,-31 3216.96,-30.6957 3219.96,-30.3626 3223,-30.0061"/>
<polygon fill="midnightblue" stroke="midnightblue" points="2464.1,-69.0665 2454.54,-73.6193 2464.86,-76.0261 2464.1,-69.0665"/>
</g>
<!-- Node20&#45;&gt;Node4 -->
<g id="edge21" class="edge"><title>Node20&#45;&gt;Node4</title>
<path fill="none" stroke="midnightblue" d="M1157.62,-77.7669C977.523,-68.9379 534.397,-46.362 386,-31 370.945,-29.4415 354.661,-27.2411 339.77,-25.0243"/>
<polygon fill="midnightblue" stroke="midnightblue" points="1157.64,-81.2724 1167.8,-78.2654 1157.99,-74.2807 1157.64,-81.2724"/>
</g>
<!-- Node20&#45;&gt;Node5 -->
<g id="edge24" class="edge"><title>Node20&#45;&gt;Node5</title>
<path fill="none" stroke="midnightblue" d="M1185.58,-63.9459C1150.04,-51.3213 1103.66,-34.8502 1075.95,-25.007"/>
<polygon fill="midnightblue" stroke="midnightblue" points="1184.7,-67.347 1195.29,-67.396 1187.04,-60.7507 1184.7,-67.347"/>
</g>
<!-- Node20&#45;&gt;Node6 -->
<g id="edge25" class="edge"><title>Node20&#45;&gt;Node6</title>
<path fill="none" stroke="midnightblue" d="M1157.87,-68.307C1093.65,-57.3223 1002.45,-41.7218 936.933,-30.5148"/>
<polygon fill="midnightblue" stroke="midnightblue" points="1157.49,-71.7927 1167.94,-70.0289 1158.67,-64.8929 1157.49,-71.7927"/>
</g>
<!-- Node20&#45;&gt;Node7 -->
<g id="edge26" class="edge"><title>Node20&#45;&gt;Node7</title>
<path fill="none" stroke="midnightblue" d="M1157.78,-74.3957C1063.86,-65.4953 900.552,-49.1871 761,-31 747.573,-29.2502 733.104,-27.1336 719.637,-25.0648"/>
<polygon fill="midnightblue" stroke="midnightblue" points="1157.48,-77.8829 1167.77,-75.3388 1158.14,-70.914 1157.48,-77.8829"/>
</g>
<!-- Node20&#45;&gt;Node9 -->
<g id="edge20" class="edge"><title>Node20&#45;&gt;Node9</title>
<path fill="none" stroke="midnightblue" d="M1281.61,-63.7838C1314.76,-51.1807 1357.84,-34.8082 1383.62,-25.007"/>
<polygon fill="midnightblue" stroke="midnightblue" points="1280.21,-60.5712 1272.1,-67.396 1282.7,-67.1144 1280.21,-60.5712"/>
</g>
<!-- Node21 -->
<g id="node21" class="node"><title>Node21</title>
<polygon fill="none" stroke="#bfbfbf" points="2549,-0.5 2549,-30.5 2703,-30.5 2703,-0.5 2549,-0.5"/>
<text text-anchor="start" x="2557" y="-18.5" font-family="Helvetica,sans-Serif" font-size="10.00">Framework/src/PostProcessing</text>
<text text-anchor="middle" x="2626" y="-7.5" font-family="Helvetica,sans-Serif" font-size="10.00">Runner.cxx</text>
</g>
<!-- Node20&#45;&gt;Node21 -->
<g id="edge22" class="edge"><title>Node20&#45;&gt;Node21</title>
<path fill="none" stroke="midnightblue" d="M1312.26,-81.9089C1514.38,-82.2426 2075.17,-78.4418 2539,-31 2542.2,-30.6728 2545.46,-30.3017 2548.75,-29.8961"/>
<polygon fill="midnightblue" stroke="midnightblue" points="1312.06,-78.4086 1302.05,-81.8879 1312.04,-85.4085 1312.06,-78.4086"/>
</g>
<!-- Node22 -->
<g id="node22" class="node"><title>Node22</title>
<g id="a_node22"><a xlink:href="RepositoryBenchmark_8cxx.html" target="_top" xlink:title="Framework/src/Repository\lBenchmark.cxx">
<polygon fill="none" stroke="black" points="2907,-0.5 2907,-30.5 3039,-30.5 3039,-0.5 2907,-0.5"/>
<text text-anchor="start" x="2915" y="-18.5" font-family="Helvetica,sans-Serif" font-size="10.00">Framework/src/Repository</text>
<text text-anchor="middle" x="2973" y="-7.5" font-family="Helvetica,sans-Serif" font-size="10.00">Benchmark.cxx</text>
</a>
</g>
</g>
<!-- Node20&#45;&gt;Node22 -->
<g id="edge23" class="edge"><title>Node20&#45;&gt;Node22</title>
<path fill="none" stroke="midnightblue" d="M1312.61,-80.7714C1597.32,-77.8446 2583.97,-65.3984 2897,-31 2900.2,-30.6479 2903.48,-30.2343 2906.77,-29.7739"/>
<polygon fill="midnightblue" stroke="midnightblue" points="1312.35,-77.2738 1302.38,-80.8755 1312.42,-84.2734 1312.35,-77.2738"/>
</g>
<!-- Node23 -->
<g id="node23" class="node"><title>Node23</title>
<g id="a_node23"><a xlink:href="testTrendingTask_8cxx.html" target="_top" xlink:title="Framework/test/testTrending\lTask.cxx">
<polygon fill="none" stroke="black" points="1164,-0.5 1164,-30.5 1306,-30.5 1306,-0.5 1164,-0.5"/>
<text text-anchor="start" x="1172" y="-18.5" font-family="Helvetica,sans-Serif" font-size="10.00">Framework/test/testTrending</text>
<text text-anchor="middle" x="1235" y="-7.5" font-family="Helvetica,sans-Serif" font-size="10.00">Task.cxx</text>
</a>
</g>
</g>
<!-- Node20&#45;&gt;Node23 -->
<g id="edge27" class="edge"><title>Node20&#45;&gt;Node23</title>
<path fill="none" stroke="midnightblue" d="M1235,-57.1081C1235,-48.1539 1235,-38.3227 1235,-30.5765"/>
<polygon fill="midnightblue" stroke="midnightblue" points="1231.5,-57.3959 1235,-67.396 1238.5,-57.396 1231.5,-57.3959"/>
</g>
<!-- Node24&#45;&gt;Node4 -->
<g id="edge29" class="edge"><title>Node24&#45;&gt;Node4</title>
<path fill="none" stroke="midnightblue" d="M427.161,-64.1075C390.197,-51.4622 341.762,-34.8923 312.867,-25.007"/>
<polygon fill="midnightblue" stroke="midnightblue" points="426.178,-67.4706 436.773,-67.396 428.444,-60.8474 426.178,-67.4706"/>
</g>
<!-- Node24&#45;&gt;Node7 -->
<g id="edge31" class="edge"><title>Node24&#45;&gt;Node7</title>
<path fill="none" stroke="midnightblue" d="M528.572,-64.1075C565.341,-51.4622 613.521,-34.8923 642.264,-25.007"/>
<polygon fill="midnightblue" stroke="midnightblue" points="527.328,-60.834 519.01,-67.396 529.605,-67.4534 527.328,-60.834"/>
</g>
<!-- Node25 -->
<g id="node25" class="node"><title>Node25</title>
<g id="a_node25"><a xlink:href="DummyDatabase_8cxx.html" target="_top" xlink:title="Framework/src/DummyDatabase.cxx">
<polygon fill="none" stroke="black" points="0,-6 0,-25 180,-25 180,-6 0,-6"/>
<text text-anchor="middle" x="90" y="-13" font-family="Helvetica,sans-Serif" font-size="10.00">Framework/src/DummyDatabase.cxx</text>
</a>
</g>
</g>
<!-- Node24&#45;&gt;Node25 -->
<g id="edge30" class="edge"><title>Node24&#45;&gt;Node25</title>
<path fill="none" stroke="midnightblue" d="M399.819,-68.4026C322.65,-55.4748 206.913,-36.0859 140.919,-25.0302"/>
<polygon fill="midnightblue" stroke="midnightblue" points="399.531,-71.9031 409.972,-70.1035 400.687,-64.9993 399.531,-71.9031"/>
</g>
<!-- Node27 -->
<g id="node27" class="node"><title>Node27</title>
<g id="a_node27"><a xlink:href="MySqlDatabase_8cxx.html" target="_top" xlink:title="Framework/src/MySqlDatabase.cxx">
<polygon fill="none" stroke="black" points="3574.5,-6 3574.5,-25 3747.5,-25 3747.5,-6 3574.5,-6"/>
<text text-anchor="middle" x="3661" y="-13" font-family="Helvetica,sans-Serif" font-size="10.00">Framework/src/MySqlDatabase.cxx</text>
</a>
</g>
</g>
<!-- Node26&#45;&gt;Node27 -->
<g id="edge33" class="edge"><title>Node26&#45;&gt;Node27</title>
<path fill="none" stroke="midnightblue" d="M2675.82,-71.3951C2690.47,-69.7234 2705.69,-68.1599 2720,-67 3095.11,-36.5885 3191.43,-67.4459 3566,-31 3580.95,-29.5458 3597.12,-27.322 3611.82,-25.0494"/>
<polygon fill="midnightblue" stroke="midnightblue" points="2675.32,-67.9301 2665.79,-72.5661 2676.13,-74.8828 2675.32,-67.9301"/>
</g>
<!-- Node28&#45;&gt;Node21 -->
<g id="edge35" class="edge"><title>Node28&#45;&gt;Node21</title>
<path fill="none" stroke="midnightblue" d="M2759.6,-63.9553C2730.13,-53.4847 2693.19,-40.3656 2665.63,-30.5765"/>
<polygon fill="midnightblue" stroke="midnightblue" points="2758.7,-67.347 2769.29,-67.396 2761.04,-60.7507 2758.7,-67.347"/>
</g>
<!-- Node29 -->
<g id="node29" class="node"><title>Node29</title>
<g id="a_node29"><a xlink:href="runPostProcessing_8cxx.html" target="_top" xlink:title="This is a standalone executable to run postprocessing. ">
<polygon fill="none" stroke="black" points="3766,-6 3766,-25 3952,-25 3952,-6 3766,-6"/>
<text text-anchor="middle" x="3859" y="-13" font-family="Helvetica,sans-Serif" font-size="10.00">Framework/src/runPostProcessing.cxx</text>
</a>
</g>
</g>
<!-- Node28&#45;&gt;Node29 -->
<g id="edge36" class="edge"><title>Node28&#45;&gt;Node29</title>
<path fill="none" stroke="midnightblue" d="M2899.65,-66.9168C3279.89,-28.866 3379.83,-65.6257 3757,-31 3773.03,-29.5283 3790.4,-27.2993 3806.18,-25.0273"/>
<polygon fill="midnightblue" stroke="midnightblue" points="2899.07,-63.458 2889.47,-67.9467 2899.77,-70.4224 2899.07,-63.458"/>
</g>
<!-- Node30 -->
<g id="node30" class="node"><title>Node30</title>
<g id="a_node30"><a xlink:href="runPostProcessingOCC_8cxx.html" target="_top" xlink:title="This is an OCC executable to run postprocessing. ">
<polygon fill="none" stroke="black" points="3969.5,-0.5 3969.5,-30.5 4136.5,-30.5 4136.5,-0.5 3969.5,-0.5"/>
<text text-anchor="start" x="3977.5" y="-18.5" font-family="Helvetica,sans-Serif" font-size="10.00">Framework/src/runPostProcessing</text>
<text text-anchor="middle" x="4053" y="-7.5" font-family="Helvetica,sans-Serif" font-size="10.00">OCC.cxx</text>
</a>
</g>
</g>
<!-- Node28&#45;&gt;Node30 -->
<g id="edge37" class="edge"><title>Node28&#45;&gt;Node30</title>
<path fill="none" stroke="midnightblue" d="M2899.59,-66.9341C3370.21,-21.6731 3493.75,-75.5641 3961,-31 3963.74,-30.739 3966.52,-30.4488 3969.32,-30.1342"/>
<polygon fill="midnightblue" stroke="midnightblue" points="2899.08,-63.4667 2889.47,-67.9175 2899.76,-70.4339 2899.08,-63.4667"/>
</g>
<!-- Node31 -->
<g id="node31" class="node"><title>Node31</title>
<g id="a_node31"><a xlink:href="testPostProcessingRunner_8cxx.html" target="_top" xlink:title="Framework/test/testPostProcessing\lRunner.cxx">
<polygon fill="none" stroke="black" points="4154.5,-0.5 4154.5,-30.5 4327.5,-30.5 4327.5,-0.5 4154.5,-0.5"/>
<text text-anchor="start" x="4162.5" y="-18.5" font-family="Helvetica,sans-Serif" font-size="10.00">Framework/test/testPostProcessing</text>
<text text-anchor="middle" x="4241" y="-7.5" font-family="Helvetica,sans-Serif" font-size="10.00">Runner.cxx</text>
</a>
</g>
</g>
<!-- Node28&#45;&gt;Node31 -->
<g id="edge38" class="edge"><title>Node28&#45;&gt;Node31</title>
<path fill="none" stroke="midnightblue" d="M2899.69,-66.9307C3452.15,-15.0796 3596.73,-80.6516 4146,-31 4148.74,-30.7522 4151.52,-30.476 4154.33,-30.1763"/>
<polygon fill="midnightblue" stroke="midnightblue" points="2899.09,-63.4717 2889.47,-67.8993 2899.75,-70.4405 2899.09,-63.4717"/>
</g>
<!-- Node32&#45;&gt;Node22 -->
<g id="edge40" class="edge"><title>Node32&#45;&gt;Node22</title>
<path fill="none" stroke="midnightblue" d="M2973,-57.1081C2973,-48.1539 2973,-38.3227 2973,-30.5765"/>
<polygon fill="midnightblue" stroke="midnightblue" points="2969.5,-57.3959 2973,-67.396 2976.5,-57.396 2969.5,-57.3959"/>
</g>
<!-- Node33 -->
<g id="node33" class="node"><title>Node33</title>
<g id="a_node33"><a xlink:href="runRepositoryBenchmark_8cxx.html" target="_top" xlink:title="Framework/src/runRepository\lBenchmark.cxx">
<polygon fill="none" stroke="black" points="4346,-0.5 4346,-30.5 4492,-30.5 4492,-0.5 4346,-0.5"/>
<text text-anchor="start" x="4354" y="-18.5" font-family="Helvetica,sans-Serif" font-size="10.00">Framework/src/runRepository</text>
<text text-anchor="middle" x="4419" y="-7.5" font-family="Helvetica,sans-Serif" font-size="10.00">Benchmark.cxx</text>
</a>
</g>
</g>
<!-- Node32&#45;&gt;Node33 -->
<g id="edge41" class="edge"><title>Node32&#45;&gt;Node33</title>
<path fill="none" stroke="midnightblue" d="M3049.36,-67.1227C3620.08,-6.11718 3770.62,-88.6756 4337,-31 4339.88,-30.7071 4342.8,-30.3714 4345.76,-30.0015"/>
<polygon fill="midnightblue" stroke="midnightblue" points="3048.79,-63.6637 3039.22,-68.2164 3049.54,-70.6233 3048.79,-63.6637"/>
</g>
</g>
</svg>
        <g id="navigator" transform="translate(0 0)" fill="#404254">
                <rect fill="#f2f5e9" fill-opacity="0.5" stroke="#606060" stroke-width=".5" x="0" y="0" width="60" height="60"/>
                <use id="zoomplus" xlink:href="#zoomPlus" x="17" y="9" onmousedown="handleZoom(evt,'in')"/>
                <use id="zoomminus" xlink:href="#zoomMin" x="42" y="9" onmousedown="handleZoom(evt,'out')"/>
                <use id="reset" xlink:href="#resetDef" x="30" y="36" onmousedown="handleReset()"/>
                <g id="arrowUp" xlink:href="#dirArrow" transform="translate(30 24)" onmousedown="handlePan(0,-1)">
                  <use xlink:href="#rim" fill="#404040">
                        <set attributeName="fill" to="#808080" begin="arrowUp.mouseover" end="arrowUp.mouseout"/>
                  </use>
                  <path fill="none" stroke="white" stroke-width="1.5" d="M0,-3.0v7 M-2.5,-0.5L0,-3.0L2.5,-0.5"/>
                </g>
                <g id="arrowRight" xlink:href="#dirArrow" transform="rotate(90) translate(36 -43)" onmousedown="handlePan(1,0)">
                  <use xlink:href="#rim" fill="#404040">
                        <set attributeName="fill" to="#808080" begin="arrowRight.mouseover" end="arrowRight.mouseout"/>
                  </use>
                  <path fill="none" stroke="white" stroke-width="1.5" d="M0,-3.0v7 M-2.5,-0.5L0,-3.0L2.5,-0.5"/>
                </g>
                <g id="arrowDown" xlink:href="#dirArrow" transform="rotate(180) translate(-30 -48)" onmousedown="handlePan(0,1)">
                  <use xlink:href="#rim" fill="#404040">
                        <set attributeName="fill" to="#808080" begin="arrowDown.mouseover" end="arrowDown.mouseout"/>
                  </use>
                  <path fill="none" stroke="white" stroke-width="1.5" d="M0,-3.0v7 M-2.5,-0.5L0,-3.0L2.5,-0.5"/>
                </g>
                <g id="arrowLeft" xlink:href="#dirArrow" transform="rotate(270) translate(-36 17)" onmousedown="handlePan(-1,0)">
                  <use xlink:href="#rim" fill="#404040">
                        <set attributeName="fill" to="#808080" begin="arrowLeft.mouseover" end="arrowLeft.mouseout"/>
                  </use>
                  <path fill="none" stroke="white" stroke-width="1.5" d="M0,-3.0v7 M-2.5,-0.5L0,-3.0L2.5,-0.5"/>
                </g>
        </g>
        <svg viewBox="0 0 15 15" width="100%" height="30px" preserveAspectRatio="xMaxYMin meet">
         <g id="arrow_out" transform="scale(0.3 0.3)">
          <a xlink:href="DatabaseInterface_8h__dep__incl_org.svg" target="_base">
           <rect id="button" ry="5" rx="5" y="6" x="6" height="38" width="38"
                fill="#f2f5e9" fill-opacity="0.5" stroke="#606060" stroke-width="1.0"/>
           <path id="arrow"
             d="M 11.500037,31.436501 C 11.940474,20.09759 22.043105,11.32322 32.158766,21.979434 L 37.068811,17.246167 C 37.068811,17.246167 37.088388,32 37.088388,32 L 22.160133,31.978069 C 22.160133,31.978069 26.997745,27.140456 26.997745,27.140456 C 18.528582,18.264221 13.291696,25.230495 11.500037,31.436501 z"
             style="fill:#404040;"/>
          </a>
         </g>
        </svg>
</svg>
