<?xml version="1.0" encoding="UTF-8" standalone="no"?>
<!DOCTYPE svg PUBLIC "-//W3C//DTD SVG 1.1//EN"
 "http://www.w3.org/Graphics/SVG/1.1/DTD/svg11.dtd">
<!-- Generated by graphviz version 2.38.0 (20140413.2041)
 -->
<!-- Title: Modules/MUON/MCH/src/Decoding.cxx Pages: 1 -->
<!--zoomable 386 -->
<svg id="main" version="1.1" xmlns="http://www.w3.org/2000/svg" xmlns:xlink="http://www.w3.org/1999/xlink" xml:space="preserve" onload="init(evt)">
<style type="text/css"><![CDATA[
.edge:hover path { stroke: red; }
.edge:hover polygon { stroke: red; fill: red; }
]]></style>
<script type="text/javascript"><![CDATA[
var edges = document.getElementsByTagName('g');
if (edges && edges.length) {
  for (var i=0;i<edges.length;i++) {
    if (edges[i].id.substr(0,4)=='edge') {
      edges[i].setAttribute('class','edge');
    }
  }
}
]]></script>
        <defs>
                <circle id="rim" cx="0" cy="0" r="7"/>
                <circle id="rim2" cx="0" cy="0" r="3.5"/>
                <g id="zoomPlus">
                        <use xlink:href="#rim" fill="#404040">
                                <set attributeName="fill" to="#808080" begin="zoomplus.mouseover" end="zoomplus.mouseout"/>
                        </use>
                        <path d="M-4,0h8M0,-4v8" fill="none" stroke="white" stroke-width="1.5" pointer-events="none"/>
                </g>
                <g id="zoomMin">
                        <use xlink:href="#rim" fill="#404040">
                                <set attributeName="fill" to="#808080" begin="zoomminus.mouseover" end="zoomminus.mouseout"/>
                        </use>
                        <path d="M-4,0h8" fill="none" stroke="white" stroke-width="1.5" pointer-events="none"/>
                </g>
                <g id="dirArrow">
                        <path fill="none" stroke="white" stroke-width="1.5" d="M0,-3.0v7 M-2.5,-0.5L0,-3.0L2.5,-0.5"/>
                </g>
               <g id="resetDef">
                       <use xlink:href="#rim2" fill="#404040">
                               <set attributeName="fill" to="#808080" begin="reset.mouseover" end="reset.mouseout"/>
                       </use>
               </g>
        </defs>

<script type="text/javascript">
var viewWidth = 1142;
var viewHeight = 386;
var sectionId = 'dynsection-0';
</script>
<script xlink:href="svgpan.js"/>
<svg id="graph" class="graph">
<g id="viewport">
<title>Modules/MUON/MCH/src/Decoding.cxx</title>
<!-- Node1 -->
<g id="node1" class="node"><title>Node1</title>
<polygon fill="#bfbfbf" stroke="black" points="294.5,-347.5 294.5,-377.5 424.5,-377.5 424.5,-347.5 294.5,-347.5"/>
<text text-anchor="start" x="302.5" y="-365.5" font-family="Helvetica,sans-Serif" font-size="10.00">Modules/MUON/MCH/src</text>
<text text-anchor="middle" x="359.5" y="-354.5" font-family="Helvetica,sans-Serif" font-size="10.00">/Decoding.cxx</text>
</g>
<!-- Node2 -->
<g id="node2" class="node"><title>Node2</title>
<polygon fill="none" stroke="#bfbfbf" points="0,-291.5 0,-310.5 65,-310.5 65,-291.5 0,-291.5"/>
<text text-anchor="middle" x="32.5" y="-298.5" font-family="Helvetica,sans-Serif" font-size="10.00">TCanvas.h</text>
</g>
<!-- Node1&#45;&gt;Node2 -->
<g id="edge1" class="edge"><title>Node1&#45;&gt;Node2</title>
<path fill="none" stroke="midnightblue" d="M294.292,-350.627C238.706,-341.203 156.437,-326.888 74.9656,-311.033"/>
<polygon fill="midnightblue" stroke="midnightblue" points="75.5215,-307.575 65.0358,-309.092 74.1786,-314.445 75.5215,-307.575"/>
</g>
<!-- Node3 -->
<g id="node3" class="node"><title>Node3</title>
<polygon fill="none" stroke="#bfbfbf" points="83.5,-291.5 83.5,-310.5 127.5,-310.5 127.5,-291.5 83.5,-291.5"/>
<text text-anchor="middle" x="105.5" y="-298.5" font-family="Helvetica,sans-Serif" font-size="10.00">TH1.h</text>
</g>
<!-- Node1&#45;&gt;Node3 -->
<g id="edge2" class="edge"><title>Node1&#45;&gt;Node3</title>
<path fill="none" stroke="midnightblue" d="M294.362,-347.825C252.111,-338.706 195.676,-326.061 137.532,-311.159"/>
<polygon fill="midnightblue" stroke="midnightblue" points="138.364,-307.759 127.807,-308.649 136.615,-314.537 138.364,-307.759"/>
</g>
<!-- Node4 -->
<g id="node4" class="node"><title>Node4</title>
<polygon fill="none" stroke="#bfbfbf" points="145.5,-291.5 145.5,-310.5 189.5,-310.5 189.5,-291.5 145.5,-291.5"/>
<text text-anchor="middle" x="167.5" y="-298.5" font-family="Helvetica,sans-Serif" font-size="10.00">TH2.h</text>
</g>
<!-- Node1&#45;&gt;Node4 -->
<g id="edge3" class="edge"><title>Node1&#45;&gt;Node4</title>
<path fill="none" stroke="midnightblue" d="M313.999,-347.399C278.73,-336.47 230.748,-321.6 199.457,-311.903"/>
<polygon fill="midnightblue" stroke="midnightblue" points="200.116,-308.443 189.528,-308.826 198.044,-315.13 200.116,-308.443"/>
</g>
<!-- Node5 -->
<g id="node5" class="node"><title>Node5</title>
<polygon fill="none" stroke="#bfbfbf" points="208,-291.5 208,-310.5 349,-310.5 349,-291.5 208,-291.5"/>
<text text-anchor="middle" x="278.5" y="-298.5" font-family="Helvetica,sans-Serif" font-size="10.00">Headers/RAWDataHeader.h</text>
</g>
<!-- Node1&#45;&gt;Node5 -->
<g id="edge4" class="edge"><title>Node1&#45;&gt;Node5</title>
<path fill="none" stroke="midnightblue" d="M340.304,-347.399C327.684,-338.129 311.207,-326.025 298.439,-316.647"/>
<polygon fill="midnightblue" stroke="midnightblue" points="300.418,-313.757 290.286,-310.658 296.273,-319.399 300.418,-313.757"/>
</g>
<!-- Node6 -->
<g id="node6" class="node"><title>Node6</title>
<g id="a_node6"><a xlink:href="QcInfoLogger_8h.html" target="_top" xlink:title="QualityControl/QcInfoLogger.h">
<polygon fill="none" stroke="black" points="367,-291.5 367,-310.5 516,-310.5 516,-291.5 367,-291.5"/>
<text text-anchor="middle" x="441.5" y="-298.5" font-family="Helvetica,sans-Serif" font-size="10.00">QualityControl/QcInfoLogger.h</text>
</a>
</g>
</g>
<!-- Node1&#45;&gt;Node6 -->
<g id="edge5" class="edge"><title>Node1&#45;&gt;Node6</title>
<path fill="none" stroke="midnightblue" d="M378.933,-347.399C391.708,-338.129 408.389,-326.025 421.314,-316.647"/>
<polygon fill="midnightblue" stroke="midnightblue" points="423.53,-319.364 429.568,-310.658 419.419,-313.698 423.53,-319.364"/>
</g>
<!-- Node8 -->
<g id="node8" class="node"><title>Node8</title>
<g id="a_node8"><a xlink:href="Decoding_8h.html" target="_top" xlink:title="MCH/Decoding.h">
<polygon fill="none" stroke="black" points="534.5,-291.5 534.5,-310.5 626.5,-310.5 626.5,-291.5 534.5,-291.5"/>
<text text-anchor="middle" x="580.5" y="-298.5" font-family="Helvetica,sans-Serif" font-size="10.00">MCH/Decoding.h</text>
</a>
</g>
</g>
<!-- Node1&#45;&gt;Node8 -->
<g id="edge7" class="edge"><title>Node1&#45;&gt;Node8</title>
<path fill="none" stroke="midnightblue" d="M411.594,-347.475C450.554,-336.986 503.106,-322.837 539.189,-313.122"/>
<polygon fill="midnightblue" stroke="midnightblue" points="540.159,-316.486 548.905,-310.506 538.339,-309.727 540.159,-316.486"/>
</g>
<!-- Node27 -->
<g id="node27" class="node"><title>Node27</title>
<polygon fill="none" stroke="#bfbfbf" points="701.5,-235.5 701.5,-254.5 795.5,-254.5 795.5,-235.5 701.5,-235.5"/>
<text text-anchor="middle" x="748.5" y="-242.5" font-family="Helvetica,sans-Serif" font-size="10.00">MCHBase/Digit.h</text>
</g>
<!-- Node1&#45;&gt;Node27 -->
<g id="edge36" class="edge"><title>Node1&#45;&gt;Node27</title>
<path fill="none" stroke="midnightblue" d="M424.724,-355.89C481.718,-349.516 565.984,-336.492 635.5,-311 644.888,-307.557 695.162,-277.894 725.401,-259.851"/>
<polygon fill="midnightblue" stroke="midnightblue" points="727.287,-262.801 734.074,-254.666 723.695,-256.792 727.287,-262.801"/>
</g>
<!-- Node28 -->
<g id="node28" class="node"><title>Node28</title>
<polygon fill="none" stroke="#bfbfbf" points="682.5,-291.5 682.5,-310.5 738.5,-310.5 738.5,-291.5 682.5,-291.5"/>
<text text-anchor="middle" x="710.5" y="-298.5" font-family="Helvetica,sans-Serif" font-size="10.00">cinttypes</text>
</g>
<!-- Node1&#45;&gt;Node28 -->
<g id="edge37" class="edge"><title>Node1&#45;&gt;Node28</title>
<path fill="none" stroke="midnightblue" d="M424.768,-351.785C487.42,-342.236 584.639,-326.828 668.5,-311 669.737,-310.767 670.993,-310.525 672.26,-310.277"/>
<polygon fill="midnightblue" stroke="midnightblue" points="672.966,-313.705 682.072,-308.289 671.576,-306.845 672.966,-313.705"/>
</g>
<!-- Node7 -->
<g id="node7" class="node"><title>Node7</title>
<polygon fill="none" stroke="#bfbfbf" points="276.5,-235.5 276.5,-254.5 406.5,-254.5 406.5,-235.5 276.5,-235.5"/>
<text text-anchor="middle" x="341.5" y="-242.5" font-family="Helvetica,sans-Serif" font-size="10.00">InfoLogger/InfoLogger.hxx</text>
</g>
<!-- Node6&#45;&gt;Node7 -->
<g id="edge6" class="edge"><title>Node6&#45;&gt;Node7</title>
<path fill="none" stroke="midnightblue" d="M425.433,-291.324C409.542,-282.743 384.993,-269.486 366.542,-259.522"/>
<polygon fill="midnightblue" stroke="midnightblue" points="367.989,-256.326 357.527,-254.655 364.663,-262.486 367.989,-256.326"/>
</g>
<!-- Node9 -->
<g id="node9" class="node"><title>Node9</title>
<g id="a_node9"><a xlink:href="TaskInterface_8h.html" target="_top" xlink:title="QualityControl/TaskInterface.h">
<polygon fill="none" stroke="black" points="387.5,-174 387.5,-193 537.5,-193 537.5,-174 387.5,-174"/>
<text text-anchor="middle" x="462.5" y="-181" font-family="Helvetica,sans-Serif" font-size="10.00">QualityControl/TaskInterface.h</text>
</a>
</g>
</g>
<!-- Node8&#45;&gt;Node9 -->
<g id="edge8" class="edge"><title>Node8&#45;&gt;Node9</title>
<path fill="none" stroke="midnightblue" d="M542.3,-291.465C509.157,-283.194 464.903,-269.762 454.5,-255 443.776,-239.783 448.502,-217.964 454.173,-202.64"/>
<polygon fill="midnightblue" stroke="midnightblue" points="457.478,-203.808 458.072,-193.23 451.011,-201.128 457.478,-203.808"/>
</g>
<!-- Node24 -->
<g id="node24" class="node"><title>Node24</title>
<g id="a_node24"><a xlink:href="sampa__header_8h_source.html" target="_top" xlink:title="MCH/sampa_header.h">
<polygon fill="none" stroke="black" points="463,-235.5 463,-254.5 578,-254.5 578,-235.5 463,-235.5"/>
<text text-anchor="middle" x="520.5" y="-242.5" font-family="Helvetica,sans-Serif" font-size="10.00">MCH/sampa_header.h</text>
</a>
</g>
</g>
<!-- Node8&#45;&gt;Node24 -->
<g id="edge31" class="edge"><title>Node8&#45;&gt;Node24</title>
<path fill="none" stroke="midnightblue" d="M570.86,-291.324C561.99,-283.341 548.625,-271.313 537.892,-261.653"/>
<polygon fill="midnightblue" stroke="midnightblue" points="540.09,-258.922 530.315,-254.834 535.407,-264.125 540.09,-258.922"/>
</g>
<!-- Node25 -->
<g id="node25" class="node"><title>Node25</title>
<g id="a_node25"><a xlink:href="Mapping_8h_source.html" target="_top" xlink:title="MCH/Mapping.h">
<polygon fill="none" stroke="black" points="595.5,-235.5 595.5,-254.5 683.5,-254.5 683.5,-235.5 595.5,-235.5"/>
<text text-anchor="middle" x="639.5" y="-242.5" font-family="Helvetica,sans-Serif" font-size="10.00">MCH/Mapping.h</text>
</a>
</g>
</g>
<!-- Node8&#45;&gt;Node25 -->
<g id="edge32" class="edge"><title>Node8&#45;&gt;Node25</title>
<path fill="none" stroke="midnightblue" d="M589.979,-291.324C598.701,-283.341 611.843,-271.313 622.398,-261.653"/>
<polygon fill="midnightblue" stroke="midnightblue" points="624.834,-264.167 629.848,-254.834 620.108,-259.004 624.834,-264.167"/>
</g>
<!-- Node8&#45;&gt;Node27 -->
<g id="edge35" class="edge"><title>Node8&#45;&gt;Node27</title>
<path fill="none" stroke="midnightblue" d="M607.12,-291.444C635.506,-282.32 680.637,-267.813 712.253,-257.651"/>
<polygon fill="midnightblue" stroke="midnightblue" points="713.555,-260.909 722.004,-254.516 711.413,-254.244 713.555,-260.909"/>
</g>
<!-- Node10 -->
<g id="node10" class="node"><title>Node10</title>
<polygon fill="none" stroke="#bfbfbf" points="596,-0.5 596,-19.5 631,-19.5 631,-0.5 596,-0.5"/>
<text text-anchor="middle" x="613.5" y="-7.5" font-family="Helvetica,sans-Serif" font-size="10.00">map</text>
</g>
<!-- Node9&#45;&gt;Node10 -->
<g id="edge9" class="edge"><title>Node9&#45;&gt;Node10</title>
<path fill="none" stroke="midnightblue" d="M426.4,-173.843C404.656,-166.567 378.698,-153.75 365.5,-132 347.978,-103.123 343.852,-81.9291 365.5,-56 393.353,-22.6382 527.293,-13.9562 585.92,-11.7405"/>
<polygon fill="midnightblue" stroke="midnightblue" points="586.073,-15.2374 595.948,-11.3975 585.834,-8.24147 586.073,-15.2374"/>
</g>
<!-- Node11 -->
<g id="node11" class="node"><title>Node11</title>
<polygon fill="none" stroke="#bfbfbf" points="458.5,-56.5 458.5,-75.5 510.5,-75.5 510.5,-56.5 458.5,-56.5"/>
<text text-anchor="middle" x="484.5" y="-63.5" font-family="Helvetica,sans-Serif" font-size="10.00">memory</text>
</g>
<!-- Node9&#45;&gt;Node11 -->
<g id="edge10" class="edge"><title>Node9&#45;&gt;Node11</title>
<path fill="none" stroke="midnightblue" d="M455.114,-173.682C444.77,-160.199 428.218,-133.736 437.5,-112 442.647,-99.9469 452.781,-89.5764 462.326,-81.8389"/>
<polygon fill="midnightblue" stroke="midnightblue" points="464.54,-84.5532 470.422,-75.7409 460.328,-78.9619 464.54,-84.5532"/>
</g>
<!-- Node12 -->
<g id="node12" class="node"><title>Node12</title>
<polygon fill="none" stroke="#bfbfbf" points="726,-0.5 726,-19.5 767,-19.5 767,-0.5 726,-0.5"/>
<text text-anchor="middle" x="746.5" y="-7.5" font-family="Helvetica,sans-Serif" font-size="10.00">string</text>
</g>
<!-- Node9&#45;&gt;Node12 -->
<g id="edge11" class="edge"><title>Node9&#45;&gt;Node12</title>
<path fill="none" stroke="midnightblue" d="M454.91,-173.955C447.042,-164.475 435.243,-148.348 430.5,-132 420.798,-98.5618 422.804,-78.3509 449.5,-56 469.753,-39.0433 643.967,-20.7414 715.766,-13.8438"/>
<polygon fill="midnightblue" stroke="midnightblue" points="716.355,-17.3037 725.979,-12.8734 715.693,-10.3351 716.355,-17.3037"/>
</g>
<!-- Node13 -->
<g id="node13" class="node"><title>Node13</title>
<polygon fill="none" stroke="#bfbfbf" points="340,-0.5 340,-19.5 423,-19.5 423,-0.5 340,-0.5"/>
<text text-anchor="middle" x="381.5" y="-7.5" font-family="Helvetica,sans-Serif" font-size="10.00">unordered_map</text>
</g>
<!-- Node9&#45;&gt;Node13 -->
<g id="edge12" class="edge"><title>Node9&#45;&gt;Node13</title>
<path fill="none" stroke="midnightblue" d="M395.811,-173.934C370.073,-167.009 343.117,-154.515 327.5,-132 308.249,-104.245 313.173,-86.5888 327.5,-56 333.545,-43.0941 345.312,-32.5985 356.323,-24.9999"/>
<polygon fill="midnightblue" stroke="midnightblue" points="358.328,-27.8723 364.867,-19.5364 354.557,-21.9748 358.328,-27.8723"/>
</g>
<!-- Node14 -->
<g id="node14" class="node"><title>Node14</title>
<polygon fill="none" stroke="#bfbfbf" points="446,-112.5 446,-131.5 571,-131.5 571,-112.5 446,-112.5"/>
<text text-anchor="middle" x="508.5" y="-119.5" font-family="Helvetica,sans-Serif" font-size="10.00">Framework/InitContext.h</text>
</g>
<!-- Node9&#45;&gt;Node14 -->
<g id="edge13" class="edge"><title>Node9&#45;&gt;Node14</title>
<path fill="none" stroke="midnightblue" d="M469.091,-173.975C475.991,-165.05 487.002,-150.807 495.634,-139.643"/>
<polygon fill="midnightblue" stroke="midnightblue" points="498.574,-141.561 501.922,-131.509 493.036,-137.28 498.574,-141.561"/>
</g>
<!-- Node15 -->
<g id="node15" class="node"><title>Node15</title>
<polygon fill="none" stroke="#bfbfbf" points="589.5,-112.5 589.5,-131.5 749.5,-131.5 749.5,-112.5 589.5,-112.5"/>
<text text-anchor="middle" x="669.5" y="-119.5" font-family="Helvetica,sans-Serif" font-size="10.00">Framework/ProcessingContext.h</text>
</g>
<!-- Node9&#45;&gt;Node15 -->
<g id="edge14" class="edge"><title>Node9&#45;&gt;Node15</title>
<path fill="none" stroke="midnightblue" d="M492.158,-173.975C528.434,-163.548 589.964,-145.862 630.164,-134.307"/>
<polygon fill="midnightblue" stroke="midnightblue" points="631.253,-137.635 639.897,-131.509 629.319,-130.908 631.253,-137.635"/>
</g>
<!-- Node16 -->
<g id="node16" class="node"><title>Node16</title>
<g id="a_node16"><a xlink:href="Activity_8h.html" target="_top" xlink:title="QualityControl/Activity.h">
<polygon fill="none" stroke="black" points="768,-112.5 768,-131.5 891,-131.5 891,-112.5 768,-112.5"/>
<text text-anchor="middle" x="829.5" y="-119.5" font-family="Helvetica,sans-Serif" font-size="10.00">QualityControl/Activity.h</text>
</a>
</g>
</g>
<!-- Node9&#45;&gt;Node16 -->
<g id="edge15" class="edge"><title>Node9&#45;&gt;Node16</title>
<path fill="none" stroke="midnightblue" d="M515.082,-173.975C581.578,-163.194 695.934,-144.654 766.875,-133.153"/>
<polygon fill="midnightblue" stroke="midnightblue" points="767.704,-136.564 777.015,-131.509 766.584,-129.655 767.704,-136.564"/>
</g>
<!-- Node17 -->
<g id="node17" class="node"><title>Node17</title>
<g id="a_node17"><a xlink:href="ObjectsManager_8h.html" target="_top" xlink:title="QualityControl/ObjectsManager.h">
<polygon fill="none" stroke="black" points="909,-112.5 909,-131.5 1070,-131.5 1070,-112.5 909,-112.5"/>
<text text-anchor="middle" x="989.5" y="-119.5" font-family="Helvetica,sans-Serif" font-size="10.00">QualityControl/ObjectsManager.h</text>
</a>
</g>
</g>
<!-- Node9&#45;&gt;Node17 -->
<g id="edge16" class="edge"><title>Node9&#45;&gt;Node17</title>
<path fill="none" stroke="midnightblue" d="M525.865,-173.976C541.433,-171.95 558.062,-169.843 573.5,-168 685.442,-154.636 814.541,-140.937 898.857,-132.221"/>
<polygon fill="midnightblue" stroke="midnightblue" points="899.325,-135.692 908.913,-131.183 898.607,-128.729 899.325,-135.692"/>
</g>
<!-- Node17&#45;&gt;Node11 -->
<g id="edge30" class="edge"><title>Node17&#45;&gt;Node11</title>
<path fill="none" stroke="midnightblue" d="M909.76,-112.473C798.706,-100.598 601.995,-79.5638 520.952,-70.8979"/>
<polygon fill="midnightblue" stroke="midnightblue" points="521.07,-67.3905 510.754,-69.8074 520.325,-74.3509 521.07,-67.3905"/>
</g>
<!-- Node17&#45;&gt;Node12 -->
<g id="edge29" class="edge"><title>Node17&#45;&gt;Node12</title>
<path fill="none" stroke="midnightblue" d="M931.815,-112.478C869.898,-102.844 778.725,-87.0663 766.5,-76 753.526,-64.2556 748.871,-44.3216 747.251,-29.6182"/>
<polygon fill="midnightblue" stroke="midnightblue" points="750.74,-29.3328 746.516,-19.6162 743.759,-29.8458 750.74,-29.3328"/>
</g>
<!-- Node18 -->
<g id="node18" class="node"><title>Node18</title>
<g id="a_node18"><a xlink:href="MonitorObject_8h.html" target="_top" xlink:title="QualityControl/MonitorObject.h">
<polygon fill="none" stroke="black" points="914,-56.5 914,-75.5 1065,-75.5 1065,-56.5 914,-56.5"/>
<text text-anchor="middle" x="989.5" y="-63.5" font-family="Helvetica,sans-Serif" font-size="10.00">QualityControl/MonitorObject.h</text>
</a>
</g>
</g>
<!-- Node17&#45;&gt;Node18 -->
<g id="edge17" class="edge"><title>Node17&#45;&gt;Node18</title>
<path fill="none" stroke="midnightblue" d="M989.5,-112.083C989.5,-105.006 989.5,-94.8611 989.5,-85.9865"/>
<polygon fill="midnightblue" stroke="midnightblue" points="993,-85.751 989.5,-75.7511 986,-85.7511 993,-85.751"/>
</g>
<!-- Node22 -->
<g id="node22" class="node"><title>Node22</title>
<g id="a_node22"><a xlink:href="Quality_8h.html" target="_top" xlink:title="QualityControl/Quality.h">
<polygon fill="none" stroke="black" points="775,-56.5 775,-75.5 896,-75.5 896,-56.5 775,-56.5"/>
<text text-anchor="middle" x="835.5" y="-63.5" font-family="Helvetica,sans-Serif" font-size="10.00">QualityControl/Quality.h</text>
</a>
</g>
</g>
<!-- Node17&#45;&gt;Node22 -->
<g id="edge23" class="edge"><title>Node17&#45;&gt;Node22</title>
<path fill="none" stroke="midnightblue" d="M965.098,-112.444C939.303,-103.399 898.423,-89.064 869.482,-78.9158"/>
<polygon fill="midnightblue" stroke="midnightblue" points="870.382,-75.5226 859.788,-75.5164 868.066,-82.1283 870.382,-75.5226"/>
</g>
<!-- Node23 -->
<g id="node23" class="node"><title>Node23</title>
<g id="a_node23"><a xlink:href="TaskConfig_8h.html" target="_top" xlink:title="QualityControl/TaskConfig.h">
<polygon fill="none" stroke="black" points="578.5,-56.5 578.5,-75.5 718.5,-75.5 718.5,-56.5 578.5,-56.5"/>
<text text-anchor="middle" x="648.5" y="-63.5" font-family="Helvetica,sans-Serif" font-size="10.00">QualityControl/TaskConfig.h</text>
</a>
</g>
</g>
<!-- Node17&#45;&gt;Node23 -->
<g id="edge26" class="edge"><title>Node17&#45;&gt;Node23</title>
<path fill="none" stroke="midnightblue" d="M935.468,-112.444C874.859,-102.846 776.638,-87.2916 712.303,-77.1037"/>
<polygon fill="midnightblue" stroke="midnightblue" points="712.704,-73.6237 702.28,-75.5164 711.609,-80.5375 712.704,-73.6237"/>
</g>
<!-- Node18&#45;&gt;Node10 -->
<g id="edge19" class="edge"><title>Node18&#45;&gt;Node10</title>
<path fill="none" stroke="midnightblue" d="M929.922,-56.4435C847.486,-44.6044 701.948,-23.7026 641.273,-14.9887"/>
<polygon fill="midnightblue" stroke="midnightblue" points="641.69,-11.5127 631.294,-13.5555 640.695,-18.4416 641.69,-11.5127"/>
</g>
<!-- Node18&#45;&gt;Node12 -->
<g id="edge18" class="edge"><title>Node18&#45;&gt;Node12</title>
<path fill="none" stroke="midnightblue" d="M950.996,-56.4435C902.801,-45.7335 821.232,-27.6072 777.083,-17.7961"/>
<polygon fill="midnightblue" stroke="midnightblue" points="777.743,-14.3576 767.222,-15.6049 776.225,-21.191 777.743,-14.3576"/>
</g>
<!-- Node19 -->
<g id="node19" class="node"><title>Node19</title>
<polygon fill="none" stroke="#bfbfbf" points="826.5,-0.5 826.5,-19.5 882.5,-19.5 882.5,-0.5 826.5,-0.5"/>
<text text-anchor="middle" x="854.5" y="-7.5" font-family="Helvetica,sans-Serif" font-size="10.00">Rtypes.h</text>
</g>
<!-- Node18&#45;&gt;Node19 -->
<g id="edge20" class="edge"><title>Node18&#45;&gt;Node19</title>
<path fill="none" stroke="midnightblue" d="M968.109,-56.4435C945.793,-47.5171 910.597,-33.4387 885.292,-23.3168"/>
<polygon fill="midnightblue" stroke="midnightblue" points="886.376,-19.9807 875.791,-19.5164 883.776,-26.4801 886.376,-19.9807"/>
</g>
<!-- Node20 -->
<g id="node20" class="node"><title>Node20</title>
<polygon fill="none" stroke="#bfbfbf" points="940,-0.5 940,-19.5 999,-19.5 999,-0.5 940,-0.5"/>
<text text-anchor="middle" x="969.5" y="-7.5" font-family="Helvetica,sans-Serif" font-size="10.00">TObject.h</text>
</g>
<!-- Node18&#45;&gt;Node20 -->
<g id="edge21" class="edge"><title>Node18&#45;&gt;Node20</title>
<path fill="none" stroke="midnightblue" d="M986.197,-56.083C983.518,-48.8486 979.651,-38.4087 976.314,-29.3968"/>
<polygon fill="midnightblue" stroke="midnightblue" points="979.496,-27.9129 972.741,-19.7511 972.932,-30.3442 979.496,-27.9129"/>
</g>
<!-- Node21 -->
<g id="node21" class="node"><title>Node21</title>
<polygon fill="none" stroke="#bfbfbf" points="1017.5,-0.5 1017.5,-19.5 1133.5,-19.5 1133.5,-0.5 1017.5,-0.5"/>
<text text-anchor="middle" x="1075.5" y="-7.5" font-family="Helvetica,sans-Serif" font-size="10.00">Common/Exceptions.h</text>
</g>
<!-- Node18&#45;&gt;Node21 -->
<g id="edge22" class="edge"><title>Node18&#45;&gt;Node21</title>
<path fill="none" stroke="midnightblue" d="M1003.32,-56.324C1016.73,-47.9002 1037.32,-34.9709 1053.09,-25.0741"/>
<polygon fill="midnightblue" stroke="midnightblue" points="1055.11,-27.9364 1061.72,-19.6545 1051.39,-22.0081 1055.11,-27.9364"/>
</g>
<!-- Node22&#45;&gt;Node12 -->
<g id="edge25" class="edge"><title>Node22&#45;&gt;Node12</title>
<path fill="none" stroke="midnightblue" d="M821.201,-56.324C807.317,-47.9002 786.008,-34.9709 769.696,-25.0741"/>
<polygon fill="midnightblue" stroke="midnightblue" points="771.129,-21.8495 760.764,-19.6545 767.498,-27.8341 771.129,-21.8495"/>
</g>
<!-- Node22&#45;&gt;Node19 -->
<g id="edge24" class="edge"><title>Node22&#45;&gt;Node19</title>
<path fill="none" stroke="midnightblue" d="M838.637,-56.083C841.183,-48.8486 844.856,-38.4087 848.027,-29.3968"/>
<polygon fill="midnightblue" stroke="midnightblue" points="851.403,-30.3459 851.421,-19.7511 844.8,-28.0225 851.403,-30.3459"/>
</g>
<!-- Node23&#45;&gt;Node12 -->
<g id="edge27" class="edge"><title>Node23&#45;&gt;Node12</title>
<path fill="none" stroke="midnightblue" d="M664.245,-56.324C679.819,-47.7428 703.877,-34.486 721.959,-24.5224"/>
<polygon fill="midnightblue" stroke="midnightblue" points="723.724,-27.546 730.794,-19.6545 720.346,-21.4152 723.724,-27.546"/>
</g>
<!-- Node23&#45;&gt;Node13 -->
<g id="edge28" class="edge"><title>Node23&#45;&gt;Node13</title>
<path fill="none" stroke="midnightblue" d="M606.193,-56.4435C559.283,-46.9561 483.596,-31.6487 433.206,-21.4574"/>
<polygon fill="midnightblue" stroke="midnightblue" points="433.665,-17.9794 423.169,-19.4275 432.277,-24.8405 433.665,-17.9794"/>
</g>
<!-- Node25&#45;&gt;Node9 -->
<g id="edge34" class="edge"><title>Node25&#45;&gt;Node9</title>
<path fill="none" stroke="midnightblue" d="M614.14,-235.475C583.516,-225.18 531.843,-207.81 497.454,-196.25"/>
<polygon fill="midnightblue" stroke="midnightblue" points="498.407,-192.878 487.813,-193.009 496.176,-199.513 498.407,-192.878"/>
</g>
<!-- Node26 -->
<g id="node26" class="node"><title>Node26</title>
<polygon fill="none" stroke="#bfbfbf" points="582,-168.5 582,-198.5 697,-198.5 697,-168.5 582,-168.5"/>
<text text-anchor="start" x="590" y="-186.5" font-family="Helvetica,sans-Serif" font-size="10.00">MCHMappingInterface</text>
<text text-anchor="middle" x="639.5" y="-175.5" font-family="Helvetica,sans-Serif" font-size="10.00">/Segmentation.h</text>
</g>
<!-- Node25&#45;&gt;Node26 -->
<g id="edge33" class="edge"><title>Node25&#45;&gt;Node26</title>
<path fill="none" stroke="midnightblue" d="M639.5,-235.475C639.5,-228.471 639.5,-218.192 639.5,-208.696"/>
<polygon fill="midnightblue" stroke="midnightblue" points="643,-208.523 639.5,-198.523 636,-208.523 643,-208.523"/>
</g>
</g>
</svg>
        <g id="navigator" transform="translate(0 0)" fill="#404254">
                <rect fill="#f2f5e9" fill-opacity="0.5" stroke="#606060" stroke-width=".5" x="0" y="0" width="60" height="60"/>
                <use id="zoomplus" xlink:href="#zoomPlus" x="17" y="9" onmousedown="handleZoom(evt,'in')"/>
                <use id="zoomminus" xlink:href="#zoomMin" x="42" y="9" onmousedown="handleZoom(evt,'out')"/>
                <use id="reset" xlink:href="#resetDef" x="30" y="36" onmousedown="handleReset()"/>
                <g id="arrowUp" xlink:href="#dirArrow" transform="translate(30 24)" onmousedown="handlePan(0,-1)">
                  <use xlink:href="#rim" fill="#404040">
                        <set attributeName="fill" to="#808080" begin="arrowUp.mouseover" end="arrowUp.mouseout"/>
                  </use>
                  <path fill="none" stroke="white" stroke-width="1.5" d="M0,-3.0v7 M-2.5,-0.5L0,-3.0L2.5,-0.5"/>
                </g>
                <g id="arrowRight" xlink:href="#dirArrow" transform="rotate(90) translate(36 -43)" onmousedown="handlePan(1,0)">
                  <use xlink:href="#rim" fill="#404040">
                        <set attributeName="fill" to="#808080" begin="arrowRight.mouseover" end="arrowRight.mouseout"/>
                  </use>
                  <path fill="none" stroke="white" stroke-width="1.5" d="M0,-3.0v7 M-2.5,-0.5L0,-3.0L2.5,-0.5"/>
                </g>
                <g id="arrowDown" xlink:href="#dirArrow" transform="rotate(180) translate(-30 -48)" onmousedown="handlePan(0,1)">
                  <use xlink:href="#rim" fill="#404040">
                        <set attributeName="fill" to="#808080" begin="arrowDown.mouseover" end="arrowDown.mouseout"/>
                  </use>
                  <path fill="none" stroke="white" stroke-width="1.5" d="M0,-3.0v7 M-2.5,-0.5L0,-3.0L2.5,-0.5"/>
                </g>
                <g id="arrowLeft" xlink:href="#dirArrow" transform="rotate(270) translate(-36 17)" onmousedown="handlePan(-1,0)">
                  <use xlink:href="#rim" fill="#404040">
                        <set attributeName="fill" to="#808080" begin="arrowLeft.mouseover" end="arrowLeft.mouseout"/>
                  </use>
                  <path fill="none" stroke="white" stroke-width="1.5" d="M0,-3.0v7 M-2.5,-0.5L0,-3.0L2.5,-0.5"/>
                </g>
        </g>
        <svg viewBox="0 0 15 15" width="100%" height="30px" preserveAspectRatio="xMaxYMin meet">
         <g id="arrow_out" transform="scale(0.3 0.3)">
          <a xlink:href="Decoding_8cxx__incl_org.svg" target="_base">
           <rect id="button" ry="5" rx="5" y="6" x="6" height="38" width="38"
                fill="#f2f5e9" fill-opacity="0.5" stroke="#606060" stroke-width="1.0"/>
           <path id="arrow"
             d="M 11.500037,31.436501 C 11.940474,20.09759 22.043105,11.32322 32.158766,21.979434 L 37.068811,17.246167 C 37.068811,17.246167 37.088388,32 37.088388,32 L 22.160133,31.978069 C 22.160133,31.978069 26.997745,27.140456 26.997745,27.140456 C 18.528582,18.264221 13.291696,25.230495 11.500037,31.436501 z"
             style="fill:#404040;"/>
          </a>
         </g>
        </svg>
</svg>
