<?xml version="1.0" encoding="UTF-8" standalone="no"?>
<!DOCTYPE svg PUBLIC "-//W3C//DTD SVG 1.1//EN"
 "http://www.w3.org/Graphics/SVG/1.1/DTD/svg11.dtd">
<!-- Generated by graphviz version 2.38.0 (20140413.2041)
 -->
<!-- Title: Modules/EMCAL/src/DigitsQcTask.cxx Pages: 1 -->
<svg width="1645pt" height="330pt"
 viewBox="0.00 0.00 1644.50 330.00" xmlns="http://www.w3.org/2000/svg" xmlns:xlink="http://www.w3.org/1999/xlink">
<g id="graph0" class="graph" transform="scale(1 1) rotate(0) translate(4 326)">
<title>Modules/EMCAL/src/DigitsQcTask.cxx</title>
<!-- Node1 -->
<g id="node1" class="node"><title>Node1</title>
<polygon fill="#bfbfbf" stroke="black" points="415.5,-291.5 415.5,-321.5 551.5,-321.5 551.5,-291.5 415.5,-291.5"/>
<text text-anchor="start" x="423.5" y="-309.5" font-family="Helvetica,sans-Serif" font-size="10.00">Modules/EMCAL/src/Digits</text>
<text text-anchor="middle" x="483.5" y="-298.5" font-family="Helvetica,sans-Serif" font-size="10.00">QcTask.cxx</text>
</g>
<!-- Node2 -->
<g id="node2" class="node"><title>Node2</title>
<polygon fill="none" stroke="#bfbfbf" points="0,-230 0,-249 65,-249 65,-230 0,-230"/>
<text text-anchor="middle" x="32.5" y="-237" font-family="Helvetica,sans-Serif" font-size="10.00">TCanvas.h</text>
</g>
<!-- Node1&#45;&gt;Node2 -->
<g id="edge1" class="edge"><title>Node1&#45;&gt;Node2</title>
<path fill="none" stroke="midnightblue" d="M415.434,-301.473C333.639,-295.633 192.642,-282.368 74.5,-255 71.0901,-254.21 67.5695,-253.245 64.0845,-252.191"/>
<polygon fill="midnightblue" stroke="midnightblue" points="65.0715,-248.831 54.4791,-249.059 62.9013,-255.486 65.0715,-248.831"/>
</g>
<!-- Node3 -->
<g id="node3" class="node"><title>Node3</title>
<polygon fill="none" stroke="#bfbfbf" points="83.5,-230 83.5,-249 127.5,-249 127.5,-230 83.5,-230"/>
<text text-anchor="middle" x="105.5" y="-237" font-family="Helvetica,sans-Serif" font-size="10.00">TH2.h</text>
</g>
<!-- Node1&#45;&gt;Node3 -->
<g id="edge2" class="edge"><title>Node1&#45;&gt;Node3</title>
<path fill="none" stroke="midnightblue" d="M415.388,-301.494C344.486,-295.964 230.829,-283.253 136.5,-255 134.622,-254.437 132.713,-253.779 130.812,-253.059"/>
<polygon fill="midnightblue" stroke="midnightblue" points="132.128,-249.815 121.558,-249.1 129.375,-256.251 132.128,-249.815"/>
</g>
<!-- Node4 -->
<g id="node4" class="node"><title>Node4</title>
<polygon fill="none" stroke="#bfbfbf" points="145.5,-224.5 145.5,-254.5 315.5,-254.5 315.5,-224.5 145.5,-224.5"/>
<text text-anchor="start" x="153.5" y="-242.5" font-family="Helvetica,sans-Serif" font-size="10.00">DataFormatsEMCAL/EMCALBlock</text>
<text text-anchor="middle" x="230.5" y="-231.5" font-family="Helvetica,sans-Serif" font-size="10.00">Header.h</text>
</g>
<!-- Node1&#45;&gt;Node4 -->
<g id="edge3" class="edge"><title>Node1&#45;&gt;Node4</title>
<path fill="none" stroke="midnightblue" d="M428.914,-291.476C389.645,-281.387 336.532,-267.741 295.14,-257.107"/>
<polygon fill="midnightblue" stroke="midnightblue" points="295.98,-253.709 285.424,-254.611 294.239,-260.489 295.98,-253.709"/>
</g>
<!-- Node5 -->
<g id="node5" class="node"><title>Node5</title>
<polygon fill="none" stroke="#bfbfbf" points="334,-224.5 334,-254.5 475,-254.5 475,-224.5 334,-224.5"/>
<text text-anchor="start" x="342" y="-242.5" font-family="Helvetica,sans-Serif" font-size="10.00">DataFormatsEMCAL/Trigger</text>
<text text-anchor="middle" x="404.5" y="-231.5" font-family="Helvetica,sans-Serif" font-size="10.00">Record.h</text>
</g>
<!-- Node1&#45;&gt;Node5 -->
<g id="edge4" class="edge"><title>Node1&#45;&gt;Node5</title>
<path fill="none" stroke="midnightblue" d="M466.358,-291.396C455.592,-282.538 441.521,-270.96 429.52,-261.086"/>
<polygon fill="midnightblue" stroke="midnightblue" points="431.554,-258.227 421.608,-254.577 427.107,-263.633 431.554,-258.227"/>
</g>
<!-- Node6 -->
<g id="node6" class="node"><title>Node6</title>
<polygon fill="none" stroke="#bfbfbf" points="493.5,-230 493.5,-249 633.5,-249 633.5,-230 493.5,-230"/>
<text text-anchor="middle" x="563.5" y="-237" font-family="Helvetica,sans-Serif" font-size="10.00">DataFormatsEMCAL/Digit.h</text>
</g>
<!-- Node1&#45;&gt;Node6 -->
<g id="edge5" class="edge"><title>Node1&#45;&gt;Node6</title>
<path fill="none" stroke="midnightblue" d="M500.859,-291.396C513.827,-280.86 531.528,-266.477 544.806,-255.689"/>
<polygon fill="midnightblue" stroke="midnightblue" points="547.245,-258.217 552.799,-249.195 542.831,-252.784 547.245,-258.217"/>
</g>
<!-- Node7 -->
<g id="node7" class="node"><title>Node7</title>
<g id="a_node7"><a xlink:href="QcInfoLogger_8h.html" target="_top" xlink:title="QualityControl/QcInfoLogger.h">
<polygon fill="none" stroke="black" points="652,-230 652,-249 801,-249 801,-230 652,-230"/>
<text text-anchor="middle" x="726.5" y="-237" font-family="Helvetica,sans-Serif" font-size="10.00">QualityControl/QcInfoLogger.h</text>
</a>
</g>
</g>
<!-- Node1&#45;&gt;Node7 -->
<g id="edge6" class="edge"><title>Node1&#45;&gt;Node7</title>
<path fill="none" stroke="midnightblue" d="M535.928,-291.476C580.526,-279.547 643.715,-262.644 684.9,-251.628"/>
<polygon fill="midnightblue" stroke="midnightblue" points="685.86,-254.994 694.616,-249.029 684.051,-248.232 685.86,-254.994"/>
</g>
<!-- Node9 -->
<g id="node9" class="node"><title>Node9</title>
<g id="a_node9"><a xlink:href="DigitsQcTask_8h.html" target="_top" xlink:title="EMCAL/DigitsQcTask.h">
<polygon fill="none" stroke="black" points="819.5,-230 819.5,-249 941.5,-249 941.5,-230 819.5,-230"/>
<text text-anchor="middle" x="880.5" y="-237" font-family="Helvetica,sans-Serif" font-size="10.00">EMCAL/DigitsQcTask.h</text>
</a>
</g>
</g>
<!-- Node1&#45;&gt;Node9 -->
<g id="edge8" class="edge"><title>Node1&#45;&gt;Node9</title>
<path fill="none" stroke="midnightblue" d="M551.621,-296.014C617.885,-286.542 721.326,-271.111 810.5,-255 817.147,-253.799 824.131,-252.454 831.008,-251.079"/>
<polygon fill="midnightblue" stroke="midnightblue" points="831.854,-254.479 840.957,-249.058 830.461,-247.619 831.854,-254.479"/>
</g>
<!-- Node26 -->
<g id="node26" class="node"><title>Node26</title>
<polygon fill="none" stroke="#bfbfbf" points="959.5,-230 959.5,-249 1087.5,-249 1087.5,-230 959.5,-230"/>
<text text-anchor="middle" x="1023.5" y="-237" font-family="Helvetica,sans-Serif" font-size="10.00">EMCALBase/Geometry.h</text>
</g>
<!-- Node1&#45;&gt;Node26 -->
<g id="edge33" class="edge"><title>Node1&#45;&gt;Node26</title>
<path fill="none" stroke="midnightblue" d="M551.804,-300.018C643.001,-292.264 809.432,-276.594 950.5,-255 958.049,-253.844 966.003,-252.45 973.773,-250.988"/>
<polygon fill="midnightblue" stroke="midnightblue" points="974.678,-254.377 983.831,-249.041 973.349,-247.505 974.678,-254.377"/>
</g>
<!-- Node8 -->
<g id="node8" class="node"><title>Node8</title>
<polygon fill="none" stroke="#bfbfbf" points="661.5,-168.5 661.5,-187.5 791.5,-187.5 791.5,-168.5 661.5,-168.5"/>
<text text-anchor="middle" x="726.5" y="-175.5" font-family="Helvetica,sans-Serif" font-size="10.00">InfoLogger/InfoLogger.hxx</text>
</g>
<!-- Node7&#45;&gt;Node8 -->
<g id="edge7" class="edge"><title>Node7&#45;&gt;Node8</title>
<path fill="none" stroke="midnightblue" d="M726.5,-229.975C726.5,-221.58 726.5,-208.481 726.5,-197.663"/>
<polygon fill="midnightblue" stroke="midnightblue" points="730,-197.509 726.5,-187.509 723,-197.509 730,-197.509"/>
</g>
<!-- Node10 -->
<g id="node10" class="node"><title>Node10</title>
<g id="a_node10"><a xlink:href="TaskInterface_8h.html" target="_top" xlink:title="QualityControl/TaskInterface.h">
<polygon fill="none" stroke="black" points="891.5,-168.5 891.5,-187.5 1041.5,-187.5 1041.5,-168.5 891.5,-168.5"/>
<text text-anchor="middle" x="966.5" y="-175.5" font-family="Helvetica,sans-Serif" font-size="10.00">QualityControl/TaskInterface.h</text>
</a>
</g>
</g>
<!-- Node9&#45;&gt;Node10 -->
<g id="edge9" class="edge"><title>Node9&#45;&gt;Node10</title>
<path fill="none" stroke="midnightblue" d="M892.822,-229.975C906.616,-220.431 929.199,-204.807 945.732,-193.368"/>
<polygon fill="midnightblue" stroke="midnightblue" points="947.969,-196.077 954.201,-187.509 943.986,-190.32 947.969,-196.077"/>
</g>
<!-- Node25 -->
<g id="node25" class="node"><title>Node25</title>
<polygon fill="none" stroke="#bfbfbf" points="835.5,-168.5 835.5,-187.5 873.5,-187.5 873.5,-168.5 835.5,-168.5"/>
<text text-anchor="middle" x="854.5" y="-175.5" font-family="Helvetica,sans-Serif" font-size="10.00">array</text>
</g>
<!-- Node9&#45;&gt;Node25 -->
<g id="edge32" class="edge"><title>Node9&#45;&gt;Node25</title>
<path fill="none" stroke="midnightblue" d="M876.775,-229.975C873.029,-221.404 867.14,-207.927 862.358,-196.983"/>
<polygon fill="midnightblue" stroke="midnightblue" points="865.43,-195.271 858.218,-187.509 859.015,-198.074 865.43,-195.271"/>
</g>
<!-- Node11 -->
<g id="node11" class="node"><title>Node11</title>
<polygon fill="none" stroke="#bfbfbf" points="1099,-0.5 1099,-19.5 1134,-19.5 1134,-0.5 1099,-0.5"/>
<text text-anchor="middle" x="1116.5" y="-7.5" font-family="Helvetica,sans-Serif" font-size="10.00">map</text>
</g>
<!-- Node10&#45;&gt;Node11 -->
<g id="edge10" class="edge"><title>Node10&#45;&gt;Node11</title>
<path fill="none" stroke="midnightblue" d="M923.433,-168.486C903.104,-162.074 880.677,-150.991 868.5,-132 850.268,-103.565 846.852,-81.9291 868.5,-56 896.353,-22.6382 1030.29,-13.9562 1088.92,-11.7405"/>
<polygon fill="midnightblue" stroke="midnightblue" points="1089.07,-15.2374 1098.95,-11.3975 1088.83,-8.24147 1089.07,-15.2374"/>
</g>
<!-- Node12 -->
<g id="node12" class="node"><title>Node12</title>
<polygon fill="none" stroke="#bfbfbf" points="961.5,-56.5 961.5,-75.5 1013.5,-75.5 1013.5,-56.5 961.5,-56.5"/>
<text text-anchor="middle" x="987.5" y="-63.5" font-family="Helvetica,sans-Serif" font-size="10.00">memory</text>
</g>
<!-- Node10&#45;&gt;Node12 -->
<g id="edge11" class="edge"><title>Node10&#45;&gt;Node12</title>
<path fill="none" stroke="midnightblue" d="M958.364,-168.116C947.893,-155.549 932.004,-131.896 940.5,-112 945.647,-99.9469 955.781,-89.5764 965.326,-81.8389"/>
<polygon fill="midnightblue" stroke="midnightblue" points="967.54,-84.5532 973.422,-75.7409 963.328,-78.9619 967.54,-84.5532"/>
</g>
<!-- Node13 -->
<g id="node13" class="node"><title>Node13</title>
<polygon fill="none" stroke="#bfbfbf" points="1229,-0.5 1229,-19.5 1270,-19.5 1270,-0.5 1229,-0.5"/>
<text text-anchor="middle" x="1249.5" y="-7.5" font-family="Helvetica,sans-Serif" font-size="10.00">string</text>
</g>
<!-- Node10&#45;&gt;Node13 -->
<g id="edge12" class="edge"><title>Node10&#45;&gt;Node13</title>
<path fill="none" stroke="midnightblue" d="M957.48,-168.34C949.428,-159.932 938.202,-146.363 933.5,-132 922.668,-98.9107 925.804,-78.3509 952.5,-56 972.753,-39.0433 1146.97,-20.7414 1218.77,-13.8438"/>
<polygon fill="midnightblue" stroke="midnightblue" points="1219.35,-17.3037 1228.98,-12.8734 1218.69,-10.3351 1219.35,-17.3037"/>
</g>
<!-- Node14 -->
<g id="node14" class="node"><title>Node14</title>
<polygon fill="none" stroke="#bfbfbf" points="843,-0.5 843,-19.5 926,-19.5 926,-0.5 843,-0.5"/>
<text text-anchor="middle" x="884.5" y="-7.5" font-family="Helvetica,sans-Serif" font-size="10.00">unordered_map</text>
</g>
<!-- Node10&#45;&gt;Node14 -->
<g id="edge13" class="edge"><title>Node10&#45;&gt;Node14</title>
<path fill="none" stroke="midnightblue" d="M891.342,-169.312C868.048,-162.981 844.773,-151.756 830.5,-132 810.72,-104.62 816.173,-86.5888 830.5,-56 836.545,-43.0941 848.312,-32.5985 859.323,-24.9999"/>
<polygon fill="midnightblue" stroke="midnightblue" points="861.328,-27.8723 867.867,-19.5364 857.557,-21.9748 861.328,-27.8723"/>
</g>
<!-- Node15 -->
<g id="node15" class="node"><title>Node15</title>
<polygon fill="none" stroke="#bfbfbf" points="949,-112.5 949,-131.5 1074,-131.5 1074,-112.5 949,-112.5"/>
<text text-anchor="middle" x="1011.5" y="-119.5" font-family="Helvetica,sans-Serif" font-size="10.00">Framework/InitContext.h</text>
</g>
<!-- Node10&#45;&gt;Node15 -->
<g id="edge14" class="edge"><title>Node10&#45;&gt;Node15</title>
<path fill="none" stroke="midnightblue" d="M973.931,-168.083C980.353,-160.377 989.806,-149.033 997.622,-139.653"/>
<polygon fill="midnightblue" stroke="midnightblue" points="1000.49,-141.674 1004.21,-131.751 995.117,-137.193 1000.49,-141.674"/>
</g>
<!-- Node16 -->
<g id="node16" class="node"><title>Node16</title>
<polygon fill="none" stroke="#bfbfbf" points="1092.5,-112.5 1092.5,-131.5 1252.5,-131.5 1252.5,-112.5 1092.5,-112.5"/>
<text text-anchor="middle" x="1172.5" y="-119.5" font-family="Helvetica,sans-Serif" font-size="10.00">Framework/ProcessingContext.h</text>
</g>
<!-- Node10&#45;&gt;Node16 -->
<g id="edge15" class="edge"><title>Node10&#45;&gt;Node16</title>
<path fill="none" stroke="midnightblue" d="M999.141,-168.444C1034.55,-159.162 1091.21,-144.309 1130.05,-134.127"/>
<polygon fill="midnightblue" stroke="midnightblue" points="1131.23,-137.438 1140.01,-131.516 1129.45,-130.667 1131.23,-137.438"/>
</g>
<!-- Node17 -->
<g id="node17" class="node"><title>Node17</title>
<g id="a_node17"><a xlink:href="Activity_8h.html" target="_top" xlink:title="QualityControl/Activity.h">
<polygon fill="none" stroke="black" points="1271,-112.5 1271,-131.5 1394,-131.5 1394,-112.5 1271,-112.5"/>
<text text-anchor="middle" x="1332.5" y="-119.5" font-family="Helvetica,sans-Serif" font-size="10.00">QualityControl/Activity.h</text>
</a>
</g>
</g>
<!-- Node10&#45;&gt;Node17 -->
<g id="edge16" class="edge"><title>Node10&#45;&gt;Node17</title>
<path fill="none" stroke="midnightblue" d="M1024.49,-168.444C1089.81,-158.806 1195.84,-143.163 1264.87,-132.978"/>
<polygon fill="midnightblue" stroke="midnightblue" points="1265.4,-136.439 1274.78,-131.516 1264.37,-129.514 1265.4,-136.439"/>
</g>
<!-- Node18 -->
<g id="node18" class="node"><title>Node18</title>
<g id="a_node18"><a xlink:href="ObjectsManager_8h.html" target="_top" xlink:title="QualityControl/ObjectsManager.h">
<polygon fill="none" stroke="black" points="1412,-112.5 1412,-131.5 1573,-131.5 1573,-112.5 1412,-112.5"/>
<text text-anchor="middle" x="1492.5" y="-119.5" font-family="Helvetica,sans-Serif" font-size="10.00">QualityControl/ObjectsManager.h</text>
</a>
</g>
</g>
<!-- Node10&#45;&gt;Node18 -->
<g id="edge17" class="edge"><title>Node10&#45;&gt;Node18</title>
<path fill="none" stroke="midnightblue" d="M1041.58,-169.292C1136.49,-159.548 1299.75,-142.788 1401.61,-132.331"/>
<polygon fill="midnightblue" stroke="midnightblue" points="1401.98,-135.811 1411.57,-131.308 1401.27,-128.848 1401.98,-135.811"/>
</g>
<!-- Node18&#45;&gt;Node12 -->
<g id="edge31" class="edge"><title>Node18&#45;&gt;Node12</title>
<path fill="none" stroke="midnightblue" d="M1412.76,-112.473C1301.71,-100.598 1104.99,-79.5638 1023.95,-70.8979"/>
<polygon fill="midnightblue" stroke="midnightblue" points="1024.07,-67.3905 1013.75,-69.8074 1023.33,-74.3509 1024.07,-67.3905"/>
</g>
<!-- Node18&#45;&gt;Node13 -->
<g id="edge30" class="edge"><title>Node18&#45;&gt;Node13</title>
<path fill="none" stroke="midnightblue" d="M1434.81,-112.478C1372.9,-102.844 1281.72,-87.0663 1269.5,-76 1256.53,-64.2556 1251.87,-44.3216 1250.25,-29.6182"/>
<polygon fill="midnightblue" stroke="midnightblue" points="1253.74,-29.3328 1249.52,-19.6162 1246.76,-29.8458 1253.74,-29.3328"/>
</g>
<!-- Node19 -->
<g id="node19" class="node"><title>Node19</title>
<g id="a_node19"><a xlink:href="MonitorObject_8h.html" target="_top" xlink:title="QualityControl/MonitorObject.h">
<polygon fill="none" stroke="black" points="1417,-56.5 1417,-75.5 1568,-75.5 1568,-56.5 1417,-56.5"/>
<text text-anchor="middle" x="1492.5" y="-63.5" font-family="Helvetica,sans-Serif" font-size="10.00">QualityControl/MonitorObject.h</text>
</a>
</g>
</g>
<!-- Node18&#45;&gt;Node19 -->
<g id="edge18" class="edge"><title>Node18&#45;&gt;Node19</title>
<path fill="none" stroke="midnightblue" d="M1492.5,-112.083C1492.5,-105.006 1492.5,-94.8611 1492.5,-85.9865"/>
<polygon fill="midnightblue" stroke="midnightblue" points="1496,-85.751 1492.5,-75.7511 1489,-85.7511 1496,-85.751"/>
</g>
<!-- Node23 -->
<g id="node23" class="node"><title>Node23</title>
<g id="a_node23"><a xlink:href="Quality_8h.html" target="_top" xlink:title="QualityControl/Quality.h">
<polygon fill="none" stroke="black" points="1278,-56.5 1278,-75.5 1399,-75.5 1399,-56.5 1278,-56.5"/>
<text text-anchor="middle" x="1338.5" y="-63.5" font-family="Helvetica,sans-Serif" font-size="10.00">QualityControl/Quality.h</text>
</a>
</g>
</g>
<!-- Node18&#45;&gt;Node23 -->
<g id="edge24" class="edge"><title>Node18&#45;&gt;Node23</title>
<path fill="none" stroke="midnightblue" d="M1468.1,-112.444C1442.3,-103.399 1401.42,-89.064 1372.48,-78.9158"/>
<polygon fill="midnightblue" stroke="midnightblue" points="1373.38,-75.5226 1362.79,-75.5164 1371.07,-82.1283 1373.38,-75.5226"/>
</g>
<!-- Node24 -->
<g id="node24" class="node"><title>Node24</title>
<g id="a_node24"><a xlink:href="TaskConfig_8h.html" target="_top" xlink:title="QualityControl/TaskConfig.h">
<polygon fill="none" stroke="black" points="1081.5,-56.5 1081.5,-75.5 1221.5,-75.5 1221.5,-56.5 1081.5,-56.5"/>
<text text-anchor="middle" x="1151.5" y="-63.5" font-family="Helvetica,sans-Serif" font-size="10.00">QualityControl/TaskConfig.h</text>
</a>
</g>
</g>
<!-- Node18&#45;&gt;Node24 -->
<g id="edge27" class="edge"><title>Node18&#45;&gt;Node24</title>
<path fill="none" stroke="midnightblue" d="M1438.47,-112.444C1377.86,-102.846 1279.64,-87.2916 1215.3,-77.1037"/>
<polygon fill="midnightblue" stroke="midnightblue" points="1215.7,-73.6237 1205.28,-75.5164 1214.61,-80.5375 1215.7,-73.6237"/>
</g>
<!-- Node19&#45;&gt;Node11 -->
<g id="edge20" class="edge"><title>Node19&#45;&gt;Node11</title>
<path fill="none" stroke="midnightblue" d="M1432.92,-56.4435C1350.49,-44.6044 1204.95,-23.7026 1144.27,-14.9887"/>
<polygon fill="midnightblue" stroke="midnightblue" points="1144.69,-11.5127 1134.29,-13.5555 1143.69,-18.4416 1144.69,-11.5127"/>
</g>
<!-- Node19&#45;&gt;Node13 -->
<g id="edge19" class="edge"><title>Node19&#45;&gt;Node13</title>
<path fill="none" stroke="midnightblue" d="M1454,-56.4435C1405.8,-45.7335 1324.23,-27.6072 1280.08,-17.7961"/>
<polygon fill="midnightblue" stroke="midnightblue" points="1280.74,-14.3576 1270.22,-15.6049 1279.22,-21.191 1280.74,-14.3576"/>
</g>
<!-- Node20 -->
<g id="node20" class="node"><title>Node20</title>
<polygon fill="none" stroke="#bfbfbf" points="1329.5,-0.5 1329.5,-19.5 1385.5,-19.5 1385.5,-0.5 1329.5,-0.5"/>
<text text-anchor="middle" x="1357.5" y="-7.5" font-family="Helvetica,sans-Serif" font-size="10.00">Rtypes.h</text>
</g>
<!-- Node19&#45;&gt;Node20 -->
<g id="edge21" class="edge"><title>Node19&#45;&gt;Node20</title>
<path fill="none" stroke="midnightblue" d="M1471.11,-56.4435C1448.79,-47.5171 1413.6,-33.4387 1388.29,-23.3168"/>
<polygon fill="midnightblue" stroke="midnightblue" points="1389.38,-19.9807 1378.79,-19.5164 1386.78,-26.4801 1389.38,-19.9807"/>
</g>
<!-- Node21 -->
<g id="node21" class="node"><title>Node21</title>
<polygon fill="none" stroke="#bfbfbf" points="1443,-0.5 1443,-19.5 1502,-19.5 1502,-0.5 1443,-0.5"/>
<text text-anchor="middle" x="1472.5" y="-7.5" font-family="Helvetica,sans-Serif" font-size="10.00">TObject.h</text>
</g>
<!-- Node19&#45;&gt;Node21 -->
<g id="edge22" class="edge"><title>Node19&#45;&gt;Node21</title>
<path fill="none" stroke="midnightblue" d="M1489.2,-56.083C1486.52,-48.8486 1482.65,-38.4087 1479.31,-29.3968"/>
<polygon fill="midnightblue" stroke="midnightblue" points="1482.5,-27.9129 1475.74,-19.7511 1475.93,-30.3442 1482.5,-27.9129"/>
</g>
<!-- Node22 -->
<g id="node22" class="node"><title>Node22</title>
<polygon fill="none" stroke="#bfbfbf" points="1520.5,-0.5 1520.5,-19.5 1636.5,-19.5 1636.5,-0.5 1520.5,-0.5"/>
<text text-anchor="middle" x="1578.5" y="-7.5" font-family="Helvetica,sans-Serif" font-size="10.00">Common/Exceptions.h</text>
</g>
<!-- Node19&#45;&gt;Node22 -->
<g id="edge23" class="edge"><title>Node19&#45;&gt;Node22</title>
<path fill="none" stroke="midnightblue" d="M1506.32,-56.324C1519.73,-47.9002 1540.32,-34.9709 1556.09,-25.0741"/>
<polygon fill="midnightblue" stroke="midnightblue" points="1558.11,-27.9364 1564.72,-19.6545 1554.39,-22.0081 1558.11,-27.9364"/>
</g>
<!-- Node23&#45;&gt;Node13 -->
<g id="edge26" class="edge"><title>Node23&#45;&gt;Node13</title>
<path fill="none" stroke="midnightblue" d="M1324.2,-56.324C1310.32,-47.9002 1289.01,-34.9709 1272.7,-25.0741"/>
<polygon fill="midnightblue" stroke="midnightblue" points="1274.13,-21.8495 1263.76,-19.6545 1270.5,-27.8341 1274.13,-21.8495"/>
</g>
<!-- Node23&#45;&gt;Node20 -->
<g id="edge25" class="edge"><title>Node23&#45;&gt;Node20</title>
<path fill="none" stroke="midnightblue" d="M1341.64,-56.083C1344.18,-48.8486 1347.86,-38.4087 1351.03,-29.3968"/>
<polygon fill="midnightblue" stroke="midnightblue" points="1354.4,-30.3459 1354.42,-19.7511 1347.8,-28.0225 1354.4,-30.3459"/>
</g>
<!-- Node24&#45;&gt;Node13 -->
<g id="edge28" class="edge"><title>Node24&#45;&gt;Node13</title>
<path fill="none" stroke="midnightblue" d="M1167.25,-56.324C1182.82,-47.7428 1206.88,-34.486 1224.96,-24.5224"/>
<polygon fill="midnightblue" stroke="midnightblue" points="1226.72,-27.546 1233.79,-19.6545 1223.35,-21.4152 1226.72,-27.546"/>
</g>
<!-- Node24&#45;&gt;Node14 -->
<g id="edge29" class="edge"><title>Node24&#45;&gt;Node14</title>
<path fill="none" stroke="midnightblue" d="M1109.19,-56.4435C1062.28,-46.9561 986.596,-31.6487 936.206,-21.4574"/>
<polygon fill="midnightblue" stroke="midnightblue" points="936.665,-17.9794 926.169,-19.4275 935.277,-24.8405 936.665,-17.9794"/>
</g>
</g>
</svg>
