<?xml version="1.0" encoding="UTF-8" standalone="no"?>
<!DOCTYPE svg PUBLIC "-//W3C//DTD SVG 1.1//EN"
 "http://www.w3.org/Graphics/SVG/1.1/DTD/svg11.dtd">
<!-- Generated by graphviz version 2.38.0 (20140413.2041)
 -->
<!-- Title: Framework/src/HistoMerger.cxx Pages: 1 -->
<svg width="725pt" height="196pt"
 viewBox="0.00 0.00 724.78 196.00" xmlns="http://www.w3.org/2000/svg" xmlns:xlink="http://www.w3.org/1999/xlink">
<g id="graph0" class="graph" transform="scale(1 1) rotate(0) translate(4 192)">
<title>Framework/src/HistoMerger.cxx</title>
<!-- Node1 -->
<g id="node1" class="node"><title>Node1</title>
<polygon fill="#bfbfbf" stroke="black" points="288.275,-168.5 288.275,-187.5 445.275,-187.5 445.275,-168.5 288.275,-168.5"/>
<text text-anchor="middle" x="366.775" y="-175.5" font-family="Helvetica,sans-Serif" font-size="10.00">Framework/src/HistoMerger.cxx</text>
</g>
<!-- Node2 -->
<g id="node2" class="node"><title>Node2</title>
<g id="a_node2"><a xlink:href="HistoMerger_8h.html" target="_top" xlink:title="QualityControl/HistoMerger.h">
<polygon fill="none" stroke="black" points="108.275,-112.5 108.275,-131.5 251.275,-131.5 251.275,-112.5 108.275,-112.5"/>
<text text-anchor="middle" x="179.775" y="-119.5" font-family="Helvetica,sans-Serif" font-size="10.00">QualityControl/HistoMerger.h</text>
</a>
</g>
</g>
<!-- Node1&#45;&gt;Node2 -->
<g id="edge1" class="edge"><title>Node1&#45;&gt;Node2</title>
<path fill="none" stroke="midnightblue" d="M337.145,-168.444C305.275,-159.241 254.443,-144.562 219.211,-134.388"/>
<polygon fill="midnightblue" stroke="midnightblue" points="219.846,-130.928 209.267,-131.516 217.904,-137.653 219.846,-130.928"/>
</g>
<!-- Node13 -->
<g id="node13" class="node"><title>Node13</title>
<polygon fill="none" stroke="#bfbfbf" points="269.775,-112.5 269.775,-131.5 313.775,-131.5 313.775,-112.5 269.775,-112.5"/>
<text text-anchor="middle" x="291.775" y="-119.5" font-family="Helvetica,sans-Serif" font-size="10.00">TH1.h</text>
</g>
<!-- Node1&#45;&gt;Node13 -->
<g id="edge13" class="edge"><title>Node1&#45;&gt;Node13</title>
<path fill="none" stroke="midnightblue" d="M354.725,-168.324C343.312,-160.107 325.944,-147.602 312.34,-137.807"/>
<polygon fill="midnightblue" stroke="midnightblue" points="314.205,-134.837 304.045,-131.834 310.115,-140.517 314.205,-134.837"/>
</g>
<!-- Node14 -->
<g id="node14" class="node"><title>Node14</title>
<polygon fill="none" stroke="#bfbfbf" points="332.275,-112.5 332.275,-131.5 401.275,-131.5 401.275,-112.5 332.275,-112.5"/>
<text text-anchor="middle" x="366.775" y="-119.5" font-family="Helvetica,sans-Serif" font-size="10.00">TObjArray.h</text>
</g>
<!-- Node1&#45;&gt;Node14 -->
<g id="edge14" class="edge"><title>Node1&#45;&gt;Node14</title>
<path fill="none" stroke="midnightblue" d="M366.775,-168.083C366.775,-161.006 366.775,-150.861 366.775,-141.986"/>
<polygon fill="midnightblue" stroke="midnightblue" points="370.275,-141.751 366.775,-131.751 363.275,-141.751 370.275,-141.751"/>
</g>
<!-- Node15 -->
<g id="node15" class="node"><title>Node15</title>
<polygon fill="none" stroke="#bfbfbf" points="419.775,-112.5 419.775,-131.5 559.775,-131.5 559.775,-112.5 419.775,-112.5"/>
<text text-anchor="middle" x="489.775" y="-119.5" font-family="Helvetica,sans-Serif" font-size="10.00">Framework/DataSpecUtils.h</text>
</g>
<!-- Node1&#45;&gt;Node15 -->
<g id="edge15" class="edge"><title>Node1&#45;&gt;Node15</title>
<path fill="none" stroke="midnightblue" d="M386.265,-168.444C406.418,-159.596 438.098,-145.687 461.106,-135.586"/>
<polygon fill="midnightblue" stroke="midnightblue" points="462.627,-138.741 470.377,-131.516 459.813,-132.332 462.627,-138.741"/>
</g>
<!-- Node16 -->
<g id="node16" class="node"><title>Node16</title>
<polygon fill="none" stroke="#bfbfbf" points="577.775,-112.5 577.775,-131.5 711.775,-131.5 711.775,-112.5 577.775,-112.5"/>
<text text-anchor="middle" x="644.775" y="-119.5" font-family="Helvetica,sans-Serif" font-size="10.00">Framework/DataRefUtils.h</text>
</g>
<!-- Node1&#45;&gt;Node16 -->
<g id="edge16" class="edge"><title>Node1&#45;&gt;Node16</title>
<path fill="none" stroke="midnightblue" d="M410.825,-168.444C459.627,-158.964 538.339,-143.675 590.805,-133.483"/>
<polygon fill="midnightblue" stroke="midnightblue" points="591.782,-136.859 600.932,-131.516 590.448,-129.988 591.782,-136.859"/>
</g>
<!-- Node3 -->
<g id="node3" class="node"><title>Node3</title>
<polygon fill="none" stroke="#bfbfbf" points="132.275,-0.5 132.275,-19.5 173.275,-19.5 173.275,-0.5 132.275,-0.5"/>
<text text-anchor="middle" x="152.775" y="-7.5" font-family="Helvetica,sans-Serif" font-size="10.00">string</text>
</g>
<!-- Node2&#45;&gt;Node3 -->
<g id="edge2" class="edge"><title>Node2&#45;&gt;Node3</title>
<path fill="none" stroke="midnightblue" d="M114.969,-112.471C71.6432,-105.287 20.2055,-93.3703 6.77539,-76 -25.4553,-34.3131 70.4872,-18.7047 122.168,-13.4243"/>
<polygon fill="midnightblue" stroke="midnightblue" points="122.539,-16.9049 132.163,-12.4748 121.877,-9.93631 122.539,-16.9049"/>
</g>
<!-- Node4 -->
<g id="node4" class="node"><title>Node4</title>
<polygon fill="none" stroke="#bfbfbf" points="15.7754,-56.5 15.7754,-75.5 59.7754,-75.5 59.7754,-56.5 15.7754,-56.5"/>
<text text-anchor="middle" x="37.7754" y="-63.5" font-family="Helvetica,sans-Serif" font-size="10.00">vector</text>
</g>
<!-- Node2&#45;&gt;Node4 -->
<g id="edge3" class="edge"><title>Node2&#45;&gt;Node4</title>
<path fill="none" stroke="midnightblue" d="M157.275,-112.444C133.698,-103.478 96.453,-89.314 69.8114,-79.1827"/>
<polygon fill="midnightblue" stroke="midnightblue" points="70.7615,-75.7995 60.1704,-75.5164 68.2733,-82.3424 70.7615,-75.7995"/>
</g>
<!-- Node5 -->
<g id="node5" class="node"><title>Node5</title>
<polygon fill="none" stroke="#bfbfbf" points="77.7754,-56.5 77.7754,-75.5 169.775,-75.5 169.775,-56.5 77.7754,-56.5"/>
<text text-anchor="middle" x="123.775" y="-63.5" font-family="Helvetica,sans-Serif" font-size="10.00">Common/Timer.h</text>
</g>
<!-- Node2&#45;&gt;Node5 -->
<g id="edge4" class="edge"><title>Node2&#45;&gt;Node5</title>
<path fill="none" stroke="midnightblue" d="M170.778,-112.324C162.581,-104.42 150.27,-92.5482 140.303,-82.9377"/>
<polygon fill="midnightblue" stroke="midnightblue" points="142.564,-80.2558 132.936,-75.8339 137.705,-85.2947 142.564,-80.2558"/>
</g>
<!-- Node6 -->
<g id="node6" class="node"><title>Node6</title>
<polygon fill="none" stroke="#bfbfbf" points="187.775,-56.5 187.775,-75.5 285.775,-75.5 285.775,-56.5 187.775,-56.5"/>
<text text-anchor="middle" x="236.775" y="-63.5" font-family="Helvetica,sans-Serif" font-size="10.00">Framework/Task.h</text>
</g>
<!-- Node2&#45;&gt;Node6 -->
<g id="edge5" class="edge"><title>Node2&#45;&gt;Node6</title>
<path fill="none" stroke="midnightblue" d="M188.933,-112.324C197.277,-104.42 209.808,-92.5482 219.952,-82.9377"/>
<polygon fill="midnightblue" stroke="midnightblue" points="222.598,-85.2522 227.451,-75.8339 217.784,-80.1705 222.598,-85.2522"/>
</g>
<!-- Node7 -->
<g id="node7" class="node"><title>Node7</title>
<polygon fill="none" stroke="#bfbfbf" points="304.275,-56.5 304.275,-75.5 421.275,-75.5 421.275,-56.5 304.275,-56.5"/>
<text text-anchor="middle" x="362.775" y="-63.5" font-family="Helvetica,sans-Serif" font-size="10.00">Headers/DataHeader.h</text>
</g>
<!-- Node2&#45;&gt;Node7 -->
<g id="edge6" class="edge"><title>Node2&#45;&gt;Node7</title>
<path fill="none" stroke="midnightblue" d="M208.772,-112.444C239.96,-103.241 289.705,-88.5617 324.183,-78.3879"/>
<polygon fill="midnightblue" stroke="midnightblue" points="325.314,-81.7036 333.914,-75.5164 323.332,-74.9898 325.314,-81.7036"/>
</g>
<!-- Node8 -->
<g id="node8" class="node"><title>Node8</title>
<g id="a_node8"><a xlink:href="MonitorObject_8h.html" target="_top" xlink:title="QualityControl/MonitorObject.h">
<polygon fill="none" stroke="black" points="439.275,-56.5 439.275,-75.5 590.275,-75.5 590.275,-56.5 439.275,-56.5"/>
<text text-anchor="middle" x="514.775" y="-63.5" font-family="Helvetica,sans-Serif" font-size="10.00">QualityControl/MonitorObject.h</text>
</a>
</g>
</g>
<!-- Node2&#45;&gt;Node8 -->
<g id="edge7" class="edge"><title>Node2&#45;&gt;Node8</title>
<path fill="none" stroke="midnightblue" d="M232.857,-112.444C292.277,-102.865 388.496,-87.3556 451.704,-77.1667"/>
<polygon fill="midnightblue" stroke="midnightblue" points="452.626,-80.5633 461.942,-75.5164 451.512,-73.6525 452.626,-80.5633"/>
</g>
<!-- Node8&#45;&gt;Node3 -->
<g id="edge8" class="edge"><title>Node8&#45;&gt;Node3</title>
<path fill="none" stroke="midnightblue" d="M457.415,-56.4435C379.742,-44.8569 243.879,-24.59 183.362,-15.5626"/>
<polygon fill="midnightblue" stroke="midnightblue" points="183.712,-12.0762 173.305,-14.0624 182.679,-18.9996 183.712,-12.0762"/>
</g>
<!-- Node9 -->
<g id="node9" class="node"><title>Node9</title>
<polygon fill="none" stroke="#bfbfbf" points="395.275,-0.5 395.275,-19.5 430.275,-19.5 430.275,-0.5 395.275,-0.5"/>
<text text-anchor="middle" x="412.775" y="-7.5" font-family="Helvetica,sans-Serif" font-size="10.00">map</text>
</g>
<!-- Node8&#45;&gt;Node9 -->
<g id="edge9" class="edge"><title>Node8&#45;&gt;Node9</title>
<path fill="none" stroke="midnightblue" d="M498.387,-56.324C482.104,-47.7034 456.908,-34.3643 438.059,-24.3855"/>
<polygon fill="midnightblue" stroke="midnightblue" points="439.598,-21.2402 429.123,-19.6545 436.323,-27.4267 439.598,-21.2402"/>
</g>
<!-- Node10 -->
<g id="node10" class="node"><title>Node10</title>
<polygon fill="none" stroke="#bfbfbf" points="448.775,-0.5 448.775,-19.5 504.775,-19.5 504.775,-0.5 448.775,-0.5"/>
<text text-anchor="middle" x="476.775" y="-7.5" font-family="Helvetica,sans-Serif" font-size="10.00">Rtypes.h</text>
</g>
<!-- Node8&#45;&gt;Node10 -->
<g id="edge10" class="edge"><title>Node8&#45;&gt;Node10</title>
<path fill="none" stroke="midnightblue" d="M508.5,-56.083C503.133,-48.4554 495.258,-37.2645 488.697,-27.9408"/>
<polygon fill="midnightblue" stroke="midnightblue" points="491.551,-25.9149 482.934,-19.7511 485.826,-29.9434 491.551,-25.9149"/>
</g>
<!-- Node11 -->
<g id="node11" class="node"><title>Node11</title>
<polygon fill="none" stroke="#bfbfbf" points="523.275,-0.5 523.275,-19.5 582.275,-19.5 582.275,-0.5 523.275,-0.5"/>
<text text-anchor="middle" x="552.775" y="-7.5" font-family="Helvetica,sans-Serif" font-size="10.00">TObject.h</text>
</g>
<!-- Node8&#45;&gt;Node11 -->
<g id="edge11" class="edge"><title>Node8&#45;&gt;Node11</title>
<path fill="none" stroke="midnightblue" d="M521.05,-56.083C526.418,-48.4554 534.293,-37.2645 540.854,-27.9408"/>
<polygon fill="midnightblue" stroke="midnightblue" points="543.725,-29.9434 546.617,-19.7511 538,-25.9149 543.725,-29.9434"/>
</g>
<!-- Node12 -->
<g id="node12" class="node"><title>Node12</title>
<polygon fill="none" stroke="#bfbfbf" points="600.775,-0.5 600.775,-19.5 716.775,-19.5 716.775,-0.5 600.775,-0.5"/>
<text text-anchor="middle" x="658.775" y="-7.5" font-family="Helvetica,sans-Serif" font-size="10.00">Common/Exceptions.h</text>
</g>
<!-- Node8&#45;&gt;Node12 -->
<g id="edge12" class="edge"><title>Node8&#45;&gt;Node12</title>
<path fill="none" stroke="midnightblue" d="M537.593,-56.4435C561.607,-47.4381 599.604,-33.1891 626.645,-23.049"/>
<polygon fill="midnightblue" stroke="midnightblue" points="627.931,-26.3049 636.065,-19.5164 625.473,-19.7506 627.931,-26.3049"/>
</g>
</g>
</svg>
