<?xml version="1.0" encoding="UTF-8" standalone="no"?>
<!DOCTYPE svg PUBLIC "-//W3C//DTD SVG 1.1//EN"
 "http://www.w3.org/Graphics/SVG/1.1/DTD/svg11.dtd">
<!-- Generated by graphviz version 2.38.0 (20140413.2041)
 -->
<!-- Title: Framework/include/QualityControl/HistoMerger.h Pages: 1 -->
<svg width="725pt" height="151pt"
 viewBox="0.00 0.00 724.54 151.00" xmlns="http://www.w3.org/2000/svg" xmlns:xlink="http://www.w3.org/1999/xlink">
<g id="graph0" class="graph" transform="scale(1 1) rotate(0) translate(4 147)">
<title>Framework/include/QualityControl/HistoMerger.h</title>
<!-- Node1 -->
<g id="node1" class="node"><title>Node1</title>
<polygon fill="#bfbfbf" stroke="black" points="113.038,-112.5 113.038,-142.5 246.038,-142.5 246.038,-112.5 113.038,-112.5"/>
<text text-anchor="start" x="121.038" y="-130.5" font-family="Helvetica,sans-Serif" font-size="10.00">Framework/include/Quality</text>
<text text-anchor="middle" x="179.538" y="-119.5" font-family="Helvetica,sans-Serif" font-size="10.00">Control/HistoMerger.h</text>
</g>
<!-- Node2 -->
<g id="node2" class="node"><title>Node2</title>
<polygon fill="none" stroke="#bfbfbf" points="132.038,-0.5 132.038,-19.5 173.038,-19.5 173.038,-0.5 132.038,-0.5"/>
<text text-anchor="middle" x="152.538" y="-7.5" font-family="Helvetica,sans-Serif" font-size="10.00">string</text>
</g>
<!-- Node1&#45;&gt;Node2 -->
<g id="edge1" class="edge"><title>Node1&#45;&gt;Node2</title>
<path fill="none" stroke="midnightblue" d="M112.798,-115.492C69.8244,-106.887 19.63,-93.4603 6.53786,-76 -25.0076,-33.9296 70.1705,-18.5256 121.731,-13.3623"/>
<polygon fill="midnightblue" stroke="midnightblue" points="122.376,-16.8177 132.011,-12.41 121.73,-9.84751 122.376,-16.8177"/>
</g>
<!-- Node3 -->
<g id="node3" class="node"><title>Node3</title>
<polygon fill="none" stroke="#bfbfbf" points="15.5379,-56.5 15.5379,-75.5 59.5379,-75.5 59.5379,-56.5 15.5379,-56.5"/>
<text text-anchor="middle" x="37.5379" y="-63.5" font-family="Helvetica,sans-Serif" font-size="10.00">vector</text>
</g>
<!-- Node1&#45;&gt;Node3 -->
<g id="edge2" class="edge"><title>Node1&#45;&gt;Node3</title>
<path fill="none" stroke="midnightblue" d="M145.886,-112.399C122.061,-102.416 90.3918,-89.1465 67.4498,-79.5335"/>
<polygon fill="midnightblue" stroke="midnightblue" points="68.7758,-76.2944 58.2001,-75.6578 66.0706,-82.7505 68.7758,-76.2944"/>
</g>
<!-- Node4 -->
<g id="node4" class="node"><title>Node4</title>
<polygon fill="none" stroke="#bfbfbf" points="77.5379,-56.5 77.5379,-75.5 169.538,-75.5 169.538,-56.5 77.5379,-56.5"/>
<text text-anchor="middle" x="123.538" y="-63.5" font-family="Helvetica,sans-Serif" font-size="10.00">Common/Timer.h</text>
</g>
<!-- Node1&#45;&gt;Node4 -->
<g id="edge3" class="edge"><title>Node1&#45;&gt;Node4</title>
<path fill="none" stroke="midnightblue" d="M166.267,-112.399C157.961,-103.575 147.239,-92.1827 138.613,-83.0178"/>
<polygon fill="midnightblue" stroke="midnightblue" points="141.089,-80.541 131.686,-75.6578 135.991,-85.3386 141.089,-80.541"/>
</g>
<!-- Node5 -->
<g id="node5" class="node"><title>Node5</title>
<polygon fill="none" stroke="#bfbfbf" points="187.538,-56.5 187.538,-75.5 285.538,-75.5 285.538,-56.5 187.538,-56.5"/>
<text text-anchor="middle" x="236.538" y="-63.5" font-family="Helvetica,sans-Serif" font-size="10.00">Framework/Task.h</text>
</g>
<!-- Node1&#45;&gt;Node5 -->
<g id="edge4" class="edge"><title>Node1&#45;&gt;Node5</title>
<path fill="none" stroke="midnightblue" d="M193.046,-112.399C201.5,-103.575 212.413,-92.1827 221.193,-83.0178"/>
<polygon fill="midnightblue" stroke="midnightblue" points="223.853,-85.3002 228.244,-75.6578 218.799,-80.4577 223.853,-85.3002"/>
</g>
<!-- Node6 -->
<g id="node6" class="node"><title>Node6</title>
<polygon fill="none" stroke="#bfbfbf" points="304.038,-56.5 304.038,-75.5 421.038,-75.5 421.038,-56.5 304.038,-56.5"/>
<text text-anchor="middle" x="362.538" y="-63.5" font-family="Helvetica,sans-Serif" font-size="10.00">Headers/DataHeader.h</text>
</g>
<!-- Node1&#45;&gt;Node6 -->
<g id="edge5" class="edge"><title>Node1&#45;&gt;Node6</title>
<path fill="none" stroke="midnightblue" d="M222.906,-112.399C254.528,-102.118 296.871,-88.3506 326.609,-78.6818"/>
<polygon fill="midnightblue" stroke="midnightblue" points="327.749,-81.9915 336.177,-75.5709 325.585,-75.3345 327.749,-81.9915"/>
</g>
<!-- Node7 -->
<g id="node7" class="node"><title>Node7</title>
<g id="a_node7"><a xlink:href="MonitorObject_8h.html" target="_top" xlink:title="QualityControl/MonitorObject.h">
<polygon fill="none" stroke="black" points="439.038,-56.5 439.038,-75.5 590.038,-75.5 590.038,-56.5 439.038,-56.5"/>
<text text-anchor="middle" x="514.538" y="-63.5" font-family="Helvetica,sans-Serif" font-size="10.00">QualityControl/MonitorObject.h</text>
</a>
</g>
</g>
<!-- Node1&#45;&gt;Node7 -->
<g id="edge6" class="edge"><title>Node1&#45;&gt;Node7</title>
<path fill="none" stroke="midnightblue" d="M246.124,-114.674C307.505,-103.771 397.713,-87.7496 456.293,-77.345"/>
<polygon fill="midnightblue" stroke="midnightblue" points="457.256,-80.7288 466.49,-75.5339 456.032,-73.8367 457.256,-80.7288"/>
</g>
<!-- Node7&#45;&gt;Node2 -->
<g id="edge7" class="edge"><title>Node7&#45;&gt;Node2</title>
<path fill="none" stroke="midnightblue" d="M457.178,-56.4435C379.504,-44.8569 243.641,-24.59 183.124,-15.5626"/>
<polygon fill="midnightblue" stroke="midnightblue" points="183.474,-12.0762 173.067,-14.0624 182.442,-18.9996 183.474,-12.0762"/>
</g>
<!-- Node8 -->
<g id="node8" class="node"><title>Node8</title>
<polygon fill="none" stroke="#bfbfbf" points="395.038,-0.5 395.038,-19.5 430.038,-19.5 430.038,-0.5 395.038,-0.5"/>
<text text-anchor="middle" x="412.538" y="-7.5" font-family="Helvetica,sans-Serif" font-size="10.00">map</text>
</g>
<!-- Node7&#45;&gt;Node8 -->
<g id="edge8" class="edge"><title>Node7&#45;&gt;Node8</title>
<path fill="none" stroke="midnightblue" d="M498.15,-56.324C481.867,-47.7034 456.67,-34.3643 437.822,-24.3855"/>
<polygon fill="midnightblue" stroke="midnightblue" points="439.361,-21.2402 428.885,-19.6545 436.086,-27.4267 439.361,-21.2402"/>
</g>
<!-- Node9 -->
<g id="node9" class="node"><title>Node9</title>
<polygon fill="none" stroke="#bfbfbf" points="448.538,-0.5 448.538,-19.5 504.538,-19.5 504.538,-0.5 448.538,-0.5"/>
<text text-anchor="middle" x="476.538" y="-7.5" font-family="Helvetica,sans-Serif" font-size="10.00">Rtypes.h</text>
</g>
<!-- Node7&#45;&gt;Node9 -->
<g id="edge9" class="edge"><title>Node7&#45;&gt;Node9</title>
<path fill="none" stroke="midnightblue" d="M508.263,-56.083C502.895,-48.4554 495.02,-37.2645 488.459,-27.9408"/>
<polygon fill="midnightblue" stroke="midnightblue" points="491.313,-25.9149 482.696,-19.7511 485.589,-29.9434 491.313,-25.9149"/>
</g>
<!-- Node10 -->
<g id="node10" class="node"><title>Node10</title>
<polygon fill="none" stroke="#bfbfbf" points="523.038,-0.5 523.038,-19.5 582.038,-19.5 582.038,-0.5 523.038,-0.5"/>
<text text-anchor="middle" x="552.538" y="-7.5" font-family="Helvetica,sans-Serif" font-size="10.00">TObject.h</text>
</g>
<!-- Node7&#45;&gt;Node10 -->
<g id="edge10" class="edge"><title>Node7&#45;&gt;Node10</title>
<path fill="none" stroke="midnightblue" d="M520.813,-56.083C526.18,-48.4554 534.055,-37.2645 540.617,-27.9408"/>
<polygon fill="midnightblue" stroke="midnightblue" points="543.487,-29.9434 546.38,-19.7511 537.762,-25.9149 543.487,-29.9434"/>
</g>
<!-- Node11 -->
<g id="node11" class="node"><title>Node11</title>
<polygon fill="none" stroke="#bfbfbf" points="600.538,-0.5 600.538,-19.5 716.538,-19.5 716.538,-0.5 600.538,-0.5"/>
<text text-anchor="middle" x="658.538" y="-7.5" font-family="Helvetica,sans-Serif" font-size="10.00">Common/Exceptions.h</text>
</g>
<!-- Node7&#45;&gt;Node11 -->
<g id="edge11" class="edge"><title>Node7&#45;&gt;Node11</title>
<path fill="none" stroke="midnightblue" d="M537.355,-56.4435C561.37,-47.4381 599.367,-33.1891 626.407,-23.049"/>
<polygon fill="midnightblue" stroke="midnightblue" points="627.693,-26.3049 635.827,-19.5164 625.235,-19.7506 627.693,-26.3049"/>
</g>
</g>
</svg>
