<?xml version="1.0" encoding="UTF-8" standalone="no"?>
<!DOCTYPE svg PUBLIC "-//W3C//DTD SVG 1.1//EN"
 "http://www.w3.org/Graphics/SVG/1.1/DTD/svg11.dtd">
<!-- Generated by graphviz version 2.38.0 (20140413.2041)
 -->
<!-- Title: Framework/include/QualityControl/InfrastructureGenerator.h Pages: 1 -->
<!--zoomable 106 -->
<svg id="main" version="1.1" xmlns="http://www.w3.org/2000/svg" xmlns:xlink="http://www.w3.org/1999/xlink" xml:space="preserve" onload="init(evt)">
<style type="text/css"><![CDATA[
.edge:hover path { stroke: red; }
.edge:hover polygon { stroke: red; fill: red; }
]]></style>
<script type="text/javascript"><![CDATA[
var edges = document.getElementsByTagName('g');
if (edges && edges.length) {
  for (var i=0;i<edges.length;i++) {
    if (edges[i].id.substr(0,4)=='edge') {
      edges[i].setAttribute('class','edge');
    }
  }
}
]]></script>
        <defs>
                <circle id="rim" cx="0" cy="0" r="7"/>
                <circle id="rim2" cx="0" cy="0" r="3.5"/>
                <g id="zoomPlus">
                        <use xlink:href="#rim" fill="#404040">
                                <set attributeName="fill" to="#808080" begin="zoomplus.mouseover" end="zoomplus.mouseout"/>
                        </use>
                        <path d="M-4,0h8M0,-4v8" fill="none" stroke="white" stroke-width="1.5" pointer-events="none"/>
                </g>
                <g id="zoomMin">
                        <use xlink:href="#rim" fill="#404040">
                                <set attributeName="fill" to="#808080" begin="zoomminus.mouseover" end="zoomminus.mouseout"/>
                        </use>
                        <path d="M-4,0h8" fill="none" stroke="white" stroke-width="1.5" pointer-events="none"/>
                </g>
                <g id="dirArrow">
                        <path fill="none" stroke="white" stroke-width="1.5" d="M0,-3.0v7 M-2.5,-0.5L0,-3.0L2.5,-0.5"/>
                </g>
               <g id="resetDef">
                       <use xlink:href="#rim2" fill="#404040">
                               <set attributeName="fill" to="#808080" begin="reset.mouseover" end="reset.mouseout"/>
                       </use>
               </g>
        </defs>

<script type="text/javascript">
var viewWidth = 1903;
var viewHeight = 106;
var sectionId = 'dynsection-1';
</script>
<script xlink:href="svgpan.js"/>
<svg id="graph" class="graph">
<g id="viewport">
<title>Framework/include/QualityControl/InfrastructureGenerator.h</title>
<!-- Node1 -->
<g id="node1" class="node"><title>Node1</title>
<polygon fill="#bfbfbf" stroke="black" points="803.5,-67.5 803.5,-97.5 963.5,-97.5 963.5,-67.5 803.5,-67.5"/>
<text text-anchor="start" x="811.5" y="-85.5" font-family="Helvetica,sans-Serif" font-size="10.00">Framework/include/Quality</text>
<text text-anchor="middle" x="883.5" y="-74.5" font-family="Helvetica,sans-Serif" font-size="10.00">Control/InfrastructureGenerator.h</text>
</g>
<!-- Node2 -->
<g id="node2" class="node"><title>Node2</title>
<g id="a_node2"><a xlink:href="InfrastructureGenerator_8cxx.html" target="_top" xlink:title="Framework/src/Infrastructure\lGenerator.cxx">
<polygon fill="none" stroke="black" points="0,-0.5 0,-30.5 143,-30.5 143,-0.5 0,-0.5"/>
<text text-anchor="start" x="8" y="-18.5" font-family="Helvetica,sans-Serif" font-size="10.00">Framework/src/Infrastructure</text>
<text text-anchor="middle" x="71.5" y="-7.5" font-family="Helvetica,sans-Serif" font-size="10.00">Generator.cxx</text>
</a>
</g>
</g>
<!-- Node1&#45;&gt;Node2 -->
<g id="edge1" class="edge"><title>Node1&#45;&gt;Node2</title>
<path fill="none" stroke="midnightblue" d="M793.195,-78.4799C654.685,-73.1242 381.646,-59.7067 151.5,-31 148.839,-30.6681 146.132,-30.3055 143.401,-29.9187"/>
<polygon fill="midnightblue" stroke="midnightblue" points="793.212,-81.983 803.338,-78.8669 793.479,-74.988 793.212,-81.983"/>
</g>
<!-- Node3 -->
<g id="node3" class="node"><title>Node3</title>
<g id="a_node3"><a xlink:href="runAdvanced_8cxx.html" target="_top" xlink:title="This is an executable showing a more complicated QC topology. ">
<polygon fill="none" stroke="black" points="161,-6 161,-25 322,-25 322,-6 161,-6"/>
<text text-anchor="middle" x="241.5" y="-13" font-family="Helvetica,sans-Serif" font-size="10.00">Framework/src/runAdvanced.cxx</text>
</a>
</g>
</g>
<!-- Node1&#45;&gt;Node3 -->
<g id="edge2" class="edge"><title>Node1&#45;&gt;Node3</title>
<path fill="none" stroke="midnightblue" d="M793.314,-75.1559C683.849,-67.016 493.758,-51.4685 331.5,-31 318.153,-29.3163 303.748,-27.1522 290.458,-25.0122"/>
<polygon fill="midnightblue" stroke="midnightblue" points="793.096,-78.6492 803.327,-75.8965 793.612,-71.6683 793.096,-78.6492"/>
</g>
<!-- Node4 -->
<g id="node4" class="node"><title>Node4</title>
<g id="a_node4"><a xlink:href="runBasic_8cxx.html" target="_top" xlink:title="This is an executable showing QC Task&#39;s usage in Data Processing Layer. ">
<polygon fill="none" stroke="black" points="340.5,-6 340.5,-25 482.5,-25 482.5,-6 340.5,-6"/>
<text text-anchor="middle" x="411.5" y="-13" font-family="Helvetica,sans-Serif" font-size="10.00">Framework/src/runBasic.cxx</text>
</a>
</g>
</g>
<!-- Node1&#45;&gt;Node4 -->
<g id="edge3" class="edge"><title>Node1&#45;&gt;Node4</title>
<path fill="none" stroke="midnightblue" d="M793.385,-71.2191C713.813,-61.8246 594.731,-46.9941 491.5,-31 480.062,-29.2279 467.743,-27.1033 456.282,-25.0339"/>
<polygon fill="midnightblue" stroke="midnightblue" points="793.033,-74.7018 803.374,-72.3944 793.851,-67.7497 793.033,-74.7018"/>
</g>
<!-- Node5 -->
<g id="node5" class="node"><title>Node5</title>
<g id="a_node5"><a xlink:href="runQC_8cxx.html" target="_top" xlink:title="This is an executable which generates a QC topology given a configuration file. ">
<polygon fill="none" stroke="black" points="500.5,-6 500.5,-25 632.5,-25 632.5,-6 500.5,-6"/>
<text text-anchor="middle" x="566.5" y="-13" font-family="Helvetica,sans-Serif" font-size="10.00">Framework/src/runQC.cxx</text>
</a>
</g>
</g>
<!-- Node1&#45;&gt;Node5 -->
<g id="edge4" class="edge"><title>Node1&#45;&gt;Node5</title>
<path fill="none" stroke="midnightblue" d="M805.301,-65.4655C742.948,-52.6802 658.064,-35.2749 608.094,-25.0287"/>
<polygon fill="midnightblue" stroke="midnightblue" points="804.607,-68.8959 815.106,-67.476 806.013,-62.0386 804.607,-68.8959"/>
</g>
<!-- Node6 -->
<g id="node6" class="node"><title>Node6</title>
<g id="a_node6"><a xlink:href="testCheckWorkflow_8cxx.html" target="_top" xlink:title="Framework/test/testCheck\lWorkflow.cxx">
<polygon fill="none" stroke="black" points="651,-0.5 651,-30.5 784,-30.5 784,-0.5 651,-0.5"/>
<text text-anchor="start" x="659" y="-18.5" font-family="Helvetica,sans-Serif" font-size="10.00">Framework/test/testCheck</text>
<text text-anchor="middle" x="717.5" y="-7.5" font-family="Helvetica,sans-Serif" font-size="10.00">Workflow.cxx</text>
</a>
</g>
</g>
<!-- Node1&#45;&gt;Node6 -->
<g id="edge5" class="edge"><title>Node1&#45;&gt;Node6</title>
<path fill="none" stroke="midnightblue" d="M837.994,-63.6815C811.371,-53.2568 778.232,-40.2805 753.449,-30.5765"/>
<polygon fill="midnightblue" stroke="midnightblue" points="836.893,-67.0089 847.48,-67.396 839.445,-60.4907 836.893,-67.0089"/>
</g>
<!-- Node7 -->
<g id="node7" class="node"><title>Node7</title>
<g id="a_node7"><a xlink:href="testInfrastructureGenerator_8cxx.html" target="_top" xlink:title="Framework/test/testInfrastructure\lGenerator.cxx">
<polygon fill="none" stroke="black" points="802.5,-0.5 802.5,-30.5 964.5,-30.5 964.5,-0.5 802.5,-0.5"/>
<text text-anchor="start" x="810.5" y="-18.5" font-family="Helvetica,sans-Serif" font-size="10.00">Framework/test/testInfrastructure</text>
<text text-anchor="middle" x="883.5" y="-7.5" font-family="Helvetica,sans-Serif" font-size="10.00">Generator.cxx</text>
</a>
</g>
</g>
<!-- Node1&#45;&gt;Node7 -->
<g id="edge6" class="edge"><title>Node1&#45;&gt;Node7</title>
<path fill="none" stroke="midnightblue" d="M883.5,-57.1081C883.5,-48.1539 883.5,-38.3227 883.5,-30.5765"/>
<polygon fill="midnightblue" stroke="midnightblue" points="880,-57.3959 883.5,-67.396 887,-57.396 880,-57.3959"/>
</g>
<!-- Node8 -->
<g id="node8" class="node"><title>Node8</title>
<g id="a_node8"><a xlink:href="testWorkflow_8cxx.html" target="_top" xlink:title="Framework/test/testWorkflow.cxx">
<polygon fill="none" stroke="black" points="982.5,-6 982.5,-25 1146.5,-25 1146.5,-6 982.5,-6"/>
<text text-anchor="middle" x="1064.5" y="-13" font-family="Helvetica,sans-Serif" font-size="10.00">Framework/test/testWorkflow.cxx</text>
</a>
</g>
</g>
<!-- Node1&#45;&gt;Node8 -->
<g id="edge7" class="edge"><title>Node1&#45;&gt;Node8</title>
<path fill="none" stroke="midnightblue" d="M932.381,-63.9459C967.536,-51.3213 1013.4,-34.8502 1040.81,-25.007"/>
<polygon fill="midnightblue" stroke="midnightblue" points="931.003,-60.722 922.774,-67.396 933.369,-67.3101 931.003,-60.722"/>
</g>
<!-- Node9 -->
<g id="node9" class="node"><title>Node9</title>
<polygon fill="none" stroke="#bfbfbf" points="1164.5,-6 1164.5,-25 1382.5,-25 1382.5,-6 1164.5,-6"/>
<text text-anchor="middle" x="1273.5" y="-13" font-family="Helvetica,sans-Serif" font-size="10.00">Modules/EMCAL/src/runQCEMCALDigits.cxx</text>
</g>
<!-- Node1&#45;&gt;Node9 -->
<g id="edge8" class="edge"><title>Node1&#45;&gt;Node9</title>
<path fill="none" stroke="midnightblue" d="M974.039,-66.4101C1051.24,-53.5434 1159.43,-35.5113 1222.42,-25.0127"/>
<polygon fill="midnightblue" stroke="midnightblue" points="973.124,-63.0143 963.835,-68.1108 974.275,-69.9191 973.124,-63.0143"/>
</g>
<!-- Node10 -->
<g id="node10" class="node"><title>Node10</title>
<g id="a_node10"><a xlink:href="runITS_8cxx.html" target="_top" xlink:title="Modules/ITS/src/runITS.cxx">
<polygon fill="none" stroke="black" points="1400.5,-6 1400.5,-25 1540.5,-25 1540.5,-6 1400.5,-6"/>
<text text-anchor="middle" x="1470.5" y="-13" font-family="Helvetica,sans-Serif" font-size="10.00">Modules/ITS/src/runITS.cxx</text>
</a>
</g>
</g>
<!-- Node1&#45;&gt;Node10 -->
<g id="edge9" class="edge"><title>Node1&#45;&gt;Node10</title>
<path fill="none" stroke="midnightblue" d="M974.055,-74.7641C1075.87,-66.6648 1245.99,-51.5504 1391.5,-31 1403.24,-29.3425 1415.89,-27.1871 1427.55,-25.0472"/>
<polygon fill="midnightblue" stroke="midnightblue" points="973.504,-71.2967 963.811,-75.5737 974.056,-78.2749 973.504,-71.2967"/>
</g>
<!-- Node11 -->
<g id="node11" class="node"><title>Node11</title>
<g id="a_node11"><a xlink:href="runTOF_8cxx.html" target="_top" xlink:title="This is an executable showing QC Task&#39;s usage in Data Processing Layer. ">
<polygon fill="none" stroke="black" points="1559,-6 1559,-25 1706,-25 1706,-6 1559,-6"/>
<text text-anchor="middle" x="1632.5" y="-13" font-family="Helvetica,sans-Serif" font-size="10.00">Modules/TOF/src/runTOF.cxx</text>
</a>
</g>
</g>
<!-- Node1&#45;&gt;Node11 -->
<g id="edge10" class="edge"><title>Node1&#45;&gt;Node11</title>
<path fill="none" stroke="midnightblue" d="M973.889,-77.4391C1102.23,-71.039 1344.49,-56.6186 1549.5,-31 1562.13,-29.422 1575.76,-27.2418 1588.25,-25.0511"/>
<polygon fill="midnightblue" stroke="midnightblue" points="973.53,-73.9525 963.715,-77.9415 973.875,-80.944 973.53,-73.9525"/>
</g>
<!-- Node12 -->
<g id="node12" class="node"><title>Node12</title>
<polygon fill="none" stroke="#bfbfbf" points="1724.5,-0.5 1724.5,-30.5 1894.5,-30.5 1894.5,-0.5 1724.5,-0.5"/>
<text text-anchor="start" x="1732.5" y="-18.5" font-family="Helvetica,sans-Serif" font-size="10.00">Modules/TPC/run/runTPCQCTrack</text>
<text text-anchor="middle" x="1809.5" y="-7.5" font-family="Helvetica,sans-Serif" font-size="10.00">Reader.cxx</text>
</g>
<!-- Node1&#45;&gt;Node12 -->
<g id="edge11" class="edge"><title>Node1&#45;&gt;Node12</title>
<path fill="none" stroke="midnightblue" d="M974.017,-78.7463C1127.09,-73.4765 1446.68,-59.8298 1715.5,-31 1718.46,-30.6831 1721.46,-30.339 1724.49,-29.9732"/>
<polygon fill="midnightblue" stroke="midnightblue" points="973.607,-75.2581 963.732,-79.0963 973.845,-82.2541 973.607,-75.2581"/>
</g>
</g>
</svg>
        <g id="navigator" transform="translate(0 0)" fill="#404254">
                <rect fill="#f2f5e9" fill-opacity="0.5" stroke="#606060" stroke-width=".5" x="0" y="0" width="60" height="60"/>
                <use id="zoomplus" xlink:href="#zoomPlus" x="17" y="9" onmousedown="handleZoom(evt,'in')"/>
                <use id="zoomminus" xlink:href="#zoomMin" x="42" y="9" onmousedown="handleZoom(evt,'out')"/>
                <use id="reset" xlink:href="#resetDef" x="30" y="36" onmousedown="handleReset()"/>
                <g id="arrowUp" xlink:href="#dirArrow" transform="translate(30 24)" onmousedown="handlePan(0,-1)">
                  <use xlink:href="#rim" fill="#404040">
                        <set attributeName="fill" to="#808080" begin="arrowUp.mouseover" end="arrowUp.mouseout"/>
                  </use>
                  <path fill="none" stroke="white" stroke-width="1.5" d="M0,-3.0v7 M-2.5,-0.5L0,-3.0L2.5,-0.5"/>
                </g>
                <g id="arrowRight" xlink:href="#dirArrow" transform="rotate(90) translate(36 -43)" onmousedown="handlePan(1,0)">
                  <use xlink:href="#rim" fill="#404040">
                        <set attributeName="fill" to="#808080" begin="arrowRight.mouseover" end="arrowRight.mouseout"/>
                  </use>
                  <path fill="none" stroke="white" stroke-width="1.5" d="M0,-3.0v7 M-2.5,-0.5L0,-3.0L2.5,-0.5"/>
                </g>
                <g id="arrowDown" xlink:href="#dirArrow" transform="rotate(180) translate(-30 -48)" onmousedown="handlePan(0,1)">
                  <use xlink:href="#rim" fill="#404040">
                        <set attributeName="fill" to="#808080" begin="arrowDown.mouseover" end="arrowDown.mouseout"/>
                  </use>
                  <path fill="none" stroke="white" stroke-width="1.5" d="M0,-3.0v7 M-2.5,-0.5L0,-3.0L2.5,-0.5"/>
                </g>
                <g id="arrowLeft" xlink:href="#dirArrow" transform="rotate(270) translate(-36 17)" onmousedown="handlePan(-1,0)">
                  <use xlink:href="#rim" fill="#404040">
                        <set attributeName="fill" to="#808080" begin="arrowLeft.mouseover" end="arrowLeft.mouseout"/>
                  </use>
                  <path fill="none" stroke="white" stroke-width="1.5" d="M0,-3.0v7 M-2.5,-0.5L0,-3.0L2.5,-0.5"/>
                </g>
        </g>
        <svg viewBox="0 0 15 15" width="100%" height="30px" preserveAspectRatio="xMaxYMin meet">
         <g id="arrow_out" transform="scale(0.3 0.3)">
          <a xlink:href="InfrastructureGenerator_8h__dep__incl_org.svg" target="_base">
           <rect id="button" ry="5" rx="5" y="6" x="6" height="38" width="38"
                fill="#f2f5e9" fill-opacity="0.5" stroke="#606060" stroke-width="1.0"/>
           <path id="arrow"
             d="M 11.500037,31.436501 C 11.940474,20.09759 22.043105,11.32322 32.158766,21.979434 L 37.068811,17.246167 C 37.068811,17.246167 37.088388,32 37.088388,32 L 22.160133,31.978069 C 22.160133,31.978069 26.997745,27.140456 26.997745,27.140456 C 18.528582,18.264221 13.291696,25.230495 11.500037,31.436501 z"
             style="fill:#404040;"/>
          </a>
         </g>
        </svg>
</svg>
