<?xml version="1.0" encoding="UTF-8" standalone="no"?>
<!DOCTYPE svg PUBLIC "-//W3C//DTD SVG 1.1//EN"
 "http://www.w3.org/Graphics/SVG/1.1/DTD/svg11.dtd">
<!-- Generated by graphviz version 2.38.0 (20140413.2041)
 -->
<!-- Title: Graphical Class Hierarchy Pages: 1 -->
<svg width="330pt" height="914pt"
 viewBox="0.00 0.00 330.00 914.00" xmlns="http://www.w3.org/2000/svg" xmlns:xlink="http://www.w3.org/1999/xlink">
<g id="graph0" class="graph" transform="scale(1 1) rotate(0) translate(4 910)">
<title>Graphical Class Hierarchy</title>
<!-- Node1 -->
<g id="node1" class="node"><title>Node1</title>
<g id="a_node1"><a xlink:href="classo2_1_1quality__control_1_1core_1_1TaskInterface.html" target="_top" xlink:title="Skeleton of a QC task. ">
<polygon fill="none" stroke="black" points="0,-448.5 0,-478.5 107,-478.5 107,-448.5 0,-448.5"/>
<text text-anchor="start" x="8" y="-466.5" font-family="Helvetica,sans-Serif" font-size="10.00">o2::quality_control</text>
<text text-anchor="middle" x="53.5" y="-455.5" font-family="Helvetica,sans-Serif" font-size="10.00">::core::TaskInterface</text>
</a>
</g>
</g>
<!-- Node2 -->
<g id="node2" class="node"><title>Node2</title>
<g id="a_node2"><a xlink:href="classo2_1_1quality__control_1_1test_1_1TestTask.html" target="_top" xlink:title="o2::quality_control\l::test::TestTask">
<polygon fill="none" stroke="black" points="184.5,-875.5 184.5,-905.5 280.5,-905.5 280.5,-875.5 184.5,-875.5"/>
<text text-anchor="start" x="192.5" y="-893.5" font-family="Helvetica,sans-Serif" font-size="10.00">o2::quality_control</text>
<text text-anchor="middle" x="232.5" y="-882.5" font-family="Helvetica,sans-Serif" font-size="10.00">::test::TestTask</text>
</a>
</g>
</g>
<!-- Node1&#45;&gt;Node2 -->
<g id="edge1" class="edge"><title>Node1&#45;&gt;Node2</title>
<path fill="none" stroke="midnightblue" d="M56.651,-488.6C63.9442,-567.908 90.2701,-811.141 143,-866.5 153.76,-877.797 169.251,-883.961 184.274,-887.268"/>
<polygon fill="midnightblue" stroke="midnightblue" points="60.1275,-488.181 55.7475,-478.534 53.1556,-488.807 60.1275,-488.181"/>
</g>
<!-- Node3 -->
<g id="node3" class="node"><title>Node3</title>
<g id="a_node3"><a xlink:href="classo2_1_1quality__control__modules_1_1daq_1_1DaqTask.html" target="_top" xlink:title="Example Quality Control Task It is final because there is no reason to derive from it...">
<polygon fill="none" stroke="black" points="169.5,-826.5 169.5,-856.5 295.5,-856.5 295.5,-826.5 169.5,-826.5"/>
<text text-anchor="start" x="177.5" y="-844.5" font-family="Helvetica,sans-Serif" font-size="10.00">o2::quality_control</text>
<text text-anchor="middle" x="232.5" y="-833.5" font-family="Helvetica,sans-Serif" font-size="10.00">_modules::daq::DaqTask</text>
</a>
</g>
</g>
<!-- Node1&#45;&gt;Node3 -->
<g id="edge2" class="edge"><title>Node1&#45;&gt;Node3</title>
<path fill="none" stroke="midnightblue" d="M57.5076,-488.863C66.6535,-561.805 96.3877,-769.954 143,-817.5 150.244,-824.889 159.515,-830.073 169.316,-833.696"/>
<polygon fill="midnightblue" stroke="midnightblue" points="60.957,-488.236 56.2624,-478.739 54.0094,-489.091 60.957,-488.236"/>
</g>
<!-- Node4 -->
<g id="node4" class="node"><title>Node4</title>
<g id="a_node4"><a xlink:href="classo2_1_1quality__control__modules_1_1emcal_1_1DigitsQcTask.html" target="_top" xlink:title="QC Task for EMCAL digits. ">
<polygon fill="none" stroke="black" points="154,-777.5 154,-807.5 311,-807.5 311,-777.5 154,-777.5"/>
<text text-anchor="start" x="162" y="-795.5" font-family="Helvetica,sans-Serif" font-size="10.00">o2::quality_control</text>
<text text-anchor="middle" x="232.5" y="-784.5" font-family="Helvetica,sans-Serif" font-size="10.00">_modules::emcal::DigitsQcTask</text>
</a>
</g>
</g>
<!-- Node1&#45;&gt;Node4 -->
<g id="edge3" class="edge"><title>Node1&#45;&gt;Node4</title>
<path fill="none" stroke="midnightblue" d="M54.0531,-488.893C54.4718,-547.041 63.9337,-690.812 143,-768.5 146.52,-771.959 150.486,-774.932 154.737,-777.486"/>
<polygon fill="midnightblue" stroke="midnightblue" points="57.5532,-488.763 54.0687,-478.757 50.5532,-488.752 57.5532,-488.763"/>
</g>
<!-- Node5 -->
<g id="node5" class="node"><title>Node5</title>
<g id="a_node5"><a xlink:href="classo2_1_1quality__control__modules_1_1emcal_1_1RawTask.html" target="_top" xlink:title="Example Quality Control DPL Task It is final because there is no reason to derive from it...">
<polygon fill="none" stroke="black" points="163,-728.5 163,-758.5 302,-758.5 302,-728.5 163,-728.5"/>
<text text-anchor="start" x="171" y="-746.5" font-family="Helvetica,sans-Serif" font-size="10.00">o2::quality_control</text>
<text text-anchor="middle" x="232.5" y="-735.5" font-family="Helvetica,sans-Serif" font-size="10.00">_modules::emcal::RawTask</text>
</a>
</g>
</g>
<!-- Node1&#45;&gt;Node5 -->
<g id="edge4" class="edge"><title>Node1&#45;&gt;Node5</title>
<path fill="none" stroke="midnightblue" d="M55.7273,-489.006C59.6101,-540.367 75.7698,-656.694 143,-719.5 148.7,-724.825 155.461,-728.991 162.667,-732.246"/>
<polygon fill="midnightblue" stroke="midnightblue" points="59.2046,-488.545 55.0555,-478.797 52.2197,-489.005 59.2046,-488.545"/>
</g>
<!-- Node6 -->
<g id="node6" class="node"><title>Node6</title>
<g id="a_node6"><a xlink:href="classo2_1_1quality__control__modules_1_1example_1_1BenchmarkTask.html" target="_top" xlink:title="Quality Control Task for benchmarking It publishes a number of TH1F (configurable, see example.ini in module QualityControl). The histos are reset and refilled (1000 random) at EOC. They have 1000 bins. The monitoring of data blocks is empty (sleep 100 ms). ">
<polygon fill="none" stroke="black" points="143,-679.5 143,-709.5 322,-709.5 322,-679.5 143,-679.5"/>
<text text-anchor="start" x="151" y="-697.5" font-family="Helvetica,sans-Serif" font-size="10.00">o2::quality_control</text>
<text text-anchor="middle" x="232.5" y="-686.5" font-family="Helvetica,sans-Serif" font-size="10.00">_modules::example::BenchmarkTask</text>
</a>
</g>
</g>
<!-- Node1&#45;&gt;Node6 -->
<g id="edge5" class="edge"><title>Node1&#45;&gt;Node6</title>
<path fill="none" stroke="midnightblue" d="M58.0608,-488.665C65.5898,-532.314 87.2652,-622.03 143,-670.5 146.964,-673.947 151.377,-676.905 156.057,-679.441"/>
<polygon fill="midnightblue" stroke="midnightblue" points="61.4873,-487.928 56.4393,-478.613 54.5766,-489.043 61.4873,-487.928"/>
</g>
<!-- Node7 -->
<g id="node7" class="node"><title>Node7</title>
<g id="a_node7"><a xlink:href="classo2_1_1quality__control__modules_1_1example_1_1ExampleTask.html" target="_top" xlink:title="Example Quality Control Task It is final because there is no reason to derive from it...">
<polygon fill="none" stroke="black" points="149,-630.5 149,-660.5 316,-660.5 316,-630.5 149,-630.5"/>
<text text-anchor="start" x="157" y="-648.5" font-family="Helvetica,sans-Serif" font-size="10.00">o2::quality_control</text>
<text text-anchor="middle" x="232.5" y="-637.5" font-family="Helvetica,sans-Serif" font-size="10.00">_modules::example::ExampleTask</text>
</a>
</g>
</g>
<!-- Node1&#45;&gt;Node7 -->
<g id="edge6" class="edge"><title>Node1&#45;&gt;Node7</title>
<path fill="none" stroke="midnightblue" d="M61.7498,-488.664C73.1729,-523.761 98.7435,-586.974 143,-621.5 147.393,-624.927 152.239,-627.866 157.332,-630.386"/>
<polygon fill="midnightblue" stroke="midnightblue" points="64.9726,-487.242 58.6538,-478.738 58.2901,-489.326 64.9726,-487.242"/>
</g>
<!-- Node8 -->
<g id="node8" class="node"><title>Node8</title>
<g id="a_node8"><a xlink:href="classo2_1_1quality__control__modules_1_1its_1_1ITSRawTask.html" target="_top" xlink:title="o2::quality_control\l_modules::its::ITSRawTask">
<polygon fill="none" stroke="black" points="163,-581.5 163,-611.5 302,-611.5 302,-581.5 163,-581.5"/>
<text text-anchor="start" x="171" y="-599.5" font-family="Helvetica,sans-Serif" font-size="10.00">o2::quality_control</text>
<text text-anchor="middle" x="232.5" y="-588.5" font-family="Helvetica,sans-Serif" font-size="10.00">_modules::its::ITSRawTask</text>
</a>
</g>
</g>
<!-- Node1&#45;&gt;Node8 -->
<g id="edge7" class="edge"><title>Node1&#45;&gt;Node8</title>
<path fill="none" stroke="midnightblue" d="M67.8241,-487.553C82.8726,-512.493 109.664,-550.811 143,-572.5 149.138,-576.494 155.928,-579.827 162.937,-582.608"/>
<polygon fill="midnightblue" stroke="midnightblue" points="70.7185,-485.569 62.6424,-478.712 64.6793,-489.109 70.7185,-485.569"/>
</g>
<!-- Node9 -->
<g id="node9" class="node"><title>Node9</title>
<g id="a_node9"><a xlink:href="classo2_1_1quality__control__modules_1_1mft_1_1BasicClusterQcTask.html" target="_top" xlink:title="MFT Cluster QC task. ">
<polygon fill="none" stroke="black" points="162,-522 162,-563 303,-563 303,-522 162,-522"/>
<text text-anchor="start" x="170" y="-551" font-family="Helvetica,sans-Serif" font-size="10.00">o2::quality_control</text>
<text text-anchor="start" x="170" y="-540" font-family="Helvetica,sans-Serif" font-size="10.00">_modules::mft::BasicCluster</text>
<text text-anchor="middle" x="232.5" y="-529" font-family="Helvetica,sans-Serif" font-size="10.00">QcTask</text>
</a>
</g>
</g>
<!-- Node1&#45;&gt;Node9 -->
<g id="edge8" class="edge"><title>Node1&#45;&gt;Node9</title>
<path fill="none" stroke="midnightblue" d="M86.9143,-483.858C103.323,-493.63 123.791,-505.026 143,-513.5 149.657,-516.437 156.708,-519.237 163.809,-521.858"/>
<polygon fill="midnightblue" stroke="midnightblue" points="88.6192,-480.799 78.2498,-478.625 85.0002,-486.791 88.6192,-480.799"/>
</g>
<!-- Node10 -->
<g id="node10" class="node"><title>Node10</title>
<g id="a_node10"><a xlink:href="classo2_1_1quality__control__modules_1_1mft_1_1BasicDigitQcTask.html" target="_top" xlink:title="MFT Digit QC task. ">
<polygon fill="none" stroke="black" points="150.5,-473.5 150.5,-503.5 314.5,-503.5 314.5,-473.5 150.5,-473.5"/>
<text text-anchor="start" x="158.5" y="-491.5" font-family="Helvetica,sans-Serif" font-size="10.00">o2::quality_control</text>
<text text-anchor="middle" x="232.5" y="-480.5" font-family="Helvetica,sans-Serif" font-size="10.00">_modules::mft::BasicDigitQcTask</text>
</a>
</g>
</g>
<!-- Node1&#45;&gt;Node10 -->
<g id="edge9" class="edge"><title>Node1&#45;&gt;Node10</title>
<path fill="none" stroke="midnightblue" d="M117.189,-472.354C127.884,-473.865 139.13,-475.453 150.223,-477.02"/>
<polygon fill="midnightblue" stroke="midnightblue" points="117.518,-468.866 107.127,-470.933 116.539,-475.797 117.518,-468.866"/>
</g>
<!-- Node11 -->
<g id="node11" class="node"><title>Node11</title>
<g id="a_node11"><a xlink:href="classo2_1_1quality__control__modules_1_1mft_1_1BasicTrackQcTask.html" target="_top" xlink:title="MFT Track QC task. ">
<polygon fill="none" stroke="black" points="148,-424.5 148,-454.5 317,-454.5 317,-424.5 148,-424.5"/>
<text text-anchor="start" x="156" y="-442.5" font-family="Helvetica,sans-Serif" font-size="10.00">o2::quality_control</text>
<text text-anchor="middle" x="232.5" y="-431.5" font-family="Helvetica,sans-Serif" font-size="10.00">_modules::mft::BasicTrackQcTask</text>
</a>
</g>
</g>
<!-- Node1&#45;&gt;Node11 -->
<g id="edge10" class="edge"><title>Node1&#45;&gt;Node11</title>
<path fill="none" stroke="midnightblue" d="M117.276,-454.988C127.202,-453.642 137.6,-452.232 147.91,-450.834"/>
<polygon fill="midnightblue" stroke="midnightblue" points="116.566,-451.552 107.127,-456.364 117.506,-458.489 116.566,-451.552"/>
</g>
<!-- Node12 -->
<g id="node12" class="node"><title>Node12</title>
<g id="a_node12"><a xlink:href="classo2_1_1quality__control__modules_1_1muonchambers_1_1PedestalsTask.html" target="_top" xlink:title="Quality Control Task for the analysis of MCH pedestal data. ">
<polygon fill="none" stroke="black" points="167,-365 167,-406 298,-406 298,-365 167,-365"/>
<text text-anchor="start" x="175" y="-394" font-family="Helvetica,sans-Serif" font-size="10.00">o2::quality_control</text>
<text text-anchor="start" x="175" y="-383" font-family="Helvetica,sans-Serif" font-size="10.00">_modules::muonchambers</text>
<text text-anchor="middle" x="232.5" y="-372" font-family="Helvetica,sans-Serif" font-size="10.00">::PedestalsTask</text>
</a>
</g>
</g>
<!-- Node1&#45;&gt;Node12 -->
<g id="edge11" class="edge"><title>Node1&#45;&gt;Node12</title>
<path fill="none" stroke="midnightblue" d="M88.5534,-443.266C104.727,-434.117 124.523,-423.572 143,-415.5 150.582,-412.188 158.655,-409.004 166.723,-406.03"/>
<polygon fill="midnightblue" stroke="midnightblue" points="86.4222,-440.453 79.4864,-448.462 89.9029,-446.526 86.4222,-440.453"/>
</g>
<!-- Node13 -->
<g id="node13" class="node"><title>Node13</title>
<g id="a_node13"><a xlink:href="classo2_1_1quality__control__modules_1_1muonchambers_1_1PhysicsTask.html" target="_top" xlink:title="Quality Control Task for the analysis of MCH physics data. ">
<polygon fill="none" stroke="black" points="167,-305 167,-346 298,-346 298,-305 167,-305"/>
<text text-anchor="start" x="175" y="-334" font-family="Helvetica,sans-Serif" font-size="10.00">o2::quality_control</text>
<text text-anchor="start" x="175" y="-323" font-family="Helvetica,sans-Serif" font-size="10.00">_modules::muonchambers</text>
<text text-anchor="middle" x="232.5" y="-312" font-family="Helvetica,sans-Serif" font-size="10.00">::PhysicsTask</text>
</a>
</g>
</g>
<!-- Node1&#45;&gt;Node13 -->
<g id="edge12" class="edge"><title>Node1&#45;&gt;Node13</title>
<path fill="none" stroke="midnightblue" d="M68.3975,-439.673C83.7595,-415.289 110.659,-377.891 143,-355.5 150.203,-350.513 158.305,-346.295 166.606,-342.744"/>
<polygon fill="midnightblue" stroke="midnightblue" points="65.3365,-437.969 63.0875,-448.323 71.3021,-441.632 65.3365,-437.969"/>
</g>
<!-- Node14 -->
<g id="node14" class="node"><title>Node14</title>
<g id="a_node14"><a xlink:href="classo2_1_1quality__control__modules_1_1skeleton_1_1SkeletonTask.html" target="_top" xlink:title="Example Quality Control DPL Task. ">
<polygon fill="none" stroke="black" points="179,-245 179,-286 286,-286 286,-245 179,-245"/>
<text text-anchor="start" x="187" y="-274" font-family="Helvetica,sans-Serif" font-size="10.00">o2::quality_control</text>
<text text-anchor="start" x="187" y="-263" font-family="Helvetica,sans-Serif" font-size="10.00">_modules::skeleton::</text>
<text text-anchor="middle" x="232.5" y="-252" font-family="Helvetica,sans-Serif" font-size="10.00">SkeletonTask</text>
</a>
</g>
</g>
<!-- Node1&#45;&gt;Node14 -->
<g id="edge13" class="edge"><title>Node1&#45;&gt;Node14</title>
<path fill="none" stroke="midnightblue" d="M61.2944,-438.184C72.3856,-401.584 97.8073,-334.062 143,-295.5 153.243,-286.76 166.147,-280.533 178.91,-276.11"/>
<polygon fill="midnightblue" stroke="midnightblue" points="57.8537,-437.482 58.4236,-448.061 64.5756,-439.436 57.8537,-437.482"/>
</g>
<!-- Node15 -->
<g id="node15" class="node"><title>Node15</title>
<g id="a_node15"><a xlink:href="classo2_1_1quality__control__modules_1_1tof_1_1TaskDiagnostics.html" target="_top" xlink:title="TOF Quality Control DPL Task for TOF Compressed data. ">
<polygon fill="none" stroke="black" points="155,-196.5 155,-226.5 310,-226.5 310,-196.5 155,-196.5"/>
<text text-anchor="start" x="163" y="-214.5" font-family="Helvetica,sans-Serif" font-size="10.00">o2::quality_control</text>
<text text-anchor="middle" x="232.5" y="-203.5" font-family="Helvetica,sans-Serif" font-size="10.00">_modules::tof::TaskDiagnostics</text>
</a>
</g>
</g>
<!-- Node1&#45;&gt;Node15 -->
<g id="edge14" class="edge"><title>Node1&#45;&gt;Node15</title>
<path fill="none" stroke="midnightblue" d="M56.9556,-438.172C62.8965,-391.119 82.3644,-290.057 143,-235.5 146.787,-232.093 151.01,-229.162 155.501,-226.642"/>
<polygon fill="midnightblue" stroke="midnightblue" points="53.4454,-438.06 55.7734,-448.396 60.399,-438.864 53.4454,-438.06"/>
</g>
<!-- Node16 -->
<g id="node16" class="node"><title>Node16</title>
<g id="a_node16"><a xlink:href="classo2_1_1quality__control__modules_1_1tof_1_1TOFTask.html" target="_top" xlink:title="TOF Quality Control DPL Task. ">
<polygon fill="none" stroke="black" points="171,-147.5 171,-177.5 294,-177.5 294,-147.5 171,-147.5"/>
<text text-anchor="start" x="179" y="-165.5" font-family="Helvetica,sans-Serif" font-size="10.00">o2::quality_control</text>
<text text-anchor="middle" x="232.5" y="-154.5" font-family="Helvetica,sans-Serif" font-size="10.00">_modules::tof::TOFTask</text>
</a>
</g>
</g>
<!-- Node1&#45;&gt;Node16 -->
<g id="edge15" class="edge"><title>Node1&#45;&gt;Node16</title>
<path fill="none" stroke="midnightblue" d="M55.02,-438.35C57.5357,-384.397 71.2057,-256.826 143,-187.5 150.695,-180.069 160.424,-174.816 170.596,-171.109"/>
<polygon fill="midnightblue" stroke="midnightblue" points="51.52,-438.286 54.6435,-448.41 58.5151,-438.548 51.52,-438.286"/>
</g>
<!-- Node17 -->
<g id="node17" class="node"><title>Node17</title>
<g id="a_node17"><a xlink:href="classo2_1_1quality__control__modules_1_1tof_1_1TOFTaskCompressed.html" target="_top" xlink:title="TOF Quality Control DPL Task for TOF Compressed data. ">
<polygon fill="none" stroke="black" points="143,-98.5 143,-128.5 322,-128.5 322,-98.5 143,-98.5"/>
<text text-anchor="start" x="151" y="-116.5" font-family="Helvetica,sans-Serif" font-size="10.00">o2::quality_control</text>
<text text-anchor="middle" x="232.5" y="-105.5" font-family="Helvetica,sans-Serif" font-size="10.00">_modules::tof::TOFTaskCompressed</text>
</a>
</g>
</g>
<!-- Node1&#45;&gt;Node17 -->
<g id="edge16" class="edge"><title>Node1&#45;&gt;Node17</title>
<path fill="none" stroke="midnightblue" d="M53.5652,-438.208C52.7674,-377.587 59.5087,-222.784 143,-138.5 146.82,-134.643 151.187,-131.37 155.887,-128.594"/>
<polygon fill="midnightblue" stroke="midnightblue" points="50.0699,-438.471 53.7851,-448.394 57.0683,-438.32 50.0699,-438.471"/>
</g>
<!-- Node18 -->
<g id="node18" class="node"><title>Node18</title>
<g id="a_node18"><a xlink:href="classo2_1_1quality__control__modules_1_1tpc_1_1PID.html" target="_top" xlink:title="TPC PID QC Task It is final because there is no reason to derive from it. Just remove it if needed...">
<polygon fill="none" stroke="black" points="182,-49.5 182,-79.5 283,-79.5 283,-49.5 182,-49.5"/>
<text text-anchor="start" x="190" y="-67.5" font-family="Helvetica,sans-Serif" font-size="10.00">o2::quality_control</text>
<text text-anchor="middle" x="232.5" y="-56.5" font-family="Helvetica,sans-Serif" font-size="10.00">_modules::tpc::PID</text>
</a>
</g>
</g>
<!-- Node1&#45;&gt;Node18 -->
<g id="edge17" class="edge"><title>Node1&#45;&gt;Node18</title>
<path fill="none" stroke="midnightblue" d="M57.1569,-438.246C65.5988,-362.689 94.1677,-140.476 143,-89.5 153.161,-78.8929 167.449,-72.6809 181.584,-69.075"/>
<polygon fill="midnightblue" stroke="midnightblue" points="53.6662,-437.97 56.0574,-448.291 60.6247,-438.732 53.6662,-437.97"/>
</g>
<!-- Node19 -->
<g id="node19" class="node"><title>Node19</title>
<g id="a_node19"><a xlink:href="classo2_1_1quality__control__modules_1_1tpc_1_1Tracks.html" target="_top" xlink:title="Quality Control DPL Task for QC Module TPC for track related observables. ">
<polygon fill="none" stroke="black" points="175.5,-0.5 175.5,-30.5 289.5,-30.5 289.5,-0.5 175.5,-0.5"/>
<text text-anchor="start" x="183.5" y="-18.5" font-family="Helvetica,sans-Serif" font-size="10.00">o2::quality_control</text>
<text text-anchor="middle" x="232.5" y="-7.5" font-family="Helvetica,sans-Serif" font-size="10.00">_modules::tpc::Tracks</text>
</a>
</g>
</g>
<!-- Node1&#45;&gt;Node19 -->
<g id="edge18" class="edge"><title>Node1&#45;&gt;Node19</title>
<path fill="none" stroke="midnightblue" d="M56.4271,-437.999C63.1482,-355.721 88.1876,-99.2351 143,-40.5 151.605,-31.2786 163.328,-25.3678 175.423,-21.6025"/>
<polygon fill="midnightblue" stroke="midnightblue" points="52.9194,-437.958 55.6153,-448.204 59.8973,-438.513 52.9194,-437.958"/>
</g>
</g>
</svg>
