<?xml version="1.0" encoding="UTF-8" standalone="no"?>
<!DOCTYPE svg PUBLIC "-//W3C//DTD SVG 1.1//EN"
 "http://www.w3.org/Graphics/SVG/1.1/DTD/svg11.dtd">
<!-- Generated by graphviz version 2.38.0 (20140413.2041)
 -->
<!-- Title: Graphical Class Hierarchy Pages: 1 -->
<svg width="359pt" height="1055pt"
 viewBox="0.00 0.00 359.00 1054.50" xmlns="http://www.w3.org/2000/svg" xmlns:xlink="http://www.w3.org/1999/xlink">
<g id="graph0" class="graph" transform="scale(1 1) rotate(0) translate(4 1050.5)">
<title>Graphical Class Hierarchy</title>
<!-- Node1 -->
<g id="node1" class="node"><title>Node1</title>
<g id="a_node1"><a xlink:href="classo2_1_1quality__control_1_1checker_1_1CheckInterface.html" target="_top" xlink:title="Skeleton of a check. ">
<polygon fill="none" stroke="black" points="0,-508 0,-538 130,-538 130,-508 0,-508"/>
<text text-anchor="start" x="8" y="-526" font-family="Helvetica,sans-Serif" font-size="10.00">o2::quality_control</text>
<text text-anchor="middle" x="65" y="-515" font-family="Helvetica,sans-Serif" font-size="10.00">::checker::CheckInterface</text>
</a>
</g>
</g>
<!-- Node2 -->
<g id="node2" class="node"><title>Node2</title>
<g id="a_node2"><a xlink:href="classo2_1_1quality__control_1_1test_1_1TestCheck.html" target="_top" xlink:title="o2::quality_control\l::test::TestCheck">
<polygon fill="none" stroke="black" points="210.5,-1016 210.5,-1046 306.5,-1046 306.5,-1016 210.5,-1016"/>
<text text-anchor="start" x="218.5" y="-1034" font-family="Helvetica,sans-Serif" font-size="10.00">o2::quality_control</text>
<text text-anchor="middle" x="258.5" y="-1023" font-family="Helvetica,sans-Serif" font-size="10.00">::test::TestCheck</text>
</a>
</g>
</g>
<!-- Node1&#45;&gt;Node2 -->
<g id="edge1" class="edge"><title>Node1&#45;&gt;Node2</title>
<path fill="none" stroke="midnightblue" d="M67.7992,-548.635C74.6392,-638.792 101.945,-939.473 166,-1007 177.415,-1019.03 194.066,-1025.31 210.043,-1028.49"/>
<polygon fill="midnightblue" stroke="midnightblue" points="71.2767,-548.199 67.049,-538.484 64.2957,-548.715 71.2767,-548.199"/>
</g>
<!-- Node3 -->
<g id="node3" class="node"><title>Node3</title>
<g id="a_node3"><a xlink:href="classo2_1_1quality__control__modules_1_1common_1_1MeanIsAbove.html" target="_top" xlink:title="Check whether the mean of the plot is above a certain limit. ">
<polygon fill="none" stroke="black" points="174.5,-967 174.5,-997 342.5,-997 342.5,-967 174.5,-967"/>
<text text-anchor="start" x="182.5" y="-985" font-family="Helvetica,sans-Serif" font-size="10.00">o2::quality_control</text>
<text text-anchor="middle" x="258.5" y="-974" font-family="Helvetica,sans-Serif" font-size="10.00">_modules::common::MeanIsAbove</text>
</a>
</g>
</g>
<!-- Node1&#45;&gt;Node3 -->
<g id="edge2" class="edge"><title>Node1&#45;&gt;Node3</title>
<path fill="none" stroke="midnightblue" d="M68.4279,-548.469C76.9315,-632.387 108.043,-898.244 166,-958 169.316,-961.419 173.055,-964.371 177.078,-966.918"/>
<polygon fill="midnightblue" stroke="midnightblue" points="71.8894,-547.907 67.4188,-538.302 64.9236,-548.598 71.8894,-547.907"/>
</g>
<!-- Node4 -->
<g id="node4" class="node"><title>Node4</title>
<g id="a_node4"><a xlink:href="classo2_1_1quality__control__modules_1_1common_1_1NonEmpty.html" target="_top" xlink:title="Check whether a plot is empty or not. ">
<polygon fill="none" stroke="black" points="181,-918 181,-948 336,-948 336,-918 181,-918"/>
<text text-anchor="start" x="189" y="-936" font-family="Helvetica,sans-Serif" font-size="10.00">o2::quality_control</text>
<text text-anchor="middle" x="258.5" y="-925" font-family="Helvetica,sans-Serif" font-size="10.00">_modules::common::NonEmpty</text>
</a>
</g>
</g>
<!-- Node1&#45;&gt;Node4 -->
<g id="edge3" class="edge"><title>Node1&#45;&gt;Node4</title>
<path fill="none" stroke="midnightblue" d="M69.2451,-548.606C79.5887,-626.268 114.174,-857.017 166,-909 170.29,-913.303 175.252,-916.864 180.601,-919.807"/>
<polygon fill="midnightblue" stroke="midnightblue" points="72.6641,-547.759 67.8957,-538.298 65.7234,-548.668 72.6641,-547.759"/>
</g>
<!-- Node5 -->
<g id="node5" class="node"><title>Node5</title>
<g id="a_node5"><a xlink:href="classo2_1_1quality__control__modules_1_1daq_1_1EverIncreasingGraph.html" target="_top" xlink:title="Check whether a plot is empty or not. ">
<polygon fill="none" stroke="black" points="182.5,-858.5 182.5,-899.5 334.5,-899.5 334.5,-858.5 182.5,-858.5"/>
<text text-anchor="start" x="190.5" y="-887.5" font-family="Helvetica,sans-Serif" font-size="10.00">o2::quality_control</text>
<text text-anchor="start" x="190.5" y="-876.5" font-family="Helvetica,sans-Serif" font-size="10.00">_modules::daq::EverIncreasing</text>
<text text-anchor="middle" x="258.5" y="-865.5" font-family="Helvetica,sans-Serif" font-size="10.00">Graph</text>
</a>
</g>
</g>
<!-- Node1&#45;&gt;Node5 -->
<g id="edge4" class="edge"><title>Node1&#45;&gt;Node5</title>
<path fill="none" stroke="midnightblue" d="M66.1855,-548.345C68.0314,-609.114 81.2707,-764.407 166,-850 170.807,-854.856 176.421,-858.9 182.46,-862.268"/>
<polygon fill="midnightblue" stroke="midnightblue" points="69.68,-548.056 65.9587,-538.136 62.6817,-548.212 69.68,-548.056"/>
</g>
<!-- Node6 -->
<g id="node6" class="node"><title>Node6</title>
<g id="a_node6"><a xlink:href="classo2_1_1quality__control__modules_1_1emcal_1_1DigitCheck.html" target="_top" xlink:title="Check whether a plot is empty or not. ">
<polygon fill="none" stroke="black" points="185.5,-810 185.5,-840 331.5,-840 331.5,-810 185.5,-810"/>
<text text-anchor="start" x="193.5" y="-828" font-family="Helvetica,sans-Serif" font-size="10.00">o2::quality_control</text>
<text text-anchor="middle" x="258.5" y="-817" font-family="Helvetica,sans-Serif" font-size="10.00">_modules::emcal::DigitCheck</text>
</a>
</g>
</g>
<!-- Node1&#45;&gt;Node6 -->
<g id="edge5" class="edge"><title>Node1&#45;&gt;Node6</title>
<path fill="none" stroke="midnightblue" d="M67.5112,-548.508C72.164,-603.198 90.9451,-732.33 166,-801 171.574,-806.1 178.099,-810.141 185.053,-813.341"/>
<polygon fill="midnightblue" stroke="midnightblue" points="70.984,-548.015 66.737,-538.309 64.0041,-548.545 70.984,-548.015"/>
</g>
<!-- Node7 -->
<g id="node7" class="node"><title>Node7</title>
<g id="a_node7"><a xlink:href="classo2_1_1quality__control__modules_1_1emcal_1_1RawCheck.html" target="_top" xlink:title="EMCAL raw data check It is final because there is no reason to derive from it. Just remove it if need...">
<polygon fill="none" stroke="black" points="185.5,-761 185.5,-791 331.5,-791 331.5,-761 185.5,-761"/>
<text text-anchor="start" x="193.5" y="-779" font-family="Helvetica,sans-Serif" font-size="10.00">o2::quality_control</text>
<text text-anchor="middle" x="258.5" y="-768" font-family="Helvetica,sans-Serif" font-size="10.00">_modules::emcal::RawCheck</text>
</a>
</g>
</g>
<!-- Node1&#45;&gt;Node7 -->
<g id="edge6" class="edge"><title>Node1&#45;&gt;Node7</title>
<path fill="none" stroke="midnightblue" d="M69.6933,-548.254C77.9776,-595.575 102.547,-697.703 166,-752 171.74,-756.912 178.371,-760.833 185.389,-763.961"/>
<polygon fill="midnightblue" stroke="midnightblue" points="73.1228,-547.539 68.0431,-538.242 66.216,-548.678 73.1228,-547.539"/>
</g>
<!-- Node8 -->
<g id="node8" class="node"><title>Node8</title>
<g id="a_node8"><a xlink:href="classo2_1_1quality__control__modules_1_1example_1_1FakeCheck.html" target="_top" xlink:title="Check whether a plot is empty or not. ">
<polygon fill="none" stroke="black" points="179.5,-712 179.5,-742 337.5,-742 337.5,-712 179.5,-712"/>
<text text-anchor="start" x="187.5" y="-730" font-family="Helvetica,sans-Serif" font-size="10.00">o2::quality_control</text>
<text text-anchor="middle" x="258.5" y="-719" font-family="Helvetica,sans-Serif" font-size="10.00">_modules::example::FakeCheck</text>
</a>
</g>
</g>
<!-- Node1&#45;&gt;Node8 -->
<g id="edge7" class="edge"><title>Node1&#45;&gt;Node8</title>
<path fill="none" stroke="midnightblue" d="M72.9272,-548.058C85.0752,-587.226 114.007,-662.639 166,-703 170.411,-706.424 175.264,-709.362 180.364,-711.882"/>
<polygon fill="midnightblue" stroke="midnightblue" points="76.2155,-546.837 70.0042,-538.254 69.5072,-548.837 76.2155,-546.837"/>
</g>
<!-- Node9 -->
<g id="node9" class="node"><title>Node9</title>
<g id="a_node9"><a xlink:href="classo2_1_1quality__control__modules_1_1mft_1_1BasicClusterQcCheck.html" target="_top" xlink:title="MFT Cluster Check. ">
<polygon fill="none" stroke="black" points="188,-652.5 188,-693.5 329,-693.5 329,-652.5 188,-652.5"/>
<text text-anchor="start" x="196" y="-681.5" font-family="Helvetica,sans-Serif" font-size="10.00">o2::quality_control</text>
<text text-anchor="start" x="196" y="-670.5" font-family="Helvetica,sans-Serif" font-size="10.00">_modules::mft::BasicCluster</text>
<text text-anchor="middle" x="258.5" y="-659.5" font-family="Helvetica,sans-Serif" font-size="10.00">QcCheck</text>
</a>
</g>
</g>
<!-- Node1&#45;&gt;Node9 -->
<g id="edge8" class="edge"><title>Node1&#45;&gt;Node9</title>
<path fill="none" stroke="midnightblue" d="M80.1843,-547.068C97.2886,-574.102 128.469,-617.519 166,-643 172.639,-647.507 180.005,-651.379 187.592,-654.695"/>
<polygon fill="midnightblue" stroke="midnightblue" points="82.9673,-544.914 74.734,-538.245 77.012,-548.593 82.9673,-544.914"/>
</g>
<!-- Node10 -->
<g id="node10" class="node"><title>Node10</title>
<g id="a_node10"><a xlink:href="classo2_1_1quality__control__modules_1_1mft_1_1BasicDigitQcCheck.html" target="_top" xlink:title="MFT Digit Check. ">
<polygon fill="none" stroke="black" points="187,-592.5 187,-633.5 330,-633.5 330,-592.5 187,-592.5"/>
<text text-anchor="start" x="195" y="-621.5" font-family="Helvetica,sans-Serif" font-size="10.00">o2::quality_control</text>
<text text-anchor="start" x="195" y="-610.5" font-family="Helvetica,sans-Serif" font-size="10.00">_modules::mft::BasicDigitQc</text>
<text text-anchor="middle" x="258.5" y="-599.5" font-family="Helvetica,sans-Serif" font-size="10.00">Check</text>
</a>
</g>
</g>
<!-- Node1&#45;&gt;Node10 -->
<g id="edge9" class="edge"><title>Node1&#45;&gt;Node10</title>
<path fill="none" stroke="midnightblue" d="M96.25,-543.583C115.599,-556.127 141.567,-571.835 166,-583 173.298,-586.335 181.077,-589.474 188.899,-592.374"/>
<polygon fill="midnightblue" stroke="midnightblue" points="98.135,-540.634 87.855,-538.07 94.2927,-546.485 98.135,-540.634"/>
</g>
<!-- Node11 -->
<g id="node11" class="node"><title>Node11</title>
<g id="a_node11"><a xlink:href="classo2_1_1quality__control__modules_1_1mft_1_1BasicTrackQcCheck.html" target="_top" xlink:title="MFT Track Check. ">
<polygon fill="none" stroke="black" points="185,-532.5 185,-573.5 332,-573.5 332,-532.5 185,-532.5"/>
<text text-anchor="start" x="193" y="-561.5" font-family="Helvetica,sans-Serif" font-size="10.00">o2::quality_control</text>
<text text-anchor="start" x="193" y="-550.5" font-family="Helvetica,sans-Serif" font-size="10.00">_modules::mft::BasicTrackQc</text>
<text text-anchor="middle" x="258.5" y="-539.5" font-family="Helvetica,sans-Serif" font-size="10.00">Check</text>
</a>
</g>
</g>
<!-- Node1&#45;&gt;Node11 -->
<g id="edge10" class="edge"><title>Node1&#45;&gt;Node11</title>
<path fill="none" stroke="midnightblue" d="M140.093,-534.607C154.817,-536.914 170.262,-539.334 184.935,-541.632"/>
<polygon fill="midnightblue" stroke="midnightblue" points="140.454,-531.121 130.033,-533.031 139.371,-538.037 140.454,-531.121"/>
</g>
<!-- Node12 -->
<g id="node12" class="node"><title>Node12</title>
<g id="a_node12"><a xlink:href="classo2_1_1quality__control__modules_1_1muonchambers_1_1PedestalsCheck.html" target="_top" xlink:title="Check whether a plot is empty or not. ">
<polygon fill="none" stroke="black" points="193,-472.5 193,-513.5 324,-513.5 324,-472.5 193,-472.5"/>
<text text-anchor="start" x="201" y="-501.5" font-family="Helvetica,sans-Serif" font-size="10.00">o2::quality_control</text>
<text text-anchor="start" x="201" y="-490.5" font-family="Helvetica,sans-Serif" font-size="10.00">_modules::muonchambers</text>
<text text-anchor="middle" x="258.5" y="-479.5" font-family="Helvetica,sans-Serif" font-size="10.00">::PedestalsCheck</text>
</a>
</g>
</g>
<!-- Node1&#45;&gt;Node12 -->
<g id="edge11" class="edge"><title>Node1&#45;&gt;Node12</title>
<path fill="none" stroke="midnightblue" d="M140.14,-511.385C157.535,-508.66 175.934,-505.778 192.874,-503.124"/>
<polygon fill="midnightblue" stroke="midnightblue" points="139.371,-507.963 130.033,-512.969 140.454,-514.879 139.371,-507.963"/>
</g>
<!-- Node13 -->
<g id="node13" class="node"><title>Node13</title>
<g id="a_node13"><a xlink:href="classo2_1_1quality__control__modules_1_1skeleton_1_1SkeletonCheck.html" target="_top" xlink:title="Example QC Check. ">
<polygon fill="none" stroke="black" points="205,-412.5 205,-453.5 312,-453.5 312,-412.5 205,-412.5"/>
<text text-anchor="start" x="213" y="-441.5" font-family="Helvetica,sans-Serif" font-size="10.00">o2::quality_control</text>
<text text-anchor="start" x="213" y="-430.5" font-family="Helvetica,sans-Serif" font-size="10.00">_modules::skeleton::</text>
<text text-anchor="middle" x="258.5" y="-419.5" font-family="Helvetica,sans-Serif" font-size="10.00">SkeletonCheck</text>
</a>
</g>
</g>
<!-- Node1&#45;&gt;Node13 -->
<g id="edge12" class="edge"><title>Node1&#45;&gt;Node13</title>
<path fill="none" stroke="midnightblue" d="M96.25,-502.417C115.599,-489.873 141.567,-474.165 166,-463 178.316,-457.372 191.999,-452.302 204.95,-448.001"/>
<polygon fill="midnightblue" stroke="midnightblue" points="94.2927,-499.515 87.855,-507.93 98.135,-505.366 94.2927,-499.515"/>
</g>
<!-- Node14 -->
<g id="node14" class="node"><title>Node14</title>
<g id="a_node14"><a xlink:href="classo2_1_1quality__control__modules_1_1tof_1_1TOFCheckCompressedCounter.html" target="_top" xlink:title="Checker for diagnostic histogram of TOF Raw data. ">
<polygon fill="none" stroke="black" points="166,-352.5 166,-393.5 351,-393.5 351,-352.5 166,-352.5"/>
<text text-anchor="start" x="174" y="-381.5" font-family="Helvetica,sans-Serif" font-size="10.00">o2::quality_control</text>
<text text-anchor="start" x="174" y="-370.5" font-family="Helvetica,sans-Serif" font-size="10.00">_modules::tof::TOFCheckCompressed</text>
<text text-anchor="middle" x="258.5" y="-359.5" font-family="Helvetica,sans-Serif" font-size="10.00">Counter</text>
</a>
</g>
</g>
<!-- Node1&#45;&gt;Node14 -->
<g id="edge13" class="edge"><title>Node1&#45;&gt;Node14</title>
<path fill="none" stroke="midnightblue" d="M80.1843,-498.932C97.2886,-471.898 128.469,-428.481 166,-403 171.117,-399.526 176.667,-396.429 182.417,-393.673"/>
<polygon fill="midnightblue" stroke="midnightblue" points="77.012,-497.407 74.734,-507.755 82.9673,-501.086 77.012,-497.407"/>
</g>
<!-- Node15 -->
<g id="node15" class="node"><title>Node15</title>
<g id="a_node15"><a xlink:href="classo2_1_1quality__control__modules_1_1tof_1_1TOFCheckDiagnostic.html" target="_top" xlink:title="Checker for diagnostic histogram of TOF Raw data. ">
<polygon fill="none" stroke="black" points="170.5,-304 170.5,-334 346.5,-334 346.5,-304 170.5,-304"/>
<text text-anchor="start" x="178.5" y="-322" font-family="Helvetica,sans-Serif" font-size="10.00">o2::quality_control</text>
<text text-anchor="middle" x="258.5" y="-311" font-family="Helvetica,sans-Serif" font-size="10.00">_modules::tof::TOFCheckDiagnostic</text>
</a>
</g>
</g>
<!-- Node1&#45;&gt;Node15 -->
<g id="edge14" class="edge"><title>Node1&#45;&gt;Node15</title>
<path fill="none" stroke="midnightblue" d="M72.9272,-497.942C85.0752,-458.774 114.007,-383.361 166,-343 170.411,-339.576 175.264,-336.638 180.364,-334.118"/>
<polygon fill="midnightblue" stroke="midnightblue" points="69.5072,-497.163 70.0042,-507.746 76.2155,-499.163 69.5072,-497.163"/>
</g>
<!-- Node16 -->
<g id="node16" class="node"><title>Node16</title>
<g id="a_node16"><a xlink:href="classo2_1_1quality__control__modules_1_1tof_1_1TOFCheckRawsMulti.html" target="_top" xlink:title="Check whether a plot is empty or not. ">
<polygon fill="none" stroke="black" points="181,-244.5 181,-285.5 336,-285.5 336,-244.5 181,-244.5"/>
<text text-anchor="start" x="189" y="-273.5" font-family="Helvetica,sans-Serif" font-size="10.00">o2::quality_control</text>
<text text-anchor="start" x="189" y="-262.5" font-family="Helvetica,sans-Serif" font-size="10.00">_modules::tof::TOFCheckRaws</text>
<text text-anchor="middle" x="258.5" y="-251.5" font-family="Helvetica,sans-Serif" font-size="10.00">Multi</text>
</a>
</g>
</g>
<!-- Node1&#45;&gt;Node16 -->
<g id="edge15" class="edge"><title>Node1&#45;&gt;Node16</title>
<path fill="none" stroke="midnightblue" d="M70.0985,-497.864C79.0171,-451.184 104.543,-350.795 166,-295 170.456,-290.955 175.468,-287.454 180.792,-284.424"/>
<polygon fill="midnightblue" stroke="midnightblue" points="66.6466,-497.285 68.3076,-507.748 73.5345,-498.533 66.6466,-497.285"/>
</g>
<!-- Node17 -->
<g id="node17" class="node"><title>Node17</title>
<g id="a_node17"><a xlink:href="classo2_1_1quality__control__modules_1_1tof_1_1TOFCheckRawsTime.html" target="_top" xlink:title="Check whether a plot is empty or not. ">
<polygon fill="none" stroke="black" points="170,-196 170,-226 347,-226 347,-196 170,-196"/>
<text text-anchor="start" x="178" y="-214" font-family="Helvetica,sans-Serif" font-size="10.00">o2::quality_control</text>
<text text-anchor="middle" x="258.5" y="-203" font-family="Helvetica,sans-Serif" font-size="10.00">_modules::tof::TOFCheckRawsTime</text>
</a>
</g>
</g>
<!-- Node1&#45;&gt;Node17 -->
<g id="edge16" class="edge"><title>Node1&#45;&gt;Node17</title>
<path fill="none" stroke="midnightblue" d="M67.1257,-497.744C71.0245,-441.81 88.4193,-306.777 166,-235 169.737,-231.543 173.911,-228.571 178.36,-226.017"/>
<polygon fill="midnightblue" stroke="midnightblue" points="63.6256,-497.639 66.512,-507.833 70.6127,-498.064 63.6256,-497.639"/>
</g>
<!-- Node18 -->
<g id="node18" class="node"><title>Node18</title>
<g id="a_node18"><a xlink:href="classo2_1_1quality__control__modules_1_1tof_1_1TOFCheckRawsToT.html" target="_top" xlink:title="Check whether a plot is empty or not. ">
<polygon fill="none" stroke="black" points="172,-147 172,-177 345,-177 345,-147 172,-147"/>
<text text-anchor="start" x="180" y="-165" font-family="Helvetica,sans-Serif" font-size="10.00">o2::quality_control</text>
<text text-anchor="middle" x="258.5" y="-154" font-family="Helvetica,sans-Serif" font-size="10.00">_modules::tof::TOFCheckRawsToT</text>
</a>
</g>
</g>
<!-- Node1&#45;&gt;Node18 -->
<g id="edge17" class="edge"><title>Node1&#45;&gt;Node18</title>
<path fill="none" stroke="midnightblue" d="M65.7154,-497.571C66.4579,-435.253 77.3241,-273.698 166,-187 169.886,-183.201 174.29,-179.966 179.015,-177.213"/>
<polygon fill="midnightblue" stroke="midnightblue" points="62.2151,-497.672 65.6765,-507.685 69.215,-497.699 62.2151,-497.672"/>
</g>
<!-- Node19 -->
<g id="node19" class="node"><title>Node19</title>
<g id="a_node19"><a xlink:href="classo2_1_1quality__control__modules_1_1tpc_1_1PIDClusterCheck.html" target="_top" xlink:title="Check whether the cluster number for a track is smaller than 159 in PID task. ">
<polygon fill="none" stroke="black" points="178,-98 178,-128 339,-128 339,-98 178,-98"/>
<text text-anchor="start" x="186" y="-116" font-family="Helvetica,sans-Serif" font-size="10.00">o2::quality_control</text>
<text text-anchor="middle" x="258.5" y="-105" font-family="Helvetica,sans-Serif" font-size="10.00">_modules::tpc::PIDClusterCheck</text>
</a>
</g>
</g>
<!-- Node1&#45;&gt;Node19 -->
<g id="edge18" class="edge"><title>Node1&#45;&gt;Node19</title>
<path fill="none" stroke="midnightblue" d="M69.2782,-497.483C79.7172,-420.087 114.548,-190.103 166,-138 169.818,-134.133 174.173,-130.848 178.862,-128.058"/>
<polygon fill="midnightblue" stroke="midnightblue" points="65.761,-497.382 67.9159,-507.755 72.7002,-498.302 65.761,-497.382"/>
</g>
<!-- Node20 -->
<g id="node20" class="node"><title>Node20</title>
<g id="a_node20"><a xlink:href="classo2_1_1quality__control__modules_1_1tpc_1_1TrackClusterCheck.html" target="_top" xlink:title="Check whether the cluster number for a track is smaller than 40 or 20 in Track task. ">
<polygon fill="none" stroke="black" points="188.5,-38.5 188.5,-79.5 328.5,-79.5 328.5,-38.5 188.5,-38.5"/>
<text text-anchor="start" x="196.5" y="-67.5" font-family="Helvetica,sans-Serif" font-size="10.00">o2::quality_control</text>
<text text-anchor="start" x="196.5" y="-56.5" font-family="Helvetica,sans-Serif" font-size="10.00">_modules::tpc::TrackCluster</text>
<text text-anchor="middle" x="258.5" y="-45.5" font-family="Helvetica,sans-Serif" font-size="10.00">Check</text>
</a>
</g>
</g>
<!-- Node1&#45;&gt;Node20 -->
<g id="edge19" class="edge"><title>Node1&#45;&gt;Node20</title>
<path fill="none" stroke="midnightblue" d="M68.5779,-497.722C77.5536,-414.414 109.978,-150.328 166,-89 172.201,-82.2114 179.961,-76.9551 188.324,-72.8859"/>
<polygon fill="midnightblue" stroke="midnightblue" points="65.0817,-497.502 67.5107,-507.815 72.0429,-498.238 65.0817,-497.502"/>
</g>
<!-- Node21 -->
<g id="node21" class="node"><title>Node21</title>
<g id="a_node21"><a xlink:href="classTestCheck.html" target="_top" xlink:title="TestCheck">
<polygon fill="none" stroke="black" points="226,-0.5 226,-19.5 291,-19.5 291,-0.5 226,-0.5"/>
<text text-anchor="middle" x="258.5" y="-7.5" font-family="Helvetica,sans-Serif" font-size="10.00">TestCheck</text>
</a>
</g>
</g>
<!-- Node1&#45;&gt;Node21 -->
<g id="edge20" class="edge"><title>Node1&#45;&gt;Node21</title>
<path fill="none" stroke="midnightblue" d="M67.538,-497.611C73.5928,-406.31 98.8335,-96.5039 166,-29 181.449,-13.4736 206.049,-9.03901 225.853,-8.31553"/>
<polygon fill="midnightblue" stroke="midnightblue" points="64.0427,-497.427 66.8932,-507.631 71.0282,-497.876 64.0427,-497.427"/>
</g>
</g>
</svg>
