<?xml version="1.0" encoding="UTF-8" standalone="no"?>
<!DOCTYPE svg PUBLIC "-//W3C//DTD SVG 1.1//EN"
 "http://www.w3.org/Graphics/SVG/1.1/DTD/svg11.dtd">
<!-- Generated by graphviz version 2.38.0 (20140413.2041)
 -->
<!-- Title: Modules/ITS/include/ITS/ITSRawTask.h Pages: 1 -->
<svg width="894pt" height="274pt"
 viewBox="0.00 0.00 894.40 274.00" xmlns="http://www.w3.org/2000/svg" xmlns:xlink="http://www.w3.org/1999/xlink">
<g id="graph0" class="graph" transform="scale(1 1) rotate(0) translate(4 270)">
<title>Modules/ITS/include/ITS/ITSRawTask.h</title>
<!-- Node1 -->
<g id="node1" class="node"><title>Node1</title>
<polygon fill="#bfbfbf" stroke="black" points="377.899,-235.5 377.899,-265.5 483.899,-265.5 483.899,-235.5 377.899,-235.5"/>
<text text-anchor="start" x="385.899" y="-253.5" font-family="Helvetica,sans-Serif" font-size="10.00">Modules/ITS/include</text>
<text text-anchor="middle" x="430.899" y="-242.5" font-family="Helvetica,sans-Serif" font-size="10.00">/ITS/ITSRawTask.h</text>
</g>
<!-- Node2 -->
<g id="node2" class="node"><title>Node2</title>
<g id="a_node2"><a xlink:href="TaskInterface_8h.html" target="_top" xlink:title="QualityControl/TaskInterface.h">
<polygon fill="none" stroke="black" points="72.8995,-174 72.8995,-193 222.899,-193 222.899,-174 72.8995,-174"/>
<text text-anchor="middle" x="147.899" y="-181" font-family="Helvetica,sans-Serif" font-size="10.00">QualityControl/TaskInterface.h</text>
</a>
</g>
</g>
<!-- Node1&#45;&gt;Node2 -->
<g id="edge1" class="edge"><title>Node1&#45;&gt;Node2</title>
<path fill="none" stroke="midnightblue" d="M377.669,-237.274C325.092,-225.198 245.442,-206.904 195.074,-195.335"/>
<polygon fill="midnightblue" stroke="midnightblue" points="195.629,-191.871 185.099,-193.044 194.062,-198.694 195.629,-191.871"/>
</g>
<!-- Node17 -->
<g id="node17" class="node"><title>Node17</title>
<polygon fill="none" stroke="#bfbfbf" points="240.899,-174 240.899,-193 290.899,-193 290.899,-174 240.899,-174"/>
<text text-anchor="middle" x="265.899" y="-181" font-family="Helvetica,sans-Serif" font-size="10.00">TH2F.h</text>
</g>
<!-- Node1&#45;&gt;Node17 -->
<g id="edge24" class="edge"><title>Node1&#45;&gt;Node17</title>
<path fill="none" stroke="midnightblue" d="M393.494,-235.481C367.216,-225.534 331.293,-211.741 299.899,-199 298.305,-198.353 296.672,-197.682 295.025,-197"/>
<polygon fill="midnightblue" stroke="midnightblue" points="296.202,-193.698 285.627,-193.052 293.491,-200.152 296.202,-193.698"/>
</g>
<!-- Node18 -->
<g id="node18" class="node"><title>Node18</title>
<polygon fill="none" stroke="#bfbfbf" points="309.399,-174 309.399,-193 382.399,-193 382.399,-174 309.399,-174"/>
<text text-anchor="middle" x="345.899" y="-181" font-family="Helvetica,sans-Serif" font-size="10.00">TPaveText.h</text>
</g>
<!-- Node1&#45;&gt;Node18 -->
<g id="edge25" class="edge"><title>Node1&#45;&gt;Node18</title>
<path fill="none" stroke="midnightblue" d="M412.456,-235.396C398.546,-224.759 379.511,-210.203 365.36,-199.381"/>
<polygon fill="midnightblue" stroke="midnightblue" points="367.339,-196.489 357.269,-193.195 363.087,-202.049 367.339,-196.489"/>
</g>
<!-- Node19 -->
<g id="node19" class="node"><title>Node19</title>
<polygon fill="none" stroke="#bfbfbf" points="400.899,-174 400.899,-193 460.899,-193 460.899,-174 400.899,-174"/>
<text text-anchor="middle" x="430.899" y="-181" font-family="Helvetica,sans-Serif" font-size="10.00">TEllipse.h</text>
</g>
<!-- Node1&#45;&gt;Node19 -->
<g id="edge26" class="edge"><title>Node1&#45;&gt;Node19</title>
<path fill="none" stroke="midnightblue" d="M430.899,-235.396C430.899,-226.064 430.899,-213.714 430.899,-203.517"/>
<polygon fill="midnightblue" stroke="midnightblue" points="434.4,-203.195 430.899,-193.195 427.4,-203.195 434.4,-203.195"/>
</g>
<!-- Node20 -->
<g id="node20" class="node"><title>Node20</title>
<polygon fill="none" stroke="#bfbfbf" points="479.399,-168.5 479.399,-198.5 598.399,-198.5 598.399,-168.5 479.399,-168.5"/>
<text text-anchor="start" x="487.399" y="-186.5" font-family="Helvetica,sans-Serif" font-size="10.00">ITSMFTReconstruction</text>
<text text-anchor="middle" x="538.899" y="-175.5" font-family="Helvetica,sans-Serif" font-size="10.00">/RawPixelReader.h</text>
</g>
<!-- Node1&#45;&gt;Node20 -->
<g id="edge27" class="edge"><title>Node1&#45;&gt;Node20</title>
<path fill="none" stroke="midnightblue" d="M454.334,-235.396C469.619,-226.197 489.775,-214.066 506.575,-203.955"/>
<polygon fill="midnightblue" stroke="midnightblue" points="508.748,-206.732 515.511,-198.577 505.138,-200.734 508.748,-206.732"/>
</g>
<!-- Node21 -->
<g id="node21" class="node"><title>Node21</title>
<polygon fill="none" stroke="#bfbfbf" points="616.399,-174 616.399,-193 749.399,-193 749.399,-174 616.399,-174"/>
<text text-anchor="middle" x="682.899" y="-181" font-family="Helvetica,sans-Serif" font-size="10.00">ITSBase/GeometryTGeo.h</text>
</g>
<!-- Node1&#45;&gt;Node21 -->
<g id="edge28" class="edge"><title>Node1&#45;&gt;Node21</title>
<path fill="none" stroke="midnightblue" d="M484.034,-235.795C530.423,-223.829 596.888,-206.686 639.974,-195.572"/>
<polygon fill="midnightblue" stroke="midnightblue" points="641.054,-198.908 649.863,-193.021 639.306,-192.13 641.054,-198.908"/>
</g>
<!-- Node22 -->
<g id="node22" class="node"><title>Node22</title>
<polygon fill="none" stroke="#bfbfbf" points="767.399,-168.5 767.399,-198.5 886.399,-198.5 886.399,-168.5 767.399,-168.5"/>
<text text-anchor="start" x="775.399" y="-186.5" font-family="Helvetica,sans-Serif" font-size="10.00">ITSMFTReconstruction</text>
<text text-anchor="middle" x="826.899" y="-175.5" font-family="Helvetica,sans-Serif" font-size="10.00">/DigitPixelReader.h</text>
</g>
<!-- Node1&#45;&gt;Node22 -->
<g id="edge29" class="edge"><title>Node1&#45;&gt;Node22</title>
<path fill="none" stroke="midnightblue" d="M484.174,-242.255C547.166,-233.475 655.39,-217.722 757.385,-199.224"/>
<polygon fill="midnightblue" stroke="midnightblue" points="758.025,-202.665 767.234,-197.425 756.768,-195.778 758.025,-202.665"/>
</g>
<!-- Node3 -->
<g id="node3" class="node"><title>Node3</title>
<polygon fill="none" stroke="#bfbfbf" points="281.399,-0.5 281.399,-19.5 316.399,-19.5 316.399,-0.5 281.399,-0.5"/>
<text text-anchor="middle" x="298.899" y="-7.5" font-family="Helvetica,sans-Serif" font-size="10.00">map</text>
</g>
<!-- Node2&#45;&gt;Node3 -->
<g id="edge2" class="edge"><title>Node2&#45;&gt;Node3</title>
<path fill="none" stroke="midnightblue" d="M111.799,-173.843C90.0552,-166.567 64.0971,-153.75 50.8995,-132 33.377,-103.123 29.2518,-81.9291 50.8995,-56 78.7525,-22.6382 212.692,-13.9562 271.319,-11.7405"/>
<polygon fill="midnightblue" stroke="midnightblue" points="271.473,-15.2374 281.347,-11.3975 271.233,-8.24147 271.473,-15.2374"/>
</g>
<!-- Node4 -->
<g id="node4" class="node"><title>Node4</title>
<polygon fill="none" stroke="#bfbfbf" points="143.899,-56.5 143.899,-75.5 195.899,-75.5 195.899,-56.5 143.899,-56.5"/>
<text text-anchor="middle" x="169.899" y="-63.5" font-family="Helvetica,sans-Serif" font-size="10.00">memory</text>
</g>
<!-- Node2&#45;&gt;Node4 -->
<g id="edge3" class="edge"><title>Node2&#45;&gt;Node4</title>
<path fill="none" stroke="midnightblue" d="M140.272,-173.694C129.584,-160.228 112.461,-133.786 121.899,-112 127.168,-99.8399 137.519,-89.4594 147.264,-81.7429"/>
<polygon fill="midnightblue" stroke="midnightblue" points="149.543,-84.4116 155.529,-75.6698 145.398,-78.7707 149.543,-84.4116"/>
</g>
<!-- Node5 -->
<g id="node5" class="node"><title>Node5</title>
<polygon fill="none" stroke="#bfbfbf" points="411.399,-0.5 411.399,-19.5 452.399,-19.5 452.399,-0.5 411.399,-0.5"/>
<text text-anchor="middle" x="431.899" y="-7.5" font-family="Helvetica,sans-Serif" font-size="10.00">string</text>
</g>
<!-- Node2&#45;&gt;Node5 -->
<g id="edge4" class="edge"><title>Node2&#45;&gt;Node5</title>
<path fill="none" stroke="midnightblue" d="M140.309,-173.955C132.442,-164.475 120.643,-148.348 115.899,-132 106.197,-98.5618 108.203,-78.3509 134.899,-56 155.153,-39.0433 329.366,-20.7414 401.165,-13.8438"/>
<polygon fill="midnightblue" stroke="midnightblue" points="401.754,-17.3037 411.378,-12.8734 401.092,-10.3351 401.754,-17.3037"/>
</g>
<!-- Node6 -->
<g id="node6" class="node"><title>Node6</title>
<polygon fill="none" stroke="#bfbfbf" points="25.3995,-0.5 25.3995,-19.5 108.399,-19.5 108.399,-0.5 25.3995,-0.5"/>
<text text-anchor="middle" x="66.8995" y="-7.5" font-family="Helvetica,sans-Serif" font-size="10.00">unordered_map</text>
</g>
<!-- Node2&#45;&gt;Node6 -->
<g id="edge5" class="edge"><title>Node2&#45;&gt;Node6</title>
<path fill="none" stroke="midnightblue" d="M81.2103,-173.934C55.4723,-167.009 28.516,-154.515 12.8995,-132 -6.35145,-104.245 -1.42755,-86.5888 12.8995,-56 18.9443,-43.0941 30.7113,-32.5985 41.722,-24.9999"/>
<polygon fill="midnightblue" stroke="midnightblue" points="43.727,-27.8723 50.2664,-19.5364 39.956,-21.9748 43.727,-27.8723"/>
</g>
<!-- Node7 -->
<g id="node7" class="node"><title>Node7</title>
<polygon fill="none" stroke="#bfbfbf" points="131.399,-112.5 131.399,-131.5 256.399,-131.5 256.399,-112.5 131.399,-112.5"/>
<text text-anchor="middle" x="193.899" y="-119.5" font-family="Helvetica,sans-Serif" font-size="10.00">Framework/InitContext.h</text>
</g>
<!-- Node2&#45;&gt;Node7 -->
<g id="edge6" class="edge"><title>Node2&#45;&gt;Node7</title>
<path fill="none" stroke="midnightblue" d="M154.49,-173.975C161.39,-165.05 172.402,-150.807 181.033,-139.643"/>
<polygon fill="midnightblue" stroke="midnightblue" points="183.974,-141.561 187.321,-131.509 178.436,-137.28 183.974,-141.561"/>
</g>
<!-- Node8 -->
<g id="node8" class="node"><title>Node8</title>
<polygon fill="none" stroke="#bfbfbf" points="274.899,-112.5 274.899,-131.5 434.899,-131.5 434.899,-112.5 274.899,-112.5"/>
<text text-anchor="middle" x="354.899" y="-119.5" font-family="Helvetica,sans-Serif" font-size="10.00">Framework/ProcessingContext.h</text>
</g>
<!-- Node2&#45;&gt;Node8 -->
<g id="edge7" class="edge"><title>Node2&#45;&gt;Node8</title>
<path fill="none" stroke="midnightblue" d="M177.558,-173.975C213.834,-163.548 275.363,-145.862 315.564,-134.307"/>
<polygon fill="midnightblue" stroke="midnightblue" points="316.652,-137.635 325.296,-131.509 314.719,-130.908 316.652,-137.635"/>
</g>
<!-- Node9 -->
<g id="node9" class="node"><title>Node9</title>
<g id="a_node9"><a xlink:href="Activity_8h.html" target="_top" xlink:title="QualityControl/Activity.h">
<polygon fill="none" stroke="black" points="453.399,-112.5 453.399,-131.5 576.399,-131.5 576.399,-112.5 453.399,-112.5"/>
<text text-anchor="middle" x="514.899" y="-119.5" font-family="Helvetica,sans-Serif" font-size="10.00">QualityControl/Activity.h</text>
</a>
</g>
</g>
<!-- Node2&#45;&gt;Node9 -->
<g id="edge8" class="edge"><title>Node2&#45;&gt;Node9</title>
<path fill="none" stroke="midnightblue" d="M196.741,-173.957C208.265,-171.972 220.512,-169.888 231.899,-168 306.557,-155.621 392.412,-142.065 449.798,-133.101"/>
<polygon fill="midnightblue" stroke="midnightblue" points="450.477,-136.538 459.818,-131.537 449.398,-129.621 450.477,-136.538"/>
</g>
<!-- Node10 -->
<g id="node10" class="node"><title>Node10</title>
<g id="a_node10"><a xlink:href="ObjectsManager_8h.html" target="_top" xlink:title="QualityControl/ObjectsManager.h">
<polygon fill="none" stroke="black" points="594.399,-112.5 594.399,-131.5 755.399,-131.5 755.399,-112.5 594.399,-112.5"/>
<text text-anchor="middle" x="674.899" y="-119.5" font-family="Helvetica,sans-Serif" font-size="10.00">QualityControl/ObjectsManager.h</text>
</a>
</g>
</g>
<!-- Node2&#45;&gt;Node10 -->
<g id="edge9" class="edge"><title>Node2&#45;&gt;Node10</title>
<path fill="none" stroke="midnightblue" d="M194.023,-173.943C206.306,-171.827 219.583,-169.686 231.899,-168 236.231,-167.407 455.827,-145.164 584.17,-132.177"/>
<polygon fill="midnightblue" stroke="midnightblue" points="584.793,-135.632 594.39,-131.143 584.088,-128.667 584.793,-135.632"/>
</g>
<!-- Node10&#45;&gt;Node4 -->
<g id="edge23" class="edge"><title>Node10&#45;&gt;Node4</title>
<path fill="none" stroke="midnightblue" d="M595.159,-112.473C484.105,-100.598 287.394,-79.5638 206.352,-70.8979"/>
<polygon fill="midnightblue" stroke="midnightblue" points="206.469,-67.3905 196.154,-69.8074 205.725,-74.3509 206.469,-67.3905"/>
</g>
<!-- Node10&#45;&gt;Node5 -->
<g id="edge22" class="edge"><title>Node10&#45;&gt;Node5</title>
<path fill="none" stroke="midnightblue" d="M616.648,-112.481C554.434,-102.887 463.085,-87.1783 450.899,-76 438.058,-64.2199 433.718,-44.2915 432.339,-29.5992"/>
<polygon fill="midnightblue" stroke="midnightblue" points="435.833,-29.391 431.77,-19.6061 428.844,-29.7889 435.833,-29.391"/>
</g>
<!-- Node11 -->
<g id="node11" class="node"><title>Node11</title>
<g id="a_node11"><a xlink:href="MonitorObject_8h.html" target="_top" xlink:title="QualityControl/MonitorObject.h">
<polygon fill="none" stroke="black" points="599.399,-56.5 599.399,-75.5 750.399,-75.5 750.399,-56.5 599.399,-56.5"/>
<text text-anchor="middle" x="674.899" y="-63.5" font-family="Helvetica,sans-Serif" font-size="10.00">QualityControl/MonitorObject.h</text>
</a>
</g>
</g>
<!-- Node10&#45;&gt;Node11 -->
<g id="edge10" class="edge"><title>Node10&#45;&gt;Node11</title>
<path fill="none" stroke="midnightblue" d="M674.899,-112.083C674.899,-105.006 674.899,-94.8611 674.899,-85.9865"/>
<polygon fill="midnightblue" stroke="midnightblue" points="678.4,-85.751 674.899,-75.7511 671.4,-85.7511 678.4,-85.751"/>
</g>
<!-- Node15 -->
<g id="node15" class="node"><title>Node15</title>
<g id="a_node15"><a xlink:href="Quality_8h.html" target="_top" xlink:title="QualityControl/Quality.h">
<polygon fill="none" stroke="black" points="460.399,-56.5 460.399,-75.5 581.399,-75.5 581.399,-56.5 460.399,-56.5"/>
<text text-anchor="middle" x="520.899" y="-63.5" font-family="Helvetica,sans-Serif" font-size="10.00">QualityControl/Quality.h</text>
</a>
</g>
</g>
<!-- Node10&#45;&gt;Node15 -->
<g id="edge16" class="edge"><title>Node10&#45;&gt;Node15</title>
<path fill="none" stroke="midnightblue" d="M650.498,-112.444C624.703,-103.399 583.823,-89.064 554.882,-78.9158"/>
<polygon fill="midnightblue" stroke="midnightblue" points="555.782,-75.5226 545.187,-75.5164 553.466,-82.1283 555.782,-75.5226"/>
</g>
<!-- Node16 -->
<g id="node16" class="node"><title>Node16</title>
<g id="a_node16"><a xlink:href="TaskConfig_8h.html" target="_top" xlink:title="QualityControl/TaskConfig.h">
<polygon fill="none" stroke="black" points="263.899,-56.5 263.899,-75.5 403.899,-75.5 403.899,-56.5 263.899,-56.5"/>
<text text-anchor="middle" x="333.899" y="-63.5" font-family="Helvetica,sans-Serif" font-size="10.00">QualityControl/TaskConfig.h</text>
</a>
</g>
</g>
<!-- Node10&#45;&gt;Node16 -->
<g id="edge19" class="edge"><title>Node10&#45;&gt;Node16</title>
<path fill="none" stroke="midnightblue" d="M620.867,-112.444C560.258,-102.846 462.037,-87.2916 397.703,-77.1037"/>
<polygon fill="midnightblue" stroke="midnightblue" points="398.104,-73.6237 387.679,-75.5164 397.009,-80.5375 398.104,-73.6237"/>
</g>
<!-- Node11&#45;&gt;Node3 -->
<g id="edge12" class="edge"><title>Node11&#45;&gt;Node3</title>
<path fill="none" stroke="midnightblue" d="M615.321,-56.4435C532.886,-44.6044 387.347,-23.7026 326.672,-14.9887"/>
<polygon fill="midnightblue" stroke="midnightblue" points="327.089,-11.5127 316.693,-13.5555 326.094,-18.4416 327.089,-11.5127"/>
</g>
<!-- Node11&#45;&gt;Node5 -->
<g id="edge11" class="edge"><title>Node11&#45;&gt;Node5</title>
<path fill="none" stroke="midnightblue" d="M636.395,-56.4435C588.2,-45.7335 506.632,-27.6072 462.482,-17.7961"/>
<polygon fill="midnightblue" stroke="midnightblue" points="463.143,-14.3576 452.622,-15.6049 461.624,-21.191 463.143,-14.3576"/>
</g>
<!-- Node12 -->
<g id="node12" class="node"><title>Node12</title>
<polygon fill="none" stroke="#bfbfbf" points="511.899,-0.5 511.899,-19.5 567.899,-19.5 567.899,-0.5 511.899,-0.5"/>
<text text-anchor="middle" x="539.899" y="-7.5" font-family="Helvetica,sans-Serif" font-size="10.00">Rtypes.h</text>
</g>
<!-- Node11&#45;&gt;Node12 -->
<g id="edge13" class="edge"><title>Node11&#45;&gt;Node12</title>
<path fill="none" stroke="midnightblue" d="M653.508,-56.4435C631.192,-47.5171 595.996,-33.4387 570.692,-23.3168"/>
<polygon fill="midnightblue" stroke="midnightblue" points="571.775,-19.9807 561.191,-19.5164 569.175,-26.4801 571.775,-19.9807"/>
</g>
<!-- Node13 -->
<g id="node13" class="node"><title>Node13</title>
<polygon fill="none" stroke="#bfbfbf" points="625.399,-0.5 625.399,-19.5 684.399,-19.5 684.399,-0.5 625.399,-0.5"/>
<text text-anchor="middle" x="654.899" y="-7.5" font-family="Helvetica,sans-Serif" font-size="10.00">TObject.h</text>
</g>
<!-- Node11&#45;&gt;Node13 -->
<g id="edge14" class="edge"><title>Node11&#45;&gt;Node13</title>
<path fill="none" stroke="midnightblue" d="M671.597,-56.083C668.917,-48.8486 665.051,-38.4087 661.713,-29.3968"/>
<polygon fill="midnightblue" stroke="midnightblue" points="664.896,-27.9129 658.141,-19.7511 658.332,-30.3442 664.896,-27.9129"/>
</g>
<!-- Node14 -->
<g id="node14" class="node"><title>Node14</title>
<polygon fill="none" stroke="#bfbfbf" points="702.899,-0.5 702.899,-19.5 818.899,-19.5 818.899,-0.5 702.899,-0.5"/>
<text text-anchor="middle" x="760.899" y="-7.5" font-family="Helvetica,sans-Serif" font-size="10.00">Common/Exceptions.h</text>
</g>
<!-- Node11&#45;&gt;Node14 -->
<g id="edge15" class="edge"><title>Node11&#45;&gt;Node14</title>
<path fill="none" stroke="midnightblue" d="M688.717,-56.324C702.132,-47.9002 722.724,-34.9709 738.485,-25.0741"/>
<polygon fill="midnightblue" stroke="midnightblue" points="740.509,-27.9364 747.116,-19.6545 736.786,-22.0081 740.509,-27.9364"/>
</g>
<!-- Node15&#45;&gt;Node5 -->
<g id="edge18" class="edge"><title>Node15&#45;&gt;Node5</title>
<path fill="none" stroke="midnightblue" d="M506.6,-56.324C492.717,-47.9002 471.407,-34.9709 455.096,-25.0741"/>
<polygon fill="midnightblue" stroke="midnightblue" points="456.528,-21.8495 446.163,-19.6545 452.897,-27.8341 456.528,-21.8495"/>
</g>
<!-- Node15&#45;&gt;Node12 -->
<g id="edge17" class="edge"><title>Node15&#45;&gt;Node12</title>
<path fill="none" stroke="midnightblue" d="M524.037,-56.083C526.582,-48.8486 530.256,-38.4087 533.427,-29.3968"/>
<polygon fill="midnightblue" stroke="midnightblue" points="536.803,-30.3459 536.82,-19.7511 530.2,-28.0225 536.803,-30.3459"/>
</g>
<!-- Node16&#45;&gt;Node5 -->
<g id="edge20" class="edge"><title>Node16&#45;&gt;Node5</title>
<path fill="none" stroke="midnightblue" d="M349.645,-56.324C365.218,-47.7428 389.277,-34.486 407.359,-24.5224"/>
<polygon fill="midnightblue" stroke="midnightblue" points="409.124,-27.546 416.193,-19.6545 405.746,-21.4152 409.124,-27.546"/>
</g>
<!-- Node16&#45;&gt;Node6 -->
<g id="edge21" class="edge"><title>Node16&#45;&gt;Node6</title>
<path fill="none" stroke="midnightblue" d="M291.593,-56.4435C244.682,-46.9561 168.996,-31.6487 118.606,-21.4574"/>
<polygon fill="midnightblue" stroke="midnightblue" points="119.064,-17.9794 108.569,-19.4275 117.677,-24.8405 119.064,-17.9794"/>
</g>
</g>
</svg>
