<?xml version="1.0" encoding="UTF-8" standalone="no"?>
<!DOCTYPE svg PUBLIC "-//W3C//DTD SVG 1.1//EN"
 "http://www.w3.org/Graphics/SVG/1.1/DTD/svg11.dtd">
<!-- Generated by graphviz version 2.38.0 (20140413.2041)
 -->
<!-- Title: Modules/ITS/src/ITSRawTask.cxx Pages: 1 -->
<!--zoomable 319 -->
<svg id="main" version="1.1" xmlns="http://www.w3.org/2000/svg" xmlns:xlink="http://www.w3.org/1999/xlink" xml:space="preserve" onload="init(evt)">
<style type="text/css"><![CDATA[
.edge:hover path { stroke: red; }
.edge:hover polygon { stroke: red; fill: red; }
]]></style>
<script type="text/javascript"><![CDATA[
var edges = document.getElementsByTagName('g');
if (edges && edges.length) {
  for (var i=0;i<edges.length;i++) {
    if (edges[i].id.substr(0,4)=='edge') {
      edges[i].setAttribute('class','edge');
    }
  }
}
]]></script>
        <defs>
                <circle id="rim" cx="0" cy="0" r="7"/>
                <circle id="rim2" cx="0" cy="0" r="3.5"/>
                <g id="zoomPlus">
                        <use xlink:href="#rim" fill="#404040">
                                <set attributeName="fill" to="#808080" begin="zoomplus.mouseover" end="zoomplus.mouseout"/>
                        </use>
                        <path d="M-4,0h8M0,-4v8" fill="none" stroke="white" stroke-width="1.5" pointer-events="none"/>
                </g>
                <g id="zoomMin">
                        <use xlink:href="#rim" fill="#404040">
                                <set attributeName="fill" to="#808080" begin="zoomminus.mouseover" end="zoomminus.mouseout"/>
                        </use>
                        <path d="M-4,0h8" fill="none" stroke="white" stroke-width="1.5" pointer-events="none"/>
                </g>
                <g id="dirArrow">
                        <path fill="none" stroke="white" stroke-width="1.5" d="M0,-3.0v7 M-2.5,-0.5L0,-3.0L2.5,-0.5"/>
                </g>
               <g id="resetDef">
                       <use xlink:href="#rim2" fill="#404040">
                               <set attributeName="fill" to="#808080" begin="reset.mouseover" end="reset.mouseout"/>
                       </use>
               </g>
        </defs>

<script type="text/javascript">
var viewWidth = 1405;
var viewHeight = 319;
var sectionId = 'dynsection-0';
</script>
<script xlink:href="svgpan.js"/>
<svg id="graph" class="graph">
<g id="viewport">
<title>Modules/ITS/src/ITSRawTask.cxx</title>
<!-- Node1 -->
<g id="node1" class="node"><title>Node1</title>
<polygon fill="#bfbfbf" stroke="black" points="601,-291.5 601,-310.5 769,-310.5 769,-291.5 601,-291.5"/>
<text text-anchor="middle" x="685" y="-298.5" font-family="Helvetica,sans-Serif" font-size="10.00">Modules/ITS/src/ITSRawTask.cxx</text>
</g>
<!-- Node2 -->
<g id="node2" class="node"><title>Node2</title>
<g id="a_node2"><a xlink:href="QcInfoLogger_8h.html" target="_top" xlink:title="QualityControl/QcInfoLogger.h">
<polygon fill="none" stroke="black" points="173.5,-235.5 173.5,-254.5 322.5,-254.5 322.5,-235.5 173.5,-235.5"/>
<text text-anchor="middle" x="248" y="-242.5" font-family="Helvetica,sans-Serif" font-size="10.00">QualityControl/QcInfoLogger.h</text>
</a>
</g>
</g>
<!-- Node1&#45;&gt;Node2 -->
<g id="edge1" class="edge"><title>Node1&#45;&gt;Node2</title>
<path fill="none" stroke="midnightblue" d="M615.756,-291.444C537.205,-281.737 409.356,-265.939 326.983,-255.76"/>
<polygon fill="midnightblue" stroke="midnightblue" points="327.274,-252.269 316.92,-254.516 326.415,-259.216 327.274,-252.269"/>
</g>
<!-- Node4 -->
<g id="node4" class="node"><title>Node4</title>
<g id="a_node4"><a xlink:href="ITSRawTask_8h.html" target="_top" xlink:title="ITS QC task for raw data analysis. ">
<polygon fill="none" stroke="black" points="451.5,-235.5 451.5,-254.5 552.5,-254.5 552.5,-235.5 451.5,-235.5"/>
<text text-anchor="middle" x="502" y="-242.5" font-family="Helvetica,sans-Serif" font-size="10.00">ITS/ITSRawTask.h</text>
</a>
</g>
</g>
<!-- Node1&#45;&gt;Node4 -->
<g id="edge3" class="edge"><title>Node1&#45;&gt;Node4</title>
<path fill="none" stroke="midnightblue" d="M656.003,-291.444C624.815,-282.241 575.07,-267.562 540.592,-257.388"/>
<polygon fill="midnightblue" stroke="midnightblue" points="541.443,-253.99 530.861,-254.516 539.462,-260.704 541.443,-253.99"/>
</g>
<!-- Node26 -->
<g id="node26" class="node"><title>Node26</title>
<g id="a_node26"><a xlink:href="ITSTaskVariables_8h_source.html" target="_top" xlink:title="ITS/ITSTaskVariables.h">
<polygon fill="none" stroke="black" points="571,-235.5 571,-254.5 693,-254.5 693,-235.5 571,-235.5"/>
<text text-anchor="middle" x="632" y="-242.5" font-family="Helvetica,sans-Serif" font-size="10.00">ITS/ITSTaskVariables.h</text>
</a>
</g>
</g>
<!-- Node1&#45;&gt;Node26 -->
<g id="edge33" class="edge"><title>Node1&#45;&gt;Node26</title>
<path fill="none" stroke="midnightblue" d="M676.248,-291.083C668.53,-283.22 657.095,-271.569 647.783,-262.081"/>
<polygon fill="midnightblue" stroke="midnightblue" points="650.092,-259.436 640.589,-254.751 645.096,-264.34 650.092,-259.436"/>
</g>
<!-- Node27 -->
<g id="node27" class="node"><title>Node27</title>
<polygon fill="none" stroke="#bfbfbf" points="711,-235.5 711,-254.5 767,-254.5 767,-235.5 711,-235.5"/>
<text text-anchor="middle" x="739" y="-242.5" font-family="Helvetica,sans-Serif" font-size="10.00">TGaxis.h</text>
</g>
<!-- Node1&#45;&gt;Node27 -->
<g id="edge34" class="edge"><title>Node1&#45;&gt;Node27</title>
<path fill="none" stroke="midnightblue" d="M693.917,-291.083C701.78,-283.22 713.431,-271.569 722.919,-262.081"/>
<polygon fill="midnightblue" stroke="midnightblue" points="725.653,-264.297 730.249,-254.751 720.703,-259.347 725.653,-264.297"/>
</g>
<!-- Node28 -->
<g id="node28" class="node"><title>Node28</title>
<polygon fill="none" stroke="#bfbfbf" points="785.5,-235.5 785.5,-254.5 838.5,-254.5 838.5,-235.5 785.5,-235.5"/>
<text text-anchor="middle" x="812" y="-242.5" font-family="Helvetica,sans-Serif" font-size="10.00">TStyle.h</text>
</g>
<!-- Node1&#45;&gt;Node28 -->
<g id="edge35" class="edge"><title>Node1&#45;&gt;Node28</title>
<path fill="none" stroke="midnightblue" d="M705.124,-291.444C726.024,-282.557 758.935,-268.563 782.716,-258.451"/>
<polygon fill="midnightblue" stroke="midnightblue" points="784.138,-261.65 791.971,-254.516 781.398,-255.208 784.138,-261.65"/>
</g>
<!-- Node29 -->
<g id="node29" class="node"><title>Node29</title>
<polygon fill="none" stroke="#bfbfbf" points="857,-235.5 857,-254.5 905,-254.5 905,-235.5 857,-235.5"/>
<text text-anchor="middle" x="881" y="-242.5" font-family="Helvetica,sans-Serif" font-size="10.00">TPad.h</text>
</g>
<!-- Node1&#45;&gt;Node29 -->
<g id="edge36" class="edge"><title>Node1&#45;&gt;Node29</title>
<path fill="none" stroke="midnightblue" d="M716.057,-291.444C751.774,-281.603 810.216,-265.502 847.093,-255.342"/>
<polygon fill="midnightblue" stroke="midnightblue" points="848.174,-258.674 856.885,-252.644 846.315,-251.926 848.174,-258.674"/>
</g>
<!-- Node3 -->
<g id="node3" class="node"><title>Node3</title>
<polygon fill="none" stroke="#bfbfbf" points="0,-174 0,-193 130,-193 130,-174 0,-174"/>
<text text-anchor="middle" x="65" y="-181" font-family="Helvetica,sans-Serif" font-size="10.00">InfoLogger/InfoLogger.hxx</text>
</g>
<!-- Node2&#45;&gt;Node3 -->
<g id="edge2" class="edge"><title>Node2&#45;&gt;Node3</title>
<path fill="none" stroke="midnightblue" d="M221.781,-235.475C189.982,-225.136 136.235,-207.661 100.683,-196.102"/>
<polygon fill="midnightblue" stroke="midnightblue" points="101.763,-192.773 91.1708,-193.009 99.5985,-199.43 101.763,-192.773"/>
</g>
<!-- Node5 -->
<g id="node5" class="node"><title>Node5</title>
<g id="a_node5"><a xlink:href="TaskInterface_8h.html" target="_top" xlink:title="QualityControl/TaskInterface.h">
<polygon fill="none" stroke="black" points="652,-174 652,-193 802,-193 802,-174 652,-174"/>
<text text-anchor="middle" x="727" y="-181" font-family="Helvetica,sans-Serif" font-size="10.00">QualityControl/TaskInterface.h</text>
</a>
</g>
</g>
<!-- Node4&#45;&gt;Node5 -->
<g id="edge4" class="edge"><title>Node4&#45;&gt;Node5</title>
<path fill="none" stroke="midnightblue" d="M534.237,-235.475C573.919,-224.982 641.399,-207.137 685.074,-195.587"/>
<polygon fill="midnightblue" stroke="midnightblue" points="686.05,-198.949 694.823,-193.009 684.26,-192.182 686.05,-198.949"/>
</g>
<!-- Node20 -->
<g id="node20" class="node"><title>Node20</title>
<polygon fill="none" stroke="#bfbfbf" points="820,-174 820,-193 870,-193 870,-174 820,-174"/>
<text text-anchor="middle" x="845" y="-181" font-family="Helvetica,sans-Serif" font-size="10.00">TH2F.h</text>
</g>
<!-- Node4&#45;&gt;Node20 -->
<g id="edge27" class="edge"><title>Node4&#45;&gt;Node20</title>
<path fill="none" stroke="midnightblue" d="M552.736,-236.37C555.871,-235.905 558.978,-235.445 562,-235 672.624,-218.706 703.334,-229.186 811,-199 813.294,-198.357 815.638,-197.595 817.968,-196.763"/>
<polygon fill="midnightblue" stroke="midnightblue" points="819.303,-199.999 827.316,-193.068 816.729,-193.489 819.303,-199.999"/>
</g>
<!-- Node21 -->
<g id="node21" class="node"><title>Node21</title>
<polygon fill="none" stroke="#bfbfbf" points="888.5,-174 888.5,-193 961.5,-193 961.5,-174 888.5,-174"/>
<text text-anchor="middle" x="925" y="-181" font-family="Helvetica,sans-Serif" font-size="10.00">TPaveText.h</text>
</g>
<!-- Node4&#45;&gt;Node21 -->
<g id="edge28" class="edge"><title>Node4&#45;&gt;Node21</title>
<path fill="none" stroke="midnightblue" d="M552.721,-236.261C555.859,-235.823 558.972,-235.399 562,-235 702.58,-216.48 740.298,-228.45 879,-199 882.942,-198.163 887.027,-197.128 891.063,-196"/>
<polygon fill="midnightblue" stroke="midnightblue" points="892.306,-199.281 900.882,-193.06 890.299,-192.575 892.306,-199.281"/>
</g>
<!-- Node22 -->
<g id="node22" class="node"><title>Node22</title>
<polygon fill="none" stroke="#bfbfbf" points="148,-174 148,-193 208,-193 208,-174 148,-174"/>
<text text-anchor="middle" x="178" y="-181" font-family="Helvetica,sans-Serif" font-size="10.00">TEllipse.h</text>
</g>
<!-- Node4&#45;&gt;Node22 -->
<g id="edge29" class="edge"><title>Node4&#45;&gt;Node22</title>
<path fill="none" stroke="midnightblue" d="M451.437,-239.097C393.97,-232.818 297.679,-220.141 217,-199 214.183,-198.262 211.286,-197.397 208.404,-196.463"/>
<polygon fill="midnightblue" stroke="midnightblue" points="209.398,-193.102 198.803,-193.107 207.088,-199.71 209.398,-193.102"/>
</g>
<!-- Node23 -->
<g id="node23" class="node"><title>Node23</title>
<polygon fill="none" stroke="#bfbfbf" points="226.5,-168.5 226.5,-198.5 345.5,-198.5 345.5,-168.5 226.5,-168.5"/>
<text text-anchor="start" x="234.5" y="-186.5" font-family="Helvetica,sans-Serif" font-size="10.00">ITSMFTReconstruction</text>
<text text-anchor="middle" x="286" y="-175.5" font-family="Helvetica,sans-Serif" font-size="10.00">/RawPixelReader.h</text>
</g>
<!-- Node4&#45;&gt;Node23 -->
<g id="edge30" class="edge"><title>Node4&#45;&gt;Node23</title>
<path fill="none" stroke="midnightblue" d="M471.052,-235.475C438.722,-226.569 387.171,-212.369 346.68,-201.215"/>
<polygon fill="midnightblue" stroke="midnightblue" points="347.477,-197.804 336.907,-198.523 345.618,-204.553 347.477,-197.804"/>
</g>
<!-- Node24 -->
<g id="node24" class="node"><title>Node24</title>
<polygon fill="none" stroke="#bfbfbf" points="363.5,-174 363.5,-193 496.5,-193 496.5,-174 363.5,-174"/>
<text text-anchor="middle" x="430" y="-181" font-family="Helvetica,sans-Serif" font-size="10.00">ITSBase/GeometryTGeo.h</text>
</g>
<!-- Node4&#45;&gt;Node24 -->
<g id="edge31" class="edge"><title>Node4&#45;&gt;Node24</title>
<path fill="none" stroke="midnightblue" d="M491.684,-235.475C480.349,-226.108 461.927,-210.884 448.161,-199.508"/>
<polygon fill="midnightblue" stroke="midnightblue" points="450.235,-196.681 440.297,-193.009 445.776,-202.077 450.235,-196.681"/>
</g>
<!-- Node25 -->
<g id="node25" class="node"><title>Node25</title>
<polygon fill="none" stroke="#bfbfbf" points="514.5,-168.5 514.5,-198.5 633.5,-198.5 633.5,-168.5 514.5,-168.5"/>
<text text-anchor="start" x="522.5" y="-186.5" font-family="Helvetica,sans-Serif" font-size="10.00">ITSMFTReconstruction</text>
<text text-anchor="middle" x="574" y="-175.5" font-family="Helvetica,sans-Serif" font-size="10.00">/DigitPixelReader.h</text>
</g>
<!-- Node4&#45;&gt;Node25 -->
<g id="edge32" class="edge"><title>Node4&#45;&gt;Node25</title>
<path fill="none" stroke="midnightblue" d="M512.316,-235.475C521.885,-227.567 536.506,-215.485 549.112,-205.067"/>
<polygon fill="midnightblue" stroke="midnightblue" points="551.552,-207.591 557.031,-198.523 547.093,-202.195 551.552,-207.591"/>
</g>
<!-- Node6 -->
<g id="node6" class="node"><title>Node6</title>
<polygon fill="none" stroke="#bfbfbf" points="859.5,-0.5 859.5,-19.5 894.5,-19.5 894.5,-0.5 859.5,-0.5"/>
<text text-anchor="middle" x="877" y="-7.5" font-family="Helvetica,sans-Serif" font-size="10.00">map</text>
</g>
<!-- Node5&#45;&gt;Node6 -->
<g id="edge5" class="edge"><title>Node5&#45;&gt;Node6</title>
<path fill="none" stroke="midnightblue" d="M690.539,-173.945C668.576,-166.709 642.351,-153.899 629,-132 611.417,-103.159 607.352,-81.9291 629,-56 656.853,-22.6382 790.793,-13.9562 849.42,-11.7405"/>
<polygon fill="midnightblue" stroke="midnightblue" points="849.573,-15.2374 859.448,-11.3975 849.334,-8.24147 849.573,-15.2374"/>
</g>
<!-- Node7 -->
<g id="node7" class="node"><title>Node7</title>
<polygon fill="none" stroke="#bfbfbf" points="722,-56.5 722,-75.5 774,-75.5 774,-56.5 722,-56.5"/>
<text text-anchor="middle" x="748" y="-63.5" font-family="Helvetica,sans-Serif" font-size="10.00">memory</text>
</g>
<!-- Node5&#45;&gt;Node7 -->
<g id="edge6" class="edge"><title>Node5&#45;&gt;Node7</title>
<path fill="none" stroke="midnightblue" d="M719.401,-173.707C708.751,-160.256 691.676,-133.835 701,-112 706.147,-99.9469 716.281,-89.5764 725.826,-81.8389"/>
<polygon fill="midnightblue" stroke="midnightblue" points="728.04,-84.5532 733.922,-75.7409 723.828,-78.9619 728.04,-84.5532"/>
</g>
<!-- Node8 -->
<g id="node8" class="node"><title>Node8</title>
<polygon fill="none" stroke="#bfbfbf" points="989.5,-0.5 989.5,-19.5 1030.5,-19.5 1030.5,-0.5 989.5,-0.5"/>
<text text-anchor="middle" x="1010" y="-7.5" font-family="Helvetica,sans-Serif" font-size="10.00">string</text>
</g>
<!-- Node5&#45;&gt;Node8 -->
<g id="edge7" class="edge"><title>Node5&#45;&gt;Node8</title>
<path fill="none" stroke="midnightblue" d="M719.41,-173.955C711.542,-164.475 699.743,-148.348 695,-132 685.327,-98.6628 686.565,-78.4969 713,-56 733.116,-38.8809 907.41,-20.6736 979.248,-13.8226"/>
<polygon fill="midnightblue" stroke="midnightblue" points="979.84,-17.2824 989.467,-12.859 979.182,-10.3133 979.84,-17.2824"/>
</g>
<!-- Node9 -->
<g id="node9" class="node"><title>Node9</title>
<polygon fill="none" stroke="#bfbfbf" points="603.5,-0.5 603.5,-19.5 686.5,-19.5 686.5,-0.5 603.5,-0.5"/>
<text text-anchor="middle" x="645" y="-7.5" font-family="Helvetica,sans-Serif" font-size="10.00">unordered_map</text>
</g>
<!-- Node5&#45;&gt;Node9 -->
<g id="edge8" class="edge"><title>Node5&#45;&gt;Node9</title>
<path fill="none" stroke="midnightblue" d="M690.502,-173.935C654.332,-164.62 602.683,-148.801 591,-132 571.716,-104.268 576.673,-86.5888 591,-56 597.045,-43.0941 608.812,-32.5985 619.823,-24.9999"/>
<polygon fill="midnightblue" stroke="midnightblue" points="621.828,-27.8723 628.367,-19.5364 618.057,-21.9748 621.828,-27.8723"/>
</g>
<!-- Node10 -->
<g id="node10" class="node"><title>Node10</title>
<polygon fill="none" stroke="#bfbfbf" points="709.5,-112.5 709.5,-131.5 834.5,-131.5 834.5,-112.5 709.5,-112.5"/>
<text text-anchor="middle" x="772" y="-119.5" font-family="Helvetica,sans-Serif" font-size="10.00">Framework/InitContext.h</text>
</g>
<!-- Node5&#45;&gt;Node10 -->
<g id="edge9" class="edge"><title>Node5&#45;&gt;Node10</title>
<path fill="none" stroke="midnightblue" d="M733.447,-173.975C740.197,-165.05 750.969,-150.807 759.413,-139.643"/>
<polygon fill="midnightblue" stroke="midnightblue" points="762.324,-141.596 765.565,-131.509 756.741,-137.374 762.324,-141.596"/>
</g>
<!-- Node11 -->
<g id="node11" class="node"><title>Node11</title>
<polygon fill="none" stroke="#bfbfbf" points="853,-112.5 853,-131.5 1013,-131.5 1013,-112.5 853,-112.5"/>
<text text-anchor="middle" x="933" y="-119.5" font-family="Helvetica,sans-Serif" font-size="10.00">Framework/ProcessingContext.h</text>
</g>
<!-- Node5&#45;&gt;Node11 -->
<g id="edge10" class="edge"><title>Node5&#45;&gt;Node11</title>
<path fill="none" stroke="midnightblue" d="M756.515,-173.975C792.616,-163.548 853.848,-145.862 893.854,-134.307"/>
<polygon fill="midnightblue" stroke="midnightblue" points="894.904,-137.647 903.54,-131.509 892.961,-130.922 894.904,-137.647"/>
</g>
<!-- Node12 -->
<g id="node12" class="node"><title>Node12</title>
<g id="a_node12"><a xlink:href="Activity_8h.html" target="_top" xlink:title="QualityControl/Activity.h">
<polygon fill="none" stroke="black" points="1031.5,-112.5 1031.5,-131.5 1154.5,-131.5 1154.5,-112.5 1031.5,-112.5"/>
<text text-anchor="middle" x="1093" y="-119.5" font-family="Helvetica,sans-Serif" font-size="10.00">QualityControl/Activity.h</text>
</a>
</g>
</g>
<!-- Node5&#45;&gt;Node12 -->
<g id="edge11" class="edge"><title>Node5&#45;&gt;Node12</title>
<path fill="none" stroke="midnightblue" d="M775.842,-173.961C787.367,-171.976 799.613,-169.891 811,-168 885.512,-155.624 971.214,-142.041 1028.4,-133.07"/>
<polygon fill="midnightblue" stroke="midnightblue" points="1029.04,-136.512 1038.38,-131.506 1027.96,-129.597 1029.04,-136.512"/>
</g>
<!-- Node13 -->
<g id="node13" class="node"><title>Node13</title>
<g id="a_node13"><a xlink:href="ObjectsManager_8h.html" target="_top" xlink:title="QualityControl/ObjectsManager.h">
<polygon fill="none" stroke="black" points="1172.5,-112.5 1172.5,-131.5 1333.5,-131.5 1333.5,-112.5 1172.5,-112.5"/>
<text text-anchor="middle" x="1253" y="-119.5" font-family="Helvetica,sans-Serif" font-size="10.00">QualityControl/ObjectsManager.h</text>
</a>
</g>
</g>
<!-- Node5&#45;&gt;Node13 -->
<g id="edge12" class="edge"><title>Node5&#45;&gt;Node13</title>
<path fill="none" stroke="midnightblue" d="M773.124,-173.945C785.406,-171.829 798.684,-169.688 811,-168 815.319,-167.408 1034.13,-145.194 1162.22,-132.203"/>
<polygon fill="midnightblue" stroke="midnightblue" points="1162.82,-135.66 1172.42,-131.169 1162.12,-128.696 1162.82,-135.66"/>
</g>
<!-- Node13&#45;&gt;Node7 -->
<g id="edge26" class="edge"><title>Node13&#45;&gt;Node7</title>
<path fill="none" stroke="midnightblue" d="M1173.26,-112.473C1062.21,-100.598 865.495,-79.5638 784.452,-70.8979"/>
<polygon fill="midnightblue" stroke="midnightblue" points="784.57,-67.3905 774.254,-69.8074 783.825,-74.3509 784.57,-67.3905"/>
</g>
<!-- Node13&#45;&gt;Node8 -->
<g id="edge25" class="edge"><title>Node13&#45;&gt;Node8</title>
<path fill="none" stroke="midnightblue" d="M1195.31,-112.478C1133.4,-102.844 1042.22,-87.0663 1030,-76 1017.03,-64.2556 1012.37,-44.3216 1010.75,-29.6182"/>
<polygon fill="midnightblue" stroke="midnightblue" points="1014.24,-29.3328 1010.02,-19.6162 1007.26,-29.8458 1014.24,-29.3328"/>
</g>
<!-- Node14 -->
<g id="node14" class="node"><title>Node14</title>
<g id="a_node14"><a xlink:href="MonitorObject_8h.html" target="_top" xlink:title="QualityControl/MonitorObject.h">
<polygon fill="none" stroke="black" points="1177.5,-56.5 1177.5,-75.5 1328.5,-75.5 1328.5,-56.5 1177.5,-56.5"/>
<text text-anchor="middle" x="1253" y="-63.5" font-family="Helvetica,sans-Serif" font-size="10.00">QualityControl/MonitorObject.h</text>
</a>
</g>
</g>
<!-- Node13&#45;&gt;Node14 -->
<g id="edge13" class="edge"><title>Node13&#45;&gt;Node14</title>
<path fill="none" stroke="midnightblue" d="M1253,-112.083C1253,-105.006 1253,-94.8611 1253,-85.9865"/>
<polygon fill="midnightblue" stroke="midnightblue" points="1256.5,-85.751 1253,-75.7511 1249.5,-85.7511 1256.5,-85.751"/>
</g>
<!-- Node18 -->
<g id="node18" class="node"><title>Node18</title>
<g id="a_node18"><a xlink:href="Quality_8h.html" target="_top" xlink:title="QualityControl/Quality.h">
<polygon fill="none" stroke="black" points="1038.5,-56.5 1038.5,-75.5 1159.5,-75.5 1159.5,-56.5 1038.5,-56.5"/>
<text text-anchor="middle" x="1099" y="-63.5" font-family="Helvetica,sans-Serif" font-size="10.00">QualityControl/Quality.h</text>
</a>
</g>
</g>
<!-- Node13&#45;&gt;Node18 -->
<g id="edge19" class="edge"><title>Node13&#45;&gt;Node18</title>
<path fill="none" stroke="midnightblue" d="M1228.6,-112.444C1202.8,-103.399 1161.92,-89.064 1132.98,-78.9158"/>
<polygon fill="midnightblue" stroke="midnightblue" points="1133.88,-75.5226 1123.29,-75.5164 1131.57,-82.1283 1133.88,-75.5226"/>
</g>
<!-- Node19 -->
<g id="node19" class="node"><title>Node19</title>
<g id="a_node19"><a xlink:href="TaskConfig_8h.html" target="_top" xlink:title="QualityControl/TaskConfig.h">
<polygon fill="none" stroke="black" points="842,-56.5 842,-75.5 982,-75.5 982,-56.5 842,-56.5"/>
<text text-anchor="middle" x="912" y="-63.5" font-family="Helvetica,sans-Serif" font-size="10.00">QualityControl/TaskConfig.h</text>
</a>
</g>
</g>
<!-- Node13&#45;&gt;Node19 -->
<g id="edge22" class="edge"><title>Node13&#45;&gt;Node19</title>
<path fill="none" stroke="midnightblue" d="M1198.97,-112.444C1138.36,-102.846 1040.14,-87.2916 975.803,-77.1037"/>
<polygon fill="midnightblue" stroke="midnightblue" points="976.204,-73.6237 965.78,-75.5164 975.109,-80.5375 976.204,-73.6237"/>
</g>
<!-- Node14&#45;&gt;Node6 -->
<g id="edge15" class="edge"><title>Node14&#45;&gt;Node6</title>
<path fill="none" stroke="midnightblue" d="M1193.42,-56.4435C1110.99,-44.6044 965.448,-23.7026 904.773,-14.9887"/>
<polygon fill="midnightblue" stroke="midnightblue" points="905.19,-11.5127 894.794,-13.5555 904.195,-18.4416 905.19,-11.5127"/>
</g>
<!-- Node14&#45;&gt;Node8 -->
<g id="edge14" class="edge"><title>Node14&#45;&gt;Node8</title>
<path fill="none" stroke="midnightblue" d="M1214.5,-56.4435C1166.3,-45.7335 1084.73,-27.6072 1040.58,-17.7961"/>
<polygon fill="midnightblue" stroke="midnightblue" points="1041.24,-14.3576 1030.72,-15.6049 1039.72,-21.191 1041.24,-14.3576"/>
</g>
<!-- Node15 -->
<g id="node15" class="node"><title>Node15</title>
<polygon fill="none" stroke="#bfbfbf" points="1090,-0.5 1090,-19.5 1146,-19.5 1146,-0.5 1090,-0.5"/>
<text text-anchor="middle" x="1118" y="-7.5" font-family="Helvetica,sans-Serif" font-size="10.00">Rtypes.h</text>
</g>
<!-- Node14&#45;&gt;Node15 -->
<g id="edge16" class="edge"><title>Node14&#45;&gt;Node15</title>
<path fill="none" stroke="midnightblue" d="M1231.61,-56.4435C1209.29,-47.5171 1174.1,-33.4387 1148.79,-23.3168"/>
<polygon fill="midnightblue" stroke="midnightblue" points="1149.88,-19.9807 1139.29,-19.5164 1147.28,-26.4801 1149.88,-19.9807"/>
</g>
<!-- Node16 -->
<g id="node16" class="node"><title>Node16</title>
<polygon fill="none" stroke="#bfbfbf" points="1203.5,-0.5 1203.5,-19.5 1262.5,-19.5 1262.5,-0.5 1203.5,-0.5"/>
<text text-anchor="middle" x="1233" y="-7.5" font-family="Helvetica,sans-Serif" font-size="10.00">TObject.h</text>
</g>
<!-- Node14&#45;&gt;Node16 -->
<g id="edge17" class="edge"><title>Node14&#45;&gt;Node16</title>
<path fill="none" stroke="midnightblue" d="M1249.7,-56.083C1247.02,-48.8486 1243.15,-38.4087 1239.81,-29.3968"/>
<polygon fill="midnightblue" stroke="midnightblue" points="1243,-27.9129 1236.24,-19.7511 1236.43,-30.3442 1243,-27.9129"/>
</g>
<!-- Node17 -->
<g id="node17" class="node"><title>Node17</title>
<polygon fill="none" stroke="#bfbfbf" points="1281,-0.5 1281,-19.5 1397,-19.5 1397,-0.5 1281,-0.5"/>
<text text-anchor="middle" x="1339" y="-7.5" font-family="Helvetica,sans-Serif" font-size="10.00">Common/Exceptions.h</text>
</g>
<!-- Node14&#45;&gt;Node17 -->
<g id="edge18" class="edge"><title>Node14&#45;&gt;Node17</title>
<path fill="none" stroke="midnightblue" d="M1266.82,-56.324C1280.23,-47.9002 1300.82,-34.9709 1316.59,-25.0741"/>
<polygon fill="midnightblue" stroke="midnightblue" points="1318.61,-27.9364 1325.22,-19.6545 1314.89,-22.0081 1318.61,-27.9364"/>
</g>
<!-- Node18&#45;&gt;Node8 -->
<g id="edge21" class="edge"><title>Node18&#45;&gt;Node8</title>
<path fill="none" stroke="midnightblue" d="M1084.7,-56.324C1070.82,-47.9002 1049.51,-34.9709 1033.2,-25.0741"/>
<polygon fill="midnightblue" stroke="midnightblue" points="1034.63,-21.8495 1024.26,-19.6545 1031,-27.8341 1034.63,-21.8495"/>
</g>
<!-- Node18&#45;&gt;Node15 -->
<g id="edge20" class="edge"><title>Node18&#45;&gt;Node15</title>
<path fill="none" stroke="midnightblue" d="M1102.14,-56.083C1104.68,-48.8486 1108.36,-38.4087 1111.53,-29.3968"/>
<polygon fill="midnightblue" stroke="midnightblue" points="1114.9,-30.3459 1114.92,-19.7511 1108.3,-28.0225 1114.9,-30.3459"/>
</g>
<!-- Node19&#45;&gt;Node8 -->
<g id="edge23" class="edge"><title>Node19&#45;&gt;Node8</title>
<path fill="none" stroke="midnightblue" d="M927.745,-56.324C943.319,-47.7428 967.377,-34.486 985.459,-24.5224"/>
<polygon fill="midnightblue" stroke="midnightblue" points="987.224,-27.546 994.294,-19.6545 983.846,-21.4152 987.224,-27.546"/>
</g>
<!-- Node19&#45;&gt;Node9 -->
<g id="edge24" class="edge"><title>Node19&#45;&gt;Node9</title>
<path fill="none" stroke="midnightblue" d="M869.693,-56.4435C822.783,-46.9561 747.096,-31.6487 696.706,-21.4574"/>
<polygon fill="midnightblue" stroke="midnightblue" points="697.165,-17.9794 686.669,-19.4275 695.777,-24.8405 697.165,-17.9794"/>
</g>
</g>
</svg>
        <g id="navigator" transform="translate(0 0)" fill="#404254">
                <rect fill="#f2f5e9" fill-opacity="0.5" stroke="#606060" stroke-width=".5" x="0" y="0" width="60" height="60"/>
                <use id="zoomplus" xlink:href="#zoomPlus" x="17" y="9" onmousedown="handleZoom(evt,'in')"/>
                <use id="zoomminus" xlink:href="#zoomMin" x="42" y="9" onmousedown="handleZoom(evt,'out')"/>
                <use id="reset" xlink:href="#resetDef" x="30" y="36" onmousedown="handleReset()"/>
                <g id="arrowUp" xlink:href="#dirArrow" transform="translate(30 24)" onmousedown="handlePan(0,-1)">
                  <use xlink:href="#rim" fill="#404040">
                        <set attributeName="fill" to="#808080" begin="arrowUp.mouseover" end="arrowUp.mouseout"/>
                  </use>
                  <path fill="none" stroke="white" stroke-width="1.5" d="M0,-3.0v7 M-2.5,-0.5L0,-3.0L2.5,-0.5"/>
                </g>
                <g id="arrowRight" xlink:href="#dirArrow" transform="rotate(90) translate(36 -43)" onmousedown="handlePan(1,0)">
                  <use xlink:href="#rim" fill="#404040">
                        <set attributeName="fill" to="#808080" begin="arrowRight.mouseover" end="arrowRight.mouseout"/>
                  </use>
                  <path fill="none" stroke="white" stroke-width="1.5" d="M0,-3.0v7 M-2.5,-0.5L0,-3.0L2.5,-0.5"/>
                </g>
                <g id="arrowDown" xlink:href="#dirArrow" transform="rotate(180) translate(-30 -48)" onmousedown="handlePan(0,1)">
                  <use xlink:href="#rim" fill="#404040">
                        <set attributeName="fill" to="#808080" begin="arrowDown.mouseover" end="arrowDown.mouseout"/>
                  </use>
                  <path fill="none" stroke="white" stroke-width="1.5" d="M0,-3.0v7 M-2.5,-0.5L0,-3.0L2.5,-0.5"/>
                </g>
                <g id="arrowLeft" xlink:href="#dirArrow" transform="rotate(270) translate(-36 17)" onmousedown="handlePan(-1,0)">
                  <use xlink:href="#rim" fill="#404040">
                        <set attributeName="fill" to="#808080" begin="arrowLeft.mouseover" end="arrowLeft.mouseout"/>
                  </use>
                  <path fill="none" stroke="white" stroke-width="1.5" d="M0,-3.0v7 M-2.5,-0.5L0,-3.0L2.5,-0.5"/>
                </g>
        </g>
        <svg viewBox="0 0 15 15" width="100%" height="30px" preserveAspectRatio="xMaxYMin meet">
         <g id="arrow_out" transform="scale(0.3 0.3)">
          <a xlink:href="ITSRawTask_8cxx__incl_org.svg" target="_base">
           <rect id="button" ry="5" rx="5" y="6" x="6" height="38" width="38"
                fill="#f2f5e9" fill-opacity="0.5" stroke="#606060" stroke-width="1.0"/>
           <path id="arrow"
             d="M 11.500037,31.436501 C 11.940474,20.09759 22.043105,11.32322 32.158766,21.979434 L 37.068811,17.246167 C 37.068811,17.246167 37.088388,32 37.088388,32 L 22.160133,31.978069 C 22.160133,31.978069 26.997745,27.140456 26.997745,27.140456 C 18.528582,18.264221 13.291696,25.230495 11.500037,31.436501 z"
             style="fill:#404040;"/>
          </a>
         </g>
        </svg>
</svg>
