<?xml version="1.0" encoding="UTF-8" standalone="no"?>
<!DOCTYPE svg PUBLIC "-//W3C//DTD SVG 1.1//EN"
 "http://www.w3.org/Graphics/SVG/1.1/DTD/svg11.dtd">
<!-- Generated by graphviz version 2.38.0 (20140413.2041)
 -->
<!-- Title: Modules/MUON/MCH/src/Mapping.cxx Pages: 1 -->
<svg width="1034pt" height="330pt"
 viewBox="0.00 0.00 1034.00 330.00" xmlns="http://www.w3.org/2000/svg" xmlns:xlink="http://www.w3.org/1999/xlink">
<g id="graph0" class="graph" transform="scale(1 1) rotate(0) translate(4 326)">
<title>Modules/MUON/MCH/src/Mapping.cxx</title>
<!-- Node1 -->
<g id="node1" class="node"><title>Node1</title>
<polygon fill="#bfbfbf" stroke="black" points="131,-291.5 131,-321.5 261,-321.5 261,-291.5 131,-291.5"/>
<text text-anchor="start" x="139" y="-309.5" font-family="Helvetica,sans-Serif" font-size="10.00">Modules/MUON/MCH/src</text>
<text text-anchor="middle" x="196" y="-298.5" font-family="Helvetica,sans-Serif" font-size="10.00">/Mapping.cxx</text>
</g>
<!-- Node2 -->
<g id="node2" class="node"><title>Node2</title>
<g id="a_node2"><a xlink:href="QcInfoLogger_8h.html" target="_top" xlink:title="QualityControl/QcInfoLogger.h">
<polygon fill="none" stroke="black" points="9.5,-235.5 9.5,-254.5 158.5,-254.5 158.5,-235.5 9.5,-235.5"/>
<text text-anchor="middle" x="84" y="-242.5" font-family="Helvetica,sans-Serif" font-size="10.00">QualityControl/QcInfoLogger.h</text>
</a>
</g>
</g>
<!-- Node1&#45;&gt;Node2 -->
<g id="edge1" class="edge"><title>Node1&#45;&gt;Node2</title>
<path fill="none" stroke="midnightblue" d="M169.458,-291.399C151.337,-281.773 127.464,-269.09 109.557,-259.577"/>
<polygon fill="midnightblue" stroke="midnightblue" points="110.77,-256.258 100.297,-254.658 107.486,-262.44 110.77,-256.258"/>
</g>
<!-- Node4 -->
<g id="node4" class="node"><title>Node4</title>
<g id="a_node4"><a xlink:href="Mapping_8h_source.html" target="_top" xlink:title="MCH/Mapping.h">
<polygon fill="none" stroke="black" points="224,-235.5 224,-254.5 312,-254.5 312,-235.5 224,-235.5"/>
<text text-anchor="middle" x="268" y="-242.5" font-family="Helvetica,sans-Serif" font-size="10.00">MCH/Mapping.h</text>
</a>
</g>
</g>
<!-- Node1&#45;&gt;Node4 -->
<g id="edge3" class="edge"><title>Node1&#45;&gt;Node4</title>
<path fill="none" stroke="midnightblue" d="M213.063,-291.399C224.065,-282.308 238.365,-270.49 249.618,-261.191"/>
<polygon fill="midnightblue" stroke="midnightblue" points="252.044,-263.726 257.523,-254.658 247.585,-258.33 252.044,-263.726"/>
</g>
<!-- Node5 -->
<g id="node5" class="node"><title>Node5</title>
<polygon fill="none" stroke="#bfbfbf" points="148.5,-168.5 148.5,-198.5 263.5,-198.5 263.5,-168.5 148.5,-168.5"/>
<text text-anchor="start" x="156.5" y="-186.5" font-family="Helvetica,sans-Serif" font-size="10.00">MCHMappingInterface</text>
<text text-anchor="middle" x="206" y="-175.5" font-family="Helvetica,sans-Serif" font-size="10.00">/Segmentation.h</text>
</g>
<!-- Node1&#45;&gt;Node5 -->
<g id="edge28" class="edge"><title>Node1&#45;&gt;Node5</title>
<path fill="none" stroke="midnightblue" d="M197.186,-291.145C198.863,-270.859 201.948,-233.533 203.987,-208.862"/>
<polygon fill="midnightblue" stroke="midnightblue" points="207.48,-209.091 204.815,-198.837 200.503,-208.514 207.48,-209.091"/>
</g>
<!-- Node3 -->
<g id="node3" class="node"><title>Node3</title>
<polygon fill="none" stroke="#bfbfbf" points="0,-174 0,-193 130,-193 130,-174 0,-174"/>
<text text-anchor="middle" x="65" y="-181" font-family="Helvetica,sans-Serif" font-size="10.00">InfoLogger/InfoLogger.hxx</text>
</g>
<!-- Node2&#45;&gt;Node3 -->
<g id="edge2" class="edge"><title>Node2&#45;&gt;Node3</title>
<path fill="none" stroke="midnightblue" d="M81.2778,-235.475C78.5688,-226.992 74.3257,-213.704 70.8508,-202.822"/>
<polygon fill="midnightblue" stroke="midnightblue" points="74.0933,-201.47 67.7172,-193.009 67.4251,-203.6 74.0933,-201.47"/>
</g>
<!-- Node4&#45;&gt;Node5 -->
<g id="edge4" class="edge"><title>Node4&#45;&gt;Node5</title>
<path fill="none" stroke="midnightblue" d="M259.117,-235.475C251.034,-227.718 238.765,-215.943 228.054,-205.665"/>
<polygon fill="midnightblue" stroke="midnightblue" points="230.251,-202.922 220.612,-198.523 225.404,-207.972 230.251,-202.922"/>
</g>
<!-- Node6 -->
<g id="node6" class="node"><title>Node6</title>
<g id="a_node6"><a xlink:href="TaskInterface_8h.html" target="_top" xlink:title="QualityControl/TaskInterface.h">
<polygon fill="none" stroke="black" points="281,-174 281,-193 431,-193 431,-174 281,-174"/>
<text text-anchor="middle" x="356" y="-181" font-family="Helvetica,sans-Serif" font-size="10.00">QualityControl/TaskInterface.h</text>
</a>
</g>
</g>
<!-- Node4&#45;&gt;Node6 -->
<g id="edge5" class="edge"><title>Node4&#45;&gt;Node6</title>
<path fill="none" stroke="midnightblue" d="M280.608,-235.475C294.723,-225.931 317.831,-210.307 334.749,-198.868"/>
<polygon fill="midnightblue" stroke="midnightblue" points="337.091,-201.51 343.415,-193.009 333.171,-195.711 337.091,-201.51"/>
</g>
<!-- Node7 -->
<g id="node7" class="node"><title>Node7</title>
<polygon fill="none" stroke="#bfbfbf" points="488.5,-0.5 488.5,-19.5 523.5,-19.5 523.5,-0.5 488.5,-0.5"/>
<text text-anchor="middle" x="506" y="-7.5" font-family="Helvetica,sans-Serif" font-size="10.00">map</text>
</g>
<!-- Node6&#45;&gt;Node7 -->
<g id="edge6" class="edge"><title>Node6&#45;&gt;Node7</title>
<path fill="none" stroke="midnightblue" d="M319.539,-173.945C297.576,-166.709 271.351,-153.899 258,-132 240.417,-103.159 236.352,-81.9291 258,-56 285.853,-22.6382 419.793,-13.9562 478.42,-11.7405"/>
<polygon fill="midnightblue" stroke="midnightblue" points="478.573,-15.2374 488.448,-11.3975 478.334,-8.24147 478.573,-15.2374"/>
</g>
<!-- Node8 -->
<g id="node8" class="node"><title>Node8</title>
<polygon fill="none" stroke="#bfbfbf" points="351,-56.5 351,-75.5 403,-75.5 403,-56.5 351,-56.5"/>
<text text-anchor="middle" x="377" y="-63.5" font-family="Helvetica,sans-Serif" font-size="10.00">memory</text>
</g>
<!-- Node6&#45;&gt;Node8 -->
<g id="edge7" class="edge"><title>Node6&#45;&gt;Node8</title>
<path fill="none" stroke="midnightblue" d="M348.159,-173.72C337.165,-160.287 319.517,-133.888 329,-112 334.268,-99.8399 344.62,-89.4594 354.365,-81.7429"/>
<polygon fill="midnightblue" stroke="midnightblue" points="356.644,-84.4116 362.63,-75.6698 352.499,-78.7707 356.644,-84.4116"/>
</g>
<!-- Node9 -->
<g id="node9" class="node"><title>Node9</title>
<polygon fill="none" stroke="#bfbfbf" points="618.5,-0.5 618.5,-19.5 659.5,-19.5 659.5,-0.5 618.5,-0.5"/>
<text text-anchor="middle" x="639" y="-7.5" font-family="Helvetica,sans-Serif" font-size="10.00">string</text>
</g>
<!-- Node6&#45;&gt;Node9 -->
<g id="edge8" class="edge"><title>Node6&#45;&gt;Node9</title>
<path fill="none" stroke="midnightblue" d="M348.177,-174C340.066,-164.557 327.902,-148.462 323,-132 313.064,-98.6306 315.304,-78.3509 342,-56 362.253,-39.0433 536.467,-20.7414 608.266,-13.8438"/>
<polygon fill="midnightblue" stroke="midnightblue" points="608.855,-17.3037 618.479,-12.8734 608.193,-10.3351 608.855,-17.3037"/>
</g>
<!-- Node10 -->
<g id="node10" class="node"><title>Node10</title>
<polygon fill="none" stroke="#bfbfbf" points="232.5,-0.5 232.5,-19.5 315.5,-19.5 315.5,-0.5 232.5,-0.5"/>
<text text-anchor="middle" x="274" y="-7.5" font-family="Helvetica,sans-Serif" font-size="10.00">unordered_map</text>
</g>
<!-- Node6&#45;&gt;Node10 -->
<g id="edge9" class="edge"><title>Node6&#45;&gt;Node10</title>
<path fill="none" stroke="midnightblue" d="M319.502,-173.935C283.332,-164.62 231.683,-148.801 220,-132 200.716,-104.268 205.673,-86.5888 220,-56 226.045,-43.0941 237.812,-32.5985 248.823,-24.9999"/>
<polygon fill="midnightblue" stroke="midnightblue" points="250.828,-27.8723 257.367,-19.5364 247.057,-21.9748 250.828,-27.8723"/>
</g>
<!-- Node11 -->
<g id="node11" class="node"><title>Node11</title>
<polygon fill="none" stroke="#bfbfbf" points="338.5,-112.5 338.5,-131.5 463.5,-131.5 463.5,-112.5 338.5,-112.5"/>
<text text-anchor="middle" x="401" y="-119.5" font-family="Helvetica,sans-Serif" font-size="10.00">Framework/InitContext.h</text>
</g>
<!-- Node6&#45;&gt;Node11 -->
<g id="edge10" class="edge"><title>Node6&#45;&gt;Node11</title>
<path fill="none" stroke="midnightblue" d="M362.447,-173.975C369.197,-165.05 379.969,-150.807 388.413,-139.643"/>
<polygon fill="midnightblue" stroke="midnightblue" points="391.324,-141.596 394.565,-131.509 385.741,-137.374 391.324,-141.596"/>
</g>
<!-- Node12 -->
<g id="node12" class="node"><title>Node12</title>
<polygon fill="none" stroke="#bfbfbf" points="482,-112.5 482,-131.5 642,-131.5 642,-112.5 482,-112.5"/>
<text text-anchor="middle" x="562" y="-119.5" font-family="Helvetica,sans-Serif" font-size="10.00">Framework/ProcessingContext.h</text>
</g>
<!-- Node6&#45;&gt;Node12 -->
<g id="edge11" class="edge"><title>Node6&#45;&gt;Node12</title>
<path fill="none" stroke="midnightblue" d="M385.515,-173.975C421.616,-163.548 482.848,-145.862 522.854,-134.307"/>
<polygon fill="midnightblue" stroke="midnightblue" points="523.904,-137.647 532.54,-131.509 521.961,-130.922 523.904,-137.647"/>
</g>
<!-- Node13 -->
<g id="node13" class="node"><title>Node13</title>
<g id="a_node13"><a xlink:href="Activity_8h.html" target="_top" xlink:title="QualityControl/Activity.h">
<polygon fill="none" stroke="black" points="660.5,-112.5 660.5,-131.5 783.5,-131.5 783.5,-112.5 660.5,-112.5"/>
<text text-anchor="middle" x="722" y="-119.5" font-family="Helvetica,sans-Serif" font-size="10.00">QualityControl/Activity.h</text>
</a>
</g>
</g>
<!-- Node6&#45;&gt;Node13 -->
<g id="edge12" class="edge"><title>Node6&#45;&gt;Node13</title>
<path fill="none" stroke="midnightblue" d="M408.439,-173.975C474.754,-163.194 588.798,-144.654 659.545,-133.153"/>
<polygon fill="midnightblue" stroke="midnightblue" points="660.35,-136.568 669.658,-131.509 659.226,-129.659 660.35,-136.568"/>
</g>
<!-- Node14 -->
<g id="node14" class="node"><title>Node14</title>
<g id="a_node14"><a xlink:href="ObjectsManager_8h.html" target="_top" xlink:title="QualityControl/ObjectsManager.h">
<polygon fill="none" stroke="black" points="801.5,-112.5 801.5,-131.5 962.5,-131.5 962.5,-112.5 801.5,-112.5"/>
<text text-anchor="middle" x="882" y="-119.5" font-family="Helvetica,sans-Serif" font-size="10.00">QualityControl/ObjectsManager.h</text>
</a>
</g>
</g>
<!-- Node6&#45;&gt;Node14 -->
<g id="edge13" class="edge"><title>Node6&#45;&gt;Node14</title>
<path fill="none" stroke="midnightblue" d="M431.083,-174.007C527.682,-163.08 695.078,-144.144 796.481,-132.674"/>
<polygon fill="midnightblue" stroke="midnightblue" points="797.146,-136.121 806.689,-131.519 796.359,-129.165 797.146,-136.121"/>
</g>
<!-- Node14&#45;&gt;Node8 -->
<g id="edge27" class="edge"><title>Node14&#45;&gt;Node8</title>
<path fill="none" stroke="midnightblue" d="M802.26,-112.473C691.206,-100.598 494.495,-79.5638 413.452,-70.8979"/>
<polygon fill="midnightblue" stroke="midnightblue" points="413.57,-67.3905 403.254,-69.8074 412.825,-74.3509 413.57,-67.3905"/>
</g>
<!-- Node14&#45;&gt;Node9 -->
<g id="edge26" class="edge"><title>Node14&#45;&gt;Node9</title>
<path fill="none" stroke="midnightblue" d="M823.749,-112.481C761.535,-102.887 670.185,-87.1783 658,-76 645.159,-64.2199 640.818,-44.2915 639.439,-29.5992"/>
<polygon fill="midnightblue" stroke="midnightblue" points="642.933,-29.391 638.87,-19.6061 635.944,-29.7889 642.933,-29.391"/>
</g>
<!-- Node15 -->
<g id="node15" class="node"><title>Node15</title>
<g id="a_node15"><a xlink:href="MonitorObject_8h.html" target="_top" xlink:title="QualityControl/MonitorObject.h">
<polygon fill="none" stroke="black" points="806.5,-56.5 806.5,-75.5 957.5,-75.5 957.5,-56.5 806.5,-56.5"/>
<text text-anchor="middle" x="882" y="-63.5" font-family="Helvetica,sans-Serif" font-size="10.00">QualityControl/MonitorObject.h</text>
</a>
</g>
</g>
<!-- Node14&#45;&gt;Node15 -->
<g id="edge14" class="edge"><title>Node14&#45;&gt;Node15</title>
<path fill="none" stroke="midnightblue" d="M882,-112.083C882,-105.006 882,-94.8611 882,-85.9865"/>
<polygon fill="midnightblue" stroke="midnightblue" points="885.5,-85.751 882,-75.7511 878.5,-85.7511 885.5,-85.751"/>
</g>
<!-- Node19 -->
<g id="node19" class="node"><title>Node19</title>
<g id="a_node19"><a xlink:href="Quality_8h.html" target="_top" xlink:title="QualityControl/Quality.h">
<polygon fill="none" stroke="black" points="667.5,-56.5 667.5,-75.5 788.5,-75.5 788.5,-56.5 667.5,-56.5"/>
<text text-anchor="middle" x="728" y="-63.5" font-family="Helvetica,sans-Serif" font-size="10.00">QualityControl/Quality.h</text>
</a>
</g>
</g>
<!-- Node14&#45;&gt;Node19 -->
<g id="edge20" class="edge"><title>Node14&#45;&gt;Node19</title>
<path fill="none" stroke="midnightblue" d="M857.598,-112.444C831.803,-103.399 790.923,-89.064 761.982,-78.9158"/>
<polygon fill="midnightblue" stroke="midnightblue" points="762.882,-75.5226 752.288,-75.5164 760.566,-82.1283 762.882,-75.5226"/>
</g>
<!-- Node20 -->
<g id="node20" class="node"><title>Node20</title>
<g id="a_node20"><a xlink:href="TaskConfig_8h.html" target="_top" xlink:title="QualityControl/TaskConfig.h">
<polygon fill="none" stroke="black" points="471,-56.5 471,-75.5 611,-75.5 611,-56.5 471,-56.5"/>
<text text-anchor="middle" x="541" y="-63.5" font-family="Helvetica,sans-Serif" font-size="10.00">QualityControl/TaskConfig.h</text>
</a>
</g>
</g>
<!-- Node14&#45;&gt;Node20 -->
<g id="edge23" class="edge"><title>Node14&#45;&gt;Node20</title>
<path fill="none" stroke="midnightblue" d="M827.968,-112.444C767.359,-102.846 669.138,-87.2916 604.803,-77.1037"/>
<polygon fill="midnightblue" stroke="midnightblue" points="605.204,-73.6237 594.78,-75.5164 604.109,-80.5375 605.204,-73.6237"/>
</g>
<!-- Node15&#45;&gt;Node7 -->
<g id="edge16" class="edge"><title>Node15&#45;&gt;Node7</title>
<path fill="none" stroke="midnightblue" d="M822.422,-56.4435C739.986,-44.6044 594.448,-23.7026 533.773,-14.9887"/>
<polygon fill="midnightblue" stroke="midnightblue" points="534.19,-11.5127 523.794,-13.5555 533.195,-18.4416 534.19,-11.5127"/>
</g>
<!-- Node15&#45;&gt;Node9 -->
<g id="edge15" class="edge"><title>Node15&#45;&gt;Node9</title>
<path fill="none" stroke="midnightblue" d="M843.496,-56.4435C795.301,-45.7335 713.732,-27.6072 669.583,-17.7961"/>
<polygon fill="midnightblue" stroke="midnightblue" points="670.243,-14.3576 659.722,-15.6049 668.725,-21.191 670.243,-14.3576"/>
</g>
<!-- Node16 -->
<g id="node16" class="node"><title>Node16</title>
<polygon fill="none" stroke="#bfbfbf" points="719,-0.5 719,-19.5 775,-19.5 775,-0.5 719,-0.5"/>
<text text-anchor="middle" x="747" y="-7.5" font-family="Helvetica,sans-Serif" font-size="10.00">Rtypes.h</text>
</g>
<!-- Node15&#45;&gt;Node16 -->
<g id="edge17" class="edge"><title>Node15&#45;&gt;Node16</title>
<path fill="none" stroke="midnightblue" d="M860.609,-56.4435C838.293,-47.5171 803.097,-33.4387 777.792,-23.3168"/>
<polygon fill="midnightblue" stroke="midnightblue" points="778.876,-19.9807 768.291,-19.5164 776.276,-26.4801 778.876,-19.9807"/>
</g>
<!-- Node17 -->
<g id="node17" class="node"><title>Node17</title>
<polygon fill="none" stroke="#bfbfbf" points="832.5,-0.5 832.5,-19.5 891.5,-19.5 891.5,-0.5 832.5,-0.5"/>
<text text-anchor="middle" x="862" y="-7.5" font-family="Helvetica,sans-Serif" font-size="10.00">TObject.h</text>
</g>
<!-- Node15&#45;&gt;Node17 -->
<g id="edge18" class="edge"><title>Node15&#45;&gt;Node17</title>
<path fill="none" stroke="midnightblue" d="M878.697,-56.083C876.018,-48.8486 872.151,-38.4087 868.814,-29.3968"/>
<polygon fill="midnightblue" stroke="midnightblue" points="871.996,-27.9129 865.241,-19.7511 865.432,-30.3442 871.996,-27.9129"/>
</g>
<!-- Node18 -->
<g id="node18" class="node"><title>Node18</title>
<polygon fill="none" stroke="#bfbfbf" points="910,-0.5 910,-19.5 1026,-19.5 1026,-0.5 910,-0.5"/>
<text text-anchor="middle" x="968" y="-7.5" font-family="Helvetica,sans-Serif" font-size="10.00">Common/Exceptions.h</text>
</g>
<!-- Node15&#45;&gt;Node18 -->
<g id="edge19" class="edge"><title>Node15&#45;&gt;Node18</title>
<path fill="none" stroke="midnightblue" d="M895.817,-56.324C909.233,-47.9002 929.824,-34.9709 945.586,-25.0741"/>
<polygon fill="midnightblue" stroke="midnightblue" points="947.609,-27.9364 954.217,-19.6545 943.887,-22.0081 947.609,-27.9364"/>
</g>
<!-- Node19&#45;&gt;Node9 -->
<g id="edge22" class="edge"><title>Node19&#45;&gt;Node9</title>
<path fill="none" stroke="midnightblue" d="M713.701,-56.324C699.817,-47.9002 678.508,-34.9709 662.196,-25.0741"/>
<polygon fill="midnightblue" stroke="midnightblue" points="663.629,-21.8495 653.264,-19.6545 659.998,-27.8341 663.629,-21.8495"/>
</g>
<!-- Node19&#45;&gt;Node16 -->
<g id="edge21" class="edge"><title>Node19&#45;&gt;Node16</title>
<path fill="none" stroke="midnightblue" d="M731.137,-56.083C733.683,-48.8486 737.356,-38.4087 740.527,-29.3968"/>
<polygon fill="midnightblue" stroke="midnightblue" points="743.903,-30.3459 743.921,-19.7511 737.3,-28.0225 743.903,-30.3459"/>
</g>
<!-- Node20&#45;&gt;Node9 -->
<g id="edge24" class="edge"><title>Node20&#45;&gt;Node9</title>
<path fill="none" stroke="midnightblue" d="M556.745,-56.324C572.319,-47.7428 596.377,-34.486 614.459,-24.5224"/>
<polygon fill="midnightblue" stroke="midnightblue" points="616.224,-27.546 623.294,-19.6545 612.846,-21.4152 616.224,-27.546"/>
</g>
<!-- Node20&#45;&gt;Node10 -->
<g id="edge25" class="edge"><title>Node20&#45;&gt;Node10</title>
<path fill="none" stroke="midnightblue" d="M498.693,-56.4435C451.783,-46.9561 376.096,-31.6487 325.706,-21.4574"/>
<polygon fill="midnightblue" stroke="midnightblue" points="326.165,-17.9794 315.669,-19.4275 324.777,-24.8405 326.165,-17.9794"/>
</g>
</g>
</svg>
