<?xml version="1.0" encoding="UTF-8" standalone="no"?>
<!DOCTYPE svg PUBLIC "-//W3C//DTD SVG 1.1//EN"
 "http://www.w3.org/Graphics/SVG/1.1/DTD/svg11.dtd">
<!-- Generated by graphviz version 2.38.0 (20140413.2041)
 -->
<!-- Title: Framework/include/QualityControl/ObjectsManager.h Pages: 1 -->
<svg width="583pt" height="151pt"
 viewBox="0.00 0.00 583.00 151.00" xmlns="http://www.w3.org/2000/svg" xmlns:xlink="http://www.w3.org/1999/xlink">
<g id="graph0" class="graph" transform="scale(1 1) rotate(0) translate(4 147)">
<title>Framework/include/QualityControl/ObjectsManager.h</title>
<!-- Node1 -->
<g id="node1" class="node"><title>Node1</title>
<polygon fill="#bfbfbf" stroke="black" points="190.5,-112.5 190.5,-142.5 323.5,-142.5 323.5,-112.5 190.5,-112.5"/>
<text text-anchor="start" x="198.5" y="-130.5" font-family="Helvetica,sans-Serif" font-size="10.00">Framework/include/Quality</text>
<text text-anchor="middle" x="257" y="-119.5" font-family="Helvetica,sans-Serif" font-size="10.00">Control/ObjectsManager.h</text>
</g>
<!-- Node2 -->
<g id="node2" class="node"><title>Node2</title>
<g id="a_node2"><a xlink:href="MonitorObject_8h.html" target="_top" xlink:title="QualityControl/MonitorObject.h">
<polygon fill="none" stroke="black" points="335.5,-56.5 335.5,-75.5 486.5,-75.5 486.5,-56.5 335.5,-56.5"/>
<text text-anchor="middle" x="411" y="-63.5" font-family="Helvetica,sans-Serif" font-size="10.00">QualityControl/MonitorObject.h</text>
</a>
</g>
</g>
<!-- Node1&#45;&gt;Node2 -->
<g id="edge1" class="edge"><title>Node1&#45;&gt;Node2</title>
<path fill="none" stroke="midnightblue" d="M293.496,-112.399C319.565,-102.327 354.294,-88.9093 379.224,-79.2769"/>
<polygon fill="midnightblue" stroke="midnightblue" points="380.525,-82.5266 388.592,-75.6578 378.002,-75.997 380.525,-82.5266"/>
</g>
<!-- Node3 -->
<g id="node3" class="node"><title>Node3</title>
<polygon fill="none" stroke="#bfbfbf" points="164.5,-0.5 164.5,-19.5 205.5,-19.5 205.5,-0.5 164.5,-0.5"/>
<text text-anchor="middle" x="185" y="-7.5" font-family="Helvetica,sans-Serif" font-size="10.00">string</text>
</g>
<!-- Node1&#45;&gt;Node3 -->
<g id="edge13" class="edge"><title>Node1&#45;&gt;Node3</title>
<path fill="none" stroke="midnightblue" d="M225.866,-112.332C211.344,-103.969 195.436,-91.8807 187,-76 179.469,-61.823 179.687,-43.3425 181.369,-29.7124"/>
<polygon fill="midnightblue" stroke="midnightblue" points="184.862,-30.0327 182.988,-19.6049 177.95,-28.9252 184.862,-30.0327"/>
</g>
<!-- Node8 -->
<g id="node8" class="node"><title>Node8</title>
<g id="a_node8"><a xlink:href="Quality_8h.html" target="_top" xlink:title="QualityControl/Quality.h">
<polygon fill="none" stroke="black" points="196.5,-56.5 196.5,-75.5 317.5,-75.5 317.5,-56.5 196.5,-56.5"/>
<text text-anchor="middle" x="257" y="-63.5" font-family="Helvetica,sans-Serif" font-size="10.00">QualityControl/Quality.h</text>
</a>
</g>
</g>
<!-- Node1&#45;&gt;Node8 -->
<g id="edge7" class="edge"><title>Node1&#45;&gt;Node8</title>
<path fill="none" stroke="midnightblue" d="M257,-112.399C257,-104.466 257,-94.458 257,-85.8583"/>
<polygon fill="midnightblue" stroke="midnightblue" points="260.5,-85.6577 257,-75.6578 253.5,-85.6578 260.5,-85.6577"/>
</g>
<!-- Node9 -->
<g id="node9" class="node"><title>Node9</title>
<g id="a_node9"><a xlink:href="TaskConfig_8h.html" target="_top" xlink:title="QualityControl/TaskConfig.h">
<polygon fill="none" stroke="black" points="0,-56.5 0,-75.5 140,-75.5 140,-56.5 0,-56.5"/>
<text text-anchor="middle" x="70" y="-63.5" font-family="Helvetica,sans-Serif" font-size="10.00">QualityControl/TaskConfig.h</text>
</a>
</g>
</g>
<!-- Node1&#45;&gt;Node9 -->
<g id="edge10" class="edge"><title>Node1&#45;&gt;Node9</title>
<path fill="none" stroke="midnightblue" d="M212.684,-112.399C180.371,-102.118 137.102,-88.3506 106.714,-78.6818"/>
<polygon fill="midnightblue" stroke="midnightblue" points="107.528,-75.2678 96.9372,-75.5709 105.405,-81.9383 107.528,-75.2678"/>
</g>
<!-- Node11 -->
<g id="node11" class="node"><title>Node11</title>
<polygon fill="none" stroke="#bfbfbf" points="505,-56.5 505,-75.5 557,-75.5 557,-56.5 505,-56.5"/>
<text text-anchor="middle" x="531" y="-63.5" font-family="Helvetica,sans-Serif" font-size="10.00">memory</text>
</g>
<!-- Node1&#45;&gt;Node11 -->
<g id="edge14" class="edge"><title>Node1&#45;&gt;Node11</title>
<path fill="none" stroke="midnightblue" d="M323.622,-113.231C369.314,-103.943 431.55,-90.9279 494.895,-76.188"/>
<polygon fill="midnightblue" stroke="midnightblue" points="495.717,-79.5903 504.657,-73.9046 494.123,-72.7743 495.717,-79.5903"/>
</g>
<!-- Node2&#45;&gt;Node3 -->
<g id="edge2" class="edge"><title>Node2&#45;&gt;Node3</title>
<path fill="none" stroke="midnightblue" d="M375.19,-56.4435C331.129,-45.9158 257.077,-28.222 215.569,-18.3042"/>
<polygon fill="midnightblue" stroke="midnightblue" points="216.295,-14.8792 205.756,-15.9593 214.668,-21.6875 216.295,-14.8792"/>
</g>
<!-- Node4 -->
<g id="node4" class="node"><title>Node4</title>
<polygon fill="none" stroke="#bfbfbf" points="328.5,-0.5 328.5,-19.5 363.5,-19.5 363.5,-0.5 328.5,-0.5"/>
<text text-anchor="middle" x="346" y="-7.5" font-family="Helvetica,sans-Serif" font-size="10.00">map</text>
</g>
<!-- Node2&#45;&gt;Node4 -->
<g id="edge3" class="edge"><title>Node2&#45;&gt;Node4</title>
<path fill="none" stroke="midnightblue" d="M400.557,-56.324C390.854,-48.2631 376.185,-36.0765 364.5,-26.3695"/>
<polygon fill="midnightblue" stroke="midnightblue" points="366.562,-23.532 356.633,-19.8339 362.089,-28.9163 366.562,-23.532"/>
</g>
<!-- Node5 -->
<g id="node5" class="node"><title>Node5</title>
<polygon fill="none" stroke="#bfbfbf" points="241,-0.5 241,-19.5 297,-19.5 297,-0.5 241,-0.5"/>
<text text-anchor="middle" x="269" y="-7.5" font-family="Helvetica,sans-Serif" font-size="10.00">Rtypes.h</text>
</g>
<!-- Node2&#45;&gt;Node5 -->
<g id="edge4" class="edge"><title>Node2&#45;&gt;Node5</title>
<path fill="none" stroke="midnightblue" d="M388.5,-56.4435C364.923,-47.4776 327.678,-33.314 301.036,-23.1827"/>
<polygon fill="midnightblue" stroke="midnightblue" points="301.986,-19.7995 291.395,-19.5164 299.498,-26.3424 301.986,-19.7995"/>
</g>
<!-- Node6 -->
<g id="node6" class="node"><title>Node6</title>
<polygon fill="none" stroke="#bfbfbf" points="381.5,-0.5 381.5,-19.5 440.5,-19.5 440.5,-0.5 381.5,-0.5"/>
<text text-anchor="middle" x="411" y="-7.5" font-family="Helvetica,sans-Serif" font-size="10.00">TObject.h</text>
</g>
<!-- Node2&#45;&gt;Node6 -->
<g id="edge5" class="edge"><title>Node2&#45;&gt;Node6</title>
<path fill="none" stroke="midnightblue" d="M411,-56.083C411,-49.0059 411,-38.8611 411,-29.9865"/>
<polygon fill="midnightblue" stroke="midnightblue" points="414.5,-29.751 411,-19.7511 407.5,-29.7511 414.5,-29.751"/>
</g>
<!-- Node7 -->
<g id="node7" class="node"><title>Node7</title>
<polygon fill="none" stroke="#bfbfbf" points="459,-0.5 459,-19.5 575,-19.5 575,-0.5 459,-0.5"/>
<text text-anchor="middle" x="517" y="-7.5" font-family="Helvetica,sans-Serif" font-size="10.00">Common/Exceptions.h</text>
</g>
<!-- Node2&#45;&gt;Node7 -->
<g id="edge6" class="edge"><title>Node2&#45;&gt;Node7</title>
<path fill="none" stroke="midnightblue" d="M428.031,-56.324C445.03,-47.6641 471.376,-34.2424 490.993,-24.249"/>
<polygon fill="midnightblue" stroke="midnightblue" points="492.69,-27.3125 500.012,-19.6545 489.512,-21.0752 492.69,-27.3125"/>
</g>
<!-- Node8&#45;&gt;Node3 -->
<g id="edge9" class="edge"><title>Node8&#45;&gt;Node3</title>
<path fill="none" stroke="midnightblue" d="M245.432,-56.324C234.58,-48.1849 218.119,-35.8395 205.117,-26.0874"/>
<polygon fill="midnightblue" stroke="midnightblue" points="206.879,-23.0339 196.779,-19.8339 202.679,-28.6339 206.879,-23.0339"/>
</g>
<!-- Node8&#45;&gt;Node5 -->
<g id="edge8" class="edge"><title>Node8&#45;&gt;Node5</title>
<path fill="none" stroke="midnightblue" d="M258.982,-56.083C260.572,-48.9272 262.859,-38.6353 264.846,-29.6911"/>
<polygon fill="midnightblue" stroke="midnightblue" points="268.303,-30.2722 267.055,-19.7511 261.469,-28.7537 268.303,-30.2722"/>
</g>
<!-- Node9&#45;&gt;Node3 -->
<g id="edge11" class="edge"><title>Node9&#45;&gt;Node3</title>
<path fill="none" stroke="midnightblue" d="M88.2221,-56.4435C106.896,-47.6751 136.156,-33.9355 157.617,-23.8579"/>
<polygon fill="midnightblue" stroke="midnightblue" points="159.299,-26.935 166.863,-19.5164 156.324,-20.5988 159.299,-26.935"/>
</g>
<!-- Node10 -->
<g id="node10" class="node"><title>Node10</title>
<polygon fill="none" stroke="#bfbfbf" points="28.5,-0.5 28.5,-19.5 111.5,-19.5 111.5,-0.5 28.5,-0.5"/>
<text text-anchor="middle" x="70" y="-7.5" font-family="Helvetica,sans-Serif" font-size="10.00">unordered_map</text>
</g>
<!-- Node9&#45;&gt;Node10 -->
<g id="edge12" class="edge"><title>Node9&#45;&gt;Node10</title>
<path fill="none" stroke="midnightblue" d="M70,-56.083C70,-49.0059 70,-38.8611 70,-29.9865"/>
<polygon fill="midnightblue" stroke="midnightblue" points="73.5001,-29.751 70,-19.7511 66.5001,-29.7511 73.5001,-29.751"/>
</g>
</g>
</svg>
