<?xml version="1.0" encoding="UTF-8" standalone="no"?>
<!DOCTYPE svg PUBLIC "-//W3C//DTD SVG 1.1//EN"
 "http://www.w3.org/Graphics/SVG/1.1/DTD/svg11.dtd">
<!-- Generated by graphviz version 2.38.0 (20140413.2041)
 -->
<!-- Title: Framework/src/ObjectsManager.cxx Pages: 1 -->
<svg width="1210pt" height="207pt"
 viewBox="0.00 0.00 1210.00 207.00" xmlns="http://www.w3.org/2000/svg" xmlns:xlink="http://www.w3.org/1999/xlink">
<g id="graph0" class="graph" transform="scale(1 1) rotate(0) translate(4 203)">
<title>Framework/src/ObjectsManager.cxx</title>
<!-- Node1 -->
<g id="node1" class="node"><title>Node1</title>
<polygon fill="#bfbfbf" stroke="black" points="851,-179.5 851,-198.5 1026,-198.5 1026,-179.5 851,-179.5"/>
<text text-anchor="middle" x="938.5" y="-186.5" font-family="Helvetica,sans-Serif" font-size="10.00">Framework/src/ObjectsManager.cxx</text>
</g>
<!-- Node2 -->
<g id="node2" class="node"><title>Node2</title>
<g id="a_node2"><a xlink:href="ObjectsManager_8h.html" target="_top" xlink:title="QualityControl/ObjectsManager.h">
<polygon fill="none" stroke="black" points="287,-123.5 287,-142.5 448,-142.5 448,-123.5 287,-123.5"/>
<text text-anchor="middle" x="367.5" y="-130.5" font-family="Helvetica,sans-Serif" font-size="10.00">QualityControl/ObjectsManager.h</text>
</a>
</g>
</g>
<!-- Node1&#45;&gt;Node2 -->
<g id="edge1" class="edge"><title>Node1&#45;&gt;Node2</title>
<path fill="none" stroke="midnightblue" d="M850.844,-179.71C744.543,-169.657 566.252,-152.796 458.477,-142.604"/>
<polygon fill="midnightblue" stroke="midnightblue" points="458.557,-139.096 448.272,-141.639 457.898,-146.065 458.557,-139.096"/>
</g>
<!-- Node8 -->
<g id="node8" class="node"><title>Node8</title>
<polygon fill="none" stroke="#bfbfbf" points="678.5,-0.5 678.5,-19.5 794.5,-19.5 794.5,-0.5 678.5,-0.5"/>
<text text-anchor="middle" x="736.5" y="-7.5" font-family="Helvetica,sans-Serif" font-size="10.00">Common/Exceptions.h</text>
</g>
<!-- Node1&#45;&gt;Node8 -->
<g id="edge25" class="edge"><title>Node1&#45;&gt;Node8</title>
<path fill="none" stroke="midnightblue" d="M940.216,-179.246C944.244,-155.899 951.686,-91.5109 919.5,-56 904.027,-38.928 850.185,-27.0199 804.878,-19.7612"/>
<polygon fill="midnightblue" stroke="midnightblue" points="805.183,-16.2668 794.765,-18.1938 804.111,-23.1842 805.183,-16.2668"/>
</g>
<!-- Node13 -->
<g id="node13" class="node"><title>Node13</title>
<g id="a_node13"><a xlink:href="QcInfoLogger_8h.html" target="_top" xlink:title="QualityControl/QcInfoLogger.h">
<polygon fill="none" stroke="black" points="966,-123.5 966,-142.5 1115,-142.5 1115,-123.5 966,-123.5"/>
<text text-anchor="middle" x="1040.5" y="-130.5" font-family="Helvetica,sans-Serif" font-size="10.00">QualityControl/QcInfoLogger.h</text>
</a>
</g>
</g>
<!-- Node1&#45;&gt;Node13 -->
<g id="edge16" class="edge"><title>Node1&#45;&gt;Node13</title>
<path fill="none" stroke="midnightblue" d="M954.888,-179.324C971.171,-170.703 996.367,-157.364 1015.22,-147.386"/>
<polygon fill="midnightblue" stroke="midnightblue" points="1016.95,-150.427 1024.15,-142.655 1013.68,-144.24 1016.95,-150.427"/>
</g>
<!-- Node15 -->
<g id="node15" class="node"><title>Node15</title>
<g id="a_node15"><a xlink:href="ServiceDiscovery_8h_source.html" target="_top" xlink:title="QualityControl/ServiceDiscovery.h">
<polygon fill="none" stroke="black" points="664,-123.5 664,-142.5 831,-142.5 831,-123.5 664,-123.5"/>
<text text-anchor="middle" x="747.5" y="-130.5" font-family="Helvetica,sans-Serif" font-size="10.00">QualityControl/ServiceDiscovery.h</text>
</a>
</g>
</g>
<!-- Node1&#45;&gt;Node15 -->
<g id="edge18" class="edge"><title>Node1&#45;&gt;Node15</title>
<path fill="none" stroke="midnightblue" d="M908.235,-179.444C875.545,-170.201 823.318,-155.436 787.317,-145.257"/>
<polygon fill="midnightblue" stroke="midnightblue" points="788.198,-141.869 777.623,-142.516 786.294,-148.605 788.198,-141.869"/>
</g>
<!-- Node20 -->
<g id="node20" class="node"><title>Node20</title>
<polygon fill="none" stroke="#bfbfbf" points="1133,-123.5 1133,-142.5 1202,-142.5 1202,-123.5 1133,-123.5"/>
<text text-anchor="middle" x="1167.5" y="-130.5" font-family="Helvetica,sans-Serif" font-size="10.00">TObjArray.h</text>
</g>
<!-- Node1&#45;&gt;Node20 -->
<g id="edge26" class="edge"><title>Node1&#45;&gt;Node20</title>
<path fill="none" stroke="midnightblue" d="M974.786,-179.444C1014.95,-169.972 1079.71,-154.702 1122.93,-144.51"/>
<polygon fill="midnightblue" stroke="midnightblue" points="1123.95,-147.865 1132.88,-142.163 1122.35,-141.052 1123.95,-147.865"/>
</g>
<!-- Node3 -->
<g id="node3" class="node"><title>Node3</title>
<g id="a_node3"><a xlink:href="MonitorObject_8h.html" target="_top" xlink:title="QualityControl/MonitorObject.h">
<polygon fill="none" stroke="black" points="0,-62 0,-81 151,-81 151,-62 0,-62"/>
<text text-anchor="middle" x="75.5" y="-69" font-family="Helvetica,sans-Serif" font-size="10.00">QualityControl/MonitorObject.h</text>
</a>
</g>
</g>
<!-- Node2&#45;&gt;Node3 -->
<g id="edge2" class="edge"><title>Node2&#45;&gt;Node3</title>
<path fill="none" stroke="midnightblue" d="M325.664,-123.475C273.298,-112.805 183.631,-94.5335 127.073,-83.0089"/>
<polygon fill="midnightblue" stroke="midnightblue" points="127.756,-79.5763 117.259,-81.0091 126.359,-86.4353 127.756,-79.5763"/>
</g>
<!-- Node4 -->
<g id="node4" class="node"><title>Node4</title>
<polygon fill="none" stroke="#bfbfbf" points="298,-0.5 298,-19.5 339,-19.5 339,-0.5 298,-0.5"/>
<text text-anchor="middle" x="318.5" y="-7.5" font-family="Helvetica,sans-Serif" font-size="10.00">string</text>
</g>
<!-- Node2&#45;&gt;Node4 -->
<g id="edge14" class="edge"><title>Node2&#45;&gt;Node4</title>
<path fill="none" stroke="midnightblue" d="M360.315,-123.23C353.523,-114.529 343.502,-100.567 337.5,-87 329.265,-68.384 324.165,-45.5574 321.348,-29.8071"/>
<polygon fill="midnightblue" stroke="midnightblue" points="324.77,-29.0473 319.689,-19.7504 317.864,-30.1868 324.77,-29.0473"/>
</g>
<!-- Node9 -->
<g id="node9" class="node"><title>Node9</title>
<g id="a_node9"><a xlink:href="Quality_8h.html" target="_top" xlink:title="QualityControl/Quality.h">
<polygon fill="none" stroke="black" points="169,-62 169,-81 290,-81 290,-62 169,-62"/>
<text text-anchor="middle" x="229.5" y="-69" font-family="Helvetica,sans-Serif" font-size="10.00">QualityControl/Quality.h</text>
</a>
</g>
</g>
<!-- Node2&#45;&gt;Node9 -->
<g id="edge8" class="edge"><title>Node2&#45;&gt;Node9</title>
<path fill="none" stroke="midnightblue" d="M347.728,-123.475C324.364,-113.401 285.286,-96.5525 258.497,-85.0023"/>
<polygon fill="midnightblue" stroke="midnightblue" points="259.804,-81.7544 249.235,-81.0091 257.032,-88.1824 259.804,-81.7544"/>
</g>
<!-- Node10 -->
<g id="node10" class="node"><title>Node10</title>
<g id="a_node10"><a xlink:href="TaskConfig_8h.html" target="_top" xlink:title="QualityControl/TaskConfig.h">
<polygon fill="none" stroke="black" points="346.5,-62 346.5,-81 486.5,-81 486.5,-62 346.5,-62"/>
<text text-anchor="middle" x="416.5" y="-69" font-family="Helvetica,sans-Serif" font-size="10.00">QualityControl/TaskConfig.h</text>
</a>
</g>
</g>
<!-- Node2&#45;&gt;Node10 -->
<g id="edge11" class="edge"><title>Node2&#45;&gt;Node10</title>
<path fill="none" stroke="midnightblue" d="M374.521,-123.475C381.943,-114.462 393.833,-100.025 403.067,-88.8118"/>
<polygon fill="midnightblue" stroke="midnightblue" points="405.837,-90.9534 409.493,-81.0091 400.434,-86.5034 405.837,-90.9534"/>
</g>
<!-- Node12 -->
<g id="node12" class="node"><title>Node12</title>
<polygon fill="none" stroke="#bfbfbf" points="504.5,-62 504.5,-81 556.5,-81 556.5,-62 504.5,-62"/>
<text text-anchor="middle" x="530.5" y="-69" font-family="Helvetica,sans-Serif" font-size="10.00">memory</text>
</g>
<!-- Node2&#45;&gt;Node12 -->
<g id="edge15" class="edge"><title>Node2&#45;&gt;Node12</title>
<path fill="none" stroke="midnightblue" d="M393.15,-123.443C419.1,-114.679 460.3,-100.468 495.5,-87 497.147,-86.3698 498.833,-85.7126 500.532,-85.0409"/>
<polygon fill="midnightblue" stroke="midnightblue" points="502.259,-88.1177 510.217,-81.1231 499.634,-81.6285 502.259,-88.1177"/>
</g>
<!-- Node3&#45;&gt;Node4 -->
<g id="edge3" class="edge"><title>Node3&#45;&gt;Node4</title>
<path fill="none" stroke="midnightblue" d="M110.316,-61.9751C157.92,-50.3189 242.569,-29.5922 287.876,-18.4985"/>
<polygon fill="midnightblue" stroke="midnightblue" points="288.831,-21.8682 297.711,-16.0902 287.166,-15.069 288.831,-21.8682"/>
</g>
<!-- Node5 -->
<g id="node5" class="node"><title>Node5</title>
<polygon fill="none" stroke="#bfbfbf" points="91,-0.5 91,-19.5 126,-19.5 126,-0.5 91,-0.5"/>
<text text-anchor="middle" x="108.5" y="-7.5" font-family="Helvetica,sans-Serif" font-size="10.00">map</text>
</g>
<!-- Node3&#45;&gt;Node5 -->
<g id="edge4" class="edge"><title>Node3&#45;&gt;Node5</title>
<path fill="none" stroke="midnightblue" d="M80.2281,-61.9751C85.0801,-53.2268 92.7659,-39.3691 98.8999,-28.3093"/>
<polygon fill="midnightblue" stroke="midnightblue" points="101.991,-29.9517 103.781,-19.5091 95.8697,-26.5566 101.991,-29.9517"/>
</g>
<!-- Node6 -->
<g id="node6" class="node"><title>Node6</title>
<polygon fill="none" stroke="#bfbfbf" points="173.5,-0.5 173.5,-19.5 229.5,-19.5 229.5,-0.5 173.5,-0.5"/>
<text text-anchor="middle" x="201.5" y="-7.5" font-family="Helvetica,sans-Serif" font-size="10.00">Rtypes.h</text>
</g>
<!-- Node3&#45;&gt;Node6 -->
<g id="edge5" class="edge"><title>Node3&#45;&gt;Node6</title>
<path fill="none" stroke="midnightblue" d="M93.5527,-61.9751C114.698,-51.9897 149.94,-35.3476 174.378,-23.8075"/>
<polygon fill="midnightblue" stroke="midnightblue" points="175.933,-26.9441 183.481,-19.5091 172.944,-20.6143 175.933,-26.9441"/>
</g>
<!-- Node7 -->
<g id="node7" class="node"><title>Node7</title>
<polygon fill="none" stroke="#bfbfbf" points="14,-0.5 14,-19.5 73,-19.5 73,-0.5 14,-0.5"/>
<text text-anchor="middle" x="43.5" y="-7.5" font-family="Helvetica,sans-Serif" font-size="10.00">TObject.h</text>
</g>
<!-- Node3&#45;&gt;Node7 -->
<g id="edge6" class="edge"><title>Node3&#45;&gt;Node7</title>
<path fill="none" stroke="midnightblue" d="M70.9152,-61.9751C66.2577,-53.3152 58.9076,-39.6486 52.9899,-28.6453"/>
<polygon fill="midnightblue" stroke="midnightblue" points="55.8954,-26.6584 48.0763,-19.5091 49.7305,-29.974 55.8954,-26.6584"/>
</g>
<!-- Node3&#45;&gt;Node8 -->
<g id="edge7" class="edge"><title>Node3&#45;&gt;Node8</title>
<path fill="none" stroke="midnightblue" d="M120.286,-61.9741C132.931,-59.7836 146.724,-57.5973 159.5,-56 342.53,-33.116 559.772,-19.9117 668.038,-14.2722"/>
<polygon fill="midnightblue" stroke="midnightblue" points="668.363,-17.7602 678.17,-13.75 668.003,-10.7695 668.363,-17.7602"/>
</g>
<!-- Node9&#45;&gt;Node4 -->
<g id="edge10" class="edge"><title>Node9&#45;&gt;Node4</title>
<path fill="none" stroke="midnightblue" d="M242.252,-61.9751C256.527,-52.4315 279.897,-36.8073 297.008,-25.3683"/>
<polygon fill="midnightblue" stroke="midnightblue" points="299.404,-27.9766 305.772,-19.5091 295.514,-22.1572 299.404,-27.9766"/>
</g>
<!-- Node9&#45;&gt;Node6 -->
<g id="edge9" class="edge"><title>Node9&#45;&gt;Node6</title>
<path fill="none" stroke="midnightblue" d="M225.488,-61.9751C221.413,-53.3152 214.982,-39.6486 209.804,-28.6453"/>
<polygon fill="midnightblue" stroke="midnightblue" points="212.929,-27.067 205.504,-19.5091 206.595,-30.0476 212.929,-27.067"/>
</g>
<!-- Node10&#45;&gt;Node4 -->
<g id="edge12" class="edge"><title>Node10&#45;&gt;Node4</title>
<path fill="none" stroke="midnightblue" d="M402.459,-61.9751C386.449,-52.2548 360.05,-36.2266 341.126,-24.7372"/>
<polygon fill="midnightblue" stroke="midnightblue" points="342.879,-21.7072 332.515,-19.5091 339.246,-27.6907 342.879,-21.7072"/>
</g>
<!-- Node11 -->
<g id="node11" class="node"><title>Node11</title>
<polygon fill="none" stroke="#bfbfbf" points="375,-0.5 375,-19.5 458,-19.5 458,-0.5 375,-0.5"/>
<text text-anchor="middle" x="416.5" y="-7.5" font-family="Helvetica,sans-Serif" font-size="10.00">unordered_map</text>
</g>
<!-- Node10&#45;&gt;Node11 -->
<g id="edge13" class="edge"><title>Node10&#45;&gt;Node11</title>
<path fill="none" stroke="midnightblue" d="M416.5,-61.9751C416.5,-53.5803 416.5,-40.4806 416.5,-29.6631"/>
<polygon fill="midnightblue" stroke="midnightblue" points="420,-29.5091 416.5,-19.5091 413,-29.5091 420,-29.5091"/>
</g>
<!-- Node14 -->
<g id="node14" class="node"><title>Node14</title>
<polygon fill="none" stroke="#bfbfbf" points="975.5,-62 975.5,-81 1105.5,-81 1105.5,-62 975.5,-62"/>
<text text-anchor="middle" x="1040.5" y="-69" font-family="Helvetica,sans-Serif" font-size="10.00">InfoLogger/InfoLogger.hxx</text>
</g>
<!-- Node13&#45;&gt;Node14 -->
<g id="edge17" class="edge"><title>Node13&#45;&gt;Node14</title>
<path fill="none" stroke="midnightblue" d="M1040.5,-123.475C1040.5,-115.08 1040.5,-101.981 1040.5,-91.1631"/>
<polygon fill="midnightblue" stroke="midnightblue" points="1044,-91.0091 1040.5,-81.0091 1037,-91.0091 1044,-91.0091"/>
</g>
<!-- Node15&#45;&gt;Node4 -->
<g id="edge22" class="edge"><title>Node15&#45;&gt;Node4</title>
<path fill="none" stroke="midnightblue" d="M705.804,-123.433C676.117,-116.287 635.908,-104.436 603.5,-87 584.306,-76.6733 585.301,-65.1097 565.5,-56 483.45,-18.2513 454.299,-36.4934 365.5,-20 360.224,-19.02 354.618,-17.9616 349.185,-16.9267"/>
<polygon fill="midnightblue" stroke="midnightblue" points="349.561,-13.4352 339.081,-14.9923 348.245,-20.3103 349.561,-13.4352"/>
</g>
<!-- Node15&#45;&gt;Node12 -->
<g id="edge21" class="edge"><title>Node15&#45;&gt;Node12</title>
<path fill="none" stroke="midnightblue" d="M709.218,-123.421C673.162,-115.069 617.777,-101.54 570.5,-87 567.877,-86.1932 565.172,-85.3151 562.465,-84.4035"/>
<polygon fill="midnightblue" stroke="midnightblue" points="563.388,-81.0185 552.793,-81.0223 561.078,-87.6263 563.388,-81.0185"/>
</g>
<!-- Node16 -->
<g id="node16" class="node"><title>Node16</title>
<polygon fill="none" stroke="#bfbfbf" points="724.5,-62 724.5,-81 770.5,-81 770.5,-62 724.5,-62"/>
<text text-anchor="middle" x="747.5" y="-69" font-family="Helvetica,sans-Serif" font-size="10.00">atomic</text>
</g>
<!-- Node15&#45;&gt;Node16 -->
<g id="edge19" class="edge"><title>Node15&#45;&gt;Node16</title>
<path fill="none" stroke="midnightblue" d="M747.5,-123.475C747.5,-115.08 747.5,-101.981 747.5,-91.1631"/>
<polygon fill="midnightblue" stroke="midnightblue" points="751,-91.0091 747.5,-81.0091 744,-91.0091 751,-91.0091"/>
</g>
<!-- Node17 -->
<g id="node17" class="node"><title>Node17</title>
<polygon fill="none" stroke="#bfbfbf" points="789,-62 789,-81 848,-81 848,-62 789,-62"/>
<text text-anchor="middle" x="818.5" y="-69" font-family="Helvetica,sans-Serif" font-size="10.00">curl/curl.h</text>
</g>
<!-- Node15&#45;&gt;Node17 -->
<g id="edge20" class="edge"><title>Node15&#45;&gt;Node17</title>
<path fill="none" stroke="midnightblue" d="M757.673,-123.475C768.85,-114.108 787.017,-98.8839 800.591,-87.5081"/>
<polygon fill="midnightblue" stroke="midnightblue" points="802.93,-90.1148 808.346,-81.0091 798.434,-84.7496 802.93,-90.1148"/>
</g>
<!-- Node18 -->
<g id="node18" class="node"><title>Node18</title>
<polygon fill="none" stroke="#bfbfbf" points="866.5,-62 866.5,-81 910.5,-81 910.5,-62 866.5,-62"/>
<text text-anchor="middle" x="888.5" y="-69" font-family="Helvetica,sans-Serif" font-size="10.00">thread</text>
</g>
<!-- Node15&#45;&gt;Node18 -->
<g id="edge23" class="edge"><title>Node15&#45;&gt;Node18</title>
<path fill="none" stroke="midnightblue" d="M768.894,-123.418C790.937,-114.516 826.251,-100.093 856.5,-87 857.864,-86.4094 859.259,-85.7999 860.666,-85.1803"/>
<polygon fill="midnightblue" stroke="midnightblue" points="862.231,-88.3147 869.934,-81.0411 859.376,-81.9232 862.231,-88.3147"/>
</g>
<!-- Node19 -->
<g id="node19" class="node"><title>Node19</title>
<polygon fill="none" stroke="#bfbfbf" points="612.5,-56.5 612.5,-86.5 706.5,-86.5 706.5,-56.5 612.5,-56.5"/>
<text text-anchor="start" x="620.5" y="-74.5" font-family="Helvetica,sans-Serif" font-size="10.00">boost/asio/ip/host</text>
<text text-anchor="middle" x="659.5" y="-63.5" font-family="Helvetica,sans-Serif" font-size="10.00">_name.hpp</text>
</g>
<!-- Node15&#45;&gt;Node19 -->
<g id="edge24" class="edge"><title>Node15&#45;&gt;Node19</title>
<path fill="none" stroke="midnightblue" d="M734.892,-123.475C722.862,-115.341 704.3,-102.791 688.605,-92.1788"/>
<polygon fill="midnightblue" stroke="midnightblue" points="690.484,-89.2248 680.24,-86.523 686.564,-95.0237 690.484,-89.2248"/>
</g>
</g>
</svg>
