<?xml version="1.0" encoding="UTF-8" standalone="no"?>
<!DOCTYPE svg PUBLIC "-//W3C//DTD SVG 1.1//EN"
 "http://www.w3.org/Graphics/SVG/1.1/DTD/svg11.dtd">
<!-- Generated by graphviz version 2.38.0 (20140413.2041)
 -->
<!-- Title: Modules/MUON/MCH/src/PedestalsTask.cxx Pages: 1 -->
<svg width="1738pt" height="453pt"
 viewBox="0.00 0.00 1737.50 453.00" xmlns="http://www.w3.org/2000/svg" xmlns:xlink="http://www.w3.org/1999/xlink">
<g id="graph0" class="graph" transform="scale(1 1) rotate(0) translate(4 449)">
<title>Modules/MUON/MCH/src/PedestalsTask.cxx</title>
<!-- Node1 -->
<g id="node1" class="node"><title>Node1</title>
<polygon fill="#bfbfbf" stroke="black" points="742.5,-414.5 742.5,-444.5 872.5,-444.5 872.5,-414.5 742.5,-414.5"/>
<text text-anchor="start" x="750.5" y="-432.5" font-family="Helvetica,sans-Serif" font-size="10.00">Modules/MUON/MCH/src</text>
<text text-anchor="middle" x="807.5" y="-421.5" font-family="Helvetica,sans-Serif" font-size="10.00">/PedestalsTask.cxx</text>
</g>
<!-- Node2 -->
<g id="node2" class="node"><title>Node2</title>
<polygon fill="none" stroke="#bfbfbf" points="0,-353 0,-372 65,-372 65,-353 0,-353"/>
<text text-anchor="middle" x="32.5" y="-360" font-family="Helvetica,sans-Serif" font-size="10.00">TCanvas.h</text>
</g>
<!-- Node1&#45;&gt;Node2 -->
<g id="edge1" class="edge"><title>Node1&#45;&gt;Node2</title>
<path fill="none" stroke="midnightblue" d="M742.284,-426.209C587.468,-420.416 201.297,-403.783 74.5,-378 70.992,-377.287 67.3757,-376.356 63.8056,-375.309"/>
<polygon fill="midnightblue" stroke="midnightblue" points="64.5867,-371.883 53.995,-372.139 62.4343,-378.544 64.5867,-371.883"/>
</g>
<!-- Node3 -->
<g id="node3" class="node"><title>Node3</title>
<polygon fill="none" stroke="#bfbfbf" points="83.5,-353 83.5,-372 127.5,-372 127.5,-353 83.5,-353"/>
<text text-anchor="middle" x="105.5" y="-360" font-family="Helvetica,sans-Serif" font-size="10.00">TH1.h</text>
</g>
<!-- Node1&#45;&gt;Node3 -->
<g id="edge2" class="edge"><title>Node1&#45;&gt;Node3</title>
<path fill="none" stroke="midnightblue" d="M742.264,-426.586C596.784,-421.833 249.718,-407.672 136.5,-378 134.517,-377.48 132.506,-376.837 130.509,-376.114"/>
<polygon fill="midnightblue" stroke="midnightblue" points="131.429,-372.702 120.856,-372.022 128.697,-379.147 131.429,-372.702"/>
</g>
<!-- Node4 -->
<g id="node4" class="node"><title>Node4</title>
<polygon fill="none" stroke="#bfbfbf" points="145.5,-353 145.5,-372 189.5,-372 189.5,-353 145.5,-353"/>
<text text-anchor="middle" x="167.5" y="-360" font-family="Helvetica,sans-Serif" font-size="10.00">TH2.h</text>
</g>
<!-- Node1&#45;&gt;Node4 -->
<g id="edge3" class="edge"><title>Node1&#45;&gt;Node4</title>
<path fill="none" stroke="midnightblue" d="M742.365,-425.903C607.254,-420.056 300.671,-404.282 199.5,-378 197.342,-377.439 195.147,-376.743 192.971,-375.961"/>
<polygon fill="midnightblue" stroke="midnightblue" points="194.293,-372.721 183.714,-372.143 191.623,-379.192 194.293,-372.721"/>
</g>
<!-- Node5 -->
<g id="node5" class="node"><title>Node5</title>
<polygon fill="none" stroke="#bfbfbf" points="208,-353 208,-372 255,-372 255,-353 208,-353"/>
<text text-anchor="middle" x="231.5" y="-360" font-family="Helvetica,sans-Serif" font-size="10.00">TFile.h</text>
</g>
<!-- Node1&#45;&gt;Node5 -->
<g id="edge4" class="edge"><title>Node1&#45;&gt;Node5</title>
<path fill="none" stroke="midnightblue" d="M742.404,-429.124C639.316,-428.632 432.916,-421.608 264.5,-378 262.2,-377.404 259.856,-376.667 257.532,-375.842"/>
<polygon fill="midnightblue" stroke="midnightblue" points="258.838,-372.594 248.254,-372.103 256.221,-379.087 258.838,-372.594"/>
</g>
<!-- Node6 -->
<g id="node6" class="node"><title>Node6</title>
<polygon fill="none" stroke="#bfbfbf" points="273,-353 273,-372 414,-372 414,-353 273,-353"/>
<text text-anchor="middle" x="343.5" y="-360" font-family="Helvetica,sans-Serif" font-size="10.00">Headers/RAWDataHeader.h</text>
</g>
<!-- Node1&#45;&gt;Node6 -->
<g id="edge5" class="edge"><title>Node1&#45;&gt;Node6</title>
<path fill="none" stroke="midnightblue" d="M742.476,-420.925C665.995,-411.789 535.276,-395.469 423.5,-378 415.37,-376.729 406.794,-375.286 398.397,-373.813"/>
<polygon fill="midnightblue" stroke="midnightblue" points="398.744,-370.32 388.285,-372.013 397.517,-377.212 398.744,-370.32"/>
</g>
<!-- Node7 -->
<g id="node7" class="node"><title>Node7</title>
<polygon fill="none" stroke="#bfbfbf" points="432.5,-353 432.5,-372 580.5,-372 580.5,-353 432.5,-353"/>
<text text-anchor="middle" x="506.5" y="-360" font-family="Helvetica,sans-Serif" font-size="10.00">Framework/CallbackService.h</text>
</g>
<!-- Node1&#45;&gt;Node7 -->
<g id="edge6" class="edge"><title>Node1&#45;&gt;Node7</title>
<path fill="none" stroke="midnightblue" d="M742.558,-414.476C686.498,-402.37 606.723,-385.143 555.782,-374.142"/>
<polygon fill="midnightblue" stroke="midnightblue" points="556.508,-370.718 545.994,-372.029 555.03,-377.561 556.508,-370.718"/>
</g>
<!-- Node8 -->
<g id="node8" class="node"><title>Node8</title>
<polygon fill="none" stroke="#bfbfbf" points="599,-353 599,-372 740,-372 740,-353 599,-353"/>
<text text-anchor="middle" x="669.5" y="-360" font-family="Helvetica,sans-Serif" font-size="10.00">Framework/ControlService.h</text>
</g>
<!-- Node1&#45;&gt;Node8 -->
<g id="edge7" class="edge"><title>Node1&#45;&gt;Node8</title>
<path fill="none" stroke="midnightblue" d="M777.556,-414.396C753.557,-403.092 720.158,-387.361 696.867,-376.39"/>
<polygon fill="midnightblue" stroke="midnightblue" points="698.099,-373.102 687.561,-372.007 695.116,-379.435 698.099,-373.102"/>
</g>
<!-- Node9 -->
<g id="node9" class="node"><title>Node9</title>
<polygon fill="none" stroke="#bfbfbf" points="758.5,-353 758.5,-372 856.5,-372 856.5,-353 758.5,-353"/>
<text text-anchor="middle" x="807.5" y="-360" font-family="Helvetica,sans-Serif" font-size="10.00">Framework/Task.h</text>
</g>
<!-- Node1&#45;&gt;Node9 -->
<g id="edge8" class="edge"><title>Node1&#45;&gt;Node9</title>
<path fill="none" stroke="midnightblue" d="M807.5,-414.396C807.5,-405.064 807.5,-392.714 807.5,-382.517"/>
<polygon fill="midnightblue" stroke="midnightblue" points="811,-382.195 807.5,-372.195 804,-382.195 811,-382.195"/>
</g>
<!-- Node10 -->
<g id="node10" class="node"><title>Node10</title>
<polygon fill="none" stroke="#bfbfbf" points="874.5,-353 874.5,-372 1010.5,-372 1010.5,-353 874.5,-353"/>
<text text-anchor="middle" x="942.5" y="-360" font-family="Helvetica,sans-Serif" font-size="10.00">DPLUtils/DPLRawParser.h</text>
</g>
<!-- Node1&#45;&gt;Node10 -->
<g id="edge9" class="edge"><title>Node1&#45;&gt;Node10</title>
<path fill="none" stroke="midnightblue" d="M836.793,-414.396C860.271,-403.092 892.943,-387.361 915.728,-376.39"/>
<polygon fill="midnightblue" stroke="midnightblue" points="917.34,-379.499 924.832,-372.007 914.303,-373.192 917.34,-379.499"/>
</g>
<!-- Node11 -->
<g id="node11" class="node"><title>Node11</title>
<g id="a_node11"><a xlink:href="QcInfoLogger_8h.html" target="_top" xlink:title="QualityControl/QcInfoLogger.h">
<polygon fill="none" stroke="black" points="1029,-353 1029,-372 1178,-372 1178,-353 1029,-353"/>
<text text-anchor="middle" x="1103.5" y="-360" font-family="Helvetica,sans-Serif" font-size="10.00">QualityControl/QcInfoLogger.h</text>
</a>
</g>
</g>
<!-- Node1&#45;&gt;Node11 -->
<g id="edge10" class="edge"><title>Node1&#45;&gt;Node11</title>
<path fill="none" stroke="midnightblue" d="M871.363,-414.476C926.377,-402.395 1004.62,-385.215 1054.72,-374.211"/>
<polygon fill="midnightblue" stroke="midnightblue" points="1055.65,-377.592 1064.66,-372.029 1054.14,-370.755 1055.65,-377.592"/>
</g>
<!-- Node13 -->
<g id="node13" class="node"><title>Node13</title>
<g id="a_node13"><a xlink:href="PedestalsTask_8h.html" target="_top" xlink:title="MCH/PedestalsTask.h">
<polygon fill="none" stroke="black" points="1195.5,-353 1195.5,-372 1311.5,-372 1311.5,-353 1195.5,-353"/>
<text text-anchor="middle" x="1253.5" y="-360" font-family="Helvetica,sans-Serif" font-size="10.00">MCH/PedestalsTask.h</text>
</a>
</g>
</g>
<!-- Node1&#45;&gt;Node13 -->
<g id="edge12" class="edge"><title>Node1&#45;&gt;Node13</title>
<path fill="none" stroke="midnightblue" d="M872.64,-421.532C948.528,-413.024 1077.55,-397.349 1187.5,-378 1193.87,-376.879 1200.56,-375.569 1207.13,-374.202"/>
<polygon fill="midnightblue" stroke="midnightblue" points="1208.25,-377.541 1217.3,-372.028 1206.79,-370.696 1208.25,-377.541"/>
</g>
<!-- Node30 -->
<g id="node30" class="node"><title>Node30</title>
<polygon fill="none" stroke="#bfbfbf" points="1254,-168.5 1254,-198.5 1369,-198.5 1369,-168.5 1254,-168.5"/>
<text text-anchor="start" x="1262" y="-186.5" font-family="Helvetica,sans-Serif" font-size="10.00">MCHMappingInterface</text>
<text text-anchor="middle" x="1311.5" y="-175.5" font-family="Helvetica,sans-Serif" font-size="10.00">/Segmentation.h</text>
</g>
<!-- Node1&#45;&gt;Node30 -->
<g id="edge46" class="edge"><title>Node1&#45;&gt;Node30</title>
<path fill="none" stroke="midnightblue" d="M872.59,-426.078C1007.09,-420.543 1306.25,-405.295 1343.5,-378 1398.05,-338.028 1428.79,-293.864 1395.5,-235 1387.73,-221.271 1374.58,-210.863 1360.96,-203.172"/>
<polygon fill="midnightblue" stroke="midnightblue" points="1362.47,-200.016 1351.99,-198.502 1359.24,-206.225 1362.47,-200.016"/>
</g>
<!-- Node33 -->
<g id="node33" class="node"><title>Node33</title>
<polygon fill="none" stroke="#bfbfbf" points="1292.5,-235.5 1292.5,-254.5 1386.5,-254.5 1386.5,-235.5 1292.5,-235.5"/>
<text text-anchor="middle" x="1339.5" y="-242.5" font-family="Helvetica,sans-Serif" font-size="10.00">MCHBase/Digit.h</text>
</g>
<!-- Node1&#45;&gt;Node33 -->
<g id="edge45" class="edge"><title>Node1&#45;&gt;Node33</title>
<path fill="none" stroke="midnightblue" d="M872.605,-426.508C1003.48,-421.876 1288.72,-408.382 1320.5,-378 1351.23,-348.619 1347.65,-293.473 1343.17,-264.641"/>
<polygon fill="midnightblue" stroke="midnightblue" points="1346.6,-263.914 1341.42,-254.672 1339.7,-265.127 1346.6,-263.914"/>
</g>
<!-- Node34 -->
<g id="node34" class="node"><title>Node34</title>
<polygon fill="none" stroke="#bfbfbf" points="1443,-347.5 1443,-377.5 1568,-377.5 1568,-347.5 1443,-347.5"/>
<text text-anchor="start" x="1451" y="-365.5" font-family="Helvetica,sans-Serif" font-size="10.00">MCHMappingInterface</text>
<text text-anchor="middle" x="1505.5" y="-354.5" font-family="Helvetica,sans-Serif" font-size="10.00">/CathodeSegmentation.h</text>
</g>
<!-- Node1&#45;&gt;Node34 -->
<g id="edge47" class="edge"><title>Node1&#45;&gt;Node34</title>
<path fill="none" stroke="midnightblue" d="M872.557,-425.462C985.881,-419.668 1226.69,-405.131 1428.5,-378 1429.97,-377.802 1431.46,-377.594 1432.96,-377.378"/>
<polygon fill="midnightblue" stroke="midnightblue" points="1433.62,-380.818 1442.97,-375.843 1432.56,-373.899 1433.62,-380.818"/>
</g>
<!-- Node35 -->
<g id="node35" class="node"><title>Node35</title>
<polygon fill="none" stroke="#bfbfbf" points="1586.5,-353 1586.5,-372 1728.5,-372 1728.5,-353 1586.5,-353"/>
<text text-anchor="middle" x="1657.5" y="-360" font-family="Helvetica,sans-Serif" font-size="10.00">MCHRawElecMap/Mapper.h</text>
</g>
<!-- Node1&#45;&gt;Node35 -->
<g id="edge48" class="edge"><title>Node1&#45;&gt;Node35</title>
<path fill="none" stroke="midnightblue" d="M872.634,-426.729C1005.57,-422.565 1317.55,-409.977 1577.5,-378 1586.66,-376.874 1596.35,-375.377 1605.71,-373.773"/>
<polygon fill="midnightblue" stroke="midnightblue" points="1606.47,-377.195 1615.7,-372.003 1605.25,-370.302 1606.47,-377.195"/>
</g>
<!-- Node12 -->
<g id="node12" class="node"><title>Node12</title>
<polygon fill="none" stroke="#bfbfbf" points="828.5,-291.5 828.5,-310.5 958.5,-310.5 958.5,-291.5 828.5,-291.5"/>
<text text-anchor="middle" x="893.5" y="-298.5" font-family="Helvetica,sans-Serif" font-size="10.00">InfoLogger/InfoLogger.hxx</text>
</g>
<!-- Node11&#45;&gt;Node12 -->
<g id="edge11" class="edge"><title>Node11&#45;&gt;Node12</title>
<path fill="none" stroke="midnightblue" d="M1073.41,-352.975C1036.61,-342.548 974.189,-324.862 933.406,-313.307"/>
<polygon fill="midnightblue" stroke="midnightblue" points="934.107,-309.868 923.532,-310.509 932.199,-316.603 934.107,-309.868"/>
</g>
<!-- Node14 -->
<g id="node14" class="node"><title>Node14</title>
<g id="a_node14"><a xlink:href="TaskInterface_8h.html" target="_top" xlink:title="QualityControl/TaskInterface.h">
<polygon fill="none" stroke="black" points="983.5,-174 983.5,-193 1133.5,-193 1133.5,-174 983.5,-174"/>
<text text-anchor="middle" x="1058.5" y="-181" font-family="Helvetica,sans-Serif" font-size="10.00">QualityControl/TaskInterface.h</text>
</a>
</g>
</g>
<!-- Node13&#45;&gt;Node14 -->
<g id="edge13" class="edge"><title>Node13&#45;&gt;Node14</title>
<path fill="none" stroke="midnightblue" d="M1222.62,-352.94C1161.76,-335.371 1030.1,-293.634 1005.5,-255 992.531,-234.636 1015.64,-212.614 1035.31,-198.701"/>
<polygon fill="midnightblue" stroke="midnightblue" points="1037.33,-201.562 1043.68,-193.088 1033.43,-195.747 1037.33,-201.562"/>
</g>
<!-- Node29 -->
<g id="node29" class="node"><title>Node29</title>
<g id="a_node29"><a xlink:href="Mapping_8h_source.html" target="_top" xlink:title="MCH/Mapping.h">
<polygon fill="none" stroke="black" points="1014.5,-235.5 1014.5,-254.5 1102.5,-254.5 1102.5,-235.5 1014.5,-235.5"/>
<text text-anchor="middle" x="1058.5" y="-242.5" font-family="Helvetica,sans-Serif" font-size="10.00">MCH/Mapping.h</text>
</a>
</g>
</g>
<!-- Node13&#45;&gt;Node29 -->
<g id="edge36" class="edge"><title>Node13&#45;&gt;Node29</title>
<path fill="none" stroke="midnightblue" d="M1237.04,-352.857C1218.51,-343.03 1187.56,-326.355 1161.5,-311 1133.06,-294.244 1101.01,-273.756 1080.32,-260.316"/>
<polygon fill="midnightblue" stroke="midnightblue" points="1081.96,-257.205 1071.67,-254.676 1078.14,-263.069 1081.96,-257.205"/>
</g>
<!-- Node31 -->
<g id="node31" class="node"><title>Node31</title>
<g id="a_node31"><a xlink:href="Decoding_8h.html" target="_top" xlink:title="MCH/Decoding.h">
<polygon fill="none" stroke="black" points="1170.5,-291.5 1170.5,-310.5 1262.5,-310.5 1262.5,-291.5 1170.5,-291.5"/>
<text text-anchor="middle" x="1216.5" y="-298.5" font-family="Helvetica,sans-Serif" font-size="10.00">MCH/Decoding.h</text>
</a>
</g>
</g>
<!-- Node13&#45;&gt;Node31 -->
<g id="edge39" class="edge"><title>Node13&#45;&gt;Node31</title>
<path fill="none" stroke="midnightblue" d="M1248.2,-352.975C1242.76,-344.227 1234.14,-330.369 1227.26,-319.309"/>
<polygon fill="midnightblue" stroke="midnightblue" points="1230.04,-317.153 1221.79,-310.509 1224.1,-320.849 1230.04,-317.153"/>
</g>
<!-- Node13&#45;&gt;Node33 -->
<g id="edge44" class="edge"><title>Node13&#45;&gt;Node33</title>
<path fill="none" stroke="midnightblue" d="M1259.96,-352.819C1274.16,-333.755 1308.27,-287.947 1326.87,-262.958"/>
<polygon fill="midnightblue" stroke="midnightblue" points="1329.8,-264.893 1332.96,-254.782 1324.18,-260.713 1329.8,-264.893"/>
</g>
<!-- Node15 -->
<g id="node15" class="node"><title>Node15</title>
<polygon fill="none" stroke="#bfbfbf" points="1192,-0.5 1192,-19.5 1227,-19.5 1227,-0.5 1192,-0.5"/>
<text text-anchor="middle" x="1209.5" y="-7.5" font-family="Helvetica,sans-Serif" font-size="10.00">map</text>
</g>
<!-- Node14&#45;&gt;Node15 -->
<g id="edge14" class="edge"><title>Node14&#45;&gt;Node15</title>
<path fill="none" stroke="midnightblue" d="M1022.4,-173.843C1000.66,-166.567 974.698,-153.75 961.5,-132 943.978,-103.123 939.852,-81.9291 961.5,-56 989.353,-22.6382 1123.29,-13.9562 1181.92,-11.7405"/>
<polygon fill="midnightblue" stroke="midnightblue" points="1182.07,-15.2374 1191.95,-11.3975 1181.83,-8.24147 1182.07,-15.2374"/>
</g>
<!-- Node16 -->
<g id="node16" class="node"><title>Node16</title>
<polygon fill="none" stroke="#bfbfbf" points="1054.5,-56.5 1054.5,-75.5 1106.5,-75.5 1106.5,-56.5 1054.5,-56.5"/>
<text text-anchor="middle" x="1080.5" y="-63.5" font-family="Helvetica,sans-Serif" font-size="10.00">memory</text>
</g>
<!-- Node14&#45;&gt;Node16 -->
<g id="edge15" class="edge"><title>Node14&#45;&gt;Node16</title>
<path fill="none" stroke="midnightblue" d="M1051.11,-173.682C1040.77,-160.199 1024.22,-133.736 1033.5,-112 1038.65,-99.9469 1048.78,-89.5764 1058.33,-81.8389"/>
<polygon fill="midnightblue" stroke="midnightblue" points="1060.54,-84.5532 1066.42,-75.7409 1056.33,-78.9619 1060.54,-84.5532"/>
</g>
<!-- Node17 -->
<g id="node17" class="node"><title>Node17</title>
<polygon fill="none" stroke="#bfbfbf" points="1322,-0.5 1322,-19.5 1363,-19.5 1363,-0.5 1322,-0.5"/>
<text text-anchor="middle" x="1342.5" y="-7.5" font-family="Helvetica,sans-Serif" font-size="10.00">string</text>
</g>
<!-- Node14&#45;&gt;Node17 -->
<g id="edge16" class="edge"><title>Node14&#45;&gt;Node17</title>
<path fill="none" stroke="midnightblue" d="M1050.91,-173.955C1043.04,-164.475 1031.24,-148.348 1026.5,-132 1016.8,-98.5618 1018.8,-78.3509 1045.5,-56 1065.75,-39.0433 1239.97,-20.7414 1311.77,-13.8438"/>
<polygon fill="midnightblue" stroke="midnightblue" points="1312.35,-17.3037 1321.98,-12.8734 1311.69,-10.3351 1312.35,-17.3037"/>
</g>
<!-- Node18 -->
<g id="node18" class="node"><title>Node18</title>
<polygon fill="none" stroke="#bfbfbf" points="936,-0.5 936,-19.5 1019,-19.5 1019,-0.5 936,-0.5"/>
<text text-anchor="middle" x="977.5" y="-7.5" font-family="Helvetica,sans-Serif" font-size="10.00">unordered_map</text>
</g>
<!-- Node14&#45;&gt;Node18 -->
<g id="edge17" class="edge"><title>Node14&#45;&gt;Node18</title>
<path fill="none" stroke="midnightblue" d="M991.811,-173.934C966.073,-167.009 939.117,-154.515 923.5,-132 904.249,-104.245 909.173,-86.5888 923.5,-56 929.545,-43.0941 941.312,-32.5985 952.323,-24.9999"/>
<polygon fill="midnightblue" stroke="midnightblue" points="954.328,-27.8723 960.867,-19.5364 950.557,-21.9748 954.328,-27.8723"/>
</g>
<!-- Node19 -->
<g id="node19" class="node"><title>Node19</title>
<polygon fill="none" stroke="#bfbfbf" points="1042,-112.5 1042,-131.5 1167,-131.5 1167,-112.5 1042,-112.5"/>
<text text-anchor="middle" x="1104.5" y="-119.5" font-family="Helvetica,sans-Serif" font-size="10.00">Framework/InitContext.h</text>
</g>
<!-- Node14&#45;&gt;Node19 -->
<g id="edge18" class="edge"><title>Node14&#45;&gt;Node19</title>
<path fill="none" stroke="midnightblue" d="M1065.09,-173.975C1071.99,-165.05 1083,-150.807 1091.63,-139.643"/>
<polygon fill="midnightblue" stroke="midnightblue" points="1094.57,-141.561 1097.92,-131.509 1089.04,-137.28 1094.57,-141.561"/>
</g>
<!-- Node20 -->
<g id="node20" class="node"><title>Node20</title>
<polygon fill="none" stroke="#bfbfbf" points="1185.5,-112.5 1185.5,-131.5 1345.5,-131.5 1345.5,-112.5 1185.5,-112.5"/>
<text text-anchor="middle" x="1265.5" y="-119.5" font-family="Helvetica,sans-Serif" font-size="10.00">Framework/ProcessingContext.h</text>
</g>
<!-- Node14&#45;&gt;Node20 -->
<g id="edge19" class="edge"><title>Node14&#45;&gt;Node20</title>
<path fill="none" stroke="midnightblue" d="M1088.16,-173.975C1124.43,-163.548 1185.96,-145.862 1226.16,-134.307"/>
<polygon fill="midnightblue" stroke="midnightblue" points="1227.25,-137.635 1235.9,-131.509 1225.32,-130.908 1227.25,-137.635"/>
</g>
<!-- Node21 -->
<g id="node21" class="node"><title>Node21</title>
<g id="a_node21"><a xlink:href="Activity_8h.html" target="_top" xlink:title="QualityControl/Activity.h">
<polygon fill="none" stroke="black" points="1364,-112.5 1364,-131.5 1487,-131.5 1487,-112.5 1364,-112.5"/>
<text text-anchor="middle" x="1425.5" y="-119.5" font-family="Helvetica,sans-Serif" font-size="10.00">QualityControl/Activity.h</text>
</a>
</g>
</g>
<!-- Node14&#45;&gt;Node21 -->
<g id="edge20" class="edge"><title>Node14&#45;&gt;Node21</title>
<path fill="none" stroke="midnightblue" d="M1111.08,-173.975C1177.58,-163.194 1291.93,-144.654 1362.87,-133.153"/>
<polygon fill="midnightblue" stroke="midnightblue" points="1363.7,-136.564 1373.02,-131.509 1362.58,-129.655 1363.7,-136.564"/>
</g>
<!-- Node22 -->
<g id="node22" class="node"><title>Node22</title>
<g id="a_node22"><a xlink:href="ObjectsManager_8h.html" target="_top" xlink:title="QualityControl/ObjectsManager.h">
<polygon fill="none" stroke="black" points="1505,-112.5 1505,-131.5 1666,-131.5 1666,-112.5 1505,-112.5"/>
<text text-anchor="middle" x="1585.5" y="-119.5" font-family="Helvetica,sans-Serif" font-size="10.00">QualityControl/ObjectsManager.h</text>
</a>
</g>
</g>
<!-- Node14&#45;&gt;Node22 -->
<g id="edge21" class="edge"><title>Node14&#45;&gt;Node22</title>
<path fill="none" stroke="midnightblue" d="M1133.73,-174.007C1230.51,-163.08 1398.22,-144.144 1499.82,-132.674"/>
<polygon fill="midnightblue" stroke="midnightblue" points="1500.5,-136.119 1510.05,-131.519 1499.72,-129.163 1500.5,-136.119"/>
</g>
<!-- Node22&#45;&gt;Node16 -->
<g id="edge35" class="edge"><title>Node22&#45;&gt;Node16</title>
<path fill="none" stroke="midnightblue" d="M1505.76,-112.473C1394.71,-100.598 1197.99,-79.5638 1116.95,-70.8979"/>
<polygon fill="midnightblue" stroke="midnightblue" points="1117.07,-67.3905 1106.75,-69.8074 1116.33,-74.3509 1117.07,-67.3905"/>
</g>
<!-- Node22&#45;&gt;Node17 -->
<g id="edge34" class="edge"><title>Node22&#45;&gt;Node17</title>
<path fill="none" stroke="midnightblue" d="M1527.81,-112.478C1465.9,-102.844 1374.72,-87.0663 1362.5,-76 1349.53,-64.2556 1344.87,-44.3216 1343.25,-29.6182"/>
<polygon fill="midnightblue" stroke="midnightblue" points="1346.74,-29.3328 1342.52,-19.6162 1339.76,-29.8458 1346.74,-29.3328"/>
</g>
<!-- Node23 -->
<g id="node23" class="node"><title>Node23</title>
<g id="a_node23"><a xlink:href="MonitorObject_8h.html" target="_top" xlink:title="QualityControl/MonitorObject.h">
<polygon fill="none" stroke="black" points="1510,-56.5 1510,-75.5 1661,-75.5 1661,-56.5 1510,-56.5"/>
<text text-anchor="middle" x="1585.5" y="-63.5" font-family="Helvetica,sans-Serif" font-size="10.00">QualityControl/MonitorObject.h</text>
</a>
</g>
</g>
<!-- Node22&#45;&gt;Node23 -->
<g id="edge22" class="edge"><title>Node22&#45;&gt;Node23</title>
<path fill="none" stroke="midnightblue" d="M1585.5,-112.083C1585.5,-105.006 1585.5,-94.8611 1585.5,-85.9865"/>
<polygon fill="midnightblue" stroke="midnightblue" points="1589,-85.751 1585.5,-75.7511 1582,-85.7511 1589,-85.751"/>
</g>
<!-- Node27 -->
<g id="node27" class="node"><title>Node27</title>
<g id="a_node27"><a xlink:href="Quality_8h.html" target="_top" xlink:title="QualityControl/Quality.h">
<polygon fill="none" stroke="black" points="1371,-56.5 1371,-75.5 1492,-75.5 1492,-56.5 1371,-56.5"/>
<text text-anchor="middle" x="1431.5" y="-63.5" font-family="Helvetica,sans-Serif" font-size="10.00">QualityControl/Quality.h</text>
</a>
</g>
</g>
<!-- Node22&#45;&gt;Node27 -->
<g id="edge28" class="edge"><title>Node22&#45;&gt;Node27</title>
<path fill="none" stroke="midnightblue" d="M1561.1,-112.444C1535.3,-103.399 1494.42,-89.064 1465.48,-78.9158"/>
<polygon fill="midnightblue" stroke="midnightblue" points="1466.38,-75.5226 1455.79,-75.5164 1464.07,-82.1283 1466.38,-75.5226"/>
</g>
<!-- Node28 -->
<g id="node28" class="node"><title>Node28</title>
<g id="a_node28"><a xlink:href="TaskConfig_8h.html" target="_top" xlink:title="QualityControl/TaskConfig.h">
<polygon fill="none" stroke="black" points="1174.5,-56.5 1174.5,-75.5 1314.5,-75.5 1314.5,-56.5 1174.5,-56.5"/>
<text text-anchor="middle" x="1244.5" y="-63.5" font-family="Helvetica,sans-Serif" font-size="10.00">QualityControl/TaskConfig.h</text>
</a>
</g>
</g>
<!-- Node22&#45;&gt;Node28 -->
<g id="edge31" class="edge"><title>Node22&#45;&gt;Node28</title>
<path fill="none" stroke="midnightblue" d="M1531.47,-112.444C1470.86,-102.846 1372.64,-87.2916 1308.3,-77.1037"/>
<polygon fill="midnightblue" stroke="midnightblue" points="1308.7,-73.6237 1298.28,-75.5164 1307.61,-80.5375 1308.7,-73.6237"/>
</g>
<!-- Node23&#45;&gt;Node15 -->
<g id="edge24" class="edge"><title>Node23&#45;&gt;Node15</title>
<path fill="none" stroke="midnightblue" d="M1525.92,-56.4435C1443.49,-44.6044 1297.95,-23.7026 1237.27,-14.9887"/>
<polygon fill="midnightblue" stroke="midnightblue" points="1237.69,-11.5127 1227.29,-13.5555 1236.69,-18.4416 1237.69,-11.5127"/>
</g>
<!-- Node23&#45;&gt;Node17 -->
<g id="edge23" class="edge"><title>Node23&#45;&gt;Node17</title>
<path fill="none" stroke="midnightblue" d="M1547,-56.4435C1498.8,-45.7335 1417.23,-27.6072 1373.08,-17.7961"/>
<polygon fill="midnightblue" stroke="midnightblue" points="1373.74,-14.3576 1363.22,-15.6049 1372.22,-21.191 1373.74,-14.3576"/>
</g>
<!-- Node24 -->
<g id="node24" class="node"><title>Node24</title>
<polygon fill="none" stroke="#bfbfbf" points="1422.5,-0.5 1422.5,-19.5 1478.5,-19.5 1478.5,-0.5 1422.5,-0.5"/>
<text text-anchor="middle" x="1450.5" y="-7.5" font-family="Helvetica,sans-Serif" font-size="10.00">Rtypes.h</text>
</g>
<!-- Node23&#45;&gt;Node24 -->
<g id="edge25" class="edge"><title>Node23&#45;&gt;Node24</title>
<path fill="none" stroke="midnightblue" d="M1564.11,-56.4435C1541.79,-47.5171 1506.6,-33.4387 1481.29,-23.3168"/>
<polygon fill="midnightblue" stroke="midnightblue" points="1482.38,-19.9807 1471.79,-19.5164 1479.78,-26.4801 1482.38,-19.9807"/>
</g>
<!-- Node25 -->
<g id="node25" class="node"><title>Node25</title>
<polygon fill="none" stroke="#bfbfbf" points="1536,-0.5 1536,-19.5 1595,-19.5 1595,-0.5 1536,-0.5"/>
<text text-anchor="middle" x="1565.5" y="-7.5" font-family="Helvetica,sans-Serif" font-size="10.00">TObject.h</text>
</g>
<!-- Node23&#45;&gt;Node25 -->
<g id="edge26" class="edge"><title>Node23&#45;&gt;Node25</title>
<path fill="none" stroke="midnightblue" d="M1582.2,-56.083C1579.52,-48.8486 1575.65,-38.4087 1572.31,-29.3968"/>
<polygon fill="midnightblue" stroke="midnightblue" points="1575.5,-27.9129 1568.74,-19.7511 1568.93,-30.3442 1575.5,-27.9129"/>
</g>
<!-- Node26 -->
<g id="node26" class="node"><title>Node26</title>
<polygon fill="none" stroke="#bfbfbf" points="1613.5,-0.5 1613.5,-19.5 1729.5,-19.5 1729.5,-0.5 1613.5,-0.5"/>
<text text-anchor="middle" x="1671.5" y="-7.5" font-family="Helvetica,sans-Serif" font-size="10.00">Common/Exceptions.h</text>
</g>
<!-- Node23&#45;&gt;Node26 -->
<g id="edge27" class="edge"><title>Node23&#45;&gt;Node26</title>
<path fill="none" stroke="midnightblue" d="M1599.32,-56.324C1612.73,-47.9002 1633.32,-34.9709 1649.09,-25.0741"/>
<polygon fill="midnightblue" stroke="midnightblue" points="1651.11,-27.9364 1657.72,-19.6545 1647.39,-22.0081 1651.11,-27.9364"/>
</g>
<!-- Node27&#45;&gt;Node17 -->
<g id="edge30" class="edge"><title>Node27&#45;&gt;Node17</title>
<path fill="none" stroke="midnightblue" d="M1417.2,-56.324C1403.32,-47.9002 1382.01,-34.9709 1365.7,-25.0741"/>
<polygon fill="midnightblue" stroke="midnightblue" points="1367.13,-21.8495 1356.76,-19.6545 1363.5,-27.8341 1367.13,-21.8495"/>
</g>
<!-- Node27&#45;&gt;Node24 -->
<g id="edge29" class="edge"><title>Node27&#45;&gt;Node24</title>
<path fill="none" stroke="midnightblue" d="M1434.64,-56.083C1437.18,-48.8486 1440.86,-38.4087 1444.03,-29.3968"/>
<polygon fill="midnightblue" stroke="midnightblue" points="1447.4,-30.3459 1447.42,-19.7511 1440.8,-28.0225 1447.4,-30.3459"/>
</g>
<!-- Node28&#45;&gt;Node17 -->
<g id="edge32" class="edge"><title>Node28&#45;&gt;Node17</title>
<path fill="none" stroke="midnightblue" d="M1260.25,-56.324C1275.82,-47.7428 1299.88,-34.486 1317.96,-24.5224"/>
<polygon fill="midnightblue" stroke="midnightblue" points="1319.72,-27.546 1326.79,-19.6545 1316.35,-21.4152 1319.72,-27.546"/>
</g>
<!-- Node28&#45;&gt;Node18 -->
<g id="edge33" class="edge"><title>Node28&#45;&gt;Node18</title>
<path fill="none" stroke="midnightblue" d="M1202.19,-56.4435C1155.28,-46.9561 1079.6,-31.6487 1029.21,-21.4574"/>
<polygon fill="midnightblue" stroke="midnightblue" points="1029.66,-17.9794 1019.17,-19.4275 1028.28,-24.8405 1029.66,-17.9794"/>
</g>
<!-- Node29&#45;&gt;Node14 -->
<g id="edge38" class="edge"><title>Node29&#45;&gt;Node14</title>
<path fill="none" stroke="midnightblue" d="M1058.5,-235.475C1058.5,-227.08 1058.5,-213.981 1058.5,-203.163"/>
<polygon fill="midnightblue" stroke="midnightblue" points="1062,-203.009 1058.5,-193.009 1055,-203.009 1062,-203.009"/>
</g>
<!-- Node29&#45;&gt;Node30 -->
<g id="edge37" class="edge"><title>Node29&#45;&gt;Node30</title>
<path fill="none" stroke="midnightblue" d="M1094.75,-235.475C1133.53,-226.355 1195.92,-211.683 1243.82,-200.416"/>
<polygon fill="midnightblue" stroke="midnightblue" points="1244.88,-203.763 1253.81,-198.067 1243.28,-196.949 1244.88,-203.763"/>
</g>
<!-- Node31&#45;&gt;Node14 -->
<g id="edge40" class="edge"><title>Node31&#45;&gt;Node14</title>
<path fill="none" stroke="midnightblue" d="M1203.2,-291.247C1189.77,-282.331 1168.48,-268.003 1150.5,-255 1124.74,-236.371 1095.74,-213.886 1077.31,-199.399"/>
<polygon fill="midnightblue" stroke="midnightblue" points="1079.42,-196.607 1069.4,-193.164 1075.08,-202.104 1079.42,-196.607"/>
</g>
<!-- Node31&#45;&gt;Node29 -->
<g id="edge42" class="edge"><title>Node31&#45;&gt;Node29</title>
<path fill="none" stroke="midnightblue" d="M1191.46,-291.444C1164.88,-282.359 1122.69,-267.939 1092.98,-257.783"/>
<polygon fill="midnightblue" stroke="midnightblue" points="1094.01,-254.439 1083.42,-254.516 1091.75,-261.062 1094.01,-254.439"/>
</g>
<!-- Node32 -->
<g id="node32" class="node"><title>Node32</title>
<g id="a_node32"><a xlink:href="sampa__header_8h_source.html" target="_top" xlink:title="MCH/sampa_header.h">
<polygon fill="none" stroke="black" points="1159,-235.5 1159,-254.5 1274,-254.5 1274,-235.5 1159,-235.5"/>
<text text-anchor="middle" x="1216.5" y="-242.5" font-family="Helvetica,sans-Serif" font-size="10.00">MCH/sampa_header.h</text>
</a>
</g>
</g>
<!-- Node31&#45;&gt;Node32 -->
<g id="edge41" class="edge"><title>Node31&#45;&gt;Node32</title>
<path fill="none" stroke="midnightblue" d="M1216.5,-291.083C1216.5,-284.006 1216.5,-273.861 1216.5,-264.986"/>
<polygon fill="midnightblue" stroke="midnightblue" points="1220,-264.751 1216.5,-254.751 1213,-264.751 1220,-264.751"/>
</g>
<!-- Node31&#45;&gt;Node33 -->
<g id="edge43" class="edge"><title>Node31&#45;&gt;Node33</title>
<path fill="none" stroke="midnightblue" d="M1235.99,-291.444C1256.14,-282.596 1287.82,-268.687 1310.83,-258.586"/>
<polygon fill="midnightblue" stroke="midnightblue" points="1312.35,-261.741 1320.1,-254.516 1309.54,-255.332 1312.35,-261.741"/>
</g>
</g>
</svg>
