<?xml version="1.0" encoding="UTF-8" standalone="no"?>
<!DOCTYPE svg PUBLIC "-//W3C//DTD SVG 1.1//EN"
 "http://www.w3.org/Graphics/SVG/1.1/DTD/svg11.dtd">
<!-- Generated by graphviz version 2.38.0 (20140413.2041)
 -->
<!-- Title: Modules/MUON/MCH/src/PhysicsTask.cxx Pages: 1 -->
<svg width="1243pt" height="442pt"
 viewBox="0.00 0.00 1243.00 442.00" xmlns="http://www.w3.org/2000/svg" xmlns:xlink="http://www.w3.org/1999/xlink">
<g id="graph0" class="graph" transform="scale(1 1) rotate(0) translate(4 438)">
<title>Modules/MUON/MCH/src/PhysicsTask.cxx</title>
<!-- Node1 -->
<g id="node1" class="node"><title>Node1</title>
<polygon fill="#bfbfbf" stroke="black" points="201.5,-403.5 201.5,-433.5 331.5,-433.5 331.5,-403.5 201.5,-403.5"/>
<text text-anchor="start" x="209.5" y="-421.5" font-family="Helvetica,sans-Serif" font-size="10.00">Modules/MUON/MCH/src</text>
<text text-anchor="middle" x="266.5" y="-410.5" font-family="Helvetica,sans-Serif" font-size="10.00">/PhysicsTask.cxx</text>
</g>
<!-- Node2 -->
<g id="node2" class="node"><title>Node2</title>
<polygon fill="none" stroke="#bfbfbf" points="0,-347.5 0,-366.5 65,-366.5 65,-347.5 0,-347.5"/>
<text text-anchor="middle" x="32.5" y="-354.5" font-family="Helvetica,sans-Serif" font-size="10.00">TCanvas.h</text>
</g>
<!-- Node1&#45;&gt;Node2 -->
<g id="edge1" class="edge"><title>Node1&#45;&gt;Node2</title>
<path fill="none" stroke="midnightblue" d="M211.342,-403.475C169.666,-392.878 113.3,-378.545 75.0672,-368.824"/>
<polygon fill="midnightblue" stroke="midnightblue" points="75.8295,-365.406 65.2754,-366.334 74.1044,-372.19 75.8295,-365.406"/>
</g>
<!-- Node3 -->
<g id="node3" class="node"><title>Node3</title>
<polygon fill="none" stroke="#bfbfbf" points="83.5,-347.5 83.5,-366.5 127.5,-366.5 127.5,-347.5 83.5,-347.5"/>
<text text-anchor="middle" x="105.5" y="-354.5" font-family="Helvetica,sans-Serif" font-size="10.00">TH1.h</text>
</g>
<!-- Node1&#45;&gt;Node3 -->
<g id="edge2" class="edge"><title>Node1&#45;&gt;Node3</title>
<path fill="none" stroke="midnightblue" d="M228.345,-403.399C200.476,-393.1 163.14,-379.302 136.97,-369.63"/>
<polygon fill="midnightblue" stroke="midnightblue" points="138.124,-366.325 127.53,-366.142 135.697,-372.891 138.124,-366.325"/>
</g>
<!-- Node4 -->
<g id="node4" class="node"><title>Node4</title>
<polygon fill="none" stroke="#bfbfbf" points="145.5,-347.5 145.5,-366.5 189.5,-366.5 189.5,-347.5 145.5,-347.5"/>
<text text-anchor="middle" x="167.5" y="-354.5" font-family="Helvetica,sans-Serif" font-size="10.00">TH2.h</text>
</g>
<!-- Node1&#45;&gt;Node4 -->
<g id="edge3" class="edge"><title>Node1&#45;&gt;Node4</title>
<path fill="none" stroke="midnightblue" d="M243.038,-403.399C227.169,-393.862 206.309,-381.325 190.532,-371.842"/>
<polygon fill="midnightblue" stroke="midnightblue" points="192.279,-368.809 181.905,-366.658 188.674,-374.809 192.279,-368.809"/>
</g>
<!-- Node5 -->
<g id="node5" class="node"><title>Node5</title>
<polygon fill="none" stroke="#bfbfbf" points="208,-347.5 208,-366.5 255,-366.5 255,-347.5 208,-347.5"/>
<text text-anchor="middle" x="231.5" y="-354.5" font-family="Helvetica,sans-Serif" font-size="10.00">TFile.h</text>
</g>
<!-- Node1&#45;&gt;Node5 -->
<g id="edge4" class="edge"><title>Node1&#45;&gt;Node5</title>
<path fill="none" stroke="midnightblue" d="M258.205,-403.399C253.277,-395.021 246.986,-384.327 241.749,-375.423"/>
<polygon fill="midnightblue" stroke="midnightblue" points="244.68,-373.503 236.593,-366.658 238.646,-377.052 244.68,-373.503"/>
</g>
<!-- Node6 -->
<g id="node6" class="node"><title>Node6</title>
<polygon fill="none" stroke="#bfbfbf" points="273.5,-347.5 273.5,-366.5 329.5,-366.5 329.5,-347.5 273.5,-347.5"/>
<text text-anchor="middle" x="301.5" y="-354.5" font-family="Helvetica,sans-Serif" font-size="10.00">algorithm</text>
</g>
<!-- Node1&#45;&gt;Node6 -->
<g id="edge5" class="edge"><title>Node1&#45;&gt;Node6</title>
<path fill="none" stroke="midnightblue" d="M274.795,-403.399C279.723,-395.021 286.014,-384.327 291.251,-375.423"/>
<polygon fill="midnightblue" stroke="midnightblue" points="294.354,-377.052 296.407,-366.658 288.32,-373.503 294.354,-377.052"/>
</g>
<!-- Node7 -->
<g id="node7" class="node"><title>Node7</title>
<polygon fill="none" stroke="#bfbfbf" points="348,-347.5 348,-366.5 489,-366.5 489,-347.5 348,-347.5"/>
<text text-anchor="middle" x="418.5" y="-354.5" font-family="Helvetica,sans-Serif" font-size="10.00">Headers/RAWDataHeader.h</text>
</g>
<!-- Node1&#45;&gt;Node7 -->
<g id="edge6" class="edge"><title>Node1&#45;&gt;Node7</title>
<path fill="none" stroke="midnightblue" d="M302.522,-403.399C328.139,-393.372 362.227,-380.028 386.81,-370.405"/>
<polygon fill="midnightblue" stroke="midnightblue" points="388.346,-373.562 396.383,-366.658 385.795,-367.044 388.346,-373.562"/>
</g>
<!-- Node8 -->
<g id="node8" class="node"><title>Node8</title>
<g id="a_node8"><a xlink:href="QcInfoLogger_8h.html" target="_top" xlink:title="QualityControl/QcInfoLogger.h">
<polygon fill="none" stroke="black" points="507,-347.5 507,-366.5 656,-366.5 656,-347.5 507,-347.5"/>
<text text-anchor="middle" x="581.5" y="-354.5" font-family="Helvetica,sans-Serif" font-size="10.00">QualityControl/QcInfoLogger.h</text>
</a>
</g>
</g>
<!-- Node1&#45;&gt;Node8 -->
<g id="edge7" class="edge"><title>Node1&#45;&gt;Node8</title>
<path fill="none" stroke="midnightblue" d="M331.768,-405.172C389.159,-394.331 471.777,-378.725 526.033,-368.477"/>
<polygon fill="midnightblue" stroke="midnightblue" points="526.979,-371.86 536.156,-366.565 525.68,-364.982 526.979,-371.86"/>
</g>
<!-- Node10 -->
<g id="node10" class="node"><title>Node10</title>
<g id="a_node10"><a xlink:href="PhysicsTask_8h.html" target="_top" xlink:title="MCH/PhysicsTask.h">
<polygon fill="none" stroke="black" points="684.5,-347.5 684.5,-366.5 792.5,-366.5 792.5,-347.5 684.5,-347.5"/>
<text text-anchor="middle" x="738.5" y="-354.5" font-family="Helvetica,sans-Serif" font-size="10.00">MCH/PhysicsTask.h</text>
</a>
</g>
</g>
<!-- Node1&#45;&gt;Node10 -->
<g id="edge9" class="edge"><title>Node1&#45;&gt;Node10</title>
<path fill="none" stroke="midnightblue" d="M331.634,-409.289C421.976,-397.901 584.319,-377.436 674.21,-366.104"/>
<polygon fill="midnightblue" stroke="midnightblue" points="674.788,-369.559 684.272,-364.836 673.913,-362.614 674.788,-369.559"/>
</g>
<!-- Node9 -->
<g id="node9" class="node"><title>Node9</title>
<polygon fill="none" stroke="#bfbfbf" points="506.5,-291.5 506.5,-310.5 636.5,-310.5 636.5,-291.5 506.5,-291.5"/>
<text text-anchor="middle" x="571.5" y="-298.5" font-family="Helvetica,sans-Serif" font-size="10.00">InfoLogger/InfoLogger.hxx</text>
</g>
<!-- Node8&#45;&gt;Node9 -->
<g id="edge8" class="edge"><title>Node8&#45;&gt;Node9</title>
<path fill="none" stroke="midnightblue" d="M579.849,-347.083C578.524,-339.927 576.618,-329.635 574.961,-320.691"/>
<polygon fill="midnightblue" stroke="midnightblue" points="578.383,-319.947 573.121,-310.751 571.5,-321.221 578.383,-319.947"/>
</g>
<!-- Node11 -->
<g id="node11" class="node"><title>Node11</title>
<g id="a_node11"><a xlink:href="TaskInterface_8h.html" target="_top" xlink:title="QualityControl/TaskInterface.h">
<polygon fill="none" stroke="black" points="663.5,-174 663.5,-193 813.5,-193 813.5,-174 663.5,-174"/>
<text text-anchor="middle" x="738.5" y="-181" font-family="Helvetica,sans-Serif" font-size="10.00">QualityControl/TaskInterface.h</text>
</a>
</g>
</g>
<!-- Node10&#45;&gt;Node11 -->
<g id="edge10" class="edge"><title>Node10&#45;&gt;Node11</title>
<path fill="none" stroke="midnightblue" d="M762.373,-347.421C808.805,-329.381 903.835,-285.034 869.5,-235 855.924,-215.217 833.419,-203.181 810.86,-195.859"/>
<polygon fill="midnightblue" stroke="midnightblue" points="811.796,-192.486 801.214,-193.001 809.808,-199.198 811.796,-192.486"/>
</g>
<!-- Node26 -->
<g id="node26" class="node"><title>Node26</title>
<g id="a_node26"><a xlink:href="Mapping_8h_source.html" target="_top" xlink:title="MCH/Mapping.h">
<polygon fill="none" stroke="black" points="489.5,-235.5 489.5,-254.5 577.5,-254.5 577.5,-235.5 489.5,-235.5"/>
<text text-anchor="middle" x="533.5" y="-242.5" font-family="Helvetica,sans-Serif" font-size="10.00">MCH/Mapping.h</text>
</a>
</g>
</g>
<!-- Node10&#45;&gt;Node26 -->
<g id="edge33" class="edge"><title>Node10&#45;&gt;Node26</title>
<path fill="none" stroke="midnightblue" d="M727.86,-347.343C711.104,-334 677.204,-308.157 645.5,-291 620.937,-277.708 591.594,-266.059 569.104,-257.945"/>
<polygon fill="midnightblue" stroke="midnightblue" points="570.203,-254.621 559.608,-254.582 567.866,-261.22 570.203,-254.621"/>
</g>
<!-- Node28 -->
<g id="node28" class="node"><title>Node28</title>
<g id="a_node28"><a xlink:href="Decoding_8h.html" target="_top" xlink:title="MCH/Decoding.h">
<polygon fill="none" stroke="black" points="692.5,-291.5 692.5,-310.5 784.5,-310.5 784.5,-291.5 692.5,-291.5"/>
<text text-anchor="middle" x="738.5" y="-298.5" font-family="Helvetica,sans-Serif" font-size="10.00">MCH/Decoding.h</text>
</a>
</g>
</g>
<!-- Node10&#45;&gt;Node28 -->
<g id="edge36" class="edge"><title>Node10&#45;&gt;Node28</title>
<path fill="none" stroke="midnightblue" d="M738.5,-347.083C738.5,-340.006 738.5,-329.861 738.5,-320.986"/>
<polygon fill="midnightblue" stroke="midnightblue" points="742,-320.751 738.5,-310.751 735,-320.751 742,-320.751"/>
</g>
<!-- Node30 -->
<g id="node30" class="node"><title>Node30</title>
<polygon fill="none" stroke="#bfbfbf" points="766.5,-235.5 766.5,-254.5 860.5,-254.5 860.5,-235.5 766.5,-235.5"/>
<text text-anchor="middle" x="813.5" y="-242.5" font-family="Helvetica,sans-Serif" font-size="10.00">MCHBase/Digit.h</text>
</g>
<!-- Node10&#45;&gt;Node30 -->
<g id="edge41" class="edge"><title>Node10&#45;&gt;Node30</title>
<path fill="none" stroke="midnightblue" d="M753.177,-347.46C765.611,-339.51 783.039,-326.564 793.5,-311 802.865,-297.067 807.997,-278.559 810.709,-264.857"/>
<polygon fill="midnightblue" stroke="midnightblue" points="814.213,-265.132 812.458,-254.683 807.314,-263.946 814.213,-265.132"/>
</g>
<!-- Node12 -->
<g id="node12" class="node"><title>Node12</title>
<polygon fill="none" stroke="#bfbfbf" points="143,-0.5 143,-19.5 178,-19.5 178,-0.5 143,-0.5"/>
<text text-anchor="middle" x="160.5" y="-7.5" font-family="Helvetica,sans-Serif" font-size="10.00">map</text>
</g>
<!-- Node11&#45;&gt;Node12 -->
<g id="edge11" class="edge"><title>Node11&#45;&gt;Node12</title>
<path fill="none" stroke="midnightblue" d="M663.13,-174.499C542.681,-161.611 318.536,-137.173 301.5,-132 249.386,-116.174 230.681,-114.84 192.5,-76 179.571,-62.8479 170.955,-43.4386 165.952,-29.2542"/>
<polygon fill="midnightblue" stroke="midnightblue" points="169.24,-28.0444 162.82,-19.616 162.582,-30.2082 169.24,-28.0444"/>
</g>
<!-- Node13 -->
<g id="node13" class="node"><title>Node13</title>
<polygon fill="none" stroke="#bfbfbf" points="685.5,-56.5 685.5,-75.5 737.5,-75.5 737.5,-56.5 685.5,-56.5"/>
<text text-anchor="middle" x="711.5" y="-63.5" font-family="Helvetica,sans-Serif" font-size="10.00">memory</text>
</g>
<!-- Node11&#45;&gt;Node13 -->
<g id="edge12" class="edge"><title>Node11&#45;&gt;Node13</title>
<path fill="none" stroke="midnightblue" d="M736.471,-173.819C732.112,-155.173 721.772,-110.943 715.855,-85.6317"/>
<polygon fill="midnightblue" stroke="midnightblue" points="719.237,-84.7228 713.553,-75.782 712.421,-86.3162 719.237,-84.7228"/>
</g>
<!-- Node14 -->
<g id="node14" class="node"><title>Node14</title>
<polygon fill="none" stroke="#bfbfbf" points="242,-0.5 242,-19.5 283,-19.5 283,-0.5 242,-0.5"/>
<text text-anchor="middle" x="262.5" y="-7.5" font-family="Helvetica,sans-Serif" font-size="10.00">string</text>
</g>
<!-- Node11&#45;&gt;Node14 -->
<g id="edge13" class="edge"><title>Node11&#45;&gt;Node14</title>
<path fill="none" stroke="midnightblue" d="M670.409,-173.98C532.403,-156.012 230.308,-112.857 201.5,-76 186.674,-57.0316 212.393,-37.1137 234.855,-24.4049"/>
<polygon fill="midnightblue" stroke="midnightblue" points="236.682,-27.3963 243.839,-19.5838 233.372,-21.2282 236.682,-27.3963"/>
</g>
<!-- Node15 -->
<g id="node15" class="node"><title>Node15</title>
<polygon fill="none" stroke="#bfbfbf" points="655,-0.5 655,-19.5 738,-19.5 738,-0.5 655,-0.5"/>
<text text-anchor="middle" x="696.5" y="-7.5" font-family="Helvetica,sans-Serif" font-size="10.00">unordered_map</text>
</g>
<!-- Node11&#45;&gt;Node15 -->
<g id="edge14" class="edge"><title>Node11&#45;&gt;Node15</title>
<path fill="none" stroke="midnightblue" d="M741.724,-173.726C748.995,-152.44 764.674,-96.8074 746.5,-56 740.932,-43.4981 729.984,-33.0124 719.749,-25.3167"/>
<polygon fill="midnightblue" stroke="midnightblue" points="721.656,-22.3794 711.452,-19.5256 717.649,-28.1193 721.656,-22.3794"/>
</g>
<!-- Node16 -->
<g id="node16" class="node"><title>Node16</title>
<polygon fill="none" stroke="#bfbfbf" points="790,-112.5 790,-131.5 915,-131.5 915,-112.5 790,-112.5"/>
<text text-anchor="middle" x="852.5" y="-119.5" font-family="Helvetica,sans-Serif" font-size="10.00">Framework/InitContext.h</text>
</g>
<!-- Node11&#45;&gt;Node16 -->
<g id="edge15" class="edge"><title>Node11&#45;&gt;Node16</title>
<path fill="none" stroke="midnightblue" d="M754.833,-173.975C773.711,-164.122 805.007,-147.788 827.076,-136.27"/>
<polygon fill="midnightblue" stroke="midnightblue" points="828.951,-139.239 836.197,-131.509 825.712,-133.033 828.951,-139.239"/>
</g>
<!-- Node17 -->
<g id="node17" class="node"><title>Node17</title>
<polygon fill="none" stroke="#bfbfbf" points="933.5,-112.5 933.5,-131.5 1093.5,-131.5 1093.5,-112.5 933.5,-112.5"/>
<text text-anchor="middle" x="1013.5" y="-119.5" font-family="Helvetica,sans-Serif" font-size="10.00">Framework/ProcessingContext.h</text>
</g>
<!-- Node11&#45;&gt;Node17 -->
<g id="edge16" class="edge"><title>Node11&#45;&gt;Node17</title>
<path fill="none" stroke="midnightblue" d="M777.901,-173.975C827.013,-163.349 910.966,-145.185 964.266,-133.652"/>
<polygon fill="midnightblue" stroke="midnightblue" points="965.139,-137.045 974.172,-131.509 963.658,-130.203 965.139,-137.045"/>
</g>
<!-- Node18 -->
<g id="node18" class="node"><title>Node18</title>
<g id="a_node18"><a xlink:href="Activity_8h.html" target="_top" xlink:title="QualityControl/Activity.h">
<polygon fill="none" stroke="black" points="1112,-112.5 1112,-131.5 1235,-131.5 1235,-112.5 1112,-112.5"/>
<text text-anchor="middle" x="1173.5" y="-119.5" font-family="Helvetica,sans-Serif" font-size="10.00">QualityControl/Activity.h</text>
</a>
</g>
</g>
<!-- Node11&#45;&gt;Node18 -->
<g id="edge17" class="edge"><title>Node11&#45;&gt;Node18</title>
<path fill="none" stroke="midnightblue" d="M800.825,-173.975C880.514,-163.075 1018.19,-144.243 1102.04,-132.774"/>
<polygon fill="midnightblue" stroke="midnightblue" points="1102.56,-136.236 1111.99,-131.413 1101.61,-129.301 1102.56,-136.236"/>
</g>
<!-- Node19 -->
<g id="node19" class="node"><title>Node19</title>
<g id="a_node19"><a xlink:href="ObjectsManager_8h.html" target="_top" xlink:title="QualityControl/ObjectsManager.h">
<polygon fill="none" stroke="black" points="435,-112.5 435,-131.5 596,-131.5 596,-112.5 435,-112.5"/>
<text text-anchor="middle" x="515.5" y="-119.5" font-family="Helvetica,sans-Serif" font-size="10.00">QualityControl/ObjectsManager.h</text>
</a>
</g>
</g>
<!-- Node11&#45;&gt;Node19 -->
<g id="edge18" class="edge"><title>Node11&#45;&gt;Node19</title>
<path fill="none" stroke="midnightblue" d="M706.55,-173.975C667.304,-163.504 600.622,-145.712 557.327,-134.16"/>
<polygon fill="midnightblue" stroke="midnightblue" points="557.956,-130.705 547.391,-131.509 556.151,-137.469 557.956,-130.705"/>
</g>
<!-- Node19&#45;&gt;Node13 -->
<g id="edge32" class="edge"><title>Node19&#45;&gt;Node13</title>
<path fill="none" stroke="midnightblue" d="M546.557,-112.444C581.583,-102.793 638.465,-87.122 675.43,-76.9377"/>
<polygon fill="midnightblue" stroke="midnightblue" points="676.582,-80.2508 685.293,-74.2203 674.722,-73.5022 676.582,-80.2508"/>
</g>
<!-- Node19&#45;&gt;Node14 -->
<g id="edge31" class="edge"><title>Node19&#45;&gt;Node14</title>
<path fill="none" stroke="midnightblue" d="M434.906,-120.561C354.506,-118.206 238.962,-108.97 210.5,-76 195.693,-58.8478 218.531,-38.3224 238.455,-24.9905"/>
<polygon fill="midnightblue" stroke="midnightblue" points="240.412,-27.894 246.978,-19.5786 236.66,-21.9847 240.412,-27.894"/>
</g>
<!-- Node20 -->
<g id="node20" class="node"><title>Node20</title>
<g id="a_node20"><a xlink:href="MonitorObject_8h.html" target="_top" xlink:title="QualityControl/MonitorObject.h">
<polygon fill="none" stroke="black" points="358,-56.5 358,-75.5 509,-75.5 509,-56.5 358,-56.5"/>
<text text-anchor="middle" x="433.5" y="-63.5" font-family="Helvetica,sans-Serif" font-size="10.00">QualityControl/MonitorObject.h</text>
</a>
</g>
</g>
<!-- Node19&#45;&gt;Node20 -->
<g id="edge19" class="edge"><title>Node19&#45;&gt;Node20</title>
<path fill="none" stroke="midnightblue" d="M502.325,-112.324C489.653,-103.979 470.267,-91.2122 455.294,-81.3524"/>
<polygon fill="midnightblue" stroke="midnightblue" points="456.919,-78.2313 446.642,-75.6545 453.069,-84.0776 456.919,-78.2313"/>
</g>
<!-- Node24 -->
<g id="node24" class="node"><title>Node24</title>
<g id="a_node24"><a xlink:href="Quality_8h.html" target="_top" xlink:title="QualityControl/Quality.h">
<polygon fill="none" stroke="black" points="219,-56.5 219,-75.5 340,-75.5 340,-56.5 219,-56.5"/>
<text text-anchor="middle" x="279.5" y="-63.5" font-family="Helvetica,sans-Serif" font-size="10.00">QualityControl/Quality.h</text>
</a>
</g>
</g>
<!-- Node19&#45;&gt;Node24 -->
<g id="edge25" class="edge"><title>Node19&#45;&gt;Node24</title>
<path fill="none" stroke="midnightblue" d="M478.105,-112.444C437.108,-103.063 371.246,-87.9926 326.716,-77.8036"/>
<polygon fill="midnightblue" stroke="midnightblue" points="327.249,-74.3352 316.72,-75.5164 325.687,-81.1588 327.249,-74.3352"/>
</g>
<!-- Node25 -->
<g id="node25" class="node"><title>Node25</title>
<g id="a_node25"><a xlink:href="TaskConfig_8h.html" target="_top" xlink:title="QualityControl/TaskConfig.h">
<polygon fill="none" stroke="black" points="527.5,-56.5 527.5,-75.5 667.5,-75.5 667.5,-56.5 527.5,-56.5"/>
<text text-anchor="middle" x="597.5" y="-63.5" font-family="Helvetica,sans-Serif" font-size="10.00">QualityControl/TaskConfig.h</text>
</a>
</g>
</g>
<!-- Node19&#45;&gt;Node25 -->
<g id="edge28" class="edge"><title>Node19&#45;&gt;Node25</title>
<path fill="none" stroke="midnightblue" d="M528.675,-112.324C541.347,-103.979 560.733,-91.2122 575.706,-81.3524"/>
<polygon fill="midnightblue" stroke="midnightblue" points="577.931,-84.0776 584.358,-75.6545 574.081,-78.2313 577.931,-84.0776"/>
</g>
<!-- Node20&#45;&gt;Node12 -->
<g id="edge21" class="edge"><title>Node20&#45;&gt;Node12</title>
<path fill="none" stroke="midnightblue" d="M390.242,-56.4435C333.493,-45.2183 235.555,-25.8461 188.001,-16.4397"/>
<polygon fill="midnightblue" stroke="midnightblue" points="188.604,-12.9913 178.115,-14.4843 187.246,-19.8583 188.604,-12.9913"/>
</g>
<!-- Node20&#45;&gt;Node14 -->
<g id="edge20" class="edge"><title>Node20&#45;&gt;Node14</title>
<path fill="none" stroke="midnightblue" d="M406.405,-56.4435C375.473,-46.6756 325.005,-30.7385 292.796,-20.5673"/>
<polygon fill="midnightblue" stroke="midnightblue" points="293.618,-17.1565 283.028,-17.4826 291.51,-23.8316 293.618,-17.1565"/>
</g>
<!-- Node21 -->
<g id="node21" class="node"><title>Node21</title>
<polygon fill="none" stroke="#bfbfbf" points="301.5,-0.5 301.5,-19.5 357.5,-19.5 357.5,-0.5 301.5,-0.5"/>
<text text-anchor="middle" x="329.5" y="-7.5" font-family="Helvetica,sans-Serif" font-size="10.00">Rtypes.h</text>
</g>
<!-- Node20&#45;&gt;Node21 -->
<g id="edge22" class="edge"><title>Node20&#45;&gt;Node21</title>
<path fill="none" stroke="midnightblue" d="M416.791,-56.324C400.188,-47.7034 374.498,-34.3643 355.28,-24.3855"/>
<polygon fill="midnightblue" stroke="midnightblue" points="356.656,-21.1565 346.168,-19.6545 353.43,-27.3689 356.656,-21.1565"/>
</g>
<!-- Node22 -->
<g id="node22" class="node"><title>Node22</title>
<polygon fill="none" stroke="#bfbfbf" points="510,-0.5 510,-19.5 569,-19.5 569,-0.5 510,-0.5"/>
<text text-anchor="middle" x="539.5" y="-7.5" font-family="Helvetica,sans-Serif" font-size="10.00">TObject.h</text>
</g>
<!-- Node20&#45;&gt;Node22 -->
<g id="edge23" class="edge"><title>Node20&#45;&gt;Node22</title>
<path fill="none" stroke="midnightblue" d="M450.531,-56.324C467.53,-47.6641 493.876,-34.2424 513.493,-24.249"/>
<polygon fill="midnightblue" stroke="midnightblue" points="515.19,-27.3125 522.512,-19.6545 512.012,-21.0752 515.19,-27.3125"/>
</g>
<!-- Node23 -->
<g id="node23" class="node"><title>Node23</title>
<polygon fill="none" stroke="#bfbfbf" points="375.5,-0.5 375.5,-19.5 491.5,-19.5 491.5,-0.5 375.5,-0.5"/>
<text text-anchor="middle" x="433.5" y="-7.5" font-family="Helvetica,sans-Serif" font-size="10.00">Common/Exceptions.h</text>
</g>
<!-- Node20&#45;&gt;Node23 -->
<g id="edge24" class="edge"><title>Node20&#45;&gt;Node23</title>
<path fill="none" stroke="midnightblue" d="M433.5,-56.083C433.5,-49.0059 433.5,-38.8611 433.5,-29.9865"/>
<polygon fill="midnightblue" stroke="midnightblue" points="437,-29.751 433.5,-19.7511 430,-29.7511 437,-29.751"/>
</g>
<!-- Node24&#45;&gt;Node14 -->
<g id="edge27" class="edge"><title>Node24&#45;&gt;Node14</title>
<path fill="none" stroke="midnightblue" d="M276.693,-56.083C274.415,-48.8486 271.129,-38.4087 268.292,-29.3968"/>
<polygon fill="midnightblue" stroke="midnightblue" points="271.596,-28.2385 265.255,-19.7511 264.919,-30.3406 271.596,-28.2385"/>
</g>
<!-- Node24&#45;&gt;Node21 -->
<g id="edge26" class="edge"><title>Node24&#45;&gt;Node21</title>
<path fill="none" stroke="midnightblue" d="M287.756,-56.083C294.965,-48.2982 305.61,-36.8015 314.346,-27.3665"/>
<polygon fill="midnightblue" stroke="midnightblue" points="317.171,-29.4666 321.397,-19.7511 312.035,-24.7108 317.171,-29.4666"/>
</g>
<!-- Node25&#45;&gt;Node14 -->
<g id="edge29" class="edge"><title>Node25&#45;&gt;Node14</title>
<path fill="none" stroke="midnightblue" d="M532.067,-56.4784C460.912,-47.0237 350.713,-31.7874 293.165,-19.7936"/>
<polygon fill="midnightblue" stroke="midnightblue" points="293.569,-16.2996 283.053,-17.5939 292.081,-23.1397 293.569,-16.2996"/>
</g>
<!-- Node25&#45;&gt;Node15 -->
<g id="edge30" class="edge"><title>Node25&#45;&gt;Node15</title>
<path fill="none" stroke="midnightblue" d="M613.406,-56.324C629.138,-47.7428 653.442,-34.486 671.709,-24.5224"/>
<polygon fill="midnightblue" stroke="midnightblue" points="673.53,-27.5157 680.633,-19.6545 670.178,-21.3704 673.53,-27.5157"/>
</g>
<!-- Node26&#45;&gt;Node11 -->
<g id="edge35" class="edge"><title>Node26&#45;&gt;Node11</title>
<path fill="none" stroke="midnightblue" d="M562.872,-235.475C598.797,-225.048 659.732,-207.362 699.544,-195.807"/>
<polygon fill="midnightblue" stroke="midnightblue" points="700.555,-199.158 709.183,-193.009 698.604,-192.435 700.555,-199.158"/>
</g>
<!-- Node27 -->
<g id="node27" class="node"><title>Node27</title>
<polygon fill="none" stroke="#bfbfbf" points="476,-168.5 476,-198.5 591,-198.5 591,-168.5 476,-168.5"/>
<text text-anchor="start" x="484" y="-186.5" font-family="Helvetica,sans-Serif" font-size="10.00">MCHMappingInterface</text>
<text text-anchor="middle" x="533.5" y="-175.5" font-family="Helvetica,sans-Serif" font-size="10.00">/Segmentation.h</text>
</g>
<!-- Node26&#45;&gt;Node27 -->
<g id="edge34" class="edge"><title>Node26&#45;&gt;Node27</title>
<path fill="none" stroke="midnightblue" d="M533.5,-235.475C533.5,-228.471 533.5,-218.192 533.5,-208.696"/>
<polygon fill="midnightblue" stroke="midnightblue" points="537,-208.523 533.5,-198.523 530,-208.523 537,-208.523"/>
</g>
<!-- Node28&#45;&gt;Node11 -->
<g id="edge37" class="edge"><title>Node28&#45;&gt;Node11</title>
<path fill="none" stroke="midnightblue" d="M738.5,-291.319C738.5,-272.757 738.5,-228.839 738.5,-203.473"/>
<polygon fill="midnightblue" stroke="midnightblue" points="742,-203.282 738.5,-193.282 735,-203.282 742,-203.282"/>
</g>
<!-- Node28&#45;&gt;Node26 -->
<g id="edge39" class="edge"><title>Node28&#45;&gt;Node26</title>
<path fill="none" stroke="midnightblue" d="M706.017,-291.444C670.78,-282.162 614.396,-267.309 575.741,-257.127"/>
<polygon fill="midnightblue" stroke="midnightblue" points="576.393,-253.679 565.831,-254.516 574.609,-260.448 576.393,-253.679"/>
</g>
<!-- Node29 -->
<g id="node29" class="node"><title>Node29</title>
<g id="a_node29"><a xlink:href="sampa__header_8h_source.html" target="_top" xlink:title="MCH/sampa_header.h">
<polygon fill="none" stroke="black" points="595,-235.5 595,-254.5 710,-254.5 710,-235.5 595,-235.5"/>
<text text-anchor="middle" x="652.5" y="-242.5" font-family="Helvetica,sans-Serif" font-size="10.00">MCH/sampa_header.h</text>
</a>
</g>
</g>
<!-- Node28&#45;&gt;Node29 -->
<g id="edge38" class="edge"><title>Node28&#45;&gt;Node29</title>
<path fill="none" stroke="midnightblue" d="M724.683,-291.324C711.267,-282.9 690.676,-269.971 674.914,-260.074"/>
<polygon fill="midnightblue" stroke="midnightblue" points="676.613,-257.008 666.283,-254.655 672.891,-262.936 676.613,-257.008"/>
</g>
<!-- Node28&#45;&gt;Node30 -->
<g id="edge40" class="edge"><title>Node28&#45;&gt;Node30</title>
<path fill="none" stroke="midnightblue" d="M750.55,-291.324C761.963,-283.107 779.331,-270.602 792.935,-260.807"/>
<polygon fill="midnightblue" stroke="midnightblue" points="795.16,-263.517 801.231,-254.834 791.07,-257.837 795.16,-263.517"/>
</g>
</g>
</svg>
