<?xml version="1.0" encoding="UTF-8" standalone="no"?>
<!DOCTYPE svg PUBLIC "-//W3C//DTD SVG 1.1//EN"
 "http://www.w3.org/Graphics/SVG/1.1/DTD/svg11.dtd">
<!-- Generated by graphviz version 2.38.0 (20140413.2041)
 -->
<!-- Title: Modules/TPC/include/TPC/PID.h Pages: 1 -->
<svg width="851pt" height="263pt"
 viewBox="0.00 0.00 851.00 263.00" xmlns="http://www.w3.org/2000/svg" xmlns:xlink="http://www.w3.org/1999/xlink">
<g id="graph0" class="graph" transform="scale(1 1) rotate(0) translate(4 259)">
<title>Modules/TPC/include/TPC/PID.h</title>
<!-- Node1 -->
<g id="node1" class="node"><title>Node1</title>
<polygon fill="#bfbfbf" stroke="black" points="51,-224.5 51,-254.5 161,-254.5 161,-224.5 51,-224.5"/>
<text text-anchor="start" x="59" y="-242.5" font-family="Helvetica,sans-Serif" font-size="10.00">Modules/TPC/include</text>
<text text-anchor="middle" x="106" y="-231.5" font-family="Helvetica,sans-Serif" font-size="10.00">/TPC/PID.h</text>
</g>
<!-- Node2 -->
<g id="node2" class="node"><title>Node2</title>
<polygon fill="none" stroke="#bfbfbf" points="0,-168.5 0,-187.5 80,-187.5 80,-168.5 0,-168.5"/>
<text text-anchor="middle" x="40" y="-175.5" font-family="Helvetica,sans-Serif" font-size="10.00">TPCQC/PID.h</text>
</g>
<!-- Node1&#45;&gt;Node2 -->
<g id="edge1" class="edge"><title>Node1&#45;&gt;Node2</title>
<path fill="none" stroke="midnightblue" d="M90.3589,-224.399C80.3728,-215.397 67.422,-203.721 57.1546,-194.465"/>
<polygon fill="midnightblue" stroke="midnightblue" points="59.3745,-191.754 49.6036,-187.658 54.6874,-196.953 59.3745,-191.754"/>
</g>
<!-- Node3 -->
<g id="node3" class="node"><title>Node3</title>
<g id="a_node3"><a xlink:href="TaskInterface_8h.html" target="_top" xlink:title="QualityControl/TaskInterface.h">
<polygon fill="none" stroke="black" points="98,-168.5 98,-187.5 248,-187.5 248,-168.5 98,-168.5"/>
<text text-anchor="middle" x="173" y="-175.5" font-family="Helvetica,sans-Serif" font-size="10.00">QualityControl/TaskInterface.h</text>
</a>
</g>
</g>
<!-- Node1&#45;&gt;Node3 -->
<g id="edge2" class="edge"><title>Node1&#45;&gt;Node3</title>
<path fill="none" stroke="midnightblue" d="M121.878,-224.399C132.015,-215.397 145.162,-203.721 155.585,-194.465"/>
<polygon fill="midnightblue" stroke="midnightblue" points="158.098,-196.915 163.251,-187.658 153.45,-191.681 158.098,-196.915"/>
</g>
<!-- Node4 -->
<g id="node4" class="node"><title>Node4</title>
<polygon fill="none" stroke="#bfbfbf" points="305.5,-0.5 305.5,-19.5 340.5,-19.5 340.5,-0.5 305.5,-0.5"/>
<text text-anchor="middle" x="323" y="-7.5" font-family="Helvetica,sans-Serif" font-size="10.00">map</text>
</g>
<!-- Node3&#45;&gt;Node4 -->
<g id="edge3" class="edge"><title>Node3&#45;&gt;Node4</title>
<path fill="none" stroke="midnightblue" d="M129.933,-168.486C109.604,-162.074 87.1772,-150.991 75,-132 56.7677,-103.565 53.3524,-81.9291 75,-56 102.853,-22.6382 236.793,-13.9562 295.42,-11.7405"/>
<polygon fill="midnightblue" stroke="midnightblue" points="295.573,-15.2374 305.448,-11.3975 295.334,-8.24147 295.573,-15.2374"/>
</g>
<!-- Node5 -->
<g id="node5" class="node"><title>Node5</title>
<polygon fill="none" stroke="#bfbfbf" points="168,-56.5 168,-75.5 220,-75.5 220,-56.5 168,-56.5"/>
<text text-anchor="middle" x="194" y="-63.5" font-family="Helvetica,sans-Serif" font-size="10.00">memory</text>
</g>
<!-- Node3&#45;&gt;Node5 -->
<g id="edge4" class="edge"><title>Node3&#45;&gt;Node5</title>
<path fill="none" stroke="midnightblue" d="M164.6,-168.133C153.784,-155.587 137.353,-131.958 146,-112 151.268,-99.8399 161.62,-89.4594 171.365,-81.7429"/>
<polygon fill="midnightblue" stroke="midnightblue" points="173.644,-84.4116 179.63,-75.6698 169.499,-78.7707 173.644,-84.4116"/>
</g>
<!-- Node6 -->
<g id="node6" class="node"><title>Node6</title>
<polygon fill="none" stroke="#bfbfbf" points="435.5,-0.5 435.5,-19.5 476.5,-19.5 476.5,-0.5 435.5,-0.5"/>
<text text-anchor="middle" x="456" y="-7.5" font-family="Helvetica,sans-Serif" font-size="10.00">string</text>
</g>
<!-- Node3&#45;&gt;Node6 -->
<g id="edge5" class="edge"><title>Node3&#45;&gt;Node6</title>
<path fill="none" stroke="midnightblue" d="M163.98,-168.34C155.928,-159.932 144.702,-146.363 140,-132 129.168,-98.9107 132.304,-78.3509 159,-56 179.253,-39.0433 353.467,-20.7414 425.266,-13.8438"/>
<polygon fill="midnightblue" stroke="midnightblue" points="425.855,-17.3037 435.479,-12.8734 425.193,-10.3351 425.855,-17.3037"/>
</g>
<!-- Node7 -->
<g id="node7" class="node"><title>Node7</title>
<polygon fill="none" stroke="#bfbfbf" points="49.5,-0.5 49.5,-19.5 132.5,-19.5 132.5,-0.5 49.5,-0.5"/>
<text text-anchor="middle" x="91" y="-7.5" font-family="Helvetica,sans-Serif" font-size="10.00">unordered_map</text>
</g>
<!-- Node3&#45;&gt;Node7 -->
<g id="edge6" class="edge"><title>Node3&#45;&gt;Node7</title>
<path fill="none" stroke="midnightblue" d="M97.8418,-169.312C74.5481,-162.981 51.2728,-151.756 37,-132 17.2196,-104.62 22.673,-86.5888 37,-56 43.0448,-43.0941 54.8119,-32.5985 65.8226,-24.9999"/>
<polygon fill="midnightblue" stroke="midnightblue" points="67.8276,-27.8723 74.367,-19.5364 64.0566,-21.9748 67.8276,-27.8723"/>
</g>
<!-- Node8 -->
<g id="node8" class="node"><title>Node8</title>
<polygon fill="none" stroke="#bfbfbf" points="155.5,-112.5 155.5,-131.5 280.5,-131.5 280.5,-112.5 155.5,-112.5"/>
<text text-anchor="middle" x="218" y="-119.5" font-family="Helvetica,sans-Serif" font-size="10.00">Framework/InitContext.h</text>
</g>
<!-- Node3&#45;&gt;Node8 -->
<g id="edge7" class="edge"><title>Node3&#45;&gt;Node8</title>
<path fill="none" stroke="midnightblue" d="M180.431,-168.083C186.853,-160.377 196.306,-149.033 204.122,-139.653"/>
<polygon fill="midnightblue" stroke="midnightblue" points="206.994,-141.674 210.707,-131.751 201.617,-137.193 206.994,-141.674"/>
</g>
<!-- Node9 -->
<g id="node9" class="node"><title>Node9</title>
<polygon fill="none" stroke="#bfbfbf" points="299,-112.5 299,-131.5 459,-131.5 459,-112.5 299,-112.5"/>
<text text-anchor="middle" x="379" y="-119.5" font-family="Helvetica,sans-Serif" font-size="10.00">Framework/ProcessingContext.h</text>
</g>
<!-- Node3&#45;&gt;Node9 -->
<g id="edge8" class="edge"><title>Node3&#45;&gt;Node9</title>
<path fill="none" stroke="midnightblue" d="M205.641,-168.444C241.05,-159.162 297.709,-144.309 336.553,-134.127"/>
<polygon fill="midnightblue" stroke="midnightblue" points="337.726,-137.438 346.511,-131.516 335.951,-130.667 337.726,-137.438"/>
</g>
<!-- Node10 -->
<g id="node10" class="node"><title>Node10</title>
<g id="a_node10"><a xlink:href="Activity_8h.html" target="_top" xlink:title="QualityControl/Activity.h">
<polygon fill="none" stroke="black" points="477.5,-112.5 477.5,-131.5 600.5,-131.5 600.5,-112.5 477.5,-112.5"/>
<text text-anchor="middle" x="539" y="-119.5" font-family="Helvetica,sans-Serif" font-size="10.00">QualityControl/Activity.h</text>
</a>
</g>
</g>
<!-- Node3&#45;&gt;Node10 -->
<g id="edge9" class="edge"><title>Node3&#45;&gt;Node10</title>
<path fill="none" stroke="midnightblue" d="M230.994,-168.444C296.314,-158.806 402.337,-143.163 471.37,-132.978"/>
<polygon fill="midnightblue" stroke="midnightblue" points="471.896,-136.439 481.278,-131.516 470.874,-129.514 471.896,-136.439"/>
</g>
<!-- Node11 -->
<g id="node11" class="node"><title>Node11</title>
<g id="a_node11"><a xlink:href="ObjectsManager_8h.html" target="_top" xlink:title="QualityControl/ObjectsManager.h">
<polygon fill="none" stroke="black" points="618.5,-112.5 618.5,-131.5 779.5,-131.5 779.5,-112.5 618.5,-112.5"/>
<text text-anchor="middle" x="699" y="-119.5" font-family="Helvetica,sans-Serif" font-size="10.00">QualityControl/ObjectsManager.h</text>
</a>
</g>
</g>
<!-- Node3&#45;&gt;Node11 -->
<g id="edge10" class="edge"><title>Node3&#45;&gt;Node11</title>
<path fill="none" stroke="midnightblue" d="M248.083,-169.292C342.994,-159.548 506.249,-142.788 608.105,-132.331"/>
<polygon fill="midnightblue" stroke="midnightblue" points="608.481,-135.811 618.072,-131.308 607.766,-128.848 608.481,-135.811"/>
</g>
<!-- Node11&#45;&gt;Node5 -->
<g id="edge24" class="edge"><title>Node11&#45;&gt;Node5</title>
<path fill="none" stroke="midnightblue" d="M619.26,-112.473C508.206,-100.598 311.495,-79.5638 230.452,-70.8979"/>
<polygon fill="midnightblue" stroke="midnightblue" points="230.57,-67.3905 220.254,-69.8074 229.825,-74.3509 230.57,-67.3905"/>
</g>
<!-- Node11&#45;&gt;Node6 -->
<g id="edge23" class="edge"><title>Node11&#45;&gt;Node6</title>
<path fill="none" stroke="midnightblue" d="M640.749,-112.481C578.535,-102.887 487.185,-87.1783 475,-76 462.159,-64.2199 457.818,-44.2915 456.439,-29.5992"/>
<polygon fill="midnightblue" stroke="midnightblue" points="459.933,-29.391 455.87,-19.6061 452.944,-29.7889 459.933,-29.391"/>
</g>
<!-- Node12 -->
<g id="node12" class="node"><title>Node12</title>
<g id="a_node12"><a xlink:href="MonitorObject_8h.html" target="_top" xlink:title="QualityControl/MonitorObject.h">
<polygon fill="none" stroke="black" points="623.5,-56.5 623.5,-75.5 774.5,-75.5 774.5,-56.5 623.5,-56.5"/>
<text text-anchor="middle" x="699" y="-63.5" font-family="Helvetica,sans-Serif" font-size="10.00">QualityControl/MonitorObject.h</text>
</a>
</g>
</g>
<!-- Node11&#45;&gt;Node12 -->
<g id="edge11" class="edge"><title>Node11&#45;&gt;Node12</title>
<path fill="none" stroke="midnightblue" d="M699,-112.083C699,-105.006 699,-94.8611 699,-85.9865"/>
<polygon fill="midnightblue" stroke="midnightblue" points="702.5,-85.751 699,-75.7511 695.5,-85.7511 702.5,-85.751"/>
</g>
<!-- Node16 -->
<g id="node16" class="node"><title>Node16</title>
<g id="a_node16"><a xlink:href="Quality_8h.html" target="_top" xlink:title="QualityControl/Quality.h">
<polygon fill="none" stroke="black" points="484.5,-56.5 484.5,-75.5 605.5,-75.5 605.5,-56.5 484.5,-56.5"/>
<text text-anchor="middle" x="545" y="-63.5" font-family="Helvetica,sans-Serif" font-size="10.00">QualityControl/Quality.h</text>
</a>
</g>
</g>
<!-- Node11&#45;&gt;Node16 -->
<g id="edge17" class="edge"><title>Node11&#45;&gt;Node16</title>
<path fill="none" stroke="midnightblue" d="M674.598,-112.444C648.803,-103.399 607.923,-89.064 578.982,-78.9158"/>
<polygon fill="midnightblue" stroke="midnightblue" points="579.882,-75.5226 569.288,-75.5164 577.566,-82.1283 579.882,-75.5226"/>
</g>
<!-- Node17 -->
<g id="node17" class="node"><title>Node17</title>
<g id="a_node17"><a xlink:href="TaskConfig_8h.html" target="_top" xlink:title="QualityControl/TaskConfig.h">
<polygon fill="none" stroke="black" points="288,-56.5 288,-75.5 428,-75.5 428,-56.5 288,-56.5"/>
<text text-anchor="middle" x="358" y="-63.5" font-family="Helvetica,sans-Serif" font-size="10.00">QualityControl/TaskConfig.h</text>
</a>
</g>
</g>
<!-- Node11&#45;&gt;Node17 -->
<g id="edge20" class="edge"><title>Node11&#45;&gt;Node17</title>
<path fill="none" stroke="midnightblue" d="M644.968,-112.444C584.359,-102.846 486.138,-87.2916 421.803,-77.1037"/>
<polygon fill="midnightblue" stroke="midnightblue" points="422.204,-73.6237 411.78,-75.5164 421.109,-80.5375 422.204,-73.6237"/>
</g>
<!-- Node12&#45;&gt;Node4 -->
<g id="edge13" class="edge"><title>Node12&#45;&gt;Node4</title>
<path fill="none" stroke="midnightblue" d="M639.422,-56.4435C556.986,-44.6044 411.448,-23.7026 350.773,-14.9887"/>
<polygon fill="midnightblue" stroke="midnightblue" points="351.19,-11.5127 340.794,-13.5555 350.195,-18.4416 351.19,-11.5127"/>
</g>
<!-- Node12&#45;&gt;Node6 -->
<g id="edge12" class="edge"><title>Node12&#45;&gt;Node6</title>
<path fill="none" stroke="midnightblue" d="M660.496,-56.4435C612.301,-45.7335 530.732,-27.6072 486.583,-17.7961"/>
<polygon fill="midnightblue" stroke="midnightblue" points="487.243,-14.3576 476.722,-15.6049 485.725,-21.191 487.243,-14.3576"/>
</g>
<!-- Node13 -->
<g id="node13" class="node"><title>Node13</title>
<polygon fill="none" stroke="#bfbfbf" points="536,-0.5 536,-19.5 592,-19.5 592,-0.5 536,-0.5"/>
<text text-anchor="middle" x="564" y="-7.5" font-family="Helvetica,sans-Serif" font-size="10.00">Rtypes.h</text>
</g>
<!-- Node12&#45;&gt;Node13 -->
<g id="edge14" class="edge"><title>Node12&#45;&gt;Node13</title>
<path fill="none" stroke="midnightblue" d="M677.609,-56.4435C655.293,-47.5171 620.097,-33.4387 594.792,-23.3168"/>
<polygon fill="midnightblue" stroke="midnightblue" points="595.876,-19.9807 585.291,-19.5164 593.276,-26.4801 595.876,-19.9807"/>
</g>
<!-- Node14 -->
<g id="node14" class="node"><title>Node14</title>
<polygon fill="none" stroke="#bfbfbf" points="649.5,-0.5 649.5,-19.5 708.5,-19.5 708.5,-0.5 649.5,-0.5"/>
<text text-anchor="middle" x="679" y="-7.5" font-family="Helvetica,sans-Serif" font-size="10.00">TObject.h</text>
</g>
<!-- Node12&#45;&gt;Node14 -->
<g id="edge15" class="edge"><title>Node12&#45;&gt;Node14</title>
<path fill="none" stroke="midnightblue" d="M695.697,-56.083C693.018,-48.8486 689.151,-38.4087 685.814,-29.3968"/>
<polygon fill="midnightblue" stroke="midnightblue" points="688.996,-27.9129 682.241,-19.7511 682.432,-30.3442 688.996,-27.9129"/>
</g>
<!-- Node15 -->
<g id="node15" class="node"><title>Node15</title>
<polygon fill="none" stroke="#bfbfbf" points="727,-0.5 727,-19.5 843,-19.5 843,-0.5 727,-0.5"/>
<text text-anchor="middle" x="785" y="-7.5" font-family="Helvetica,sans-Serif" font-size="10.00">Common/Exceptions.h</text>
</g>
<!-- Node12&#45;&gt;Node15 -->
<g id="edge16" class="edge"><title>Node12&#45;&gt;Node15</title>
<path fill="none" stroke="midnightblue" d="M712.817,-56.324C726.233,-47.9002 746.824,-34.9709 762.586,-25.0741"/>
<polygon fill="midnightblue" stroke="midnightblue" points="764.609,-27.9364 771.217,-19.6545 760.887,-22.0081 764.609,-27.9364"/>
</g>
<!-- Node16&#45;&gt;Node6 -->
<g id="edge19" class="edge"><title>Node16&#45;&gt;Node6</title>
<path fill="none" stroke="midnightblue" d="M530.701,-56.324C516.817,-47.9002 495.508,-34.9709 479.196,-25.0741"/>
<polygon fill="midnightblue" stroke="midnightblue" points="480.629,-21.8495 470.264,-19.6545 476.998,-27.8341 480.629,-21.8495"/>
</g>
<!-- Node16&#45;&gt;Node13 -->
<g id="edge18" class="edge"><title>Node16&#45;&gt;Node13</title>
<path fill="none" stroke="midnightblue" d="M548.137,-56.083C550.683,-48.8486 554.356,-38.4087 557.527,-29.3968"/>
<polygon fill="midnightblue" stroke="midnightblue" points="560.903,-30.3459 560.921,-19.7511 554.3,-28.0225 560.903,-30.3459"/>
</g>
<!-- Node17&#45;&gt;Node6 -->
<g id="edge21" class="edge"><title>Node17&#45;&gt;Node6</title>
<path fill="none" stroke="midnightblue" d="M373.745,-56.324C389.319,-47.7428 413.377,-34.486 431.459,-24.5224"/>
<polygon fill="midnightblue" stroke="midnightblue" points="433.224,-27.546 440.294,-19.6545 429.846,-21.4152 433.224,-27.546"/>
</g>
<!-- Node17&#45;&gt;Node7 -->
<g id="edge22" class="edge"><title>Node17&#45;&gt;Node7</title>
<path fill="none" stroke="midnightblue" d="M315.693,-56.4435C268.783,-46.9561 193.096,-31.6487 142.706,-21.4574"/>
<polygon fill="midnightblue" stroke="midnightblue" points="143.165,-17.9794 132.669,-19.4275 141.777,-24.8405 143.165,-17.9794"/>
</g>
</g>
</svg>
