<?xml version="1.0" encoding="UTF-8" standalone="no"?>
<!DOCTYPE svg PUBLIC "-//W3C//DTD SVG 1.1//EN"
 "http://www.w3.org/Graphics/SVG/1.1/DTD/svg11.dtd">
<!-- Generated by graphviz version 2.38.0 (20140413.2041)
 -->
<!-- Title: Modules/EMCAL/src/RawCheck.cxx Pages: 1 -->
<svg width="888pt" height="252pt"
 viewBox="0.00 0.00 888.00 252.00" xmlns="http://www.w3.org/2000/svg" xmlns:xlink="http://www.w3.org/1999/xlink">
<g id="graph0" class="graph" transform="scale(1 1) rotate(0) translate(4 248)">
<title>Modules/EMCAL/src/RawCheck.cxx</title>
<!-- Node1 -->
<g id="node1" class="node"><title>Node1</title>
<polygon fill="#bfbfbf" stroke="black" points="291.5,-224.5 291.5,-243.5 469.5,-243.5 469.5,-224.5 291.5,-224.5"/>
<text text-anchor="middle" x="380.5" y="-231.5" font-family="Helvetica,sans-Serif" font-size="10.00">Modules/EMCAL/src/RawCheck.cxx</text>
</g>
<!-- Node2 -->
<g id="node2" class="node"><title>Node2</title>
<polygon fill="none" stroke="#bfbfbf" points="0,-168.5 0,-187.5 65,-187.5 65,-168.5 0,-168.5"/>
<text text-anchor="middle" x="32.5" y="-175.5" font-family="Helvetica,sans-Serif" font-size="10.00">TCanvas.h</text>
</g>
<!-- Node1&#45;&gt;Node2 -->
<g id="edge1" class="edge"><title>Node1&#45;&gt;Node2</title>
<path fill="none" stroke="midnightblue" d="M314.04,-224.496C254.163,-216.545 163.51,-203.793 74.9653,-187.978"/>
<polygon fill="midnightblue" stroke="midnightblue" points="75.48,-184.514 65.018,-186.187 74.2393,-191.404 75.48,-184.514"/>
</g>
<!-- Node3 -->
<g id="node3" class="node"><title>Node3</title>
<polygon fill="none" stroke="#bfbfbf" points="83.5,-168.5 83.5,-187.5 127.5,-187.5 127.5,-168.5 83.5,-168.5"/>
<text text-anchor="middle" x="105.5" y="-175.5" font-family="Helvetica,sans-Serif" font-size="10.00">TH1.h</text>
</g>
<!-- Node1&#45;&gt;Node3 -->
<g id="edge2" class="edge"><title>Node1&#45;&gt;Node3</title>
<path fill="none" stroke="midnightblue" d="M325.419,-224.461C277.981,-216.74 207.521,-204.404 137.635,-188.087"/>
<polygon fill="midnightblue" stroke="midnightblue" points="138.317,-184.651 127.78,-185.758 136.707,-191.464 138.317,-184.651"/>
</g>
<!-- Node4 -->
<g id="node4" class="node"><title>Node4</title>
<polygon fill="none" stroke="#bfbfbf" points="145.5,-168.5 145.5,-187.5 189.5,-187.5 189.5,-168.5 145.5,-168.5"/>
<text text-anchor="middle" x="167.5" y="-175.5" font-family="Helvetica,sans-Serif" font-size="10.00">TH2.h</text>
</g>
<!-- Node1&#45;&gt;Node4 -->
<g id="edge3" class="edge"><title>Node1&#45;&gt;Node4</title>
<path fill="none" stroke="midnightblue" d="M344.701,-224.441C308.128,-215.616 249.738,-201.306 199.5,-188 199.399,-187.973 199.298,-187.946 199.196,-187.919"/>
<polygon fill="midnightblue" stroke="midnightblue" points="200.078,-184.532 189.51,-185.285 198.241,-191.287 200.078,-184.532"/>
</g>
<!-- Node5 -->
<g id="node5" class="node"><title>Node5</title>
<polygon fill="none" stroke="#bfbfbf" points="208,-168.5 208,-187.5 281,-187.5 281,-168.5 208,-168.5"/>
<text text-anchor="middle" x="244.5" y="-175.5" font-family="Helvetica,sans-Serif" font-size="10.00">TPaveText.h</text>
</g>
<!-- Node1&#45;&gt;Node5 -->
<g id="edge4" class="edge"><title>Node1&#45;&gt;Node5</title>
<path fill="none" stroke="midnightblue" d="M358.95,-224.444C336.469,-215.517 301.012,-201.439 275.52,-191.317"/>
<polygon fill="midnightblue" stroke="midnightblue" points="276.535,-187.954 265.949,-187.516 273.951,-194.46 276.535,-187.954"/>
</g>
<!-- Node6 -->
<g id="node6" class="node"><title>Node6</title>
<polygon fill="none" stroke="#bfbfbf" points="299,-168.5 299,-187.5 346,-187.5 346,-168.5 299,-168.5"/>
<text text-anchor="middle" x="322.5" y="-175.5" font-family="Helvetica,sans-Serif" font-size="10.00">TList.h</text>
</g>
<!-- Node1&#45;&gt;Node6 -->
<g id="edge5" class="edge"><title>Node1&#45;&gt;Node6</title>
<path fill="none" stroke="midnightblue" d="M371.181,-224.324C362.607,-216.341 349.688,-204.313 339.312,-194.653"/>
<polygon fill="midnightblue" stroke="midnightblue" points="341.692,-192.086 331.988,-187.834 336.922,-197.21 341.692,-192.086"/>
</g>
<!-- Node7 -->
<g id="node7" class="node"><title>Node7</title>
<g id="a_node7"><a xlink:href="QcInfoLogger_8h.html" target="_top" xlink:title="QualityControl/QcInfoLogger.h">
<polygon fill="none" stroke="black" points="364,-168.5 364,-187.5 513,-187.5 513,-168.5 364,-168.5"/>
<text text-anchor="middle" x="438.5" y="-175.5" font-family="Helvetica,sans-Serif" font-size="10.00">QualityControl/QcInfoLogger.h</text>
</a>
</g>
</g>
<!-- Node1&#45;&gt;Node7 -->
<g id="edge6" class="edge"><title>Node1&#45;&gt;Node7</title>
<path fill="none" stroke="midnightblue" d="M389.819,-224.324C398.393,-216.341 411.312,-204.313 421.688,-194.653"/>
<polygon fill="midnightblue" stroke="midnightblue" points="424.078,-197.21 429.012,-187.834 419.308,-192.086 424.078,-197.21"/>
</g>
<!-- Node9 -->
<g id="node9" class="node"><title>Node9</title>
<g id="a_node9"><a xlink:href="MonitorObject_8h.html" target="_top" xlink:title="QualityControl/MonitorObject.h">
<polygon fill="none" stroke="black" points="348,-56.5 348,-75.5 499,-75.5 499,-56.5 348,-56.5"/>
<text text-anchor="middle" x="423.5" y="-63.5" font-family="Helvetica,sans-Serif" font-size="10.00">QualityControl/MonitorObject.h</text>
</a>
</g>
</g>
<!-- Node1&#45;&gt;Node9 -->
<g id="edge8" class="edge"><title>Node1&#45;&gt;Node9</title>
<path fill="none" stroke="midnightblue" d="M464.845,-224.464C487.119,-217.917 508.751,-206.78 522.5,-188 533.445,-173.05 528.735,-133.82 512.5,-112 501.095,-96.6723 482.987,-86.1976 466.073,-79.24"/>
<polygon fill="midnightblue" stroke="midnightblue" points="466.903,-75.8117 456.312,-75.5398 464.422,-82.3572 466.903,-75.8117"/>
</g>
<!-- Node15 -->
<g id="node15" class="node"><title>Node15</title>
<g id="a_node15"><a xlink:href="Quality_8h.html" target="_top" xlink:title="QualityControl/Quality.h">
<polygon fill="none" stroke="black" points="733,-56.5 733,-75.5 854,-75.5 854,-56.5 733,-56.5"/>
<text text-anchor="middle" x="793.5" y="-63.5" font-family="Helvetica,sans-Serif" font-size="10.00">QualityControl/Quality.h</text>
</a>
</g>
</g>
<!-- Node1&#45;&gt;Node15 -->
<g id="edge14" class="edge"><title>Node1&#45;&gt;Node15</title>
<path fill="none" stroke="midnightblue" d="M469.515,-228.091C550.573,-222.273 663.264,-210.403 701.5,-188 743.293,-163.513 772.451,-111.936 785.607,-84.7044"/>
<polygon fill="midnightblue" stroke="midnightblue" points="788.813,-86.11 789.859,-75.5668 782.467,-83.1568 788.813,-86.11"/>
</g>
<!-- Node16 -->
<g id="node16" class="node"><title>Node16</title>
<polygon fill="none" stroke="#bfbfbf" points="783,-168.5 783,-187.5 880,-187.5 880,-168.5 783,-168.5"/>
<text text-anchor="middle" x="831.5" y="-175.5" font-family="Helvetica,sans-Serif" font-size="10.00">fairlogger/Logger.h</text>
</g>
<!-- Node1&#45;&gt;Node16 -->
<g id="edge17" class="edge"><title>Node1&#45;&gt;Node16</title>
<path fill="none" stroke="midnightblue" d="M459.345,-224.473C537.793,-215.844 661.569,-201.836 768.5,-188 769.794,-187.833 771.103,-187.661 772.423,-187.487"/>
<polygon fill="midnightblue" stroke="midnightblue" points="773.236,-190.909 782.678,-186.104 772.3,-183.972 773.236,-190.909"/>
</g>
<!-- Node17 -->
<g id="node17" class="node"><title>Node17</title>
<g id="a_node17"><a xlink:href="RawCheck_8h.html" target="_top" xlink:title="EMCAL/RawCheck.h">
<polygon fill="none" stroke="black" points="581,-168.5 581,-187.5 692,-187.5 692,-168.5 581,-168.5"/>
<text text-anchor="middle" x="636.5" y="-175.5" font-family="Helvetica,sans-Serif" font-size="10.00">EMCAL/RawCheck.h</text>
</a>
</g>
</g>
<!-- Node1&#45;&gt;Node17 -->
<g id="edge18" class="edge"><title>Node1&#45;&gt;Node17</title>
<path fill="none" stroke="midnightblue" d="M421.064,-224.444C465.816,-215.004 537.883,-199.802 586.195,-189.611"/>
<polygon fill="midnightblue" stroke="midnightblue" points="587.064,-193.005 596.126,-187.516 585.619,-186.156 587.064,-193.005"/>
</g>
<!-- Node8 -->
<g id="node8" class="node"><title>Node8</title>
<polygon fill="none" stroke="#bfbfbf" points="373.5,-112.5 373.5,-131.5 503.5,-131.5 503.5,-112.5 373.5,-112.5"/>
<text text-anchor="middle" x="438.5" y="-119.5" font-family="Helvetica,sans-Serif" font-size="10.00">InfoLogger/InfoLogger.hxx</text>
</g>
<!-- Node7&#45;&gt;Node8 -->
<g id="edge7" class="edge"><title>Node7&#45;&gt;Node8</title>
<path fill="none" stroke="midnightblue" d="M438.5,-168.083C438.5,-161.006 438.5,-150.861 438.5,-141.986"/>
<polygon fill="midnightblue" stroke="midnightblue" points="442,-141.751 438.5,-131.751 435,-141.751 442,-141.751"/>
</g>
<!-- Node10 -->
<g id="node10" class="node"><title>Node10</title>
<polygon fill="none" stroke="#bfbfbf" points="699,-0.5 699,-19.5 740,-19.5 740,-0.5 699,-0.5"/>
<text text-anchor="middle" x="719.5" y="-7.5" font-family="Helvetica,sans-Serif" font-size="10.00">string</text>
</g>
<!-- Node9&#45;&gt;Node10 -->
<g id="edge9" class="edge"><title>Node9&#45;&gt;Node10</title>
<path fill="none" stroke="midnightblue" d="M487.361,-56.4648C539.195,-49.0204 614.297,-37.0664 688.891,-19.882"/>
<polygon fill="midnightblue" stroke="midnightblue" points="689.992,-23.2192 698.933,-17.5357 688.399,-16.4027 689.992,-23.2192"/>
</g>
<!-- Node11 -->
<g id="node11" class="node"><title>Node11</title>
<polygon fill="none" stroke="#bfbfbf" points="553,-0.5 553,-19.5 588,-19.5 588,-0.5 553,-0.5"/>
<text text-anchor="middle" x="570.5" y="-7.5" font-family="Helvetica,sans-Serif" font-size="10.00">map</text>
</g>
<!-- Node9&#45;&gt;Node11 -->
<g id="edge10" class="edge"><title>Node9&#45;&gt;Node11</title>
<path fill="none" stroke="midnightblue" d="M446.793,-56.4435C473.038,-46.8024 515.643,-31.1514 543.369,-20.9664"/>
<polygon fill="midnightblue" stroke="midnightblue" points="544.673,-24.2162 552.853,-17.4826 542.259,-17.6455 544.673,-24.2162"/>
</g>
<!-- Node12 -->
<g id="node12" class="node"><title>Node12</title>
<polygon fill="none" stroke="#bfbfbf" points="624.5,-0.5 624.5,-19.5 680.5,-19.5 680.5,-0.5 624.5,-0.5"/>
<text text-anchor="middle" x="652.5" y="-7.5" font-family="Helvetica,sans-Serif" font-size="10.00">Rtypes.h</text>
</g>
<!-- Node9&#45;&gt;Node12 -->
<g id="edge11" class="edge"><title>Node9&#45;&gt;Node12</title>
<path fill="none" stroke="midnightblue" d="M459.786,-56.4435C502.052,-46.4769 571.554,-30.0877 614.529,-19.954"/>
<polygon fill="midnightblue" stroke="midnightblue" points="615.395,-23.3456 624.325,-17.6439 613.789,-16.5325 615.395,-23.3456"/>
</g>
<!-- Node13 -->
<g id="node13" class="node"><title>Node13</title>
<polygon fill="none" stroke="#bfbfbf" points="306,-0.5 306,-19.5 365,-19.5 365,-0.5 306,-0.5"/>
<text text-anchor="middle" x="335.5" y="-7.5" font-family="Helvetica,sans-Serif" font-size="10.00">TObject.h</text>
</g>
<!-- Node9&#45;&gt;Node13 -->
<g id="edge12" class="edge"><title>Node9&#45;&gt;Node13</title>
<path fill="none" stroke="midnightblue" d="M409.361,-56.324C395.634,-47.9002 374.564,-34.9709 358.436,-25.0741"/>
<polygon fill="midnightblue" stroke="midnightblue" points="359.957,-21.9016 349.604,-19.6545 356.296,-27.8678 359.957,-21.9016"/>
</g>
<!-- Node14 -->
<g id="node14" class="node"><title>Node14</title>
<polygon fill="none" stroke="#bfbfbf" points="383.5,-0.5 383.5,-19.5 499.5,-19.5 499.5,-0.5 383.5,-0.5"/>
<text text-anchor="middle" x="441.5" y="-7.5" font-family="Helvetica,sans-Serif" font-size="10.00">Common/Exceptions.h</text>
</g>
<!-- Node9&#45;&gt;Node14 -->
<g id="edge13" class="edge"><title>Node9&#45;&gt;Node14</title>
<path fill="none" stroke="midnightblue" d="M426.472,-56.083C428.884,-48.8486 432.364,-38.4087 435.368,-29.3968"/>
<polygon fill="midnightblue" stroke="midnightblue" points="438.741,-30.3447 438.583,-19.7511 432.1,-28.1311 438.741,-30.3447"/>
</g>
<!-- Node15&#45;&gt;Node10 -->
<g id="edge16" class="edge"><title>Node15&#45;&gt;Node10</title>
<path fill="none" stroke="midnightblue" d="M781.611,-56.324C770.35,-48.1066 753.213,-35.6017 739.791,-25.8069"/>
<polygon fill="midnightblue" stroke="midnightblue" points="741.747,-22.9014 731.606,-19.8339 737.62,-28.5559 741.747,-22.9014"/>
</g>
<!-- Node15&#45;&gt;Node12 -->
<g id="edge15" class="edge"><title>Node15&#45;&gt;Node12</title>
<path fill="none" stroke="midnightblue" d="M771.158,-56.4435C747.747,-47.4776 710.764,-33.314 684.31,-23.1827"/>
<polygon fill="midnightblue" stroke="midnightblue" points="685.328,-19.8245 674.737,-19.5164 682.824,-26.3615 685.328,-19.8245"/>
</g>
<!-- Node18 -->
<g id="node18" class="node"><title>Node18</title>
<g id="a_node18"><a xlink:href="CheckInterface_8h.html" target="_top" xlink:title="QualityControl/CheckInterface.h">
<polygon fill="none" stroke="black" points="569,-112.5 569,-131.5 726,-131.5 726,-112.5 569,-112.5"/>
<text text-anchor="middle" x="647.5" y="-119.5" font-family="Helvetica,sans-Serif" font-size="10.00">QualityControl/CheckInterface.h</text>
</a>
</g>
</g>
<!-- Node17&#45;&gt;Node18 -->
<g id="edge19" class="edge"><title>Node17&#45;&gt;Node18</title>
<path fill="none" stroke="midnightblue" d="M638.316,-168.083C639.774,-160.927 641.871,-150.635 643.693,-141.691"/>
<polygon fill="midnightblue" stroke="midnightblue" points="647.151,-142.248 645.717,-131.751 640.292,-140.851 647.151,-142.248"/>
</g>
<!-- Node18&#45;&gt;Node9 -->
<g id="edge24" class="edge"><title>Node18&#45;&gt;Node9</title>
<path fill="none" stroke="midnightblue" d="M612.007,-112.444C573.176,-103.083 510.844,-88.0561 468.582,-77.868"/>
<polygon fill="midnightblue" stroke="midnightblue" points="469.369,-74.4576 458.827,-75.5164 467.729,-81.2626 469.369,-74.4576"/>
</g>
<!-- Node18&#45;&gt;Node10 -->
<g id="edge20" class="edge"><title>Node18&#45;&gt;Node10</title>
<path fill="none" stroke="midnightblue" d="M653.15,-112.368C665.032,-94.2153 692.794,-51.8015 708.379,-27.9902"/>
<polygon fill="midnightblue" stroke="midnightblue" points="711.328,-29.8753 713.877,-19.5914 705.471,-26.0416 711.328,-29.8753"/>
</g>
<!-- Node18&#45;&gt;Node11 -->
<g id="edge21" class="edge"><title>Node18&#45;&gt;Node11</title>
<path fill="none" stroke="midnightblue" d="M643.064,-112.273C636.422,-99.4925 623.201,-75.1284 609.5,-56 602.276,-45.9144 593.255,-35.3963 585.709,-27.0673"/>
<polygon fill="midnightblue" stroke="midnightblue" points="588.134,-24.5339 578.776,-19.5651 582.993,-29.2848 588.134,-24.5339"/>
</g>
<!-- Node18&#45;&gt;Node12 -->
<g id="edge23" class="edge"><title>Node18&#45;&gt;Node12</title>
<path fill="none" stroke="midnightblue" d="M647.892,-112.368C648.699,-94.617 650.561,-53.6664 651.655,-29.5974"/>
<polygon fill="midnightblue" stroke="midnightblue" points="655.152,-29.7401 652.109,-19.5914 648.159,-29.4221 655.152,-29.7401"/>
</g>
<!-- Node18&#45;&gt;Node15 -->
<g id="edge25" class="edge"><title>Node18&#45;&gt;Node15</title>
<path fill="none" stroke="midnightblue" d="M670.634,-112.444C694.982,-103.438 733.507,-89.1891 760.923,-79.049"/>
<polygon fill="midnightblue" stroke="midnightblue" points="762.309,-82.2681 770.474,-75.5164 759.881,-75.7028 762.309,-82.2681"/>
</g>
<!-- Node19 -->
<g id="node19" class="node"><title>Node19</title>
<polygon fill="none" stroke="#bfbfbf" points="517,-56.5 517,-75.5 600,-75.5 600,-56.5 517,-56.5"/>
<text text-anchor="middle" x="558.5" y="-63.5" font-family="Helvetica,sans-Serif" font-size="10.00">unordered_map</text>
</g>
<!-- Node18&#45;&gt;Node19 -->
<g id="edge22" class="edge"><title>Node18&#45;&gt;Node19</title>
<path fill="none" stroke="midnightblue" d="M633.201,-112.324C619.317,-103.9 598.008,-90.9709 581.696,-81.0741"/>
<polygon fill="midnightblue" stroke="midnightblue" points="583.129,-77.8495 572.764,-75.6545 579.498,-83.8341 583.129,-77.8495"/>
</g>
</g>
</svg>
