<?xml version="1.0" encoding="UTF-8" standalone="no"?>
<!DOCTYPE svg PUBLIC "-//W3C//DTD SVG 1.1//EN"
 "http://www.w3.org/Graphics/SVG/1.1/DTD/svg11.dtd">
<!-- Generated by graphviz version 2.38.0 (20140413.2041)
 -->
<!-- Title: Modules/EMCAL/include/EMCAL/RawTask.h Pages: 1 -->
<!--zoomable 263 -->
<svg id="main" version="1.1" xmlns="http://www.w3.org/2000/svg" xmlns:xlink="http://www.w3.org/1999/xlink" xml:space="preserve" onload="init(evt)">
<style type="text/css"><![CDATA[
.edge:hover path { stroke: red; }
.edge:hover polygon { stroke: red; fill: red; }
]]></style>
<script type="text/javascript"><![CDATA[
var edges = document.getElementsByTagName('g');
if (edges && edges.length) {
  for (var i=0;i<edges.length;i++) {
    if (edges[i].id.substr(0,4)=='edge') {
      edges[i].setAttribute('class','edge');
    }
  }
}
]]></script>
        <defs>
                <circle id="rim" cx="0" cy="0" r="7"/>
                <circle id="rim2" cx="0" cy="0" r="3.5"/>
                <g id="zoomPlus">
                        <use xlink:href="#rim" fill="#404040">
                                <set attributeName="fill" to="#808080" begin="zoomplus.mouseover" end="zoomplus.mouseout"/>
                        </use>
                        <path d="M-4,0h8M0,-4v8" fill="none" stroke="white" stroke-width="1.5" pointer-events="none"/>
                </g>
                <g id="zoomMin">
                        <use xlink:href="#rim" fill="#404040">
                                <set attributeName="fill" to="#808080" begin="zoomminus.mouseover" end="zoomminus.mouseout"/>
                        </use>
                        <path d="M-4,0h8" fill="none" stroke="white" stroke-width="1.5" pointer-events="none"/>
                </g>
                <g id="dirArrow">
                        <path fill="none" stroke="white" stroke-width="1.5" d="M0,-3.0v7 M-2.5,-0.5L0,-3.0L2.5,-0.5"/>
                </g>
               <g id="resetDef">
                       <use xlink:href="#rim2" fill="#404040">
                               <set attributeName="fill" to="#808080" begin="reset.mouseover" end="reset.mouseout"/>
                       </use>
               </g>
        </defs>

<script type="text/javascript">
var viewWidth = 804;
var viewHeight = 263;
var sectionId = 'dynsection-0';
</script>
<script xlink:href="svgpan.js"/>
<svg id="graph" class="graph">
<g id="viewport">
<title>Modules/EMCAL/include/EMCAL/RawTask.h</title>
<!-- Node1 -->
<g id="node1" class="node"><title>Node1</title>
<polygon fill="#bfbfbf" stroke="black" points="313.199,-224.5 313.199,-254.5 438.199,-254.5 438.199,-224.5 313.199,-224.5"/>
<text text-anchor="start" x="321.199" y="-242.5" font-family="Helvetica,sans-Serif" font-size="10.00">Modules/EMCAL/include</text>
<text text-anchor="middle" x="375.699" y="-231.5" font-family="Helvetica,sans-Serif" font-size="10.00">/EMCAL/RawTask.h</text>
</g>
<!-- Node2 -->
<g id="node2" class="node"><title>Node2</title>
<g id="a_node2"><a xlink:href="TaskInterface_8h.html" target="_top" xlink:title="QualityControl/TaskInterface.h">
<polygon fill="none" stroke="black" points="224.699,-168.5 224.699,-187.5 374.699,-187.5 374.699,-168.5 224.699,-168.5"/>
<text text-anchor="middle" x="299.699" y="-175.5" font-family="Helvetica,sans-Serif" font-size="10.00">QualityControl/TaskInterface.h</text>
</a>
</g>
</g>
<!-- Node1&#45;&gt;Node2 -->
<g id="edge1" class="edge"><title>Node1&#45;&gt;Node2</title>
<path fill="none" stroke="midnightblue" d="M357.688,-224.399C345.961,-215.218 330.684,-203.258 318.754,-193.918"/>
<polygon fill="midnightblue" stroke="midnightblue" points="320.789,-191.066 310.758,-187.658 316.474,-196.578 320.789,-191.066"/>
</g>
<!-- Node4 -->
<g id="node4" class="node"><title>Node4</title>
<polygon fill="none" stroke="#bfbfbf" points="12.699,-56.5 12.699,-75.5 64.699,-75.5 64.699,-56.5 12.699,-56.5"/>
<text text-anchor="middle" x="38.699" y="-63.5" font-family="Helvetica,sans-Serif" font-size="10.00">memory</text>
</g>
<!-- Node1&#45;&gt;Node4 -->
<g id="edge25" class="edge"><title>Node1&#45;&gt;Node4</title>
<path fill="none" stroke="midnightblue" d="M313.084,-231.077C245.964,-220.119 139.883,-193.754 71.699,-132 57.9451,-119.543 49.1208,-100.033 44.0912,-85.635"/>
<polygon fill="midnightblue" stroke="midnightblue" points="47.3359,-84.2891 40.9659,-75.8231 40.666,-86.4137 47.3359,-84.2891"/>
</g>
<!-- Node17 -->
<g id="node17" class="node"><title>Node17</title>
<polygon fill="none" stroke="#bfbfbf" points="393.199,-168.5 393.199,-187.5 510.199,-187.5 510.199,-168.5 393.199,-168.5"/>
<text text-anchor="middle" x="451.699" y="-175.5" font-family="Helvetica,sans-Serif" font-size="10.00">EMCALBase/Mapper.h</text>
</g>
<!-- Node1&#45;&gt;Node17 -->
<g id="edge24" class="edge"><title>Node1&#45;&gt;Node17</title>
<path fill="none" stroke="midnightblue" d="M393.71,-224.399C405.437,-215.218 420.714,-203.258 432.644,-193.918"/>
<polygon fill="midnightblue" stroke="midnightblue" points="434.924,-196.578 440.64,-187.658 430.609,-191.066 434.924,-196.578"/>
</g>
<!-- Node18 -->
<g id="node18" class="node"><title>Node18</title>
<polygon fill="none" stroke="#bfbfbf" points="528.699,-168.5 528.699,-187.5 566.699,-187.5 566.699,-168.5 528.699,-168.5"/>
<text text-anchor="middle" x="547.699" y="-175.5" font-family="Helvetica,sans-Serif" font-size="10.00">array</text>
</g>
<!-- Node1&#45;&gt;Node18 -->
<g id="edge26" class="edge"><title>Node1&#45;&gt;Node18</title>
<path fill="none" stroke="midnightblue" d="M416.461,-224.399C447.958,-213.503 490.773,-198.692 518.81,-188.994"/>
<polygon fill="midnightblue" stroke="midnightblue" points="520.116,-192.245 528.422,-185.668 517.828,-185.63 520.116,-192.245"/>
</g>
<!-- Node3 -->
<g id="node3" class="node"><title>Node3</title>
<polygon fill="none" stroke="#bfbfbf" points="743.199,-0.5 743.199,-19.5 778.199,-19.5 778.199,-0.5 743.199,-0.5"/>
<text text-anchor="middle" x="760.699" y="-7.5" font-family="Helvetica,sans-Serif" font-size="10.00">map</text>
</g>
<!-- Node2&#45;&gt;Node3 -->
<g id="edge2" class="edge"><title>Node2&#45;&gt;Node3</title>
<path fill="none" stroke="midnightblue" d="M374.798,-168.891C377.804,-168.586 380.78,-168.288 383.699,-168 427.997,-163.629 752.671,-164.86 782.699,-132 808.881,-103.349 786.789,-54.3787 771.777,-28.3908"/>
<polygon fill="midnightblue" stroke="midnightblue" points="774.658,-26.3901 766.486,-19.6463 768.669,-30.0139 774.658,-26.3901"/>
</g>
<!-- Node2&#45;&gt;Node4 -->
<g id="edge3" class="edge"><title>Node2&#45;&gt;Node4</title>
<path fill="none" stroke="midnightblue" d="M224.586,-170.508C185.635,-164.621 138.447,-153.398 100.699,-132 79.8018,-120.154 61.6061,-99.0315 50.4264,-84.0841"/>
<polygon fill="midnightblue" stroke="midnightblue" points="53.0887,-81.7913 44.4106,-75.7134 47.4044,-85.8765 53.0887,-81.7913"/>
</g>
<!-- Node5 -->
<g id="node5" class="node"><title>Node5</title>
<polygon fill="none" stroke="#bfbfbf" points="170.199,-0.5 170.199,-19.5 211.199,-19.5 211.199,-0.5 170.199,-0.5"/>
<text text-anchor="middle" x="190.699" y="-7.5" font-family="Helvetica,sans-Serif" font-size="10.00">string</text>
</g>
<!-- Node2&#45;&gt;Node5 -->
<g id="edge4" class="edge"><title>Node2&#45;&gt;Node5</title>
<path fill="none" stroke="midnightblue" d="M224.665,-171.554C178.731,-165.986 119.75,-154.733 71.699,-132 36.3083,-115.257 20.4083,-111.407 3.69901,-76 -0.0946409,-67.9613 -1.80219,-62.9821 3.69901,-56 22.8157,-31.7373 111.967,-19.0408 159.943,-13.8649"/>
<polygon fill="midnightblue" stroke="midnightblue" points="160.486,-17.3275 170.074,-12.8178 159.767,-10.3646 160.486,-17.3275"/>
</g>
<!-- Node6 -->
<g id="node6" class="node"><title>Node6</title>
<polygon fill="none" stroke="#bfbfbf" points="278.199,-0.5 278.199,-19.5 361.199,-19.5 361.199,-0.5 278.199,-0.5"/>
<text text-anchor="middle" x="319.699" y="-7.5" font-family="Helvetica,sans-Serif" font-size="10.00">unordered_map</text>
</g>
<!-- Node2&#45;&gt;Node6 -->
<g id="edge5" class="edge"><title>Node2&#45;&gt;Node6</title>
<path fill="none" stroke="midnightblue" d="M299.911,-168.268C300.703,-154.587 304.155,-128.014 318.699,-112 347.663,-80.1086 384.546,-111.674 408.699,-76 424.863,-52.1247 391.16,-33.8351 360.696,-22.8279"/>
<polygon fill="midnightblue" stroke="midnightblue" points="361.58,-19.4316 350.986,-19.5122 359.318,-26.056 361.58,-19.4316"/>
</g>
<!-- Node7 -->
<g id="node7" class="node"><title>Node7</title>
<polygon fill="none" stroke="#bfbfbf" points="328.199,-112.5 328.199,-131.5 453.199,-131.5 453.199,-112.5 328.199,-112.5"/>
<text text-anchor="middle" x="390.699" y="-119.5" font-family="Helvetica,sans-Serif" font-size="10.00">Framework/InitContext.h</text>
</g>
<!-- Node2&#45;&gt;Node7 -->
<g id="edge6" class="edge"><title>Node2&#45;&gt;Node7</title>
<path fill="none" stroke="midnightblue" d="M314.32,-168.324C328.648,-159.822 350.712,-146.729 367.448,-136.797"/>
<polygon fill="midnightblue" stroke="midnightblue" points="369.301,-139.768 376.115,-131.655 365.729,-133.748 369.301,-139.768"/>
</g>
<!-- Node8 -->
<g id="node8" class="node"><title>Node8</title>
<polygon fill="none" stroke="#bfbfbf" points="471.699,-112.5 471.699,-131.5 631.699,-131.5 631.699,-112.5 471.699,-112.5"/>
<text text-anchor="middle" x="551.699" y="-119.5" font-family="Helvetica,sans-Serif" font-size="10.00">Framework/ProcessingContext.h</text>
</g>
<!-- Node2&#45;&gt;Node8 -->
<g id="edge7" class="edge"><title>Node2&#45;&gt;Node8</title>
<path fill="none" stroke="midnightblue" d="M339.629,-168.444C383.59,-159.023 454.326,-143.866 501.882,-133.675"/>
<polygon fill="midnightblue" stroke="midnightblue" points="502.911,-137.034 511.956,-131.516 501.444,-130.189 502.911,-137.034"/>
</g>
<!-- Node9 -->
<g id="node9" class="node"><title>Node9</title>
<g id="a_node9"><a xlink:href="Activity_8h.html" target="_top" xlink:title="QualityControl/Activity.h">
<polygon fill="none" stroke="black" points="650.199,-112.5 650.199,-131.5 773.199,-131.5 773.199,-112.5 650.199,-112.5"/>
<text text-anchor="middle" x="711.699" y="-119.5" font-family="Helvetica,sans-Serif" font-size="10.00">QualityControl/Activity.h</text>
</a>
</g>
</g>
<!-- Node2&#45;&gt;Node9 -->
<g id="edge8" class="edge"><title>Node2&#45;&gt;Node9</title>
<path fill="none" stroke="midnightblue" d="M364.982,-168.444C439.899,-158.624 562.378,-142.571 639.922,-132.408"/>
<polygon fill="midnightblue" stroke="midnightblue" points="640.626,-135.845 650.086,-131.075 639.716,-128.905 640.626,-135.845"/>
</g>
<!-- Node10 -->
<g id="node10" class="node"><title>Node10</title>
<g id="a_node10"><a xlink:href="ObjectsManager_8h.html" target="_top" xlink:title="QualityControl/ObjectsManager.h">
<polygon fill="none" stroke="black" points="110.199,-112.5 110.199,-131.5 271.199,-131.5 271.199,-112.5 110.199,-112.5"/>
<text text-anchor="middle" x="190.699" y="-119.5" font-family="Helvetica,sans-Serif" font-size="10.00">QualityControl/ObjectsManager.h</text>
</a>
</g>
</g>
<!-- Node2&#45;&gt;Node10 -->
<g id="edge9" class="edge"><title>Node2&#45;&gt;Node10</title>
<path fill="none" stroke="midnightblue" d="M282.186,-168.324C264.627,-159.625 237.368,-146.12 217.168,-136.113"/>
<polygon fill="midnightblue" stroke="midnightblue" points="218.683,-132.958 208.168,-131.655 215.575,-139.23 218.683,-132.958"/>
</g>
<!-- Node10&#45;&gt;Node4 -->
<g id="edge23" class="edge"><title>Node10&#45;&gt;Node4</title>
<path fill="none" stroke="midnightblue" d="M166.614,-112.444C141.154,-103.399 100.805,-89.064 72.2399,-78.9158"/>
<polygon fill="midnightblue" stroke="midnightblue" points="73.2659,-75.5661 62.6712,-75.5164 70.9225,-82.1622 73.2659,-75.5661"/>
</g>
<!-- Node10&#45;&gt;Node5 -->
<g id="edge22" class="edge"><title>Node10&#45;&gt;Node5</title>
<path fill="none" stroke="midnightblue" d="M164.05,-112.478C135.644,-101.847 96.66,-81.8742 111.699,-56 122.109,-38.0899 142.608,-26.7164 160.116,-19.8846"/>
<polygon fill="midnightblue" stroke="midnightblue" points="161.734,-23.0239 169.98,-16.3719 159.386,-16.4296 161.734,-23.0239"/>
</g>
<!-- Node11 -->
<g id="node11" class="node"><title>Node11</title>
<g id="a_node11"><a xlink:href="MonitorObject_8h.html" target="_top" xlink:title="QualityControl/MonitorObject.h">
<polygon fill="none" stroke="black" points="457.199,-56.5 457.199,-75.5 608.199,-75.5 608.199,-56.5 457.199,-56.5"/>
<text text-anchor="middle" x="532.699" y="-63.5" font-family="Helvetica,sans-Serif" font-size="10.00">QualityControl/MonitorObject.h</text>
</a>
</g>
</g>
<!-- Node10&#45;&gt;Node11 -->
<g id="edge10" class="edge"><title>Node10&#45;&gt;Node11</title>
<path fill="none" stroke="midnightblue" d="M244.89,-112.444C305.677,-102.846 404.186,-87.2916 468.709,-77.1037"/>
<polygon fill="midnightblue" stroke="midnightblue" points="469.43,-80.5333 478.762,-75.5164 468.338,-73.619 469.43,-80.5333"/>
</g>
<!-- Node15 -->
<g id="node15" class="node"><title>Node15</title>
<g id="a_node15"><a xlink:href="Quality_8h.html" target="_top" xlink:title="QualityControl/Quality.h">
<polygon fill="none" stroke="black" points="279.199,-56.5 279.199,-75.5 400.199,-75.5 400.199,-56.5 279.199,-56.5"/>
<text text-anchor="middle" x="339.699" y="-63.5" font-family="Helvetica,sans-Serif" font-size="10.00">QualityControl/Quality.h</text>
</a>
</g>
</g>
<!-- Node10&#45;&gt;Node15 -->
<g id="edge16" class="edge"><title>Node10&#45;&gt;Node15</title>
<path fill="none" stroke="midnightblue" d="M214.309,-112.444C239.157,-103.438 278.473,-89.1891 306.453,-79.049"/>
<polygon fill="midnightblue" stroke="midnightblue" points="307.991,-82.2144 316.2,-75.5164 305.606,-75.6332 307.991,-82.2144"/>
</g>
<!-- Node16 -->
<g id="node16" class="node"><title>Node16</title>
<g id="a_node16"><a xlink:href="TaskConfig_8h.html" target="_top" xlink:title="QualityControl/TaskConfig.h">
<polygon fill="none" stroke="black" points="120.699,-56.5 120.699,-75.5 260.699,-75.5 260.699,-56.5 120.699,-56.5"/>
<text text-anchor="middle" x="190.699" y="-63.5" font-family="Helvetica,sans-Serif" font-size="10.00">QualityControl/TaskConfig.h</text>
</a>
</g>
</g>
<!-- Node10&#45;&gt;Node16 -->
<g id="edge19" class="edge"><title>Node10&#45;&gt;Node16</title>
<path fill="none" stroke="midnightblue" d="M190.699,-112.083C190.699,-105.006 190.699,-94.8611 190.699,-85.9865"/>
<polygon fill="midnightblue" stroke="midnightblue" points="194.199,-85.751 190.699,-75.7511 187.199,-85.7511 194.199,-85.751"/>
</g>
<!-- Node11&#45;&gt;Node3 -->
<g id="edge12" class="edge"><title>Node11&#45;&gt;Node3</title>
<path fill="none" stroke="midnightblue" d="M568.826,-56.4435C614.453,-45.6372 691.96,-27.2804 733.114,-17.5333"/>
<polygon fill="midnightblue" stroke="midnightblue" points="734.066,-20.9048 742.99,-15.1943 732.452,-14.0932 734.066,-20.9048"/>
</g>
<!-- Node11&#45;&gt;Node5 -->
<g id="edge11" class="edge"><title>Node11&#45;&gt;Node5</title>
<path fill="none" stroke="midnightblue" d="M478.508,-56.4435C405.81,-44.9649 279.157,-24.967 221.212,-15.8179"/>
<polygon fill="midnightblue" stroke="midnightblue" points="221.645,-12.3429 211.221,-14.2403 220.553,-19.2572 221.645,-12.3429"/>
</g>
<!-- Node12 -->
<g id="node12" class="node"><title>Node12</title>
<polygon fill="none" stroke="#bfbfbf" points="403.699,-0.5 403.699,-19.5 459.699,-19.5 459.699,-0.5 403.699,-0.5"/>
<text text-anchor="middle" x="431.699" y="-7.5" font-family="Helvetica,sans-Serif" font-size="10.00">Rtypes.h</text>
</g>
<!-- Node11&#45;&gt;Node12 -->
<g id="edge13" class="edge"><title>Node11&#45;&gt;Node12</title>
<path fill="none" stroke="midnightblue" d="M516.472,-56.324C500.348,-47.7034 475.399,-34.3643 456.735,-24.3855"/>
<polygon fill="midnightblue" stroke="midnightblue" points="458.355,-21.283 447.886,-19.6545 455.055,-27.456 458.355,-21.283"/>
</g>
<!-- Node13 -->
<g id="node13" class="node"><title>Node13</title>
<polygon fill="none" stroke="#bfbfbf" points="490.199,-0.5 490.199,-19.5 549.199,-19.5 549.199,-0.5 490.199,-0.5"/>
<text text-anchor="middle" x="519.699" y="-7.5" font-family="Helvetica,sans-Serif" font-size="10.00">TObject.h</text>
</g>
<!-- Node11&#45;&gt;Node13 -->
<g id="edge14" class="edge"><title>Node11&#45;&gt;Node13</title>
<path fill="none" stroke="midnightblue" d="M530.552,-56.083C528.83,-48.9272 526.352,-38.6353 524.199,-29.6911"/>
<polygon fill="midnightblue" stroke="midnightblue" points="527.549,-28.6541 521.806,-19.7511 520.744,-30.2925 527.549,-28.6541"/>
</g>
<!-- Node14 -->
<g id="node14" class="node"><title>Node14</title>
<polygon fill="none" stroke="#bfbfbf" points="567.699,-0.5 567.699,-19.5 683.699,-19.5 683.699,-0.5 567.699,-0.5"/>
<text text-anchor="middle" x="625.699" y="-7.5" font-family="Helvetica,sans-Serif" font-size="10.00">Common/Exceptions.h</text>
</g>
<!-- Node11&#45;&gt;Node14 -->
<g id="edge15" class="edge"><title>Node11&#45;&gt;Node14</title>
<path fill="none" stroke="midnightblue" d="M547.641,-56.324C562.284,-47.8215 584.833,-34.7288 601.937,-24.7975"/>
<polygon fill="midnightblue" stroke="midnightblue" points="603.904,-27.7027 610.794,-19.6545 600.389,-21.6491 603.904,-27.7027"/>
</g>
<!-- Node15&#45;&gt;Node5 -->
<g id="edge18" class="edge"><title>Node15&#45;&gt;Node5</title>
<path fill="none" stroke="midnightblue" d="M316.09,-56.4435C290.364,-47.1203 249.131,-32.1768 221.026,-21.9911"/>
<polygon fill="midnightblue" stroke="midnightblue" points="221.913,-18.5898 211.319,-18.473 219.528,-25.1709 221.913,-18.5898"/>
</g>
<!-- Node15&#45;&gt;Node12 -->
<g id="edge17" class="edge"><title>Node15&#45;&gt;Node12</title>
<path fill="none" stroke="midnightblue" d="M354.48,-56.324C368.966,-47.8215 391.272,-34.7288 408.192,-24.7975"/>
<polygon fill="midnightblue" stroke="midnightblue" points="410.102,-27.735 416.954,-19.6545 406.558,-21.6981 410.102,-27.735"/>
</g>
<!-- Node16&#45;&gt;Node5 -->
<g id="edge20" class="edge"><title>Node16&#45;&gt;Node5</title>
<path fill="none" stroke="midnightblue" d="M190.699,-56.083C190.699,-49.0059 190.699,-38.8611 190.699,-29.9865"/>
<polygon fill="midnightblue" stroke="midnightblue" points="194.199,-29.751 190.699,-19.7511 187.199,-29.7511 194.199,-29.751"/>
</g>
<!-- Node16&#45;&gt;Node6 -->
<g id="edge21" class="edge"><title>Node16&#45;&gt;Node6</title>
<path fill="none" stroke="midnightblue" d="M211.139,-56.4435C232.369,-47.5566 265.798,-33.5632 289.954,-23.4514"/>
<polygon fill="midnightblue" stroke="midnightblue" points="291.481,-26.6064 299.354,-19.5164 288.778,-20.1493 291.481,-26.6064"/>
</g>
</g>
</svg>
        <g id="navigator" transform="translate(0 0)" fill="#404254">
                <rect fill="#f2f5e9" fill-opacity="0.5" stroke="#606060" stroke-width=".5" x="0" y="0" width="60" height="60"/>
                <use id="zoomplus" xlink:href="#zoomPlus" x="17" y="9" onmousedown="handleZoom(evt,'in')"/>
                <use id="zoomminus" xlink:href="#zoomMin" x="42" y="9" onmousedown="handleZoom(evt,'out')"/>
                <use id="reset" xlink:href="#resetDef" x="30" y="36" onmousedown="handleReset()"/>
                <g id="arrowUp" xlink:href="#dirArrow" transform="translate(30 24)" onmousedown="handlePan(0,-1)">
                  <use xlink:href="#rim" fill="#404040">
                        <set attributeName="fill" to="#808080" begin="arrowUp.mouseover" end="arrowUp.mouseout"/>
                  </use>
                  <path fill="none" stroke="white" stroke-width="1.5" d="M0,-3.0v7 M-2.5,-0.5L0,-3.0L2.5,-0.5"/>
                </g>
                <g id="arrowRight" xlink:href="#dirArrow" transform="rotate(90) translate(36 -43)" onmousedown="handlePan(1,0)">
                  <use xlink:href="#rim" fill="#404040">
                        <set attributeName="fill" to="#808080" begin="arrowRight.mouseover" end="arrowRight.mouseout"/>
                  </use>
                  <path fill="none" stroke="white" stroke-width="1.5" d="M0,-3.0v7 M-2.5,-0.5L0,-3.0L2.5,-0.5"/>
                </g>
                <g id="arrowDown" xlink:href="#dirArrow" transform="rotate(180) translate(-30 -48)" onmousedown="handlePan(0,1)">
                  <use xlink:href="#rim" fill="#404040">
                        <set attributeName="fill" to="#808080" begin="arrowDown.mouseover" end="arrowDown.mouseout"/>
                  </use>
                  <path fill="none" stroke="white" stroke-width="1.5" d="M0,-3.0v7 M-2.5,-0.5L0,-3.0L2.5,-0.5"/>
                </g>
                <g id="arrowLeft" xlink:href="#dirArrow" transform="rotate(270) translate(-36 17)" onmousedown="handlePan(-1,0)">
                  <use xlink:href="#rim" fill="#404040">
                        <set attributeName="fill" to="#808080" begin="arrowLeft.mouseover" end="arrowLeft.mouseout"/>
                  </use>
                  <path fill="none" stroke="white" stroke-width="1.5" d="M0,-3.0v7 M-2.5,-0.5L0,-3.0L2.5,-0.5"/>
                </g>
        </g>
        <svg viewBox="0 0 15 15" width="100%" height="30px" preserveAspectRatio="xMaxYMin meet">
         <g id="arrow_out" transform="scale(0.3 0.3)">
          <a xlink:href="RawTask_8h__incl_org.svg" target="_base">
           <rect id="button" ry="5" rx="5" y="6" x="6" height="38" width="38"
                fill="#f2f5e9" fill-opacity="0.5" stroke="#606060" stroke-width="1.0"/>
           <path id="arrow"
             d="M 11.500037,31.436501 C 11.940474,20.09759 22.043105,11.32322 32.158766,21.979434 L 37.068811,17.246167 C 37.068811,17.246167 37.088388,32 37.088388,32 L 22.160133,31.978069 C 22.160133,31.978069 26.997745,27.140456 26.997745,27.140456 C 18.528582,18.264221 13.291696,25.230495 11.500037,31.436501 z"
             style="fill:#404040;"/>
          </a>
         </g>
        </svg>
</svg>
