<?xml version="1.0" encoding="UTF-8" standalone="no"?>
<!DOCTYPE svg PUBLIC "-//W3C//DTD SVG 1.1//EN"
 "http://www.w3.org/Graphics/SVG/1.1/DTD/svg11.dtd">
<!-- Generated by graphviz version 2.38.0 (20140413.2041)
 -->
<!-- Title: Modules/EMCAL/src/RawTask.cxx Pages: 1 -->
<svg width="1574pt" height="319pt"
 viewBox="0.00 0.00 1574.00 319.00" xmlns="http://www.w3.org/2000/svg" xmlns:xlink="http://www.w3.org/1999/xlink">
<g id="graph0" class="graph" transform="scale(1 1) rotate(0) translate(4 315)">
<title>Modules/EMCAL/src/RawTask.cxx</title>
<!-- Node1 -->
<g id="node1" class="node"><title>Node1</title>
<polygon fill="#bfbfbf" stroke="black" points="354,-291.5 354,-310.5 525,-310.5 525,-291.5 354,-291.5"/>
<text text-anchor="middle" x="439.5" y="-298.5" font-family="Helvetica,sans-Serif" font-size="10.00">Modules/EMCAL/src/RawTask.cxx</text>
</g>
<!-- Node2 -->
<g id="node2" class="node"><title>Node2</title>
<polygon fill="none" stroke="#bfbfbf" points="0,-230 0,-249 65,-249 65,-230 0,-230"/>
<text text-anchor="middle" x="32.5" y="-237" font-family="Helvetica,sans-Serif" font-size="10.00">TCanvas.h</text>
</g>
<!-- Node1&#45;&gt;Node2 -->
<g id="edge1" class="edge"><title>Node1&#45;&gt;Node2</title>
<path fill="none" stroke="midnightblue" d="M353.802,-294.535C279.266,-288.575 168.736,-276.821 74.5,-255 71.09,-254.21 67.5694,-253.245 64.0844,-252.191"/>
<polygon fill="midnightblue" stroke="midnightblue" points="65.0714,-248.832 54.479,-249.059 62.9013,-255.487 65.0714,-248.832"/>
</g>
<!-- Node3 -->
<g id="node3" class="node"><title>Node3</title>
<polygon fill="none" stroke="#bfbfbf" points="83.5,-230 83.5,-249 127.5,-249 127.5,-230 83.5,-230"/>
<text text-anchor="middle" x="105.5" y="-237" font-family="Helvetica,sans-Serif" font-size="10.00">TH1.h</text>
</g>
<!-- Node1&#45;&gt;Node3 -->
<g id="edge2" class="edge"><title>Node1&#45;&gt;Node3</title>
<path fill="none" stroke="midnightblue" d="M353.813,-293.941C292.327,-287.994 208.046,-276.543 136.5,-255 134.623,-254.435 132.714,-253.774 130.814,-253.052"/>
<polygon fill="midnightblue" stroke="midnightblue" points="132.131,-249.809 121.561,-249.09 129.376,-256.244 132.131,-249.809"/>
</g>
<!-- Node4 -->
<g id="node4" class="node"><title>Node4</title>
<polygon fill="none" stroke="#bfbfbf" points="146,-230 146,-249 217,-249 217,-230 146,-230"/>
<text text-anchor="middle" x="181.5" y="-237" font-family="Helvetica,sans-Serif" font-size="10.00">TProfile2D.h</text>
</g>
<!-- Node1&#45;&gt;Node4 -->
<g id="edge3" class="edge"><title>Node1&#45;&gt;Node4</title>
<path fill="none" stroke="midnightblue" d="M391.542,-291.495C347.933,-283.388 281.959,-270.189 225.5,-255 222.316,-254.143 219.023,-253.189 215.737,-252.191"/>
<polygon fill="midnightblue" stroke="midnightblue" points="216.612,-248.796 206.022,-249.115 214.5,-255.47 216.612,-248.796"/>
</g>
<!-- Node5 -->
<g id="node5" class="node"><title>Node5</title>
<polygon fill="none" stroke="#bfbfbf" points="235,-230 235,-249 288,-249 288,-230 235,-230"/>
<text text-anchor="middle" x="261.5" y="-237" font-family="Helvetica,sans-Serif" font-size="10.00">TMath.h</text>
</g>
<!-- Node1&#45;&gt;Node5 -->
<g id="edge4" class="edge"><title>Node1&#45;&gt;Node5</title>
<path fill="none" stroke="midnightblue" d="M409.666,-291.444C380.56,-282.902 335.146,-269.055 296.5,-255 294.646,-254.326 292.745,-253.61 290.835,-252.872"/>
<polygon fill="midnightblue" stroke="midnightblue" points="291.955,-249.551 281.371,-249.087 289.356,-256.05 291.955,-249.551"/>
</g>
<!-- Node6 -->
<g id="node6" class="node"><title>Node6</title>
<polygon fill="none" stroke="#bfbfbf" points="306,-230 306,-249 347,-249 347,-230 306,-230"/>
<text text-anchor="middle" x="326.5" y="-237" font-family="Helvetica,sans-Serif" font-size="10.00">cfloat</text>
</g>
<!-- Node1&#45;&gt;Node6 -->
<g id="edge5" class="edge"><title>Node1&#45;&gt;Node6</title>
<path fill="none" stroke="midnightblue" d="M423.31,-291.475C404.598,-281.622 373.577,-265.288 351.701,-253.77"/>
<polygon fill="midnightblue" stroke="midnightblue" points="353.139,-250.571 342.66,-249.009 349.878,-256.765 353.139,-250.571"/>
</g>
<!-- Node7 -->
<g id="node7" class="node"><title>Node7</title>
<g id="a_node7"><a xlink:href="QcInfoLogger_8h.html" target="_top" xlink:title="QualityControl/QcInfoLogger.h">
<polygon fill="none" stroke="black" points="365,-230 365,-249 514,-249 514,-230 365,-230"/>
<text text-anchor="middle" x="439.5" y="-237" font-family="Helvetica,sans-Serif" font-size="10.00">QualityControl/QcInfoLogger.h</text>
</a>
</g>
</g>
<!-- Node1&#45;&gt;Node7 -->
<g id="edge6" class="edge"><title>Node1&#45;&gt;Node7</title>
<path fill="none" stroke="midnightblue" d="M439.5,-291.475C439.5,-283.08 439.5,-269.981 439.5,-259.163"/>
<polygon fill="midnightblue" stroke="midnightblue" points="443,-259.009 439.5,-249.009 436,-259.009 443,-259.009"/>
</g>
<!-- Node9 -->
<g id="node9" class="node"><title>Node9</title>
<g id="a_node9"><a xlink:href="RawTask_8h.html" target="_top" xlink:title="EMCAL/RawTask.h">
<polygon fill="none" stroke="black" points="532.5,-230 532.5,-249 636.5,-249 636.5,-230 532.5,-230"/>
<text text-anchor="middle" x="584.5" y="-237" font-family="Helvetica,sans-Serif" font-size="10.00">EMCAL/RawTask.h</text>
</a>
</g>
</g>
<!-- Node1&#45;&gt;Node9 -->
<g id="edge8" class="edge"><title>Node1&#45;&gt;Node9</title>
<path fill="none" stroke="midnightblue" d="M460.275,-291.475C484.932,-281.357 526.245,-264.405 554.402,-252.851"/>
<polygon fill="midnightblue" stroke="midnightblue" points="555.841,-256.043 563.764,-249.009 553.183,-249.567 555.841,-256.043"/>
</g>
<!-- Node27 -->
<g id="node27" class="node"><title>Node27</title>
<polygon fill="none" stroke="#bfbfbf" points="655,-230 655,-249 796,-249 796,-230 655,-230"/>
<text text-anchor="middle" x="725.5" y="-237" font-family="Helvetica,sans-Serif" font-size="10.00">Headers/RAWDataHeader.h</text>
</g>
<!-- Node1&#45;&gt;Node27 -->
<g id="edge35" class="edge"><title>Node1&#45;&gt;Node27</title>
<path fill="none" stroke="midnightblue" d="M480.477,-291.475C531.66,-280.827 619.227,-262.609 674.642,-251.081"/>
<polygon fill="midnightblue" stroke="midnightblue" points="675.522,-254.473 684.599,-249.009 674.096,-247.619 675.522,-254.473"/>
</g>
<!-- Node28 -->
<g id="node28" class="node"><title>Node28</title>
<polygon fill="none" stroke="#bfbfbf" points="814,-224.5 814,-254.5 931,-254.5 931,-224.5 814,-224.5"/>
<text text-anchor="start" x="822" y="-242.5" font-family="Helvetica,sans-Serif" font-size="10.00">EMCALReconstruction</text>
<text text-anchor="middle" x="872.5" y="-231.5" font-family="Helvetica,sans-Serif" font-size="10.00">/AltroDecoder.h</text>
</g>
<!-- Node1&#45;&gt;Node28 -->
<g id="edge36" class="edge"><title>Node1&#45;&gt;Node28</title>
<path fill="none" stroke="midnightblue" d="M525.355,-291.557C597.126,-284.005 702.375,-271.786 803.835,-255.014"/>
<polygon fill="midnightblue" stroke="midnightblue" points="804.67,-258.423 813.957,-253.323 803.517,-251.518 804.67,-258.423"/>
</g>
<!-- Node29 -->
<g id="node29" class="node"><title>Node29</title>
<polygon fill="none" stroke="#bfbfbf" points="949,-224.5 949,-254.5 1066,-254.5 1066,-224.5 949,-224.5"/>
<text text-anchor="start" x="957" y="-242.5" font-family="Helvetica,sans-Serif" font-size="10.00">EMCALReconstruction</text>
<text text-anchor="middle" x="1007.5" y="-231.5" font-family="Helvetica,sans-Serif" font-size="10.00">/RawReaderMemory.h</text>
</g>
<!-- Node1&#45;&gt;Node29 -->
<g id="edge37" class="edge"><title>Node1&#45;&gt;Node29</title>
<path fill="none" stroke="midnightblue" d="M525.25,-295.429C622.992,-289.508 787.671,-277.373 939.027,-254.939"/>
<polygon fill="midnightblue" stroke="midnightblue" points="939.606,-258.392 948.976,-253.447 938.568,-251.469 939.606,-258.392"/>
</g>
<!-- Node30 -->
<g id="node30" class="node"><title>Node30</title>
<polygon fill="none" stroke="#bfbfbf" points="1084,-224.5 1084,-254.5 1201,-254.5 1201,-224.5 1084,-224.5"/>
<text text-anchor="start" x="1092" y="-242.5" font-family="Helvetica,sans-Serif" font-size="10.00">EMCALReconstruction</text>
<text text-anchor="middle" x="1142.5" y="-231.5" font-family="Helvetica,sans-Serif" font-size="10.00">/RawHeaderStream.h</text>
</g>
<!-- Node1&#45;&gt;Node30 -->
<g id="edge38" class="edge"><title>Node1&#45;&gt;Node30</title>
<path fill="none" stroke="midnightblue" d="M525.147,-297.716C645.535,-293.662 871.727,-282.963 1074.07,-254.91"/>
<polygon fill="midnightblue" stroke="midnightblue" points="1074.57,-258.374 1083.99,-253.518 1073.6,-251.442 1074.57,-258.374"/>
</g>
<!-- Node8 -->
<g id="node8" class="node"><title>Node8</title>
<polygon fill="none" stroke="#bfbfbf" points="370.5,-168.5 370.5,-187.5 500.5,-187.5 500.5,-168.5 370.5,-168.5"/>
<text text-anchor="middle" x="435.5" y="-175.5" font-family="Helvetica,sans-Serif" font-size="10.00">InfoLogger/InfoLogger.hxx</text>
</g>
<!-- Node7&#45;&gt;Node8 -->
<g id="edge7" class="edge"><title>Node7&#45;&gt;Node8</title>
<path fill="none" stroke="midnightblue" d="M438.927,-229.975C438.363,-221.58 437.482,-208.481 436.755,-197.663"/>
<polygon fill="midnightblue" stroke="midnightblue" points="440.235,-197.252 436.072,-187.509 433.251,-197.721 440.235,-197.252"/>
</g>
<!-- Node10 -->
<g id="node10" class="node"><title>Node10</title>
<g id="a_node10"><a xlink:href="TaskInterface_8h.html" target="_top" xlink:title="QualityControl/TaskInterface.h">
<polygon fill="none" stroke="black" points="756.5,-168.5 756.5,-187.5 906.5,-187.5 906.5,-168.5 756.5,-168.5"/>
<text text-anchor="middle" x="831.5" y="-175.5" font-family="Helvetica,sans-Serif" font-size="10.00">QualityControl/TaskInterface.h</text>
</a>
</g>
</g>
<!-- Node9&#45;&gt;Node10 -->
<g id="edge9" class="edge"><title>Node9&#45;&gt;Node10</title>
<path fill="none" stroke="midnightblue" d="M619.889,-229.975C663.726,-219.415 738.466,-201.411 786.38,-189.869"/>
<polygon fill="midnightblue" stroke="midnightblue" points="787.274,-193.254 796.177,-187.509 785.635,-186.448 787.274,-193.254"/>
</g>
<!-- Node12 -->
<g id="node12" class="node"><title>Node12</title>
<polygon fill="none" stroke="#bfbfbf" points="650.5,-56.5 650.5,-75.5 702.5,-75.5 702.5,-56.5 650.5,-56.5"/>
<text text-anchor="middle" x="676.5" y="-63.5" font-family="Helvetica,sans-Serif" font-size="10.00">memory</text>
</g>
<!-- Node9&#45;&gt;Node12 -->
<g id="edge33" class="edge"><title>Node9&#45;&gt;Node12</title>
<path fill="none" stroke="midnightblue" d="M589.189,-229.76C603.648,-202.806 647.738,-120.616 667.153,-84.4237"/>
<polygon fill="midnightblue" stroke="midnightblue" points="670.287,-85.986 671.93,-75.5194 664.118,-82.677 670.287,-85.986"/>
</g>
<!-- Node25 -->
<g id="node25" class="node"><title>Node25</title>
<polygon fill="none" stroke="#bfbfbf" points="925,-168.5 925,-187.5 1042,-187.5 1042,-168.5 925,-168.5"/>
<text text-anchor="middle" x="983.5" y="-175.5" font-family="Helvetica,sans-Serif" font-size="10.00">EMCALBase/Mapper.h</text>
</g>
<!-- Node9&#45;&gt;Node25 -->
<g id="edge32" class="edge"><title>Node9&#45;&gt;Node25</title>
<path fill="none" stroke="midnightblue" d="M617.613,-229.986C626.62,-227.846 636.402,-225.683 645.5,-224 648.799,-223.39 817.01,-201.066 914.853,-188.096"/>
<polygon fill="midnightblue" stroke="midnightblue" points="915.513,-191.539 924.966,-186.755 914.593,-184.6 915.513,-191.539"/>
</g>
<!-- Node26 -->
<g id="node26" class="node"><title>Node26</title>
<polygon fill="none" stroke="#bfbfbf" points="518.5,-168.5 518.5,-187.5 556.5,-187.5 556.5,-168.5 518.5,-168.5"/>
<text text-anchor="middle" x="537.5" y="-175.5" font-family="Helvetica,sans-Serif" font-size="10.00">array</text>
</g>
<!-- Node9&#45;&gt;Node26 -->
<g id="edge34" class="edge"><title>Node9&#45;&gt;Node26</title>
<path fill="none" stroke="midnightblue" d="M577.766,-229.975C570.716,-221.05 559.465,-206.807 550.646,-195.643"/>
<polygon fill="midnightblue" stroke="midnightblue" points="553.167,-193.187 544.221,-187.509 547.674,-197.526 553.167,-193.187"/>
</g>
<!-- Node11 -->
<g id="node11" class="node"><title>Node11</title>
<polygon fill="none" stroke="#bfbfbf" points="1531,-0.5 1531,-19.5 1566,-19.5 1566,-0.5 1531,-0.5"/>
<text text-anchor="middle" x="1548.5" y="-7.5" font-family="Helvetica,sans-Serif" font-size="10.00">map</text>
</g>
<!-- Node10&#45;&gt;Node11 -->
<g id="edge10" class="edge"><title>Node10&#45;&gt;Node11</title>
<path fill="none" stroke="midnightblue" d="M906.597,-168.869C909.604,-168.57 912.58,-168.279 915.5,-168 1105.08,-149.854 1155.36,-167.371 1342.5,-132 1428.17,-115.808 1469.45,-138.242 1530.5,-76 1542.4,-63.863 1546.6,-44.5857 1547.99,-30.171"/>
<polygon fill="midnightblue" stroke="midnightblue" points="1551.51,-30.0739 1548.61,-19.8825 1544.52,-29.6554 1551.51,-30.0739"/>
</g>
<!-- Node10&#45;&gt;Node12 -->
<g id="edge11" class="edge"><title>Node10&#45;&gt;Node12</title>
<path fill="none" stroke="midnightblue" d="M756.212,-172.73C727.747,-167.063 697.83,-155.398 679.5,-132 669.385,-119.089 669.778,-99.9155 672.014,-85.7359"/>
<polygon fill="midnightblue" stroke="midnightblue" points="675.502,-86.1427 674.036,-75.6497 668.639,-84.7664 675.502,-86.1427"/>
</g>
<!-- Node13 -->
<g id="node13" class="node"><title>Node13</title>
<polygon fill="none" stroke="#bfbfbf" points="1083,-0.5 1083,-19.5 1124,-19.5 1124,-0.5 1083,-0.5"/>
<text text-anchor="middle" x="1103.5" y="-7.5" font-family="Helvetica,sans-Serif" font-size="10.00">string</text>
</g>
<!-- Node10&#45;&gt;Node13 -->
<g id="edge12" class="edge"><title>Node10&#45;&gt;Node13</title>
<path fill="none" stroke="midnightblue" d="M756.289,-169.808C726.265,-163.704 693.068,-152.503 668.5,-132 640.979,-109.032 617.413,-82.5472 641.5,-56 670.468,-24.0731 973.787,-14.0793 1072.58,-11.6587"/>
<polygon fill="midnightblue" stroke="midnightblue" points="1072.89,-15.1525 1082.81,-11.4176 1072.73,-8.15441 1072.89,-15.1525"/>
</g>
<!-- Node14 -->
<g id="node14" class="node"><title>Node14</title>
<polygon fill="none" stroke="#bfbfbf" points="1143,-0.5 1143,-19.5 1226,-19.5 1226,-0.5 1143,-0.5"/>
<text text-anchor="middle" x="1184.5" y="-7.5" font-family="Helvetica,sans-Serif" font-size="10.00">unordered_map</text>
</g>
<!-- Node10&#45;&gt;Node14 -->
<g id="edge13" class="edge"><title>Node10&#45;&gt;Node14</title>
<path fill="none" stroke="midnightblue" d="M906.599,-168.884C909.605,-168.581 912.581,-168.285 915.5,-168 960.683,-163.582 1291.85,-165.486 1322.5,-132 1345.31,-107.086 1342.34,-83.3373 1322.5,-56 1312.03,-41.5676 1270.95,-29.3391 1236.32,-21.2889"/>
<polygon fill="midnightblue" stroke="midnightblue" points="1236.81,-17.812 1226.29,-19.029 1235.27,-24.6409 1236.81,-17.812"/>
</g>
<!-- Node15 -->
<g id="node15" class="node"><title>Node15</title>
<polygon fill="none" stroke="#bfbfbf" points="689,-112.5 689,-131.5 814,-131.5 814,-112.5 689,-112.5"/>
<text text-anchor="middle" x="751.5" y="-119.5" font-family="Helvetica,sans-Serif" font-size="10.00">Framework/InitContext.h</text>
</g>
<!-- Node10&#45;&gt;Node15 -->
<g id="edge14" class="edge"><title>Node10&#45;&gt;Node15</title>
<path fill="none" stroke="midnightblue" d="M818.647,-168.324C806.284,-159.979 787.37,-147.212 772.763,-137.352"/>
<polygon fill="midnightblue" stroke="midnightblue" points="774.568,-134.348 764.321,-131.655 770.652,-140.15 774.568,-134.348"/>
</g>
<!-- Node16 -->
<g id="node16" class="node"><title>Node16</title>
<polygon fill="none" stroke="#bfbfbf" points="832.5,-112.5 832.5,-131.5 992.5,-131.5 992.5,-112.5 832.5,-112.5"/>
<text text-anchor="middle" x="912.5" y="-119.5" font-family="Helvetica,sans-Serif" font-size="10.00">Framework/ProcessingContext.h</text>
</g>
<!-- Node10&#45;&gt;Node16 -->
<g id="edge15" class="edge"><title>Node10&#45;&gt;Node16</title>
<path fill="none" stroke="midnightblue" d="M844.514,-168.324C857.032,-159.979 876.182,-147.212 890.971,-137.352"/>
<polygon fill="midnightblue" stroke="midnightblue" points="893.139,-140.114 899.518,-131.655 889.256,-134.289 893.139,-140.114"/>
</g>
<!-- Node17 -->
<g id="node17" class="node"><title>Node17</title>
<g id="a_node17"><a xlink:href="Activity_8h.html" target="_top" xlink:title="QualityControl/Activity.h">
<polygon fill="none" stroke="black" points="1011,-112.5 1011,-131.5 1134,-131.5 1134,-112.5 1011,-112.5"/>
<text text-anchor="middle" x="1072.5" y="-119.5" font-family="Helvetica,sans-Serif" font-size="10.00">QualityControl/Activity.h</text>
</a>
</g>
</g>
<!-- Node10&#45;&gt;Node17 -->
<g id="edge16" class="edge"><title>Node10&#45;&gt;Node17</title>
<path fill="none" stroke="midnightblue" d="M869.687,-168.444C911.641,-159.043 979.094,-143.929 1024.57,-133.739"/>
<polygon fill="midnightblue" stroke="midnightblue" points="1025.5,-137.118 1034.49,-131.516 1023.97,-130.288 1025.5,-137.118"/>
</g>
<!-- Node18 -->
<g id="node18" class="node"><title>Node18</title>
<g id="a_node18"><a xlink:href="ObjectsManager_8h.html" target="_top" xlink:title="QualityControl/ObjectsManager.h">
<polygon fill="none" stroke="black" points="1152,-112.5 1152,-131.5 1313,-131.5 1313,-112.5 1152,-112.5"/>
<text text-anchor="middle" x="1232.5" y="-119.5" font-family="Helvetica,sans-Serif" font-size="10.00">QualityControl/ObjectsManager.h</text>
</a>
</g>
</g>
<!-- Node10&#45;&gt;Node18 -->
<g id="edge17" class="edge"><title>Node10&#45;&gt;Node18</title>
<path fill="none" stroke="midnightblue" d="M895.04,-168.444C966.9,-158.767 1083.72,-143.035 1159.33,-132.853"/>
<polygon fill="midnightblue" stroke="midnightblue" points="1159.81,-136.32 1169.26,-131.516 1158.88,-129.382 1159.81,-136.32"/>
</g>
<!-- Node18&#45;&gt;Node12 -->
<g id="edge31" class="edge"><title>Node18&#45;&gt;Node12</title>
<path fill="none" stroke="midnightblue" d="M1151.55,-112.892C1148.49,-112.59 1145.47,-112.292 1142.5,-112 982.388,-96.2637 791.279,-77.9592 712.829,-70.4658"/>
<polygon fill="midnightblue" stroke="midnightblue" points="712.81,-66.9481 702.522,-69.4816 712.144,-73.9164 712.81,-66.9481"/>
</g>
<!-- Node18&#45;&gt;Node13 -->
<g id="edge30" class="edge"><title>Node18&#45;&gt;Node13</title>
<path fill="none" stroke="midnightblue" d="M1175.97,-112.48C1117.71,-103.127 1034.07,-87.8614 1024.5,-76 1006.16,-53.2728 1043.97,-32.9275 1073.36,-21.2789"/>
<polygon fill="midnightblue" stroke="midnightblue" points="1074.8,-24.4785 1082.91,-17.6711 1072.32,-17.9299 1074.8,-24.4785"/>
</g>
<!-- Node19 -->
<g id="node19" class="node"><title>Node19</title>
<g id="a_node19"><a xlink:href="MonitorObject_8h.html" target="_top" xlink:title="QualityControl/MonitorObject.h">
<polygon fill="none" stroke="black" points="1370,-56.5 1370,-75.5 1521,-75.5 1521,-56.5 1370,-56.5"/>
<text text-anchor="middle" x="1445.5" y="-63.5" font-family="Helvetica,sans-Serif" font-size="10.00">QualityControl/MonitorObject.h</text>
</a>
</g>
</g>
<!-- Node18&#45;&gt;Node19 -->
<g id="edge18" class="edge"><title>Node18&#45;&gt;Node19</title>
<path fill="none" stroke="midnightblue" d="M1266.25,-112.444C1303.02,-103.122 1361.95,-88.1828 1402.12,-77.9972"/>
<polygon fill="midnightblue" stroke="midnightblue" points="1403.07,-81.3666 1411.91,-75.5164 1401.35,-74.5813 1403.07,-81.3666"/>
</g>
<!-- Node23 -->
<g id="node23" class="node"><title>Node23</title>
<g id="a_node23"><a xlink:href="Quality_8h.html" target="_top" xlink:title="QualityControl/Quality.h">
<polygon fill="none" stroke="black" points="1192,-56.5 1192,-75.5 1313,-75.5 1313,-56.5 1192,-56.5"/>
<text text-anchor="middle" x="1252.5" y="-63.5" font-family="Helvetica,sans-Serif" font-size="10.00">QualityControl/Quality.h</text>
</a>
</g>
</g>
<!-- Node18&#45;&gt;Node23 -->
<g id="edge24" class="edge"><title>Node18&#45;&gt;Node23</title>
<path fill="none" stroke="midnightblue" d="M1235.8,-112.083C1238.48,-104.849 1242.35,-94.4087 1245.69,-85.3968"/>
<polygon fill="midnightblue" stroke="midnightblue" points="1249.07,-86.3442 1249.26,-75.7511 1242.5,-83.9129 1249.07,-86.3442"/>
</g>
<!-- Node24 -->
<g id="node24" class="node"><title>Node24</title>
<g id="a_node24"><a xlink:href="TaskConfig_8h.html" target="_top" xlink:title="QualityControl/TaskConfig.h">
<polygon fill="none" stroke="black" points="1033.5,-56.5 1033.5,-75.5 1173.5,-75.5 1173.5,-56.5 1033.5,-56.5"/>
<text text-anchor="middle" x="1103.5" y="-63.5" font-family="Helvetica,sans-Serif" font-size="10.00">QualityControl/TaskConfig.h</text>
</a>
</g>
</g>
<!-- Node18&#45;&gt;Node24 -->
<g id="edge27" class="edge"><title>Node18&#45;&gt;Node24</title>
<path fill="none" stroke="midnightblue" d="M1212.06,-112.444C1190.83,-103.557 1157.4,-89.5632 1133.25,-79.4514"/>
<polygon fill="midnightblue" stroke="midnightblue" points="1134.42,-76.1493 1123.84,-75.5164 1131.72,-82.6064 1134.42,-76.1493"/>
</g>
<!-- Node19&#45;&gt;Node11 -->
<g id="edge20" class="edge"><title>Node19&#45;&gt;Node11</title>
<path fill="none" stroke="midnightblue" d="M1462.05,-56.324C1478.49,-47.7034 1503.93,-34.3643 1522.97,-24.3855"/>
<polygon fill="midnightblue" stroke="midnightblue" points="1524.76,-27.3977 1531.99,-19.6545 1521.51,-21.198 1524.76,-27.3977"/>
</g>
<!-- Node19&#45;&gt;Node13 -->
<g id="edge19" class="edge"><title>Node19&#45;&gt;Node13</title>
<path fill="none" stroke="midnightblue" d="M1369.92,-57.2761C1308.73,-50.2955 1220.25,-38.5553 1134.01,-19.8024"/>
<polygon fill="midnightblue" stroke="midnightblue" points="1134.57,-16.3418 1124.05,-17.6029 1133.06,-23.1771 1134.57,-16.3418"/>
</g>
<!-- Node20 -->
<g id="node20" class="node"><title>Node20</title>
<polygon fill="none" stroke="#bfbfbf" points="1245.5,-0.5 1245.5,-19.5 1301.5,-19.5 1301.5,-0.5 1245.5,-0.5"/>
<text text-anchor="middle" x="1273.5" y="-7.5" font-family="Helvetica,sans-Serif" font-size="10.00">Rtypes.h</text>
</g>
<!-- Node19&#45;&gt;Node20 -->
<g id="edge21" class="edge"><title>Node19&#45;&gt;Node20</title>
<path fill="none" stroke="midnightblue" d="M1418.25,-56.4435C1389.06,-47.2801 1342.58,-32.6876 1310.19,-22.5192"/>
<polygon fill="midnightblue" stroke="midnightblue" points="1311.22,-19.1726 1300.63,-19.5164 1309.12,-25.8512 1311.22,-19.1726"/>
</g>
<!-- Node21 -->
<g id="node21" class="node"><title>Node21</title>
<polygon fill="none" stroke="#bfbfbf" points="1454,-0.5 1454,-19.5 1513,-19.5 1513,-0.5 1454,-0.5"/>
<text text-anchor="middle" x="1483.5" y="-7.5" font-family="Helvetica,sans-Serif" font-size="10.00">TObject.h</text>
</g>
<!-- Node19&#45;&gt;Node21 -->
<g id="edge22" class="edge"><title>Node19&#45;&gt;Node21</title>
<path fill="none" stroke="midnightblue" d="M1451.77,-56.083C1457.14,-48.4554 1465.02,-37.2645 1471.58,-27.9408"/>
<polygon fill="midnightblue" stroke="midnightblue" points="1474.45,-29.9434 1477.34,-19.7511 1468.72,-25.9149 1474.45,-29.9434"/>
</g>
<!-- Node22 -->
<g id="node22" class="node"><title>Node22</title>
<polygon fill="none" stroke="#bfbfbf" points="1319.5,-0.5 1319.5,-19.5 1435.5,-19.5 1435.5,-0.5 1319.5,-0.5"/>
<text text-anchor="middle" x="1377.5" y="-7.5" font-family="Helvetica,sans-Serif" font-size="10.00">Common/Exceptions.h</text>
</g>
<!-- Node19&#45;&gt;Node22 -->
<g id="edge23" class="edge"><title>Node19&#45;&gt;Node22</title>
<path fill="none" stroke="midnightblue" d="M1434.57,-56.324C1424.33,-48.1849 1408.78,-35.8395 1396.5,-26.0874"/>
<polygon fill="midnightblue" stroke="midnightblue" points="1398.63,-23.3119 1388.62,-19.8339 1394.28,-28.7937 1398.63,-23.3119"/>
</g>
<!-- Node23&#45;&gt;Node13 -->
<g id="edge26" class="edge"><title>Node23&#45;&gt;Node13</title>
<path fill="none" stroke="midnightblue" d="M1228.89,-56.4435C1203.17,-47.1203 1161.93,-32.1768 1133.83,-21.9911"/>
<polygon fill="midnightblue" stroke="midnightblue" points="1134.71,-18.5898 1124.12,-18.473 1132.33,-25.1709 1134.71,-18.5898"/>
</g>
<!-- Node23&#45;&gt;Node20 -->
<g id="edge25" class="edge"><title>Node23&#45;&gt;Node20</title>
<path fill="none" stroke="midnightblue" d="M1255.97,-56.083C1258.81,-48.77 1262.93,-38.1814 1266.46,-29.1034"/>
<polygon fill="midnightblue" stroke="midnightblue" points="1269.73,-30.3397 1270.1,-19.7511 1263.21,-27.8025 1269.73,-30.3397"/>
</g>
<!-- Node24&#45;&gt;Node13 -->
<g id="edge28" class="edge"><title>Node24&#45;&gt;Node13</title>
<path fill="none" stroke="midnightblue" d="M1103.5,-56.083C1103.5,-49.0059 1103.5,-38.8611 1103.5,-29.9865"/>
<polygon fill="midnightblue" stroke="midnightblue" points="1107,-29.751 1103.5,-19.7511 1100,-29.7511 1107,-29.751"/>
</g>
<!-- Node24&#45;&gt;Node14 -->
<g id="edge29" class="edge"><title>Node24&#45;&gt;Node14</title>
<path fill="none" stroke="midnightblue" d="M1116.51,-56.324C1129.03,-47.979 1148.18,-35.2122 1162.97,-25.3524"/>
<polygon fill="midnightblue" stroke="midnightblue" points="1165.14,-28.1137 1171.52,-19.6545 1161.26,-22.2894 1165.14,-28.1137"/>
</g>
</g>
</svg>
