<?xml version="1.0" encoding="UTF-8" standalone="no"?>
<!DOCTYPE svg PUBLIC "-//W3C//DTD SVG 1.1//EN"
 "http://www.w3.org/Graphics/SVG/1.1/DTD/svg11.dtd">
<!-- Generated by graphviz version 2.38.0 (20140413.2041)
 -->
<!-- Title: Modules/ITS/src/runITS.cxx Pages: 1 -->
<!--zoomable 274 -->
<svg id="main" version="1.1" xmlns="http://www.w3.org/2000/svg" xmlns:xlink="http://www.w3.org/1999/xlink" xml:space="preserve" onload="init(evt)">
<style type="text/css"><![CDATA[
.edge:hover path { stroke: red; }
.edge:hover polygon { stroke: red; fill: red; }
]]></style>
<script type="text/javascript"><![CDATA[
var edges = document.getElementsByTagName('g');
if (edges && edges.length) {
  for (var i=0;i<edges.length;i++) {
    if (edges[i].id.substr(0,4)=='edge') {
      edges[i].setAttribute('class','edge');
    }
  }
}
]]></script>
        <defs>
                <circle id="rim" cx="0" cy="0" r="7"/>
                <circle id="rim2" cx="0" cy="0" r="3.5"/>
                <g id="zoomPlus">
                        <use xlink:href="#rim" fill="#404040">
                                <set attributeName="fill" to="#808080" begin="zoomplus.mouseover" end="zoomplus.mouseout"/>
                        </use>
                        <path d="M-4,0h8M0,-4v8" fill="none" stroke="white" stroke-width="1.5" pointer-events="none"/>
                </g>
                <g id="zoomMin">
                        <use xlink:href="#rim" fill="#404040">
                                <set attributeName="fill" to="#808080" begin="zoomminus.mouseover" end="zoomminus.mouseout"/>
                        </use>
                        <path d="M-4,0h8" fill="none" stroke="white" stroke-width="1.5" pointer-events="none"/>
                </g>
                <g id="dirArrow">
                        <path fill="none" stroke="white" stroke-width="1.5" d="M0,-3.0v7 M-2.5,-0.5L0,-3.0L2.5,-0.5"/>
                </g>
               <g id="resetDef">
                       <use xlink:href="#rim2" fill="#404040">
                               <set attributeName="fill" to="#808080" begin="reset.mouseover" end="reset.mouseout"/>
                       </use>
               </g>
        </defs>

<script type="text/javascript">
var viewWidth = 2499;
var viewHeight = 274;
var sectionId = 'dynsection-0';
</script>
<script xlink:href="svgpan.js"/>
<svg id="graph" class="graph">
<g id="viewport">
<title>Modules/ITS/src/runITS.cxx</title>
<!-- Node1 -->
<g id="node1" class="node"><title>Node1</title>
<polygon fill="#bfbfbf" stroke="black" points="1706,-246.5 1706,-265.5 1846,-265.5 1846,-246.5 1706,-246.5"/>
<text text-anchor="middle" x="1776" y="-253.5" font-family="Helvetica,sans-Serif" font-size="10.00">Modules/ITS/src/runITS.cxx</text>
</g>
<!-- Node2 -->
<g id="node2" class="node"><title>Node2</title>
<polygon fill="none" stroke="#bfbfbf" points="0,-185 0,-204 138,-204 138,-185 0,-185"/>
<text text-anchor="middle" x="69" y="-192" font-family="Helvetica,sans-Serif" font-size="10.00">Framework/DataSampling.h</text>
</g>
<!-- Node1&#45;&gt;Node2 -->
<g id="edge1" class="edge"><title>Node1&#45;&gt;Node2</title>
<path fill="none" stroke="midnightblue" d="M1705.86,-254.522C1434.87,-252.447 456.124,-242.799 147,-210 137.646,-209.007 127.731,-207.512 118.22,-205.854"/>
<polygon fill="midnightblue" stroke="midnightblue" points="118.571,-202.36 108.105,-204.006 117.313,-209.246 118.571,-202.36"/>
</g>
<!-- Node3 -->
<g id="node3" class="node"><title>Node3</title>
<g id="a_node3"><a xlink:href="InfrastructureGenerator_8h.html" target="_top" xlink:title="QualityControl/Infrastructure\lGenerator.h">
<polygon fill="none" stroke="black" points="156,-179.5 156,-209.5 296,-209.5 296,-179.5 156,-179.5"/>
<text text-anchor="start" x="164" y="-197.5" font-family="Helvetica,sans-Serif" font-size="10.00">QualityControl/Infrastructure</text>
<text text-anchor="middle" x="226" y="-186.5" font-family="Helvetica,sans-Serif" font-size="10.00">Generator.h</text>
</a>
</g>
</g>
<!-- Node1&#45;&gt;Node3 -->
<g id="edge2" class="edge"><title>Node1&#45;&gt;Node3</title>
<path fill="none" stroke="midnightblue" d="M1705.88,-252.308C1451.33,-242.537 576.825,-208.967 306.361,-198.585"/>
<polygon fill="midnightblue" stroke="midnightblue" points="306.357,-195.082 296.23,-198.196 306.088,-202.077 306.357,-195.082"/>
</g>
<!-- Node7 -->
<g id="node7" class="node"><title>Node7</title>
<polygon fill="none" stroke="#bfbfbf" points="1823.5,-185 1823.5,-204 1894.5,-204 1894.5,-185 1823.5,-185"/>
<text text-anchor="middle" x="1859" y="-192" font-family="Helvetica,sans-Serif" font-size="10.00">FairLogger.h</text>
</g>
<!-- Node1&#45;&gt;Node7 -->
<g id="edge6" class="edge"><title>Node1&#45;&gt;Node7</title>
<path fill="none" stroke="midnightblue" d="M1787.89,-246.475C1801.2,-236.931 1823,-221.307 1838.96,-209.868"/>
<polygon fill="midnightblue" stroke="midnightblue" points="1841.04,-212.68 1847.13,-204.009 1836.96,-206.991 1841.04,-212.68"/>
</g>
<!-- Node8 -->
<g id="node8" class="node"><title>Node8</title>
<polygon fill="none" stroke="#bfbfbf" points="1854,-123.5 1854,-142.5 1904,-142.5 1904,-123.5 1854,-123.5"/>
<text text-anchor="middle" x="1879" y="-130.5" font-family="Helvetica,sans-Serif" font-size="10.00">TH1F.h</text>
</g>
<!-- Node1&#45;&gt;Node8 -->
<g id="edge7" class="edge"><title>Node1&#45;&gt;Node8</title>
<path fill="none" stroke="midnightblue" d="M1773.89,-246.096C1770.81,-230.865 1766.9,-199.475 1781,-179 1788.73,-167.769 1819.39,-154.75 1844.39,-145.613"/>
<polygon fill="midnightblue" stroke="midnightblue" points="1845.73,-148.85 1853.97,-142.194 1843.38,-142.257 1845.73,-148.85"/>
</g>
<!-- Node9 -->
<g id="node9" class="node"><title>Node9</title>
<polygon fill="none" stroke="#bfbfbf" points="1186,-123.5 1186,-142.5 1238,-142.5 1238,-123.5 1186,-123.5"/>
<text text-anchor="middle" x="1212" y="-130.5" font-family="Helvetica,sans-Serif" font-size="10.00">memory</text>
</g>
<!-- Node1&#45;&gt;Node9 -->
<g id="edge8" class="edge"><title>Node1&#45;&gt;Node9</title>
<path fill="none" stroke="midnightblue" d="M1705.74,-248.825C1639.29,-242.158 1537.06,-229.754 1450,-210 1374.69,-192.912 1289.02,-162.834 1243.82,-146.099"/>
<polygon fill="midnightblue" stroke="midnightblue" points="1244.88,-142.757 1234.29,-142.542 1242.43,-149.315 1244.88,-142.757"/>
</g>
<!-- Node10 -->
<g id="node10" class="node"><title>Node10</title>
<polygon fill="none" stroke="#bfbfbf" points="1912.5,-185 1912.5,-204 1961.5,-204 1961.5,-185 1912.5,-185"/>
<text text-anchor="middle" x="1937" y="-192" font-family="Helvetica,sans-Serif" font-size="10.00">random</text>
</g>
<!-- Node1&#45;&gt;Node10 -->
<g id="edge9" class="edge"><title>Node1&#45;&gt;Node10</title>
<path fill="none" stroke="midnightblue" d="M1802.2,-246.438C1828.22,-237.782 1869.16,-223.754 1904,-210 1905.6,-209.368 1907.24,-208.705 1908.89,-208.024"/>
<polygon fill="midnightblue" stroke="midnightblue" points="1910.43,-211.171 1918.26,-204.03 1907.68,-204.731 1910.43,-211.171"/>
</g>
<!-- Node11 -->
<g id="node11" class="node"><title>Node11</title>
<polygon fill="none" stroke="#bfbfbf" points="1980,-185 1980,-204 2140,-204 2140,-185 1980,-185"/>
<text text-anchor="middle" x="2060" y="-192" font-family="Helvetica,sans-Serif" font-size="10.00">Framework/runDataProcessing.h</text>
</g>
<!-- Node1&#45;&gt;Node11 -->
<g id="edge10" class="edge"><title>Node1&#45;&gt;Node11</title>
<path fill="none" stroke="midnightblue" d="M1816.69,-246.475C1867.52,-235.827 1954.47,-217.609 2009.5,-206.081"/>
<polygon fill="midnightblue" stroke="midnightblue" points="2010.32,-209.485 2019.39,-204.009 2008.88,-202.634 2010.32,-209.485"/>
</g>
<!-- Node12 -->
<g id="node12" class="node"><title>Node12</title>
<g id="a_node12"><a xlink:href="Check_8h_source.html" target="_top" xlink:title="QualityControl/Check.h">
<polygon fill="none" stroke="black" points="846.5,-185 846.5,-204 965.5,-204 965.5,-185 846.5,-185"/>
<text text-anchor="middle" x="906" y="-192" font-family="Helvetica,sans-Serif" font-size="10.00">QualityControl/Check.h</text>
</a>
</g>
</g>
<!-- Node1&#45;&gt;Node12 -->
<g id="edge11" class="edge"><title>Node1&#45;&gt;Node12</title>
<path fill="none" stroke="midnightblue" d="M1705.91,-250.206C1542.79,-239.051 1139.27,-211.454 976.122,-200.296"/>
<polygon fill="midnightblue" stroke="midnightblue" points="975.944,-196.775 965.729,-199.585 975.467,-203.759 975.944,-196.775"/>
</g>
<!-- Node28 -->
<g id="node28" class="node"><title>Node28</title>
<g id="a_node28"><a xlink:href="runnerUtils_8h.html" target="_top" xlink:title="QualityControl/runnerUtils.h">
<polygon fill="none" stroke="black" points="1534.5,-67.5 1534.5,-86.5 1671.5,-86.5 1671.5,-67.5 1534.5,-67.5"/>
<text text-anchor="middle" x="1603" y="-74.5" font-family="Helvetica,sans-Serif" font-size="10.00">QualityControl/runnerUtils.h</text>
</a>
</g>
</g>
<!-- Node1&#45;&gt;Node28 -->
<g id="edge45" class="edge"><title>Node1&#45;&gt;Node28</title>
<path fill="none" stroke="midnightblue" d="M1778.16,-246.42C1782.52,-230.838 1793.79,-197.77 1815,-179 1852.57,-145.758 1945.83,-160.935 1913,-123 1883.66,-89.0984 1763.53,-80.1993 1681.72,-78.1595"/>
<polygon fill="midnightblue" stroke="midnightblue" points="1681.77,-74.6598 1671.7,-77.9387 1681.62,-81.6581 1681.77,-74.6598"/>
</g>
<!-- Node30 -->
<g id="node30" class="node"><title>Node30</title>
<g id="a_node30"><a xlink:href="ExamplePrinterSpec_8h.html" target="_top" xlink:title="QualityControl/ExamplePrinter\lSpec.h">
<polygon fill="none" stroke="black" points="1458.5,-179.5 1458.5,-209.5 1607.5,-209.5 1607.5,-179.5 1458.5,-179.5"/>
<text text-anchor="start" x="1466.5" y="-197.5" font-family="Helvetica,sans-Serif" font-size="10.00">QualityControl/ExamplePrinter</text>
<text text-anchor="middle" x="1533" y="-186.5" font-family="Helvetica,sans-Serif" font-size="10.00">Spec.h</text>
</a>
</g>
</g>
<!-- Node1&#45;&gt;Node30 -->
<g id="edge49" class="edge"><title>Node1&#45;&gt;Node30</title>
<path fill="none" stroke="midnightblue" d="M1741.18,-246.475C1704.51,-237.494 1645.83,-223.128 1600.11,-211.933"/>
<polygon fill="midnightblue" stroke="midnightblue" points="1600.82,-208.502 1590.27,-209.523 1599.15,-215.301 1600.82,-208.502"/>
</g>
<!-- Node34 -->
<g id="node34" class="node"><title>Node34</title>
<polygon fill="none" stroke="#bfbfbf" points="2158.5,-179.5 2158.5,-209.5 2299.5,-209.5 2299.5,-179.5 2158.5,-179.5"/>
<text text-anchor="start" x="2166.5" y="-197.5" font-family="Helvetica,sans-Serif" font-size="10.00">ITSQCDataReaderWorkflow</text>
<text text-anchor="middle" x="2229" y="-186.5" font-family="Helvetica,sans-Serif" font-size="10.00">/TestDataReader.h</text>
</g>
<!-- Node1&#45;&gt;Node34 -->
<g id="edge58" class="edge"><title>Node1&#45;&gt;Node34</title>
<path fill="none" stroke="midnightblue" d="M1846.29,-247.776C1919.2,-239.998 2036.73,-226.665 2148.29,-210.05"/>
<polygon fill="midnightblue" stroke="midnightblue" points="2149,-213.482 2158.37,-208.536 2147.96,-206.56 2149,-213.482"/>
</g>
<!-- Node35 -->
<g id="node35" class="node"><title>Node35</title>
<polygon fill="none" stroke="#bfbfbf" points="2317.5,-185 2317.5,-204 2490.5,-204 2490.5,-185 2317.5,-185"/>
<text text-anchor="middle" x="2404" y="-192" font-family="Helvetica,sans-Serif" font-size="10.00">DetectorsBase/GeometryManager.h</text>
</g>
<!-- Node1&#45;&gt;Node35 -->
<g id="edge59" class="edge"><title>Node1&#45;&gt;Node35</title>
<path fill="none" stroke="midnightblue" d="M1846.42,-250.568C1948.57,-243.797 2143.7,-229.571 2309,-210 2319.78,-208.723 2331.22,-207.159 2342.29,-205.535"/>
<polygon fill="midnightblue" stroke="midnightblue" points="2342.94,-208.976 2352.32,-204.034 2341.91,-202.053 2342.94,-208.976"/>
</g>
<!-- Node4 -->
<g id="node4" class="node"><title>Node4</title>
<polygon fill="none" stroke="#bfbfbf" points="204,-123.5 204,-142.5 248,-142.5 248,-123.5 204,-123.5"/>
<text text-anchor="middle" x="226" y="-130.5" font-family="Helvetica,sans-Serif" font-size="10.00">vector</text>
</g>
<!-- Node3&#45;&gt;Node4 -->
<g id="edge3" class="edge"><title>Node3&#45;&gt;Node4</title>
<path fill="none" stroke="midnightblue" d="M226,-179.399C226,-171.466 226,-161.458 226,-152.858"/>
<polygon fill="midnightblue" stroke="midnightblue" points="229.5,-152.658 226,-142.658 222.5,-152.658 229.5,-152.658"/>
</g>
<!-- Node5 -->
<g id="node5" class="node"><title>Node5</title>
<polygon fill="none" stroke="#bfbfbf" points="992.5,-6 992.5,-25 1033.5,-25 1033.5,-6 992.5,-6"/>
<text text-anchor="middle" x="1013" y="-13" font-family="Helvetica,sans-Serif" font-size="10.00">string</text>
</g>
<!-- Node3&#45;&gt;Node5 -->
<g id="edge4" class="edge"><title>Node3&#45;&gt;Node5</title>
<path fill="none" stroke="midnightblue" d="M212.254,-179.314C200.109,-164.976 185.666,-142.249 195,-123 212.535,-86.8373 228.384,-81.15 266,-67 410.749,-12.5503 808.37,-55.9205 961,-31 968.085,-29.8433 975.585,-28.0807 982.618,-26.1784"/>
<polygon fill="midnightblue" stroke="midnightblue" points="983.839,-29.4693 992.484,-23.3456 981.907,-22.7411 983.839,-29.4693"/>
</g>
<!-- Node6 -->
<g id="node6" class="node"><title>Node6</title>
<polygon fill="none" stroke="#bfbfbf" points="8,-123.5 8,-142.5 148,-142.5 148,-123.5 8,-123.5"/>
<text text-anchor="middle" x="78" y="-130.5" font-family="Helvetica,sans-Serif" font-size="10.00">Framework/WorkflowSpec.h</text>
</g>
<!-- Node3&#45;&gt;Node6 -->
<g id="edge5" class="edge"><title>Node3&#45;&gt;Node6</title>
<path fill="none" stroke="midnightblue" d="M190.926,-179.399C165.983,-169.372 132.792,-156.028 108.856,-146.405"/>
<polygon fill="midnightblue" stroke="midnightblue" points="110.119,-143.141 99.5353,-142.658 107.508,-149.635 110.119,-143.141"/>
</g>
<!-- Node12&#45;&gt;Node4 -->
<g id="edge14" class="edge"><title>Node12&#45;&gt;Node4</title>
<path fill="none" stroke="midnightblue" d="M846.295,-193.111C732.881,-191.453 478.594,-183.327 258.283,-143.099"/>
<polygon fill="midnightblue" stroke="midnightblue" points="258.62,-139.602 248.15,-141.221 257.345,-146.485 258.62,-139.602"/>
</g>
<!-- Node12&#45;&gt;Node9 -->
<g id="edge15" class="edge"><title>Node12&#45;&gt;Node9</title>
<path fill="none" stroke="midnightblue" d="M953.666,-184.951C1006.97,-175.274 1095.83,-158.796 1172,-143 1173.25,-142.74 1174.53,-142.472 1175.82,-142.198"/>
<polygon fill="midnightblue" stroke="midnightblue" points="1176.75,-145.578 1185.78,-140.033 1175.26,-138.737 1176.75,-145.578"/>
</g>
<!-- Node13 -->
<g id="node13" class="node"><title>Node13</title>
<polygon fill="none" stroke="#bfbfbf" points="470.5,-123.5 470.5,-142.5 529.5,-142.5 529.5,-123.5 470.5,-123.5"/>
<text text-anchor="middle" x="500" y="-130.5" font-family="Helvetica,sans-Serif" font-size="10.00">functional</text>
</g>
<!-- Node12&#45;&gt;Node13 -->
<g id="edge12" class="edge"><title>Node12&#45;&gt;Node13</title>
<path fill="none" stroke="midnightblue" d="M846.304,-186.96C775.525,-178.832 653.83,-163.683 539.711,-142.981"/>
<polygon fill="midnightblue" stroke="midnightblue" points="540.22,-139.516 529.753,-141.157 538.959,-146.401 540.22,-139.516"/>
</g>
<!-- Node14 -->
<g id="node14" class="node"><title>Node14</title>
<polygon fill="none" stroke="#bfbfbf" points="1205.5,-6 1205.5,-25 1240.5,-25 1240.5,-6 1205.5,-6"/>
<text text-anchor="middle" x="1223" y="-13" font-family="Helvetica,sans-Serif" font-size="10.00">map</text>
</g>
<!-- Node12&#45;&gt;Node14 -->
<g id="edge13" class="edge"><title>Node12&#45;&gt;Node14</title>
<path fill="none" stroke="midnightblue" d="M957.95,-184.923C1004.27,-176.563 1073.59,-162.293 1132,-143 1152.78,-136.135 1156.69,-131.156 1177,-123 1220.83,-105.396 1249.84,-125.646 1277,-87 1291.12,-66.9127 1266.77,-44.5353 1246.36,-30.4903"/>
<polygon fill="midnightblue" stroke="midnightblue" points="1248.26,-27.551 1237.97,-25.0121 1244.43,-33.4114 1248.26,-27.551"/>
</g>
<!-- Node15 -->
<g id="node15" class="node"><title>Node15</title>
<polygon fill="none" stroke="#bfbfbf" points="723.5,-67.5 723.5,-86.5 806.5,-86.5 806.5,-67.5 723.5,-67.5"/>
<text text-anchor="middle" x="765" y="-74.5" font-family="Helvetica,sans-Serif" font-size="10.00">unordered_map</text>
</g>
<!-- Node12&#45;&gt;Node15 -->
<g id="edge16" class="edge"><title>Node12&#45;&gt;Node15</title>
<path fill="none" stroke="midnightblue" d="M846.098,-191.06C730.599,-185.738 486.214,-171.237 461,-143 455.08,-136.37 455.193,-129.73 461,-123 492.981,-85.9363 635.324,-78.8864 713.372,-77.8657"/>
<polygon fill="midnightblue" stroke="midnightblue" points="713.517,-81.3645 723.48,-77.7625 713.445,-74.3648 713.517,-81.3645"/>
</g>
<!-- Node16 -->
<g id="node16" class="node"><title>Node16</title>
<polygon fill="none" stroke="#bfbfbf" points="548,-123.5 548,-142.5 712,-142.5 712,-123.5 548,-123.5"/>
<text text-anchor="middle" x="630" y="-130.5" font-family="Helvetica,sans-Serif" font-size="10.00">Framework/DataProcessorSpec.h</text>
</g>
<!-- Node12&#45;&gt;Node16 -->
<g id="edge17" class="edge"><title>Node12&#45;&gt;Node16</title>
<path fill="none" stroke="midnightblue" d="M866.456,-184.975C817.165,-174.349 732.907,-156.185 679.413,-144.652"/>
<polygon fill="midnightblue" stroke="midnightblue" points="679.984,-141.195 669.471,-142.509 678.509,-148.038 679.984,-141.195"/>
</g>
<!-- Node17 -->
<g id="node17" class="node"><title>Node17</title>
<g id="a_node17"><a xlink:href="Quality_8h.html" target="_top" xlink:title="QualityControl/Quality.h">
<polygon fill="none" stroke="black" points="863.5,-67.5 863.5,-86.5 984.5,-86.5 984.5,-67.5 863.5,-67.5"/>
<text text-anchor="middle" x="924" y="-74.5" font-family="Helvetica,sans-Serif" font-size="10.00">QualityControl/Quality.h</text>
</a>
</g>
</g>
<!-- Node12&#45;&gt;Node17 -->
<g id="edge18" class="edge"><title>Node12&#45;&gt;Node17</title>
<path fill="none" stroke="midnightblue" d="M907.353,-184.819C910.246,-166.257 917.09,-122.339 921.043,-96.9734"/>
<polygon fill="midnightblue" stroke="midnightblue" points="924.55,-97.2017 922.631,-86.782 917.633,-96.1238 924.55,-97.2017"/>
</g>
<!-- Node19 -->
<g id="node19" class="node"><title>Node19</title>
<g id="a_node19"><a xlink:href="QualityObject_8h_source.html" target="_top" xlink:title="QualityControl/QualityObject.h">
<polygon fill="none" stroke="black" points="1331.5,-123.5 1331.5,-142.5 1480.5,-142.5 1480.5,-123.5 1331.5,-123.5"/>
<text text-anchor="middle" x="1406" y="-130.5" font-family="Helvetica,sans-Serif" font-size="10.00">QualityControl/QualityObject.h</text>
</a>
</g>
</g>
<!-- Node12&#45;&gt;Node19 -->
<g id="edge21" class="edge"><title>Node12&#45;&gt;Node19</title>
<path fill="none" stroke="midnightblue" d="M965.815,-186.382C1055.16,-175.75 1223.69,-155.695 1324.31,-143.722"/>
<polygon fill="midnightblue" stroke="midnightblue" points="1324.91,-147.175 1334.43,-142.517 1324.08,-140.224 1324.91,-147.175"/>
</g>
<!-- Node23 -->
<g id="node23" class="node"><title>Node23</title>
<g id="a_node23"><a xlink:href="MonitorObject_8h.html" target="_top" xlink:title="QualityControl/MonitorObject.h">
<polygon fill="none" stroke="black" points="1117.5,-67.5 1117.5,-86.5 1268.5,-86.5 1268.5,-67.5 1117.5,-67.5"/>
<text text-anchor="middle" x="1193" y="-74.5" font-family="Helvetica,sans-Serif" font-size="10.00">QualityControl/MonitorObject.h</text>
</a>
</g>
</g>
<!-- Node12&#45;&gt;Node23 -->
<g id="edge27" class="edge"><title>Node12&#45;&gt;Node23</title>
<path fill="none" stroke="midnightblue" d="M959.195,-184.937C999.187,-177.259 1054.65,-163.925 1100,-143 1128.44,-129.878 1157.42,-107.985 1175.31,-93.2763"/>
<polygon fill="midnightblue" stroke="midnightblue" points="1177.73,-95.8107 1183.14,-86.7026 1173.23,-90.4476 1177.73,-95.8107"/>
</g>
<!-- Node24 -->
<g id="node24" class="node"><title>Node24</title>
<g id="a_node24"><a xlink:href="CheckInterface_8h.html" target="_top" xlink:title="QualityControl/CheckInterface.h">
<polygon fill="none" stroke="black" points="934.5,-123.5 934.5,-142.5 1091.5,-142.5 1091.5,-123.5 934.5,-123.5"/>
<text text-anchor="middle" x="1013" y="-130.5" font-family="Helvetica,sans-Serif" font-size="10.00">QualityControl/CheckInterface.h</text>
</a>
</g>
</g>
<!-- Node12&#45;&gt;Node24 -->
<g id="edge33" class="edge"><title>Node12&#45;&gt;Node24</title>
<path fill="none" stroke="midnightblue" d="M921.33,-184.975C938.97,-175.166 968.16,-158.935 988.858,-147.425"/>
<polygon fill="midnightblue" stroke="midnightblue" points="990.659,-150.428 997.698,-142.509 987.257,-144.31 990.659,-150.428"/>
</g>
<!-- Node25 -->
<g id="node25" class="node"><title>Node25</title>
<g id="a_node25"><a xlink:href="QcInfoLogger_8h.html" target="_top" xlink:title="QualityControl/QcInfoLogger.h">
<polygon fill="none" stroke="black" points="265.5,-123.5 265.5,-142.5 414.5,-142.5 414.5,-123.5 265.5,-123.5"/>
<text text-anchor="middle" x="340" y="-130.5" font-family="Helvetica,sans-Serif" font-size="10.00">QualityControl/QcInfoLogger.h</text>
</a>
</g>
</g>
<!-- Node12&#45;&gt;Node25 -->
<g id="edge40" class="edge"><title>Node12&#45;&gt;Node25</title>
<path fill="none" stroke="midnightblue" d="M846.498,-187.245C745.661,-176.645 540.888,-155.118 424.974,-142.933"/>
<polygon fill="midnightblue" stroke="midnightblue" points="425.038,-139.42 414.727,-141.856 424.306,-146.382 425.038,-139.42"/>
</g>
<!-- Node27 -->
<g id="node27" class="node"><title>Node27</title>
<g id="a_node27"><a xlink:href="CheckConfig_8h.html" target="_top" xlink:title="QualityControl/CheckConfig.h">
<polygon fill="none" stroke="black" points="730.5,-123.5 730.5,-142.5 877.5,-142.5 877.5,-123.5 730.5,-123.5"/>
<text text-anchor="middle" x="804" y="-130.5" font-family="Helvetica,sans-Serif" font-size="10.00">QualityControl/CheckConfig.h</text>
</a>
</g>
</g>
<!-- Node12&#45;&gt;Node27 -->
<g id="edge42" class="edge"><title>Node12&#45;&gt;Node27</title>
<path fill="none" stroke="midnightblue" d="M891.386,-184.975C874.647,-175.211 846.996,-159.081 827.281,-147.581"/>
<polygon fill="midnightblue" stroke="midnightblue" points="828.988,-144.525 818.587,-142.509 825.461,-150.571 828.988,-144.525"/>
</g>
<!-- Node17&#45;&gt;Node5 -->
<g id="edge20" class="edge"><title>Node17&#45;&gt;Node5</title>
<path fill="none" stroke="midnightblue" d="M936.752,-67.4751C951.027,-57.9315 974.397,-42.3073 991.508,-30.8683"/>
<polygon fill="midnightblue" stroke="midnightblue" points="993.904,-33.4766 1000.27,-25.0091 990.014,-27.6572 993.904,-33.4766"/>
</g>
<!-- Node18 -->
<g id="node18" class="node"><title>Node18</title>
<polygon fill="none" stroke="#bfbfbf" points="896,-6 896,-25 952,-25 952,-6 896,-6"/>
<text text-anchor="middle" x="924" y="-13" font-family="Helvetica,sans-Serif" font-size="10.00">Rtypes.h</text>
</g>
<!-- Node17&#45;&gt;Node18 -->
<g id="edge19" class="edge"><title>Node17&#45;&gt;Node18</title>
<path fill="none" stroke="midnightblue" d="M924,-67.4751C924,-59.0803 924,-45.9806 924,-35.1631"/>
<polygon fill="midnightblue" stroke="midnightblue" points="927.5,-35.0091 924,-25.0091 920.5,-35.0091 927.5,-35.0091"/>
</g>
<!-- Node19&#45;&gt;Node14 -->
<g id="edge23" class="edge"><title>Node19&#45;&gt;Node14</title>
<path fill="none" stroke="midnightblue" d="M1406.1,-123.131C1405.75,-109.263 1403.03,-82.438 1388,-67 1383.08,-61.9467 1296.1,-36.9978 1250.46,-24.1611"/>
<polygon fill="midnightblue" stroke="midnightblue" points="1251.18,-20.7278 1240.61,-21.3969 1249.29,-27.4677 1251.18,-20.7278"/>
</g>
<!-- Node19&#45;&gt;Node17 -->
<g id="edge26" class="edge"><title>Node19&#45;&gt;Node17</title>
<path fill="none" stroke="midnightblue" d="M1331.48,-123.651C1239.63,-113.361 1084.68,-96.0012 994.643,-85.9143"/>
<polygon fill="midnightblue" stroke="midnightblue" points="994.857,-82.4165 984.53,-84.7813 994.078,-89.373 994.857,-82.4165"/>
</g>
<!-- Node20 -->
<g id="node20" class="node"><title>Node20</title>
<polygon fill="none" stroke="#bfbfbf" points="1325,-67.5 1325,-86.5 1379,-86.5 1379,-67.5 1325,-67.5"/>
<text text-anchor="middle" x="1352" y="-74.5" font-family="Helvetica,sans-Serif" font-size="10.00">iostream</text>
</g>
<!-- Node19&#45;&gt;Node20 -->
<g id="edge22" class="edge"><title>Node19&#45;&gt;Node20</title>
<path fill="none" stroke="midnightblue" d="M1397.08,-123.083C1389.22,-115.22 1377.57,-103.569 1368.08,-94.0813"/>
<polygon fill="midnightblue" stroke="midnightblue" points="1370.3,-91.3473 1360.75,-86.7511 1365.35,-96.2971 1370.3,-91.3473"/>
</g>
<!-- Node21 -->
<g id="node21" class="node"><title>Node21</title>
<polygon fill="none" stroke="#bfbfbf" points="1288.5,-6 1288.5,-25 1347.5,-25 1347.5,-6 1288.5,-6"/>
<text text-anchor="middle" x="1318" y="-13" font-family="Helvetica,sans-Serif" font-size="10.00">TObject.h</text>
</g>
<!-- Node19&#45;&gt;Node21 -->
<g id="edge24" class="edge"><title>Node19&#45;&gt;Node21</title>
<path fill="none" stroke="midnightblue" d="M1411.83,-123.33C1419.87,-110.194 1432.15,-84.8867 1421,-67 1407.14,-44.7702 1380.33,-32.0522 1357.54,-24.9401"/>
<polygon fill="midnightblue" stroke="midnightblue" points="1358.32,-21.522 1347.74,-22.1383 1356.39,-28.2524 1358.32,-21.522"/>
</g>
<!-- Node22 -->
<g id="node22" class="node"><title>Node22</title>
<polygon fill="none" stroke="#bfbfbf" points="1413,-6 1413,-25 1529,-25 1529,-6 1413,-6"/>
<text text-anchor="middle" x="1471" y="-13" font-family="Helvetica,sans-Serif" font-size="10.00">Common/Exceptions.h</text>
</g>
<!-- Node19&#45;&gt;Node22 -->
<g id="edge25" class="edge"><title>Node19&#45;&gt;Node22</title>
<path fill="none" stroke="midnightblue" d="M1421.13,-123.336C1433.38,-115.479 1450.04,-102.733 1459,-87 1468.01,-71.1813 1470.64,-50.3557 1471.23,-35.448"/>
<polygon fill="midnightblue" stroke="midnightblue" points="1474.73,-35.4285 1471.37,-25.3824 1467.74,-35.3345 1474.73,-35.4285"/>
</g>
<!-- Node23&#45;&gt;Node5 -->
<g id="edge28" class="edge"><title>Node23&#45;&gt;Node5</title>
<path fill="none" stroke="midnightblue" d="M1167.21,-67.4751C1134.47,-56.6539 1078.09,-38.0153 1043.33,-26.5241"/>
<polygon fill="midnightblue" stroke="midnightblue" points="1044.3,-23.1599 1033.71,-23.3445 1042.1,-29.8062 1044.3,-23.1599"/>
</g>
<!-- Node23&#45;&gt;Node14 -->
<g id="edge29" class="edge"><title>Node23&#45;&gt;Node14</title>
<path fill="none" stroke="midnightblue" d="M1197.3,-67.4751C1201.66,-58.8152 1208.56,-45.1486 1214.1,-34.1453"/>
<polygon fill="midnightblue" stroke="midnightblue" points="1217.33,-35.5141 1218.71,-25.0091 1211.08,-32.3625 1217.33,-35.5141"/>
</g>
<!-- Node23&#45;&gt;Node18 -->
<g id="edge30" class="edge"><title>Node23&#45;&gt;Node18</title>
<path fill="none" stroke="midnightblue" d="M1151.48,-67.4847C1109.06,-58.695 1041.32,-44.4122 983,-31 976.232,-29.4435 969.042,-27.7284 962.095,-26.0393"/>
<polygon fill="midnightblue" stroke="midnightblue" points="962.715,-22.5877 952.169,-23.6047 961.047,-29.3861 962.715,-22.5877"/>
</g>
<!-- Node23&#45;&gt;Node21 -->
<g id="edge31" class="edge"><title>Node23&#45;&gt;Node21</title>
<path fill="none" stroke="midnightblue" d="M1210.91,-67.4751C1231.89,-57.4897 1266.85,-40.8476 1291.09,-29.3075"/>
<polygon fill="midnightblue" stroke="midnightblue" points="1292.6,-32.4673 1300.12,-25.0091 1289.59,-26.1468 1292.6,-32.4673"/>
</g>
<!-- Node23&#45;&gt;Node22 -->
<g id="edge32" class="edge"><title>Node23&#45;&gt;Node22</title>
<path fill="none" stroke="midnightblue" d="M1232.83,-67.4751C1282.48,-56.849 1367.35,-38.6847 1421.23,-27.1524"/>
<polygon fill="midnightblue" stroke="midnightblue" points="1422.2,-30.5245 1431.24,-25.0091 1420.73,-23.6796 1422.2,-30.5245"/>
</g>
<!-- Node24&#45;&gt;Node5 -->
<g id="edge34" class="edge"><title>Node24&#45;&gt;Node5</title>
<path fill="none" stroke="midnightblue" d="M1013,-123.319C1013,-104.757 1013,-60.8391 1013,-35.4734"/>
<polygon fill="midnightblue" stroke="midnightblue" points="1016.5,-35.282 1013,-25.282 1009.5,-35.282 1016.5,-35.282"/>
</g>
<!-- Node24&#45;&gt;Node14 -->
<g id="edge35" class="edge"><title>Node24&#45;&gt;Node14</title>
<path fill="none" stroke="midnightblue" d="M1023.97,-123.489C1041.22,-110.341 1076.03,-84.7545 1108,-67 1137.02,-50.8826 1172.2,-36.0742 1195.95,-26.7186"/>
<polygon fill="midnightblue" stroke="midnightblue" points="1197.32,-29.9402 1205.37,-23.055 1194.78,-23.4157 1197.32,-29.9402"/>
</g>
<!-- Node24&#45;&gt;Node15 -->
<g id="edge36" class="edge"><title>Node24&#45;&gt;Node15</title>
<path fill="none" stroke="midnightblue" d="M973.704,-123.444C930.441,-114.023 860.827,-98.8656 814.027,-88.6752"/>
<polygon fill="midnightblue" stroke="midnightblue" points="814.628,-85.2242 804.112,-86.5164 813.139,-92.0639 814.628,-85.2242"/>
</g>
<!-- Node24&#45;&gt;Node17 -->
<g id="edge39" class="edge"><title>Node24&#45;&gt;Node17</title>
<path fill="none" stroke="midnightblue" d="M998.701,-123.324C984.817,-114.9 963.508,-101.971 947.196,-92.0741"/>
<polygon fill="midnightblue" stroke="midnightblue" points="948.629,-88.8495 938.264,-86.6545 944.998,-94.8341 948.629,-88.8495"/>
</g>
<!-- Node24&#45;&gt;Node18 -->
<g id="edge37" class="edge"><title>Node24&#45;&gt;Node18</title>
<path fill="none" stroke="midnightblue" d="M957.156,-123.467C916.572,-115.991 866.632,-103.704 854,-87 837.414,-65.0683 868.632,-43.1117 894.547,-29.6666"/>
<polygon fill="midnightblue" stroke="midnightblue" points="896.343,-32.6831 903.757,-25.114 893.241,-26.408 896.343,-32.6831"/>
</g>
<!-- Node24&#45;&gt;Node23 -->
<g id="edge38" class="edge"><title>Node24&#45;&gt;Node23</title>
<path fill="none" stroke="midnightblue" d="M1041.52,-123.444C1072.07,-114.28 1120.71,-99.6876 1154.6,-89.5192"/>
<polygon fill="midnightblue" stroke="midnightblue" points="1156.04,-92.7424 1164.61,-86.5164 1154.03,-86.0376 1156.04,-92.7424"/>
</g>
<!-- Node26 -->
<g id="node26" class="node"><title>Node26</title>
<polygon fill="none" stroke="#bfbfbf" points="275,-67.5 275,-86.5 405,-86.5 405,-67.5 275,-67.5"/>
<text text-anchor="middle" x="340" y="-74.5" font-family="Helvetica,sans-Serif" font-size="10.00">InfoLogger/InfoLogger.hxx</text>
</g>
<!-- Node25&#45;&gt;Node26 -->
<g id="edge41" class="edge"><title>Node25&#45;&gt;Node26</title>
<path fill="none" stroke="midnightblue" d="M340,-123.083C340,-116.006 340,-105.861 340,-96.9865"/>
<polygon fill="midnightblue" stroke="midnightblue" points="343.5,-96.751 340,-86.7511 336.5,-96.7511 343.5,-96.751"/>
</g>
<!-- Node27&#45;&gt;Node5 -->
<g id="edge43" class="edge"><title>Node27&#45;&gt;Node5</title>
<path fill="none" stroke="midnightblue" d="M773.395,-123.41C739.563,-112.436 692.504,-91.8563 714,-67 750.284,-25.0444 906.731,-42.4726 961,-31 968.023,-29.5153 975.499,-27.621 982.527,-25.6951"/>
<polygon fill="midnightblue" stroke="midnightblue" points="983.735,-28.9908 992.4,-22.895 981.825,-22.2564 983.735,-28.9908"/>
</g>
<!-- Node27&#45;&gt;Node15 -->
<g id="edge44" class="edge"><title>Node27&#45;&gt;Node15</title>
<path fill="none" stroke="midnightblue" d="M797.56,-123.083C792.051,-115.455 783.969,-104.264 777.235,-94.9408"/>
<polygon fill="midnightblue" stroke="midnightblue" points="780.013,-92.8087 771.32,-86.7511 774.338,-96.9071 780.013,-92.8087"/>
</g>
<!-- Node28&#45;&gt;Node5 -->
<g id="edge46" class="edge"><title>Node28&#45;&gt;Node5</title>
<path fill="none" stroke="midnightblue" d="M1534.45,-69.0873C1406.23,-56.1559 1134.8,-28.7833 1043.61,-19.5872"/>
<polygon fill="midnightblue" stroke="midnightblue" points="1043.95,-16.1035 1033.65,-18.5824 1043.25,-23.0682 1043.95,-16.1035"/>
</g>
<!-- Node28&#45;&gt;Node22 -->
<g id="edge48" class="edge"><title>Node28&#45;&gt;Node22</title>
<path fill="none" stroke="midnightblue" d="M1584.09,-67.4751C1561.84,-57.4455 1524.69,-40.7002 1499.07,-29.1546"/>
<polygon fill="midnightblue" stroke="midnightblue" points="1500.43,-25.9277 1489.88,-25.0091 1497.56,-32.3094 1500.43,-25.9277"/>
</g>
<!-- Node29 -->
<g id="node29" class="node"><title>Node29</title>
<polygon fill="none" stroke="#bfbfbf" points="1547.5,-0.5 1547.5,-30.5 1682.5,-30.5 1682.5,-0.5 1547.5,-0.5"/>
<text text-anchor="start" x="1555.5" y="-18.5" font-family="Helvetica,sans-Serif" font-size="10.00">Configuration/Configuration</text>
<text text-anchor="middle" x="1615" y="-7.5" font-family="Helvetica,sans-Serif" font-size="10.00">Factory.h</text>
</g>
<!-- Node28&#45;&gt;Node29 -->
<g id="edge47" class="edge"><title>Node28&#45;&gt;Node29</title>
<path fill="none" stroke="midnightblue" d="M1604.72,-67.4751C1606.15,-60.3957 1608.25,-49.9705 1610.18,-40.3896"/>
<polygon fill="midnightblue" stroke="midnightblue" points="1613.63,-41.0176 1612.17,-30.523 1606.76,-39.6336 1613.63,-41.0176"/>
</g>
<!-- Node30&#45;&gt;Node5 -->
<g id="edge50" class="edge"><title>Node30&#45;&gt;Node5</title>
<path fill="none" stroke="midnightblue" d="M1458.29,-185.523C1406.87,-178.377 1337.71,-165.446 1280,-143 1264.02,-136.783 1262.8,-129.665 1247,-123 1188.2,-98.1992 1165.58,-114.524 1108,-87 1077.9,-72.6125 1047.76,-48.1025 1029.74,-32.1062"/>
<polygon fill="midnightblue" stroke="midnightblue" points="1031.68,-29.1423 1021.92,-25.0191 1026.98,-34.3285 1031.68,-29.1423"/>
</g>
<!-- Node30&#45;&gt;Node8 -->
<g id="edge52" class="edge"><title>Node30&#45;&gt;Node8</title>
<path fill="none" stroke="midnightblue" d="M1607.77,-183.505C1668.86,-174.855 1757.61,-161.188 1843.86,-143.075"/>
<polygon fill="midnightblue" stroke="midnightblue" points="1844.76,-146.462 1853.82,-140.962 1843.31,-139.614 1844.76,-146.462"/>
</g>
<!-- Node30&#45;&gt;Node9 -->
<g id="edge51" class="edge"><title>Node30&#45;&gt;Node9</title>
<path fill="none" stroke="midnightblue" d="M1458.29,-180.983C1401.57,-171.261 1321.72,-157.101 1252,-143 1250.74,-142.746 1249.47,-142.483 1248.18,-142.214"/>
<polygon fill="midnightblue" stroke="midnightblue" points="1248.73,-138.752 1238.22,-140.07 1247.25,-145.596 1248.73,-138.752"/>
</g>
<!-- Node30&#45;&gt;Node19 -->
<g id="edge57" class="edge"><title>Node30&#45;&gt;Node19</title>
<path fill="none" stroke="midnightblue" d="M1502.9,-179.399C1481.88,-169.55 1454.03,-156.501 1433.58,-146.922"/>
<polygon fill="midnightblue" stroke="midnightblue" points="1435.02,-143.731 1424.48,-142.658 1432.05,-150.07 1435.02,-143.731"/>
</g>
<!-- Node30&#45;&gt;Node23 -->
<g id="edge56" class="edge"><title>Node30&#45;&gt;Node23</title>
<path fill="none" stroke="midnightblue" d="M1458.03,-179.972C1417.15,-171.501 1366.04,-159.117 1322,-143 1311.51,-139.159 1253.09,-109.156 1218.57,-91.2845"/>
<polygon fill="midnightblue" stroke="midnightblue" points="1220.02,-88.0919 1209.53,-86.5972 1216.79,-94.3066 1220.02,-88.0919"/>
</g>
<!-- Node31 -->
<g id="node31" class="node"><title>Node31</title>
<polygon fill="none" stroke="#bfbfbf" points="1498.5,-123.5 1498.5,-142.5 1567.5,-142.5 1567.5,-123.5 1498.5,-123.5"/>
<text text-anchor="middle" x="1533" y="-130.5" font-family="Helvetica,sans-Serif" font-size="10.00">TObjArray.h</text>
</g>
<!-- Node30&#45;&gt;Node31 -->
<g id="edge53" class="edge"><title>Node30&#45;&gt;Node31</title>
<path fill="none" stroke="midnightblue" d="M1533,-179.399C1533,-171.466 1533,-161.458 1533,-152.858"/>
<polygon fill="midnightblue" stroke="midnightblue" points="1536.5,-152.658 1533,-142.658 1529.5,-152.658 1536.5,-152.658"/>
</g>
<!-- Node32 -->
<g id="node32" class="node"><title>Node32</title>
<polygon fill="none" stroke="#bfbfbf" points="1586,-123.5 1586,-142.5 1684,-142.5 1684,-123.5 1586,-123.5"/>
<text text-anchor="middle" x="1635" y="-130.5" font-family="Helvetica,sans-Serif" font-size="10.00">Framework/Task.h</text>
</g>
<!-- Node30&#45;&gt;Node32 -->
<g id="edge54" class="edge"><title>Node30&#45;&gt;Node32</title>
<path fill="none" stroke="midnightblue" d="M1557.17,-179.399C1573.52,-169.862 1595.01,-157.325 1611.27,-147.842"/>
<polygon fill="midnightblue" stroke="midnightblue" points="1613.28,-150.72 1620.16,-142.658 1609.76,-144.673 1613.28,-150.72"/>
</g>
<!-- Node33 -->
<g id="node33" class="node"><title>Node33</title>
<polygon fill="none" stroke="#bfbfbf" points="1702,-123.5 1702,-142.5 1836,-142.5 1836,-123.5 1702,-123.5"/>
<text text-anchor="middle" x="1769" y="-130.5" font-family="Helvetica,sans-Serif" font-size="10.00">Framework/DataRefUtils.h</text>
</g>
<!-- Node30&#45;&gt;Node33 -->
<g id="edge55" class="edge"><title>Node30&#45;&gt;Node33</title>
<path fill="none" stroke="midnightblue" d="M1588.63,-179.475C1630.41,-168.941 1686.83,-154.716 1725.38,-144.998"/>
<polygon fill="midnightblue" stroke="midnightblue" points="1726.42,-148.345 1735.26,-142.506 1724.71,-141.557 1726.42,-148.345"/>
</g>
</g>
</svg>
        <g id="navigator" transform="translate(0 0)" fill="#404254">
                <rect fill="#f2f5e9" fill-opacity="0.5" stroke="#606060" stroke-width=".5" x="0" y="0" width="60" height="60"/>
                <use id="zoomplus" xlink:href="#zoomPlus" x="17" y="9" onmousedown="handleZoom(evt,'in')"/>
                <use id="zoomminus" xlink:href="#zoomMin" x="42" y="9" onmousedown="handleZoom(evt,'out')"/>
                <use id="reset" xlink:href="#resetDef" x="30" y="36" onmousedown="handleReset()"/>
                <g id="arrowUp" xlink:href="#dirArrow" transform="translate(30 24)" onmousedown="handlePan(0,-1)">
                  <use xlink:href="#rim" fill="#404040">
                        <set attributeName="fill" to="#808080" begin="arrowUp.mouseover" end="arrowUp.mouseout"/>
                  </use>
                  <path fill="none" stroke="white" stroke-width="1.5" d="M0,-3.0v7 M-2.5,-0.5L0,-3.0L2.5,-0.5"/>
                </g>
                <g id="arrowRight" xlink:href="#dirArrow" transform="rotate(90) translate(36 -43)" onmousedown="handlePan(1,0)">
                  <use xlink:href="#rim" fill="#404040">
                        <set attributeName="fill" to="#808080" begin="arrowRight.mouseover" end="arrowRight.mouseout"/>
                  </use>
                  <path fill="none" stroke="white" stroke-width="1.5" d="M0,-3.0v7 M-2.5,-0.5L0,-3.0L2.5,-0.5"/>
                </g>
                <g id="arrowDown" xlink:href="#dirArrow" transform="rotate(180) translate(-30 -48)" onmousedown="handlePan(0,1)">
                  <use xlink:href="#rim" fill="#404040">
                        <set attributeName="fill" to="#808080" begin="arrowDown.mouseover" end="arrowDown.mouseout"/>
                  </use>
                  <path fill="none" stroke="white" stroke-width="1.5" d="M0,-3.0v7 M-2.5,-0.5L0,-3.0L2.5,-0.5"/>
                </g>
                <g id="arrowLeft" xlink:href="#dirArrow" transform="rotate(270) translate(-36 17)" onmousedown="handlePan(-1,0)">
                  <use xlink:href="#rim" fill="#404040">
                        <set attributeName="fill" to="#808080" begin="arrowLeft.mouseover" end="arrowLeft.mouseout"/>
                  </use>
                  <path fill="none" stroke="white" stroke-width="1.5" d="M0,-3.0v7 M-2.5,-0.5L0,-3.0L2.5,-0.5"/>
                </g>
        </g>
        <svg viewBox="0 0 15 15" width="100%" height="30px" preserveAspectRatio="xMaxYMin meet">
         <g id="arrow_out" transform="scale(0.3 0.3)">
          <a xlink:href="runITS_8cxx__incl_org.svg" target="_base">
           <rect id="button" ry="5" rx="5" y="6" x="6" height="38" width="38"
                fill="#f2f5e9" fill-opacity="0.5" stroke="#606060" stroke-width="1.0"/>
           <path id="arrow"
             d="M 11.500037,31.436501 C 11.940474,20.09759 22.043105,11.32322 32.158766,21.979434 L 37.068811,17.246167 C 37.068811,17.246167 37.088388,32 37.088388,32 L 22.160133,31.978069 C 22.160133,31.978069 26.997745,27.140456 26.997745,27.140456 C 18.528582,18.264221 13.291696,25.230495 11.500037,31.436501 z"
             style="fill:#404040;"/>
          </a>
         </g>
        </svg>
</svg>
