<?xml version="1.0" encoding="UTF-8" standalone="no"?>
<!DOCTYPE svg PUBLIC "-//W3C//DTD SVG 1.1//EN"
 "http://www.w3.org/Graphics/SVG/1.1/DTD/svg11.dtd">
<!-- Generated by graphviz version 2.38.0 (20140413.2041)
 -->
<!-- Title: Framework/src/runMergerTest.cxx Pages: 1 -->
<!--zoomable 319 -->
<svg id="main" version="1.1" xmlns="http://www.w3.org/2000/svg" xmlns:xlink="http://www.w3.org/1999/xlink" xml:space="preserve" onload="init(evt)">
<style type="text/css"><![CDATA[
.edge:hover path { stroke: red; }
.edge:hover polygon { stroke: red; fill: red; }
]]></style>
<script type="text/javascript"><![CDATA[
var edges = document.getElementsByTagName('g');
if (edges && edges.length) {
  for (var i=0;i<edges.length;i++) {
    if (edges[i].id.substr(0,4)=='edge') {
      edges[i].setAttribute('class','edge');
    }
  }
}
]]></script>
        <defs>
                <circle id="rim" cx="0" cy="0" r="7"/>
                <circle id="rim2" cx="0" cy="0" r="3.5"/>
                <g id="zoomPlus">
                        <use xlink:href="#rim" fill="#404040">
                                <set attributeName="fill" to="#808080" begin="zoomplus.mouseover" end="zoomplus.mouseout"/>
                        </use>
                        <path d="M-4,0h8M0,-4v8" fill="none" stroke="white" stroke-width="1.5" pointer-events="none"/>
                </g>
                <g id="zoomMin">
                        <use xlink:href="#rim" fill="#404040">
                                <set attributeName="fill" to="#808080" begin="zoomminus.mouseover" end="zoomminus.mouseout"/>
                        </use>
                        <path d="M-4,0h8" fill="none" stroke="white" stroke-width="1.5" pointer-events="none"/>
                </g>
                <g id="dirArrow">
                        <path fill="none" stroke="white" stroke-width="1.5" d="M0,-3.0v7 M-2.5,-0.5L0,-3.0L2.5,-0.5"/>
                </g>
               <g id="resetDef">
                       <use xlink:href="#rim2" fill="#404040">
                               <set attributeName="fill" to="#808080" begin="reset.mouseover" end="reset.mouseout"/>
                       </use>
               </g>
        </defs>

<script type="text/javascript">
var viewWidth = 2015;
var viewHeight = 319;
var sectionId = 'dynsection-0';
</script>
<script xlink:href="svgpan.js"/>
<svg id="graph" class="graph">
<g id="viewport">
<title>Framework/src/runMergerTest.cxx</title>
<!-- Node1 -->
<g id="node1" class="node"><title>Node1</title>
<polygon fill="#bfbfbf" stroke="black" points="699,-291.5 699,-310.5 866,-310.5 866,-291.5 699,-291.5"/>
<text text-anchor="middle" x="782.5" y="-298.5" font-family="Helvetica,sans-Serif" font-size="10.00">Framework/src/runMergerTest.cxx</text>
</g>
<!-- Node2 -->
<g id="node2" class="node"><title>Node2</title>
<g id="a_node2"><a xlink:href="QcInfoLogger_8h.html" target="_top" xlink:title="QualityControl/QcInfoLogger.h">
<polygon fill="none" stroke="black" points="0,-112.5 0,-131.5 149,-131.5 149,-112.5 0,-112.5"/>
<text text-anchor="middle" x="74.5" y="-119.5" font-family="Helvetica,sans-Serif" font-size="10.00">QualityControl/QcInfoLogger.h</text>
</a>
</g>
</g>
<!-- Node1&#45;&gt;Node2 -->
<g id="edge1" class="edge"><title>Node1&#45;&gt;Node2</title>
<path fill="none" stroke="midnightblue" d="M698.939,-297.517C575.662,-293.02 351.449,-281.423 275.5,-255 199.852,-228.682 124.698,-167.673 91.7858,-138.752"/>
<polygon fill="midnightblue" stroke="midnightblue" points="93.7979,-135.857 84.0043,-131.815 89.1398,-141.082 93.7979,-135.857"/>
</g>
<!-- Node4 -->
<g id="node4" class="node"><title>Node4</title>
<polygon fill="none" stroke="#bfbfbf" points="1854,-168.5 1854,-187.5 2007,-187.5 2007,-168.5 1854,-168.5"/>
<text text-anchor="middle" x="1930.5" y="-175.5" font-family="Helvetica,sans-Serif" font-size="10.00">Framework/CompletionPolicy.h</text>
</g>
<!-- Node1&#45;&gt;Node4 -->
<g id="edge3" class="edge"><title>Node1&#45;&gt;Node4</title>
<path fill="none" stroke="midnightblue" d="M866.416,-300.42C1105.52,-301.074 1778.81,-298.946 1867.5,-255 1892.64,-242.544 1911.39,-214.946 1921.64,-196.661"/>
<polygon fill="midnightblue" stroke="midnightblue" points="1924.84,-198.089 1926.45,-187.616 1918.66,-194.803 1924.84,-198.089"/>
</g>
<!-- Node5 -->
<g id="node5" class="node"><title>Node5</title>
<polygon fill="none" stroke="#bfbfbf" points="418,-224.5 418,-254.5 563,-254.5 563,-224.5 418,-224.5"/>
<text text-anchor="start" x="426" y="-242.5" font-family="Helvetica,sans-Serif" font-size="10.00">Framework/CompletionPolicy</text>
<text text-anchor="middle" x="490.5" y="-231.5" font-family="Helvetica,sans-Serif" font-size="10.00">Helpers.h</text>
</g>
<!-- Node1&#45;&gt;Node5 -->
<g id="edge4" class="edge"><title>Node1&#45;&gt;Node5</title>
<path fill="none" stroke="midnightblue" d="M740.664,-291.475C696.127,-282.4 624.606,-267.826 569.422,-256.582"/>
<polygon fill="midnightblue" stroke="midnightblue" points="569.816,-253.09 559.319,-254.523 568.418,-259.949 569.816,-253.09"/>
</g>
<!-- Node6 -->
<g id="node6" class="node"><title>Node6</title>
<polygon fill="none" stroke="#bfbfbf" points="581.5,-230 581.5,-249 631.5,-249 631.5,-230 581.5,-230"/>
<text text-anchor="middle" x="606.5" y="-237" font-family="Helvetica,sans-Serif" font-size="10.00">TH1F.h</text>
</g>
<!-- Node1&#45;&gt;Node6 -->
<g id="edge5" class="edge"><title>Node1&#45;&gt;Node6</title>
<path fill="none" stroke="midnightblue" d="M752.572,-291.429C723.638,-282.928 678.691,-269.158 640.5,-255 638.845,-254.387 637.154,-253.738 635.452,-253.068"/>
<polygon fill="midnightblue" stroke="midnightblue" points="636.369,-249.661 625.789,-249.107 633.714,-256.138 636.369,-249.661"/>
</g>
<!-- Node7 -->
<g id="node7" class="node"><title>Node7</title>
<polygon fill="none" stroke="#bfbfbf" points="450.5,-112.5 450.5,-131.5 502.5,-131.5 502.5,-112.5 450.5,-112.5"/>
<text text-anchor="middle" x="476.5" y="-119.5" font-family="Helvetica,sans-Serif" font-size="10.00">memory</text>
</g>
<!-- Node1&#45;&gt;Node7 -->
<g id="edge6" class="edge"><title>Node1&#45;&gt;Node7</title>
<path fill="none" stroke="midnightblue" d="M698.984,-296.701C557.045,-289.04 278.892,-264.405 225.5,-188 220.408,-180.714 219.796,-174.817 225.5,-168 252.422,-135.822 377.065,-126.625 439.972,-124.018"/>
<polygon fill="midnightblue" stroke="midnightblue" points="440.379,-127.505 450.239,-123.628 440.114,-120.51 440.379,-127.505"/>
</g>
<!-- Node8 -->
<g id="node8" class="node"><title>Node8</title>
<polygon fill="none" stroke="#bfbfbf" points="817,-230 817,-249 866,-249 866,-230 817,-230"/>
<text text-anchor="middle" x="841.5" y="-237" font-family="Helvetica,sans-Serif" font-size="10.00">random</text>
</g>
<!-- Node1&#45;&gt;Node8 -->
<g id="edge7" class="edge"><title>Node1&#45;&gt;Node8</title>
<path fill="none" stroke="midnightblue" d="M790.953,-291.475C800.066,-282.285 814.77,-267.456 825.976,-256.156"/>
<polygon fill="midnightblue" stroke="midnightblue" points="828.507,-258.574 833.062,-249.009 823.536,-253.646 828.507,-258.574"/>
</g>
<!-- Node9 -->
<g id="node9" class="node"><title>Node9</title>
<polygon fill="none" stroke="#bfbfbf" points="884.5,-230 884.5,-249 1044.5,-249 1044.5,-230 884.5,-230"/>
<text text-anchor="middle" x="964.5" y="-237" font-family="Helvetica,sans-Serif" font-size="10.00">Framework/runDataProcessing.h</text>
</g>
<!-- Node1&#45;&gt;Node9 -->
<g id="edge8" class="edge"><title>Node1&#45;&gt;Node9</title>
<path fill="none" stroke="midnightblue" d="M808.576,-291.475C840.066,-281.18 893.198,-263.81 928.558,-252.25"/>
<polygon fill="midnightblue" stroke="midnightblue" points="930.055,-255.443 938.472,-249.009 927.88,-248.79 930.055,-255.443"/>
</g>
<!-- Node10 -->
<g id="node10" class="node"><title>Node10</title>
<g id="a_node10"><a xlink:href="CheckRunner_8h.html" target="_top" xlink:title="QualityControl/CheckRunner.h">
<polygon fill="none" stroke="black" points="649.5,-230 649.5,-249 799.5,-249 799.5,-230 649.5,-230"/>
<text text-anchor="middle" x="724.5" y="-237" font-family="Helvetica,sans-Serif" font-size="10.00">QualityControl/CheckRunner.h</text>
</a>
</g>
</g>
<!-- Node1&#45;&gt;Node10 -->
<g id="edge9" class="edge"><title>Node1&#45;&gt;Node10</title>
<path fill="none" stroke="midnightblue" d="M774.19,-291.475C765.318,-282.373 751.054,-267.741 740.08,-256.483"/>
<polygon fill="midnightblue" stroke="midnightblue" points="742.281,-253.727 732.795,-249.009 737.269,-258.613 742.281,-253.727"/>
</g>
<!-- Node34 -->
<g id="node34" class="node"><title>Node34</title>
<g id="a_node34"><a xlink:href="CheckRunnerFactory_8h.html" target="_top" xlink:title="QualityControl/CheckRunner\lFactory.h">
<polygon fill="none" stroke="black" points="1716.5,-224.5 1716.5,-254.5 1858.5,-254.5 1858.5,-224.5 1716.5,-224.5"/>
<text text-anchor="start" x="1724.5" y="-242.5" font-family="Helvetica,sans-Serif" font-size="10.00">QualityControl/CheckRunner</text>
<text text-anchor="middle" x="1787.5" y="-231.5" font-family="Helvetica,sans-Serif" font-size="10.00">Factory.h</text>
</a>
</g>
</g>
<!-- Node1&#45;&gt;Node34 -->
<g id="edge64" class="edge"><title>Node1&#45;&gt;Node34</title>
<path fill="none" stroke="midnightblue" d="M866.027,-295.055C1056,-283.807 1518.5,-256.426 1706.26,-245.31"/>
<polygon fill="midnightblue" stroke="midnightblue" points="1706.57,-248.798 1716.34,-244.713 1706.15,-241.81 1706.57,-248.798"/>
</g>
<!-- Node35 -->
<g id="node35" class="node"><title>Node35</title>
<g id="a_node35"><a xlink:href="HistoMerger_8h.html" target="_top" xlink:title="QualityControl/HistoMerger.h">
<polygon fill="none" stroke="black" points="1063,-230 1063,-249 1206,-249 1206,-230 1063,-230"/>
<text text-anchor="middle" x="1134.5" y="-237" font-family="Helvetica,sans-Serif" font-size="10.00">QualityControl/HistoMerger.h</text>
</a>
</g>
</g>
<!-- Node1&#45;&gt;Node35 -->
<g id="edge69" class="edge"><title>Node1&#45;&gt;Node35</title>
<path fill="none" stroke="midnightblue" d="M834.992,-291.485C889.609,-282.577 977.597,-268.095 1053.5,-255 1061.22,-253.668 1069.35,-252.241 1077.36,-250.821"/>
<polygon fill="midnightblue" stroke="midnightblue" points="1078.17,-254.232 1087.4,-249.034 1076.94,-247.341 1078.17,-254.232"/>
</g>
<!-- Node3 -->
<g id="node3" class="node"><title>Node3</title>
<polygon fill="none" stroke="#bfbfbf" points="9.5,-56.5 9.5,-75.5 139.5,-75.5 139.5,-56.5 9.5,-56.5"/>
<text text-anchor="middle" x="74.5" y="-63.5" font-family="Helvetica,sans-Serif" font-size="10.00">InfoLogger/InfoLogger.hxx</text>
</g>
<!-- Node2&#45;&gt;Node3 -->
<g id="edge2" class="edge"><title>Node2&#45;&gt;Node3</title>
<path fill="none" stroke="midnightblue" d="M74.5,-112.083C74.5,-105.006 74.5,-94.8611 74.5,-85.9865"/>
<polygon fill="midnightblue" stroke="midnightblue" points="78.0001,-85.751 74.5,-75.7511 71.0001,-85.7511 78.0001,-85.751"/>
</g>
<!-- Node10&#45;&gt;Node2 -->
<g id="edge48" class="edge"><title>Node10&#45;&gt;Node2</title>
<path fill="none" stroke="midnightblue" d="M679.716,-229.952C667.072,-227.761 653.278,-225.58 640.5,-224 534.782,-210.925 262.356,-225.094 162.5,-188 133.996,-177.411 106.727,-154.646 90.2967,-139.075"/>
<polygon fill="midnightblue" stroke="midnightblue" points="92.3406,-136.178 82.7432,-131.69 87.4472,-141.183 92.3406,-136.178"/>
</g>
<!-- Node10&#45;&gt;Node7 -->
<g id="edge11" class="edge"><title>Node10&#45;&gt;Node7</title>
<path fill="none" stroke="midnightblue" d="M679.266,-229.985C666.741,-227.821 653.12,-225.645 640.5,-224 595.482,-218.134 264.155,-221.486 233.5,-188 227.498,-181.444 227.816,-174.834 233.5,-168 259.372,-136.897 379,-127.198 440.208,-124.248"/>
<polygon fill="midnightblue" stroke="midnightblue" points="440.381,-127.743 450.215,-123.8 440.068,-120.75 440.381,-127.743"/>
</g>
<!-- Node11 -->
<g id="node11" class="node"><title>Node11</title>
<polygon fill="none" stroke="#bfbfbf" points="488.5,-168.5 488.5,-187.5 534.5,-187.5 534.5,-168.5 488.5,-168.5"/>
<text text-anchor="middle" x="511.5" y="-175.5" font-family="Helvetica,sans-Serif" font-size="10.00">chrono</text>
</g>
<!-- Node10&#45;&gt;Node11 -->
<g id="edge10" class="edge"><title>Node10&#45;&gt;Node11</title>
<path fill="none" stroke="midnightblue" d="M693.75,-229.941C659.633,-220.441 602.687,-204.571 544.327,-188.228"/>
<polygon fill="midnightblue" stroke="midnightblue" points="545.144,-184.822 534.57,-185.495 543.256,-191.562 545.144,-184.822"/>
</g>
<!-- Node12 -->
<g id="node12" class="node"><title>Node12</title>
<polygon fill="none" stroke="#bfbfbf" points="1255,-0.5 1255,-19.5 1296,-19.5 1296,-0.5 1255,-0.5"/>
<text text-anchor="middle" x="1275.5" y="-7.5" font-family="Helvetica,sans-Serif" font-size="10.00">string</text>
</g>
<!-- Node10&#45;&gt;Node12 -->
<g id="edge12" class="edge"><title>Node10&#45;&gt;Node12</title>
<path fill="none" stroke="midnightblue" d="M767.868,-229.935C780.593,-227.69 794.566,-225.485 807.5,-224 905.718,-212.723 1631.08,-209.472 1692.5,-132 1743.1,-68.173 1411.12,-25.8819 1306.42,-14.25"/>
<polygon fill="midnightblue" stroke="midnightblue" points="1306.5,-10.7386 1296.18,-13.1307 1305.74,-17.6971 1306.5,-10.7386"/>
</g>
<!-- Node13 -->
<g id="node13" class="node"><title>Node13</title>
<polygon fill="none" stroke="#bfbfbf" points="551,-0.5 551,-19.5 586,-19.5 586,-0.5 551,-0.5"/>
<text text-anchor="middle" x="568.5" y="-7.5" font-family="Helvetica,sans-Serif" font-size="10.00">map</text>
</g>
<!-- Node10&#45;&gt;Node13 -->
<g id="edge13" class="edge"><title>Node10&#45;&gt;Node13</title>
<path fill="none" stroke="midnightblue" d="M679.268,-229.971C666.743,-227.806 653.122,-225.634 640.5,-224 594.599,-218.058 256.782,-222.113 225.5,-188 126.953,-80.5348 443.732,-27.8803 541.001,-14.4999"/>
<polygon fill="midnightblue" stroke="midnightblue" points="541.536,-17.9596 550.981,-13.1599 540.605,-11.0218 541.536,-17.9596"/>
</g>
<!-- Node14 -->
<g id="node14" class="node"><title>Node14</title>
<polygon fill="none" stroke="#bfbfbf" points="1138.5,-112.5 1138.5,-131.5 1182.5,-131.5 1182.5,-112.5 1138.5,-112.5"/>
<text text-anchor="middle" x="1160.5" y="-119.5" font-family="Helvetica,sans-Serif" font-size="10.00">vector</text>
</g>
<!-- Node10&#45;&gt;Node14 -->
<g id="edge14" class="edge"><title>Node10&#45;&gt;Node14</title>
<path fill="none" stroke="midnightblue" d="M751.974,-229.931C780.718,-220.672 826.939,-204.953 865.5,-188 882.971,-180.319 885.402,-174.058 903.5,-168 997.871,-136.414 1027.03,-152.086 1124.5,-132 1125.78,-131.737 1127.08,-131.459 1128.39,-131.17"/>
<polygon fill="midnightblue" stroke="midnightblue" points="1129.54,-134.496 1138.48,-128.814 1127.95,-127.679 1129.54,-134.496"/>
</g>
<!-- Node15 -->
<g id="node15" class="node"><title>Node15</title>
<polygon fill="none" stroke="#bfbfbf" points="552.5,-168.5 552.5,-187.5 630.5,-187.5 630.5,-168.5 552.5,-168.5"/>
<text text-anchor="middle" x="591.5" y="-175.5" font-family="Helvetica,sans-Serif" font-size="10.00">unordered_set</text>
</g>
<!-- Node10&#45;&gt;Node15 -->
<g id="edge15" class="edge"><title>Node10&#45;&gt;Node15</title>
<path fill="none" stroke="midnightblue" d="M705.444,-229.975C683.025,-219.945 645.595,-203.2 619.787,-191.655"/>
<polygon fill="midnightblue" stroke="midnightblue" points="621.078,-188.398 610.52,-187.509 618.219,-194.788 621.078,-188.398"/>
</g>
<!-- Node16 -->
<g id="node16" class="node"><title>Node16</title>
<polygon fill="none" stroke="#bfbfbf" points="1164.5,-168.5 1164.5,-187.5 1256.5,-187.5 1256.5,-168.5 1164.5,-168.5"/>
<text text-anchor="middle" x="1210.5" y="-175.5" font-family="Helvetica,sans-Serif" font-size="10.00">Common/Timer.h</text>
</g>
<!-- Node10&#45;&gt;Node16 -->
<g id="edge16" class="edge"><title>Node10&#45;&gt;Node16</title>
<path fill="none" stroke="midnightblue" d="M770.074,-229.951C782.21,-227.835 795.33,-225.692 807.5,-224 957.773,-203.104 999.027,-208.079 1154.01,-187.982"/>
<polygon fill="midnightblue" stroke="midnightblue" points="1154.93,-191.392 1164.39,-186.621 1154.01,-184.451 1154.93,-191.392"/>
</g>
<!-- Node17 -->
<g id="node17" class="node"><title>Node17</title>
<polygon fill="none" stroke="#bfbfbf" points="912.5,-168.5 912.5,-187.5 1010.5,-187.5 1010.5,-168.5 912.5,-168.5"/>
<text text-anchor="middle" x="961.5" y="-175.5" font-family="Helvetica,sans-Serif" font-size="10.00">Framework/Task.h</text>
</g>
<!-- Node10&#45;&gt;Node17 -->
<g id="edge17" class="edge"><title>Node10&#45;&gt;Node17</title>
<path fill="none" stroke="midnightblue" d="M758.456,-229.975C800.342,-219.459 871.633,-201.562 917.628,-190.014"/>
<polygon fill="midnightblue" stroke="midnightblue" points="918.76,-193.339 927.607,-187.509 917.055,-186.549 918.76,-193.339"/>
</g>
<!-- Node18 -->
<g id="node18" class="node"><title>Node18</title>
<polygon fill="none" stroke="#bfbfbf" points="1029,-168.5 1029,-187.5 1146,-187.5 1146,-168.5 1029,-168.5"/>
<text text-anchor="middle" x="1087.5" y="-175.5" font-family="Helvetica,sans-Serif" font-size="10.00">Headers/DataHeader.h</text>
</g>
<!-- Node10&#45;&gt;Node18 -->
<g id="edge18" class="edge"><title>Node10&#45;&gt;Node18</title>
<path fill="none" stroke="midnightblue" d="M772.759,-229.955C784.146,-227.97 796.247,-225.887 807.5,-224 881.363,-211.613 966.309,-198.058 1023.09,-189.097"/>
<polygon fill="midnightblue" stroke="midnightblue" points="1023.67,-192.549 1033,-187.534 1022.58,-185.634 1023.67,-192.549"/>
</g>
<!-- Node19 -->
<g id="node19" class="node"><title>Node19</title>
<polygon fill="none" stroke="#bfbfbf" points="243,-168.5 243,-187.5 394,-187.5 394,-168.5 243,-168.5"/>
<text text-anchor="middle" x="318.5" y="-175.5" font-family="Helvetica,sans-Serif" font-size="10.00">Monitoring/MonitoringFactory.h</text>
</g>
<!-- Node10&#45;&gt;Node19 -->
<g id="edge19" class="edge"><title>Node10&#45;&gt;Node19</title>
<path fill="none" stroke="midnightblue" d="M676.569,-229.953C664.787,-227.927 652.197,-225.826 640.5,-224 556.328,-210.857 459.485,-197.57 394.168,-188.877"/>
<polygon fill="midnightblue" stroke="midnightblue" points="394.336,-185.369 383.962,-187.522 393.415,-192.308 394.336,-185.369"/>
</g>
<!-- Node20 -->
<g id="node20" class="node"><title>Node20</title>
<polygon fill="none" stroke="#bfbfbf" points="1519.5,-112.5 1519.5,-131.5 1683.5,-131.5 1683.5,-112.5 1519.5,-112.5"/>
<text text-anchor="middle" x="1601.5" y="-119.5" font-family="Helvetica,sans-Serif" font-size="10.00">Framework/DataProcessorSpec.h</text>
</g>
<!-- Node10&#45;&gt;Node20 -->
<g id="edge20" class="edge"><title>Node10&#45;&gt;Node20</title>
<path fill="none" stroke="midnightblue" d="M767.872,-229.974C780.598,-227.73 794.57,-225.516 807.5,-224 1070.63,-193.155 1142.24,-237.532 1402.5,-188 1464.28,-176.242 1533.46,-150.682 1571.81,-135.35"/>
<polygon fill="midnightblue" stroke="midnightblue" points="1573.37,-138.496 1581.33,-131.502 1570.74,-132.007 1573.37,-138.496"/>
</g>
<!-- Node21 -->
<g id="node21" class="node"><title>Node21</title>
<g id="a_node21"><a xlink:href="CheckInterface_8h.html" target="_top" xlink:title="QualityControl/CheckInterface.h">
<polygon fill="none" stroke="black" points="887,-112.5 887,-131.5 1044,-131.5 1044,-112.5 887,-112.5"/>
<text text-anchor="middle" x="965.5" y="-119.5" font-family="Helvetica,sans-Serif" font-size="10.00">QualityControl/CheckInterface.h</text>
</a>
</g>
</g>
<!-- Node10&#45;&gt;Node21 -->
<g id="edge21" class="edge"><title>Node10&#45;&gt;Node21</title>
<path fill="none" stroke="midnightblue" d="M675.334,-229.998C605.611,-217.708 485.707,-195.617 479.5,-188 473.885,-181.109 473.504,-174.562 479.5,-168 507.929,-136.883 801.169,-136.24 876.651,-131.837"/>
<polygon fill="midnightblue" stroke="midnightblue" points="877.104,-135.313 886.822,-131.093 876.593,-128.332 877.104,-135.313"/>
</g>
<!-- Node24 -->
<g id="node24" class="node"><title>Node24</title>
<g id="a_node24"><a xlink:href="MonitorObject_8h.html" target="_top" xlink:title="QualityControl/MonitorObject.h">
<polygon fill="none" stroke="black" points="597,-56.5 597,-75.5 748,-75.5 748,-56.5 597,-56.5"/>
<text text-anchor="middle" x="672.5" y="-63.5" font-family="Helvetica,sans-Serif" font-size="10.00">QualityControl/MonitorObject.h</text>
</a>
</g>
</g>
<!-- Node10&#45;&gt;Node24 -->
<g id="edge47" class="edge"><title>Node10&#45;&gt;Node24</title>
<path fill="none" stroke="midnightblue" d="M676.232,-229.959C605.134,-217.222 479.719,-194.094 471.5,-188 448.819,-171.183 448.373,-159.386 441.5,-132 439.336,-123.379 435.847,-118.86 441.5,-112 459.914,-89.653 528.751,-78.257 586.53,-72.5359"/>
<polygon fill="midnightblue" stroke="midnightblue" points="587.178,-75.9904 596.805,-71.5657 586.52,-69.0214 587.178,-75.9904"/>
</g>
<!-- Node28 -->
<g id="node28" class="node"><title>Node28</title>
<g id="a_node28"><a xlink:href="DatabaseInterface_8h.html" target="_top" xlink:title="QualityControl/DatabaseInterface.h">
<polygon fill="none" stroke="black" points="686.5,-168.5 686.5,-187.5 856.5,-187.5 856.5,-168.5 686.5,-168.5"/>
<text text-anchor="middle" x="771.5" y="-175.5" font-family="Helvetica,sans-Serif" font-size="10.00">QualityControl/DatabaseInterface.h</text>
</a>
</g>
</g>
<!-- Node10&#45;&gt;Node28 -->
<g id="edge35" class="edge"><title>Node10&#45;&gt;Node28</title>
<path fill="none" stroke="midnightblue" d="M731.234,-229.975C738.284,-221.05 749.535,-206.807 758.354,-195.643"/>
<polygon fill="midnightblue" stroke="midnightblue" points="761.326,-197.526 764.779,-187.509 755.833,-193.187 761.326,-197.526"/>
</g>
<!-- Node31 -->
<g id="node31" class="node"><title>Node31</title>
<g id="a_node31"><a xlink:href="Check_8h_source.html" target="_top" xlink:title="QualityControl/Check.h">
<polygon fill="none" stroke="black" points="1275,-168.5 1275,-187.5 1394,-187.5 1394,-168.5 1275,-168.5"/>
<text text-anchor="middle" x="1334.5" y="-175.5" font-family="Helvetica,sans-Serif" font-size="10.00">QualityControl/Check.h</text>
</a>
</g>
</g>
<!-- Node10&#45;&gt;Node31 -->
<g id="edge49" class="edge"><title>Node10&#45;&gt;Node31</title>
<path fill="none" stroke="midnightblue" d="M768.75,-229.972C781.244,-227.781 794.874,-225.595 807.5,-224 1006.81,-198.815 1060.7,-208.873 1264.55,-188.041"/>
<polygon fill="midnightblue" stroke="midnightblue" points="1265.1,-191.503 1274.68,-186.993 1264.38,-184.54 1265.1,-191.503"/>
</g>
<!-- Node21&#45;&gt;Node12 -->
<g id="edge22" class="edge"><title>Node21&#45;&gt;Node12</title>
<path fill="none" stroke="midnightblue" d="M1000.13,-112.476C1031.85,-104.31 1079.9,-91.0314 1120.5,-76 1140.64,-68.5417 1144.76,-64.4815 1164.5,-56 1191.79,-44.2707 1223.19,-31.6187 1245.61,-22.7265"/>
<polygon fill="midnightblue" stroke="midnightblue" points="1246.92,-25.9725 1254.94,-19.0411 1244.35,-19.4628 1246.92,-25.9725"/>
</g>
<!-- Node21&#45;&gt;Node13 -->
<g id="edge23" class="edge"><title>Node21&#45;&gt;Node13</title>
<path fill="none" stroke="midnightblue" d="M960.472,-112.495C951.47,-98.1251 931.122,-69.3085 905.5,-56 898.621,-52.427 676.009,-24.4043 596.433,-14.4741"/>
<polygon fill="midnightblue" stroke="midnightblue" points="596.547,-10.9614 586.191,-13.1975 595.682,-17.9076 596.547,-10.9614"/>
</g>
<!-- Node22 -->
<g id="node22" class="node"><title>Node22</title>
<polygon fill="none" stroke="#bfbfbf" points="1207,-56.5 1207,-75.5 1290,-75.5 1290,-56.5 1207,-56.5"/>
<text text-anchor="middle" x="1248.5" y="-63.5" font-family="Helvetica,sans-Serif" font-size="10.00">unordered_map</text>
</g>
<!-- Node21&#45;&gt;Node22 -->
<g id="edge24" class="edge"><title>Node21&#45;&gt;Node22</title>
<path fill="none" stroke="midnightblue" d="M1010.34,-112.444C1061,-102.777 1143.33,-87.068 1196.69,-76.8852"/>
<polygon fill="midnightblue" stroke="midnightblue" points="1197.47,-80.3007 1206.64,-74.9883 1196.16,-73.4247 1197.47,-80.3007"/>
</g>
<!-- Node23 -->
<g id="node23" class="node"><title>Node23</title>
<polygon fill="none" stroke="#bfbfbf" points="934.5,-0.5 934.5,-19.5 990.5,-19.5 990.5,-0.5 934.5,-0.5"/>
<text text-anchor="middle" x="962.5" y="-7.5" font-family="Helvetica,sans-Serif" font-size="10.00">Rtypes.h</text>
</g>
<!-- Node21&#45;&gt;Node23 -->
<g id="edge25" class="edge"><title>Node21&#45;&gt;Node23</title>
<path fill="none" stroke="midnightblue" d="M965.265,-112.368C964.78,-94.617 963.664,-53.6664 963.007,-29.5974"/>
<polygon fill="midnightblue" stroke="midnightblue" points="966.506,-29.4922 962.734,-19.5914 959.508,-29.6832 966.506,-29.4922"/>
</g>
<!-- Node21&#45;&gt;Node24 -->
<g id="edge26" class="edge"><title>Node21&#45;&gt;Node24</title>
<path fill="none" stroke="midnightblue" d="M919.073,-112.444C867.424,-102.925 783.988,-87.5472 728.693,-77.3563"/>
<polygon fill="midnightblue" stroke="midnightblue" points="729.178,-73.887 718.71,-75.5164 727.909,-80.771 729.178,-73.887"/>
</g>
<!-- Node27 -->
<g id="node27" class="node"><title>Node27</title>
<g id="a_node27"><a xlink:href="Quality_8h.html" target="_top" xlink:title="QualityControl/Quality.h">
<polygon fill="none" stroke="black" points="991,-56.5 991,-75.5 1112,-75.5 1112,-56.5 991,-56.5"/>
<text text-anchor="middle" x="1051.5" y="-63.5" font-family="Helvetica,sans-Serif" font-size="10.00">QualityControl/Quality.h</text>
</a>
</g>
</g>
<!-- Node21&#45;&gt;Node27 -->
<g id="edge32" class="edge"><title>Node21&#45;&gt;Node27</title>
<path fill="none" stroke="midnightblue" d="M979.317,-112.324C992.733,-103.9 1013.32,-90.9709 1029.09,-81.0741"/>
<polygon fill="midnightblue" stroke="midnightblue" points="1031.11,-83.9364 1037.72,-75.6545 1027.39,-78.0081 1031.11,-83.9364"/>
</g>
<!-- Node24&#45;&gt;Node12 -->
<g id="edge27" class="edge"><title>Node24&#45;&gt;Node12</title>
<path fill="none" stroke="midnightblue" d="M748.26,-58.2155C881.833,-46.2537 1153.72,-21.9054 1244.91,-13.7395"/>
<polygon fill="midnightblue" stroke="midnightblue" points="1245.22,-17.2255 1254.87,-12.8474 1244.6,-10.2534 1245.22,-17.2255"/>
</g>
<!-- Node24&#45;&gt;Node13 -->
<g id="edge28" class="edge"><title>Node24&#45;&gt;Node13</title>
<path fill="none" stroke="midnightblue" d="M655.791,-56.324C639.188,-47.7034 613.498,-34.3643 594.28,-24.3855"/>
<polygon fill="midnightblue" stroke="midnightblue" points="595.656,-21.1565 585.168,-19.6545 592.43,-27.3689 595.656,-21.1565"/>
</g>
<!-- Node24&#45;&gt;Node23 -->
<g id="edge29" class="edge"><title>Node24&#45;&gt;Node23</title>
<path fill="none" stroke="midnightblue" d="M718.451,-56.4435C775.348,-45.8489 871.221,-27.9968 924.284,-18.116"/>
<polygon fill="midnightblue" stroke="midnightblue" points="925.112,-21.5222 934.302,-16.2506 923.83,-14.6405 925.112,-21.5222"/>
</g>
<!-- Node25 -->
<g id="node25" class="node"><title>Node25</title>
<polygon fill="none" stroke="#bfbfbf" points="652,-0.5 652,-19.5 711,-19.5 711,-0.5 652,-0.5"/>
<text text-anchor="middle" x="681.5" y="-7.5" font-family="Helvetica,sans-Serif" font-size="10.00">TObject.h</text>
</g>
<!-- Node24&#45;&gt;Node25 -->
<g id="edge30" class="edge"><title>Node24&#45;&gt;Node25</title>
<path fill="none" stroke="midnightblue" d="M673.986,-56.083C675.179,-48.9272 676.894,-38.6353 678.385,-29.6911"/>
<polygon fill="midnightblue" stroke="midnightblue" points="681.85,-30.1904 680.041,-19.7511 674.945,-29.0396 681.85,-30.1904"/>
</g>
<!-- Node26 -->
<g id="node26" class="node"><title>Node26</title>
<polygon fill="none" stroke="#bfbfbf" points="747.5,-0.5 747.5,-19.5 863.5,-19.5 863.5,-0.5 747.5,-0.5"/>
<text text-anchor="middle" x="805.5" y="-7.5" font-family="Helvetica,sans-Serif" font-size="10.00">Common/Exceptions.h</text>
</g>
<!-- Node24&#45;&gt;Node26 -->
<g id="edge31" class="edge"><title>Node24&#45;&gt;Node26</title>
<path fill="none" stroke="midnightblue" d="M693.574,-56.4435C715.56,-47.5171 750.234,-33.4387 775.164,-23.3168"/>
<polygon fill="midnightblue" stroke="midnightblue" points="776.576,-26.5213 784.524,-19.5164 773.942,-20.0355 776.576,-26.5213"/>
</g>
<!-- Node27&#45;&gt;Node12 -->
<g id="edge34" class="edge"><title>Node27&#45;&gt;Node12</title>
<path fill="none" stroke="midnightblue" d="M1086.99,-56.4435C1130.66,-45.9158 1204.06,-28.222 1245.2,-18.3042"/>
<polygon fill="midnightblue" stroke="midnightblue" points="1246.03,-21.7055 1254.93,-15.9593 1244.39,-14.9004 1246.03,-21.7055"/>
</g>
<!-- Node27&#45;&gt;Node23 -->
<g id="edge33" class="edge"><title>Node27&#45;&gt;Node23</title>
<path fill="none" stroke="midnightblue" d="M1037.2,-56.324C1023.32,-47.9002 1002.01,-34.9709 985.696,-25.0741"/>
<polygon fill="midnightblue" stroke="midnightblue" points="987.129,-21.8495 976.764,-19.6545 983.498,-27.8341 987.129,-21.8495"/>
</g>
<!-- Node28&#45;&gt;Node7 -->
<g id="edge37" class="edge"><title>Node28&#45;&gt;Node7</title>
<path fill="none" stroke="midnightblue" d="M719.11,-168.489C667.465,-159.926 586.361,-146.016 516.5,-132 515.244,-131.748 513.966,-131.487 512.677,-131.219"/>
<polygon fill="midnightblue" stroke="midnightblue" points="513.224,-127.757 502.713,-129.082 511.756,-134.601 513.224,-127.757"/>
</g>
<!-- Node28&#45;&gt;Node12 -->
<g id="edge36" class="edge"><title>Node28&#45;&gt;Node12</title>
<path fill="none" stroke="midnightblue" d="M844.063,-168.487C914.211,-159.7 1015.19,-145.419 1052.5,-132 1069,-126.067 1071.14,-120.457 1086.5,-112 1117.14,-95.1243 1125.59,-92.3865 1156.5,-76 1189.55,-58.4784 1227.42,-37.6644 1251.39,-24.3965"/>
<polygon fill="midnightblue" stroke="midnightblue" points="1253.11,-27.4459 1260.16,-19.5371 1249.72,-21.3233 1253.11,-27.4459"/>
</g>
<!-- Node28&#45;&gt;Node14 -->
<g id="edge38" class="edge"><title>Node28&#45;&gt;Node14</title>
<path fill="none" stroke="midnightblue" d="M856.82,-168.979C928.589,-161.55 1033.73,-149.07 1124.5,-132 1125.75,-131.766 1127.01,-131.514 1128.29,-131.249"/>
<polygon fill="midnightblue" stroke="midnightblue" points="1129.14,-134.646 1138.12,-129.029 1127.6,-127.818 1129.14,-134.646"/>
</g>
<!-- Node28&#45;&gt;Node22 -->
<g id="edge39" class="edge"><title>Node28&#45;&gt;Node22</title>
<path fill="none" stroke="midnightblue" d="M849.646,-168.489C928.147,-159.464 1043.47,-144.776 1086.5,-132 1106.71,-126.001 1110.07,-120.178 1129.5,-112 1157.82,-100.078 1190.51,-87.8232 1214.45,-79.119"/>
<polygon fill="midnightblue" stroke="midnightblue" points="1215.92,-82.3085 1224.13,-75.6173 1213.54,-75.7255 1215.92,-82.3085"/>
</g>
<!-- Node28&#45;&gt;Node24 -->
<g id="edge46" class="edge"><title>Node28&#45;&gt;Node24</title>
<path fill="none" stroke="midnightblue" d="M734.34,-168.498C714.466,-161.943 691.477,-150.722 678.5,-132 669.229,-118.624 668.471,-99.8002 669.593,-85.8501"/>
<polygon fill="midnightblue" stroke="midnightblue" points="673.071,-86.2462 670.769,-75.9044 666.119,-85.4243 673.071,-86.2462"/>
</g>
<!-- Node29 -->
<g id="node29" class="node"><title>Node29</title>
<g id="a_node29"><a xlink:href="QualityObject_8h_source.html" target="_top" xlink:title="QualityControl/QualityObject.h">
<polygon fill="none" stroke="black" points="720,-112.5 720,-131.5 869,-131.5 869,-112.5 720,-112.5"/>
<text text-anchor="middle" x="794.5" y="-119.5" font-family="Helvetica,sans-Serif" font-size="10.00">QualityControl/QualityObject.h</text>
</a>
</g>
</g>
<!-- Node28&#45;&gt;Node29 -->
<g id="edge40" class="edge"><title>Node28&#45;&gt;Node29</title>
<path fill="none" stroke="midnightblue" d="M775.298,-168.083C778.413,-160.77 782.923,-150.181 786.789,-141.103"/>
<polygon fill="midnightblue" stroke="midnightblue" points="790.074,-142.323 790.773,-131.751 783.634,-139.58 790.074,-142.323"/>
</g>
<!-- Node29&#45;&gt;Node13 -->
<g id="edge42" class="edge"><title>Node29&#45;&gt;Node13</title>
<path fill="none" stroke="midnightblue" d="M719.815,-112.842C668.636,-105.785 606.669,-93.8659 587.5,-76 574.877,-64.2352 570.483,-44.596 569.031,-29.9781"/>
<polygon fill="midnightblue" stroke="midnightblue" points="572.499,-29.3459 568.397,-19.5777 565.512,-29.7723 572.499,-29.3459"/>
</g>
<!-- Node29&#45;&gt;Node25 -->
<g id="edge43" class="edge"><title>Node29&#45;&gt;Node25</title>
<path fill="none" stroke="midnightblue" d="M791.003,-112.087C785.376,-98.6337 773.226,-72.9179 756.5,-56 743.451,-42.8017 725.766,-31.9484 710.846,-24.2094"/>
<polygon fill="midnightblue" stroke="midnightblue" points="712.031,-20.8902 701.517,-19.5802 708.919,-27.1606 712.031,-20.8902"/>
</g>
<!-- Node29&#45;&gt;Node26 -->
<g id="edge44" class="edge"><title>Node29&#45;&gt;Node26</title>
<path fill="none" stroke="midnightblue" d="M795.363,-112.368C797.138,-94.617 801.233,-53.6664 803.64,-29.5974"/>
<polygon fill="midnightblue" stroke="midnightblue" points="807.128,-29.8901 804.641,-19.5914 800.163,-29.1935 807.128,-29.8901"/>
</g>
<!-- Node29&#45;&gt;Node27 -->
<g id="edge45" class="edge"><title>Node29&#45;&gt;Node27</title>
<path fill="none" stroke="midnightblue" d="M835.222,-112.444C880.149,-103.004 952.498,-87.802 1001,-77.6111"/>
<polygon fill="midnightblue" stroke="midnightblue" points="1001.9,-80.998 1010.97,-75.5164 1000.46,-74.1476 1001.9,-80.998"/>
</g>
<!-- Node30 -->
<g id="node30" class="node"><title>Node30</title>
<polygon fill="none" stroke="#bfbfbf" points="842.5,-56.5 842.5,-75.5 896.5,-75.5 896.5,-56.5 842.5,-56.5"/>
<text text-anchor="middle" x="869.5" y="-63.5" font-family="Helvetica,sans-Serif" font-size="10.00">iostream</text>
</g>
<!-- Node29&#45;&gt;Node30 -->
<g id="edge41" class="edge"><title>Node29&#45;&gt;Node30</title>
<path fill="none" stroke="midnightblue" d="M806.55,-112.324C817.963,-104.107 835.331,-91.6017 848.935,-81.8069"/>
<polygon fill="midnightblue" stroke="midnightblue" points="851.16,-84.5174 857.231,-75.8339 847.07,-78.8366 851.16,-84.5174"/>
</g>
<!-- Node31&#45;&gt;Node2 -->
<g id="edge60" class="edge"><title>Node31&#45;&gt;Node2</title>
<path fill="none" stroke="midnightblue" d="M1274.7,-168.858C1271.59,-168.542 1268.51,-168.253 1265.5,-168 1050.39,-149.946 394.769,-131.429 159.591,-125.196"/>
<polygon fill="midnightblue" stroke="midnightblue" points="159.473,-121.692 149.384,-124.926 159.288,-128.689 159.473,-121.692"/>
</g>
<!-- Node31&#45;&gt;Node7 -->
<g id="edge53" class="edge"><title>Node31&#45;&gt;Node7</title>
<path fill="none" stroke="midnightblue" d="M1274.69,-168.895C1271.59,-168.57 1268.51,-168.268 1265.5,-168 933.542,-138.423 846.756,-176.747 516.5,-132 515.23,-131.828 513.941,-131.636 512.642,-131.427"/>
<polygon fill="midnightblue" stroke="midnightblue" points="513.104,-127.953 502.632,-129.562 511.822,-134.834 513.104,-127.953"/>
</g>
<!-- Node31&#45;&gt;Node13 -->
<g id="edge51" class="edge"><title>Node31&#45;&gt;Node13</title>
<path fill="none" stroke="midnightblue" d="M1274.69,-168.948C1271.58,-168.608 1268.51,-168.29 1265.5,-168 1009.74,-143.37 937.176,-196.653 688.5,-132 632.705,-117.494 603.346,-124.055 571.5,-76 562.538,-62.4768 562.687,-43.671 564.545,-29.765"/>
<polygon fill="midnightblue" stroke="midnightblue" points="568.003,-30.3081 566.26,-19.8576 561.105,-29.114 568.003,-30.3081"/>
</g>
<!-- Node31&#45;&gt;Node14 -->
<g id="edge52" class="edge"><title>Node31&#45;&gt;Node14</title>
<path fill="none" stroke="midnightblue" d="M1306.93,-168.444C1275.75,-158.768 1225.07,-143.04 1192.26,-132.858"/>
<polygon fill="midnightblue" stroke="midnightblue" points="1193.28,-129.51 1182.7,-129.889 1191.21,-136.195 1193.28,-129.51"/>
</g>
<!-- Node31&#45;&gt;Node20 -->
<g id="edge55" class="edge"><title>Node31&#45;&gt;Node20</title>
<path fill="none" stroke="midnightblue" d="M1376.81,-168.444C1423.58,-158.984 1498.96,-143.738 1549.35,-133.547"/>
<polygon fill="midnightblue" stroke="midnightblue" points="1550.28,-136.929 1559.39,-131.516 1548.9,-130.068 1550.28,-136.929"/>
</g>
<!-- Node31&#45;&gt;Node21 -->
<g id="edge59" class="edge"><title>Node31&#45;&gt;Node21</title>
<path fill="none" stroke="midnightblue" d="M1276.03,-168.444C1210.18,-158.806 1103.28,-143.163 1033.68,-132.978"/>
<polygon fill="midnightblue" stroke="midnightblue" points="1034.1,-129.501 1023.7,-131.516 1033.08,-136.428 1034.1,-129.501"/>
</g>
<!-- Node31&#45;&gt;Node22 -->
<g id="edge54" class="edge"><title>Node31&#45;&gt;Node22</title>
<path fill="none" stroke="midnightblue" d="M1314.71,-168.358C1299.68,-160.823 1279.58,-148.508 1267.5,-132 1257.63,-118.511 1252.86,-99.9539 1250.57,-86.1202"/>
<polygon fill="midnightblue" stroke="midnightblue" points="1253.99,-85.2648 1249.18,-75.8256 1247.05,-86.2051 1253.99,-85.2648"/>
</g>
<!-- Node31&#45;&gt;Node24 -->
<g id="edge58" class="edge"><title>Node31&#45;&gt;Node24</title>
<path fill="none" stroke="midnightblue" d="M1274.69,-168.957C1271.58,-168.615 1268.51,-168.293 1265.5,-168 1204,-162 763.077,-164.472 710.5,-132 693.675,-121.609 683.465,-100.8 677.928,-85.5147"/>
<polygon fill="midnightblue" stroke="midnightblue" points="681.119,-84.0124 674.693,-75.5888 674.464,-86.1811 681.119,-84.0124"/>
</g>
<!-- Node31&#45;&gt;Node27 -->
<g id="edge56" class="edge"><title>Node31&#45;&gt;Node27</title>
<path fill="none" stroke="midnightblue" d="M1317.17,-168.332C1290.54,-155.198 1237.8,-129.893 1191.5,-112 1158.2,-99.1304 1119.51,-86.8944 1091.25,-78.4394"/>
<polygon fill="midnightblue" stroke="midnightblue" points="1091.93,-74.9883 1081.34,-75.5013 1089.94,-81.6996 1091.93,-74.9883"/>
</g>
<!-- Node31&#45;&gt;Node29 -->
<g id="edge57" class="edge"><title>Node31&#45;&gt;Node29</title>
<path fill="none" stroke="midnightblue" d="M1274.68,-169.059C1271.57,-168.69 1268.5,-168.335 1265.5,-168 1096.66,-149.163 1051.52,-149.322 879.325,-132.169"/>
<polygon fill="midnightblue" stroke="midnightblue" points="879.45,-128.664 869.151,-131.15 878.752,-135.629 879.45,-128.664"/>
</g>
<!-- Node32 -->
<g id="node32" class="node"><title>Node32</title>
<polygon fill="none" stroke="#bfbfbf" points="1277,-112.5 1277,-131.5 1336,-131.5 1336,-112.5 1277,-112.5"/>
<text text-anchor="middle" x="1306.5" y="-119.5" font-family="Helvetica,sans-Serif" font-size="10.00">functional</text>
</g>
<!-- Node31&#45;&gt;Node32 -->
<g id="edge50" class="edge"><title>Node31&#45;&gt;Node32</title>
<path fill="none" stroke="midnightblue" d="M1329.88,-168.083C1326.04,-160.691 1320.48,-149.953 1315.74,-140.811"/>
<polygon fill="midnightblue" stroke="midnightblue" points="1318.75,-139.018 1311.04,-131.751 1312.53,-142.24 1318.75,-139.018"/>
</g>
<!-- Node33 -->
<g id="node33" class="node"><title>Node33</title>
<g id="a_node33"><a xlink:href="CheckConfig_8h.html" target="_top" xlink:title="QualityControl/CheckConfig.h">
<polygon fill="none" stroke="black" points="1354,-112.5 1354,-131.5 1501,-131.5 1501,-112.5 1354,-112.5"/>
<text text-anchor="middle" x="1427.5" y="-119.5" font-family="Helvetica,sans-Serif" font-size="10.00">QualityControl/CheckConfig.h</text>
</a>
</g>
</g>
<!-- Node31&#45;&gt;Node33 -->
<g id="edge61" class="edge"><title>Node31&#45;&gt;Node33</title>
<path fill="none" stroke="midnightblue" d="M1349.44,-168.324C1364.09,-159.822 1386.63,-146.729 1403.74,-136.797"/>
<polygon fill="midnightblue" stroke="midnightblue" points="1405.7,-139.703 1412.6,-131.655 1402.19,-133.649 1405.7,-139.703"/>
</g>
<!-- Node33&#45;&gt;Node12 -->
<g id="edge62" class="edge"><title>Node33&#45;&gt;Node12</title>
<path fill="none" stroke="midnightblue" d="M1415.57,-112.368C1389.6,-93.5728 1327.69,-48.7684 1295.58,-25.5334"/>
<polygon fill="midnightblue" stroke="midnightblue" points="1297.52,-22.6187 1287.37,-19.5914 1293.42,-28.2896 1297.52,-22.6187"/>
</g>
<!-- Node33&#45;&gt;Node22 -->
<g id="edge63" class="edge"><title>Node33&#45;&gt;Node22</title>
<path fill="none" stroke="midnightblue" d="M1399.14,-112.444C1368.76,-103.28 1320.39,-88.6876 1286.68,-78.5192"/>
<polygon fill="midnightblue" stroke="midnightblue" points="1287.32,-75.0538 1276.73,-75.5164 1285.29,-81.7555 1287.32,-75.0538"/>
</g>
<!-- Node34&#45;&gt;Node4 -->
<g id="edge67" class="edge"><title>Node34&#45;&gt;Node4</title>
<path fill="none" stroke="midnightblue" d="M1821.39,-224.399C1845.38,-214.416 1877.27,-201.147 1900.38,-191.534"/>
<polygon fill="midnightblue" stroke="midnightblue" points="1901.8,-194.731 1909.69,-187.658 1899.11,-188.268 1901.8,-194.731"/>
</g>
<!-- Node34&#45;&gt;Node12 -->
<g id="edge65" class="edge"><title>Node34&#45;&gt;Node12</title>
<path fill="none" stroke="midnightblue" d="M1789.6,-224.427C1793.97,-188.993 1799.66,-96.0681 1746.5,-56 1711.41,-29.5519 1405.91,-15.878 1306.57,-12.1015"/>
<polygon fill="midnightblue" stroke="midnightblue" points="1306.41,-8.59343 1296.29,-11.7184 1306.15,-15.5886 1306.41,-8.59343"/>
</g>
<!-- Node34&#45;&gt;Node20 -->
<g id="edge66" class="edge"><title>Node34&#45;&gt;Node20</title>
<path fill="none" stroke="midnightblue" d="M1764.69,-224.337C1728.9,-202.108 1659.92,-159.28 1624.2,-137.093"/>
<polygon fill="midnightblue" stroke="midnightblue" points="1625.8,-133.971 1615.46,-131.669 1622.11,-139.918 1625.8,-133.971"/>
</g>
<!-- Node34&#45;&gt;Node31 -->
<g id="edge68" class="edge"><title>Node34&#45;&gt;Node31</title>
<path fill="none" stroke="midnightblue" d="M1716.22,-229.138C1630.86,-217.926 1488.84,-199.272 1404.19,-188.154"/>
<polygon fill="midnightblue" stroke="midnightblue" points="1404.53,-184.669 1394.16,-186.836 1403.62,-191.609 1404.53,-184.669"/>
</g>
<!-- Node35&#45;&gt;Node12 -->
<g id="edge70" class="edge"><title>Node35&#45;&gt;Node12</title>
<path fill="none" stroke="midnightblue" d="M1206.17,-237.685C1355.92,-235.235 1691,-225.571 1725.5,-188 1765.18,-144.787 1764.87,-99.4985 1725.5,-56 1697.38,-24.9283 1403.18,-14.3846 1306.27,-11.7399"/>
<polygon fill="midnightblue" stroke="midnightblue" points="1306.31,-8.24001 1296.23,-11.4751 1306.13,-15.2376 1306.31,-8.24001"/>
</g>
<!-- Node35&#45;&gt;Node14 -->
<g id="edge71" class="edge"><title>Node35&#45;&gt;Node14</title>
<path fill="none" stroke="midnightblue" d="M1206.14,-235.039C1276.89,-229.941 1377.98,-217.568 1402.5,-188 1408.17,-181.157 1408.18,-174.836 1402.5,-168 1389.17,-151.962 1255.46,-134.218 1192.7,-126.694"/>
<polygon fill="midnightblue" stroke="midnightblue" points="1192.91,-123.194 1182.56,-125.494 1192.08,-130.145 1192.91,-123.194"/>
</g>
<!-- Node35&#45;&gt;Node16 -->
<g id="edge72" class="edge"><title>Node35&#45;&gt;Node16</title>
<path fill="none" stroke="midnightblue" d="M1145.39,-229.975C1157.47,-220.52 1177.17,-205.096 1191.74,-193.687"/>
<polygon fill="midnightblue" stroke="midnightblue" points="1193.91,-196.429 1199.63,-187.509 1189.6,-190.918 1193.91,-196.429"/>
</g>
<!-- Node35&#45;&gt;Node17 -->
<g id="edge73" class="edge"><title>Node35&#45;&gt;Node17</title>
<path fill="none" stroke="midnightblue" d="M1109.71,-229.975C1079.91,-219.725 1029.71,-202.459 996.098,-190.899"/>
<polygon fill="midnightblue" stroke="midnightblue" points="996.835,-187.452 986.241,-187.509 994.559,-194.071 996.835,-187.452"/>
</g>
<!-- Node35&#45;&gt;Node18 -->
<g id="edge74" class="edge"><title>Node35&#45;&gt;Node18</title>
<path fill="none" stroke="midnightblue" d="M1127.77,-229.975C1120.72,-221.05 1109.47,-206.807 1100.65,-195.643"/>
<polygon fill="midnightblue" stroke="midnightblue" points="1103.17,-193.187 1094.22,-187.509 1097.67,-197.526 1103.17,-193.187"/>
</g>
<!-- Node35&#45;&gt;Node24 -->
<g id="edge75" class="edge"><title>Node35&#45;&gt;Node24</title>
<path fill="none" stroke="midnightblue" d="M1090.46,-229.943C1078.5,-227.803 1065.53,-225.65 1053.5,-224 970.341,-212.595 739.215,-244.893 677.5,-188 649.512,-162.198 658.612,-112.369 666.338,-85.4051"/>
<polygon fill="midnightblue" stroke="midnightblue" points="669.734,-86.2727 669.353,-75.6847 663.048,-84.199 669.734,-86.2727"/>
</g>
</g>
</svg>
        <g id="navigator" transform="translate(0 0)" fill="#404254">
                <rect fill="#f2f5e9" fill-opacity="0.5" stroke="#606060" stroke-width=".5" x="0" y="0" width="60" height="60"/>
                <use id="zoomplus" xlink:href="#zoomPlus" x="17" y="9" onmousedown="handleZoom(evt,'in')"/>
                <use id="zoomminus" xlink:href="#zoomMin" x="42" y="9" onmousedown="handleZoom(evt,'out')"/>
                <use id="reset" xlink:href="#resetDef" x="30" y="36" onmousedown="handleReset()"/>
                <g id="arrowUp" xlink:href="#dirArrow" transform="translate(30 24)" onmousedown="handlePan(0,-1)">
                  <use xlink:href="#rim" fill="#404040">
                        <set attributeName="fill" to="#808080" begin="arrowUp.mouseover" end="arrowUp.mouseout"/>
                  </use>
                  <path fill="none" stroke="white" stroke-width="1.5" d="M0,-3.0v7 M-2.5,-0.5L0,-3.0L2.5,-0.5"/>
                </g>
                <g id="arrowRight" xlink:href="#dirArrow" transform="rotate(90) translate(36 -43)" onmousedown="handlePan(1,0)">
                  <use xlink:href="#rim" fill="#404040">
                        <set attributeName="fill" to="#808080" begin="arrowRight.mouseover" end="arrowRight.mouseout"/>
                  </use>
                  <path fill="none" stroke="white" stroke-width="1.5" d="M0,-3.0v7 M-2.5,-0.5L0,-3.0L2.5,-0.5"/>
                </g>
                <g id="arrowDown" xlink:href="#dirArrow" transform="rotate(180) translate(-30 -48)" onmousedown="handlePan(0,1)">
                  <use xlink:href="#rim" fill="#404040">
                        <set attributeName="fill" to="#808080" begin="arrowDown.mouseover" end="arrowDown.mouseout"/>
                  </use>
                  <path fill="none" stroke="white" stroke-width="1.5" d="M0,-3.0v7 M-2.5,-0.5L0,-3.0L2.5,-0.5"/>
                </g>
                <g id="arrowLeft" xlink:href="#dirArrow" transform="rotate(270) translate(-36 17)" onmousedown="handlePan(-1,0)">
                  <use xlink:href="#rim" fill="#404040">
                        <set attributeName="fill" to="#808080" begin="arrowLeft.mouseover" end="arrowLeft.mouseout"/>
                  </use>
                  <path fill="none" stroke="white" stroke-width="1.5" d="M0,-3.0v7 M-2.5,-0.5L0,-3.0L2.5,-0.5"/>
                </g>
        </g>
        <svg viewBox="0 0 15 15" width="100%" height="30px" preserveAspectRatio="xMaxYMin meet">
         <g id="arrow_out" transform="scale(0.3 0.3)">
          <a xlink:href="runMergerTest_8cxx__incl_org.svg" target="_base">
           <rect id="button" ry="5" rx="5" y="6" x="6" height="38" width="38"
                fill="#f2f5e9" fill-opacity="0.5" stroke="#606060" stroke-width="1.0"/>
           <path id="arrow"
             d="M 11.500037,31.436501 C 11.940474,20.09759 22.043105,11.32322 32.158766,21.979434 L 37.068811,17.246167 C 37.068811,17.246167 37.088388,32 37.088388,32 L 22.160133,31.978069 C 22.160133,31.978069 26.997745,27.140456 26.997745,27.140456 C 18.528582,18.264221 13.291696,25.230495 11.500037,31.436501 z"
             style="fill:#404040;"/>
          </a>
         </g>
        </svg>
</svg>
