<?xml version="1.0" encoding="UTF-8" standalone="no"?>
<!DOCTYPE svg PUBLIC "-//W3C//DTD SVG 1.1//EN"
 "http://www.w3.org/Graphics/SVG/1.1/DTD/svg11.dtd">
<!-- Generated by graphviz version 2.38.0 (20140413.2041)
 -->
<!-- Title: Framework/src/runQC.cxx Pages: 1 -->
<svg width="650pt" height="151pt"
 viewBox="0.00 0.00 650.00 151.00" xmlns="http://www.w3.org/2000/svg" xmlns:xlink="http://www.w3.org/1999/xlink">
<g id="graph0" class="graph" transform="scale(1 1) rotate(0) translate(4 147)">
<title>Framework/src/runQC.cxx</title>
<!-- Node1 -->
<g id="node1" class="node"><title>Node1</title>
<polygon fill="#bfbfbf" stroke="black" points="241,-123.5 241,-142.5 373,-142.5 373,-123.5 241,-123.5"/>
<text text-anchor="middle" x="307" y="-130.5" font-family="Helvetica,sans-Serif" font-size="10.00">Framework/src/runQC.cxx</text>
</g>
<!-- Node2 -->
<g id="node2" class="node"><title>Node2</title>
<polygon fill="none" stroke="#bfbfbf" points="0,-62 0,-81 138,-81 138,-62 0,-62"/>
<text text-anchor="middle" x="69" y="-69" font-family="Helvetica,sans-Serif" font-size="10.00">Framework/DataSampling.h</text>
</g>
<!-- Node1&#45;&gt;Node2 -->
<g id="edge1" class="edge"><title>Node1&#45;&gt;Node2</title>
<path fill="none" stroke="midnightblue" d="M272.9,-123.475C230.749,-112.937 158.945,-94.9863 112.766,-83.4415"/>
<polygon fill="midnightblue" stroke="midnightblue" points="113.587,-80.039 103.036,-81.0091 111.889,-86.83 113.587,-80.039"/>
</g>
<!-- Node3 -->
<g id="node3" class="node"><title>Node3</title>
<g id="a_node3"><a xlink:href="InfrastructureGenerator_8h.html" target="_top" xlink:title="QualityControl/Infrastructure\lGenerator.h">
<polygon fill="none" stroke="black" points="156,-56.5 156,-86.5 296,-86.5 296,-56.5 156,-56.5"/>
<text text-anchor="start" x="164" y="-74.5" font-family="Helvetica,sans-Serif" font-size="10.00">QualityControl/Infrastructure</text>
<text text-anchor="middle" x="226" y="-63.5" font-family="Helvetica,sans-Serif" font-size="10.00">Generator.h</text>
</a>
</g>
</g>
<!-- Node1&#45;&gt;Node3 -->
<g id="edge2" class="edge"><title>Node1&#45;&gt;Node3</title>
<path fill="none" stroke="midnightblue" d="M295.395,-123.475C284.424,-115.417 267.552,-103.023 253.192,-92.4741"/>
<polygon fill="midnightblue" stroke="midnightblue" points="255.221,-89.6224 245.09,-86.523 251.077,-95.2639 255.221,-89.6224"/>
</g>
<!-- Node7 -->
<g id="node7" class="node"><title>Node7</title>
<g id="a_node7"><a xlink:href="QcInfoLogger_8h.html" target="_top" xlink:title="QualityControl/QcInfoLogger.h">
<polygon fill="none" stroke="black" points="314.5,-62 314.5,-81 463.5,-81 463.5,-62 314.5,-62"/>
<text text-anchor="middle" x="389" y="-69" font-family="Helvetica,sans-Serif" font-size="10.00">QualityControl/QcInfoLogger.h</text>
</a>
</g>
</g>
<!-- Node1&#45;&gt;Node7 -->
<g id="edge6" class="edge"><title>Node1&#45;&gt;Node7</title>
<path fill="none" stroke="midnightblue" d="M318.749,-123.475C331.779,-114.02 353.036,-98.5961 368.759,-87.1871"/>
<polygon fill="midnightblue" stroke="midnightblue" points="371.235,-89.7149 377.273,-81.0091 367.124,-84.0492 371.235,-89.7149"/>
</g>
<!-- Node9 -->
<g id="node9" class="node"><title>Node9</title>
<polygon fill="none" stroke="#bfbfbf" points="482,-62 482,-81 642,-81 642,-62 482,-62"/>
<text text-anchor="middle" x="562" y="-69" font-family="Helvetica,sans-Serif" font-size="10.00">Framework/runDataProcessing.h</text>
</g>
<!-- Node1&#45;&gt;Node9 -->
<g id="edge8" class="edge"><title>Node1&#45;&gt;Node9</title>
<path fill="none" stroke="midnightblue" d="M343.535,-123.475C388.886,-112.893 466.276,-94.8356 515.729,-83.2966"/>
<polygon fill="midnightblue" stroke="midnightblue" points="516.589,-86.6899 525.532,-81.0091 514.999,-79.873 516.589,-86.6899"/>
</g>
<!-- Node4 -->
<g id="node4" class="node"><title>Node4</title>
<polygon fill="none" stroke="#bfbfbf" points="93,-0.5 93,-19.5 137,-19.5 137,-0.5 93,-0.5"/>
<text text-anchor="middle" x="115" y="-7.5" font-family="Helvetica,sans-Serif" font-size="10.00">vector</text>
</g>
<!-- Node3&#45;&gt;Node4 -->
<g id="edge3" class="edge"><title>Node3&#45;&gt;Node4</title>
<path fill="none" stroke="midnightblue" d="M199.695,-56.3993C181.736,-46.7728 158.076,-34.0902 140.329,-24.5772"/>
<polygon fill="midnightblue" stroke="midnightblue" points="141.619,-21.2975 131.151,-19.6578 138.312,-27.467 141.619,-21.2975"/>
</g>
<!-- Node5 -->
<g id="node5" class="node"><title>Node5</title>
<polygon fill="none" stroke="#bfbfbf" points="155.5,-0.5 155.5,-19.5 196.5,-19.5 196.5,-0.5 155.5,-0.5"/>
<text text-anchor="middle" x="176" y="-7.5" font-family="Helvetica,sans-Serif" font-size="10.00">string</text>
</g>
<!-- Node3&#45;&gt;Node5 -->
<g id="edge4" class="edge"><title>Node3&#45;&gt;Node5</title>
<path fill="none" stroke="midnightblue" d="M214.151,-56.3993C206.885,-47.7533 197.548,-36.642 189.929,-27.576"/>
<polygon fill="midnightblue" stroke="midnightblue" points="192.388,-25.0619 183.275,-19.6578 187.029,-29.5653 192.388,-25.0619"/>
</g>
<!-- Node6 -->
<g id="node6" class="node"><title>Node6</title>
<polygon fill="none" stroke="#bfbfbf" points="215,-0.5 215,-19.5 355,-19.5 355,-0.5 215,-0.5"/>
<text text-anchor="middle" x="285" y="-7.5" font-family="Helvetica,sans-Serif" font-size="10.00">Framework/WorkflowSpec.h</text>
</g>
<!-- Node3&#45;&gt;Node6 -->
<g id="edge5" class="edge"><title>Node3&#45;&gt;Node6</title>
<path fill="none" stroke="midnightblue" d="M239.982,-56.3993C248.732,-47.575 260.029,-36.1827 269.117,-27.0178"/>
<polygon fill="midnightblue" stroke="midnightblue" points="271.859,-29.2231 276.415,-19.6578 266.888,-24.2942 271.859,-29.2231"/>
</g>
<!-- Node8 -->
<g id="node8" class="node"><title>Node8</title>
<polygon fill="none" stroke="#bfbfbf" points="373,-0.5 373,-19.5 503,-19.5 503,-0.5 373,-0.5"/>
<text text-anchor="middle" x="438" y="-7.5" font-family="Helvetica,sans-Serif" font-size="10.00">InfoLogger/InfoLogger.hxx</text>
</g>
<!-- Node7&#45;&gt;Node8 -->
<g id="edge7" class="edge"><title>Node7&#45;&gt;Node8</title>
<path fill="none" stroke="midnightblue" d="M396.021,-61.9751C403.443,-52.9617 415.333,-38.5246 424.567,-27.3118"/>
<polygon fill="midnightblue" stroke="midnightblue" points="427.337,-29.4534 430.993,-19.5091 421.934,-25.0034 427.337,-29.4534"/>
</g>
</g>
</svg>
