<?xml version="1.0" encoding="UTF-8" standalone="no"?>
<!DOCTYPE svg PUBLIC "-//W3C//DTD SVG 1.1//EN"
 "http://www.w3.org/Graphics/SVG/1.1/DTD/svg11.dtd">
<!-- Generated by graphviz version 2.38.0 (20140413.2041)
 -->
<!-- Title: Modules/TOF/src/runTOF.cxx Pages: 1 -->
<svg width="2341pt" height="330pt"
 viewBox="0.00 0.00 2340.72 330.00" xmlns="http://www.w3.org/2000/svg" xmlns:xlink="http://www.w3.org/1999/xlink">
<g id="graph0" class="graph" transform="scale(1 1) rotate(0) translate(4 326)">
<title>Modules/TOF/src/runTOF.cxx</title>
<!-- Node1 -->
<g id="node1" class="node"><title>Node1</title>
<polygon fill="#bfbfbf" stroke="black" points="637.5,-302.5 637.5,-321.5 784.5,-321.5 784.5,-302.5 637.5,-302.5"/>
<text text-anchor="middle" x="711" y="-309.5" font-family="Helvetica,sans-Serif" font-size="10.00">Modules/TOF/src/runTOF.cxx</text>
</g>
<!-- Node2 -->
<g id="node2" class="node"><title>Node2</title>
<polygon fill="none" stroke="#bfbfbf" points="0,-246.5 0,-265.5 138,-265.5 138,-246.5 0,-246.5"/>
<text text-anchor="middle" x="69" y="-253.5" font-family="Helvetica,sans-Serif" font-size="10.00">Framework/DataSampling.h</text>
</g>
<!-- Node1&#45;&gt;Node2 -->
<g id="edge1" class="edge"><title>Node1&#45;&gt;Node2</title>
<path fill="none" stroke="midnightblue" d="M637.245,-305.716C530.244,-297.902 325.749,-282.41 152,-266 150.882,-265.894 149.755,-265.787 148.621,-265.678"/>
<polygon fill="midnightblue" stroke="midnightblue" points="148.572,-262.156 138.277,-264.657 147.885,-269.122 148.572,-262.156"/>
</g>
<!-- Node3 -->
<g id="node3" class="node"><title>Node3</title>
<g id="a_node3"><a xlink:href="InfrastructureGenerator_8h.html" target="_top" xlink:title="QualityControl/Infrastructure\lGenerator.h">
<polygon fill="none" stroke="black" points="232,-179.5 232,-209.5 372,-209.5 372,-179.5 232,-179.5"/>
<text text-anchor="start" x="240" y="-197.5" font-family="Helvetica,sans-Serif" font-size="10.00">QualityControl/Infrastructure</text>
<text text-anchor="middle" x="302" y="-186.5" font-family="Helvetica,sans-Serif" font-size="10.00">Generator.h</text>
</a>
</g>
</g>
<!-- Node1&#45;&gt;Node3 -->
<g id="edge2" class="edge"><title>Node1&#45;&gt;Node3</title>
<path fill="none" stroke="midnightblue" d="M637.329,-305.557C555.655,-298.691 429.665,-285.39 386,-266 360.579,-254.711 336.816,-233.347 321.097,-217.083"/>
<polygon fill="midnightblue" stroke="midnightblue" points="323.449,-214.475 314.055,-209.576 318.344,-219.264 323.449,-214.475"/>
</g>
<!-- Node5 -->
<g id="node5" class="node"><title>Node5</title>
<polygon fill="none" stroke="#bfbfbf" points="870.5,-6 870.5,-25 911.5,-25 911.5,-6 870.5,-6"/>
<text text-anchor="middle" x="891" y="-13" font-family="Helvetica,sans-Serif" font-size="10.00">string</text>
</g>
<!-- Node1&#45;&gt;Node5 -->
<g id="edge6" class="edge"><title>Node1&#45;&gt;Node5</title>
<path fill="none" stroke="midnightblue" d="M657.537,-302.467C568.618,-286.748 400,-249.785 400,-195.5 400,-195.5 400,-195.5 400,-132 400,-37.0725 752.157,-20.0921 859.994,-17.1177"/>
<polygon fill="midnightblue" stroke="midnightblue" points="860.308,-20.6109 870.216,-16.8582 860.13,-13.6132 860.308,-20.6109"/>
</g>
<!-- Node7 -->
<g id="node7" class="node"><title>Node7</title>
<polygon fill="none" stroke="#bfbfbf" points="1591.5,-246.5 1591.5,-265.5 1688.5,-265.5 1688.5,-246.5 1591.5,-246.5"/>
<text text-anchor="middle" x="1640" y="-253.5" font-family="Helvetica,sans-Serif" font-size="10.00">fairlogger/Logger.h</text>
</g>
<!-- Node1&#45;&gt;Node7 -->
<g id="edge7" class="edge"><title>Node1&#45;&gt;Node7</title>
<path fill="none" stroke="midnightblue" d="M784.7,-309.807C933.447,-306.83 1280.34,-297.014 1581,-266.107"/>
<polygon fill="midnightblue" stroke="midnightblue" points="1581.64,-269.56 1591.23,-265.046 1580.92,-262.597 1581.64,-269.56"/>
</g>
<!-- Node8 -->
<g id="node8" class="node"><title>Node8</title>
<polygon fill="none" stroke="#bfbfbf" points="428,-123.5 428,-142.5 478,-142.5 478,-123.5 428,-123.5"/>
<text text-anchor="middle" x="453" y="-130.5" font-family="Helvetica,sans-Serif" font-size="10.00">TH1F.h</text>
</g>
<!-- Node1&#45;&gt;Node8 -->
<g id="edge8" class="edge"><title>Node1&#45;&gt;Node8</title>
<path fill="none" stroke="midnightblue" d="M697.99,-302.475C671.743,-285.237 610.635,-244.907 560,-210 529.469,-188.952 494.511,-163.95 473.096,-148.528"/>
<polygon fill="midnightblue" stroke="midnightblue" points="474.957,-145.555 464.799,-142.544 470.862,-151.232 474.957,-145.555"/>
</g>
<!-- Node9 -->
<g id="node9" class="node"><title>Node9</title>
<polygon fill="none" stroke="#bfbfbf" points="966,-123.5 966,-142.5 1018,-142.5 1018,-123.5 966,-123.5"/>
<text text-anchor="middle" x="992" y="-130.5" font-family="Helvetica,sans-Serif" font-size="10.00">memory</text>
</g>
<!-- Node1&#45;&gt;Node9 -->
<g id="edge9" class="edge"><title>Node1&#45;&gt;Node9</title>
<path fill="none" stroke="midnightblue" d="M714.418,-302.258C724.232,-278.369 754.912,-211.609 803,-179 858.562,-141.323 886.198,-158.059 955.57,-143.165"/>
<polygon fill="midnightblue" stroke="midnightblue" points="956.683,-146.5 965.642,-140.844 955.112,-139.678 956.683,-146.5"/>
</g>
<!-- Node10 -->
<g id="node10" class="node"><title>Node10</title>
<polygon fill="none" stroke="#bfbfbf" points="1706.5,-246.5 1706.5,-265.5 1755.5,-265.5 1755.5,-246.5 1706.5,-246.5"/>
<text text-anchor="middle" x="1731" y="-253.5" font-family="Helvetica,sans-Serif" font-size="10.00">random</text>
</g>
<!-- Node1&#45;&gt;Node10 -->
<g id="edge10" class="edge"><title>Node1&#45;&gt;Node10</title>
<path fill="none" stroke="midnightblue" d="M784.838,-309.669C979.15,-305.845 1502.44,-293.401 1696.17,-265.706"/>
<polygon fill="midnightblue" stroke="midnightblue" points="1696.87,-269.14 1706.25,-264.205 1695.84,-262.217 1696.87,-269.14"/>
</g>
<!-- Node11 -->
<g id="node11" class="node"><title>Node11</title>
<polygon fill="none" stroke="#bfbfbf" points="1774,-246.5 1774,-265.5 1934,-265.5 1934,-246.5 1774,-246.5"/>
<text text-anchor="middle" x="1854" y="-253.5" font-family="Helvetica,sans-Serif" font-size="10.00">Framework/runDataProcessing.h</text>
</g>
<!-- Node1&#45;&gt;Node11 -->
<g id="edge11" class="edge"><title>Node1&#45;&gt;Node11</title>
<path fill="none" stroke="midnightblue" d="M784.807,-309.292C955.123,-305.037 1388.98,-292.408 1763.33,-266"/>
<polygon fill="midnightblue" stroke="midnightblue" points="1763.82,-269.474 1773.55,-265.274 1763.33,-262.491 1763.82,-269.474"/>
</g>
<!-- Node12 -->
<g id="node12" class="node"><title>Node12</title>
<g id="a_node12"><a xlink:href="CheckRunner_8h.html" target="_top" xlink:title="QualityControl/CheckRunner.h">
<polygon fill="none" stroke="black" points="1256,-246.5 1256,-265.5 1406,-265.5 1406,-246.5 1256,-246.5"/>
<text text-anchor="middle" x="1331" y="-253.5" font-family="Helvetica,sans-Serif" font-size="10.00">QualityControl/CheckRunner.h</text>
</a>
</g>
</g>
<!-- Node1&#45;&gt;Node12 -->
<g id="edge12" class="edge"><title>Node1&#45;&gt;Node12</title>
<path fill="none" stroke="midnightblue" d="M784.557,-304.593C899.995,-294.539 1123.13,-275.105 1245.53,-264.445"/>
<polygon fill="midnightblue" stroke="midnightblue" points="1245.95,-267.921 1255.61,-263.567 1245.34,-260.948 1245.95,-267.921"/>
</g>
<!-- Node36 -->
<g id="node36" class="node"><title>Node36</title>
<g id="a_node36"><a xlink:href="runnerUtils_8h.html" target="_top" xlink:title="QualityControl/runnerUtils.h">
<polygon fill="none" stroke="black" points="196.5,-67.5 196.5,-86.5 333.5,-86.5 333.5,-67.5 196.5,-67.5"/>
<text text-anchor="middle" x="265" y="-74.5" font-family="Helvetica,sans-Serif" font-size="10.00">QualityControl/runnerUtils.h</text>
</a>
</g>
</g>
<!-- Node1&#45;&gt;Node36 -->
<g id="edge68" class="edge"><title>Node1&#45;&gt;Node36</title>
<path fill="none" stroke="midnightblue" d="M637.271,-307.89C563.851,-303.372 448.484,-292.405 352,-266 291.714,-249.502 269.483,-251.784 223,-210 191.62,-181.792 163.698,-159.422 185,-123 193.861,-107.85 209.905,-97.406 225.312,-90.4236"/>
<polygon fill="midnightblue" stroke="midnightblue" points="226.854,-93.5733 234.753,-86.5122 224.175,-87.1064 226.854,-93.5733"/>
</g>
<!-- Node38 -->
<g id="node38" class="node"><title>Node38</title>
<g id="a_node38"><a xlink:href="ExamplePrinterSpec_8h.html" target="_top" xlink:title="QualityControl/ExamplePrinter\lSpec.h">
<polygon fill="none" stroke="black" points="569.5,-179.5 569.5,-209.5 718.5,-209.5 718.5,-179.5 569.5,-179.5"/>
<text text-anchor="start" x="577.5" y="-197.5" font-family="Helvetica,sans-Serif" font-size="10.00">QualityControl/ExamplePrinter</text>
<text text-anchor="middle" x="644" y="-186.5" font-family="Helvetica,sans-Serif" font-size="10.00">Spec.h</text>
</a>
</g>
</g>
<!-- Node1&#45;&gt;Node38 -->
<g id="edge72" class="edge"><title>Node1&#45;&gt;Node38</title>
<path fill="none" stroke="midnightblue" d="M705.964,-302.319C695.719,-284.657 672.157,-244.039 657.22,-218.289"/>
<polygon fill="midnightblue" stroke="midnightblue" points="660.193,-216.439 652.147,-209.545 654.138,-219.952 660.193,-216.439"/>
</g>
<!-- Node41 -->
<g id="node41" class="node"><title>Node41</title>
<g id="a_node41"><a xlink:href="DataProducer_8h.html" target="_top" xlink:title="QualityControl/DataProducer.h">
<polygon fill="none" stroke="black" points="1424,-246.5 1424,-265.5 1574,-265.5 1574,-246.5 1424,-246.5"/>
<text text-anchor="middle" x="1499" y="-253.5" font-family="Helvetica,sans-Serif" font-size="10.00">QualityControl/DataProducer.h</text>
</a>
</g>
</g>
<!-- Node1&#45;&gt;Node41 -->
<g id="edge81" class="edge"><title>Node1&#45;&gt;Node41</title>
<path fill="none" stroke="midnightblue" d="M784.557,-307.339C910.915,-300.822 1177.6,-286.064 1413.75,-266.071"/>
<polygon fill="midnightblue" stroke="midnightblue" points="1414.24,-269.543 1423.91,-265.207 1413.65,-262.568 1414.24,-269.543"/>
</g>
<!-- Node4 -->
<g id="node4" class="node"><title>Node4</title>
<polygon fill="none" stroke="#bfbfbf" points="1316,-123.5 1316,-142.5 1360,-142.5 1360,-123.5 1316,-123.5"/>
<text text-anchor="middle" x="1338" y="-130.5" font-family="Helvetica,sans-Serif" font-size="10.00">vector</text>
</g>
<!-- Node3&#45;&gt;Node4 -->
<g id="edge3" class="edge"><title>Node3&#45;&gt;Node4</title>
<path fill="none" stroke="midnightblue" d="M372.079,-189.513C423.968,-186.573 496.391,-182.494 560,-179 858.202,-162.621 933.055,-163.518 1231,-143 1256.14,-141.269 1284.56,-138.857 1305.79,-136.966"/>
<polygon fill="midnightblue" stroke="midnightblue" points="1306.24,-140.439 1315.88,-136.057 1305.61,-133.468 1306.24,-140.439"/>
</g>
<!-- Node3&#45;&gt;Node5 -->
<g id="edge4" class="edge"><title>Node3&#45;&gt;Node5</title>
<path fill="none" stroke="midnightblue" d="M314.507,-179.41C322.993,-169.545 334.221,-155.876 343,-143 364.863,-110.934 353.49,-88.1967 386,-67 464.789,-15.6286 763.394,-14.8186 860.376,-15.9657"/>
<polygon fill="midnightblue" stroke="midnightblue" points="860.365,-19.4658 870.411,-16.1004 860.459,-12.4664 860.365,-19.4658"/>
</g>
<!-- Node6 -->
<g id="node6" class="node"><title>Node6</title>
<polygon fill="none" stroke="#bfbfbf" points="194,-123.5 194,-142.5 334,-142.5 334,-123.5 194,-123.5"/>
<text text-anchor="middle" x="264" y="-130.5" font-family="Helvetica,sans-Serif" font-size="10.00">Framework/WorkflowSpec.h</text>
</g>
<!-- Node3&#45;&gt;Node6 -->
<g id="edge5" class="edge"><title>Node3&#45;&gt;Node6</title>
<path fill="none" stroke="midnightblue" d="M292.995,-179.399C287.587,-170.932 280.668,-160.099 274.946,-151.139"/>
<polygon fill="midnightblue" stroke="midnightblue" points="277.862,-149.202 269.529,-142.658 271.962,-152.97 277.862,-149.202"/>
</g>
<!-- Node12&#45;&gt;Node4 -->
<g id="edge17" class="edge"><title>Node12&#45;&gt;Node4</title>
<path fill="none" stroke="midnightblue" d="M1382.1,-246.473C1421,-238.818 1469.86,-226.284 1482,-210 1490.23,-198.954 1490.16,-190.101 1482,-179 1480.28,-176.661 1411.81,-155.96 1369.92,-143.465"/>
<polygon fill="midnightblue" stroke="midnightblue" points="1370.73,-140.056 1360.15,-140.556 1368.74,-146.765 1370.73,-140.056"/>
</g>
<!-- Node12&#45;&gt;Node5 -->
<g id="edge15" class="edge"><title>Node12&#45;&gt;Node5</title>
<path fill="none" stroke="midnightblue" d="M1255.99,-254.101C1117.51,-251.657 833.006,-242.673 803,-210 753.103,-155.67 834.773,-68.2162 872.975,-32.4858"/>
<polygon fill="midnightblue" stroke="midnightblue" points="875.809,-34.6371 880.821,-25.3032 871.082,-29.4738 875.809,-34.6371"/>
</g>
<!-- Node12&#45;&gt;Node9 -->
<g id="edge14" class="edge"><title>Node12&#45;&gt;Node9</title>
<path fill="none" stroke="midnightblue" d="M1324.68,-246.195C1312.47,-229.937 1283.94,-195.373 1251,-179 1162.67,-135.09 1128.82,-161.834 1032,-143 1030.74,-142.755 1029.46,-142.501 1028.17,-142.238"/>
<polygon fill="midnightblue" stroke="midnightblue" points="1028.71,-138.775 1018.2,-140.126 1027.26,-145.623 1028.71,-138.775"/>
</g>
<!-- Node13 -->
<g id="node13" class="node"><title>Node13</title>
<polygon fill="none" stroke="#bfbfbf" points="2026,-185 2026,-204 2072,-204 2072,-185 2026,-185"/>
<text text-anchor="middle" x="2049" y="-192" font-family="Helvetica,sans-Serif" font-size="10.00">chrono</text>
</g>
<!-- Node12&#45;&gt;Node13 -->
<g id="edge13" class="edge"><title>Node12&#45;&gt;Node13</title>
<path fill="none" stroke="midnightblue" d="M1406.09,-246.78C1409.1,-246.506 1412.08,-246.245 1415,-246 1679.89,-223.835 1752.41,-267.195 2012,-210 2015,-209.338 2018.08,-208.468 2021.12,-207.481"/>
<polygon fill="midnightblue" stroke="midnightblue" points="2022.34,-210.762 2030.53,-204.046 2019.94,-204.185 2022.34,-210.762"/>
</g>
<!-- Node14 -->
<g id="node14" class="node"><title>Node14</title>
<polygon fill="none" stroke="#bfbfbf" points="1832.5,-6 1832.5,-25 1867.5,-25 1867.5,-6 1832.5,-6"/>
<text text-anchor="middle" x="1850" y="-13" font-family="Helvetica,sans-Serif" font-size="10.00">map</text>
</g>
<!-- Node12&#45;&gt;Node14 -->
<g id="edge16" class="edge"><title>Node12&#45;&gt;Node14</title>
<path fill="none" stroke="midnightblue" d="M1406.09,-246.731C1409.09,-246.471 1412.08,-246.226 1415,-246 1584.02,-232.964 2012.04,-249.045 2177,-210 2248.45,-193.09 2287.97,-204.55 2328,-143 2379.64,-63.5977 1987.08,-27.09 1877.75,-18.5259"/>
<polygon fill="midnightblue" stroke="midnightblue" points="1877.75,-15.0162 1867.51,-17.7419 1877.22,-21.9957 1877.75,-15.0162"/>
</g>
<!-- Node15 -->
<g id="node15" class="node"><title>Node15</title>
<polygon fill="none" stroke="#bfbfbf" points="2090,-185 2090,-204 2168,-204 2168,-185 2090,-185"/>
<text text-anchor="middle" x="2129" y="-192" font-family="Helvetica,sans-Serif" font-size="10.00">unordered_set</text>
</g>
<!-- Node12&#45;&gt;Node15 -->
<g id="edge18" class="edge"><title>Node12&#45;&gt;Node15</title>
<path fill="none" stroke="midnightblue" d="M1406.09,-246.757C1409.1,-246.489 1412.08,-246.235 1415,-246 1710.48,-222.202 1789.03,-261.227 2081,-210 2085.56,-209.2 2090.3,-208.106 2094.94,-206.876"/>
<polygon fill="midnightblue" stroke="midnightblue" points="2096.21,-210.152 2104.85,-204.024 2094.28,-203.425 2096.21,-210.152"/>
</g>
<!-- Node16 -->
<g id="node16" class="node"><title>Node16</title>
<polygon fill="none" stroke="#bfbfbf" points="812,-185 812,-204 904,-204 904,-185 812,-185"/>
<text text-anchor="middle" x="858" y="-192" font-family="Helvetica,sans-Serif" font-size="10.00">Common/Timer.h</text>
</g>
<!-- Node12&#45;&gt;Node16 -->
<g id="edge19" class="edge"><title>Node12&#45;&gt;Node16</title>
<path fill="none" stroke="midnightblue" d="M1255.75,-250.325C1171.69,-244.308 1031.79,-231.924 913,-210 907.793,-209.039 902.353,-207.844 897.008,-206.556"/>
<polygon fill="midnightblue" stroke="midnightblue" points="897.484,-203.066 886.93,-204 895.763,-209.851 897.484,-203.066"/>
</g>
<!-- Node17 -->
<g id="node17" class="node"><title>Node17</title>
<polygon fill="none" stroke="#bfbfbf" points="850,-123.5 850,-142.5 948,-142.5 948,-123.5 850,-123.5"/>
<text text-anchor="middle" x="899" y="-130.5" font-family="Helvetica,sans-Serif" font-size="10.00">Framework/Task.h</text>
</g>
<!-- Node12&#45;&gt;Node17 -->
<g id="edge20" class="edge"><title>Node12&#45;&gt;Node17</title>
<path fill="none" stroke="midnightblue" d="M1313.14,-246.431C1296.45,-238.087 1271.15,-224.562 1251,-210 1234.43,-198.021 1235.52,-187.681 1217,-179 1114.26,-130.83 1074.6,-158.338 958.054,-143.06"/>
<polygon fill="midnightblue" stroke="midnightblue" points="958.426,-139.578 948.039,-141.667 957.462,-146.511 958.426,-139.578"/>
</g>
<!-- Node18 -->
<g id="node18" class="node"><title>Node18</title>
<polygon fill="none" stroke="#bfbfbf" points="922.5,-185 922.5,-204 1039.5,-204 1039.5,-185 922.5,-185"/>
<text text-anchor="middle" x="981" y="-192" font-family="Helvetica,sans-Serif" font-size="10.00">Headers/DataHeader.h</text>
</g>
<!-- Node12&#45;&gt;Node18 -->
<g id="edge21" class="edge"><title>Node12&#45;&gt;Node18</title>
<path fill="none" stroke="midnightblue" d="M1271.21,-246.476C1213.82,-238.062 1124.77,-224.399 1048,-210 1041.78,-208.834 1035.26,-207.527 1028.82,-206.188"/>
<polygon fill="midnightblue" stroke="midnightblue" points="1029.35,-202.721 1018.84,-204.072 1027.9,-209.569 1029.35,-202.721"/>
</g>
<!-- Node19 -->
<g id="node19" class="node"><title>Node19</title>
<polygon fill="none" stroke="#bfbfbf" points="1057.5,-185 1057.5,-204 1208.5,-204 1208.5,-185 1057.5,-185"/>
<text text-anchor="middle" x="1133" y="-192" font-family="Helvetica,sans-Serif" font-size="10.00">Monitoring/MonitoringFactory.h</text>
</g>
<!-- Node12&#45;&gt;Node19 -->
<g id="edge22" class="edge"><title>Node12&#45;&gt;Node19</title>
<path fill="none" stroke="midnightblue" d="M1302.63,-246.475C1268.08,-236.092 1209.58,-218.512 1171.12,-206.954"/>
<polygon fill="midnightblue" stroke="midnightblue" points="1171.9,-203.535 1161.32,-204.009 1169.89,-210.239 1171.9,-203.535"/>
</g>
<!-- Node20 -->
<g id="node20" class="node"><title>Node20</title>
<polygon fill="none" stroke="#bfbfbf" points="2155,-123.5 2155,-142.5 2319,-142.5 2319,-123.5 2155,-123.5"/>
<text text-anchor="middle" x="2237" y="-130.5" font-family="Helvetica,sans-Serif" font-size="10.00">Framework/DataProcessorSpec.h</text>
</g>
<!-- Node12&#45;&gt;Node20 -->
<g id="edge23" class="edge"><title>Node12&#45;&gt;Node20</title>
<path fill="none" stroke="midnightblue" d="M1406.09,-246.795C1409.1,-246.517 1412.08,-246.251 1415,-246 1539.02,-235.367 1856.83,-252.037 1974,-210 1996.18,-202.044 1995.42,-188.46 2017,-179 2057.07,-161.43 2104.3,-150.617 2144.7,-144.012"/>
<polygon fill="midnightblue" stroke="midnightblue" points="2145.48,-147.433 2154.81,-142.422 2144.39,-140.518 2145.48,-147.433"/>
</g>
<!-- Node21 -->
<g id="node21" class="node"><title>Node21</title>
<g id="a_node21"><a xlink:href="CheckInterface_8h.html" target="_top" xlink:title="QualityControl/CheckInterface.h">
<polygon fill="none" stroke="black" points="1736.5,-123.5 1736.5,-142.5 1893.5,-142.5 1893.5,-123.5 1736.5,-123.5"/>
<text text-anchor="middle" x="1815" y="-130.5" font-family="Helvetica,sans-Serif" font-size="10.00">QualityControl/CheckInterface.h</text>
</a>
</g>
</g>
<!-- Node12&#45;&gt;Node21 -->
<g id="edge24" class="edge"><title>Node12&#45;&gt;Node21</title>
<path fill="none" stroke="midnightblue" d="M1402.11,-246.498C1491.4,-235.63 1635.91,-217.344 1660,-210 1709.67,-194.859 1763.1,-165.403 1792.45,-147.943"/>
<polygon fill="midnightblue" stroke="midnightblue" points="1794.34,-150.889 1801.1,-142.729 1790.73,-144.894 1794.34,-150.889"/>
</g>
<!-- Node24 -->
<g id="node24" class="node"><title>Node24</title>
<g id="a_node24"><a xlink:href="MonitorObject_8h.html" target="_top" xlink:title="QualityControl/MonitorObject.h">
<polygon fill="none" stroke="black" points="1632.5,-67.5 1632.5,-86.5 1783.5,-86.5 1783.5,-67.5 1632.5,-67.5"/>
<text text-anchor="middle" x="1708" y="-74.5" font-family="Helvetica,sans-Serif" font-size="10.00">QualityControl/MonitorObject.h</text>
</a>
</g>
</g>
<!-- Node12&#45;&gt;Node24 -->
<g id="edge50" class="edge"><title>Node12&#45;&gt;Node24</title>
<path fill="none" stroke="midnightblue" d="M1406.16,-246.554C1512.94,-234.493 1697.32,-213.41 1712,-210 1799.22,-189.736 1850.27,-216.089 1902,-143 1933.18,-98.9434 1859,-84.2869 1793.55,-79.6507"/>
<polygon fill="midnightblue" stroke="midnightblue" points="1793.75,-76.1569 1783.55,-79.0133 1793.31,-83.1427 1793.75,-76.1569"/>
</g>
<!-- Node28 -->
<g id="node28" class="node"><title>Node28</title>
<g id="a_node28"><a xlink:href="DatabaseInterface_8h.html" target="_top" xlink:title="QualityControl/DatabaseInterface.h">
<polygon fill="none" stroke="black" points="1303,-185 1303,-204 1473,-204 1473,-185 1303,-185"/>
<text text-anchor="middle" x="1388" y="-192" font-family="Helvetica,sans-Serif" font-size="10.00">QualityControl/DatabaseInterface.h</text>
</a>
</g>
</g>
<!-- Node12&#45;&gt;Node28 -->
<g id="edge38" class="edge"><title>Node12&#45;&gt;Node28</title>
<path fill="none" stroke="midnightblue" d="M1339.17,-246.475C1347.89,-237.373 1361.9,-222.741 1372.69,-211.483"/>
<polygon fill="midnightblue" stroke="midnightblue" points="1375.46,-213.651 1379.85,-204.009 1370.4,-208.809 1375.46,-213.651"/>
</g>
<!-- Node31 -->
<g id="node31" class="node"><title>Node31</title>
<g id="a_node31"><a xlink:href="QcInfoLogger_8h.html" target="_top" xlink:title="QualityControl/QcInfoLogger.h">
<polygon fill="none" stroke="black" points="1987.5,-123.5 1987.5,-142.5 2136.5,-142.5 2136.5,-123.5 1987.5,-123.5"/>
<text text-anchor="middle" x="2062" y="-130.5" font-family="Helvetica,sans-Serif" font-size="10.00">QualityControl/QcInfoLogger.h</text>
</a>
</g>
</g>
<!-- Node12&#45;&gt;Node31 -->
<g id="edge51" class="edge"><title>Node12&#45;&gt;Node31</title>
<path fill="none" stroke="midnightblue" d="M1406.09,-246.812C1409.1,-246.53 1412.08,-246.257 1415,-246 1530.61,-235.816 1825.88,-246.64 1936,-210 1960.1,-201.982 1962.33,-192.238 1984,-179 2001.79,-168.134 2022.2,-156.38 2037.69,-147.611"/>
<polygon fill="midnightblue" stroke="midnightblue" points="2039.63,-150.533 2046.62,-142.571 2036.19,-144.436 2039.63,-150.533"/>
</g>
<!-- Node33 -->
<g id="node33" class="node"><title>Node33</title>
<g id="a_node33"><a xlink:href="Check_8h_source.html" target="_top" xlink:title="QualityControl/Check.h">
<polygon fill="none" stroke="black" points="1532.5,-185 1532.5,-204 1651.5,-204 1651.5,-185 1532.5,-185"/>
<text text-anchor="middle" x="1592" y="-192" font-family="Helvetica,sans-Serif" font-size="10.00">QualityControl/Check.h</text>
</a>
</g>
</g>
<!-- Node12&#45;&gt;Node33 -->
<g id="edge53" class="edge"><title>Node12&#45;&gt;Node33</title>
<path fill="none" stroke="midnightblue" d="M1368.39,-246.475C1414.81,-235.893 1494.02,-217.836 1544.64,-206.297"/>
<polygon fill="midnightblue" stroke="midnightblue" points="1545.7,-209.644 1554.67,-204.009 1544.15,-202.819 1545.7,-209.644"/>
</g>
<!-- Node21&#45;&gt;Node5 -->
<g id="edge25" class="edge"><title>Node21&#45;&gt;Node5</title>
<path fill="none" stroke="midnightblue" d="M1763.48,-123.458C1724.24,-116.113 1669.28,-103.999 1623,-87 1604.71,-80.2832 1602.78,-72.1829 1584,-67 1345.72,-1.23172 1275.3,-51.9192 1029,-31 991.965,-27.8544 949.444,-23.2335 921.503,-20.0582"/>
<polygon fill="midnightblue" stroke="midnightblue" points="921.884,-16.579 911.55,-18.9181 921.087,-23.5335 921.884,-16.579"/>
</g>
<!-- Node21&#45;&gt;Node14 -->
<g id="edge26" class="edge"><title>Node21&#45;&gt;Node14</title>
<path fill="none" stroke="midnightblue" d="M1817.63,-123.319C1823.28,-104.673 1836.68,-60.443 1844.35,-35.1317"/>
<polygon fill="midnightblue" stroke="midnightblue" points="1847.79,-35.8673 1847.34,-25.282 1841.09,-33.8372 1847.79,-35.8673"/>
</g>
<!-- Node22 -->
<g id="node22" class="node"><title>Node22</title>
<polygon fill="none" stroke="#bfbfbf" points="1353.5,-67.5 1353.5,-86.5 1436.5,-86.5 1436.5,-67.5 1353.5,-67.5"/>
<text text-anchor="middle" x="1395" y="-74.5" font-family="Helvetica,sans-Serif" font-size="10.00">unordered_map</text>
</g>
<!-- Node21&#45;&gt;Node22 -->
<g id="edge27" class="edge"><title>Node21&#45;&gt;Node22</title>
<path fill="none" stroke="midnightblue" d="M1736.15,-123.729C1663.46,-115.803 1552.35,-102.926 1446.9,-87.2205"/>
<polygon fill="midnightblue" stroke="midnightblue" points="1447.12,-83.7149 1436.71,-85.6919 1446.08,-90.6373 1447.12,-83.7149"/>
</g>
<!-- Node23 -->
<g id="node23" class="node"><title>Node23</title>
<polygon fill="none" stroke="#bfbfbf" points="1680,-6 1680,-25 1736,-25 1736,-6 1680,-6"/>
<text text-anchor="middle" x="1708" y="-13" font-family="Helvetica,sans-Serif" font-size="10.00">Rtypes.h</text>
</g>
<!-- Node21&#45;&gt;Node23 -->
<g id="edge28" class="edge"><title>Node21&#45;&gt;Node23</title>
<path fill="none" stroke="midnightblue" d="M1813.8,-123.076C1811.59,-109.609 1805.78,-83.8743 1792,-67 1778.38,-50.3196 1757.69,-37.7892 1740.26,-29.3825"/>
<polygon fill="midnightblue" stroke="midnightblue" points="1741.52,-26.112 1730.97,-25.1361 1738.61,-32.4779 1741.52,-26.112"/>
</g>
<!-- Node21&#45;&gt;Node24 -->
<g id="edge29" class="edge"><title>Node21&#45;&gt;Node24</title>
<path fill="none" stroke="midnightblue" d="M1797.81,-123.324C1780.65,-114.664 1754.05,-101.242 1734.25,-91.249"/>
<polygon fill="midnightblue" stroke="midnightblue" points="1735.65,-88.0354 1725.15,-86.6545 1732.5,-94.2847 1735.65,-88.0354"/>
</g>
<!-- Node27 -->
<g id="node27" class="node"><title>Node27</title>
<g id="a_node27"><a xlink:href="Quality_8h.html" target="_top" xlink:title="QualityControl/Quality.h">
<polygon fill="none" stroke="black" points="1454.5,-67.5 1454.5,-86.5 1575.5,-86.5 1575.5,-67.5 1454.5,-67.5"/>
<text text-anchor="middle" x="1515" y="-74.5" font-family="Helvetica,sans-Serif" font-size="10.00">QualityControl/Quality.h</text>
</a>
</g>
</g>
<!-- Node21&#45;&gt;Node27 -->
<g id="edge35" class="edge"><title>Node21&#45;&gt;Node27</title>
<path fill="none" stroke="midnightblue" d="M1767.46,-123.444C1714.47,-113.905 1628.8,-98.4834 1572.18,-88.293"/>
<polygon fill="midnightblue" stroke="midnightblue" points="1572.78,-84.8434 1562.31,-86.5164 1571.54,-91.7327 1572.78,-84.8434"/>
</g>
<!-- Node24&#45;&gt;Node5 -->
<g id="edge30" class="edge"><title>Node24&#45;&gt;Node5</title>
<path fill="none" stroke="midnightblue" d="M1632.4,-68.2259C1627.53,-67.7913 1622.7,-67.3781 1618,-67 1356.58,-45.9478 1290.37,-52.7082 1029,-31 991.959,-27.9235 949.44,-23.2884 921.501,-20.0909"/>
<polygon fill="midnightblue" stroke="midnightblue" points="921.884,-16.612 911.548,-18.9421 921.081,-23.5658 921.884,-16.612"/>
</g>
<!-- Node24&#45;&gt;Node14 -->
<g id="edge31" class="edge"><title>Node24&#45;&gt;Node14</title>
<path fill="none" stroke="midnightblue" d="M1728.35,-67.4751C1753.21,-57.0579 1795.36,-39.3959 1822.94,-27.84"/>
<polygon fill="midnightblue" stroke="midnightblue" points="1824.51,-30.9763 1832.38,-23.8836 1821.8,-24.5202 1824.51,-30.9763"/>
</g>
<!-- Node24&#45;&gt;Node23 -->
<g id="edge32" class="edge"><title>Node24&#45;&gt;Node23</title>
<path fill="none" stroke="midnightblue" d="M1708,-67.4751C1708,-59.0803 1708,-45.9806 1708,-35.1631"/>
<polygon fill="midnightblue" stroke="midnightblue" points="1711.5,-35.0091 1708,-25.0091 1704.5,-35.0091 1711.5,-35.0091"/>
</g>
<!-- Node25 -->
<g id="node25" class="node"><title>Node25</title>
<polygon fill="none" stroke="#bfbfbf" points="1390.5,-6 1390.5,-25 1449.5,-25 1449.5,-6 1390.5,-6"/>
<text text-anchor="middle" x="1420" y="-13" font-family="Helvetica,sans-Serif" font-size="10.00">TObject.h</text>
</g>
<!-- Node24&#45;&gt;Node25 -->
<g id="edge33" class="edge"><title>Node24&#45;&gt;Node25</title>
<path fill="none" stroke="midnightblue" d="M1666.74,-67.4751C1611.5,-56.0641 1514.19,-35.9602 1459.74,-24.7112"/>
<polygon fill="midnightblue" stroke="midnightblue" points="1460.28,-21.247 1449.77,-22.6513 1458.86,-28.1022 1460.28,-21.247"/>
</g>
<!-- Node26 -->
<g id="node26" class="node"><title>Node26</title>
<polygon fill="none" stroke="#bfbfbf" points="1038,-6 1038,-25 1154,-25 1154,-6 1038,-6"/>
<text text-anchor="middle" x="1096" y="-13" font-family="Helvetica,sans-Serif" font-size="10.00">Common/Exceptions.h</text>
</g>
<!-- Node24&#45;&gt;Node26 -->
<g id="edge34" class="edge"><title>Node24&#45;&gt;Node26</title>
<path fill="none" stroke="midnightblue" d="M1632.38,-68.4201C1627.51,-67.9379 1622.69,-67.4612 1618,-67 1455.44,-51.0091 1264.37,-32.63 1164.57,-23.0631"/>
<polygon fill="midnightblue" stroke="midnightblue" points="1164.62,-19.5511 1154.33,-22.081 1163.95,-26.5192 1164.62,-19.5511"/>
</g>
<!-- Node27&#45;&gt;Node5 -->
<g id="edge37" class="edge"><title>Node27&#45;&gt;Node5</title>
<path fill="none" stroke="midnightblue" d="M1454.31,-68.0405C1451.16,-67.6767 1448.05,-67.3274 1445,-67 1260.48,-47.163 1213.73,-48.697 1029,-31 992.001,-27.4556 949.473,-22.9166 921.52,-19.8694"/>
<polygon fill="midnightblue" stroke="midnightblue" points="921.884,-16.3884 911.563,-18.7797 921.123,-23.3468 921.884,-16.3884"/>
</g>
<!-- Node27&#45;&gt;Node23 -->
<g id="edge36" class="edge"><title>Node27&#45;&gt;Node23</title>
<path fill="none" stroke="midnightblue" d="M1542.65,-67.4751C1576.19,-57.1362 1632.87,-39.6611 1670.37,-28.1017"/>
<polygon fill="midnightblue" stroke="midnightblue" points="1671.87,-31.2999 1680.4,-25.0091 1669.81,-24.6106 1671.87,-31.2999"/>
</g>
<!-- Node28&#45;&gt;Node4 -->
<g id="edge41" class="edge"><title>Node28&#45;&gt;Node4</title>
<path fill="none" stroke="midnightblue" d="M1380.84,-184.975C1373.26,-175.962 1361.13,-161.525 1351.71,-150.312"/>
<polygon fill="midnightblue" stroke="midnightblue" points="1354.26,-147.913 1345.15,-142.509 1348.9,-152.417 1354.26,-147.913"/>
</g>
<!-- Node28&#45;&gt;Node5 -->
<g id="edge39" class="edge"><title>Node28&#45;&gt;Node5</title>
<path fill="none" stroke="midnightblue" d="M1328.4,-184.953C1238.18,-171.909 1076.1,-148.014 1064,-143 1030.27,-129.017 946.575,-62.1215 909.353,-31.6642"/>
<polygon fill="midnightblue" stroke="midnightblue" points="911.295,-28.7304 901.346,-25.0877 906.852,-34.1396 911.295,-28.7304"/>
</g>
<!-- Node28&#45;&gt;Node9 -->
<g id="edge40" class="edge"><title>Node28&#45;&gt;Node9</title>
<path fill="none" stroke="midnightblue" d="M1330.16,-184.967C1316.66,-182.991 1302.33,-180.909 1289,-179 1174.83,-162.643 1145.47,-163.676 1032,-143 1030.74,-142.77 1029.46,-142.528 1028.17,-142.277"/>
<polygon fill="midnightblue" stroke="midnightblue" points="1028.69,-138.811 1018.19,-140.216 1027.27,-145.666 1028.69,-138.811"/>
</g>
<!-- Node28&#45;&gt;Node22 -->
<g id="edge42" class="edge"><title>Node28&#45;&gt;Node22</title>
<path fill="none" stroke="midnightblue" d="M1346.35,-184.966C1305.45,-174.58 1252.15,-154.434 1274,-123 1283.02,-110.02 1318.84,-97.6821 1349.18,-89.2193"/>
<polygon fill="midnightblue" stroke="midnightblue" points="1350.48,-92.4944 1359.21,-86.5025 1348.65,-85.7377 1350.48,-92.4944"/>
</g>
<!-- Node28&#45;&gt;Node24 -->
<g id="edge49" class="edge"><title>Node28&#45;&gt;Node24</title>
<path fill="none" stroke="midnightblue" d="M1364.39,-184.955C1333.22,-172.433 1284.76,-147.878 1307,-123 1317.4,-111.372 1507.46,-94.1393 1622.14,-84.731"/>
<polygon fill="midnightblue" stroke="midnightblue" points="1622.63,-88.2029 1632.31,-83.9009 1622.06,-81.2261 1622.63,-88.2029"/>
</g>
<!-- Node29 -->
<g id="node29" class="node"><title>Node29</title>
<g id="a_node29"><a xlink:href="QualityObject_8h_source.html" target="_top" xlink:title="QualityControl/QualityObject.h">
<polygon fill="none" stroke="black" points="1073.5,-123.5 1073.5,-142.5 1222.5,-142.5 1222.5,-123.5 1073.5,-123.5"/>
<text text-anchor="middle" x="1148" y="-130.5" font-family="Helvetica,sans-Serif" font-size="10.00">QualityControl/QualityObject.h</text>
</a>
</g>
</g>
<!-- Node28&#45;&gt;Node29 -->
<g id="edge43" class="edge"><title>Node28&#45;&gt;Node29</title>
<path fill="none" stroke="midnightblue" d="M1353.61,-184.975C1311.11,-174.437 1238.7,-156.486 1192.13,-144.941"/>
<polygon fill="midnightblue" stroke="midnightblue" points="1192.87,-141.518 1182.32,-142.509 1191.19,-148.313 1192.87,-141.518"/>
</g>
<!-- Node29&#45;&gt;Node14 -->
<g id="edge45" class="edge"><title>Node29&#45;&gt;Node14</title>
<path fill="none" stroke="midnightblue" d="M1178.15,-123.486C1207.84,-114.922 1254.36,-101.01 1294,-87 1316.57,-79.0241 1320.72,-72.5734 1344,-67 1518.02,-25.3317 1567.21,-51.2449 1745,-31 1771.28,-28.0078 1801.14,-23.8052 1822.29,-20.6944"/>
<polygon fill="midnightblue" stroke="midnightblue" points="1822.82,-24.1537 1832.2,-19.2223 1821.79,-17.2297 1822.82,-24.1537"/>
</g>
<!-- Node29&#45;&gt;Node25 -->
<g id="edge46" class="edge"><title>Node29&#45;&gt;Node25</title>
<path fill="none" stroke="midnightblue" d="M1168.44,-123.319C1216.11,-103.077 1334.79,-52.682 1390.39,-29.0747"/>
<polygon fill="midnightblue" stroke="midnightblue" points="1391.85,-32.2546 1399.69,-25.1245 1389.12,-25.8115 1391.85,-32.2546"/>
</g>
<!-- Node29&#45;&gt;Node26 -->
<g id="edge47" class="edge"><title>Node29&#45;&gt;Node26</title>
<path fill="none" stroke="midnightblue" d="M1140.11,-123.331C1132.65,-114.704 1121.63,-100.797 1115,-87 1107.03,-70.4118 1101.99,-49.9632 1099.12,-35.3684"/>
<polygon fill="midnightblue" stroke="midnightblue" points="1102.49,-34.3244 1097.27,-25.1043 1095.6,-35.5668 1102.49,-34.3244"/>
</g>
<!-- Node29&#45;&gt;Node27 -->
<g id="edge48" class="edge"><title>Node29&#45;&gt;Node27</title>
<path fill="none" stroke="midnightblue" d="M1206.15,-123.444C1271.65,-113.806 1377.96,-98.1635 1447.19,-87.9782"/>
<polygon fill="midnightblue" stroke="midnightblue" points="1447.74,-91.4349 1457.12,-86.5164 1446.72,-84.5095 1447.74,-91.4349"/>
</g>
<!-- Node30 -->
<g id="node30" class="node"><title>Node30</title>
<polygon fill="none" stroke="#bfbfbf" points="1124,-67.5 1124,-86.5 1178,-86.5 1178,-67.5 1124,-67.5"/>
<text text-anchor="middle" x="1151" y="-74.5" font-family="Helvetica,sans-Serif" font-size="10.00">iostream</text>
</g>
<!-- Node29&#45;&gt;Node30 -->
<g id="edge44" class="edge"><title>Node29&#45;&gt;Node30</title>
<path fill="none" stroke="midnightblue" d="M1148.5,-123.083C1148.89,-116.006 1149.45,-105.861 1149.95,-96.9865"/>
<polygon fill="midnightblue" stroke="midnightblue" points="1153.45,-96.9299 1150.51,-86.7511 1146.46,-96.5415 1153.45,-96.9299"/>
</g>
<!-- Node32 -->
<g id="node32" class="node"><title>Node32</title>
<polygon fill="none" stroke="#bfbfbf" points="1997,-67.5 1997,-86.5 2127,-86.5 2127,-67.5 1997,-67.5"/>
<text text-anchor="middle" x="2062" y="-74.5" font-family="Helvetica,sans-Serif" font-size="10.00">InfoLogger/InfoLogger.hxx</text>
</g>
<!-- Node31&#45;&gt;Node32 -->
<g id="edge52" class="edge"><title>Node31&#45;&gt;Node32</title>
<path fill="none" stroke="midnightblue" d="M2062,-123.083C2062,-116.006 2062,-105.861 2062,-96.9865"/>
<polygon fill="midnightblue" stroke="midnightblue" points="2065.5,-96.751 2062,-86.7511 2058.5,-96.7511 2065.5,-96.751"/>
</g>
<!-- Node33&#45;&gt;Node4 -->
<g id="edge56" class="edge"><title>Node33&#45;&gt;Node4</title>
<path fill="none" stroke="midnightblue" d="M1550.72,-184.926C1507.93,-175.866 1438.89,-160.771 1370.4,-143.251"/>
<polygon fill="midnightblue" stroke="midnightblue" points="1370.86,-139.756 1360.31,-140.649 1369.12,-146.534 1370.86,-139.756"/>
</g>
<!-- Node33&#45;&gt;Node9 -->
<g id="edge57" class="edge"><title>Node33&#45;&gt;Node9</title>
<path fill="none" stroke="midnightblue" d="M1532.4,-185.145C1516.08,-182.993 1498.37,-180.783 1482,-179 1296.63,-158.81 1249.44,-162.568 1064,-143 1052.39,-141.775 1039.76,-140.258 1028.36,-138.821"/>
<polygon fill="midnightblue" stroke="midnightblue" points="1028.67,-135.332 1018.3,-137.534 1027.78,-142.275 1028.67,-135.332"/>
</g>
<!-- Node33&#45;&gt;Node14 -->
<g id="edge55" class="edge"><title>Node33&#45;&gt;Node14</title>
<path fill="none" stroke="midnightblue" d="M1651.7,-192.6C1732.58,-189.973 1870.52,-180.024 1902,-143 1930.45,-109.538 1890.64,-58.3853 1866.35,-32.5793"/>
<polygon fill="midnightblue" stroke="midnightblue" points="1868.61,-29.8731 1859.12,-25.1459 1863.59,-34.7543 1868.61,-29.8731"/>
</g>
<!-- Node33&#45;&gt;Node20 -->
<g id="edge59" class="edge"><title>Node33&#45;&gt;Node20</title>
<path fill="none" stroke="midnightblue" d="M1651.75,-188.171C1751.39,-179.255 1958.09,-160.643 2144.74,-143.018"/>
<polygon fill="midnightblue" stroke="midnightblue" points="2145.12,-146.499 2154.74,-142.073 2144.46,-139.53 2145.12,-146.499"/>
</g>
<!-- Node33&#45;&gt;Node21 -->
<g id="edge63" class="edge"><title>Node33&#45;&gt;Node21</title>
<path fill="none" stroke="midnightblue" d="M1623.95,-184.975C1663.2,-174.504 1729.88,-156.712 1773.17,-145.16"/>
<polygon fill="midnightblue" stroke="midnightblue" points="1774.35,-148.469 1783.11,-142.509 1772.54,-141.705 1774.35,-148.469"/>
</g>
<!-- Node33&#45;&gt;Node22 -->
<g id="edge58" class="edge"><title>Node33&#45;&gt;Node22</title>
<path fill="none" stroke="midnightblue" d="M1587.11,-184.769C1578.36,-169.929 1558.63,-139.769 1534,-123 1518.26,-112.281 1473.15,-98.6527 1438.55,-89.2166"/>
<polygon fill="midnightblue" stroke="midnightblue" points="1439.21,-85.771 1428.65,-86.5517 1437.39,-92.5305 1439.21,-85.771"/>
</g>
<!-- Node33&#45;&gt;Node24 -->
<g id="edge62" class="edge"><title>Node33&#45;&gt;Node24</title>
<path fill="none" stroke="midnightblue" d="M1621.1,-184.944C1642.48,-177.241 1670.69,-163.871 1688,-143 1698.94,-129.807 1703.91,-110.671 1706.15,-96.5773"/>
<polygon fill="midnightblue" stroke="midnightblue" points="1709.64,-96.9283 1707.44,-86.5649 1702.69,-96.0398 1709.64,-96.9283"/>
</g>
<!-- Node33&#45;&gt;Node27 -->
<g id="edge60" class="edge"><title>Node33&#45;&gt;Node27</title>
<path fill="none" stroke="midnightblue" d="M1590.55,-184.574C1587.93,-170.484 1581.38,-142.668 1568,-123 1559.94,-111.149 1547.95,-100.61 1537.41,-92.7158"/>
<polygon fill="midnightblue" stroke="midnightblue" points="1539.2,-89.6896 1529.02,-86.7357 1535.14,-95.39 1539.2,-89.6896"/>
</g>
<!-- Node33&#45;&gt;Node29 -->
<g id="edge61" class="edge"><title>Node33&#45;&gt;Node29</title>
<path fill="none" stroke="midnightblue" d="M1532.12,-185.476C1451.63,-174.689 1308.63,-155.526 1221.65,-143.869"/>
<polygon fill="midnightblue" stroke="midnightblue" points="1221.96,-140.381 1211.59,-142.521 1221.03,-147.318 1221.96,-140.381"/>
</g>
<!-- Node33&#45;&gt;Node31 -->
<g id="edge64" class="edge"><title>Node33&#45;&gt;Node31</title>
<path fill="none" stroke="midnightblue" d="M1651.53,-185.964C1736.13,-175.253 1891.24,-155.617 1984.66,-143.791"/>
<polygon fill="midnightblue" stroke="midnightblue" points="1985.14,-147.259 1994.62,-142.53 1984.26,-140.314 1985.14,-147.259"/>
</g>
<!-- Node34 -->
<g id="node34" class="node"><title>Node34</title>
<polygon fill="none" stroke="#bfbfbf" points="1620.5,-123.5 1620.5,-142.5 1679.5,-142.5 1679.5,-123.5 1620.5,-123.5"/>
<text text-anchor="middle" x="1650" y="-130.5" font-family="Helvetica,sans-Serif" font-size="10.00">functional</text>
</g>
<!-- Node33&#45;&gt;Node34 -->
<g id="edge54" class="edge"><title>Node33&#45;&gt;Node34</title>
<path fill="none" stroke="midnightblue" d="M1600.31,-184.975C1609.18,-175.873 1623.45,-161.241 1634.42,-149.983"/>
<polygon fill="midnightblue" stroke="midnightblue" points="1637.23,-152.113 1641.71,-142.509 1632.22,-147.227 1637.23,-152.113"/>
</g>
<!-- Node35 -->
<g id="node35" class="node"><title>Node35</title>
<g id="a_node35"><a xlink:href="CheckConfig_8h.html" target="_top" xlink:title="QualityControl/CheckConfig.h">
<polygon fill="none" stroke="black" points="1378.5,-123.5 1378.5,-142.5 1525.5,-142.5 1525.5,-123.5 1378.5,-123.5"/>
<text text-anchor="middle" x="1452" y="-130.5" font-family="Helvetica,sans-Serif" font-size="10.00">QualityControl/CheckConfig.h</text>
</a>
</g>
</g>
<!-- Node33&#45;&gt;Node35 -->
<g id="edge65" class="edge"><title>Node33&#45;&gt;Node35</title>
<path fill="none" stroke="midnightblue" d="M1571.94,-184.975C1548.24,-174.901 1508.59,-158.053 1481.42,-146.502"/>
<polygon fill="midnightblue" stroke="midnightblue" points="1482.59,-143.199 1472.02,-142.509 1479.86,-149.642 1482.59,-143.199"/>
</g>
<!-- Node35&#45;&gt;Node5 -->
<g id="edge66" class="edge"><title>Node35&#45;&gt;Node5</title>
<path fill="none" stroke="midnightblue" d="M1420.35,-123.458C1370.82,-110.268 1271.88,-84.6263 1187,-67 1090.58,-46.9762 975.281,-29.0059 921.469,-20.9619"/>
<polygon fill="midnightblue" stroke="midnightblue" points="921.956,-17.4959 911.55,-19.4877 920.927,-24.4198 921.956,-17.4959"/>
</g>
<!-- Node35&#45;&gt;Node22 -->
<g id="edge67" class="edge"><title>Node35&#45;&gt;Node22</title>
<path fill="none" stroke="midnightblue" d="M1442.84,-123.324C1434.5,-115.42 1421.97,-103.548 1411.82,-93.9377"/>
<polygon fill="midnightblue" stroke="midnightblue" points="1413.99,-91.1705 1404.32,-86.8339 1409.18,-96.2522 1413.99,-91.1705"/>
</g>
<!-- Node36&#45;&gt;Node5 -->
<g id="edge69" class="edge"><title>Node36&#45;&gt;Node5</title>
<path fill="none" stroke="midnightblue" d="M333.834,-68.4542C338.627,-67.954 343.385,-67.4648 348,-67 542.93,-47.3682 777.514,-26.4783 860.282,-19.1911"/>
<polygon fill="midnightblue" stroke="midnightblue" points="860.62,-22.675 870.275,-18.3125 860.007,-15.7019 860.62,-22.675"/>
</g>
<!-- Node36&#45;&gt;Node26 -->
<g id="edge71" class="edge"><title>Node36&#45;&gt;Node26</title>
<path fill="none" stroke="midnightblue" d="M333.863,-71.5783C453.237,-63.844 706.32,-47.1415 920,-31 955.449,-28.3222 994.892,-25.0955 1027.44,-22.3664"/>
<polygon fill="midnightblue" stroke="midnightblue" points="1028.08,-25.8251 1037.75,-21.4992 1027.49,-18.8497 1028.08,-25.8251"/>
</g>
<!-- Node37 -->
<g id="node37" class="node"><title>Node37</title>
<polygon fill="none" stroke="#bfbfbf" points="197.5,-0.5 197.5,-30.5 332.5,-30.5 332.5,-0.5 197.5,-0.5"/>
<text text-anchor="start" x="205.5" y="-18.5" font-family="Helvetica,sans-Serif" font-size="10.00">Configuration/Configuration</text>
<text text-anchor="middle" x="265" y="-7.5" font-family="Helvetica,sans-Serif" font-size="10.00">Factory.h</text>
</g>
<!-- Node36&#45;&gt;Node37 -->
<g id="edge70" class="edge"><title>Node36&#45;&gt;Node37</title>
<path fill="none" stroke="midnightblue" d="M265,-67.4751C265,-60.471 265,-50.1919 265,-40.6956"/>
<polygon fill="midnightblue" stroke="midnightblue" points="268.5,-40.5229 265,-30.523 261.5,-40.523 268.5,-40.5229"/>
</g>
<!-- Node38&#45;&gt;Node5 -->
<g id="edge73" class="edge"><title>Node38&#45;&gt;Node5</title>
<path fill="none" stroke="midnightblue" d="M675.032,-179.467C691.874,-170.736 712.212,-158.264 727,-143 754.004,-115.126 740.968,-92.7546 770,-67 796.007,-43.9291 834.049,-30.412 860.51,-23.2607"/>
<polygon fill="midnightblue" stroke="midnightblue" points="861.556,-26.606 870.38,-20.7419 859.825,-19.8234 861.556,-26.606"/>
</g>
<!-- Node38&#45;&gt;Node8 -->
<g id="edge75" class="edge"><title>Node38&#45;&gt;Node8</title>
<path fill="none" stroke="midnightblue" d="M598.736,-179.399C564.692,-168.794 518.743,-154.48 487.607,-144.781"/>
<polygon fill="midnightblue" stroke="midnightblue" points="488.641,-141.437 478.053,-141.804 486.559,-148.12 488.641,-141.437"/>
</g>
<!-- Node38&#45;&gt;Node9 -->
<g id="edge74" class="edge"><title>Node38&#45;&gt;Node9</title>
<path fill="none" stroke="midnightblue" d="M718.889,-181.136C723.325,-180.411 727.721,-179.695 732,-179 828.839,-163.275 856.162,-163.595 955.814,-143.096"/>
<polygon fill="midnightblue" stroke="midnightblue" points="956.608,-146.505 965.688,-141.046 955.185,-139.652 956.608,-146.505"/>
</g>
<!-- Node38&#45;&gt;Node17 -->
<g id="edge77" class="edge"><title>Node38&#45;&gt;Node17</title>
<path fill="none" stroke="midnightblue" d="M704.109,-179.475C749.542,-168.874 810.997,-154.534 852.662,-144.812"/>
<polygon fill="midnightblue" stroke="midnightblue" points="853.601,-148.187 862.544,-142.506 852.01,-141.37 853.601,-148.187"/>
</g>
<!-- Node38&#45;&gt;Node24 -->
<g id="edge79" class="edge"><title>Node38&#45;&gt;Node24</title>
<path fill="none" stroke="midnightblue" d="M674.249,-179.494C712.249,-162.651 779.895,-135.135 841,-123 1165.28,-58.6014 1253.99,-106.968 1584,-87 1596.33,-86.2542 1609.33,-85.3923 1622.11,-84.5035"/>
<polygon fill="midnightblue" stroke="midnightblue" points="1622.55,-87.9809 1632.28,-83.7865 1622.06,-80.9982 1622.55,-87.9809"/>
</g>
<!-- Node38&#45;&gt;Node29 -->
<g id="edge80" class="edge"><title>Node38&#45;&gt;Node29</title>
<path fill="none" stroke="midnightblue" d="M718.638,-184.689C811.531,-173.722 969.643,-155.056 1065.89,-143.694"/>
<polygon fill="midnightblue" stroke="midnightblue" points="1066.34,-147.164 1075.86,-142.516 1065.52,-140.213 1066.34,-147.164"/>
</g>
<!-- Node39 -->
<g id="node39" class="node"><title>Node39</title>
<polygon fill="none" stroke="#bfbfbf" points="496.5,-123.5 496.5,-142.5 565.5,-142.5 565.5,-123.5 496.5,-123.5"/>
<text text-anchor="middle" x="531" y="-130.5" font-family="Helvetica,sans-Serif" font-size="10.00">TObjArray.h</text>
</g>
<!-- Node38&#45;&gt;Node39 -->
<g id="edge76" class="edge"><title>Node38&#45;&gt;Node39</title>
<path fill="none" stroke="midnightblue" d="M617.221,-179.399C598.938,-169.773 574.852,-157.09 556.785,-147.577"/>
<polygon fill="midnightblue" stroke="midnightblue" points="557.922,-144.22 547.443,-142.658 554.66,-150.414 557.922,-144.22"/>
</g>
<!-- Node40 -->
<g id="node40" class="node"><title>Node40</title>
<polygon fill="none" stroke="#bfbfbf" points="584,-123.5 584,-142.5 718,-142.5 718,-123.5 584,-123.5"/>
<text text-anchor="middle" x="651" y="-130.5" font-family="Helvetica,sans-Serif" font-size="10.00">Framework/DataRefUtils.h</text>
</g>
<!-- Node38&#45;&gt;Node40 -->
<g id="edge78" class="edge"><title>Node38&#45;&gt;Node40</title>
<path fill="none" stroke="midnightblue" d="M645.659,-179.399C646.592,-171.466 647.77,-161.458 648.781,-152.858"/>
<polygon fill="midnightblue" stroke="midnightblue" points="652.289,-152.998 649.981,-142.658 645.337,-152.18 652.289,-152.998"/>
</g>
<!-- Node41&#45;&gt;Node20 -->
<g id="edge82" class="edge"><title>Node41&#45;&gt;Node20</title>
<path fill="none" stroke="midnightblue" d="M1574.09,-246.696C1576.76,-246.453 1579.4,-246.219 1582,-246 1648,-240.428 2118.3,-240.671 2177,-210 2201.39,-197.257 2219.12,-169.738 2228.74,-151.549"/>
<polygon fill="midnightblue" stroke="midnightblue" points="2231.89,-153.066 2233.23,-142.557 2225.63,-149.934 2231.89,-153.066"/>
</g>
</g>
</svg>
