<?xml version="1.0" encoding="UTF-8" standalone="no"?>
<!DOCTYPE svg PUBLIC "-//W3C//DTD SVG 1.1//EN"
 "http://www.w3.org/Graphics/SVG/1.1/DTD/svg11.dtd">
<!-- Generated by graphviz version 2.38.0 (20140413.2041)
 -->
<!-- Title: Modules/Skeleton/src/SkeletonTask.cxx Pages: 1 -->
<!--zoomable 319 -->
<svg id="main" version="1.1" xmlns="http://www.w3.org/2000/svg" xmlns:xlink="http://www.w3.org/1999/xlink" xml:space="preserve" onload="init(evt)">
<style type="text/css"><![CDATA[
.edge:hover path { stroke: red; }
.edge:hover polygon { stroke: red; fill: red; }
]]></style>
<script type="text/javascript"><![CDATA[
var edges = document.getElementsByTagName('g');
if (edges && edges.length) {
  for (var i=0;i<edges.length;i++) {
    if (edges[i].id.substr(0,4)=='edge') {
      edges[i].setAttribute('class','edge');
    }
  }
}
]]></script>
        <defs>
                <circle id="rim" cx="0" cy="0" r="7"/>
                <circle id="rim2" cx="0" cy="0" r="3.5"/>
                <g id="zoomPlus">
                        <use xlink:href="#rim" fill="#404040">
                                <set attributeName="fill" to="#808080" begin="zoomplus.mouseover" end="zoomplus.mouseout"/>
                        </use>
                        <path d="M-4,0h8M0,-4v8" fill="none" stroke="white" stroke-width="1.5" pointer-events="none"/>
                </g>
                <g id="zoomMin">
                        <use xlink:href="#rim" fill="#404040">
                                <set attributeName="fill" to="#808080" begin="zoomminus.mouseover" end="zoomminus.mouseout"/>
                        </use>
                        <path d="M-4,0h8" fill="none" stroke="white" stroke-width="1.5" pointer-events="none"/>
                </g>
                <g id="dirArrow">
                        <path fill="none" stroke="white" stroke-width="1.5" d="M0,-3.0v7 M-2.5,-0.5L0,-3.0L2.5,-0.5"/>
                </g>
               <g id="resetDef">
                       <use xlink:href="#rim2" fill="#404040">
                               <set attributeName="fill" to="#808080" begin="reset.mouseover" end="reset.mouseout"/>
                       </use>
               </g>
        </defs>

<script type="text/javascript">
var viewWidth = 1055;
var viewHeight = 319;
var sectionId = 'dynsection-0';
</script>
<script xlink:href="svgpan.js"/>
<svg id="graph" class="graph">
<g id="viewport">
<title>Modules/Skeleton/src/SkeletonTask.cxx</title>
<!-- Node1 -->
<g id="node1" class="node"><title>Node1</title>
<polygon fill="#bfbfbf" stroke="black" points="107,-280.5 107,-310.5 218,-310.5 218,-280.5 107,-280.5"/>
<text text-anchor="start" x="115" y="-298.5" font-family="Helvetica,sans-Serif" font-size="10.00">Modules/Skeleton/src</text>
<text text-anchor="middle" x="162.5" y="-287.5" font-family="Helvetica,sans-Serif" font-size="10.00">/SkeletonTask.cxx</text>
</g>
<!-- Node2 -->
<g id="node2" class="node"><title>Node2</title>
<polygon fill="none" stroke="#bfbfbf" points="0,-224.5 0,-243.5 65,-243.5 65,-224.5 0,-224.5"/>
<text text-anchor="middle" x="32.5" y="-231.5" font-family="Helvetica,sans-Serif" font-size="10.00">TCanvas.h</text>
</g>
<!-- Node1&#45;&gt;Node2 -->
<g id="edge1" class="edge"><title>Node1&#45;&gt;Node2</title>
<path fill="none" stroke="midnightblue" d="M131.692,-280.399C110.172,-270.55 81.6627,-257.501 60.7323,-247.922"/>
<polygon fill="midnightblue" stroke="midnightblue" points="61.9656,-244.637 51.4162,-243.658 59.0524,-251.002 61.9656,-244.637"/>
</g>
<!-- Node3 -->
<g id="node3" class="node"><title>Node3</title>
<polygon fill="none" stroke="#bfbfbf" points="83.5,-224.5 83.5,-243.5 127.5,-243.5 127.5,-224.5 83.5,-224.5"/>
<text text-anchor="middle" x="105.5" y="-231.5" font-family="Helvetica,sans-Serif" font-size="10.00">TH1.h</text>
</g>
<!-- Node1&#45;&gt;Node3 -->
<g id="edge2" class="edge"><title>Node1&#45;&gt;Node3</title>
<path fill="none" stroke="midnightblue" d="M148.992,-280.399C140.538,-271.575 129.625,-260.183 120.845,-251.018"/>
<polygon fill="midnightblue" stroke="midnightblue" points="123.239,-248.458 113.794,-243.658 118.184,-253.3 123.239,-248.458"/>
</g>
<!-- Node4 -->
<g id="node4" class="node"><title>Node4</title>
<g id="a_node4"><a xlink:href="QcInfoLogger_8h.html" target="_top" xlink:title="QualityControl/QcInfoLogger.h">
<polygon fill="none" stroke="black" points="145,-224.5 145,-243.5 294,-243.5 294,-224.5 145,-224.5"/>
<text text-anchor="middle" x="219.5" y="-231.5" font-family="Helvetica,sans-Serif" font-size="10.00">QualityControl/QcInfoLogger.h</text>
</a>
</g>
</g>
<!-- Node1&#45;&gt;Node4 -->
<g id="edge3" class="edge"><title>Node1&#45;&gt;Node4</title>
<path fill="none" stroke="midnightblue" d="M176.008,-280.399C184.462,-271.575 195.375,-260.183 204.155,-251.018"/>
<polygon fill="midnightblue" stroke="midnightblue" points="206.816,-253.3 211.206,-243.658 201.761,-248.458 206.816,-253.3"/>
</g>
<!-- Node6 -->
<g id="node6" class="node"><title>Node6</title>
<g id="a_node6"><a xlink:href="SkeletonTask_8h.html" target="_top" xlink:title="Skeleton/SkeletonTask.h">
<polygon fill="none" stroke="black" points="312.5,-224.5 312.5,-243.5 438.5,-243.5 438.5,-224.5 312.5,-224.5"/>
<text text-anchor="middle" x="375.5" y="-231.5" font-family="Helvetica,sans-Serif" font-size="10.00">Skeleton/SkeletonTask.h</text>
</a>
</g>
</g>
<!-- Node1&#45;&gt;Node6 -->
<g id="edge5" class="edge"><title>Node1&#45;&gt;Node6</title>
<path fill="none" stroke="midnightblue" d="M212.708,-280.475C250.097,-270.03 300.475,-255.958 335.238,-246.247"/>
<polygon fill="midnightblue" stroke="midnightblue" points="336.359,-249.568 345.049,-243.506 334.476,-242.826 336.359,-249.568"/>
</g>
<!-- Node5 -->
<g id="node5" class="node"><title>Node5</title>
<polygon fill="none" stroke="#bfbfbf" points="153.5,-168.5 153.5,-187.5 283.5,-187.5 283.5,-168.5 153.5,-168.5"/>
<text text-anchor="middle" x="218.5" y="-175.5" font-family="Helvetica,sans-Serif" font-size="10.00">InfoLogger/InfoLogger.hxx</text>
</g>
<!-- Node4&#45;&gt;Node5 -->
<g id="edge4" class="edge"><title>Node4&#45;&gt;Node5</title>
<path fill="none" stroke="midnightblue" d="M219.335,-224.083C219.204,-217.006 219.016,-206.861 218.852,-197.986"/>
<polygon fill="midnightblue" stroke="midnightblue" points="222.347,-197.685 218.662,-187.751 215.348,-197.814 222.347,-197.685"/>
</g>
<!-- Node7 -->
<g id="node7" class="node"><title>Node7</title>
<g id="a_node7"><a xlink:href="TaskInterface_8h.html" target="_top" xlink:title="QualityControl/TaskInterface.h">
<polygon fill="none" stroke="black" points="301.5,-168.5 301.5,-187.5 451.5,-187.5 451.5,-168.5 301.5,-168.5"/>
<text text-anchor="middle" x="376.5" y="-175.5" font-family="Helvetica,sans-Serif" font-size="10.00">QualityControl/TaskInterface.h</text>
</a>
</g>
</g>
<!-- Node6&#45;&gt;Node7 -->
<g id="edge6" class="edge"><title>Node6&#45;&gt;Node7</title>
<path fill="none" stroke="midnightblue" d="M375.665,-224.083C375.796,-217.006 375.984,-206.861 376.148,-197.986"/>
<polygon fill="midnightblue" stroke="midnightblue" points="379.652,-197.814 376.338,-187.751 372.653,-197.685 379.652,-197.814"/>
</g>
<!-- Node8 -->
<g id="node8" class="node"><title>Node8</title>
<polygon fill="none" stroke="#bfbfbf" points="509,-0.5 509,-19.5 544,-19.5 544,-0.5 509,-0.5"/>
<text text-anchor="middle" x="526.5" y="-7.5" font-family="Helvetica,sans-Serif" font-size="10.00">map</text>
</g>
<!-- Node7&#45;&gt;Node8 -->
<g id="edge7" class="edge"><title>Node7&#45;&gt;Node8</title>
<path fill="none" stroke="midnightblue" d="M333.433,-168.486C313.104,-162.074 290.677,-150.991 278.5,-132 260.268,-103.565 256.852,-81.9291 278.5,-56 306.353,-22.6382 440.293,-13.9562 498.92,-11.7405"/>
<polygon fill="midnightblue" stroke="midnightblue" points="499.073,-15.2374 508.948,-11.3975 498.834,-8.24147 499.073,-15.2374"/>
</g>
<!-- Node9 -->
<g id="node9" class="node"><title>Node9</title>
<polygon fill="none" stroke="#bfbfbf" points="371.5,-56.5 371.5,-75.5 423.5,-75.5 423.5,-56.5 371.5,-56.5"/>
<text text-anchor="middle" x="397.5" y="-63.5" font-family="Helvetica,sans-Serif" font-size="10.00">memory</text>
</g>
<!-- Node7&#45;&gt;Node9 -->
<g id="edge8" class="edge"><title>Node7&#45;&gt;Node9</title>
<path fill="none" stroke="midnightblue" d="M368.1,-168.133C357.284,-155.587 340.853,-131.958 349.5,-112 354.768,-99.8399 365.12,-89.4594 374.865,-81.7429"/>
<polygon fill="midnightblue" stroke="midnightblue" points="377.144,-84.4116 383.13,-75.6698 372.999,-78.7707 377.144,-84.4116"/>
</g>
<!-- Node10 -->
<g id="node10" class="node"><title>Node10</title>
<polygon fill="none" stroke="#bfbfbf" points="639,-0.5 639,-19.5 680,-19.5 680,-0.5 639,-0.5"/>
<text text-anchor="middle" x="659.5" y="-7.5" font-family="Helvetica,sans-Serif" font-size="10.00">string</text>
</g>
<!-- Node7&#45;&gt;Node10 -->
<g id="edge9" class="edge"><title>Node7&#45;&gt;Node10</title>
<path fill="none" stroke="midnightblue" d="M367.48,-168.34C359.428,-159.932 348.202,-146.363 343.5,-132 332.668,-98.9107 335.804,-78.3509 362.5,-56 382.753,-39.0433 556.967,-20.7414 628.766,-13.8438"/>
<polygon fill="midnightblue" stroke="midnightblue" points="629.355,-17.3037 638.979,-12.8734 628.693,-10.3351 629.355,-17.3037"/>
</g>
<!-- Node11 -->
<g id="node11" class="node"><title>Node11</title>
<polygon fill="none" stroke="#bfbfbf" points="253,-0.5 253,-19.5 336,-19.5 336,-0.5 253,-0.5"/>
<text text-anchor="middle" x="294.5" y="-7.5" font-family="Helvetica,sans-Serif" font-size="10.00">unordered_map</text>
</g>
<!-- Node7&#45;&gt;Node11 -->
<g id="edge10" class="edge"><title>Node7&#45;&gt;Node11</title>
<path fill="none" stroke="midnightblue" d="M301.342,-169.312C278.048,-162.981 254.773,-151.756 240.5,-132 220.72,-104.62 226.173,-86.5888 240.5,-56 246.545,-43.0941 258.312,-32.5985 269.323,-24.9999"/>
<polygon fill="midnightblue" stroke="midnightblue" points="271.328,-27.8723 277.867,-19.5364 267.557,-21.9748 271.328,-27.8723"/>
</g>
<!-- Node12 -->
<g id="node12" class="node"><title>Node12</title>
<polygon fill="none" stroke="#bfbfbf" points="359,-112.5 359,-131.5 484,-131.5 484,-112.5 359,-112.5"/>
<text text-anchor="middle" x="421.5" y="-119.5" font-family="Helvetica,sans-Serif" font-size="10.00">Framework/InitContext.h</text>
</g>
<!-- Node7&#45;&gt;Node12 -->
<g id="edge11" class="edge"><title>Node7&#45;&gt;Node12</title>
<path fill="none" stroke="midnightblue" d="M383.931,-168.083C390.353,-160.377 399.806,-149.033 407.622,-139.653"/>
<polygon fill="midnightblue" stroke="midnightblue" points="410.494,-141.674 414.207,-131.751 405.117,-137.193 410.494,-141.674"/>
</g>
<!-- Node13 -->
<g id="node13" class="node"><title>Node13</title>
<polygon fill="none" stroke="#bfbfbf" points="502.5,-112.5 502.5,-131.5 662.5,-131.5 662.5,-112.5 502.5,-112.5"/>
<text text-anchor="middle" x="582.5" y="-119.5" font-family="Helvetica,sans-Serif" font-size="10.00">Framework/ProcessingContext.h</text>
</g>
<!-- Node7&#45;&gt;Node13 -->
<g id="edge12" class="edge"><title>Node7&#45;&gt;Node13</title>
<path fill="none" stroke="midnightblue" d="M409.141,-168.444C444.55,-159.162 501.209,-144.309 540.053,-134.127"/>
<polygon fill="midnightblue" stroke="midnightblue" points="541.226,-137.438 550.011,-131.516 539.451,-130.667 541.226,-137.438"/>
</g>
<!-- Node14 -->
<g id="node14" class="node"><title>Node14</title>
<g id="a_node14"><a xlink:href="Activity_8h.html" target="_top" xlink:title="QualityControl/Activity.h">
<polygon fill="none" stroke="black" points="681,-112.5 681,-131.5 804,-131.5 804,-112.5 681,-112.5"/>
<text text-anchor="middle" x="742.5" y="-119.5" font-family="Helvetica,sans-Serif" font-size="10.00">QualityControl/Activity.h</text>
</a>
</g>
</g>
<!-- Node7&#45;&gt;Node14 -->
<g id="edge13" class="edge"><title>Node7&#45;&gt;Node14</title>
<path fill="none" stroke="midnightblue" d="M434.494,-168.444C499.814,-158.806 605.837,-143.163 674.87,-132.978"/>
<polygon fill="midnightblue" stroke="midnightblue" points="675.396,-136.439 684.778,-131.516 674.374,-129.514 675.396,-136.439"/>
</g>
<!-- Node15 -->
<g id="node15" class="node"><title>Node15</title>
<g id="a_node15"><a xlink:href="ObjectsManager_8h.html" target="_top" xlink:title="QualityControl/ObjectsManager.h">
<polygon fill="none" stroke="black" points="822,-112.5 822,-131.5 983,-131.5 983,-112.5 822,-112.5"/>
<text text-anchor="middle" x="902.5" y="-119.5" font-family="Helvetica,sans-Serif" font-size="10.00">QualityControl/ObjectsManager.h</text>
</a>
</g>
</g>
<!-- Node7&#45;&gt;Node15 -->
<g id="edge14" class="edge"><title>Node7&#45;&gt;Node15</title>
<path fill="none" stroke="midnightblue" d="M451.583,-169.292C546.494,-159.548 709.749,-142.788 811.605,-132.331"/>
<polygon fill="midnightblue" stroke="midnightblue" points="811.981,-135.811 821.572,-131.308 811.266,-128.848 811.981,-135.811"/>
</g>
<!-- Node15&#45;&gt;Node9 -->
<g id="edge28" class="edge"><title>Node15&#45;&gt;Node9</title>
<path fill="none" stroke="midnightblue" d="M822.76,-112.473C711.706,-100.598 514.995,-79.5638 433.952,-70.8979"/>
<polygon fill="midnightblue" stroke="midnightblue" points="434.07,-67.3905 423.754,-69.8074 433.325,-74.3509 434.07,-67.3905"/>
</g>
<!-- Node15&#45;&gt;Node10 -->
<g id="edge27" class="edge"><title>Node15&#45;&gt;Node10</title>
<path fill="none" stroke="midnightblue" d="M844.815,-112.478C782.898,-102.844 691.725,-87.0663 679.5,-76 666.526,-64.2556 661.871,-44.3216 660.251,-29.6182"/>
<polygon fill="midnightblue" stroke="midnightblue" points="663.74,-29.3328 659.516,-19.6162 656.759,-29.8458 663.74,-29.3328"/>
</g>
<!-- Node16 -->
<g id="node16" class="node"><title>Node16</title>
<g id="a_node16"><a xlink:href="MonitorObject_8h.html" target="_top" xlink:title="QualityControl/MonitorObject.h">
<polygon fill="none" stroke="black" points="827,-56.5 827,-75.5 978,-75.5 978,-56.5 827,-56.5"/>
<text text-anchor="middle" x="902.5" y="-63.5" font-family="Helvetica,sans-Serif" font-size="10.00">QualityControl/MonitorObject.h</text>
</a>
</g>
</g>
<!-- Node15&#45;&gt;Node16 -->
<g id="edge15" class="edge"><title>Node15&#45;&gt;Node16</title>
<path fill="none" stroke="midnightblue" d="M902.5,-112.083C902.5,-105.006 902.5,-94.8611 902.5,-85.9865"/>
<polygon fill="midnightblue" stroke="midnightblue" points="906,-85.751 902.5,-75.7511 899,-85.7511 906,-85.751"/>
</g>
<!-- Node20 -->
<g id="node20" class="node"><title>Node20</title>
<g id="a_node20"><a xlink:href="Quality_8h.html" target="_top" xlink:title="QualityControl/Quality.h">
<polygon fill="none" stroke="black" points="688,-56.5 688,-75.5 809,-75.5 809,-56.5 688,-56.5"/>
<text text-anchor="middle" x="748.5" y="-63.5" font-family="Helvetica,sans-Serif" font-size="10.00">QualityControl/Quality.h</text>
</a>
</g>
</g>
<!-- Node15&#45;&gt;Node20 -->
<g id="edge21" class="edge"><title>Node15&#45;&gt;Node20</title>
<path fill="none" stroke="midnightblue" d="M878.098,-112.444C852.303,-103.399 811.423,-89.064 782.482,-78.9158"/>
<polygon fill="midnightblue" stroke="midnightblue" points="783.382,-75.5226 772.788,-75.5164 781.066,-82.1283 783.382,-75.5226"/>
</g>
<!-- Node21 -->
<g id="node21" class="node"><title>Node21</title>
<g id="a_node21"><a xlink:href="TaskConfig_8h.html" target="_top" xlink:title="QualityControl/TaskConfig.h">
<polygon fill="none" stroke="black" points="491.5,-56.5 491.5,-75.5 631.5,-75.5 631.5,-56.5 491.5,-56.5"/>
<text text-anchor="middle" x="561.5" y="-63.5" font-family="Helvetica,sans-Serif" font-size="10.00">QualityControl/TaskConfig.h</text>
</a>
</g>
</g>
<!-- Node15&#45;&gt;Node21 -->
<g id="edge24" class="edge"><title>Node15&#45;&gt;Node21</title>
<path fill="none" stroke="midnightblue" d="M848.468,-112.444C787.859,-102.846 689.638,-87.2916 625.303,-77.1037"/>
<polygon fill="midnightblue" stroke="midnightblue" points="625.704,-73.6237 615.28,-75.5164 624.609,-80.5375 625.704,-73.6237"/>
</g>
<!-- Node16&#45;&gt;Node8 -->
<g id="edge17" class="edge"><title>Node16&#45;&gt;Node8</title>
<path fill="none" stroke="midnightblue" d="M842.922,-56.4435C760.486,-44.6044 614.948,-23.7026 554.273,-14.9887"/>
<polygon fill="midnightblue" stroke="midnightblue" points="554.69,-11.5127 544.294,-13.5555 553.695,-18.4416 554.69,-11.5127"/>
</g>
<!-- Node16&#45;&gt;Node10 -->
<g id="edge16" class="edge"><title>Node16&#45;&gt;Node10</title>
<path fill="none" stroke="midnightblue" d="M863.996,-56.4435C815.801,-45.7335 734.232,-27.6072 690.083,-17.7961"/>
<polygon fill="midnightblue" stroke="midnightblue" points="690.743,-14.3576 680.222,-15.6049 689.225,-21.191 690.743,-14.3576"/>
</g>
<!-- Node17 -->
<g id="node17" class="node"><title>Node17</title>
<polygon fill="none" stroke="#bfbfbf" points="739.5,-0.5 739.5,-19.5 795.5,-19.5 795.5,-0.5 739.5,-0.5"/>
<text text-anchor="middle" x="767.5" y="-7.5" font-family="Helvetica,sans-Serif" font-size="10.00">Rtypes.h</text>
</g>
<!-- Node16&#45;&gt;Node17 -->
<g id="edge18" class="edge"><title>Node16&#45;&gt;Node17</title>
<path fill="none" stroke="midnightblue" d="M881.109,-56.4435C858.793,-47.5171 823.597,-33.4387 798.292,-23.3168"/>
<polygon fill="midnightblue" stroke="midnightblue" points="799.376,-19.9807 788.791,-19.5164 796.776,-26.4801 799.376,-19.9807"/>
</g>
<!-- Node18 -->
<g id="node18" class="node"><title>Node18</title>
<polygon fill="none" stroke="#bfbfbf" points="853,-0.5 853,-19.5 912,-19.5 912,-0.5 853,-0.5"/>
<text text-anchor="middle" x="882.5" y="-7.5" font-family="Helvetica,sans-Serif" font-size="10.00">TObject.h</text>
</g>
<!-- Node16&#45;&gt;Node18 -->
<g id="edge19" class="edge"><title>Node16&#45;&gt;Node18</title>
<path fill="none" stroke="midnightblue" d="M899.197,-56.083C896.518,-48.8486 892.651,-38.4087 889.314,-29.3968"/>
<polygon fill="midnightblue" stroke="midnightblue" points="892.496,-27.9129 885.741,-19.7511 885.932,-30.3442 892.496,-27.9129"/>
</g>
<!-- Node19 -->
<g id="node19" class="node"><title>Node19</title>
<polygon fill="none" stroke="#bfbfbf" points="930.5,-0.5 930.5,-19.5 1046.5,-19.5 1046.5,-0.5 930.5,-0.5"/>
<text text-anchor="middle" x="988.5" y="-7.5" font-family="Helvetica,sans-Serif" font-size="10.00">Common/Exceptions.h</text>
</g>
<!-- Node16&#45;&gt;Node19 -->
<g id="edge20" class="edge"><title>Node16&#45;&gt;Node19</title>
<path fill="none" stroke="midnightblue" d="M916.317,-56.324C929.733,-47.9002 950.324,-34.9709 966.086,-25.0741"/>
<polygon fill="midnightblue" stroke="midnightblue" points="968.109,-27.9364 974.717,-19.6545 964.387,-22.0081 968.109,-27.9364"/>
</g>
<!-- Node20&#45;&gt;Node10 -->
<g id="edge23" class="edge"><title>Node20&#45;&gt;Node10</title>
<path fill="none" stroke="midnightblue" d="M734.201,-56.324C720.317,-47.9002 699.008,-34.9709 682.696,-25.0741"/>
<polygon fill="midnightblue" stroke="midnightblue" points="684.129,-21.8495 673.764,-19.6545 680.498,-27.8341 684.129,-21.8495"/>
</g>
<!-- Node20&#45;&gt;Node17 -->
<g id="edge22" class="edge"><title>Node20&#45;&gt;Node17</title>
<path fill="none" stroke="midnightblue" d="M751.637,-56.083C754.183,-48.8486 757.856,-38.4087 761.027,-29.3968"/>
<polygon fill="midnightblue" stroke="midnightblue" points="764.403,-30.3459 764.421,-19.7511 757.8,-28.0225 764.403,-30.3459"/>
</g>
<!-- Node21&#45;&gt;Node10 -->
<g id="edge25" class="edge"><title>Node21&#45;&gt;Node10</title>
<path fill="none" stroke="midnightblue" d="M577.245,-56.324C592.819,-47.7428 616.877,-34.486 634.959,-24.5224"/>
<polygon fill="midnightblue" stroke="midnightblue" points="636.724,-27.546 643.794,-19.6545 633.346,-21.4152 636.724,-27.546"/>
</g>
<!-- Node21&#45;&gt;Node11 -->
<g id="edge26" class="edge"><title>Node21&#45;&gt;Node11</title>
<path fill="none" stroke="midnightblue" d="M519.193,-56.4435C472.283,-46.9561 396.596,-31.6487 346.206,-21.4574"/>
<polygon fill="midnightblue" stroke="midnightblue" points="346.665,-17.9794 336.169,-19.4275 345.277,-24.8405 346.665,-17.9794"/>
</g>
</g>
</svg>
        <g id="navigator" transform="translate(0 0)" fill="#404254">
                <rect fill="#f2f5e9" fill-opacity="0.5" stroke="#606060" stroke-width=".5" x="0" y="0" width="60" height="60"/>
                <use id="zoomplus" xlink:href="#zoomPlus" x="17" y="9" onmousedown="handleZoom(evt,'in')"/>
                <use id="zoomminus" xlink:href="#zoomMin" x="42" y="9" onmousedown="handleZoom(evt,'out')"/>
                <use id="reset" xlink:href="#resetDef" x="30" y="36" onmousedown="handleReset()"/>
                <g id="arrowUp" xlink:href="#dirArrow" transform="translate(30 24)" onmousedown="handlePan(0,-1)">
                  <use xlink:href="#rim" fill="#404040">
                        <set attributeName="fill" to="#808080" begin="arrowUp.mouseover" end="arrowUp.mouseout"/>
                  </use>
                  <path fill="none" stroke="white" stroke-width="1.5" d="M0,-3.0v7 M-2.5,-0.5L0,-3.0L2.5,-0.5"/>
                </g>
                <g id="arrowRight" xlink:href="#dirArrow" transform="rotate(90) translate(36 -43)" onmousedown="handlePan(1,0)">
                  <use xlink:href="#rim" fill="#404040">
                        <set attributeName="fill" to="#808080" begin="arrowRight.mouseover" end="arrowRight.mouseout"/>
                  </use>
                  <path fill="none" stroke="white" stroke-width="1.5" d="M0,-3.0v7 M-2.5,-0.5L0,-3.0L2.5,-0.5"/>
                </g>
                <g id="arrowDown" xlink:href="#dirArrow" transform="rotate(180) translate(-30 -48)" onmousedown="handlePan(0,1)">
                  <use xlink:href="#rim" fill="#404040">
                        <set attributeName="fill" to="#808080" begin="arrowDown.mouseover" end="arrowDown.mouseout"/>
                  </use>
                  <path fill="none" stroke="white" stroke-width="1.5" d="M0,-3.0v7 M-2.5,-0.5L0,-3.0L2.5,-0.5"/>
                </g>
                <g id="arrowLeft" xlink:href="#dirArrow" transform="rotate(270) translate(-36 17)" onmousedown="handlePan(-1,0)">
                  <use xlink:href="#rim" fill="#404040">
                        <set attributeName="fill" to="#808080" begin="arrowLeft.mouseover" end="arrowLeft.mouseout"/>
                  </use>
                  <path fill="none" stroke="white" stroke-width="1.5" d="M0,-3.0v7 M-2.5,-0.5L0,-3.0L2.5,-0.5"/>
                </g>
        </g>
        <svg viewBox="0 0 15 15" width="100%" height="30px" preserveAspectRatio="xMaxYMin meet">
         <g id="arrow_out" transform="scale(0.3 0.3)">
          <a xlink:href="SkeletonTask_8cxx__incl_org.svg" target="_base">
           <rect id="button" ry="5" rx="5" y="6" x="6" height="38" width="38"
                fill="#f2f5e9" fill-opacity="0.5" stroke="#606060" stroke-width="1.0"/>
           <path id="arrow"
             d="M 11.500037,31.436501 C 11.940474,20.09759 22.043105,11.32322 32.158766,21.979434 L 37.068811,17.246167 C 37.068811,17.246167 37.088388,32 37.088388,32 L 22.160133,31.978069 C 22.160133,31.978069 26.997745,27.140456 26.997745,27.140456 C 18.528582,18.264221 13.291696,25.230495 11.500037,31.436501 z"
             style="fill:#404040;"/>
          </a>
         </g>
        </svg>
</svg>
