<?xml version="1.0" encoding="UTF-8" standalone="no"?>
<!DOCTYPE svg PUBLIC "-//W3C//DTD SVG 1.1//EN"
 "http://www.w3.org/Graphics/SVG/1.1/DTD/svg11.dtd">
<!-- Generated by graphviz version 2.38.0 (20140413.2041)
 -->
<!-- Title: Framework/src/TaskRunner.cxx Pages: 1 -->
<!--zoomable 319 -->
<svg id="main" version="1.1" xmlns="http://www.w3.org/2000/svg" xmlns:xlink="http://www.w3.org/1999/xlink" xml:space="preserve" onload="init(evt)">
<style type="text/css"><![CDATA[
.edge:hover path { stroke: red; }
.edge:hover polygon { stroke: red; fill: red; }
]]></style>
<script type="text/javascript"><![CDATA[
var edges = document.getElementsByTagName('g');
if (edges && edges.length) {
  for (var i=0;i<edges.length;i++) {
    if (edges[i].id.substr(0,4)=='edge') {
      edges[i].setAttribute('class','edge');
    }
  }
}
]]></script>
        <defs>
                <circle id="rim" cx="0" cy="0" r="7"/>
                <circle id="rim2" cx="0" cy="0" r="3.5"/>
                <g id="zoomPlus">
                        <use xlink:href="#rim" fill="#404040">
                                <set attributeName="fill" to="#808080" begin="zoomplus.mouseover" end="zoomplus.mouseout"/>
                        </use>
                        <path d="M-4,0h8M0,-4v8" fill="none" stroke="white" stroke-width="1.5" pointer-events="none"/>
                </g>
                <g id="zoomMin">
                        <use xlink:href="#rim" fill="#404040">
                                <set attributeName="fill" to="#808080" begin="zoomminus.mouseover" end="zoomminus.mouseout"/>
                        </use>
                        <path d="M-4,0h8" fill="none" stroke="white" stroke-width="1.5" pointer-events="none"/>
                </g>
                <g id="dirArrow">
                        <path fill="none" stroke="white" stroke-width="1.5" d="M0,-3.0v7 M-2.5,-0.5L0,-3.0L2.5,-0.5"/>
                </g>
               <g id="resetDef">
                       <use xlink:href="#rim2" fill="#404040">
                               <set attributeName="fill" to="#808080" begin="reset.mouseover" end="reset.mouseout"/>
                       </use>
               </g>
        </defs>

<script type="text/javascript">
var viewWidth = 3316;
var viewHeight = 319;
var sectionId = 'dynsection-0';
</script>
<script xlink:href="svgpan.js"/>
<svg id="graph" class="graph">
<g id="viewport">
<title>Framework/src/TaskRunner.cxx</title>
<!-- Node1 -->
<g id="node1" class="node"><title>Node1</title>
<polygon fill="#bfbfbf" stroke="black" points="2109.5,-291.5 2109.5,-310.5 2266.5,-310.5 2266.5,-291.5 2109.5,-291.5"/>
<text text-anchor="middle" x="2188" y="-298.5" font-family="Helvetica,sans-Serif" font-size="10.00">Framework/src/TaskRunner.cxx</text>
</g>
<!-- Node2 -->
<g id="node2" class="node"><title>Node2</title>
<g id="a_node2"><a xlink:href="TaskRunner_8h.html" target="_top" xlink:title="QualityControl/TaskRunner.h">
<polygon fill="none" stroke="black" points="673.5,-230 673.5,-249 816.5,-249 816.5,-230 673.5,-230"/>
<text text-anchor="middle" x="745" y="-237" font-family="Helvetica,sans-Serif" font-size="10.00">QualityControl/TaskRunner.h</text>
</a>
</g>
</g>
<!-- Node1&#45;&gt;Node2 -->
<g id="edge1" class="edge"><title>Node1&#45;&gt;Node2</title>
<path fill="none" stroke="midnightblue" d="M2109.39,-296.759C1859.09,-286.438 1082.15,-254.402 827.062,-243.884"/>
<polygon fill="midnightblue" stroke="midnightblue" points="826.894,-240.374 816.758,-243.459 826.605,-247.368 826.894,-240.374"/>
</g>
<!-- Node10 -->
<g id="node10" class="node"><title>Node10</title>
<polygon fill="none" stroke="#bfbfbf" points="1116.5,-0.5 1116.5,-19.5 1157.5,-19.5 1157.5,-0.5 1116.5,-0.5"/>
<text text-anchor="middle" x="1137" y="-7.5" font-family="Helvetica,sans-Serif" font-size="10.00">string</text>
</g>
<!-- Node1&#45;&gt;Node10 -->
<g id="edge48" class="edge"><title>Node1&#45;&gt;Node10</title>
<path fill="none" stroke="midnightblue" d="M2109.48,-299.847C1718.46,-298.583 0,-286.891 0,-179 0,-179 0,-179 0,-121 0,-6.57806 924.054,-9.0618 1106.08,-10.6611"/>
<polygon fill="midnightblue" stroke="midnightblue" points="1106.26,-14.1628 1116.29,-10.757 1106.33,-7.16315 1106.26,-14.1628"/>
</g>
<!-- Node14 -->
<g id="node14" class="node"><title>Node14</title>
<polygon fill="none" stroke="#bfbfbf" points="1737,-56.5 1737,-75.5 1789,-75.5 1789,-56.5 1737,-56.5"/>
<text text-anchor="middle" x="1763" y="-63.5" font-family="Helvetica,sans-Serif" font-size="10.00">memory</text>
</g>
<!-- Node1&#45;&gt;Node14 -->
<g id="edge32" class="edge"><title>Node1&#45;&gt;Node14</title>
<path fill="none" stroke="midnightblue" d="M2109.48,-299.1C2018.94,-296.521 1877.25,-287.264 1836,-255 1781.76,-212.578 1767.78,-124.391 1764.21,-85.7848"/>
<polygon fill="midnightblue" stroke="midnightblue" points="1767.67,-85.1966 1763.4,-75.501 1760.69,-85.7441 1767.67,-85.1966"/>
</g>
<!-- Node22 -->
<g id="node22" class="node"><title>Node22</title>
<polygon fill="none" stroke="#bfbfbf" points="1753,-0.5 1753,-19.5 1869,-19.5 1869,-0.5 1753,-0.5"/>
<text text-anchor="middle" x="1811" y="-7.5" font-family="Helvetica,sans-Serif" font-size="10.00">Common/Exceptions.h</text>
</g>
<!-- Node1&#45;&gt;Node22 -->
<g id="edge33" class="edge"><title>Node1&#45;&gt;Node22</title>
<path fill="none" stroke="midnightblue" d="M2109.48,-298.715C2026.64,-295.702 1903.4,-285.967 1869,-255 1843.12,-231.704 1850,-213.817 1850,-179 1850,-179 1850,-179 1850,-121 1850,-86.7161 1832.96,-49.6981 1821.41,-28.5372"/>
<polygon fill="midnightblue" stroke="midnightblue" points="1824.4,-26.7198 1816.42,-19.7504 1818.31,-30.175 1824.4,-26.7198"/>
</g>
<!-- Node24 -->
<g id="node24" class="node"><title>Node24</title>
<polygon fill="none" stroke="#bfbfbf" points="1878.5,-224.5 1878.5,-254.5 2013.5,-254.5 2013.5,-224.5 1878.5,-224.5"/>
<text text-anchor="start" x="1886.5" y="-242.5" font-family="Helvetica,sans-Serif" font-size="10.00">Configuration/Configuration</text>
<text text-anchor="middle" x="1946" y="-231.5" font-family="Helvetica,sans-Serif" font-size="10.00">Factory.h</text>
</g>
<!-- Node1&#45;&gt;Node24 -->
<g id="edge34" class="edge"><title>Node1&#45;&gt;Node24</title>
<path fill="none" stroke="midnightblue" d="M2153.33,-291.475C2116.8,-282.494 2058.37,-268.128 2012.84,-256.933"/>
<polygon fill="midnightblue" stroke="midnightblue" points="2013.58,-253.512 2003.03,-254.523 2011.91,-260.309 2013.58,-253.512"/>
</g>
<!-- Node25 -->
<g id="node25" class="node"><title>Node25</title>
<polygon fill="none" stroke="#bfbfbf" points="2031.5,-230 2031.5,-249 2182.5,-249 2182.5,-230 2031.5,-230"/>
<text text-anchor="middle" x="2107" y="-237" font-family="Helvetica,sans-Serif" font-size="10.00">Monitoring/MonitoringFactory.h</text>
</g>
<!-- Node1&#45;&gt;Node25 -->
<g id="edge35" class="edge"><title>Node1&#45;&gt;Node25</title>
<path fill="none" stroke="midnightblue" d="M2176.39,-291.475C2163.52,-282.02 2142.53,-266.596 2126.99,-255.187"/>
<polygon fill="midnightblue" stroke="midnightblue" points="2128.72,-252.108 2118.58,-249.009 2124.57,-257.75 2128.72,-252.108"/>
</g>
<!-- Node26 -->
<g id="node26" class="node"><title>Node26</title>
<polygon fill="none" stroke="#bfbfbf" points="2201,-230 2201,-249 2339,-249 2339,-230 2201,-230"/>
<text text-anchor="middle" x="2270" y="-237" font-family="Helvetica,sans-Serif" font-size="10.00">Framework/DataSampling.h</text>
</g>
<!-- Node1&#45;&gt;Node26 -->
<g id="edge36" class="edge"><title>Node1&#45;&gt;Node26</title>
<path fill="none" stroke="midnightblue" d="M2199.75,-291.475C2212.78,-282.02 2234.04,-266.596 2249.76,-255.187"/>
<polygon fill="midnightblue" stroke="midnightblue" points="2252.23,-257.715 2258.27,-249.009 2248.12,-252.049 2252.23,-257.715"/>
</g>
<!-- Node27 -->
<g id="node27" class="node"><title>Node27</title>
<polygon fill="none" stroke="#bfbfbf" points="2357,-230 2357,-249 2505,-249 2505,-230 2357,-230"/>
<text text-anchor="middle" x="2431" y="-237" font-family="Helvetica,sans-Serif" font-size="10.00">Framework/CallbackService.h</text>
</g>
<!-- Node1&#45;&gt;Node27 -->
<g id="edge37" class="edge"><title>Node1&#45;&gt;Node27</title>
<path fill="none" stroke="midnightblue" d="M2222.82,-291.475C2265.85,-280.937 2339.17,-262.986 2386.31,-251.441"/>
<polygon fill="midnightblue" stroke="midnightblue" points="2387.37,-254.787 2396.25,-249.009 2385.7,-247.988 2387.37,-254.787"/>
</g>
<!-- Node28 -->
<g id="node28" class="node"><title>Node28</title>
<polygon fill="none" stroke="#bfbfbf" points="2523.5,-224.5 2523.5,-254.5 2668.5,-254.5 2668.5,-224.5 2523.5,-224.5"/>
<text text-anchor="start" x="2531.5" y="-242.5" font-family="Helvetica,sans-Serif" font-size="10.00">Framework/CompletionPolicy</text>
<text text-anchor="middle" x="2596" y="-231.5" font-family="Helvetica,sans-Serif" font-size="10.00">Helpers.h</text>
</g>
<!-- Node1&#45;&gt;Node28 -->
<g id="edge38" class="edge"><title>Node1&#45;&gt;Node28</title>
<path fill="none" stroke="midnightblue" d="M2255.23,-291.476C2318.96,-283.222 2417.66,-269.998 2513.03,-255.116"/>
<polygon fill="midnightblue" stroke="midnightblue" points="2513.81,-258.538 2523.15,-253.53 2512.72,-251.622 2513.81,-258.538"/>
</g>
<!-- Node29 -->
<g id="node29" class="node"><title>Node29</title>
<polygon fill="none" stroke="#bfbfbf" points="2686.5,-230 2686.5,-249 2829.5,-249 2829.5,-230 2686.5,-230"/>
<text text-anchor="middle" x="2758" y="-237" font-family="Helvetica,sans-Serif" font-size="10.00">Framework/TimesliceIndex.h</text>
</g>
<!-- Node1&#45;&gt;Node29 -->
<g id="edge39" class="edge"><title>Node1&#45;&gt;Node29</title>
<path fill="none" stroke="midnightblue" d="M2266.57,-294.845C2363.38,-288.016 2532.74,-274.513 2677,-255 2685.85,-253.803 2695.2,-252.327 2704.29,-250.779"/>
<polygon fill="midnightblue" stroke="midnightblue" points="2705.14,-254.182 2714.39,-249.012 2703.94,-247.287 2705.14,-254.182"/>
</g>
<!-- Node30 -->
<g id="node30" class="node"><title>Node30</title>
<polygon fill="none" stroke="#bfbfbf" points="2848,-230 2848,-249 2988,-249 2988,-230 2848,-230"/>
<text text-anchor="middle" x="2918" y="-237" font-family="Helvetica,sans-Serif" font-size="10.00">Framework/DataSpecUtils.h</text>
</g>
<!-- Node1&#45;&gt;Node30 -->
<g id="edge40" class="edge"><title>Node1&#45;&gt;Node30</title>
<path fill="none" stroke="midnightblue" d="M2266.56,-297.356C2389.03,-292.605 2632.73,-280.629 2838,-255 2847.05,-253.87 2856.63,-252.386 2865.9,-250.8"/>
<polygon fill="midnightblue" stroke="midnightblue" points="2866.55,-254.239 2875.79,-249.05 2865.33,-247.346 2866.55,-254.239"/>
</g>
<!-- Node31 -->
<g id="node31" class="node"><title>Node31</title>
<polygon fill="none" stroke="#bfbfbf" points="3006,-224.5 3006,-254.5 3140,-254.5 3140,-224.5 3006,-224.5"/>
<text text-anchor="start" x="3014" y="-242.5" font-family="Helvetica,sans-Serif" font-size="10.00">Framework/DataDescriptor</text>
<text text-anchor="middle" x="3073" y="-231.5" font-family="Helvetica,sans-Serif" font-size="10.00">QueryBuilder.h</text>
</g>
<!-- Node1&#45;&gt;Node31 -->
<g id="edge41" class="edge"><title>Node1&#45;&gt;Node31</title>
<path fill="none" stroke="midnightblue" d="M2266.69,-299.091C2409.89,-296.678 2722.74,-287.906 2995.83,-255.025"/>
<polygon fill="midnightblue" stroke="midnightblue" points="2996.44,-258.478 3005.94,-253.795 2995.59,-251.529 2996.44,-258.478"/>
</g>
<!-- Node32 -->
<g id="node32" class="node"><title>Node32</title>
<g id="a_node32"><a xlink:href="QcInfoLogger_8h.html" target="_top" xlink:title="QualityControl/QcInfoLogger.h">
<polygon fill="none" stroke="black" points="3158.5,-230 3158.5,-249 3307.5,-249 3307.5,-230 3158.5,-230"/>
<text text-anchor="middle" x="3233" y="-237" font-family="Helvetica,sans-Serif" font-size="10.00">QualityControl/QcInfoLogger.h</text>
</a>
</g>
</g>
<!-- Node1&#45;&gt;Node32 -->
<g id="edge42" class="edge"><title>Node1&#45;&gt;Node32</title>
<path fill="none" stroke="midnightblue" d="M2266.73,-299.616C2431.14,-298.089 2822.74,-290.658 3149,-255 3158.93,-253.915 3169.46,-252.394 3179.59,-250.742"/>
<polygon fill="midnightblue" stroke="midnightblue" points="3180.27,-254.177 3189.55,-249.058 3179.1,-247.275 3180.27,-254.177"/>
</g>
<!-- Node34 -->
<g id="node34" class="node"><title>Node34</title>
<g id="a_node34"><a xlink:href="TaskFactory_8h.html" target="_top" xlink:title="QualityControl/TaskFactory.h">
<polygon fill="none" stroke="black" points="1518.5,-230 1518.5,-249 1663.5,-249 1663.5,-230 1518.5,-230"/>
<text text-anchor="middle" x="1591" y="-237" font-family="Helvetica,sans-Serif" font-size="10.00">QualityControl/TaskFactory.h</text>
</a>
</g>
</g>
<!-- Node1&#45;&gt;Node34 -->
<g id="edge44" class="edge"><title>Node1&#45;&gt;Node34</title>
<path fill="none" stroke="midnightblue" d="M2109.34,-292.16C1996.39,-280.903 1789.2,-260.254 1673.93,-248.765"/>
<polygon fill="midnightblue" stroke="midnightblue" points="1674.05,-245.26 1663.75,-247.751 1673.35,-252.225 1674.05,-245.26"/>
</g>
<!-- Node3 -->
<g id="node3" class="node"><title>Node3</title>
<polygon fill="none" stroke="#bfbfbf" points="822,-168.5 822,-187.5 914,-187.5 914,-168.5 822,-168.5"/>
<text text-anchor="middle" x="868" y="-175.5" font-family="Helvetica,sans-Serif" font-size="10.00">Common/Timer.h</text>
</g>
<!-- Node2&#45;&gt;Node3 -->
<g id="edge2" class="edge"><title>Node2&#45;&gt;Node3</title>
<path fill="none" stroke="midnightblue" d="M762.623,-229.975C783.174,-220.034 817.364,-203.495 841.207,-191.961"/>
<polygon fill="midnightblue" stroke="midnightblue" points="842.932,-195.015 850.41,-187.509 839.884,-188.713 842.932,-195.015"/>
</g>
<!-- Node4 -->
<g id="node4" class="node"><title>Node4</title>
<polygon fill="none" stroke="#bfbfbf" points="28,-168.5 28,-187.5 126,-187.5 126,-168.5 28,-168.5"/>
<text text-anchor="middle" x="77" y="-175.5" font-family="Helvetica,sans-Serif" font-size="10.00">Framework/Task.h</text>
</g>
<!-- Node2&#45;&gt;Node4 -->
<g id="edge3" class="edge"><title>Node2&#45;&gt;Node4</title>
<path fill="none" stroke="midnightblue" d="M673.461,-234.238C561.238,-227.185 336.773,-211.6 136.153,-188.056"/>
<polygon fill="midnightblue" stroke="midnightblue" points="136.356,-184.556 126.014,-186.857 135.534,-191.508 136.356,-184.556"/>
</g>
<!-- Node5 -->
<g id="node5" class="node"><title>Node5</title>
<polygon fill="none" stroke="#bfbfbf" points="144,-168.5 144,-187.5 308,-187.5 308,-168.5 144,-168.5"/>
<text text-anchor="middle" x="226" y="-175.5" font-family="Helvetica,sans-Serif" font-size="10.00">Framework/DataProcessorSpec.h</text>
</g>
<!-- Node2&#45;&gt;Node5 -->
<g id="edge4" class="edge"><title>Node2&#45;&gt;Node5</title>
<path fill="none" stroke="midnightblue" d="M673.38,-230.289C578.478,-219.409 411.32,-200.246 310.396,-188.676"/>
<polygon fill="midnightblue" stroke="midnightblue" points="310.572,-185.173 300.238,-187.511 309.775,-192.127 310.572,-185.173"/>
</g>
<!-- Node6 -->
<g id="node6" class="node"><title>Node6</title>
<polygon fill="none" stroke="#bfbfbf" points="326.5,-168.5 326.5,-187.5 479.5,-187.5 479.5,-168.5 326.5,-168.5"/>
<text text-anchor="middle" x="403" y="-175.5" font-family="Helvetica,sans-Serif" font-size="10.00">Framework/CompletionPolicy.h</text>
</g>
<!-- Node2&#45;&gt;Node6 -->
<g id="edge5" class="edge"><title>Node2&#45;&gt;Node6</title>
<path fill="none" stroke="midnightblue" d="M696,-229.975C634.16,-219.216 527.904,-200.73 461.766,-189.224"/>
<polygon fill="midnightblue" stroke="midnightblue" points="462.361,-185.775 451.909,-187.509 461.161,-192.671 462.361,-185.775"/>
</g>
<!-- Node7 -->
<g id="node7" class="node"><title>Node7</title>
<polygon fill="none" stroke="#bfbfbf" points="498,-168.5 498,-187.5 668,-187.5 668,-168.5 498,-168.5"/>
<text text-anchor="middle" x="583" y="-175.5" font-family="Helvetica,sans-Serif" font-size="10.00">Framework/EndOfStreamContext.h</text>
</g>
<!-- Node2&#45;&gt;Node7 -->
<g id="edge6" class="edge"><title>Node2&#45;&gt;Node7</title>
<path fill="none" stroke="midnightblue" d="M721.789,-229.975C694.001,-219.769 647.277,-202.608 615.806,-191.049"/>
<polygon fill="midnightblue" stroke="midnightblue" points="616.761,-187.671 606.168,-187.509 614.348,-194.242 616.761,-187.671"/>
</g>
<!-- Node8 -->
<g id="node8" class="node"><title>Node8</title>
<polygon fill="none" stroke="#bfbfbf" points="686.5,-168.5 686.5,-187.5 803.5,-187.5 803.5,-168.5 686.5,-168.5"/>
<text text-anchor="middle" x="745" y="-175.5" font-family="Helvetica,sans-Serif" font-size="10.00">Headers/DataHeader.h</text>
</g>
<!-- Node2&#45;&gt;Node8 -->
<g id="edge7" class="edge"><title>Node2&#45;&gt;Node8</title>
<path fill="none" stroke="midnightblue" d="M745,-229.975C745,-221.58 745,-208.481 745,-197.663"/>
<polygon fill="midnightblue" stroke="midnightblue" points="748.5,-197.509 745,-187.509 741.5,-197.509 748.5,-197.509"/>
</g>
<!-- Node9 -->
<g id="node9" class="node"><title>Node9</title>
<g id="a_node9"><a xlink:href="TaskConfig_8h.html" target="_top" xlink:title="QualityControl/TaskConfig.h">
<polygon fill="none" stroke="black" points="1018,-56.5 1018,-75.5 1158,-75.5 1158,-56.5 1018,-56.5"/>
<text text-anchor="middle" x="1088" y="-63.5" font-family="Helvetica,sans-Serif" font-size="10.00">QualityControl/TaskConfig.h</text>
</a>
</g>
</g>
<!-- Node2&#45;&gt;Node9 -->
<g id="edge8" class="edge"><title>Node2&#45;&gt;Node9</title>
<path fill="none" stroke="midnightblue" d="M816.674,-231.055C851.689,-224.406 892.695,-211.821 923,-188 953.512,-164.016 936.433,-137.139 966,-112 985.102,-95.7585 1010.59,-85.1396 1033.33,-78.3217"/>
<polygon fill="midnightblue" stroke="midnightblue" points="1034.54,-81.6178 1043.22,-75.5387 1032.64,-74.8797 1034.54,-81.6178"/>
</g>
<!-- Node12 -->
<g id="node12" class="node"><title>Node12</title>
<g id="a_node12"><a xlink:href="TaskInterface_8h.html" target="_top" xlink:title="QualityControl/TaskInterface.h">
<polygon fill="none" stroke="black" points="1397,-168.5 1397,-187.5 1547,-187.5 1547,-168.5 1397,-168.5"/>
<text text-anchor="middle" x="1472" y="-175.5" font-family="Helvetica,sans-Serif" font-size="10.00">QualityControl/TaskInterface.h</text>
</a>
</g>
</g>
<!-- Node2&#45;&gt;Node12 -->
<g id="edge11" class="edge"><title>Node2&#45;&gt;Node12</title>
<path fill="none" stroke="midnightblue" d="M816.697,-232.632C951.469,-221.602 1242,-197.824 1386.62,-185.988"/>
<polygon fill="midnightblue" stroke="midnightblue" points="1387.09,-189.461 1396.78,-185.157 1386.52,-182.484 1387.09,-189.461"/>
</g>
<!-- Node9&#45;&gt;Node10 -->
<g id="edge9" class="edge"><title>Node9&#45;&gt;Node10</title>
<path fill="none" stroke="midnightblue" d="M1096.09,-56.083C1103.16,-48.2982 1113.59,-36.8015 1122.15,-27.3665"/>
<polygon fill="midnightblue" stroke="midnightblue" points="1124.93,-29.5087 1129.06,-19.7511 1119.75,-24.8047 1124.93,-29.5087"/>
</g>
<!-- Node11 -->
<g id="node11" class="node"><title>Node11</title>
<polygon fill="none" stroke="#bfbfbf" points="1265.5,-0.5 1265.5,-19.5 1348.5,-19.5 1348.5,-0.5 1265.5,-0.5"/>
<text text-anchor="middle" x="1307" y="-7.5" font-family="Helvetica,sans-Serif" font-size="10.00">unordered_map</text>
</g>
<!-- Node9&#45;&gt;Node11 -->
<g id="edge10" class="edge"><title>Node9&#45;&gt;Node11</title>
<path fill="none" stroke="midnightblue" d="M1122.7,-56.4435C1160.58,-47.1024 1221.35,-32.1194 1262.66,-21.9326"/>
<polygon fill="midnightblue" stroke="midnightblue" points="1263.59,-25.3088 1272.46,-19.5164 1261.91,-18.5123 1263.59,-25.3088"/>
</g>
<!-- Node12&#45;&gt;Node10 -->
<g id="edge14" class="edge"><title>Node12&#45;&gt;Node10</title>
<path fill="none" stroke="midnightblue" d="M1396.9,-175.285C1270.21,-171.607 1025.21,-160.817 999,-132 986.353,-118.092 987.923,-80.7846 1009,-56 1033.19,-27.5525 1076.51,-17.081 1105.98,-13.2311"/>
<polygon fill="midnightblue" stroke="midnightblue" points="1106.61,-16.6831 1116.16,-12.0913 1105.83,-9.72662 1106.61,-16.6831"/>
</g>
<!-- Node12&#45;&gt;Node11 -->
<g id="edge15" class="edge"><title>Node12&#45;&gt;Node11</title>
<path fill="none" stroke="midnightblue" d="M1547.09,-172.367C1604.77,-165.82 1670.05,-150.035 1641,-112 1604.09,-63.6744 1567.29,-93.3178 1509,-76 1450.07,-58.4936 1382.15,-36.194 1341.99,-22.7869"/>
<polygon fill="midnightblue" stroke="midnightblue" points="1342.99,-19.4322 1332.4,-19.5783 1340.77,-26.0705 1342.99,-19.4322"/>
</g>
<!-- Node13 -->
<g id="node13" class="node"><title>Node13</title>
<polygon fill="none" stroke="#bfbfbf" points="1660.5,-0.5 1660.5,-19.5 1695.5,-19.5 1695.5,-0.5 1660.5,-0.5"/>
<text text-anchor="middle" x="1678" y="-7.5" font-family="Helvetica,sans-Serif" font-size="10.00">map</text>
</g>
<!-- Node12&#45;&gt;Node13 -->
<g id="edge12" class="edge"><title>Node12&#45;&gt;Node13</title>
<path fill="none" stroke="midnightblue" d="M1534.98,-168.473C1581.91,-160.929 1640.87,-148.548 1659,-132 1687.31,-106.157 1685.17,-56.7196 1681.43,-29.7251"/>
<polygon fill="midnightblue" stroke="midnightblue" points="1684.85,-28.9817 1679.81,-19.6644 1677.94,-30.0933 1684.85,-28.9817"/>
</g>
<!-- Node12&#45;&gt;Node14 -->
<g id="edge13" class="edge"><title>Node12&#45;&gt;Node14</title>
<path fill="none" stroke="midnightblue" d="M1547.18,-176.401C1597.11,-172.899 1662.35,-162.13 1712,-132 1730.71,-120.646 1745.23,-99.7367 1753.92,-84.6951"/>
<polygon fill="midnightblue" stroke="midnightblue" points="1757.04,-86.2718 1758.76,-75.8175 1750.9,-82.9176 1757.04,-86.2718"/>
</g>
<!-- Node15 -->
<g id="node15" class="node"><title>Node15</title>
<polygon fill="none" stroke="#bfbfbf" points="1328.5,-112.5 1328.5,-131.5 1453.5,-131.5 1453.5,-112.5 1328.5,-112.5"/>
<text text-anchor="middle" x="1391" y="-119.5" font-family="Helvetica,sans-Serif" font-size="10.00">Framework/InitContext.h</text>
</g>
<!-- Node12&#45;&gt;Node15 -->
<g id="edge16" class="edge"><title>Node12&#45;&gt;Node15</title>
<path fill="none" stroke="midnightblue" d="M1458.99,-168.324C1446.47,-159.979 1427.32,-147.212 1412.53,-137.352"/>
<polygon fill="midnightblue" stroke="midnightblue" points="1414.24,-134.289 1403.98,-131.655 1410.36,-140.114 1414.24,-134.289"/>
</g>
<!-- Node16 -->
<g id="node16" class="node"><title>Node16</title>
<polygon fill="none" stroke="#bfbfbf" points="1472,-112.5 1472,-131.5 1632,-131.5 1632,-112.5 1472,-112.5"/>
<text text-anchor="middle" x="1552" y="-119.5" font-family="Helvetica,sans-Serif" font-size="10.00">Framework/ProcessingContext.h</text>
</g>
<!-- Node12&#45;&gt;Node16 -->
<g id="edge17" class="edge"><title>Node12&#45;&gt;Node16</title>
<path fill="none" stroke="midnightblue" d="M1484.85,-168.324C1497.22,-159.979 1516.13,-147.212 1530.74,-137.352"/>
<polygon fill="midnightblue" stroke="midnightblue" points="1532.85,-140.15 1539.18,-131.655 1528.93,-134.348 1532.85,-140.15"/>
</g>
<!-- Node17 -->
<g id="node17" class="node"><title>Node17</title>
<g id="a_node17"><a xlink:href="Activity_8h.html" target="_top" xlink:title="QualityControl/Activity.h">
<polygon fill="none" stroke="black" points="1008.5,-112.5 1008.5,-131.5 1131.5,-131.5 1131.5,-112.5 1008.5,-112.5"/>
<text text-anchor="middle" x="1070" y="-119.5" font-family="Helvetica,sans-Serif" font-size="10.00">QualityControl/Activity.h</text>
</a>
</g>
</g>
<!-- Node12&#45;&gt;Node17 -->
<g id="edge18" class="edge"><title>Node12&#45;&gt;Node17</title>
<path fill="none" stroke="midnightblue" d="M1408.3,-168.444C1335.73,-158.695 1217.43,-142.803 1141.69,-132.63"/>
<polygon fill="midnightblue" stroke="midnightblue" points="1142.13,-129.157 1131.75,-131.295 1141.2,-136.095 1142.13,-129.157"/>
</g>
<!-- Node18 -->
<g id="node18" class="node"><title>Node18</title>
<g id="a_node18"><a xlink:href="ObjectsManager_8h.html" target="_top" xlink:title="QualityControl/ObjectsManager.h">
<polygon fill="none" stroke="black" points="1149.5,-112.5 1149.5,-131.5 1310.5,-131.5 1310.5,-112.5 1149.5,-112.5"/>
<text text-anchor="middle" x="1230" y="-119.5" font-family="Helvetica,sans-Serif" font-size="10.00">QualityControl/ObjectsManager.h</text>
</a>
</g>
</g>
<!-- Node12&#45;&gt;Node18 -->
<g id="edge19" class="edge"><title>Node12&#45;&gt;Node18</title>
<path fill="none" stroke="midnightblue" d="M1433.65,-168.444C1391.53,-159.043 1323.79,-143.929 1278.13,-133.739"/>
<polygon fill="midnightblue" stroke="midnightblue" points="1278.69,-130.278 1268.17,-131.516 1277.16,-137.11 1278.69,-130.278"/>
</g>
<!-- Node18&#45;&gt;Node9 -->
<g id="edge29" class="edge"><title>Node18&#45;&gt;Node9</title>
<path fill="none" stroke="midnightblue" d="M1207.5,-112.444C1183.92,-103.478 1146.68,-89.314 1120.04,-79.1827"/>
<polygon fill="midnightblue" stroke="midnightblue" points="1120.99,-75.7995 1110.4,-75.5164 1118.5,-82.3424 1120.99,-75.7995"/>
</g>
<!-- Node18&#45;&gt;Node10 -->
<g id="edge30" class="edge"><title>Node18&#45;&gt;Node10</title>
<path fill="none" stroke="midnightblue" d="M1222.7,-112.368C1207.22,-94.0547 1170.86,-51.0489 1150.83,-27.3624"/>
<polygon fill="midnightblue" stroke="midnightblue" points="1153.39,-24.9682 1144.26,-19.5914 1148.05,-29.4877 1153.39,-24.9682"/>
</g>
<!-- Node18&#45;&gt;Node14 -->
<g id="edge31" class="edge"><title>Node18&#45;&gt;Node14</title>
<path fill="none" stroke="midnightblue" d="M1310.53,-112.853C1313.39,-112.565 1316.22,-112.28 1319,-112 1478.55,-95.9333 1518.49,-92.4423 1678,-76 1694.07,-74.3434 1711.85,-72.468 1726.97,-70.8596"/>
<polygon fill="midnightblue" stroke="midnightblue" points="1727.39,-74.3347 1736.96,-69.7946 1726.65,-67.3741 1727.39,-74.3347"/>
</g>
<!-- Node19 -->
<g id="node19" class="node"><title>Node19</title>
<g id="a_node19"><a xlink:href="MonitorObject_8h.html" target="_top" xlink:title="QualityControl/MonitorObject.h">
<polygon fill="none" stroke="black" points="1518.5,-56.5 1518.5,-75.5 1669.5,-75.5 1669.5,-56.5 1518.5,-56.5"/>
<text text-anchor="middle" x="1594" y="-63.5" font-family="Helvetica,sans-Serif" font-size="10.00">QualityControl/MonitorObject.h</text>
</a>
</g>
</g>
<!-- Node18&#45;&gt;Node19 -->
<g id="edge20" class="edge"><title>Node18&#45;&gt;Node19</title>
<path fill="none" stroke="midnightblue" d="M1287.68,-112.444C1352.51,-102.826 1457.65,-87.2275 1526.32,-77.0409"/>
<polygon fill="midnightblue" stroke="midnightblue" points="1527.21,-80.4461 1536.59,-75.5164 1526.19,-73.5219 1527.21,-80.4461"/>
</g>
<!-- Node23 -->
<g id="node23" class="node"><title>Node23</title>
<g id="a_node23"><a xlink:href="Quality_8h.html" target="_top" xlink:title="QualityControl/Quality.h">
<polygon fill="none" stroke="black" points="1214.5,-56.5 1214.5,-75.5 1335.5,-75.5 1335.5,-56.5 1214.5,-56.5"/>
<text text-anchor="middle" x="1275" y="-63.5" font-family="Helvetica,sans-Serif" font-size="10.00">QualityControl/Quality.h</text>
</a>
</g>
</g>
<!-- Node18&#45;&gt;Node23 -->
<g id="edge26" class="edge"><title>Node18&#45;&gt;Node23</title>
<path fill="none" stroke="midnightblue" d="M1237.43,-112.083C1243.85,-104.377 1253.31,-93.0333 1261.12,-83.6531"/>
<polygon fill="midnightblue" stroke="midnightblue" points="1263.99,-85.674 1267.71,-75.7511 1258.62,-81.1927 1263.99,-85.674"/>
</g>
<!-- Node19&#45;&gt;Node10 -->
<g id="edge21" class="edge"><title>Node19&#45;&gt;Node10</title>
<path fill="none" stroke="midnightblue" d="M1521.84,-56.4733C1420.4,-44.4872 1239.99,-23.1696 1167.96,-14.658"/>
<polygon fill="midnightblue" stroke="midnightblue" points="1168.09,-11.1492 1157.75,-13.4514 1167.27,-18.1008 1168.09,-11.1492"/>
</g>
<!-- Node19&#45;&gt;Node13 -->
<g id="edge22" class="edge"><title>Node19&#45;&gt;Node13</title>
<path fill="none" stroke="midnightblue" d="M1607.5,-56.324C1620.6,-47.9002 1640.71,-34.9709 1656.11,-25.0741"/>
<polygon fill="midnightblue" stroke="midnightblue" points="1658.02,-28.0063 1664.54,-19.6545 1654.23,-22.118 1658.02,-28.0063"/>
</g>
<!-- Node20 -->
<g id="node20" class="node"><title>Node20</title>
<polygon fill="none" stroke="#bfbfbf" points="1449,-0.5 1449,-19.5 1505,-19.5 1505,-0.5 1449,-0.5"/>
<text text-anchor="middle" x="1477" y="-7.5" font-family="Helvetica,sans-Serif" font-size="10.00">Rtypes.h</text>
</g>
<!-- Node19&#45;&gt;Node20 -->
<g id="edge23" class="edge"><title>Node19&#45;&gt;Node20</title>
<path fill="none" stroke="midnightblue" d="M1575.46,-56.4435C1556.38,-47.6356 1526.43,-33.8116 1504.56,-23.722"/>
<polygon fill="midnightblue" stroke="midnightblue" points="1506,-20.5292 1495.45,-19.5164 1503.07,-26.8849 1506,-20.5292"/>
</g>
<!-- Node21 -->
<g id="node21" class="node"><title>Node21</title>
<polygon fill="none" stroke="#bfbfbf" points="1564.5,-0.5 1564.5,-19.5 1623.5,-19.5 1623.5,-0.5 1564.5,-0.5"/>
<text text-anchor="middle" x="1594" y="-7.5" font-family="Helvetica,sans-Serif" font-size="10.00">TObject.h</text>
</g>
<!-- Node19&#45;&gt;Node21 -->
<g id="edge24" class="edge"><title>Node19&#45;&gt;Node21</title>
<path fill="none" stroke="midnightblue" d="M1594,-56.083C1594,-49.0059 1594,-38.8611 1594,-29.9865"/>
<polygon fill="midnightblue" stroke="midnightblue" points="1597.5,-29.751 1594,-19.7511 1590.5,-29.7511 1597.5,-29.751"/>
</g>
<!-- Node19&#45;&gt;Node22 -->
<g id="edge25" class="edge"><title>Node19&#45;&gt;Node22</title>
<path fill="none" stroke="midnightblue" d="M1628.38,-56.4435C1665.92,-47.1024 1726.13,-32.1194 1767.07,-21.9326"/>
<polygon fill="midnightblue" stroke="midnightblue" points="1767.92,-25.3278 1776.78,-19.5164 1766.23,-18.5349 1767.92,-25.3278"/>
</g>
<!-- Node23&#45;&gt;Node10 -->
<g id="edge28" class="edge"><title>Node23&#45;&gt;Node10</title>
<path fill="none" stroke="midnightblue" d="M1253.13,-56.4435C1229.95,-47.3721 1193.17,-32.98 1167.22,-22.8268"/>
<polygon fill="midnightblue" stroke="midnightblue" points="1168.45,-19.5477 1157.86,-19.1629 1165.9,-26.0664 1168.45,-19.5477"/>
</g>
<!-- Node23&#45;&gt;Node20 -->
<g id="edge27" class="edge"><title>Node23&#45;&gt;Node20</title>
<path fill="none" stroke="midnightblue" d="M1307.01,-56.4435C1342.85,-46.8613 1400.9,-31.3424 1439.02,-21.1537"/>
<polygon fill="midnightblue" stroke="midnightblue" points="1439.97,-24.5219 1448.73,-18.558 1438.16,-17.7594 1439.97,-24.5219"/>
</g>
<!-- Node33 -->
<g id="node33" class="node"><title>Node33</title>
<polygon fill="none" stroke="#bfbfbf" points="3168,-168.5 3168,-187.5 3298,-187.5 3298,-168.5 3168,-168.5"/>
<text text-anchor="middle" x="3233" y="-175.5" font-family="Helvetica,sans-Serif" font-size="10.00">InfoLogger/InfoLogger.hxx</text>
</g>
<!-- Node32&#45;&gt;Node33 -->
<g id="edge43" class="edge"><title>Node32&#45;&gt;Node33</title>
<path fill="none" stroke="midnightblue" d="M3233,-229.975C3233,-221.58 3233,-208.481 3233,-197.663"/>
<polygon fill="midnightblue" stroke="midnightblue" points="3236.5,-197.509 3233,-187.509 3229.5,-197.509 3236.5,-197.509"/>
</g>
<!-- Node34&#45;&gt;Node9 -->
<g id="edge46" class="edge"><title>Node34&#45;&gt;Node9</title>
<path fill="none" stroke="midnightblue" d="M1518.41,-236.588C1375.2,-231.124 1064.48,-210.31 999,-132 980.036,-109.32 1016.39,-90.3381 1048.19,-78.853"/>
<polygon fill="midnightblue" stroke="midnightblue" points="1049.53,-82.0941 1057.85,-75.5335 1047.25,-75.4743 1049.53,-82.0941"/>
</g>
<!-- Node34&#45;&gt;Node12 -->
<g id="edge47" class="edge"><title>Node34&#45;&gt;Node12</title>
<path fill="none" stroke="midnightblue" d="M1573.95,-229.975C1554.16,-220.078 1521.28,-203.642 1498.23,-192.115"/>
<polygon fill="midnightblue" stroke="midnightblue" points="1499.53,-188.851 1489.02,-187.509 1496.4,-195.112 1499.53,-188.851"/>
</g>
<!-- Node34&#45;&gt;Node14 -->
<g id="edge45" class="edge"><title>Node34&#45;&gt;Node14</title>
<path fill="none" stroke="midnightblue" d="M1608.77,-229.808C1639.04,-214.18 1700.81,-178.577 1737,-132 1747.71,-118.217 1754.59,-99.4429 1758.56,-85.6147"/>
<polygon fill="midnightblue" stroke="midnightblue" points="1761.99,-86.336 1761.14,-75.7751 1755.22,-84.5592 1761.99,-86.336"/>
</g>
</g>
</svg>
        <g id="navigator" transform="translate(0 0)" fill="#404254">
                <rect fill="#f2f5e9" fill-opacity="0.5" stroke="#606060" stroke-width=".5" x="0" y="0" width="60" height="60"/>
                <use id="zoomplus" xlink:href="#zoomPlus" x="17" y="9" onmousedown="handleZoom(evt,'in')"/>
                <use id="zoomminus" xlink:href="#zoomMin" x="42" y="9" onmousedown="handleZoom(evt,'out')"/>
                <use id="reset" xlink:href="#resetDef" x="30" y="36" onmousedown="handleReset()"/>
                <g id="arrowUp" xlink:href="#dirArrow" transform="translate(30 24)" onmousedown="handlePan(0,-1)">
                  <use xlink:href="#rim" fill="#404040">
                        <set attributeName="fill" to="#808080" begin="arrowUp.mouseover" end="arrowUp.mouseout"/>
                  </use>
                  <path fill="none" stroke="white" stroke-width="1.5" d="M0,-3.0v7 M-2.5,-0.5L0,-3.0L2.5,-0.5"/>
                </g>
                <g id="arrowRight" xlink:href="#dirArrow" transform="rotate(90) translate(36 -43)" onmousedown="handlePan(1,0)">
                  <use xlink:href="#rim" fill="#404040">
                        <set attributeName="fill" to="#808080" begin="arrowRight.mouseover" end="arrowRight.mouseout"/>
                  </use>
                  <path fill="none" stroke="white" stroke-width="1.5" d="M0,-3.0v7 M-2.5,-0.5L0,-3.0L2.5,-0.5"/>
                </g>
                <g id="arrowDown" xlink:href="#dirArrow" transform="rotate(180) translate(-30 -48)" onmousedown="handlePan(0,1)">
                  <use xlink:href="#rim" fill="#404040">
                        <set attributeName="fill" to="#808080" begin="arrowDown.mouseover" end="arrowDown.mouseout"/>
                  </use>
                  <path fill="none" stroke="white" stroke-width="1.5" d="M0,-3.0v7 M-2.5,-0.5L0,-3.0L2.5,-0.5"/>
                </g>
                <g id="arrowLeft" xlink:href="#dirArrow" transform="rotate(270) translate(-36 17)" onmousedown="handlePan(-1,0)">
                  <use xlink:href="#rim" fill="#404040">
                        <set attributeName="fill" to="#808080" begin="arrowLeft.mouseover" end="arrowLeft.mouseout"/>
                  </use>
                  <path fill="none" stroke="white" stroke-width="1.5" d="M0,-3.0v7 M-2.5,-0.5L0,-3.0L2.5,-0.5"/>
                </g>
        </g>
        <svg viewBox="0 0 15 15" width="100%" height="30px" preserveAspectRatio="xMaxYMin meet">
         <g id="arrow_out" transform="scale(0.3 0.3)">
          <a xlink:href="TaskRunner_8cxx__incl_org.svg" target="_base">
           <rect id="button" ry="5" rx="5" y="6" x="6" height="38" width="38"
                fill="#f2f5e9" fill-opacity="0.5" stroke="#606060" stroke-width="1.0"/>
           <path id="arrow"
             d="M 11.500037,31.436501 C 11.940474,20.09759 22.043105,11.32322 32.158766,21.979434 L 37.068811,17.246167 C 37.068811,17.246167 37.088388,32 37.088388,32 L 22.160133,31.978069 C 22.160133,31.978069 26.997745,27.140456 26.997745,27.140456 C 18.528582,18.264221 13.291696,25.230495 11.500037,31.436501 z"
             style="fill:#404040;"/>
          </a>
         </g>
        </svg>
</svg>
