<?xml version="1.0" encoding="UTF-8" standalone="no"?>
<!DOCTYPE svg PUBLIC "-//W3C//DTD SVG 1.1//EN"
 "http://www.w3.org/Graphics/SVG/1.1/DTD/svg11.dtd">
<!-- Generated by graphviz version 2.38.0 (20140413.2041)
 -->
<!-- Title: Framework/include/QualityControl/TaskInterface.h Pages: 1 -->
<!--zoomable 207 -->
<svg id="main" version="1.1" xmlns="http://www.w3.org/2000/svg" xmlns:xlink="http://www.w3.org/1999/xlink" xml:space="preserve" onload="init(evt)">
<style type="text/css"><![CDATA[
.edge:hover path { stroke: red; }
.edge:hover polygon { stroke: red; fill: red; }
]]></style>
<script type="text/javascript"><![CDATA[
var edges = document.getElementsByTagName('g');
if (edges && edges.length) {
  for (var i=0;i<edges.length;i++) {
    if (edges[i].id.substr(0,4)=='edge') {
      edges[i].setAttribute('class','edge');
    }
  }
}
]]></script>
        <defs>
                <circle id="rim" cx="0" cy="0" r="7"/>
                <circle id="rim2" cx="0" cy="0" r="3.5"/>
                <g id="zoomPlus">
                        <use xlink:href="#rim" fill="#404040">
                                <set attributeName="fill" to="#808080" begin="zoomplus.mouseover" end="zoomplus.mouseout"/>
                        </use>
                        <path d="M-4,0h8M0,-4v8" fill="none" stroke="white" stroke-width="1.5" pointer-events="none"/>
                </g>
                <g id="zoomMin">
                        <use xlink:href="#rim" fill="#404040">
                                <set attributeName="fill" to="#808080" begin="zoomminus.mouseover" end="zoomminus.mouseout"/>
                        </use>
                        <path d="M-4,0h8" fill="none" stroke="white" stroke-width="1.5" pointer-events="none"/>
                </g>
                <g id="dirArrow">
                        <path fill="none" stroke="white" stroke-width="1.5" d="M0,-3.0v7 M-2.5,-0.5L0,-3.0L2.5,-0.5"/>
                </g>
               <g id="resetDef">
                       <use xlink:href="#rim2" fill="#404040">
                               <set attributeName="fill" to="#808080" begin="reset.mouseover" end="reset.mouseout"/>
                       </use>
               </g>
        </defs>

<script type="text/javascript">
var viewWidth = 827;
var viewHeight = 207;
var sectionId = 'dynsection-0';
</script>
<script xlink:href="svgpan.js"/>
<svg id="graph" class="graph">
<g id="viewport">
<title>Framework/include/QualityControl/TaskInterface.h</title>
<!-- Node1 -->
<g id="node1" class="node"><title>Node1</title>
<polygon fill="#bfbfbf" stroke="black" points="81.3995,-168.5 81.3995,-198.5 214.399,-198.5 214.399,-168.5 81.3995,-168.5"/>
<text text-anchor="start" x="89.3995" y="-186.5" font-family="Helvetica,sans-Serif" font-size="10.00">Framework/include/Quality</text>
<text text-anchor="middle" x="147.899" y="-175.5" font-family="Helvetica,sans-Serif" font-size="10.00">Control/TaskInterface.h</text>
</g>
<!-- Node2 -->
<g id="node2" class="node"><title>Node2</title>
<polygon fill="none" stroke="#bfbfbf" points="281.399,-0.5 281.399,-19.5 316.399,-19.5 316.399,-0.5 281.399,-0.5"/>
<text text-anchor="middle" x="298.899" y="-7.5" font-family="Helvetica,sans-Serif" font-size="10.00">map</text>
</g>
<!-- Node1&#45;&gt;Node2 -->
<g id="edge1" class="edge"><title>Node1&#45;&gt;Node2</title>
<path fill="none" stroke="midnightblue" d="M97.5167,-168.416C79.5906,-160.711 61.2902,-149.124 50.8995,-132 33.377,-103.123 29.2518,-81.9291 50.8995,-56 78.7525,-22.6382 212.692,-13.9562 271.319,-11.7405"/>
<polygon fill="midnightblue" stroke="midnightblue" points="271.473,-15.2374 281.347,-11.3975 271.233,-8.24147 271.473,-15.2374"/>
</g>
<!-- Node3 -->
<g id="node3" class="node"><title>Node3</title>
<polygon fill="none" stroke="#bfbfbf" points="143.899,-56.5 143.899,-75.5 195.899,-75.5 195.899,-56.5 143.899,-56.5"/>
<text text-anchor="middle" x="169.899" y="-63.5" font-family="Helvetica,sans-Serif" font-size="10.00">memory</text>
</g>
<!-- Node1&#45;&gt;Node3 -->
<g id="edge2" class="edge"><title>Node1&#45;&gt;Node3</title>
<path fill="none" stroke="midnightblue" d="M136.172,-168.273C125.833,-153.903 113.602,-131.153 121.899,-112 127.168,-99.8399 137.519,-89.4594 147.264,-81.7429"/>
<polygon fill="midnightblue" stroke="midnightblue" points="149.543,-84.4116 155.529,-75.6698 145.398,-78.7707 149.543,-84.4116"/>
</g>
<!-- Node4 -->
<g id="node4" class="node"><title>Node4</title>
<polygon fill="none" stroke="#bfbfbf" points="411.399,-0.5 411.399,-19.5 452.399,-19.5 452.399,-0.5 411.399,-0.5"/>
<text text-anchor="middle" x="431.899" y="-7.5" font-family="Helvetica,sans-Serif" font-size="10.00">string</text>
</g>
<!-- Node1&#45;&gt;Node4 -->
<g id="edge3" class="edge"><title>Node1&#45;&gt;Node4</title>
<path fill="none" stroke="midnightblue" d="M135.664,-168.125C128.361,-158.568 119.775,-145.357 115.899,-132 106.197,-98.5618 108.203,-78.3509 134.899,-56 155.153,-39.0433 329.366,-20.7414 401.165,-13.8438"/>
<polygon fill="midnightblue" stroke="midnightblue" points="401.754,-17.3037 411.378,-12.8734 401.092,-10.3351 401.754,-17.3037"/>
</g>
<!-- Node5 -->
<g id="node5" class="node"><title>Node5</title>
<polygon fill="none" stroke="#bfbfbf" points="25.3995,-0.5 25.3995,-19.5 108.399,-19.5 108.399,-0.5 25.3995,-0.5"/>
<text text-anchor="middle" x="66.8995" y="-7.5" font-family="Helvetica,sans-Serif" font-size="10.00">unordered_map</text>
</g>
<!-- Node1&#45;&gt;Node5 -->
<g id="edge4" class="edge"><title>Node1&#45;&gt;Node5</title>
<path fill="none" stroke="midnightblue" d="M81.2103,-173.934C55.4723,-167.009 28.516,-154.515 12.8995,-132 -6.35145,-104.245 -1.42755,-86.5888 12.8995,-56 18.9443,-43.0941 30.7113,-32.5985 41.722,-24.9999"/>
<polygon fill="midnightblue" stroke="midnightblue" points="43.727,-27.8723 50.2664,-19.5364 39.956,-21.9748 43.727,-27.8723"/>
</g>
<!-- Node6 -->
<g id="node6" class="node"><title>Node6</title>
<polygon fill="none" stroke="#bfbfbf" points="131.399,-112.5 131.399,-131.5 256.399,-131.5 256.399,-112.5 131.399,-112.5"/>
<text text-anchor="middle" x="193.899" y="-119.5" font-family="Helvetica,sans-Serif" font-size="10.00">Framework/InitContext.h</text>
</g>
<!-- Node1&#45;&gt;Node6 -->
<g id="edge5" class="edge"><title>Node1&#45;&gt;Node6</title>
<path fill="none" stroke="midnightblue" d="M158.801,-168.399C165.485,-159.753 174.075,-148.642 181.084,-139.576"/>
<polygon fill="midnightblue" stroke="midnightblue" points="183.859,-141.71 187.206,-131.658 178.321,-137.428 183.859,-141.71"/>
</g>
<!-- Node7 -->
<g id="node7" class="node"><title>Node7</title>
<polygon fill="none" stroke="#bfbfbf" points="274.899,-112.5 274.899,-131.5 434.899,-131.5 434.899,-112.5 274.899,-112.5"/>
<text text-anchor="middle" x="354.899" y="-119.5" font-family="Helvetica,sans-Serif" font-size="10.00">Framework/ProcessingContext.h</text>
</g>
<!-- Node1&#45;&gt;Node7 -->
<g id="edge6" class="edge"><title>Node1&#45;&gt;Node7</title>
<path fill="none" stroke="midnightblue" d="M196.693,-168.475C232.873,-158.075 281.568,-144.078 315.336,-134.372"/>
<polygon fill="midnightblue" stroke="midnightblue" points="316.662,-137.633 325.306,-131.506 314.728,-130.905 316.662,-137.633"/>
</g>
<!-- Node8 -->
<g id="node8" class="node"><title>Node8</title>
<g id="a_node8"><a xlink:href="Activity_8h.html" target="_top" xlink:title="QualityControl/Activity.h">
<polygon fill="none" stroke="black" points="453.399,-112.5 453.399,-131.5 576.399,-131.5 576.399,-112.5 453.399,-112.5"/>
<text text-anchor="middle" x="514.899" y="-119.5" font-family="Helvetica,sans-Serif" font-size="10.00">QualityControl/Activity.h</text>
</a>
</g>
</g>
<!-- Node1&#45;&gt;Node8 -->
<g id="edge7" class="edge"><title>Node1&#45;&gt;Node8</title>
<path fill="none" stroke="midnightblue" d="M214.786,-171.656C282.394,-160.695 386.063,-143.888 452.152,-133.173"/>
<polygon fill="midnightblue" stroke="midnightblue" points="453.113,-136.563 462.424,-131.508 451.993,-129.653 453.113,-136.563"/>
</g>
<!-- Node9 -->
<g id="node9" class="node"><title>Node9</title>
<g id="a_node9"><a xlink:href="ObjectsManager_8h.html" target="_top" xlink:title="QualityControl/ObjectsManager.h">
<polygon fill="none" stroke="black" points="594.399,-112.5 594.399,-131.5 755.399,-131.5 755.399,-112.5 594.399,-112.5"/>
<text text-anchor="middle" x="674.899" y="-119.5" font-family="Helvetica,sans-Serif" font-size="10.00">QualityControl/ObjectsManager.h</text>
</a>
</g>
</g>
<!-- Node1&#45;&gt;Node9 -->
<g id="edge8" class="edge"><title>Node1&#45;&gt;Node9</title>
<path fill="none" stroke="midnightblue" d="M214.644,-174.964C309.8,-164.221 484.489,-144.498 589.13,-132.684"/>
<polygon fill="midnightblue" stroke="midnightblue" points="589.801,-136.13 599.345,-131.53 589.015,-129.174 589.801,-136.13"/>
</g>
<!-- Node9&#45;&gt;Node3 -->
<g id="edge22" class="edge"><title>Node9&#45;&gt;Node3</title>
<path fill="none" stroke="midnightblue" d="M595.159,-112.473C484.105,-100.598 287.394,-79.5638 206.352,-70.8979"/>
<polygon fill="midnightblue" stroke="midnightblue" points="206.469,-67.3905 196.154,-69.8074 205.725,-74.3509 206.469,-67.3905"/>
</g>
<!-- Node9&#45;&gt;Node4 -->
<g id="edge21" class="edge"><title>Node9&#45;&gt;Node4</title>
<path fill="none" stroke="midnightblue" d="M616.648,-112.481C554.434,-102.887 463.085,-87.1783 450.899,-76 438.058,-64.2199 433.718,-44.2915 432.339,-29.5992"/>
<polygon fill="midnightblue" stroke="midnightblue" points="435.833,-29.391 431.77,-19.6061 428.844,-29.7889 435.833,-29.391"/>
</g>
<!-- Node10 -->
<g id="node10" class="node"><title>Node10</title>
<g id="a_node10"><a xlink:href="MonitorObject_8h.html" target="_top" xlink:title="QualityControl/MonitorObject.h">
<polygon fill="none" stroke="black" points="599.399,-56.5 599.399,-75.5 750.399,-75.5 750.399,-56.5 599.399,-56.5"/>
<text text-anchor="middle" x="674.899" y="-63.5" font-family="Helvetica,sans-Serif" font-size="10.00">QualityControl/MonitorObject.h</text>
</a>
</g>
</g>
<!-- Node9&#45;&gt;Node10 -->
<g id="edge9" class="edge"><title>Node9&#45;&gt;Node10</title>
<path fill="none" stroke="midnightblue" d="M674.899,-112.083C674.899,-105.006 674.899,-94.8611 674.899,-85.9865"/>
<polygon fill="midnightblue" stroke="midnightblue" points="678.4,-85.751 674.899,-75.7511 671.4,-85.7511 678.4,-85.751"/>
</g>
<!-- Node14 -->
<g id="node14" class="node"><title>Node14</title>
<g id="a_node14"><a xlink:href="Quality_8h.html" target="_top" xlink:title="QualityControl/Quality.h">
<polygon fill="none" stroke="black" points="460.399,-56.5 460.399,-75.5 581.399,-75.5 581.399,-56.5 460.399,-56.5"/>
<text text-anchor="middle" x="520.899" y="-63.5" font-family="Helvetica,sans-Serif" font-size="10.00">QualityControl/Quality.h</text>
</a>
</g>
</g>
<!-- Node9&#45;&gt;Node14 -->
<g id="edge15" class="edge"><title>Node9&#45;&gt;Node14</title>
<path fill="none" stroke="midnightblue" d="M650.498,-112.444C624.703,-103.399 583.823,-89.064 554.882,-78.9158"/>
<polygon fill="midnightblue" stroke="midnightblue" points="555.782,-75.5226 545.187,-75.5164 553.466,-82.1283 555.782,-75.5226"/>
</g>
<!-- Node15 -->
<g id="node15" class="node"><title>Node15</title>
<g id="a_node15"><a xlink:href="TaskConfig_8h.html" target="_top" xlink:title="QualityControl/TaskConfig.h">
<polygon fill="none" stroke="black" points="263.899,-56.5 263.899,-75.5 403.899,-75.5 403.899,-56.5 263.899,-56.5"/>
<text text-anchor="middle" x="333.899" y="-63.5" font-family="Helvetica,sans-Serif" font-size="10.00">QualityControl/TaskConfig.h</text>
</a>
</g>
</g>
<!-- Node9&#45;&gt;Node15 -->
<g id="edge18" class="edge"><title>Node9&#45;&gt;Node15</title>
<path fill="none" stroke="midnightblue" d="M620.867,-112.444C560.258,-102.846 462.037,-87.2916 397.703,-77.1037"/>
<polygon fill="midnightblue" stroke="midnightblue" points="398.104,-73.6237 387.679,-75.5164 397.009,-80.5375 398.104,-73.6237"/>
</g>
<!-- Node10&#45;&gt;Node2 -->
<g id="edge11" class="edge"><title>Node10&#45;&gt;Node2</title>
<path fill="none" stroke="midnightblue" d="M615.321,-56.4435C532.886,-44.6044 387.347,-23.7026 326.672,-14.9887"/>
<polygon fill="midnightblue" stroke="midnightblue" points="327.089,-11.5127 316.693,-13.5555 326.094,-18.4416 327.089,-11.5127"/>
</g>
<!-- Node10&#45;&gt;Node4 -->
<g id="edge10" class="edge"><title>Node10&#45;&gt;Node4</title>
<path fill="none" stroke="midnightblue" d="M636.395,-56.4435C588.2,-45.7335 506.632,-27.6072 462.482,-17.7961"/>
<polygon fill="midnightblue" stroke="midnightblue" points="463.143,-14.3576 452.622,-15.6049 461.624,-21.191 463.143,-14.3576"/>
</g>
<!-- Node11 -->
<g id="node11" class="node"><title>Node11</title>
<polygon fill="none" stroke="#bfbfbf" points="511.899,-0.5 511.899,-19.5 567.899,-19.5 567.899,-0.5 511.899,-0.5"/>
<text text-anchor="middle" x="539.899" y="-7.5" font-family="Helvetica,sans-Serif" font-size="10.00">Rtypes.h</text>
</g>
<!-- Node10&#45;&gt;Node11 -->
<g id="edge12" class="edge"><title>Node10&#45;&gt;Node11</title>
<path fill="none" stroke="midnightblue" d="M653.508,-56.4435C631.192,-47.5171 595.996,-33.4387 570.692,-23.3168"/>
<polygon fill="midnightblue" stroke="midnightblue" points="571.775,-19.9807 561.191,-19.5164 569.175,-26.4801 571.775,-19.9807"/>
</g>
<!-- Node12 -->
<g id="node12" class="node"><title>Node12</title>
<polygon fill="none" stroke="#bfbfbf" points="625.399,-0.5 625.399,-19.5 684.399,-19.5 684.399,-0.5 625.399,-0.5"/>
<text text-anchor="middle" x="654.899" y="-7.5" font-family="Helvetica,sans-Serif" font-size="10.00">TObject.h</text>
</g>
<!-- Node10&#45;&gt;Node12 -->
<g id="edge13" class="edge"><title>Node10&#45;&gt;Node12</title>
<path fill="none" stroke="midnightblue" d="M671.597,-56.083C668.917,-48.8486 665.051,-38.4087 661.713,-29.3968"/>
<polygon fill="midnightblue" stroke="midnightblue" points="664.896,-27.9129 658.141,-19.7511 658.332,-30.3442 664.896,-27.9129"/>
</g>
<!-- Node13 -->
<g id="node13" class="node"><title>Node13</title>
<polygon fill="none" stroke="#bfbfbf" points="702.899,-0.5 702.899,-19.5 818.899,-19.5 818.899,-0.5 702.899,-0.5"/>
<text text-anchor="middle" x="760.899" y="-7.5" font-family="Helvetica,sans-Serif" font-size="10.00">Common/Exceptions.h</text>
</g>
<!-- Node10&#45;&gt;Node13 -->
<g id="edge14" class="edge"><title>Node10&#45;&gt;Node13</title>
<path fill="none" stroke="midnightblue" d="M688.717,-56.324C702.132,-47.9002 722.724,-34.9709 738.485,-25.0741"/>
<polygon fill="midnightblue" stroke="midnightblue" points="740.509,-27.9364 747.116,-19.6545 736.786,-22.0081 740.509,-27.9364"/>
</g>
<!-- Node14&#45;&gt;Node4 -->
<g id="edge17" class="edge"><title>Node14&#45;&gt;Node4</title>
<path fill="none" stroke="midnightblue" d="M506.6,-56.324C492.717,-47.9002 471.407,-34.9709 455.096,-25.0741"/>
<polygon fill="midnightblue" stroke="midnightblue" points="456.528,-21.8495 446.163,-19.6545 452.897,-27.8341 456.528,-21.8495"/>
</g>
<!-- Node14&#45;&gt;Node11 -->
<g id="edge16" class="edge"><title>Node14&#45;&gt;Node11</title>
<path fill="none" stroke="midnightblue" d="M524.037,-56.083C526.582,-48.8486 530.256,-38.4087 533.427,-29.3968"/>
<polygon fill="midnightblue" stroke="midnightblue" points="536.803,-30.3459 536.82,-19.7511 530.2,-28.0225 536.803,-30.3459"/>
</g>
<!-- Node15&#45;&gt;Node4 -->
<g id="edge19" class="edge"><title>Node15&#45;&gt;Node4</title>
<path fill="none" stroke="midnightblue" d="M349.645,-56.324C365.218,-47.7428 389.277,-34.486 407.359,-24.5224"/>
<polygon fill="midnightblue" stroke="midnightblue" points="409.124,-27.546 416.193,-19.6545 405.746,-21.4152 409.124,-27.546"/>
</g>
<!-- Node15&#45;&gt;Node5 -->
<g id="edge20" class="edge"><title>Node15&#45;&gt;Node5</title>
<path fill="none" stroke="midnightblue" d="M291.593,-56.4435C244.682,-46.9561 168.996,-31.6487 118.606,-21.4574"/>
<polygon fill="midnightblue" stroke="midnightblue" points="119.064,-17.9794 108.569,-19.4275 117.677,-24.8405 119.064,-17.9794"/>
</g>
</g>
</svg>
        <g id="navigator" transform="translate(0 0)" fill="#404254">
                <rect fill="#f2f5e9" fill-opacity="0.5" stroke="#606060" stroke-width=".5" x="0" y="0" width="60" height="60"/>
                <use id="zoomplus" xlink:href="#zoomPlus" x="17" y="9" onmousedown="handleZoom(evt,'in')"/>
                <use id="zoomminus" xlink:href="#zoomMin" x="42" y="9" onmousedown="handleZoom(evt,'out')"/>
                <use id="reset" xlink:href="#resetDef" x="30" y="36" onmousedown="handleReset()"/>
                <g id="arrowUp" xlink:href="#dirArrow" transform="translate(30 24)" onmousedown="handlePan(0,-1)">
                  <use xlink:href="#rim" fill="#404040">
                        <set attributeName="fill" to="#808080" begin="arrowUp.mouseover" end="arrowUp.mouseout"/>
                  </use>
                  <path fill="none" stroke="white" stroke-width="1.5" d="M0,-3.0v7 M-2.5,-0.5L0,-3.0L2.5,-0.5"/>
                </g>
                <g id="arrowRight" xlink:href="#dirArrow" transform="rotate(90) translate(36 -43)" onmousedown="handlePan(1,0)">
                  <use xlink:href="#rim" fill="#404040">
                        <set attributeName="fill" to="#808080" begin="arrowRight.mouseover" end="arrowRight.mouseout"/>
                  </use>
                  <path fill="none" stroke="white" stroke-width="1.5" d="M0,-3.0v7 M-2.5,-0.5L0,-3.0L2.5,-0.5"/>
                </g>
                <g id="arrowDown" xlink:href="#dirArrow" transform="rotate(180) translate(-30 -48)" onmousedown="handlePan(0,1)">
                  <use xlink:href="#rim" fill="#404040">
                        <set attributeName="fill" to="#808080" begin="arrowDown.mouseover" end="arrowDown.mouseout"/>
                  </use>
                  <path fill="none" stroke="white" stroke-width="1.5" d="M0,-3.0v7 M-2.5,-0.5L0,-3.0L2.5,-0.5"/>
                </g>
                <g id="arrowLeft" xlink:href="#dirArrow" transform="rotate(270) translate(-36 17)" onmousedown="handlePan(-1,0)">
                  <use xlink:href="#rim" fill="#404040">
                        <set attributeName="fill" to="#808080" begin="arrowLeft.mouseover" end="arrowLeft.mouseout"/>
                  </use>
                  <path fill="none" stroke="white" stroke-width="1.5" d="M0,-3.0v7 M-2.5,-0.5L0,-3.0L2.5,-0.5"/>
                </g>
        </g>
        <svg viewBox="0 0 15 15" width="100%" height="30px" preserveAspectRatio="xMaxYMin meet">
         <g id="arrow_out" transform="scale(0.3 0.3)">
          <a xlink:href="TaskInterface_8h__incl_org.svg" target="_base">
           <rect id="button" ry="5" rx="5" y="6" x="6" height="38" width="38"
                fill="#f2f5e9" fill-opacity="0.5" stroke="#606060" stroke-width="1.0"/>
           <path id="arrow"
             d="M 11.500037,31.436501 C 11.940474,20.09759 22.043105,11.32322 32.158766,21.979434 L 37.068811,17.246167 C 37.068811,17.246167 37.088388,32 37.088388,32 L 22.160133,31.978069 C 22.160133,31.978069 26.997745,27.140456 26.997745,27.140456 C 18.528582,18.264221 13.291696,25.230495 11.500037,31.436501 z"
             style="fill:#404040;"/>
          </a>
         </g>
        </svg>
</svg>
