<?xml version="1.0" encoding="UTF-8" standalone="no"?>
<!DOCTYPE svg PUBLIC "-//W3C//DTD SVG 1.1//EN"
 "http://www.w3.org/Graphics/SVG/1.1/DTD/svg11.dtd">
<!-- Generated by graphviz version 2.38.0 (20140413.2041)
 -->
<!-- Title: Framework/src/TaskFactory.cxx Pages: 1 -->
<!--zoomable 308 -->
<svg id="main" version="1.1" xmlns="http://www.w3.org/2000/svg" xmlns:xlink="http://www.w3.org/1999/xlink" xml:space="preserve" onload="init(evt)">
<style type="text/css"><![CDATA[
.edge:hover path { stroke: red; }
.edge:hover polygon { stroke: red; fill: red; }
]]></style>
<script type="text/javascript"><![CDATA[
var edges = document.getElementsByTagName('g');
if (edges && edges.length) {
  for (var i=0;i<edges.length;i++) {
    if (edges[i].id.substr(0,4)=='edge') {
      edges[i].setAttribute('class','edge');
    }
  }
}
]]></script>
        <defs>
                <circle id="rim" cx="0" cy="0" r="7"/>
                <circle id="rim2" cx="0" cy="0" r="3.5"/>
                <g id="zoomPlus">
                        <use xlink:href="#rim" fill="#404040">
                                <set attributeName="fill" to="#808080" begin="zoomplus.mouseover" end="zoomplus.mouseout"/>
                        </use>
                        <path d="M-4,0h8M0,-4v8" fill="none" stroke="white" stroke-width="1.5" pointer-events="none"/>
                </g>
                <g id="zoomMin">
                        <use xlink:href="#rim" fill="#404040">
                                <set attributeName="fill" to="#808080" begin="zoomminus.mouseover" end="zoomminus.mouseout"/>
                        </use>
                        <path d="M-4,0h8" fill="none" stroke="white" stroke-width="1.5" pointer-events="none"/>
                </g>
                <g id="dirArrow">
                        <path fill="none" stroke="white" stroke-width="1.5" d="M0,-3.0v7 M-2.5,-0.5L0,-3.0L2.5,-0.5"/>
                </g>
               <g id="resetDef">
                       <use xlink:href="#rim2" fill="#404040">
                               <set attributeName="fill" to="#808080" begin="reset.mouseover" end="reset.mouseout"/>
                       </use>
               </g>
        </defs>

<script type="text/javascript">
var viewWidth = 1430;
var viewHeight = 308;
var sectionId = 'dynsection-0';
</script>
<script xlink:href="svgpan.js"/>
<svg id="graph" class="graph">
<g id="viewport">
<title>Framework/src/TaskFactory.cxx</title>
<!-- Node1 -->
<g id="node1" class="node"><title>Node1</title>
<polygon fill="#bfbfbf" stroke="black" points="1014.71,-280.5 1014.71,-299.5 1172.71,-299.5 1172.71,-280.5 1014.71,-280.5"/>
<text text-anchor="middle" x="1093.71" y="-287.5" font-family="Helvetica,sans-Serif" font-size="10.00">Framework/src/TaskFactory.cxx</text>
</g>
<!-- Node2 -->
<g id="node2" class="node"><title>Node2</title>
<g id="a_node2"><a xlink:href="TaskFactory_8h.html" target="_top" xlink:title="QualityControl/TaskFactory.h">
<polygon fill="none" stroke="black" points="548.213,-224.5 548.213,-243.5 693.213,-243.5 693.213,-224.5 548.213,-224.5"/>
<text text-anchor="middle" x="620.713" y="-231.5" font-family="Helvetica,sans-Serif" font-size="10.00">QualityControl/TaskFactory.h</text>
</a>
</g>
</g>
<!-- Node1&#45;&gt;Node2 -->
<g id="edge1" class="edge"><title>Node1&#45;&gt;Node2</title>
<path fill="none" stroke="midnightblue" d="M1019.03,-280.473C933.171,-270.672 792.661,-254.631 703.526,-244.454"/>
<polygon fill="midnightblue" stroke="midnightblue" points="703.787,-240.962 693.455,-243.305 702.993,-247.916 703.787,-240.962"/>
</g>
<!-- Node18 -->
<g id="node18" class="node"><title>Node18</title>
<g id="a_node18"><a xlink:href="QcInfoLogger_8h.html" target="_top" xlink:title="QualityControl/QcInfoLogger.h">
<polygon fill="none" stroke="black" points="1273.21,-168.5 1273.21,-187.5 1422.21,-187.5 1422.21,-168.5 1273.21,-168.5"/>
<text text-anchor="middle" x="1347.71" y="-175.5" font-family="Helvetica,sans-Serif" font-size="10.00">QualityControl/QcInfoLogger.h</text>
</a>
</g>
</g>
<!-- Node1&#45;&gt;Node18 -->
<g id="edge27" class="edge"><title>Node1&#45;&gt;Node18</title>
<path fill="none" stroke="midnightblue" d="M1113.64,-280.368C1158.25,-261.051 1266.3,-214.259 1318.51,-191.648"/>
<polygon fill="midnightblue" stroke="midnightblue" points="1320.09,-194.777 1327.87,-187.591 1317.31,-188.354 1320.09,-194.777"/>
</g>
<!-- Node20 -->
<g id="node20" class="node"><title>Node20</title>
<g id="a_node20"><a xlink:href="RootClassFactory_8h.html" target="_top" xlink:title="RootClassFactory.h">
<polygon fill="none" stroke="black" points="1041.71,-224.5 1041.71,-243.5 1145.71,-243.5 1145.71,-224.5 1041.71,-224.5"/>
<text text-anchor="middle" x="1093.71" y="-231.5" font-family="Helvetica,sans-Serif" font-size="10.00">RootClassFactory.h</text>
</a>
</g>
</g>
<!-- Node1&#45;&gt;Node20 -->
<g id="edge29" class="edge"><title>Node1&#45;&gt;Node20</title>
<path fill="none" stroke="midnightblue" d="M1093.71,-280.083C1093.71,-273.006 1093.71,-262.861 1093.71,-253.986"/>
<polygon fill="midnightblue" stroke="midnightblue" points="1097.21,-253.751 1093.71,-243.751 1090.21,-253.751 1097.21,-253.751"/>
</g>
<!-- Node3 -->
<g id="node3" class="node"><title>Node3</title>
<polygon fill="none" stroke="#bfbfbf" points="698.713,-56.5 698.713,-75.5 750.713,-75.5 750.713,-56.5 698.713,-56.5"/>
<text text-anchor="middle" x="724.713" y="-63.5" font-family="Helvetica,sans-Serif" font-size="10.00">memory</text>
</g>
<!-- Node2&#45;&gt;Node3 -->
<g id="edge2" class="edge"><title>Node2&#45;&gt;Node3</title>
<path fill="none" stroke="midnightblue" d="M632.094,-224.43C652.203,-208.602 693.773,-172.663 713.713,-132 720.799,-117.549 723.419,-99.3608 724.342,-85.9017"/>
<polygon fill="midnightblue" stroke="midnightblue" points="727.839,-86.0371 724.778,-75.8941 720.846,-85.7321 727.839,-86.0371"/>
</g>
<!-- Node4 -->
<g id="node4" class="node"><title>Node4</title>
<g id="a_node4"><a xlink:href="TaskConfig_8h.html" target="_top" xlink:title="QualityControl/TaskConfig.h">
<polygon fill="none" stroke="black" points="171.713,-56.5 171.713,-75.5 311.713,-75.5 311.713,-56.5 171.713,-56.5"/>
<text text-anchor="middle" x="241.713" y="-63.5" font-family="Helvetica,sans-Serif" font-size="10.00">QualityControl/TaskConfig.h</text>
</a>
</g>
</g>
<!-- Node2&#45;&gt;Node4 -->
<g id="edge3" class="edge"><title>Node2&#45;&gt;Node4</title>
<path fill="none" stroke="midnightblue" d="M548.111,-232.223C401.463,-228.953 78.0456,-212.556 9.71268,-132 3.96263,-125.221 4.05729,-118.858 9.71268,-112 28.8675,-88.7728 102.307,-77.3877 161.495,-71.9007"/>
<polygon fill="midnightblue" stroke="midnightblue" points="161.958,-75.3735 171.611,-71.0065 161.342,-68.4007 161.958,-75.3735"/>
</g>
<!-- Node7 -->
<g id="node7" class="node"><title>Node7</title>
<g id="a_node7"><a xlink:href="TaskInterface_8h.html" target="_top" xlink:title="QualityControl/TaskInterface.h">
<polygon fill="none" stroke="black" points="417.713,-168.5 417.713,-187.5 567.713,-187.5 567.713,-168.5 417.713,-168.5"/>
<text text-anchor="middle" x="492.713" y="-175.5" font-family="Helvetica,sans-Serif" font-size="10.00">QualityControl/TaskInterface.h</text>
</a>
</g>
</g>
<!-- Node2&#45;&gt;Node7 -->
<g id="edge6" class="edge"><title>Node2&#45;&gt;Node7</title>
<path fill="none" stroke="midnightblue" d="M600.431,-224.444C579.365,-215.557 546.196,-201.563 522.227,-191.451"/>
<polygon fill="midnightblue" stroke="midnightblue" points="523.474,-188.179 512.9,-187.516 520.753,-194.628 523.474,-188.179"/>
</g>
<!-- Node5 -->
<g id="node5" class="node"><title>Node5</title>
<polygon fill="none" stroke="#bfbfbf" points="554.213,-0.5 554.213,-19.5 595.213,-19.5 595.213,-0.5 554.213,-0.5"/>
<text text-anchor="middle" x="574.713" y="-7.5" font-family="Helvetica,sans-Serif" font-size="10.00">string</text>
</g>
<!-- Node4&#45;&gt;Node5 -->
<g id="edge4" class="edge"><title>Node4&#45;&gt;Node5</title>
<path fill="none" stroke="midnightblue" d="M294.478,-56.4435C364.771,-45.0445 486.873,-25.2443 543.817,-16.01"/>
<polygon fill="midnightblue" stroke="midnightblue" points="544.674,-19.417 553.984,-14.3614 543.553,-12.5073 544.674,-19.417"/>
</g>
<!-- Node6 -->
<g id="node6" class="node"><title>Node6</title>
<polygon fill="none" stroke="#bfbfbf" points="75.2127,-0.5 75.2127,-19.5 158.213,-19.5 158.213,-0.5 75.2127,-0.5"/>
<text text-anchor="middle" x="116.713" y="-7.5" font-family="Helvetica,sans-Serif" font-size="10.00">unordered_map</text>
</g>
<!-- Node4&#45;&gt;Node6 -->
<g id="edge5" class="edge"><title>Node4&#45;&gt;Node6</title>
<path fill="none" stroke="midnightblue" d="M221.906,-56.4435C201.426,-47.5961 169.23,-33.6875 145.848,-23.5865"/>
<polygon fill="midnightblue" stroke="midnightblue" points="146.995,-20.2692 136.427,-19.5164 144.219,-26.6953 146.995,-20.2692"/>
</g>
<!-- Node7&#45;&gt;Node3 -->
<g id="edge8" class="edge"><title>Node7&#45;&gt;Node3</title>
<path fill="none" stroke="midnightblue" d="M567.765,-174.828C607.774,-170.242 655.799,-158.883 690.713,-132 705.816,-120.371 714.88,-100.122 719.805,-85.3066"/>
<polygon fill="midnightblue" stroke="midnightblue" points="723.172,-86.2642 722.686,-75.6805 716.466,-84.2569 723.172,-86.2642"/>
</g>
<!-- Node7&#45;&gt;Node5 -->
<g id="edge9" class="edge"><title>Node7&#45;&gt;Node5</title>
<path fill="none" stroke="midnightblue" d="M494.554,-168.365C497.406,-155.7 503.437,-131.477 511.713,-112 522.922,-85.6168 528.457,-80.2691 543.713,-56 549.645,-46.5626 556.662,-36.3085 562.519,-27.9755"/>
<polygon fill="midnightblue" stroke="midnightblue" points="565.376,-29.9968 568.312,-19.8168 559.669,-25.9441 565.376,-29.9968"/>
</g>
<!-- Node7&#45;&gt;Node6 -->
<g id="edge10" class="edge"><title>Node7&#45;&gt;Node6</title>
<path fill="none" stroke="midnightblue" d="M417.564,-175.445C288.664,-171.993 36.6021,-161.511 9.71268,-132 -25.5806,-93.2657 47.6633,-46.6075 89.7961,-24.2322"/>
<polygon fill="midnightblue" stroke="midnightblue" points="91.4932,-27.2949 98.7614,-19.5861 88.2724,-21.0798 91.4932,-27.2949"/>
</g>
<!-- Node8 -->
<g id="node8" class="node"><title>Node8</title>
<polygon fill="none" stroke="#bfbfbf" points="949.213,-0.5 949.213,-19.5 984.213,-19.5 984.213,-0.5 949.213,-0.5"/>
<text text-anchor="middle" x="966.713" y="-7.5" font-family="Helvetica,sans-Serif" font-size="10.00">map</text>
</g>
<!-- Node7&#45;&gt;Node8 -->
<g id="edge7" class="edge"><title>Node7&#45;&gt;Node8</title>
<path fill="none" stroke="midnightblue" d="M568.176,-172.2C689.088,-162.755 917.659,-137.099 966.713,-76 977.072,-63.0976 975.564,-43.6519 972.385,-29.391"/>
<polygon fill="midnightblue" stroke="midnightblue" points="975.757,-28.4503 969.797,-19.6904 968.993,-30.2547 975.757,-28.4503"/>
</g>
<!-- Node9 -->
<g id="node9" class="node"><title>Node9</title>
<polygon fill="none" stroke="#bfbfbf" points="19.2127,-112.5 19.2127,-131.5 144.213,-131.5 144.213,-112.5 19.2127,-112.5"/>
<text text-anchor="middle" x="81.7127" y="-119.5" font-family="Helvetica,sans-Serif" font-size="10.00">Framework/InitContext.h</text>
</g>
<!-- Node7&#45;&gt;Node9 -->
<g id="edge11" class="edge"><title>Node7&#45;&gt;Node9</title>
<path fill="none" stroke="midnightblue" d="M427.589,-168.444C353.287,-158.681 232.086,-142.757 154.665,-132.585"/>
<polygon fill="midnightblue" stroke="midnightblue" points="154.881,-129.083 144.51,-131.251 153.969,-136.024 154.881,-129.083"/>
</g>
<!-- Node10 -->
<g id="node10" class="node"><title>Node10</title>
<polygon fill="none" stroke="#bfbfbf" points="162.713,-112.5 162.713,-131.5 322.713,-131.5 322.713,-112.5 162.713,-112.5"/>
<text text-anchor="middle" x="242.713" y="-119.5" font-family="Helvetica,sans-Serif" font-size="10.00">Framework/ProcessingContext.h</text>
</g>
<!-- Node7&#45;&gt;Node10 -->
<g id="edge12" class="edge"><title>Node7&#45;&gt;Node10</title>
<path fill="none" stroke="midnightblue" d="M453.099,-168.444C409.488,-159.023 339.313,-143.866 292.135,-133.675"/>
<polygon fill="midnightblue" stroke="midnightblue" points="292.654,-130.207 282.141,-131.516 291.176,-137.049 292.654,-130.207"/>
</g>
<!-- Node11 -->
<g id="node11" class="node"><title>Node11</title>
<g id="a_node11"><a xlink:href="Activity_8h.html" target="_top" xlink:title="QualityControl/Activity.h">
<polygon fill="none" stroke="black" points="341.213,-112.5 341.213,-131.5 464.213,-131.5 464.213,-112.5 341.213,-112.5"/>
<text text-anchor="middle" x="402.713" y="-119.5" font-family="Helvetica,sans-Serif" font-size="10.00">QualityControl/Activity.h</text>
</a>
</g>
</g>
<!-- Node7&#45;&gt;Node11 -->
<g id="edge13" class="edge"><title>Node7&#45;&gt;Node11</title>
<path fill="none" stroke="midnightblue" d="M478.253,-168.324C464.213,-159.9 442.664,-146.971 426.17,-137.074"/>
<polygon fill="midnightblue" stroke="midnightblue" points="427.513,-133.798 417.137,-131.655 423.911,-139.801 427.513,-133.798"/>
</g>
<!-- Node12 -->
<g id="node12" class="node"><title>Node12</title>
<g id="a_node12"><a xlink:href="ObjectsManager_8h.html" target="_top" xlink:title="QualityControl/ObjectsManager.h">
<polygon fill="none" stroke="black" points="521.213,-112.5 521.213,-131.5 682.213,-131.5 682.213,-112.5 521.213,-112.5"/>
<text text-anchor="middle" x="601.713" y="-119.5" font-family="Helvetica,sans-Serif" font-size="10.00">QualityControl/ObjectsManager.h</text>
</a>
</g>
</g>
<!-- Node7&#45;&gt;Node12 -->
<g id="edge14" class="edge"><title>Node7&#45;&gt;Node12</title>
<path fill="none" stroke="midnightblue" d="M510.225,-168.324C527.785,-159.625 555.044,-146.12 575.244,-136.113"/>
<polygon fill="midnightblue" stroke="midnightblue" points="576.836,-139.23 584.243,-131.655 573.729,-132.958 576.836,-139.23"/>
</g>
<!-- Node12&#45;&gt;Node3 -->
<g id="edge26" class="edge"><title>Node12&#45;&gt;Node3</title>
<path fill="none" stroke="midnightblue" d="M621.202,-112.444C641.355,-103.596 673.036,-89.6875 696.044,-79.5865"/>
<polygon fill="midnightblue" stroke="midnightblue" points="697.565,-82.7411 705.314,-75.5164 694.751,-76.3316 697.565,-82.7411"/>
</g>
<!-- Node12&#45;&gt;Node4 -->
<g id="edge24" class="edge"><title>Node12&#45;&gt;Node4</title>
<path fill="none" stroke="midnightblue" d="M544.67,-112.444C480.552,-102.826 376.563,-87.2275 308.652,-77.0409"/>
<polygon fill="midnightblue" stroke="midnightblue" points="308.897,-73.5386 298.489,-75.5164 307.859,-80.4612 308.897,-73.5386"/>
</g>
<!-- Node12&#45;&gt;Node5 -->
<g id="edge25" class="edge"><title>Node12&#45;&gt;Node5</title>
<path fill="none" stroke="midnightblue" d="M585.929,-112.467C573.51,-104.769 557.108,-92.179 549.713,-76 542.362,-59.9178 551.569,-40.9966 560.815,-27.729"/>
<polygon fill="midnightblue" stroke="midnightblue" points="563.763,-29.6336 567.019,-19.5513 558.186,-25.4028 563.763,-29.6336"/>
</g>
<!-- Node13 -->
<g id="node13" class="node"><title>Node13</title>
<g id="a_node13"><a xlink:href="MonitorObject_8h.html" target="_top" xlink:title="QualityControl/MonitorObject.h">
<polygon fill="none" stroke="black" points="807.213,-56.5 807.213,-75.5 958.213,-75.5 958.213,-56.5 807.213,-56.5"/>
<text text-anchor="middle" x="882.713" y="-63.5" font-family="Helvetica,sans-Serif" font-size="10.00">QualityControl/MonitorObject.h</text>
</a>
</g>
</g>
<!-- Node12&#45;&gt;Node13 -->
<g id="edge15" class="edge"><title>Node12&#45;&gt;Node13</title>
<path fill="none" stroke="midnightblue" d="M646.238,-112.444C695.669,-102.944 775.459,-87.611 828.491,-77.4198"/>
<polygon fill="midnightblue" stroke="midnightblue" points="829.236,-80.8408 838.396,-75.5164 827.915,-73.9666 829.236,-80.8408"/>
</g>
<!-- Node17 -->
<g id="node17" class="node"><title>Node17</title>
<g id="a_node17"><a xlink:href="Quality_8h.html" target="_top" xlink:title="QualityControl/Quality.h">
<polygon fill="none" stroke="black" points="559.213,-56.5 559.213,-75.5 680.213,-75.5 680.213,-56.5 559.213,-56.5"/>
<text text-anchor="middle" x="619.713" y="-63.5" font-family="Helvetica,sans-Serif" font-size="10.00">QualityControl/Quality.h</text>
</a>
</g>
</g>
<!-- Node12&#45;&gt;Node17 -->
<g id="edge21" class="edge"><title>Node12&#45;&gt;Node17</title>
<path fill="none" stroke="midnightblue" d="M604.685,-112.083C607.096,-104.849 610.576,-94.4087 613.58,-85.3968"/>
<polygon fill="midnightblue" stroke="midnightblue" points="616.954,-86.3447 616.796,-75.7511 610.313,-84.1311 616.954,-86.3447"/>
</g>
<!-- Node13&#45;&gt;Node5 -->
<g id="edge16" class="edge"><title>Node13&#45;&gt;Node5</title>
<path fill="none" stroke="midnightblue" d="M833.909,-56.4435C769.664,-45.1798 658.63,-25.7129 605.188,-16.3431"/>
<polygon fill="midnightblue" stroke="midnightblue" points="605.753,-12.8888 595.298,-14.6092 604.544,-19.7836 605.753,-12.8888"/>
</g>
<!-- Node13&#45;&gt;Node8 -->
<g id="edge17" class="edge"><title>Node13&#45;&gt;Node8</title>
<path fill="none" stroke="midnightblue" d="M896.209,-56.324C909.312,-47.9002 929.425,-34.9709 944.82,-25.0741"/>
<polygon fill="midnightblue" stroke="midnightblue" points="946.731,-28.0063 953.25,-19.6545 942.946,-22.118 946.731,-28.0063"/>
</g>
<!-- Node14 -->
<g id="node14" class="node"><title>Node14</title>
<polygon fill="none" stroke="#bfbfbf" points="684.713,-0.5 684.713,-19.5 740.713,-19.5 740.713,-0.5 684.713,-0.5"/>
<text text-anchor="middle" x="712.713" y="-7.5" font-family="Helvetica,sans-Serif" font-size="10.00">Rtypes.h</text>
</g>
<!-- Node13&#45;&gt;Node14 -->
<g id="edge18" class="edge"><title>Node13&#45;&gt;Node14</title>
<path fill="none" stroke="midnightblue" d="M855.776,-56.4435C827.052,-47.3196 781.384,-32.8133 749.392,-22.6509"/>
<polygon fill="midnightblue" stroke="midnightblue" points="750.114,-19.2081 739.524,-19.5164 747.995,-25.8797 750.114,-19.2081"/>
</g>
<!-- Node15 -->
<g id="node15" class="node"><title>Node15</title>
<polygon fill="none" stroke="#bfbfbf" points="853.213,-0.5 853.213,-19.5 912.213,-19.5 912.213,-0.5 853.213,-0.5"/>
<text text-anchor="middle" x="882.713" y="-7.5" font-family="Helvetica,sans-Serif" font-size="10.00">TObject.h</text>
</g>
<!-- Node13&#45;&gt;Node15 -->
<g id="edge19" class="edge"><title>Node13&#45;&gt;Node15</title>
<path fill="none" stroke="midnightblue" d="M882.713,-56.083C882.713,-49.0059 882.713,-38.8611 882.713,-29.9865"/>
<polygon fill="midnightblue" stroke="midnightblue" points="886.213,-29.751 882.713,-19.7511 879.213,-29.7511 886.213,-29.751"/>
</g>
<!-- Node16 -->
<g id="node16" class="node"><title>Node16</title>
<polygon fill="none" stroke="#bfbfbf" points="1018.71,-0.5 1018.71,-19.5 1134.71,-19.5 1134.71,-0.5 1018.71,-0.5"/>
<text text-anchor="middle" x="1076.71" y="-7.5" font-family="Helvetica,sans-Serif" font-size="10.00">Common/Exceptions.h</text>
</g>
<!-- Node13&#45;&gt;Node16 -->
<g id="edge20" class="edge"><title>Node13&#45;&gt;Node16</title>
<path fill="none" stroke="midnightblue" d="M913.453,-56.4435C946.657,-47.2011 999.703,-32.4356 1036.27,-22.2572"/>
<polygon fill="midnightblue" stroke="midnightblue" points="1037.42,-25.5699 1046.12,-19.5164 1035.54,-18.8262 1037.42,-25.5699"/>
</g>
<!-- Node17&#45;&gt;Node5 -->
<g id="edge23" class="edge"><title>Node17&#45;&gt;Node5</title>
<path fill="none" stroke="midnightblue" d="M612.282,-56.083C605.86,-48.3768 596.407,-37.0333 588.59,-27.6531"/>
<polygon fill="midnightblue" stroke="midnightblue" points="591.096,-25.1927 582.005,-19.7511 585.718,-29.674 591.096,-25.1927"/>
</g>
<!-- Node17&#45;&gt;Node14 -->
<g id="edge22" class="edge"><title>Node17&#45;&gt;Node14</title>
<path fill="none" stroke="midnightblue" d="M634.655,-56.324C649.298,-47.8215 671.846,-34.7288 688.95,-24.7975"/>
<polygon fill="midnightblue" stroke="midnightblue" points="690.917,-27.7027 697.808,-19.6545 687.402,-21.6491 690.917,-27.7027"/>
</g>
<!-- Node19 -->
<g id="node19" class="node"><title>Node19</title>
<polygon fill="none" stroke="#bfbfbf" points="1282.71,-112.5 1282.71,-131.5 1412.71,-131.5 1412.71,-112.5 1282.71,-112.5"/>
<text text-anchor="middle" x="1347.71" y="-119.5" font-family="Helvetica,sans-Serif" font-size="10.00">InfoLogger/InfoLogger.hxx</text>
</g>
<!-- Node18&#45;&gt;Node19 -->
<g id="edge28" class="edge"><title>Node18&#45;&gt;Node19</title>
<path fill="none" stroke="midnightblue" d="M1347.71,-168.083C1347.71,-161.006 1347.71,-150.861 1347.71,-141.986"/>
<polygon fill="midnightblue" stroke="midnightblue" points="1351.21,-141.751 1347.71,-131.751 1344.21,-141.751 1351.21,-141.751"/>
</g>
<!-- Node20&#45;&gt;Node5 -->
<g id="edge30" class="edge"><title>Node20&#45;&gt;Node5</title>
<path fill="none" stroke="midnightblue" d="M1041.63,-228.553C978.124,-222.297 875.342,-209.227 843.713,-188 785.972,-149.249 816.254,-96.4798 759.713,-56 713.059,-22.599 644.616,-13.8044 605.383,-11.6035"/>
<polygon fill="midnightblue" stroke="midnightblue" points="605.515,-8.10603 595.367,-11.1506 605.199,-15.0989 605.515,-8.10603"/>
</g>
<!-- Node20&#45;&gt;Node16 -->
<g id="edge31" class="edge"><title>Node20&#45;&gt;Node16</title>
<path fill="none" stroke="midnightblue" d="M1093.05,-224.297C1090.54,-191.633 1081.68,-75.8661 1078.16,-29.9573"/>
<polygon fill="midnightblue" stroke="midnightblue" points="1081.65,-29.5873 1077.39,-19.8837 1074.67,-30.1218 1081.65,-29.5873"/>
</g>
<!-- Node20&#45;&gt;Node18 -->
<g id="edge36" class="edge"><title>Node20&#45;&gt;Node18</title>
<path fill="none" stroke="midnightblue" d="M1133.96,-224.444C1178.36,-215.004 1249.87,-199.802 1297.8,-189.611"/>
<polygon fill="midnightblue" stroke="midnightblue" points="1298.6,-193.02 1307.65,-187.516 1297.14,-186.173 1298.6,-193.02"/>
</g>
<!-- Node21 -->
<g id="node21" class="node"><title>Node21</title>
<polygon fill="none" stroke="#bfbfbf" points="1121.71,-168.5 1121.71,-187.5 1177.71,-187.5 1177.71,-168.5 1121.71,-168.5"/>
<text text-anchor="middle" x="1149.71" y="-175.5" font-family="Helvetica,sans-Serif" font-size="10.00">TClass.h</text>
</g>
<!-- Node20&#45;&gt;Node21 -->
<g id="edge32" class="edge"><title>Node20&#45;&gt;Node21</title>
<path fill="none" stroke="midnightblue" d="M1102.71,-224.324C1110.91,-216.42 1123.22,-204.548 1133.18,-194.938"/>
<polygon fill="midnightblue" stroke="midnightblue" points="1135.78,-197.295 1140.55,-187.834 1130.92,-192.256 1135.78,-197.295"/>
</g>
<!-- Node22 -->
<g id="node22" class="node"><title>Node22</title>
<polygon fill="none" stroke="#bfbfbf" points="1196.21,-168.5 1196.21,-187.5 1255.21,-187.5 1255.21,-168.5 1196.21,-168.5"/>
<text text-anchor="middle" x="1225.71" y="-175.5" font-family="Helvetica,sans-Serif" font-size="10.00">TROOT.h</text>
</g>
<!-- Node20&#45;&gt;Node22 -->
<g id="edge33" class="edge"><title>Node20&#45;&gt;Node22</title>
<path fill="none" stroke="midnightblue" d="M1114.63,-224.444C1136.45,-215.517 1170.86,-201.439 1195.6,-191.317"/>
<polygon fill="midnightblue" stroke="midnightblue" points="1196.96,-194.542 1204.89,-187.516 1194.31,-188.063 1196.96,-194.542"/>
</g>
<!-- Node23 -->
<g id="node23" class="node"><title>Node23</title>
<polygon fill="none" stroke="#bfbfbf" points="853.213,-168.5 853.213,-187.5 918.213,-187.5 918.213,-168.5 853.213,-168.5"/>
<text text-anchor="middle" x="885.713" y="-175.5" font-family="Helvetica,sans-Serif" font-size="10.00">TSystem.h</text>
</g>
<!-- Node20&#45;&gt;Node23 -->
<g id="edge34" class="edge"><title>Node20&#45;&gt;Node23</title>
<path fill="none" stroke="midnightblue" d="M1060.75,-224.444C1024.93,-215.142 967.549,-200.246 928.322,-190.062"/>
<polygon fill="midnightblue" stroke="midnightblue" points="929.075,-186.642 918.517,-187.516 927.316,-193.417 929.075,-186.642"/>
</g>
<!-- Node24 -->
<g id="node24" class="node"><title>Node24</title>
<polygon fill="none" stroke="#bfbfbf" points="936.213,-168.5 936.213,-187.5 1065.21,-187.5 1065.21,-168.5 936.213,-168.5"/>
<text text-anchor="middle" x="1000.71" y="-175.5" font-family="Helvetica,sans-Serif" font-size="10.00">boost/filesystem/path.hpp</text>
</g>
<!-- Node20&#45;&gt;Node24 -->
<g id="edge35" class="edge"><title>Node20&#45;&gt;Node24</title>
<path fill="none" stroke="midnightblue" d="M1078.77,-224.324C1064.13,-215.822 1041.58,-202.729 1024.47,-192.797"/>
<polygon fill="midnightblue" stroke="midnightblue" points="1026.02,-189.649 1015.62,-187.655 1022.51,-195.703 1026.02,-189.649"/>
</g>
</g>
</svg>
        <g id="navigator" transform="translate(0 0)" fill="#404254">
                <rect fill="#f2f5e9" fill-opacity="0.5" stroke="#606060" stroke-width=".5" x="0" y="0" width="60" height="60"/>
                <use id="zoomplus" xlink:href="#zoomPlus" x="17" y="9" onmousedown="handleZoom(evt,'in')"/>
                <use id="zoomminus" xlink:href="#zoomMin" x="42" y="9" onmousedown="handleZoom(evt,'out')"/>
                <use id="reset" xlink:href="#resetDef" x="30" y="36" onmousedown="handleReset()"/>
                <g id="arrowUp" xlink:href="#dirArrow" transform="translate(30 24)" onmousedown="handlePan(0,-1)">
                  <use xlink:href="#rim" fill="#404040">
                        <set attributeName="fill" to="#808080" begin="arrowUp.mouseover" end="arrowUp.mouseout"/>
                  </use>
                  <path fill="none" stroke="white" stroke-width="1.5" d="M0,-3.0v7 M-2.5,-0.5L0,-3.0L2.5,-0.5"/>
                </g>
                <g id="arrowRight" xlink:href="#dirArrow" transform="rotate(90) translate(36 -43)" onmousedown="handlePan(1,0)">
                  <use xlink:href="#rim" fill="#404040">
                        <set attributeName="fill" to="#808080" begin="arrowRight.mouseover" end="arrowRight.mouseout"/>
                  </use>
                  <path fill="none" stroke="white" stroke-width="1.5" d="M0,-3.0v7 M-2.5,-0.5L0,-3.0L2.5,-0.5"/>
                </g>
                <g id="arrowDown" xlink:href="#dirArrow" transform="rotate(180) translate(-30 -48)" onmousedown="handlePan(0,1)">
                  <use xlink:href="#rim" fill="#404040">
                        <set attributeName="fill" to="#808080" begin="arrowDown.mouseover" end="arrowDown.mouseout"/>
                  </use>
                  <path fill="none" stroke="white" stroke-width="1.5" d="M0,-3.0v7 M-2.5,-0.5L0,-3.0L2.5,-0.5"/>
                </g>
                <g id="arrowLeft" xlink:href="#dirArrow" transform="rotate(270) translate(-36 17)" onmousedown="handlePan(-1,0)">
                  <use xlink:href="#rim" fill="#404040">
                        <set attributeName="fill" to="#808080" begin="arrowLeft.mouseover" end="arrowLeft.mouseout"/>
                  </use>
                  <path fill="none" stroke="white" stroke-width="1.5" d="M0,-3.0v7 M-2.5,-0.5L0,-3.0L2.5,-0.5"/>
                </g>
        </g>
        <svg viewBox="0 0 15 15" width="100%" height="30px" preserveAspectRatio="xMaxYMin meet">
         <g id="arrow_out" transform="scale(0.3 0.3)">
          <a xlink:href="TaskFactory_8cxx__incl_org.svg" target="_base">
           <rect id="button" ry="5" rx="5" y="6" x="6" height="38" width="38"
                fill="#f2f5e9" fill-opacity="0.5" stroke="#606060" stroke-width="1.0"/>
           <path id="arrow"
             d="M 11.500037,31.436501 C 11.940474,20.09759 22.043105,11.32322 32.158766,21.979434 L 37.068811,17.246167 C 37.068811,17.246167 37.088388,32 37.088388,32 L 22.160133,31.978069 C 22.160133,31.978069 26.997745,27.140456 26.997745,27.140456 C 18.528582,18.264221 13.291696,25.230495 11.500037,31.436501 z"
             style="fill:#404040;"/>
          </a>
         </g>
        </svg>
</svg>
