<?xml version="1.0" encoding="UTF-8" standalone="no"?>
<!DOCTYPE svg PUBLIC "-//W3C//DTD SVG 1.1//EN"
 "http://www.w3.org/Graphics/SVG/1.1/DTD/svg11.dtd">
<!-- Generated by graphviz version 2.38.0 (20140413.2041)
 -->
<!-- Title: Modules/TOF/include/TOF/TaskDiagnostics.h Pages: 1 -->
<!--zoomable 274 -->
<svg id="main" version="1.1" xmlns="http://www.w3.org/2000/svg" xmlns:xlink="http://www.w3.org/1999/xlink" xml:space="preserve" onload="init(evt)">
<style type="text/css"><![CDATA[
.edge:hover path { stroke: red; }
.edge:hover polygon { stroke: red; fill: red; }
]]></style>
<script type="text/javascript"><![CDATA[
var edges = document.getElementsByTagName('g');
if (edges && edges.length) {
  for (var i=0;i<edges.length;i++) {
    if (edges[i].id.substr(0,4)=='edge') {
      edges[i].setAttribute('class','edge');
    }
  }
}
]]></script>
        <defs>
                <circle id="rim" cx="0" cy="0" r="7"/>
                <circle id="rim2" cx="0" cy="0" r="3.5"/>
                <g id="zoomPlus">
                        <use xlink:href="#rim" fill="#404040">
                                <set attributeName="fill" to="#808080" begin="zoomplus.mouseover" end="zoomplus.mouseout"/>
                        </use>
                        <path d="M-4,0h8M0,-4v8" fill="none" stroke="white" stroke-width="1.5" pointer-events="none"/>
                </g>
                <g id="zoomMin">
                        <use xlink:href="#rim" fill="#404040">
                                <set attributeName="fill" to="#808080" begin="zoomminus.mouseover" end="zoomminus.mouseout"/>
                        </use>
                        <path d="M-4,0h8" fill="none" stroke="white" stroke-width="1.5" pointer-events="none"/>
                </g>
                <g id="dirArrow">
                        <path fill="none" stroke="white" stroke-width="1.5" d="M0,-3.0v7 M-2.5,-0.5L0,-3.0L2.5,-0.5"/>
                </g>
               <g id="resetDef">
                       <use xlink:href="#rim2" fill="#404040">
                               <set attributeName="fill" to="#808080" begin="reset.mouseover" end="reset.mouseout"/>
                       </use>
               </g>
        </defs>

<script type="text/javascript">
var viewWidth = 1418;
var viewHeight = 274;
var sectionId = 'dynsection-0';
</script>
<script xlink:href="svgpan.js"/>
<svg id="graph" class="graph">
<g id="viewport">
<title>Modules/TOF/include/TOF/TaskDiagnostics.h</title>
<!-- Node1 -->
<g id="node1" class="node"><title>Node1</title>
<polygon fill="#bfbfbf" stroke="black" points="720.007,-235.5 720.007,-265.5 844.007,-265.5 844.007,-235.5 720.007,-235.5"/>
<text text-anchor="start" x="728.007" y="-253.5" font-family="Helvetica,sans-Serif" font-size="10.00">Modules/TOF/include</text>
<text text-anchor="middle" x="782.007" y="-242.5" font-family="Helvetica,sans-Serif" font-size="10.00">/TOF/TaskDiagnostics.h</text>
</g>
<!-- Node2 -->
<g id="node2" class="node"><title>Node2</title>
<g id="a_node2"><a xlink:href="TaskInterface_8h.html" target="_top" xlink:title="QualityControl/TaskInterface.h">
<polygon fill="none" stroke="black" points="420.007,-179.5 420.007,-198.5 570.007,-198.5 570.007,-179.5 420.007,-179.5"/>
<text text-anchor="middle" x="495.007" y="-186.5" font-family="Helvetica,sans-Serif" font-size="10.00">QualityControl/TaskInterface.h</text>
</a>
</g>
</g>
<!-- Node1&#45;&gt;Node2 -->
<g id="edge1" class="edge"><title>Node1&#45;&gt;Node2</title>
<path fill="none" stroke="midnightblue" d="M719.733,-236.589C667.864,-225.836 594.884,-210.706 546.325,-200.639"/>
<polygon fill="midnightblue" stroke="midnightblue" points="546.852,-197.174 536.349,-198.571 545.431,-204.028 546.852,-197.174"/>
</g>
<!-- Node17 -->
<g id="node17" class="node"><title>Node17</title>
<g id="a_node17"><a xlink:href="Diagnostics_8h.html" target="_top" xlink:title="TOF/Diagnostics.h">
<polygon fill="none" stroke="black" points="1053.51,-179.5 1053.51,-198.5 1152.51,-198.5 1152.51,-179.5 1053.51,-179.5"/>
<text text-anchor="middle" x="1103.01" y="-186.5" font-family="Helvetica,sans-Serif" font-size="10.00">TOF/Diagnostics.h</text>
</a>
</g>
</g>
<!-- Node1&#45;&gt;Node17 -->
<g id="edge24" class="edge"><title>Node1&#45;&gt;Node17</title>
<path fill="none" stroke="midnightblue" d="M844.28,-237.957C903.102,-227.054 990.525,-210.849 1047.15,-200.354"/>
<polygon fill="midnightblue" stroke="midnightblue" points="1047.81,-203.792 1057,-198.528 1046.53,-196.909 1047.81,-203.792"/>
</g>
<!-- Node3 -->
<g id="node3" class="node"><title>Node3</title>
<polygon fill="none" stroke="#bfbfbf" points="845.507,-0.5 845.507,-19.5 880.507,-19.5 880.507,-0.5 845.507,-0.5"/>
<text text-anchor="middle" x="863.007" y="-7.5" font-family="Helvetica,sans-Serif" font-size="10.00">map</text>
</g>
<!-- Node2&#45;&gt;Node3 -->
<g id="edge2" class="edge"><title>Node2&#45;&gt;Node3</title>
<path fill="none" stroke="midnightblue" d="M570.04,-179.562C679.698,-165.419 874.886,-132.753 913.007,-76 925.151,-57.9213 904.93,-38.2398 886.686,-25.326"/>
<polygon fill="midnightblue" stroke="midnightblue" points="888.302,-22.1973 878.039,-19.5667 884.422,-28.0233 888.302,-22.1973"/>
</g>
<!-- Node4 -->
<g id="node4" class="node"><title>Node4</title>
<polygon fill="none" stroke="#bfbfbf" points="852.007,-56.5 852.007,-75.5 904.007,-75.5 904.007,-56.5 852.007,-56.5"/>
<text text-anchor="middle" x="878.007" y="-63.5" font-family="Helvetica,sans-Serif" font-size="10.00">memory</text>
</g>
<!-- Node2&#45;&gt;Node4 -->
<g id="edge3" class="edge"><title>Node2&#45;&gt;Node4</title>
<path fill="none" stroke="midnightblue" d="M542.807,-179.453C583.283,-171.667 642.596,-158.961 693.007,-143 750.498,-124.797 815.128,-96.3144 850.751,-79.8771"/>
<polygon fill="midnightblue" stroke="midnightblue" points="852.407,-82.9676 860,-75.579 849.456,-76.6196 852.407,-82.9676"/>
</g>
<!-- Node5 -->
<g id="node5" class="node"><title>Node5</title>
<polygon fill="none" stroke="#bfbfbf" points="494.507,-0.5 494.507,-19.5 535.507,-19.5 535.507,-0.5 494.507,-0.5"/>
<text text-anchor="middle" x="515.007" y="-7.5" font-family="Helvetica,sans-Serif" font-size="10.00">string</text>
</g>
<!-- Node2&#45;&gt;Node5 -->
<g id="edge4" class="edge"><title>Node2&#45;&gt;Node5</title>
<path fill="none" stroke="midnightblue" d="M495.358,-179.352C495.5,-163.662 493.437,-130.423 475.007,-112 428.486,-65.4954 297.629,-107.928 338.007,-56 355.793,-33.1269 438.397,-19.9772 484.205,-14.3255"/>
<polygon fill="midnightblue" stroke="midnightblue" points="484.673,-17.7945 494.191,-13.1402 483.848,-10.8433 484.673,-17.7945"/>
</g>
<!-- Node6 -->
<g id="node6" class="node"><title>Node6</title>
<polygon fill="none" stroke="#bfbfbf" points="163.507,-0.5 163.507,-19.5 246.507,-19.5 246.507,-0.5 163.507,-0.5"/>
<text text-anchor="middle" x="205.007" y="-7.5" font-family="Helvetica,sans-Serif" font-size="10.00">unordered_map</text>
</g>
<!-- Node2&#45;&gt;Node6 -->
<g id="edge5" class="edge"><title>Node2&#45;&gt;Node6</title>
<path fill="none" stroke="midnightblue" d="M419.859,-186.445C290.959,-182.993 38.8968,-172.511 12.0074,-143 -39.3036,-86.6863 88.3415,-41.9985 160.134,-22.1555"/>
<polygon fill="midnightblue" stroke="midnightblue" points="161.131,-25.5119 169.87,-19.5218 159.303,-18.7548 161.131,-25.5119"/>
</g>
<!-- Node7 -->
<g id="node7" class="node"><title>Node7</title>
<polygon fill="none" stroke="#bfbfbf" points="21.5074,-118 21.5074,-137 146.507,-137 146.507,-118 21.5074,-118"/>
<text text-anchor="middle" x="84.0074" y="-125" font-family="Helvetica,sans-Serif" font-size="10.00">Framework/InitContext.h</text>
</g>
<!-- Node2&#45;&gt;Node7 -->
<g id="edge6" class="edge"><title>Node2&#45;&gt;Node7</title>
<path fill="none" stroke="midnightblue" d="M419.727,-179.468C350.888,-171.32 246.337,-158.074 156.007,-143 148.831,-141.802 141.276,-140.418 133.868,-138.99"/>
<polygon fill="midnightblue" stroke="midnightblue" points="134.396,-135.527 123.908,-137.029 133.043,-142.395 134.396,-135.527"/>
</g>
<!-- Node8 -->
<g id="node8" class="node"><title>Node8</title>
<polygon fill="none" stroke="#bfbfbf" points="165.007,-118 165.007,-137 325.007,-137 325.007,-118 165.007,-118"/>
<text text-anchor="middle" x="245.007" y="-125" font-family="Helvetica,sans-Serif" font-size="10.00">Framework/ProcessingContext.h</text>
</g>
<!-- Node2&#45;&gt;Node8 -->
<g id="edge7" class="edge"><title>Node2&#45;&gt;Node8</title>
<path fill="none" stroke="midnightblue" d="M459.188,-179.475C414.819,-168.915 339.171,-150.911 290.675,-139.369"/>
<polygon fill="midnightblue" stroke="midnightblue" points="291.298,-135.92 280.76,-137.009 289.678,-142.729 291.298,-135.92"/>
</g>
<!-- Node9 -->
<g id="node9" class="node"><title>Node9</title>
<g id="a_node9"><a xlink:href="Activity_8h.html" target="_top" xlink:title="QualityControl/Activity.h">
<polygon fill="none" stroke="black" points="343.507,-118 343.507,-137 466.507,-137 466.507,-118 343.507,-118"/>
<text text-anchor="middle" x="405.007" y="-125" font-family="Helvetica,sans-Serif" font-size="10.00">QualityControl/Activity.h</text>
</a>
</g>
</g>
<!-- Node2&#45;&gt;Node9 -->
<g id="edge8" class="edge"><title>Node2&#45;&gt;Node9</title>
<path fill="none" stroke="midnightblue" d="M482.113,-179.475C467.543,-169.843 443.605,-154.017 426.262,-142.552"/>
<polygon fill="midnightblue" stroke="midnightblue" points="428.15,-139.604 417.878,-137.009 424.29,-145.444 428.15,-139.604"/>
</g>
<!-- Node10 -->
<g id="node10" class="node"><title>Node10</title>
<g id="a_node10"><a xlink:href="ObjectsManager_8h.html" target="_top" xlink:title="QualityControl/ObjectsManager.h">
<polygon fill="none" stroke="black" points="523.507,-118 523.507,-137 684.507,-137 684.507,-118 523.507,-118"/>
<text text-anchor="middle" x="604.007" y="-125" font-family="Helvetica,sans-Serif" font-size="10.00">QualityControl/ObjectsManager.h</text>
</a>
</g>
</g>
<!-- Node2&#45;&gt;Node10 -->
<g id="edge9" class="edge"><title>Node2&#45;&gt;Node10</title>
<path fill="none" stroke="midnightblue" d="M510.624,-179.475C528.593,-169.666 558.329,-153.435 579.414,-141.925"/>
<polygon fill="midnightblue" stroke="midnightblue" points="581.319,-144.873 588.419,-137.009 577.965,-138.728 581.319,-144.873"/>
</g>
<!-- Node10&#45;&gt;Node4 -->
<g id="edge23" class="edge"><title>Node10&#45;&gt;Node4</title>
<path fill="none" stroke="midnightblue" d="M646.672,-117.928C692.33,-108.648 767.12,-93.14 841.653,-76.0121"/>
<polygon fill="midnightblue" stroke="midnightblue" points="842.731,-79.3553 851.688,-73.6957 841.157,-72.5347 842.731,-79.3553"/>
</g>
<!-- Node10&#45;&gt;Node5 -->
<g id="edge22" class="edge"><title>Node10&#45;&gt;Node5</title>
<path fill="none" stroke="midnightblue" d="M586.176,-117.979C570.245,-109.481 547.41,-94.9698 534.007,-76 524.361,-62.3471 519.569,-43.8085 517.214,-30.0232"/>
<polygon fill="midnightblue" stroke="midnightblue" points="520.63,-29.1808 515.757,-19.7731 513.7,-30.1662 520.63,-29.1808"/>
</g>
<!-- Node11 -->
<g id="node11" class="node"><title>Node11</title>
<g id="a_node11"><a xlink:href="MonitorObject_8h.html" target="_top" xlink:title="QualityControl/MonitorObject.h">
<polygon fill="none" stroke="black" points="682.507,-56.5 682.507,-75.5 833.507,-75.5 833.507,-56.5 682.507,-56.5"/>
<text text-anchor="middle" x="758.007" y="-63.5" font-family="Helvetica,sans-Serif" font-size="10.00">QualityControl/MonitorObject.h</text>
</a>
</g>
</g>
<!-- Node10&#45;&gt;Node11 -->
<g id="edge10" class="edge"><title>Node10&#45;&gt;Node11</title>
<path fill="none" stroke="midnightblue" d="M626.072,-117.975C652.374,-107.813 696.52,-90.7564 726.432,-79.1996"/>
<polygon fill="midnightblue" stroke="midnightblue" points="727.917,-82.3779 735.984,-75.5091 725.394,-75.8483 727.917,-82.3779"/>
</g>
<!-- Node15 -->
<g id="node15" class="node"><title>Node15</title>
<g id="a_node15"><a xlink:href="Quality_8h.html" target="_top" xlink:title="QualityControl/Quality.h">
<polygon fill="none" stroke="black" points="543.507,-56.5 543.507,-75.5 664.507,-75.5 664.507,-56.5 543.507,-56.5"/>
<text text-anchor="middle" x="604.007" y="-63.5" font-family="Helvetica,sans-Serif" font-size="10.00">QualityControl/Quality.h</text>
</a>
</g>
</g>
<!-- Node10&#45;&gt;Node15 -->
<g id="edge16" class="edge"><title>Node10&#45;&gt;Node15</title>
<path fill="none" stroke="midnightblue" d="M604.007,-117.975C604.007,-109.58 604.007,-96.4806 604.007,-85.6631"/>
<polygon fill="midnightblue" stroke="midnightblue" points="607.507,-85.5091 604.007,-75.5091 600.507,-85.5091 607.507,-85.5091"/>
</g>
<!-- Node16 -->
<g id="node16" class="node"><title>Node16</title>
<g id="a_node16"><a xlink:href="TaskConfig_8h.html" target="_top" xlink:title="QualityControl/TaskConfig.h">
<polygon fill="none" stroke="black" points="347.007,-56.5 347.007,-75.5 487.007,-75.5 487.007,-56.5 347.007,-56.5"/>
<text text-anchor="middle" x="417.007" y="-63.5" font-family="Helvetica,sans-Serif" font-size="10.00">QualityControl/TaskConfig.h</text>
</a>
</g>
</g>
<!-- Node10&#45;&gt;Node16 -->
<g id="edge19" class="edge"><title>Node10&#45;&gt;Node16</title>
<path fill="none" stroke="midnightblue" d="M577.215,-117.975C544.721,-107.636 489.799,-90.1611 453.47,-78.6017"/>
<polygon fill="midnightblue" stroke="midnightblue" points="454.341,-75.2059 443.75,-75.5091 452.218,-81.8764 454.341,-75.2059"/>
</g>
<!-- Node11&#45;&gt;Node3 -->
<g id="edge12" class="edge"><title>Node11&#45;&gt;Node3</title>
<path fill="none" stroke="midnightblue" d="M774.877,-56.324C791.716,-47.6641 817.814,-34.2424 837.245,-24.249"/>
<polygon fill="midnightblue" stroke="midnightblue" points="838.887,-27.3405 846.179,-19.6545 835.686,-21.1155 838.887,-27.3405"/>
</g>
<!-- Node11&#45;&gt;Node5 -->
<g id="edge11" class="edge"><title>Node11&#45;&gt;Node5</title>
<path fill="none" stroke="midnightblue" d="M719.503,-56.4435C671.308,-45.7335 589.74,-27.6072 545.59,-17.7961"/>
<polygon fill="midnightblue" stroke="midnightblue" points="546.251,-14.3576 535.73,-15.6049 544.732,-21.191 546.251,-14.3576"/>
</g>
<!-- Node12 -->
<g id="node12" class="node"><title>Node12</title>
<polygon fill="none" stroke="#bfbfbf" points="601.007,-0.5 601.007,-19.5 657.007,-19.5 657.007,-0.5 601.007,-0.5"/>
<text text-anchor="middle" x="629.007" y="-7.5" font-family="Helvetica,sans-Serif" font-size="10.00">Rtypes.h</text>
</g>
<!-- Node11&#45;&gt;Node12 -->
<g id="edge13" class="edge"><title>Node11&#45;&gt;Node12</title>
<path fill="none" stroke="midnightblue" d="M737.567,-56.4435C716.337,-47.5566 682.908,-33.5632 658.752,-23.4514"/>
<polygon fill="midnightblue" stroke="midnightblue" points="659.928,-20.1493 649.352,-19.5164 657.225,-26.6064 659.928,-20.1493"/>
</g>
<!-- Node13 -->
<g id="node13" class="node"><title>Node13</title>
<polygon fill="none" stroke="#bfbfbf" points="919.507,-0.5 919.507,-19.5 978.507,-19.5 978.507,-0.5 919.507,-0.5"/>
<text text-anchor="middle" x="949.007" y="-7.5" font-family="Helvetica,sans-Serif" font-size="10.00">TObject.h</text>
</g>
<!-- Node11&#45;&gt;Node13 -->
<g id="edge14" class="edge"><title>Node11&#45;&gt;Node13</title>
<path fill="none" stroke="midnightblue" d="M788.272,-56.4435C821.059,-47.1739 873.496,-32.3487 909.507,-22.1675"/>
<polygon fill="midnightblue" stroke="midnightblue" points="910.528,-25.5162 919.199,-19.4275 908.624,-18.7802 910.528,-25.5162"/>
</g>
<!-- Node14 -->
<g id="node14" class="node"><title>Node14</title>
<polygon fill="none" stroke="#bfbfbf" points="700.007,-0.5 700.007,-19.5 816.007,-19.5 816.007,-0.5 700.007,-0.5"/>
<text text-anchor="middle" x="758.007" y="-7.5" font-family="Helvetica,sans-Serif" font-size="10.00">Common/Exceptions.h</text>
</g>
<!-- Node11&#45;&gt;Node14 -->
<g id="edge15" class="edge"><title>Node11&#45;&gt;Node14</title>
<path fill="none" stroke="midnightblue" d="M758.007,-56.083C758.007,-49.0059 758.007,-38.8611 758.007,-29.9865"/>
<polygon fill="midnightblue" stroke="midnightblue" points="761.507,-29.751 758.007,-19.7511 754.507,-29.7511 761.507,-29.751"/>
</g>
<!-- Node15&#45;&gt;Node5 -->
<g id="edge18" class="edge"><title>Node15&#45;&gt;Node5</title>
<path fill="none" stroke="midnightblue" d="M589.708,-56.324C575.824,-47.9002 554.515,-34.9709 538.204,-25.0741"/>
<polygon fill="midnightblue" stroke="midnightblue" points="539.636,-21.8495 529.271,-19.6545 536.005,-27.8341 539.636,-21.8495"/>
</g>
<!-- Node15&#45;&gt;Node12 -->
<g id="edge17" class="edge"><title>Node15&#45;&gt;Node12</title>
<path fill="none" stroke="midnightblue" d="M608.136,-56.083C611.521,-48.77 616.423,-38.1814 620.626,-29.1034"/>
<polygon fill="midnightblue" stroke="midnightblue" points="623.931,-30.2962 624.956,-19.7511 617.579,-27.3553 623.931,-30.2962"/>
</g>
<!-- Node16&#45;&gt;Node5 -->
<g id="edge20" class="edge"><title>Node16&#45;&gt;Node5</title>
<path fill="none" stroke="midnightblue" d="M432.753,-56.324C448.326,-47.7428 472.385,-34.486 490.467,-24.5224"/>
<polygon fill="midnightblue" stroke="midnightblue" points="492.232,-27.546 499.301,-19.6545 488.854,-21.4152 492.232,-27.546"/>
</g>
<!-- Node16&#45;&gt;Node6 -->
<g id="edge21" class="edge"><title>Node16&#45;&gt;Node6</title>
<path fill="none" stroke="midnightblue" d="M383.415,-56.4435C346.82,-47.1221 288.169,-32.1828 248.182,-21.9972"/>
<polygon fill="midnightblue" stroke="midnightblue" points="248.997,-18.5932 238.442,-19.5164 247.269,-25.3766 248.997,-18.5932"/>
</g>
<!-- Node18 -->
<g id="node18" class="node"><title>Node18</title>
<polygon fill="none" stroke="#bfbfbf" points="1098.01,-112.5 1098.01,-142.5 1240.01,-142.5 1240.01,-112.5 1098.01,-112.5"/>
<text text-anchor="start" x="1106.01" y="-130.5" font-family="Helvetica,sans-Serif" font-size="10.00">TOFReconstruction/Decoder</text>
<text text-anchor="middle" x="1169.01" y="-119.5" font-family="Helvetica,sans-Serif" font-size="10.00">Base.h</text>
</g>
<!-- Node17&#45;&gt;Node18 -->
<g id="edge25" class="edge"><title>Node17&#45;&gt;Node18</title>
<path fill="none" stroke="midnightblue" d="M1112.46,-179.475C1121.15,-171.643 1134.38,-159.714 1145.86,-149.366"/>
<polygon fill="midnightblue" stroke="midnightblue" points="1148.37,-151.818 1153.45,-142.523 1143.68,-146.619 1148.37,-151.818"/>
</g>
<!-- Node19 -->
<g id="node19" class="node"><title>Node19</title>
<polygon fill="none" stroke="#bfbfbf" points="1258.01,-112.5 1258.01,-142.5 1410.01,-142.5 1410.01,-112.5 1258.01,-112.5"/>
<text text-anchor="start" x="1266.01" y="-130.5" font-family="Helvetica,sans-Serif" font-size="10.00">DataFormatsTOF/Compressed</text>
<text text-anchor="middle" x="1334.01" y="-119.5" font-family="Helvetica,sans-Serif" font-size="10.00">DataFormat.h</text>
</g>
<!-- Node17&#45;&gt;Node19 -->
<g id="edge26" class="edge"><title>Node17&#45;&gt;Node19</title>
<path fill="none" stroke="midnightblue" d="M1136.1,-179.475C1170.83,-170.532 1226.28,-156.249 1269.66,-145.074"/>
<polygon fill="midnightblue" stroke="midnightblue" points="1270.75,-148.407 1279.57,-142.523 1269.01,-141.628 1270.75,-148.407"/>
</g>
<!-- Node20 -->
<g id="node20" class="node"><title>Node20</title>
<g id="a_node20"><a xlink:href="Counter_8h.html" target="_top" xlink:title="Base/Counter.h">
<polygon fill="none" stroke="black" points="994.507,-118 994.507,-137 1079.51,-137 1079.51,-118 994.507,-118"/>
<text text-anchor="middle" x="1037.01" y="-125" font-family="Helvetica,sans-Serif" font-size="10.00">Base/Counter.h</text>
</a>
</g>
</g>
<!-- Node17&#45;&gt;Node20 -->
<g id="edge27" class="edge"><title>Node17&#45;&gt;Node20</title>
<path fill="none" stroke="midnightblue" d="M1093.55,-179.475C1083.26,-170.197 1066.59,-155.171 1054.01,-143.831"/>
<polygon fill="midnightblue" stroke="midnightblue" points="1056.22,-141.105 1046.45,-137.009 1051.53,-146.305 1056.22,-141.105"/>
</g>
<!-- Node20&#45;&gt;Node13 -->
<g id="edge28" class="edge"><title>Node20&#45;&gt;Node13</title>
<path fill="none" stroke="midnightblue" d="M1027.3,-117.776C1016.89,-108.142 1000.22,-91.8838 988.007,-76 976.503,-61.0343 965.647,-42.4332 958.324,-28.9688"/>
<polygon fill="midnightblue" stroke="midnightblue" points="961.245,-27.0067 953.461,-19.8192 955.064,-30.2921 961.245,-27.0067"/>
</g>
<!-- Node21 -->
<g id="node21" class="node"><title>Node21</title>
<polygon fill="none" stroke="#bfbfbf" points="1164.01,-56.5 1164.01,-75.5 1208.01,-75.5 1208.01,-56.5 1164.01,-56.5"/>
<text text-anchor="middle" x="1186.01" y="-63.5" font-family="Helvetica,sans-Serif" font-size="10.00">TH1.h</text>
</g>
<!-- Node20&#45;&gt;Node21 -->
<g id="edge29" class="edge"><title>Node20&#45;&gt;Node21</title>
<path fill="none" stroke="midnightblue" d="M1058.36,-117.975C1083.69,-107.857 1126.15,-90.9046 1155.08,-79.3507"/>
<polygon fill="midnightblue" stroke="midnightblue" points="1156.71,-82.4681 1164.7,-75.5091 1154.11,-75.9673 1156.71,-82.4681"/>
</g>
<!-- Node22 -->
<g id="node22" class="node"><title>Node22</title>
<g id="a_node22"><a xlink:href="QcInfoLogger_8h.html" target="_top" xlink:title="QualityControl/QcInfoLogger.h">
<polygon fill="none" stroke="black" points="997.507,-56.5 997.507,-75.5 1146.51,-75.5 1146.51,-56.5 997.507,-56.5"/>
<text text-anchor="middle" x="1072.01" y="-63.5" font-family="Helvetica,sans-Serif" font-size="10.00">QualityControl/QcInfoLogger.h</text>
</a>
</g>
</g>
<!-- Node20&#45;&gt;Node22 -->
<g id="edge30" class="edge"><title>Node20&#45;&gt;Node22</title>
<path fill="none" stroke="midnightblue" d="M1042.02,-117.975C1047.17,-109.227 1055.32,-95.3691 1061.83,-84.3093"/>
<polygon fill="midnightblue" stroke="midnightblue" points="1064.95,-85.903 1067,-75.5091 1058.91,-82.3539 1064.95,-85.903"/>
</g>
<!-- Node23 -->
<g id="node23" class="node"><title>Node23</title>
<polygon fill="none" stroke="#bfbfbf" points="1007.01,-0.5 1007.01,-19.5 1137.01,-19.5 1137.01,-0.5 1007.01,-0.5"/>
<text text-anchor="middle" x="1072.01" y="-7.5" font-family="Helvetica,sans-Serif" font-size="10.00">InfoLogger/InfoLogger.hxx</text>
</g>
<!-- Node22&#45;&gt;Node23 -->
<g id="edge31" class="edge"><title>Node22&#45;&gt;Node23</title>
<path fill="none" stroke="midnightblue" d="M1072.01,-56.083C1072.01,-49.0059 1072.01,-38.8611 1072.01,-29.9865"/>
<polygon fill="midnightblue" stroke="midnightblue" points="1075.51,-29.751 1072.01,-19.7511 1068.51,-29.7511 1075.51,-29.751"/>
</g>
</g>
</svg>
        <g id="navigator" transform="translate(0 0)" fill="#404254">
                <rect fill="#f2f5e9" fill-opacity="0.5" stroke="#606060" stroke-width=".5" x="0" y="0" width="60" height="60"/>
                <use id="zoomplus" xlink:href="#zoomPlus" x="17" y="9" onmousedown="handleZoom(evt,'in')"/>
                <use id="zoomminus" xlink:href="#zoomMin" x="42" y="9" onmousedown="handleZoom(evt,'out')"/>
                <use id="reset" xlink:href="#resetDef" x="30" y="36" onmousedown="handleReset()"/>
                <g id="arrowUp" xlink:href="#dirArrow" transform="translate(30 24)" onmousedown="handlePan(0,-1)">
                  <use xlink:href="#rim" fill="#404040">
                        <set attributeName="fill" to="#808080" begin="arrowUp.mouseover" end="arrowUp.mouseout"/>
                  </use>
                  <path fill="none" stroke="white" stroke-width="1.5" d="M0,-3.0v7 M-2.5,-0.5L0,-3.0L2.5,-0.5"/>
                </g>
                <g id="arrowRight" xlink:href="#dirArrow" transform="rotate(90) translate(36 -43)" onmousedown="handlePan(1,0)">
                  <use xlink:href="#rim" fill="#404040">
                        <set attributeName="fill" to="#808080" begin="arrowRight.mouseover" end="arrowRight.mouseout"/>
                  </use>
                  <path fill="none" stroke="white" stroke-width="1.5" d="M0,-3.0v7 M-2.5,-0.5L0,-3.0L2.5,-0.5"/>
                </g>
                <g id="arrowDown" xlink:href="#dirArrow" transform="rotate(180) translate(-30 -48)" onmousedown="handlePan(0,1)">
                  <use xlink:href="#rim" fill="#404040">
                        <set attributeName="fill" to="#808080" begin="arrowDown.mouseover" end="arrowDown.mouseout"/>
                  </use>
                  <path fill="none" stroke="white" stroke-width="1.5" d="M0,-3.0v7 M-2.5,-0.5L0,-3.0L2.5,-0.5"/>
                </g>
                <g id="arrowLeft" xlink:href="#dirArrow" transform="rotate(270) translate(-36 17)" onmousedown="handlePan(-1,0)">
                  <use xlink:href="#rim" fill="#404040">
                        <set attributeName="fill" to="#808080" begin="arrowLeft.mouseover" end="arrowLeft.mouseout"/>
                  </use>
                  <path fill="none" stroke="white" stroke-width="1.5" d="M0,-3.0v7 M-2.5,-0.5L0,-3.0L2.5,-0.5"/>
                </g>
        </g>
        <svg viewBox="0 0 15 15" width="100%" height="30px" preserveAspectRatio="xMaxYMin meet">
         <g id="arrow_out" transform="scale(0.3 0.3)">
          <a xlink:href="TaskDiagnostics_8h__incl_org.svg" target="_base">
           <rect id="button" ry="5" rx="5" y="6" x="6" height="38" width="38"
                fill="#f2f5e9" fill-opacity="0.5" stroke="#606060" stroke-width="1.0"/>
           <path id="arrow"
             d="M 11.500037,31.436501 C 11.940474,20.09759 22.043105,11.32322 32.158766,21.979434 L 37.068811,17.246167 C 37.068811,17.246167 37.088388,32 37.088388,32 L 22.160133,31.978069 C 22.160133,31.978069 26.997745,27.140456 26.997745,27.140456 C 18.528582,18.264221 13.291696,25.230495 11.500037,31.436501 z"
             style="fill:#404040;"/>
          </a>
         </g>
        </svg>
</svg>
