<?xml version="1.0" encoding="UTF-8" standalone="no"?>
<!DOCTYPE svg PUBLIC "-//W3C//DTD SVG 1.1//EN"
 "http://www.w3.org/Graphics/SVG/1.1/DTD/svg11.dtd">
<!-- Generated by graphviz version 2.38.0 (20140413.2041)
 -->
<!-- Title: Modules/TOF/src/TaskDiagnostics.cxx Pages: 1 -->
<svg width="1567pt" height="319pt"
 viewBox="0.00 0.00 1566.50 319.00" xmlns="http://www.w3.org/2000/svg" xmlns:xlink="http://www.w3.org/1999/xlink">
<g id="graph0" class="graph" transform="scale(1 1) rotate(0) translate(4 315)">
<title>Modules/TOF/src/TaskDiagnostics.cxx</title>
<!-- Node1 -->
<g id="node1" class="node"><title>Node1</title>
<polygon fill="#bfbfbf" stroke="black" points="112,-291.5 112,-310.5 300,-310.5 300,-291.5 112,-291.5"/>
<text text-anchor="middle" x="206" y="-298.5" font-family="Helvetica,sans-Serif" font-size="10.00">Modules/TOF/src/TaskDiagnostics.cxx</text>
</g>
<!-- Node2 -->
<g id="node2" class="node"><title>Node2</title>
<polygon fill="none" stroke="#bfbfbf" points="16,-235.5 16,-254.5 66,-254.5 66,-235.5 16,-235.5"/>
<text text-anchor="middle" x="41" y="-242.5" font-family="Helvetica,sans-Serif" font-size="10.00">TH1F.h</text>
</g>
<!-- Node1&#45;&gt;Node2 -->
<g id="edge1" class="edge"><title>Node1&#45;&gt;Node2</title>
<path fill="none" stroke="midnightblue" d="M179.855,-291.444C151.731,-282.239 106.868,-267.557 75.7812,-257.383"/>
<polygon fill="midnightblue" stroke="midnightblue" points="76.8034,-254.035 66.2108,-254.251 74.6261,-260.688 76.8034,-254.035"/>
</g>
<!-- Node3 -->
<g id="node3" class="node"><title>Node3</title>
<polygon fill="none" stroke="#bfbfbf" points="84,-235.5 84,-254.5 134,-254.5 134,-235.5 84,-235.5"/>
<text text-anchor="middle" x="109" y="-242.5" font-family="Helvetica,sans-Serif" font-size="10.00">TH2F.h</text>
</g>
<!-- Node1&#45;&gt;Node3 -->
<g id="edge2" class="edge"><title>Node1&#45;&gt;Node3</title>
<path fill="none" stroke="midnightblue" d="M190.415,-291.324C175.001,-282.743 151.188,-269.486 133.29,-259.522"/>
<polygon fill="midnightblue" stroke="midnightblue" points="134.986,-256.461 124.546,-254.655 131.581,-262.577 134.986,-256.461"/>
</g>
<!-- Node4 -->
<g id="node4" class="node"><title>Node4</title>
<polygon fill="none" stroke="#bfbfbf" points="0,-112.5 0,-142.5 152,-142.5 152,-112.5 0,-112.5"/>
<text text-anchor="start" x="8" y="-130.5" font-family="Helvetica,sans-Serif" font-size="10.00">DataFormatsTOF/Compressed</text>
<text text-anchor="middle" x="76" y="-119.5" font-family="Helvetica,sans-Serif" font-size="10.00">DataFormat.h</text>
</g>
<!-- Node1&#45;&gt;Node4 -->
<g id="edge3" class="edge"><title>Node1&#45;&gt;Node4</title>
<path fill="none" stroke="midnightblue" d="M199.375,-291.26C179.879,-265.54 122.26,-189.528 93.1883,-151.175"/>
<polygon fill="midnightblue" stroke="midnightblue" points="95.6112,-148.578 86.7811,-142.723 90.0327,-152.806 95.6112,-148.578"/>
</g>
<!-- Node5 -->
<g id="node5" class="node"><title>Node5</title>
<polygon fill="none" stroke="#bfbfbf" points="368,-235.5 368,-254.5 502,-254.5 502,-235.5 368,-235.5"/>
<text text-anchor="middle" x="435" y="-242.5" font-family="Helvetica,sans-Serif" font-size="10.00">Framework/DataRefUtils.h</text>
</g>
<!-- Node1&#45;&gt;Node5 -->
<g id="edge4" class="edge"><title>Node1&#45;&gt;Node5</title>
<path fill="none" stroke="midnightblue" d="M242.286,-291.444C281.983,-282.083 345.707,-267.056 388.912,-256.868"/>
<polygon fill="midnightblue" stroke="midnightblue" points="389.954,-260.218 398.884,-254.516 388.348,-253.405 389.954,-260.218"/>
</g>
<!-- Node6 -->
<g id="node6" class="node"><title>Node6</title>
<g id="a_node6"><a xlink:href="QcInfoLogger_8h.html" target="_top" xlink:title="QualityControl/QcInfoLogger.h">
<polygon fill="none" stroke="black" points="234.5,-56.5 234.5,-75.5 383.5,-75.5 383.5,-56.5 234.5,-56.5"/>
<text text-anchor="middle" x="309" y="-63.5" font-family="Helvetica,sans-Serif" font-size="10.00">QualityControl/QcInfoLogger.h</text>
</a>
</g>
</g>
<!-- Node1&#45;&gt;Node6 -->
<g id="edge5" class="edge"><title>Node1&#45;&gt;Node6</title>
<path fill="none" stroke="midnightblue" d="M263.779,-291.445C285.44,-285.122 307.947,-274.125 321,-255 356.911,-202.386 331.231,-121.006 316.893,-85.0885"/>
<polygon fill="midnightblue" stroke="midnightblue" points="320.123,-83.7398 313.049,-75.8525 313.66,-86.4297 320.123,-83.7398"/>
</g>
<!-- Node8 -->
<g id="node8" class="node"><title>Node8</title>
<g id="a_node8"><a xlink:href="TaskDiagnostics_8h.html" target="_top" xlink:title="TOF/TaskDiagnostics.h">
<polygon fill="none" stroke="black" points="190.5,-235.5 190.5,-254.5 311.5,-254.5 311.5,-235.5 190.5,-235.5"/>
<text text-anchor="middle" x="251" y="-242.5" font-family="Helvetica,sans-Serif" font-size="10.00">TOF/TaskDiagnostics.h</text>
</a>
</g>
</g>
<!-- Node1&#45;&gt;Node8 -->
<g id="edge7" class="edge"><title>Node1&#45;&gt;Node8</title>
<path fill="none" stroke="midnightblue" d="M213.431,-291.083C219.853,-283.377 229.306,-272.033 237.122,-262.653"/>
<polygon fill="midnightblue" stroke="midnightblue" points="239.994,-264.674 243.707,-254.751 234.617,-260.193 239.994,-264.674"/>
</g>
<!-- Node7 -->
<g id="node7" class="node"><title>Node7</title>
<polygon fill="none" stroke="#bfbfbf" points="244,-0.5 244,-19.5 374,-19.5 374,-0.5 244,-0.5"/>
<text text-anchor="middle" x="309" y="-7.5" font-family="Helvetica,sans-Serif" font-size="10.00">InfoLogger/InfoLogger.hxx</text>
</g>
<!-- Node6&#45;&gt;Node7 -->
<g id="edge6" class="edge"><title>Node6&#45;&gt;Node7</title>
<path fill="none" stroke="midnightblue" d="M309,-56.083C309,-49.0059 309,-38.8611 309,-29.9865"/>
<polygon fill="midnightblue" stroke="midnightblue" points="312.5,-29.751 309,-19.7511 305.5,-29.7511 312.5,-29.751"/>
</g>
<!-- Node9 -->
<g id="node9" class="node"><title>Node9</title>
<g id="a_node9"><a xlink:href="TaskInterface_8h.html" target="_top" xlink:title="QualityControl/TaskInterface.h">
<polygon fill="none" stroke="black" points="823,-179.5 823,-198.5 973,-198.5 973,-179.5 823,-179.5"/>
<text text-anchor="middle" x="898" y="-186.5" font-family="Helvetica,sans-Serif" font-size="10.00">QualityControl/TaskInterface.h</text>
</a>
</g>
</g>
<!-- Node8&#45;&gt;Node9 -->
<g id="edge8" class="edge"><title>Node8&#45;&gt;Node9</title>
<path fill="none" stroke="midnightblue" d="M311.577,-238.944C427.308,-229.285 680.103,-208.186 812.8,-197.111"/>
<polygon fill="midnightblue" stroke="midnightblue" points="813.248,-200.586 822.922,-196.266 812.666,-193.61 813.248,-200.586"/>
</g>
<!-- Node24 -->
<g id="node24" class="node"><title>Node24</title>
<g id="a_node24"><a xlink:href="Diagnostics_8h.html" target="_top" xlink:title="TOF/Diagnostics.h">
<polygon fill="none" stroke="black" points="196.5,-179.5 196.5,-198.5 295.5,-198.5 295.5,-179.5 196.5,-179.5"/>
<text text-anchor="middle" x="246" y="-186.5" font-family="Helvetica,sans-Serif" font-size="10.00">TOF/Diagnostics.h</text>
</a>
</g>
</g>
<!-- Node8&#45;&gt;Node24 -->
<g id="edge31" class="edge"><title>Node8&#45;&gt;Node24</title>
<path fill="none" stroke="midnightblue" d="M250.174,-235.083C249.519,-228.006 248.58,-217.861 247.758,-208.986"/>
<polygon fill="midnightblue" stroke="midnightblue" points="251.217,-208.386 246.81,-198.751 244.247,-209.031 251.217,-208.386"/>
</g>
<!-- Node10 -->
<g id="node10" class="node"><title>Node10</title>
<polygon fill="none" stroke="#bfbfbf" points="533.5,-0.5 533.5,-19.5 568.5,-19.5 568.5,-0.5 533.5,-0.5"/>
<text text-anchor="middle" x="551" y="-7.5" font-family="Helvetica,sans-Serif" font-size="10.00">map</text>
</g>
<!-- Node9&#45;&gt;Node10 -->
<g id="edge9" class="edge"><title>Node9&#45;&gt;Node10</title>
<path fill="none" stroke="midnightblue" d="M840.468,-179.456C745.876,-164.039 564.506,-128.242 530,-76 520.335,-61.3672 528.843,-41.9511 537.753,-28.1602"/>
<polygon fill="midnightblue" stroke="midnightblue" points="540.861,-29.8273 543.769,-19.6392 535.142,-25.7903 540.861,-29.8273"/>
</g>
<!-- Node11 -->
<g id="node11" class="node"><title>Node11</title>
<polygon fill="none" stroke="#bfbfbf" points="539,-56.5 539,-75.5 591,-75.5 591,-56.5 539,-56.5"/>
<text text-anchor="middle" x="565" y="-63.5" font-family="Helvetica,sans-Serif" font-size="10.00">memory</text>
</g>
<!-- Node9&#45;&gt;Node11 -->
<g id="edge10" class="edge"><title>Node9&#45;&gt;Node11</title>
<path fill="none" stroke="midnightblue" d="M874.584,-179.492C816.569,-158.411 665.999,-103.699 598.543,-79.1884"/>
<polygon fill="midnightblue" stroke="midnightblue" points="599.43,-75.7867 588.836,-75.661 597.039,-82.3658 599.43,-75.7867"/>
</g>
<!-- Node12 -->
<g id="node12" class="node"><title>Node12</title>
<polygon fill="none" stroke="#bfbfbf" points="857.5,-0.5 857.5,-19.5 898.5,-19.5 898.5,-0.5 857.5,-0.5"/>
<text text-anchor="middle" x="878" y="-7.5" font-family="Helvetica,sans-Serif" font-size="10.00">string</text>
</g>
<!-- Node9&#45;&gt;Node12 -->
<g id="edge11" class="edge"><title>Node9&#45;&gt;Node12</title>
<path fill="none" stroke="midnightblue" d="M861.298,-179.349C842.166,-172.775 820.428,-161.583 809,-143 788.746,-110.063 790.583,-89.9988 809,-56 817.326,-40.6299 833.43,-29.6786 847.988,-22.4303"/>
<polygon fill="midnightblue" stroke="midnightblue" points="849.601,-25.5411 857.233,-18.1927 846.685,-19.1776 849.601,-25.5411"/>
</g>
<!-- Node13 -->
<g id="node13" class="node"><title>Node13</title>
<polygon fill="none" stroke="#bfbfbf" points="1072.5,-0.5 1072.5,-19.5 1155.5,-19.5 1155.5,-0.5 1072.5,-0.5"/>
<text text-anchor="middle" x="1114" y="-7.5" font-family="Helvetica,sans-Serif" font-size="10.00">unordered_map</text>
</g>
<!-- Node9&#45;&gt;Node13 -->
<g id="edge12" class="edge"><title>Node9&#45;&gt;Node13</title>
<path fill="none" stroke="midnightblue" d="M926.289,-179.374C985.45,-160.702 1118.86,-115.068 1144,-76 1154.03,-60.4203 1142.2,-40.9461 1130.58,-27.3949"/>
<polygon fill="midnightblue" stroke="midnightblue" points="1132.92,-24.7746 1123.56,-19.8105 1127.78,-29.5281 1132.92,-24.7746"/>
</g>
<!-- Node14 -->
<g id="node14" class="node"><title>Node14</title>
<polygon fill="none" stroke="#bfbfbf" points="1113.5,-118 1113.5,-137 1238.5,-137 1238.5,-118 1113.5,-118"/>
<text text-anchor="middle" x="1176" y="-125" font-family="Helvetica,sans-Serif" font-size="10.00">Framework/InitContext.h</text>
</g>
<!-- Node9&#45;&gt;Node14 -->
<g id="edge13" class="edge"><title>Node9&#45;&gt;Node14</title>
<path fill="none" stroke="midnightblue" d="M937.831,-179.475C987.479,-168.849 1072.35,-150.685 1126.23,-139.152"/>
<polygon fill="midnightblue" stroke="midnightblue" points="1127.2,-142.525 1136.24,-137.009 1125.73,-135.68 1127.2,-142.525"/>
</g>
<!-- Node15 -->
<g id="node15" class="node"><title>Node15</title>
<polygon fill="none" stroke="#bfbfbf" points="1257,-118 1257,-137 1417,-137 1417,-118 1257,-118"/>
<text text-anchor="middle" x="1337" y="-125" font-family="Helvetica,sans-Serif" font-size="10.00">Framework/ProcessingContext.h</text>
</g>
<!-- Node9&#45;&gt;Node15 -->
<g id="edge14" class="edge"><title>Node9&#45;&gt;Node15</title>
<path fill="none" stroke="midnightblue" d="M969.821,-179.482C1040.64,-170.915 1151.91,-157.001 1248,-143 1257.31,-141.643 1267.16,-140.124 1276.78,-138.593"/>
<polygon fill="midnightblue" stroke="midnightblue" points="1277.37,-142.044 1286.68,-137.001 1276.25,-135.132 1277.37,-142.044"/>
</g>
<!-- Node16 -->
<g id="node16" class="node"><title>Node16</title>
<g id="a_node16"><a xlink:href="Activity_8h.html" target="_top" xlink:title="QualityControl/Activity.h">
<polygon fill="none" stroke="black" points="1435.5,-118 1435.5,-137 1558.5,-137 1558.5,-118 1435.5,-118"/>
<text text-anchor="middle" x="1497" y="-125" font-family="Helvetica,sans-Serif" font-size="10.00">QualityControl/Activity.h</text>
</a>
</g>
</g>
<!-- Node9&#45;&gt;Node16 -->
<g id="edge15" class="edge"><title>Node9&#45;&gt;Node16</title>
<path fill="none" stroke="midnightblue" d="M973.072,-184.358C1075.74,-178.751 1265.51,-166.147 1426,-143 1433.53,-141.914 1441.47,-140.531 1449.2,-139.053"/>
<polygon fill="midnightblue" stroke="midnightblue" points="1450.06,-142.45 1459.19,-137.072 1448.7,-135.584 1450.06,-142.45"/>
</g>
<!-- Node17 -->
<g id="node17" class="node"><title>Node17</title>
<g id="a_node17"><a xlink:href="ObjectsManager_8h.html" target="_top" xlink:title="QualityControl/ObjectsManager.h">
<polygon fill="none" stroke="black" points="817.5,-118 817.5,-137 978.5,-137 978.5,-118 817.5,-118"/>
<text text-anchor="middle" x="898" y="-125" font-family="Helvetica,sans-Serif" font-size="10.00">QualityControl/ObjectsManager.h</text>
</a>
</g>
</g>
<!-- Node9&#45;&gt;Node17 -->
<g id="edge16" class="edge"><title>Node9&#45;&gt;Node17</title>
<path fill="none" stroke="midnightblue" d="M898,-179.475C898,-171.08 898,-157.981 898,-147.163"/>
<polygon fill="midnightblue" stroke="midnightblue" points="901.5,-147.009 898,-137.009 894.5,-147.009 901.5,-147.009"/>
</g>
<!-- Node17&#45;&gt;Node11 -->
<g id="edge30" class="edge"><title>Node17&#45;&gt;Node11</title>
<path fill="none" stroke="midnightblue" d="M839.983,-117.981C782.106,-109.179 690.461,-94.4235 601.307,-75.9169"/>
<polygon fill="midnightblue" stroke="midnightblue" points="601.798,-72.4439 591.292,-73.8199 600.363,-79.2953 601.798,-72.4439"/>
</g>
<!-- Node17&#45;&gt;Node12 -->
<g id="edge29" class="edge"><title>Node17&#45;&gt;Node12</title>
<path fill="none" stroke="midnightblue" d="M912.026,-117.817C930.965,-104.93 960.943,-79.7066 948,-56 939.481,-40.3969 922.98,-29.397 908.138,-22.1798"/>
<polygon fill="midnightblue" stroke="midnightblue" points="909.282,-18.8577 898.724,-17.9731 906.426,-25.2486 909.282,-18.8577"/>
</g>
<!-- Node18 -->
<g id="node18" class="node"><title>Node18</title>
<g id="a_node18"><a xlink:href="MonitorObject_8h.html" target="_top" xlink:title="QualityControl/MonitorObject.h">
<polygon fill="none" stroke="black" points="609.5,-56.5 609.5,-75.5 760.5,-75.5 760.5,-56.5 609.5,-56.5"/>
<text text-anchor="middle" x="685" y="-63.5" font-family="Helvetica,sans-Serif" font-size="10.00">QualityControl/MonitorObject.h</text>
</a>
</g>
</g>
<!-- Node17&#45;&gt;Node18 -->
<g id="edge17" class="edge"><title>Node17&#45;&gt;Node18</title>
<path fill="none" stroke="midnightblue" d="M867.482,-117.975C830.075,-107.526 766.573,-89.7868 725.213,-78.2332"/>
<polygon fill="midnightblue" stroke="midnightblue" points="726.034,-74.8286 715.461,-75.5091 724.151,-81.5705 726.034,-74.8286"/>
</g>
<!-- Node22 -->
<g id="node22" class="node"><title>Node22</title>
<g id="a_node22"><a xlink:href="Quality_8h.html" target="_top" xlink:title="QualityControl/Quality.h">
<polygon fill="none" stroke="black" points="817.5,-56.5 817.5,-75.5 938.5,-75.5 938.5,-56.5 817.5,-56.5"/>
<text text-anchor="middle" x="878" y="-63.5" font-family="Helvetica,sans-Serif" font-size="10.00">QualityControl/Quality.h</text>
</a>
</g>
</g>
<!-- Node17&#45;&gt;Node22 -->
<g id="edge23" class="edge"><title>Node17&#45;&gt;Node22</title>
<path fill="none" stroke="midnightblue" d="M895.134,-117.975C892.283,-109.492 887.817,-96.2043 884.159,-85.3222"/>
<polygon fill="midnightblue" stroke="midnightblue" points="887.364,-83.8727 880.86,-75.5091 880.729,-86.1031 887.364,-83.8727"/>
</g>
<!-- Node23 -->
<g id="node23" class="node"><title>Node23</title>
<g id="a_node23"><a xlink:href="TaskConfig_8h.html" target="_top" xlink:title="QualityControl/TaskConfig.h">
<polygon fill="none" stroke="black" points="995,-56.5 995,-75.5 1135,-75.5 1135,-56.5 995,-56.5"/>
<text text-anchor="middle" x="1065" y="-63.5" font-family="Helvetica,sans-Serif" font-size="10.00">QualityControl/TaskConfig.h</text>
</a>
</g>
</g>
<!-- Node17&#45;&gt;Node23 -->
<g id="edge26" class="edge"><title>Node17&#45;&gt;Node23</title>
<path fill="none" stroke="midnightblue" d="M921.927,-117.975C950.697,-107.725 999.156,-90.4593 1031.6,-78.8994"/>
<polygon fill="midnightblue" stroke="midnightblue" points="1032.87,-82.1624 1041.12,-75.5091 1030.52,-75.5684 1032.87,-82.1624"/>
</g>
<!-- Node18&#45;&gt;Node10 -->
<g id="edge19" class="edge"><title>Node18&#45;&gt;Node10</title>
<path fill="none" stroke="midnightblue" d="M663.767,-56.4435C640.574,-47.097 603.365,-32.1023 578.086,-21.9151"/>
<polygon fill="midnightblue" stroke="midnightblue" points="579.293,-18.6283 568.71,-18.1368 576.677,-25.121 579.293,-18.6283"/>
</g>
<!-- Node18&#45;&gt;Node12 -->
<g id="edge18" class="edge"><title>Node18&#45;&gt;Node12</title>
<path fill="none" stroke="midnightblue" d="M715.581,-56.4435C751.666,-46.3474 811.306,-29.6606 847.399,-19.562"/>
<polygon fill="midnightblue" stroke="midnightblue" points="848.666,-22.8418 857.353,-16.7767 846.78,-16.1007 848.666,-22.8418"/>
</g>
<!-- Node19 -->
<g id="node19" class="node"><title>Node19</title>
<polygon fill="none" stroke="#bfbfbf" points="772,-0.5 772,-19.5 828,-19.5 828,-0.5 772,-0.5"/>
<text text-anchor="middle" x="800" y="-7.5" font-family="Helvetica,sans-Serif" font-size="10.00">Rtypes.h</text>
</g>
<!-- Node18&#45;&gt;Node19 -->
<g id="edge20" class="edge"><title>Node18&#45;&gt;Node19</title>
<path fill="none" stroke="midnightblue" d="M703.222,-56.4435C721.896,-47.6751 751.156,-33.9355 772.617,-23.8579"/>
<polygon fill="midnightblue" stroke="midnightblue" points="774.299,-26.935 781.863,-19.5164 771.324,-20.5988 774.299,-26.935"/>
</g>
<!-- Node20 -->
<g id="node20" class="node"><title>Node20</title>
<polygon fill="none" stroke="#bfbfbf" points="444.5,-0.5 444.5,-19.5 503.5,-19.5 503.5,-0.5 444.5,-0.5"/>
<text text-anchor="middle" x="474" y="-7.5" font-family="Helvetica,sans-Serif" font-size="10.00">TObject.h</text>
</g>
<!-- Node18&#45;&gt;Node20 -->
<g id="edge21" class="edge"><title>Node18&#45;&gt;Node20</title>
<path fill="none" stroke="midnightblue" d="M651.566,-56.4435C614.045,-46.8409 553.228,-31.2763 513.421,-21.0887"/>
<polygon fill="midnightblue" stroke="midnightblue" points="514.088,-17.6467 503.532,-18.558 512.352,-24.4281 514.088,-17.6467"/>
</g>
<!-- Node21 -->
<g id="node21" class="node"><title>Node21</title>
<polygon fill="none" stroke="#bfbfbf" points="627,-0.5 627,-19.5 743,-19.5 743,-0.5 627,-0.5"/>
<text text-anchor="middle" x="685" y="-7.5" font-family="Helvetica,sans-Serif" font-size="10.00">Common/Exceptions.h</text>
</g>
<!-- Node18&#45;&gt;Node21 -->
<g id="edge22" class="edge"><title>Node18&#45;&gt;Node21</title>
<path fill="none" stroke="midnightblue" d="M685,-56.083C685,-49.0059 685,-38.8611 685,-29.9865"/>
<polygon fill="midnightblue" stroke="midnightblue" points="688.5,-29.751 685,-19.7511 681.5,-29.7511 688.5,-29.751"/>
</g>
<!-- Node22&#45;&gt;Node12 -->
<g id="edge25" class="edge"><title>Node22&#45;&gt;Node12</title>
<path fill="none" stroke="midnightblue" d="M878,-56.083C878,-49.0059 878,-38.8611 878,-29.9865"/>
<polygon fill="midnightblue" stroke="midnightblue" points="881.5,-29.751 878,-19.7511 874.5,-29.7511 881.5,-29.751"/>
</g>
<!-- Node22&#45;&gt;Node19 -->
<g id="edge24" class="edge"><title>Node22&#45;&gt;Node19</title>
<path fill="none" stroke="midnightblue" d="M865.468,-56.324C853.414,-47.979 834.973,-35.2122 820.731,-25.3524"/>
<polygon fill="midnightblue" stroke="midnightblue" points="822.715,-22.469 812.501,-19.6545 818.731,-28.2243 822.715,-22.469"/>
</g>
<!-- Node23&#45;&gt;Node12 -->
<g id="edge27" class="edge"><title>Node23&#45;&gt;Node12</title>
<path fill="none" stroke="midnightblue" d="M1035.37,-56.4435C1000.59,-46.4015 943.24,-29.8394 908.215,-19.7251"/>
<polygon fill="midnightblue" stroke="midnightblue" points="909.117,-16.3426 898.538,-16.9308 907.174,-23.0678 909.117,-16.3426"/>
</g>
<!-- Node23&#45;&gt;Node13 -->
<g id="edge28" class="edge"><title>Node23&#45;&gt;Node13</title>
<path fill="none" stroke="midnightblue" d="M1073.09,-56.083C1080.16,-48.2982 1090.59,-36.8015 1099.15,-27.3665"/>
<polygon fill="midnightblue" stroke="midnightblue" points="1101.93,-29.5087 1106.06,-19.7511 1096.75,-24.8047 1101.93,-29.5087"/>
</g>
<!-- Node24&#45;&gt;Node4 -->
<g id="edge33" class="edge"><title>Node24&#45;&gt;Node4</title>
<path fill="none" stroke="midnightblue" d="M221.643,-179.475C196.682,-170.739 157.164,-156.907 125.586,-145.855"/>
<polygon fill="midnightblue" stroke="midnightblue" points="126.66,-142.523 116.066,-142.523 124.348,-149.13 126.66,-142.523"/>
</g>
<!-- Node25 -->
<g id="node25" class="node"><title>Node25</title>
<polygon fill="none" stroke="#bfbfbf" points="170,-112.5 170,-142.5 312,-142.5 312,-112.5 170,-112.5"/>
<text text-anchor="start" x="178" y="-130.5" font-family="Helvetica,sans-Serif" font-size="10.00">TOFReconstruction/Decoder</text>
<text text-anchor="middle" x="241" y="-119.5" font-family="Helvetica,sans-Serif" font-size="10.00">Base.h</text>
</g>
<!-- Node24&#45;&gt;Node25 -->
<g id="edge32" class="edge"><title>Node24&#45;&gt;Node25</title>
<path fill="none" stroke="midnightblue" d="M245.284,-179.475C244.695,-172.471 243.831,-162.192 243.033,-152.696"/>
<polygon fill="midnightblue" stroke="midnightblue" points="246.504,-152.195 242.178,-142.523 239.528,-152.781 246.504,-152.195"/>
</g>
<!-- Node26 -->
<g id="node26" class="node"><title>Node26</title>
<g id="a_node26"><a xlink:href="Counter_8h.html" target="_top" xlink:title="Base/Counter.h">
<polygon fill="none" stroke="black" points="368.5,-118 368.5,-137 453.5,-137 453.5,-118 368.5,-118"/>
<text text-anchor="middle" x="411" y="-125" font-family="Helvetica,sans-Serif" font-size="10.00">Base/Counter.h</text>
</a>
</g>
</g>
<!-- Node24&#45;&gt;Node26 -->
<g id="edge34" class="edge"><title>Node24&#45;&gt;Node26</title>
<path fill="none" stroke="midnightblue" d="M269.64,-179.475C297.944,-169.269 345.533,-152.108 377.586,-140.549"/>
<polygon fill="midnightblue" stroke="midnightblue" points="379.184,-143.694 387.403,-137.009 376.809,-137.109 379.184,-143.694"/>
</g>
<!-- Node26&#45;&gt;Node6 -->
<g id="edge37" class="edge"><title>Node26&#45;&gt;Node6</title>
<path fill="none" stroke="midnightblue" d="M396.386,-117.975C379.647,-108.211 351.996,-92.0807 332.281,-80.5808"/>
<polygon fill="midnightblue" stroke="midnightblue" points="333.988,-77.5246 323.587,-75.5091 330.461,-83.5711 333.988,-77.5246"/>
</g>
<!-- Node26&#45;&gt;Node20 -->
<g id="edge35" class="edge"><title>Node26&#45;&gt;Node20</title>
<path fill="none" stroke="midnightblue" d="M411.919,-117.714C413.68,-103.815 418.437,-76.2563 430,-56 436.387,-44.8116 446.224,-34.3837 454.978,-26.389"/>
<polygon fill="midnightblue" stroke="midnightblue" points="457.332,-28.9807 462.584,-19.7791 452.74,-23.6972 457.332,-28.9807"/>
</g>
<!-- Node27 -->
<g id="node27" class="node"><title>Node27</title>
<polygon fill="none" stroke="#bfbfbf" points="439,-56.5 439,-75.5 483,-75.5 483,-56.5 439,-56.5"/>
<text text-anchor="middle" x="461" y="-63.5" font-family="Helvetica,sans-Serif" font-size="10.00">TH1.h</text>
</g>
<!-- Node26&#45;&gt;Node27 -->
<g id="edge36" class="edge"><title>Node26&#45;&gt;Node27</title>
<path fill="none" stroke="midnightblue" d="M418.164,-117.975C425.738,-108.962 437.87,-94.5246 447.293,-83.3118"/>
<polygon fill="midnightblue" stroke="midnightblue" points="450.096,-85.4166 453.85,-75.5091 444.737,-80.9132 450.096,-85.4166"/>
</g>
</g>
</svg>
