<?xml version="1.0" encoding="UTF-8" standalone="no"?>
<!DOCTYPE svg PUBLIC "-//W3C//DTD SVG 1.1//EN"
 "http://www.w3.org/Graphics/SVG/1.1/DTD/svg11.dtd">
<!-- Generated by graphviz version 2.38.0 (20140413.2041)
 -->
<!-- Title: Framework/include/QualityControl/TaskRunner.h Pages: 1 -->
<!--zoomable 263 -->
<svg id="main" version="1.1" xmlns="http://www.w3.org/2000/svg" xmlns:xlink="http://www.w3.org/1999/xlink" xml:space="preserve" onload="init(evt)">
<style type="text/css"><![CDATA[
.edge:hover path { stroke: red; }
.edge:hover polygon { stroke: red; fill: red; }
]]></style>
<script type="text/javascript"><![CDATA[
var edges = document.getElementsByTagName('g');
if (edges && edges.length) {
  for (var i=0;i<edges.length;i++) {
    if (edges[i].id.substr(0,4)=='edge') {
      edges[i].setAttribute('class','edge');
    }
  }
}
]]></script>
        <defs>
                <circle id="rim" cx="0" cy="0" r="7"/>
                <circle id="rim2" cx="0" cy="0" r="3.5"/>
                <g id="zoomPlus">
                        <use xlink:href="#rim" fill="#404040">
                                <set attributeName="fill" to="#808080" begin="zoomplus.mouseover" end="zoomplus.mouseout"/>
                        </use>
                        <path d="M-4,0h8M0,-4v8" fill="none" stroke="white" stroke-width="1.5" pointer-events="none"/>
                </g>
                <g id="zoomMin">
                        <use xlink:href="#rim" fill="#404040">
                                <set attributeName="fill" to="#808080" begin="zoomminus.mouseover" end="zoomminus.mouseout"/>
                        </use>
                        <path d="M-4,0h8" fill="none" stroke="white" stroke-width="1.5" pointer-events="none"/>
                </g>
                <g id="dirArrow">
                        <path fill="none" stroke="white" stroke-width="1.5" d="M0,-3.0v7 M-2.5,-0.5L0,-3.0L2.5,-0.5"/>
                </g>
               <g id="resetDef">
                       <use xlink:href="#rim2" fill="#404040">
                               <set attributeName="fill" to="#808080" begin="reset.mouseover" end="reset.mouseout"/>
                       </use>
               </g>
        </defs>

<script type="text/javascript">
var viewWidth = 1867;
var viewHeight = 263;
var sectionId = 'dynsection-0';
</script>
<script xlink:href="svgpan.js"/>
<svg id="graph" class="graph">
<g id="viewport">
<title>Framework/include/QualityControl/TaskRunner.h</title>
<!-- Node1 -->
<g id="node1" class="node"><title>Node1</title>
<polygon fill="#bfbfbf" stroke="black" points="508.5,-224.5 508.5,-254.5 641.5,-254.5 641.5,-224.5 508.5,-224.5"/>
<text text-anchor="start" x="516.5" y="-242.5" font-family="Helvetica,sans-Serif" font-size="10.00">Framework/include/Quality</text>
<text text-anchor="middle" x="575" y="-231.5" font-family="Helvetica,sans-Serif" font-size="10.00">Control/TaskRunner.h</text>
</g>
<!-- Node2 -->
<g id="node2" class="node"><title>Node2</title>
<polygon fill="none" stroke="#bfbfbf" points="0,-168.5 0,-187.5 92,-187.5 92,-168.5 0,-168.5"/>
<text text-anchor="middle" x="46" y="-175.5" font-family="Helvetica,sans-Serif" font-size="10.00">Common/Timer.h</text>
</g>
<!-- Node1&#45;&gt;Node2 -->
<g id="edge1" class="edge"><title>Node1&#45;&gt;Node2</title>
<path fill="none" stroke="midnightblue" d="M508.135,-232.567C418.194,-224.322 253.042,-208.249 102.106,-188.084"/>
<polygon fill="midnightblue" stroke="midnightblue" points="102.563,-184.614 92.1854,-186.75 101.63,-191.552 102.563,-184.614"/>
</g>
<!-- Node3 -->
<g id="node3" class="node"><title>Node3</title>
<polygon fill="none" stroke="#bfbfbf" points="110,-168.5 110,-187.5 208,-187.5 208,-168.5 110,-168.5"/>
<text text-anchor="middle" x="159" y="-175.5" font-family="Helvetica,sans-Serif" font-size="10.00">Framework/Task.h</text>
</g>
<!-- Node1&#45;&gt;Node3 -->
<g id="edge2" class="edge"><title>Node1&#45;&gt;Node3</title>
<path fill="none" stroke="midnightblue" d="M508.32,-229.374C438.569,-219.765 325.613,-204.025 218.093,-188.146"/>
<polygon fill="midnightblue" stroke="midnightblue" points="218.445,-184.66 208.04,-186.658 217.42,-191.584 218.445,-184.66"/>
</g>
<!-- Node4 -->
<g id="node4" class="node"><title>Node4</title>
<polygon fill="none" stroke="#bfbfbf" points="226,-168.5 226,-187.5 390,-187.5 390,-168.5 226,-168.5"/>
<text text-anchor="middle" x="308" y="-175.5" font-family="Helvetica,sans-Serif" font-size="10.00">Framework/DataProcessorSpec.h</text>
</g>
<!-- Node1&#45;&gt;Node4 -->
<g id="edge3" class="edge"><title>Node1&#45;&gt;Node4</title>
<path fill="none" stroke="midnightblue" d="M512.063,-224.475C464.29,-213.829 399.6,-199.413 355.967,-189.689"/>
<polygon fill="midnightblue" stroke="midnightblue" points="356.693,-186.265 346.171,-187.506 355.171,-193.098 356.693,-186.265"/>
</g>
<!-- Node5 -->
<g id="node5" class="node"><title>Node5</title>
<polygon fill="none" stroke="#bfbfbf" points="408.5,-168.5 408.5,-187.5 561.5,-187.5 561.5,-168.5 408.5,-168.5"/>
<text text-anchor="middle" x="485" y="-175.5" font-family="Helvetica,sans-Serif" font-size="10.00">Framework/CompletionPolicy.h</text>
</g>
<!-- Node1&#45;&gt;Node5 -->
<g id="edge4" class="edge"><title>Node1&#45;&gt;Node5</title>
<path fill="none" stroke="midnightblue" d="M553.671,-224.399C539.515,-215.04 520.989,-202.792 506.747,-193.377"/>
<polygon fill="midnightblue" stroke="midnightblue" points="508.368,-190.253 498.096,-187.658 504.507,-196.092 508.368,-190.253"/>
</g>
<!-- Node6 -->
<g id="node6" class="node"><title>Node6</title>
<polygon fill="none" stroke="#bfbfbf" points="580,-168.5 580,-187.5 750,-187.5 750,-168.5 580,-168.5"/>
<text text-anchor="middle" x="665" y="-175.5" font-family="Helvetica,sans-Serif" font-size="10.00">Framework/EndOfStreamContext.h</text>
</g>
<!-- Node1&#45;&gt;Node6 -->
<g id="edge5" class="edge"><title>Node1&#45;&gt;Node6</title>
<path fill="none" stroke="midnightblue" d="M596.329,-224.399C610.485,-215.04 629.011,-202.792 643.253,-193.377"/>
<polygon fill="midnightblue" stroke="midnightblue" points="645.493,-196.092 651.904,-187.658 641.632,-190.253 645.493,-196.092"/>
</g>
<!-- Node7 -->
<g id="node7" class="node"><title>Node7</title>
<polygon fill="none" stroke="#bfbfbf" points="768.5,-168.5 768.5,-187.5 885.5,-187.5 885.5,-168.5 768.5,-168.5"/>
<text text-anchor="middle" x="827" y="-175.5" font-family="Helvetica,sans-Serif" font-size="10.00">Headers/DataHeader.h</text>
</g>
<!-- Node1&#45;&gt;Node7 -->
<g id="edge6" class="edge"><title>Node1&#45;&gt;Node7</title>
<path fill="none" stroke="midnightblue" d="M634.401,-224.475C679.3,-213.874 740.032,-199.534 781.207,-189.812"/>
<polygon fill="midnightblue" stroke="midnightblue" points="782.045,-193.211 790.973,-187.506 780.436,-186.398 782.045,-193.211"/>
</g>
<!-- Node8 -->
<g id="node8" class="node"><title>Node8</title>
<g id="a_node8"><a xlink:href="TaskConfig_8h.html" target="_top" xlink:title="QualityControl/TaskConfig.h">
<polygon fill="none" stroke="black" points="980,-56.5 980,-75.5 1120,-75.5 1120,-56.5 980,-56.5"/>
<text text-anchor="middle" x="1050" y="-63.5" font-family="Helvetica,sans-Serif" font-size="10.00">QualityControl/TaskConfig.h</text>
</a>
</g>
</g>
<!-- Node1&#45;&gt;Node8 -->
<g id="edge7" class="edge"><title>Node1&#45;&gt;Node8</title>
<path fill="none" stroke="midnightblue" d="M641.509,-237.537C707.962,-234.412 811.791,-223.57 894,-188 953.011,-162.467 1009.31,-109.38 1035.18,-82.8324"/>
<polygon fill="midnightblue" stroke="midnightblue" points="1037.81,-85.147 1042.2,-75.5054 1032.75,-80.3036 1037.81,-85.147"/>
</g>
<!-- Node11 -->
<g id="node11" class="node"><title>Node11</title>
<g id="a_node11"><a xlink:href="TaskInterface_8h.html" target="_top" xlink:title="QualityControl/TaskInterface.h">
<polygon fill="none" stroke="black" points="1291,-168.5 1291,-187.5 1441,-187.5 1441,-168.5 1291,-168.5"/>
<text text-anchor="middle" x="1366" y="-175.5" font-family="Helvetica,sans-Serif" font-size="10.00">QualityControl/TaskInterface.h</text>
</a>
</g>
</g>
<!-- Node1&#45;&gt;Node11 -->
<g id="edge10" class="edge"><title>Node1&#45;&gt;Node11</title>
<path fill="none" stroke="midnightblue" d="M641.759,-233.478C785.082,-222.697 1122.06,-197.35 1280.65,-185.42"/>
<polygon fill="midnightblue" stroke="midnightblue" points="1281.12,-188.895 1290.83,-184.654 1280.6,-181.914 1281.12,-188.895"/>
</g>
<!-- Node9 -->
<g id="node9" class="node"><title>Node9</title>
<polygon fill="none" stroke="#bfbfbf" points="1165.5,-0.5 1165.5,-19.5 1206.5,-19.5 1206.5,-0.5 1165.5,-0.5"/>
<text text-anchor="middle" x="1186" y="-7.5" font-family="Helvetica,sans-Serif" font-size="10.00">string</text>
</g>
<!-- Node8&#45;&gt;Node9 -->
<g id="edge8" class="edge"><title>Node8&#45;&gt;Node9</title>
<path fill="none" stroke="midnightblue" d="M1071.55,-56.4435C1094.3,-47.4121 1130.32,-33.1067 1155.88,-22.9612"/>
<polygon fill="midnightblue" stroke="midnightblue" points="1157.44,-26.1063 1165.44,-19.1629 1154.86,-19.6004 1157.44,-26.1063"/>
</g>
<!-- Node10 -->
<g id="node10" class="node"><title>Node10</title>
<polygon fill="none" stroke="#bfbfbf" points="959.5,-0.5 959.5,-19.5 1042.5,-19.5 1042.5,-0.5 959.5,-0.5"/>
<text text-anchor="middle" x="1001" y="-7.5" font-family="Helvetica,sans-Serif" font-size="10.00">unordered_map</text>
</g>
<!-- Node8&#45;&gt;Node10 -->
<g id="edge9" class="edge"><title>Node8&#45;&gt;Node10</title>
<path fill="none" stroke="midnightblue" d="M1041.91,-56.083C1034.84,-48.2982 1024.41,-36.8015 1015.85,-27.3665"/>
<polygon fill="midnightblue" stroke="midnightblue" points="1018.25,-24.8047 1008.94,-19.7511 1013.07,-29.5087 1018.25,-24.8047"/>
</g>
<!-- Node11&#45;&gt;Node9 -->
<g id="edge13" class="edge"><title>Node11&#45;&gt;Node9</title>
<path fill="none" stroke="midnightblue" d="M1290.89,-169.605C1241.58,-163.019 1183.45,-151.354 1168,-132 1144.14,-102.107 1162.76,-54.3901 1175.9,-28.7212"/>
<polygon fill="midnightblue" stroke="midnightblue" points="1179.06,-30.2213 1180.73,-19.7578 1172.9,-26.9003 1179.06,-30.2213"/>
</g>
<!-- Node11&#45;&gt;Node10 -->
<g id="edge14" class="edge"><title>Node11&#45;&gt;Node10</title>
<path fill="none" stroke="midnightblue" d="M1290.95,-168.961C1187.28,-156.098 1008.73,-127.001 971,-76 959.754,-60.7984 972.471,-40.7079 984.64,-26.9086"/>
<polygon fill="midnightblue" stroke="midnightblue" points="987.229,-29.2656 991.557,-19.5952 982.143,-24.4558 987.229,-29.2656"/>
</g>
<!-- Node12 -->
<g id="node12" class="node"><title>Node12</title>
<polygon fill="none" stroke="#bfbfbf" points="1730.5,-0.5 1730.5,-19.5 1765.5,-19.5 1765.5,-0.5 1730.5,-0.5"/>
<text text-anchor="middle" x="1748" y="-7.5" font-family="Helvetica,sans-Serif" font-size="10.00">map</text>
</g>
<!-- Node11&#45;&gt;Node12 -->
<g id="edge11" class="edge"><title>Node11&#45;&gt;Node12</title>
<path fill="none" stroke="midnightblue" d="M1441.15,-175.445C1570.05,-171.993 1822.11,-161.511 1849,-132 1883.45,-94.189 1813.73,-47.0781 1773.61,-24.4115"/>
<polygon fill="midnightblue" stroke="midnightblue" points="1775.28,-21.3371 1764.83,-19.5755 1771.9,-27.4677 1775.28,-21.3371"/>
</g>
<!-- Node13 -->
<g id="node13" class="node"><title>Node13</title>
<polygon fill="none" stroke="#bfbfbf" points="1523,-56.5 1523,-75.5 1575,-75.5 1575,-56.5 1523,-56.5"/>
<text text-anchor="middle" x="1549" y="-63.5" font-family="Helvetica,sans-Serif" font-size="10.00">memory</text>
</g>
<!-- Node11&#45;&gt;Node13 -->
<g id="edge12" class="edge"><title>Node11&#45;&gt;Node13</title>
<path fill="none" stroke="midnightblue" d="M1366.16,-168.059C1366.9,-154.093 1370.42,-127.136 1386,-112 1388.34,-109.731 1465.77,-88.98 1513.06,-76.4635"/>
<polygon fill="midnightblue" stroke="midnightblue" points="1514.17,-79.7913 1522.94,-73.8519 1512.38,-73.0237 1514.17,-79.7913"/>
</g>
<!-- Node14 -->
<g id="node14" class="node"><title>Node14</title>
<polygon fill="none" stroke="#bfbfbf" points="1394.5,-112.5 1394.5,-131.5 1519.5,-131.5 1519.5,-112.5 1394.5,-112.5"/>
<text text-anchor="middle" x="1457" y="-119.5" font-family="Helvetica,sans-Serif" font-size="10.00">Framework/InitContext.h</text>
</g>
<!-- Node11&#45;&gt;Node14 -->
<g id="edge15" class="edge"><title>Node11&#45;&gt;Node14</title>
<path fill="none" stroke="midnightblue" d="M1380.62,-168.324C1394.95,-159.822 1417.01,-146.729 1433.75,-136.797"/>
<polygon fill="midnightblue" stroke="midnightblue" points="1435.6,-139.768 1442.42,-131.655 1432.03,-133.748 1435.6,-139.768"/>
</g>
<!-- Node15 -->
<g id="node15" class="node"><title>Node15</title>
<polygon fill="none" stroke="#bfbfbf" points="1538,-112.5 1538,-131.5 1698,-131.5 1698,-112.5 1538,-112.5"/>
<text text-anchor="middle" x="1618" y="-119.5" font-family="Helvetica,sans-Serif" font-size="10.00">Framework/ProcessingContext.h</text>
</g>
<!-- Node11&#45;&gt;Node15 -->
<g id="edge16" class="edge"><title>Node11&#45;&gt;Node15</title>
<path fill="none" stroke="midnightblue" d="M1405.93,-168.444C1449.89,-159.023 1520.63,-143.866 1568.18,-133.675"/>
<polygon fill="midnightblue" stroke="midnightblue" points="1569.21,-137.034 1578.26,-131.516 1567.75,-130.189 1569.21,-137.034"/>
</g>
<!-- Node16 -->
<g id="node16" class="node"><title>Node16</title>
<g id="a_node16"><a xlink:href="Activity_8h.html" target="_top" xlink:title="QualityControl/Activity.h">
<polygon fill="none" stroke="black" points="1716.5,-112.5 1716.5,-131.5 1839.5,-131.5 1839.5,-112.5 1716.5,-112.5"/>
<text text-anchor="middle" x="1778" y="-119.5" font-family="Helvetica,sans-Serif" font-size="10.00">QualityControl/Activity.h</text>
</a>
</g>
</g>
<!-- Node11&#45;&gt;Node16 -->
<g id="edge17" class="edge"><title>Node11&#45;&gt;Node16</title>
<path fill="none" stroke="midnightblue" d="M1431.28,-168.444C1506.2,-158.624 1628.68,-142.571 1706.22,-132.408"/>
<polygon fill="midnightblue" stroke="midnightblue" points="1706.93,-135.845 1716.39,-131.075 1706.02,-128.905 1706.93,-135.845"/>
</g>
<!-- Node17 -->
<g id="node17" class="node"><title>Node17</title>
<g id="a_node17"><a xlink:href="ObjectsManager_8h.html" target="_top" xlink:title="QualityControl/ObjectsManager.h">
<polygon fill="none" stroke="black" points="1176.5,-112.5 1176.5,-131.5 1337.5,-131.5 1337.5,-112.5 1176.5,-112.5"/>
<text text-anchor="middle" x="1257" y="-119.5" font-family="Helvetica,sans-Serif" font-size="10.00">QualityControl/ObjectsManager.h</text>
</a>
</g>
</g>
<!-- Node11&#45;&gt;Node17 -->
<g id="edge18" class="edge"><title>Node11&#45;&gt;Node17</title>
<path fill="none" stroke="midnightblue" d="M1348.49,-168.324C1330.93,-159.625 1303.67,-146.12 1283.47,-136.113"/>
<polygon fill="midnightblue" stroke="midnightblue" points="1284.98,-132.958 1274.47,-131.655 1281.88,-139.23 1284.98,-132.958"/>
</g>
<!-- Node17&#45;&gt;Node8 -->
<g id="edge28" class="edge"><title>Node17&#45;&gt;Node8</title>
<path fill="none" stroke="midnightblue" d="M1224.2,-112.444C1188.62,-103.162 1131.69,-88.3093 1092.65,-78.127"/>
<polygon fill="midnightblue" stroke="midnightblue" points="1093.21,-74.6541 1082.65,-75.5164 1091.44,-81.4274 1093.21,-74.6541"/>
</g>
<!-- Node17&#45;&gt;Node9 -->
<g id="edge29" class="edge"><title>Node17&#45;&gt;Node9</title>
<path fill="none" stroke="midnightblue" d="M1243.41,-112.22C1231.89,-104.117 1215.73,-91.0801 1206,-76 1196.9,-61.895 1191.74,-43.4064 1188.95,-29.7551"/>
<polygon fill="midnightblue" stroke="midnightblue" points="1192.34,-28.8513 1187.13,-19.628 1185.45,-30.0894 1192.34,-28.8513"/>
</g>
<!-- Node17&#45;&gt;Node13 -->
<g id="edge30" class="edge"><title>Node17&#45;&gt;Node13</title>
<path fill="none" stroke="midnightblue" d="M1313.14,-112.469C1363.13,-104.579 1438.44,-91.9739 1512.69,-76.154"/>
<polygon fill="midnightblue" stroke="midnightblue" points="1513.64,-79.5294 1522.68,-74.0038 1512.17,-72.6861 1513.64,-79.5294"/>
</g>
<!-- Node18 -->
<g id="node18" class="node"><title>Node18</title>
<g id="a_node18"><a xlink:href="MonitorObject_8h.html" target="_top" xlink:title="QualityControl/MonitorObject.h">
<polygon fill="none" stroke="black" points="1353.5,-56.5 1353.5,-75.5 1504.5,-75.5 1504.5,-56.5 1353.5,-56.5"/>
<text text-anchor="middle" x="1429" y="-63.5" font-family="Helvetica,sans-Serif" font-size="10.00">QualityControl/MonitorObject.h</text>
</a>
</g>
</g>
<!-- Node17&#45;&gt;Node18 -->
<g id="edge19" class="edge"><title>Node17&#45;&gt;Node18</title>
<path fill="none" stroke="midnightblue" d="M1284.25,-112.444C1313.44,-103.28 1359.92,-88.6876 1392.31,-78.5192"/>
<polygon fill="midnightblue" stroke="midnightblue" points="1393.38,-81.8512 1401.87,-75.5164 1391.28,-75.1726 1393.38,-81.8512"/>
</g>
<!-- Node22 -->
<g id="node22" class="node"><title>Node22</title>
<g id="a_node22"><a xlink:href="Quality_8h.html" target="_top" xlink:title="QualityControl/Quality.h">
<polygon fill="none" stroke="black" points="1214.5,-56.5 1214.5,-75.5 1335.5,-75.5 1335.5,-56.5 1214.5,-56.5"/>
<text text-anchor="middle" x="1275" y="-63.5" font-family="Helvetica,sans-Serif" font-size="10.00">QualityControl/Quality.h</text>
</a>
</g>
</g>
<!-- Node17&#45;&gt;Node22 -->
<g id="edge25" class="edge"><title>Node17&#45;&gt;Node22</title>
<path fill="none" stroke="midnightblue" d="M1259.97,-112.083C1262.38,-104.849 1265.86,-94.4087 1268.87,-85.3968"/>
<polygon fill="midnightblue" stroke="midnightblue" points="1272.24,-86.3447 1272.08,-75.7511 1265.6,-84.1311 1272.24,-86.3447"/>
</g>
<!-- Node18&#45;&gt;Node9 -->
<g id="edge20" class="edge"><title>Node18&#45;&gt;Node9</title>
<path fill="none" stroke="midnightblue" d="M1390.5,-56.4435C1342.3,-45.7335 1260.73,-27.6072 1216.58,-17.7961"/>
<polygon fill="midnightblue" stroke="midnightblue" points="1217.24,-14.3576 1206.72,-15.6049 1215.72,-21.191 1217.24,-14.3576"/>
</g>
<!-- Node18&#45;&gt;Node12 -->
<g id="edge21" class="edge"><title>Node18&#45;&gt;Node12</title>
<path fill="none" stroke="midnightblue" d="M1479.55,-56.4435C1547.59,-44.925 1666.31,-24.8281 1720.1,-15.723"/>
<polygon fill="midnightblue" stroke="midnightblue" points="1720.98,-19.1241 1730.25,-14.0041 1719.81,-12.2223 1720.98,-19.1241"/>
</g>
<!-- Node19 -->
<g id="node19" class="node"><title>Node19</title>
<polygon fill="none" stroke="#bfbfbf" points="1266,-0.5 1266,-19.5 1322,-19.5 1322,-0.5 1266,-0.5"/>
<text text-anchor="middle" x="1294" y="-7.5" font-family="Helvetica,sans-Serif" font-size="10.00">Rtypes.h</text>
</g>
<!-- Node18&#45;&gt;Node19 -->
<g id="edge22" class="edge"><title>Node18&#45;&gt;Node19</title>
<path fill="none" stroke="midnightblue" d="M1407.61,-56.4435C1385.29,-47.5171 1350.1,-33.4387 1324.79,-23.3168"/>
<polygon fill="midnightblue" stroke="midnightblue" points="1325.88,-19.9807 1315.29,-19.5164 1323.28,-26.4801 1325.88,-19.9807"/>
</g>
<!-- Node20 -->
<g id="node20" class="node"><title>Node20</title>
<polygon fill="none" stroke="#bfbfbf" points="1379.5,-0.5 1379.5,-19.5 1438.5,-19.5 1438.5,-0.5 1379.5,-0.5"/>
<text text-anchor="middle" x="1409" y="-7.5" font-family="Helvetica,sans-Serif" font-size="10.00">TObject.h</text>
</g>
<!-- Node18&#45;&gt;Node20 -->
<g id="edge23" class="edge"><title>Node18&#45;&gt;Node20</title>
<path fill="none" stroke="midnightblue" d="M1425.7,-56.083C1423.02,-48.8486 1419.15,-38.4087 1415.81,-29.3968"/>
<polygon fill="midnightblue" stroke="midnightblue" points="1419,-27.9129 1412.24,-19.7511 1412.43,-30.3442 1419,-27.9129"/>
</g>
<!-- Node21 -->
<g id="node21" class="node"><title>Node21</title>
<polygon fill="none" stroke="#bfbfbf" points="1457,-0.5 1457,-19.5 1573,-19.5 1573,-0.5 1457,-0.5"/>
<text text-anchor="middle" x="1515" y="-7.5" font-family="Helvetica,sans-Serif" font-size="10.00">Common/Exceptions.h</text>
</g>
<!-- Node18&#45;&gt;Node21 -->
<g id="edge24" class="edge"><title>Node18&#45;&gt;Node21</title>
<path fill="none" stroke="midnightblue" d="M1442.82,-56.324C1456.23,-47.9002 1476.82,-34.9709 1492.59,-25.0741"/>
<polygon fill="midnightblue" stroke="midnightblue" points="1494.61,-27.9364 1501.22,-19.6545 1490.89,-22.0081 1494.61,-27.9364"/>
</g>
<!-- Node22&#45;&gt;Node9 -->
<g id="edge27" class="edge"><title>Node22&#45;&gt;Node9</title>
<path fill="none" stroke="midnightblue" d="M1260.7,-56.324C1246.82,-47.9002 1225.51,-34.9709 1209.2,-25.0741"/>
<polygon fill="midnightblue" stroke="midnightblue" points="1210.63,-21.8495 1200.26,-19.6545 1207,-27.8341 1210.63,-21.8495"/>
</g>
<!-- Node22&#45;&gt;Node19 -->
<g id="edge26" class="edge"><title>Node22&#45;&gt;Node19</title>
<path fill="none" stroke="midnightblue" d="M1278.14,-56.083C1280.68,-48.8486 1284.36,-38.4087 1287.53,-29.3968"/>
<polygon fill="midnightblue" stroke="midnightblue" points="1290.9,-30.3459 1290.92,-19.7511 1284.3,-28.0225 1290.9,-30.3459"/>
</g>
</g>
</svg>
        <g id="navigator" transform="translate(0 0)" fill="#404254">
                <rect fill="#f2f5e9" fill-opacity="0.5" stroke="#606060" stroke-width=".5" x="0" y="0" width="60" height="60"/>
                <use id="zoomplus" xlink:href="#zoomPlus" x="17" y="9" onmousedown="handleZoom(evt,'in')"/>
                <use id="zoomminus" xlink:href="#zoomMin" x="42" y="9" onmousedown="handleZoom(evt,'out')"/>
                <use id="reset" xlink:href="#resetDef" x="30" y="36" onmousedown="handleReset()"/>
                <g id="arrowUp" xlink:href="#dirArrow" transform="translate(30 24)" onmousedown="handlePan(0,-1)">
                  <use xlink:href="#rim" fill="#404040">
                        <set attributeName="fill" to="#808080" begin="arrowUp.mouseover" end="arrowUp.mouseout"/>
                  </use>
                  <path fill="none" stroke="white" stroke-width="1.5" d="M0,-3.0v7 M-2.5,-0.5L0,-3.0L2.5,-0.5"/>
                </g>
                <g id="arrowRight" xlink:href="#dirArrow" transform="rotate(90) translate(36 -43)" onmousedown="handlePan(1,0)">
                  <use xlink:href="#rim" fill="#404040">
                        <set attributeName="fill" to="#808080" begin="arrowRight.mouseover" end="arrowRight.mouseout"/>
                  </use>
                  <path fill="none" stroke="white" stroke-width="1.5" d="M0,-3.0v7 M-2.5,-0.5L0,-3.0L2.5,-0.5"/>
                </g>
                <g id="arrowDown" xlink:href="#dirArrow" transform="rotate(180) translate(-30 -48)" onmousedown="handlePan(0,1)">
                  <use xlink:href="#rim" fill="#404040">
                        <set attributeName="fill" to="#808080" begin="arrowDown.mouseover" end="arrowDown.mouseout"/>
                  </use>
                  <path fill="none" stroke="white" stroke-width="1.5" d="M0,-3.0v7 M-2.5,-0.5L0,-3.0L2.5,-0.5"/>
                </g>
                <g id="arrowLeft" xlink:href="#dirArrow" transform="rotate(270) translate(-36 17)" onmousedown="handlePan(-1,0)">
                  <use xlink:href="#rim" fill="#404040">
                        <set attributeName="fill" to="#808080" begin="arrowLeft.mouseover" end="arrowLeft.mouseout"/>
                  </use>
                  <path fill="none" stroke="white" stroke-width="1.5" d="M0,-3.0v7 M-2.5,-0.5L0,-3.0L2.5,-0.5"/>
                </g>
        </g>
        <svg viewBox="0 0 15 15" width="100%" height="30px" preserveAspectRatio="xMaxYMin meet">
         <g id="arrow_out" transform="scale(0.3 0.3)">
          <a xlink:href="TaskRunner_8h__incl_org.svg" target="_base">
           <rect id="button" ry="5" rx="5" y="6" x="6" height="38" width="38"
                fill="#f2f5e9" fill-opacity="0.5" stroke="#606060" stroke-width="1.0"/>
           <path id="arrow"
             d="M 11.500037,31.436501 C 11.940474,20.09759 22.043105,11.32322 32.158766,21.979434 L 37.068811,17.246167 C 37.068811,17.246167 37.088388,32 37.088388,32 L 22.160133,31.978069 C 22.160133,31.978069 26.997745,27.140456 26.997745,27.140456 C 18.528582,18.264221 13.291696,25.230495 11.500037,31.436501 z"
             style="fill:#404040;"/>
          </a>
         </g>
        </svg>
</svg>
