<?xml version="1.0" encoding="UTF-8" standalone="no"?>
<!DOCTYPE svg PUBLIC "-//W3C//DTD SVG 1.1//EN"
 "http://www.w3.org/Graphics/SVG/1.1/DTD/svg11.dtd">
<!-- Generated by graphviz version 2.38.0 (20140413.2041)
 -->
<!-- Title: Framework/src/TaskInterface.cxx Pages: 1 -->
<!--zoomable 252 -->
<svg id="main" version="1.1" xmlns="http://www.w3.org/2000/svg" xmlns:xlink="http://www.w3.org/1999/xlink" xml:space="preserve" onload="init(evt)">
<style type="text/css"><![CDATA[
.edge:hover path { stroke: red; }
.edge:hover polygon { stroke: red; fill: red; }
]]></style>
<script type="text/javascript"><![CDATA[
var edges = document.getElementsByTagName('g');
if (edges && edges.length) {
  for (var i=0;i<edges.length;i++) {
    if (edges[i].id.substr(0,4)=='edge') {
      edges[i].setAttribute('class','edge');
    }
  }
}
]]></script>
        <defs>
                <circle id="rim" cx="0" cy="0" r="7"/>
                <circle id="rim2" cx="0" cy="0" r="3.5"/>
                <g id="zoomPlus">
                        <use xlink:href="#rim" fill="#404040">
                                <set attributeName="fill" to="#808080" begin="zoomplus.mouseover" end="zoomplus.mouseout"/>
                        </use>
                        <path d="M-4,0h8M0,-4v8" fill="none" stroke="white" stroke-width="1.5" pointer-events="none"/>
                </g>
                <g id="zoomMin">
                        <use xlink:href="#rim" fill="#404040">
                                <set attributeName="fill" to="#808080" begin="zoomminus.mouseover" end="zoomminus.mouseout"/>
                        </use>
                        <path d="M-4,0h8" fill="none" stroke="white" stroke-width="1.5" pointer-events="none"/>
                </g>
                <g id="dirArrow">
                        <path fill="none" stroke="white" stroke-width="1.5" d="M0,-3.0v7 M-2.5,-0.5L0,-3.0L2.5,-0.5"/>
                </g>
               <g id="resetDef">
                       <use xlink:href="#rim2" fill="#404040">
                               <set attributeName="fill" to="#808080" begin="reset.mouseover" end="reset.mouseout"/>
                       </use>
               </g>
        </defs>

<script type="text/javascript">
var viewWidth = 992;
var viewHeight = 252;
var sectionId = 'dynsection-0';
</script>
<script xlink:href="svgpan.js"/>
<svg id="graph" class="graph">
<g id="viewport">
<title>Framework/src/TaskInterface.cxx</title>
<!-- Node1 -->
<g id="node1" class="node"><title>Node1</title>
<polygon fill="#bfbfbf" stroke="black" points="714.5,-224.5 714.5,-243.5 878.5,-243.5 878.5,-224.5 714.5,-224.5"/>
<text text-anchor="middle" x="796.5" y="-231.5" font-family="Helvetica,sans-Serif" font-size="10.00">Framework/src/TaskInterface.cxx</text>
</g>
<!-- Node2 -->
<g id="node2" class="node"><title>Node2</title>
<g id="a_node2"><a xlink:href="TaskInterface_8h.html" target="_top" xlink:title="QualityControl/TaskInterface.h">
<polygon fill="none" stroke="black" points="499.5,-168.5 499.5,-187.5 649.5,-187.5 649.5,-168.5 499.5,-168.5"/>
<text text-anchor="middle" x="574.5" y="-175.5" font-family="Helvetica,sans-Serif" font-size="10.00">QualityControl/TaskInterface.h</text>
</a>
</g>
</g>
<!-- Node1&#45;&gt;Node2 -->
<g id="edge1" class="edge"><title>Node1&#45;&gt;Node2</title>
<path fill="none" stroke="midnightblue" d="M761.323,-224.444C722.921,-215.102 661.324,-200.119 619.445,-189.933"/>
<polygon fill="midnightblue" stroke="midnightblue" points="620.056,-186.479 609.512,-187.516 618.401,-193.281 620.056,-186.479"/>
</g>
<!-- Node17 -->
<g id="node17" class="node"><title>Node17</title>
<g id="a_node17"><a xlink:href="QcInfoLogger_8h.html" target="_top" xlink:title="QualityControl/QcInfoLogger.h">
<polygon fill="none" stroke="black" points="722,-168.5 722,-187.5 871,-187.5 871,-168.5 722,-168.5"/>
<text text-anchor="middle" x="796.5" y="-175.5" font-family="Helvetica,sans-Serif" font-size="10.00">QualityControl/QcInfoLogger.h</text>
</a>
</g>
</g>
<!-- Node1&#45;&gt;Node17 -->
<g id="edge24" class="edge"><title>Node1&#45;&gt;Node17</title>
<path fill="none" stroke="midnightblue" d="M796.5,-224.083C796.5,-217.006 796.5,-206.861 796.5,-197.986"/>
<polygon fill="midnightblue" stroke="midnightblue" points="800,-197.751 796.5,-187.751 793,-197.751 800,-197.751"/>
</g>
<!-- Node19 -->
<g id="node19" class="node"><title>Node19</title>
<polygon fill="none" stroke="#bfbfbf" points="889,-168.5 889,-187.5 984,-187.5 984,-168.5 889,-168.5"/>
<text text-anchor="middle" x="936.5" y="-175.5" font-family="Helvetica,sans-Serif" font-size="10.00">CCDB/CcdbApi.h</text>
</g>
<!-- Node1&#45;&gt;Node19 -->
<g id="edge26" class="edge"><title>Node1&#45;&gt;Node19</title>
<path fill="none" stroke="midnightblue" d="M818.683,-224.444C841.928,-215.478 878.649,-201.314 904.915,-191.183"/>
<polygon fill="midnightblue" stroke="midnightblue" points="906.35,-194.381 914.42,-187.516 903.831,-187.85 906.35,-194.381"/>
</g>
<!-- Node3 -->
<g id="node3" class="node"><title>Node3</title>
<polygon fill="none" stroke="#bfbfbf" points="0,-0.5 0,-19.5 35,-19.5 35,-0.5 0,-0.5"/>
<text text-anchor="middle" x="17.5" y="-7.5" font-family="Helvetica,sans-Serif" font-size="10.00">map</text>
</g>
<!-- Node2&#45;&gt;Node3 -->
<g id="edge2" class="edge"><title>Node2&#45;&gt;Node3</title>
<path fill="none" stroke="midnightblue" d="M499.407,-176.323C355.852,-174.256 53.7916,-165.885 21.5,-132 -4.50971,-104.707 3.9659,-56.2555 11.3699,-29.6962"/>
<polygon fill="midnightblue" stroke="midnightblue" points="14.8244,-30.3647 14.3738,-19.7795 8.12499,-28.3354 14.8244,-30.3647"/>
</g>
<!-- Node4 -->
<g id="node4" class="node"><title>Node4</title>
<polygon fill="none" stroke="#bfbfbf" points="649.5,-56.5 649.5,-75.5 701.5,-75.5 701.5,-56.5 649.5,-56.5"/>
<text text-anchor="middle" x="675.5" y="-63.5" font-family="Helvetica,sans-Serif" font-size="10.00">memory</text>
</g>
<!-- Node2&#45;&gt;Node4 -->
<g id="edge3" class="edge"><title>Node2&#45;&gt;Node4</title>
<path fill="none" stroke="midnightblue" d="M607.274,-168.432C626.569,-161.688 649.803,-150.296 663.5,-132 673.386,-118.794 675.953,-99.9243 676.304,-85.915"/>
<polygon fill="midnightblue" stroke="midnightblue" points="679.799,-85.4822 676.189,-75.5215 672.8,-85.5595 679.799,-85.4822"/>
</g>
<!-- Node5 -->
<g id="node5" class="node"><title>Node5</title>
<polygon fill="none" stroke="#bfbfbf" points="443,-0.5 443,-19.5 484,-19.5 484,-0.5 443,-0.5"/>
<text text-anchor="middle" x="463.5" y="-7.5" font-family="Helvetica,sans-Serif" font-size="10.00">string</text>
</g>
<!-- Node2&#45;&gt;Node5 -->
<g id="edge4" class="edge"><title>Node2&#45;&gt;Node5</title>
<path fill="none" stroke="midnightblue" d="M612.173,-168.432C634.798,-161.688 662.899,-150.295 682.5,-132 708.815,-107.437 733.56,-83.6411 710.5,-56 683.293,-23.3887 554.383,-14.3507 494.371,-11.8938"/>
<polygon fill="midnightblue" stroke="midnightblue" points="494.13,-8.38249 484.007,-11.5074 493.87,-15.3776 494.13,-8.38249"/>
</g>
<!-- Node6 -->
<g id="node6" class="node"><title>Node6</title>
<polygon fill="none" stroke="#bfbfbf" points="623,-0.5 623,-19.5 706,-19.5 706,-0.5 623,-0.5"/>
<text text-anchor="middle" x="664.5" y="-7.5" font-family="Helvetica,sans-Serif" font-size="10.00">unordered_map</text>
</g>
<!-- Node2&#45;&gt;Node6 -->
<g id="edge5" class="edge"><title>Node2&#45;&gt;Node6</title>
<path fill="none" stroke="midnightblue" d="M636.482,-168.498C679.089,-161.237 730.271,-149.213 743.5,-132 764.084,-105.218 760.474,-85.2032 743.5,-56 734.764,-40.9696 718.922,-30.5428 703.705,-23.5405"/>
<polygon fill="midnightblue" stroke="midnightblue" points="704.955,-20.2692 694.381,-19.6125 702.238,-26.7202 704.955,-20.2692"/>
</g>
<!-- Node7 -->
<g id="node7" class="node"><title>Node7</title>
<polygon fill="none" stroke="#bfbfbf" points="31,-112.5 31,-131.5 156,-131.5 156,-112.5 31,-112.5"/>
<text text-anchor="middle" x="93.5" y="-119.5" font-family="Helvetica,sans-Serif" font-size="10.00">Framework/InitContext.h</text>
</g>
<!-- Node2&#45;&gt;Node7 -->
<g id="edge6" class="edge"><title>Node2&#45;&gt;Node7</title>
<path fill="none" stroke="midnightblue" d="M499.455,-169.079C419.559,-160.57 289.132,-146.461 166.285,-132.077"/>
<polygon fill="midnightblue" stroke="midnightblue" points="166.662,-128.598 156.322,-130.908 165.846,-135.55 166.662,-128.598"/>
</g>
<!-- Node8 -->
<g id="node8" class="node"><title>Node8</title>
<polygon fill="none" stroke="#bfbfbf" points="174.5,-112.5 174.5,-131.5 334.5,-131.5 334.5,-112.5 174.5,-112.5"/>
<text text-anchor="middle" x="254.5" y="-119.5" font-family="Helvetica,sans-Serif" font-size="10.00">Framework/ProcessingContext.h</text>
</g>
<!-- Node2&#45;&gt;Node8 -->
<g id="edge7" class="edge"><title>Node2&#45;&gt;Node8</title>
<path fill="none" stroke="midnightblue" d="M523.795,-168.444C467.153,-158.885 375.504,-143.419 315.121,-133.23"/>
<polygon fill="midnightblue" stroke="midnightblue" points="315.411,-129.729 304.968,-131.516 314.246,-136.632 315.411,-129.729"/>
</g>
<!-- Node9 -->
<g id="node9" class="node"><title>Node9</title>
<g id="a_node9"><a xlink:href="Activity_8h.html" target="_top" xlink:title="QualityControl/Activity.h">
<polygon fill="none" stroke="black" points="353,-112.5 353,-131.5 476,-131.5 476,-112.5 353,-112.5"/>
<text text-anchor="middle" x="414.5" y="-119.5" font-family="Helvetica,sans-Serif" font-size="10.00">QualityControl/Activity.h</text>
</a>
</g>
</g>
<!-- Node2&#45;&gt;Node9 -->
<g id="edge8" class="edge"><title>Node2&#45;&gt;Node9</title>
<path fill="none" stroke="midnightblue" d="M549.148,-168.444C522.231,-159.359 479.504,-144.939 449.413,-134.783"/>
<polygon fill="midnightblue" stroke="midnightblue" points="450.328,-131.398 439.734,-131.516 448.09,-138.031 450.328,-131.398"/>
</g>
<!-- Node10 -->
<g id="node10" class="node"><title>Node10</title>
<g id="a_node10"><a xlink:href="ObjectsManager_8h.html" target="_top" xlink:title="QualityControl/ObjectsManager.h">
<polygon fill="none" stroke="black" points="494,-112.5 494,-131.5 655,-131.5 655,-112.5 494,-112.5"/>
<text text-anchor="middle" x="574.5" y="-119.5" font-family="Helvetica,sans-Serif" font-size="10.00">QualityControl/ObjectsManager.h</text>
</a>
</g>
</g>
<!-- Node2&#45;&gt;Node10 -->
<g id="edge9" class="edge"><title>Node2&#45;&gt;Node10</title>
<path fill="none" stroke="midnightblue" d="M574.5,-168.083C574.5,-161.006 574.5,-150.861 574.5,-141.986"/>
<polygon fill="midnightblue" stroke="midnightblue" points="578,-141.751 574.5,-131.751 571,-141.751 578,-141.751"/>
</g>
<!-- Node10&#45;&gt;Node4 -->
<g id="edge23" class="edge"><title>Node10&#45;&gt;Node4</title>
<path fill="none" stroke="midnightblue" d="M590.727,-112.324C606.851,-103.703 631.8,-90.3643 650.464,-80.3855"/>
<polygon fill="midnightblue" stroke="midnightblue" points="652.144,-83.456 659.313,-75.6545 648.844,-77.283 652.144,-83.456"/>
</g>
<!-- Node10&#45;&gt;Node5 -->
<g id="edge22" class="edge"><title>Node10&#45;&gt;Node5</title>
<path fill="none" stroke="midnightblue" d="M542.192,-112.495C522.339,-105.696 497.851,-94.221 482.5,-76 471.502,-62.9459 466.867,-43.7918 464.916,-29.6555"/>
<polygon fill="midnightblue" stroke="midnightblue" points="468.386,-29.1843 463.856,-19.6067 461.424,-29.9188 468.386,-29.1843"/>
</g>
<!-- Node11 -->
<g id="node11" class="node"><title>Node11</title>
<g id="a_node11"><a xlink:href="MonitorObject_8h.html" target="_top" xlink:title="QualityControl/MonitorObject.h">
<polygon fill="none" stroke="black" points="145,-56.5 145,-75.5 296,-75.5 296,-56.5 145,-56.5"/>
<text text-anchor="middle" x="220.5" y="-63.5" font-family="Helvetica,sans-Serif" font-size="10.00">QualityControl/MonitorObject.h</text>
</a>
</g>
</g>
<!-- Node10&#45;&gt;Node11 -->
<g id="edge10" class="edge"><title>Node10&#45;&gt;Node11</title>
<path fill="none" stroke="midnightblue" d="M518.408,-112.444C455.359,-102.826 353.103,-87.2275 286.324,-77.0409"/>
<polygon fill="midnightblue" stroke="midnightblue" points="286.743,-73.5645 276.33,-75.5164 285.688,-80.4845 286.743,-73.5645"/>
</g>
<!-- Node15 -->
<g id="node15" class="node"><title>Node15</title>
<g id="a_node15"><a xlink:href="Quality_8h.html" target="_top" xlink:title="QualityControl/Quality.h">
<polygon fill="none" stroke="black" points="314,-56.5 314,-75.5 435,-75.5 435,-56.5 314,-56.5"/>
<text text-anchor="middle" x="374.5" y="-63.5" font-family="Helvetica,sans-Serif" font-size="10.00">QualityControl/Quality.h</text>
</a>
</g>
</g>
<!-- Node10&#45;&gt;Node15 -->
<g id="edge16" class="edge"><title>Node10&#45;&gt;Node15</title>
<path fill="none" stroke="midnightblue" d="M542.809,-112.444C508.432,-103.162 453.423,-88.3093 415.711,-78.127"/>
<polygon fill="midnightblue" stroke="midnightblue" points="416.609,-74.7442 406.042,-75.5164 414.784,-81.5022 416.609,-74.7442"/>
</g>
<!-- Node16 -->
<g id="node16" class="node"><title>Node16</title>
<g id="a_node16"><a xlink:href="TaskConfig_8h.html" target="_top" xlink:title="QualityControl/TaskConfig.h">
<polygon fill="none" stroke="black" points="491.5,-56.5 491.5,-75.5 631.5,-75.5 631.5,-56.5 491.5,-56.5"/>
<text text-anchor="middle" x="561.5" y="-63.5" font-family="Helvetica,sans-Serif" font-size="10.00">QualityControl/TaskConfig.h</text>
</a>
</g>
</g>
<!-- Node10&#45;&gt;Node16 -->
<g id="edge19" class="edge"><title>Node10&#45;&gt;Node16</title>
<path fill="none" stroke="midnightblue" d="M572.353,-112.083C570.631,-104.927 568.153,-94.6353 566,-85.6911"/>
<polygon fill="midnightblue" stroke="midnightblue" points="569.35,-84.6541 563.607,-75.7511 562.545,-86.2925 569.35,-84.6541"/>
</g>
<!-- Node11&#45;&gt;Node3 -->
<g id="edge12" class="edge"><title>Node11&#45;&gt;Node3</title>
<path fill="none" stroke="midnightblue" d="M188.334,-56.4435C148.684,-45.8963 81.9953,-28.1564 44.7512,-18.2491"/>
<polygon fill="midnightblue" stroke="midnightblue" points="45.6379,-14.8633 35.0742,-15.6749 43.8384,-21.6281 45.6379,-14.8633"/>
</g>
<!-- Node11&#45;&gt;Node5 -->
<g id="edge11" class="edge"><title>Node11&#45;&gt;Node5</title>
<path fill="none" stroke="midnightblue" d="M259.004,-56.4435C307.199,-45.7335 388.768,-27.6072 432.917,-17.7961"/>
<polygon fill="midnightblue" stroke="midnightblue" points="433.775,-21.191 442.778,-15.6049 432.257,-14.3576 433.775,-21.191"/>
</g>
<!-- Node12 -->
<g id="node12" class="node"><title>Node12</title>
<polygon fill="none" stroke="#bfbfbf" points="307.5,-0.5 307.5,-19.5 363.5,-19.5 363.5,-0.5 307.5,-0.5"/>
<text text-anchor="middle" x="335.5" y="-7.5" font-family="Helvetica,sans-Serif" font-size="10.00">Rtypes.h</text>
</g>
<!-- Node11&#45;&gt;Node12 -->
<g id="edge13" class="edge"><title>Node11&#45;&gt;Node12</title>
<path fill="none" stroke="midnightblue" d="M238.722,-56.4435C257.396,-47.6751 286.656,-33.9355 308.117,-23.8579"/>
<polygon fill="midnightblue" stroke="midnightblue" points="309.799,-26.935 317.363,-19.5164 306.824,-20.5988 309.799,-26.935"/>
</g>
<!-- Node13 -->
<g id="node13" class="node"><title>Node13</title>
<polygon fill="none" stroke="#bfbfbf" points="216,-0.5 216,-19.5 275,-19.5 275,-0.5 216,-0.5"/>
<text text-anchor="middle" x="245.5" y="-7.5" font-family="Helvetica,sans-Serif" font-size="10.00">TObject.h</text>
</g>
<!-- Node11&#45;&gt;Node13 -->
<g id="edge14" class="edge"><title>Node11&#45;&gt;Node13</title>
<path fill="none" stroke="midnightblue" d="M224.628,-56.083C228.014,-48.77 232.916,-38.1814 237.119,-29.1034"/>
<polygon fill="midnightblue" stroke="midnightblue" points="240.423,-30.2962 241.449,-19.7511 234.071,-27.3553 240.423,-30.2962"/>
</g>
<!-- Node14 -->
<g id="node14" class="node"><title>Node14</title>
<polygon fill="none" stroke="#bfbfbf" points="81.5,-0.5 81.5,-19.5 197.5,-19.5 197.5,-0.5 81.5,-0.5"/>
<text text-anchor="middle" x="139.5" y="-7.5" font-family="Helvetica,sans-Serif" font-size="10.00">Common/Exceptions.h</text>
</g>
<!-- Node11&#45;&gt;Node14 -->
<g id="edge15" class="edge"><title>Node11&#45;&gt;Node14</title>
<path fill="none" stroke="midnightblue" d="M207.486,-56.324C194.968,-47.979 175.818,-35.2122 161.029,-25.3524"/>
<polygon fill="midnightblue" stroke="midnightblue" points="162.744,-22.2894 152.482,-19.6545 158.861,-28.1137 162.744,-22.2894"/>
</g>
<!-- Node15&#45;&gt;Node5 -->
<g id="edge18" class="edge"><title>Node15&#45;&gt;Node5</title>
<path fill="none" stroke="midnightblue" d="M388.799,-56.324C402.683,-47.9002 423.992,-34.9709 440.304,-25.0741"/>
<polygon fill="midnightblue" stroke="midnightblue" points="442.502,-27.8341 449.236,-19.6545 438.871,-21.8495 442.502,-27.8341"/>
</g>
<!-- Node15&#45;&gt;Node12 -->
<g id="edge17" class="edge"><title>Node15&#45;&gt;Node12</title>
<path fill="none" stroke="midnightblue" d="M368.06,-56.083C362.551,-48.4554 354.469,-37.2645 347.735,-27.9408"/>
<polygon fill="midnightblue" stroke="midnightblue" points="350.513,-25.8087 341.82,-19.7511 344.838,-29.9071 350.513,-25.8087"/>
</g>
<!-- Node16&#45;&gt;Node5 -->
<g id="edge20" class="edge"><title>Node16&#45;&gt;Node5</title>
<path fill="none" stroke="midnightblue" d="M545.755,-56.324C530.181,-47.7428 506.123,-34.486 488.041,-24.5224"/>
<polygon fill="midnightblue" stroke="midnightblue" points="489.654,-21.4152 479.206,-19.6545 486.276,-27.546 489.654,-21.4152"/>
</g>
<!-- Node16&#45;&gt;Node6 -->
<g id="edge21" class="edge"><title>Node16&#45;&gt;Node6</title>
<path fill="none" stroke="midnightblue" d="M578.049,-56.324C594.492,-47.7034 619.935,-34.3643 638.968,-24.3855"/>
<polygon fill="midnightblue" stroke="midnightblue" points="640.761,-27.3977 647.992,-19.6545 637.511,-21.198 640.761,-27.3977"/>
</g>
<!-- Node18 -->
<g id="node18" class="node"><title>Node18</title>
<polygon fill="none" stroke="#bfbfbf" points="795.5,-112.5 795.5,-131.5 925.5,-131.5 925.5,-112.5 795.5,-112.5"/>
<text text-anchor="middle" x="860.5" y="-119.5" font-family="Helvetica,sans-Serif" font-size="10.00">InfoLogger/InfoLogger.hxx</text>
</g>
<!-- Node17&#45;&gt;Node18 -->
<g id="edge25" class="edge"><title>Node17&#45;&gt;Node18</title>
<path fill="none" stroke="midnightblue" d="M806.783,-168.324C816.336,-160.263 830.78,-148.077 842.284,-138.369"/>
<polygon fill="midnightblue" stroke="midnightblue" points="844.644,-140.958 850.03,-131.834 840.13,-135.608 844.644,-140.958"/>
</g>
</g>
</svg>
        <g id="navigator" transform="translate(0 0)" fill="#404254">
                <rect fill="#f2f5e9" fill-opacity="0.5" stroke="#606060" stroke-width=".5" x="0" y="0" width="60" height="60"/>
                <use id="zoomplus" xlink:href="#zoomPlus" x="17" y="9" onmousedown="handleZoom(evt,'in')"/>
                <use id="zoomminus" xlink:href="#zoomMin" x="42" y="9" onmousedown="handleZoom(evt,'out')"/>
                <use id="reset" xlink:href="#resetDef" x="30" y="36" onmousedown="handleReset()"/>
                <g id="arrowUp" xlink:href="#dirArrow" transform="translate(30 24)" onmousedown="handlePan(0,-1)">
                  <use xlink:href="#rim" fill="#404040">
                        <set attributeName="fill" to="#808080" begin="arrowUp.mouseover" end="arrowUp.mouseout"/>
                  </use>
                  <path fill="none" stroke="white" stroke-width="1.5" d="M0,-3.0v7 M-2.5,-0.5L0,-3.0L2.5,-0.5"/>
                </g>
                <g id="arrowRight" xlink:href="#dirArrow" transform="rotate(90) translate(36 -43)" onmousedown="handlePan(1,0)">
                  <use xlink:href="#rim" fill="#404040">
                        <set attributeName="fill" to="#808080" begin="arrowRight.mouseover" end="arrowRight.mouseout"/>
                  </use>
                  <path fill="none" stroke="white" stroke-width="1.5" d="M0,-3.0v7 M-2.5,-0.5L0,-3.0L2.5,-0.5"/>
                </g>
                <g id="arrowDown" xlink:href="#dirArrow" transform="rotate(180) translate(-30 -48)" onmousedown="handlePan(0,1)">
                  <use xlink:href="#rim" fill="#404040">
                        <set attributeName="fill" to="#808080" begin="arrowDown.mouseover" end="arrowDown.mouseout"/>
                  </use>
                  <path fill="none" stroke="white" stroke-width="1.5" d="M0,-3.0v7 M-2.5,-0.5L0,-3.0L2.5,-0.5"/>
                </g>
                <g id="arrowLeft" xlink:href="#dirArrow" transform="rotate(270) translate(-36 17)" onmousedown="handlePan(-1,0)">
                  <use xlink:href="#rim" fill="#404040">
                        <set attributeName="fill" to="#808080" begin="arrowLeft.mouseover" end="arrowLeft.mouseout"/>
                  </use>
                  <path fill="none" stroke="white" stroke-width="1.5" d="M0,-3.0v7 M-2.5,-0.5L0,-3.0L2.5,-0.5"/>
                </g>
        </g>
        <svg viewBox="0 0 15 15" width="100%" height="30px" preserveAspectRatio="xMaxYMin meet">
         <g id="arrow_out" transform="scale(0.3 0.3)">
          <a xlink:href="TaskInterface_8cxx__incl_org.svg" target="_base">
           <rect id="button" ry="5" rx="5" y="6" x="6" height="38" width="38"
                fill="#f2f5e9" fill-opacity="0.5" stroke="#606060" stroke-width="1.0"/>
           <path id="arrow"
             d="M 11.500037,31.436501 C 11.940474,20.09759 22.043105,11.32322 32.158766,21.979434 L 37.068811,17.246167 C 37.068811,17.246167 37.088388,32 37.088388,32 L 22.160133,31.978069 C 22.160133,31.978069 26.997745,27.140456 26.997745,27.140456 C 18.528582,18.264221 13.291696,25.230495 11.500037,31.436501 z"
             style="fill:#404040;"/>
          </a>
         </g>
        </svg>
</svg>
