<?xml version="1.0" encoding="UTF-8" standalone="no"?>
<!DOCTYPE svg PUBLIC "-//W3C//DTD SVG 1.1//EN"
 "http://www.w3.org/Graphics/SVG/1.1/DTD/svg11.dtd">
<!-- Generated by graphviz version 2.38.0 (20140413.2041)
 -->
<!-- Title: Framework/src/TaskRunnerFactory.cxx Pages: 1 -->
<svg width="1243pt" height="330pt"
 viewBox="0.00 0.00 1242.50 330.00" xmlns="http://www.w3.org/2000/svg" xmlns:xlink="http://www.w3.org/1999/xlink">
<g id="graph0" class="graph" transform="scale(1 1) rotate(0) translate(4 326)">
<title>Framework/src/TaskRunnerFactory.cxx</title>
<!-- Node1 -->
<g id="node1" class="node"><title>Node1</title>
<polygon fill="#bfbfbf" stroke="black" points="539,-291.5 539,-321.5 677,-321.5 677,-291.5 539,-291.5"/>
<text text-anchor="start" x="547" y="-309.5" font-family="Helvetica,sans-Serif" font-size="10.00">Framework/src/TaskRunner</text>
<text text-anchor="middle" x="608" y="-298.5" font-family="Helvetica,sans-Serif" font-size="10.00">Factory.cxx</text>
</g>
<!-- Node2 -->
<g id="node2" class="node"><title>Node2</title>
<g id="a_node2"><a xlink:href="TaskRunnerFactory_8h.html" target="_top" xlink:title="QualityControl/TaskRunner\lFactory.h">
<polygon fill="none" stroke="black" points="59.5,-224.5 59.5,-254.5 194.5,-254.5 194.5,-224.5 59.5,-224.5"/>
<text text-anchor="start" x="67.5" y="-242.5" font-family="Helvetica,sans-Serif" font-size="10.00">QualityControl/TaskRunner</text>
<text text-anchor="middle" x="127" y="-231.5" font-family="Helvetica,sans-Serif" font-size="10.00">Factory.h</text>
</a>
</g>
</g>
<!-- Node1&#45;&gt;Node2 -->
<g id="edge1" class="edge"><title>Node1&#45;&gt;Node2</title>
<path fill="none" stroke="midnightblue" d="M538.828,-296.152C450.251,-284.183 297.182,-263.498 204.685,-250.998"/>
<polygon fill="midnightblue" stroke="midnightblue" points="204.923,-247.498 194.545,-249.628 203.986,-254.435 204.923,-247.498"/>
</g>
<!-- Node6 -->
<g id="node6" class="node"><title>Node6</title>
<g id="a_node6"><a xlink:href="TaskRunner_8h.html" target="_top" xlink:title="QualityControl/TaskRunner.h">
<polygon fill="none" stroke="black" points="486.5,-230 486.5,-249 629.5,-249 629.5,-230 486.5,-230"/>
<text text-anchor="middle" x="558" y="-237" font-family="Helvetica,sans-Serif" font-size="10.00">QualityControl/TaskRunner.h</text>
</a>
</g>
</g>
<!-- Node1&#45;&gt;Node6 -->
<g id="edge5" class="edge"><title>Node1&#45;&gt;Node6</title>
<path fill="none" stroke="midnightblue" d="M597.151,-291.396C589.432,-281.361 579.029,-267.838 570.887,-257.253"/>
<polygon fill="midnightblue" stroke="midnightblue" points="573.559,-254.987 564.688,-249.195 568.011,-259.255 573.559,-254.987"/>
</g>
<!-- Node9 -->
<g id="node9" class="node"><title>Node9</title>
<polygon fill="none" stroke="#bfbfbf" points="1038.5,-168.5 1038.5,-187.5 1191.5,-187.5 1191.5,-168.5 1038.5,-168.5"/>
<text text-anchor="middle" x="1115" y="-175.5" font-family="Helvetica,sans-Serif" font-size="10.00">Framework/CompletionPolicy.h</text>
</g>
<!-- Node1&#45;&gt;Node9 -->
<g id="edge37" class="edge"><title>Node1&#45;&gt;Node9</title>
<path fill="none" stroke="midnightblue" d="M615.364,-291.378C626.099,-272.404 647.971,-239.301 677,-224 743.978,-188.696 935.815,-195.505 1027.92,-187.992"/>
<polygon fill="midnightblue" stroke="midnightblue" points="1028.47,-191.456 1038.11,-187.056 1027.83,-184.485 1028.47,-191.456"/>
</g>
<!-- Node26 -->
<g id="node26" class="node"><title>Node26</title>
<polygon fill="none" stroke="#bfbfbf" points="686,-230 686,-249 816,-249 816,-230 686,-230"/>
<text text-anchor="middle" x="751" y="-237" font-family="Helvetica,sans-Serif" font-size="10.00">Framework/DeviceSpec.h</text>
</g>
<!-- Node1&#45;&gt;Node26 -->
<g id="edge36" class="edge"><title>Node1&#45;&gt;Node26</title>
<path fill="none" stroke="midnightblue" d="M639.029,-291.396C664.009,-280.041 698.816,-264.22 722.964,-253.244"/>
<polygon fill="midnightblue" stroke="midnightblue" points="724.629,-256.331 732.285,-249.007 721.733,-249.959 724.629,-256.331"/>
</g>
<!-- Node3 -->
<g id="node3" class="node"><title>Node3</title>
<polygon fill="none" stroke="#bfbfbf" points="825.5,-0.5 825.5,-19.5 866.5,-19.5 866.5,-0.5 825.5,-0.5"/>
<text text-anchor="middle" x="846" y="-7.5" font-family="Helvetica,sans-Serif" font-size="10.00">string</text>
</g>
<!-- Node2&#45;&gt;Node3 -->
<g id="edge2" class="edge"><title>Node2&#45;&gt;Node3</title>
<path fill="none" stroke="midnightblue" d="M110.833,-224.338C96.0294,-209.619 78.2179,-186.229 91,-168 174.866,-48.3973 257.578,-88.4686 400,-56 553.005,-21.1188 741.692,-13.2683 814.915,-11.507"/>
<polygon fill="midnightblue" stroke="midnightblue" points="815.338,-14.9987 825.259,-11.2811 815.185,-8.00041 815.338,-14.9987"/>
</g>
<!-- Node4 -->
<g id="node4" class="node"><title>Node4</title>
<polygon fill="none" stroke="#bfbfbf" points="0,-168.5 0,-187.5 44,-187.5 44,-168.5 0,-168.5"/>
<text text-anchor="middle" x="22" y="-175.5" font-family="Helvetica,sans-Serif" font-size="10.00">vector</text>
</g>
<!-- Node2&#45;&gt;Node4 -->
<g id="edge3" class="edge"><title>Node2&#45;&gt;Node4</title>
<path fill="none" stroke="midnightblue" d="M102.116,-224.399C85.2858,-214.862 63.1614,-202.325 46.4274,-192.842"/>
<polygon fill="midnightblue" stroke="midnightblue" points="47.7042,-189.543 37.2784,-187.658 44.2531,-195.633 47.7042,-189.543"/>
</g>
<!-- Node5 -->
<g id="node5" class="node"><title>Node5</title>
<polygon fill="none" stroke="#bfbfbf" points="100,-168.5 100,-187.5 264,-187.5 264,-168.5 100,-168.5"/>
<text text-anchor="middle" x="182" y="-175.5" font-family="Helvetica,sans-Serif" font-size="10.00">Framework/DataProcessorSpec.h</text>
</g>
<!-- Node2&#45;&gt;Node5 -->
<g id="edge4" class="edge"><title>Node2&#45;&gt;Node5</title>
<path fill="none" stroke="midnightblue" d="M140.034,-224.399C148.191,-215.575 158.722,-204.183 167.194,-195.018"/>
<polygon fill="midnightblue" stroke="midnightblue" points="169.779,-197.377 173.997,-187.658 164.639,-192.625 169.779,-197.377"/>
</g>
<!-- Node6&#45;&gt;Node5 -->
<g id="edge8" class="edge"><title>Node6&#45;&gt;Node5</title>
<path fill="none" stroke="midnightblue" d="M504.128,-229.975C435.862,-219.172 318.361,-200.578 245.715,-189.083"/>
<polygon fill="midnightblue" stroke="midnightblue" points="246.196,-185.615 235.772,-187.509 245.102,-192.529 246.196,-185.615"/>
</g>
<!-- Node7 -->
<g id="node7" class="node"><title>Node7</title>
<polygon fill="none" stroke="#bfbfbf" points="456,-168.5 456,-187.5 548,-187.5 548,-168.5 456,-168.5"/>
<text text-anchor="middle" x="502" y="-175.5" font-family="Helvetica,sans-Serif" font-size="10.00">Common/Timer.h</text>
</g>
<!-- Node6&#45;&gt;Node7 -->
<g id="edge6" class="edge"><title>Node6&#45;&gt;Node7</title>
<path fill="none" stroke="midnightblue" d="M549.977,-229.975C541.41,-220.873 527.639,-206.241 517.043,-194.983"/>
<polygon fill="midnightblue" stroke="midnightblue" points="519.411,-192.392 510.009,-187.509 514.314,-197.19 519.411,-192.392"/>
</g>
<!-- Node8 -->
<g id="node8" class="node"><title>Node8</title>
<polygon fill="none" stroke="#bfbfbf" points="566,-168.5 566,-187.5 664,-187.5 664,-168.5 566,-168.5"/>
<text text-anchor="middle" x="615" y="-175.5" font-family="Helvetica,sans-Serif" font-size="10.00">Framework/Task.h</text>
</g>
<!-- Node6&#45;&gt;Node8 -->
<g id="edge7" class="edge"><title>Node6&#45;&gt;Node8</title>
<path fill="none" stroke="midnightblue" d="M566.167,-229.975C574.886,-220.873 588.904,-206.241 599.689,-194.983"/>
<polygon fill="midnightblue" stroke="midnightblue" points="602.458,-197.151 606.848,-187.509 597.403,-192.309 602.458,-197.151"/>
</g>
<!-- Node6&#45;&gt;Node9 -->
<g id="edge9" class="edge"><title>Node6&#45;&gt;Node9</title>
<path fill="none" stroke="midnightblue" d="M604.771,-229.97C617.471,-227.83 631.239,-225.67 644,-224 811.159,-202.123 856.274,-204.83 1027.97,-188.086"/>
<polygon fill="midnightblue" stroke="midnightblue" points="1028.5,-191.551 1038.11,-187.089 1027.82,-184.584 1028.5,-191.551"/>
</g>
<!-- Node10 -->
<g id="node10" class="node"><title>Node10</title>
<polygon fill="none" stroke="#bfbfbf" points="850,-168.5 850,-187.5 1020,-187.5 1020,-168.5 850,-168.5"/>
<text text-anchor="middle" x="935" y="-175.5" font-family="Helvetica,sans-Serif" font-size="10.00">Framework/EndOfStreamContext.h</text>
</g>
<!-- Node6&#45;&gt;Node10 -->
<g id="edge10" class="edge"><title>Node6&#45;&gt;Node10</title>
<path fill="none" stroke="midnightblue" d="M608.004,-229.951C619.803,-227.966 632.341,-225.884 644,-224 720.927,-211.568 809.416,-197.986 868.424,-189.032"/>
<polygon fill="midnightblue" stroke="midnightblue" points="868.999,-192.485 878.361,-187.525 867.95,-185.564 868.999,-192.485"/>
</g>
<!-- Node11 -->
<g id="node11" class="node"><title>Node11</title>
<polygon fill="none" stroke="#bfbfbf" points="320.5,-168.5 320.5,-187.5 437.5,-187.5 437.5,-168.5 320.5,-168.5"/>
<text text-anchor="middle" x="379" y="-175.5" font-family="Helvetica,sans-Serif" font-size="10.00">Headers/DataHeader.h</text>
</g>
<!-- Node6&#45;&gt;Node11 -->
<g id="edge11" class="edge"><title>Node6&#45;&gt;Node11</title>
<path fill="none" stroke="midnightblue" d="M532.354,-229.975C501.383,-219.68 449.127,-202.31 414.349,-190.75"/>
<polygon fill="midnightblue" stroke="midnightblue" points="415.192,-187.342 404.599,-187.509 412.984,-193.985 415.192,-187.342"/>
</g>
<!-- Node12 -->
<g id="node12" class="node"><title>Node12</title>
<g id="a_node12"><a xlink:href="TaskConfig_8h.html" target="_top" xlink:title="QualityControl/TaskConfig.h">
<polygon fill="none" stroke="black" points="409,-56.5 409,-75.5 549,-75.5 549,-56.5 409,-56.5"/>
<text text-anchor="middle" x="479" y="-63.5" font-family="Helvetica,sans-Serif" font-size="10.00">QualityControl/TaskConfig.h</text>
</a>
</g>
</g>
<!-- Node6&#45;&gt;Node12 -->
<g id="edge12" class="edge"><title>Node6&#45;&gt;Node12</title>
<path fill="none" stroke="midnightblue" d="M486.427,-233.712C421.546,-227.704 332.83,-214.745 311,-188 289.641,-161.832 290.436,-138.797 311,-112 323.117,-96.2107 367.304,-84.7499 407.319,-77.3467"/>
<polygon fill="midnightblue" stroke="midnightblue" points="408.151,-80.7537 417.381,-75.5517 406.921,-73.8625 408.151,-80.7537"/>
</g>
<!-- Node14 -->
<g id="node14" class="node"><title>Node14</title>
<g id="a_node14"><a xlink:href="TaskInterface_8h.html" target="_top" xlink:title="QualityControl/TaskInterface.h">
<polygon fill="none" stroke="black" points="682,-168.5 682,-187.5 832,-187.5 832,-168.5 682,-168.5"/>
<text text-anchor="middle" x="757" y="-175.5" font-family="Helvetica,sans-Serif" font-size="10.00">QualityControl/TaskInterface.h</text>
</a>
</g>
</g>
<!-- Node6&#45;&gt;Node14 -->
<g id="edge15" class="edge"><title>Node6&#45;&gt;Node14</title>
<path fill="none" stroke="midnightblue" d="M586.512,-229.975C621.238,-219.592 680.037,-202.012 718.692,-190.454"/>
<polygon fill="midnightblue" stroke="midnightblue" points="719.963,-193.727 728.541,-187.509 717.957,-187.02 719.963,-193.727"/>
</g>
<!-- Node12&#45;&gt;Node3 -->
<g id="edge13" class="edge"><title>Node12&#45;&gt;Node3</title>
<path fill="none" stroke="midnightblue" d="M537.152,-56.4435C615.899,-44.8569 753.638,-24.59 814.991,-15.5626"/>
<polygon fill="midnightblue" stroke="midnightblue" points="815.803,-18.9809 825.187,-14.0624 814.784,-12.0555 815.803,-18.9809"/>
</g>
<!-- Node13 -->
<g id="node13" class="node"><title>Node13</title>
<polygon fill="none" stroke="#bfbfbf" points="215.5,-0.5 215.5,-19.5 298.5,-19.5 298.5,-0.5 215.5,-0.5"/>
<text text-anchor="middle" x="257" y="-7.5" font-family="Helvetica,sans-Serif" font-size="10.00">unordered_map</text>
</g>
<!-- Node12&#45;&gt;Node13 -->
<g id="edge14" class="edge"><title>Node12&#45;&gt;Node13</title>
<path fill="none" stroke="midnightblue" d="M443.823,-56.4435C405.421,-47.1024 343.824,-32.1194 301.945,-21.9326"/>
<polygon fill="midnightblue" stroke="midnightblue" points="302.556,-18.4792 292.012,-19.5164 300.901,-25.2809 302.556,-18.4792"/>
</g>
<!-- Node14&#45;&gt;Node3 -->
<g id="edge18" class="edge"><title>Node14&#45;&gt;Node3</title>
<path fill="none" stroke="midnightblue" d="M825.04,-168.477C890.868,-159.534 982.248,-144.996 993,-132 1014.53,-105.975 1013.09,-83.1561 993,-56 985.922,-46.4308 917.333,-28.348 876.393,-18.2626"/>
<polygon fill="midnightblue" stroke="midnightblue" points="877.179,-14.8518 866.634,-15.8808 875.519,-21.6522 877.179,-14.8518"/>
</g>
<!-- Node14&#45;&gt;Node13 -->
<g id="edge19" class="edge"><title>Node14&#45;&gt;Node13</title>
<path fill="none" stroke="midnightblue" d="M681.897,-168.925C678.892,-168.611 675.918,-168.301 673,-168 592.587,-159.694 376.555,-179.305 311,-132 277.212,-107.619 264.204,-57.1672 259.485,-29.7408"/>
<polygon fill="midnightblue" stroke="midnightblue" points="262.897,-28.8995 257.934,-19.5394 255.977,-29.952 262.897,-28.8995"/>
</g>
<!-- Node15 -->
<g id="node15" class="node"><title>Node15</title>
<polygon fill="none" stroke="#bfbfbf" points="1199.5,-0.5 1199.5,-19.5 1234.5,-19.5 1234.5,-0.5 1199.5,-0.5"/>
<text text-anchor="middle" x="1217" y="-7.5" font-family="Helvetica,sans-Serif" font-size="10.00">map</text>
</g>
<!-- Node14&#45;&gt;Node15 -->
<g id="edge16" class="edge"><title>Node14&#45;&gt;Node15</title>
<path fill="none" stroke="midnightblue" d="M816.884,-168.476C869.021,-160.58 946.462,-147.703 1013,-132 1097.85,-111.975 1140.85,-139.114 1201,-76 1212.64,-63.7852 1216.22,-44.5184 1217.14,-30.1273"/>
<polygon fill="midnightblue" stroke="midnightblue" points="1220.65,-29.948 1217.42,-19.8591 1213.65,-29.7633 1220.65,-29.948"/>
</g>
<!-- Node16 -->
<g id="node16" class="node"><title>Node16</title>
<polygon fill="none" stroke="#bfbfbf" points="754,-56.5 754,-75.5 806,-75.5 806,-56.5 754,-56.5"/>
<text text-anchor="middle" x="780" y="-63.5" font-family="Helvetica,sans-Serif" font-size="10.00">memory</text>
</g>
<!-- Node14&#45;&gt;Node16 -->
<g id="edge17" class="edge"><title>Node14&#45;&gt;Node16</title>
<path fill="none" stroke="midnightblue" d="M761.408,-168.294C765.68,-159.413 771.949,-145.113 775,-132 778.571,-116.653 779.737,-98.775 780.057,-85.6573"/>
<polygon fill="midnightblue" stroke="midnightblue" points="783.558,-85.5736 780.161,-75.5384 776.559,-85.5022 783.558,-85.5736"/>
</g>
<!-- Node17 -->
<g id="node17" class="node"><title>Node17</title>
<polygon fill="none" stroke="#bfbfbf" points="320.5,-112.5 320.5,-131.5 445.5,-131.5 445.5,-112.5 320.5,-112.5"/>
<text text-anchor="middle" x="383" y="-119.5" font-family="Helvetica,sans-Serif" font-size="10.00">Framework/InitContext.h</text>
</g>
<!-- Node14&#45;&gt;Node17 -->
<g id="edge20" class="edge"><title>Node14&#45;&gt;Node17</title>
<path fill="none" stroke="midnightblue" d="M697.739,-168.444C630.991,-158.806 522.651,-143.163 452.108,-132.978"/>
<polygon fill="midnightblue" stroke="midnightblue" points="452.382,-129.481 441.984,-131.516 451.381,-136.41 452.382,-129.481"/>
</g>
<!-- Node18 -->
<g id="node18" class="node"><title>Node18</title>
<polygon fill="none" stroke="#bfbfbf" points="464,-112.5 464,-131.5 624,-131.5 624,-112.5 464,-112.5"/>
<text text-anchor="middle" x="544" y="-119.5" font-family="Helvetica,sans-Serif" font-size="10.00">Framework/ProcessingContext.h</text>
</g>
<!-- Node14&#45;&gt;Node18 -->
<g id="edge21" class="edge"><title>Node14&#45;&gt;Node18</title>
<path fill="none" stroke="midnightblue" d="M723.25,-168.444C686.482,-159.122 627.554,-144.183 587.378,-133.997"/>
<polygon fill="midnightblue" stroke="midnightblue" points="588.146,-130.581 577.593,-131.516 586.426,-137.367 588.146,-130.581"/>
</g>
<!-- Node19 -->
<g id="node19" class="node"><title>Node19</title>
<g id="a_node19"><a xlink:href="Activity_8h.html" target="_top" xlink:title="QualityControl/Activity.h">
<polygon fill="none" stroke="black" points="642.5,-112.5 642.5,-131.5 765.5,-131.5 765.5,-112.5 642.5,-112.5"/>
<text text-anchor="middle" x="704" y="-119.5" font-family="Helvetica,sans-Serif" font-size="10.00">QualityControl/Activity.h</text>
</a>
</g>
</g>
<!-- Node14&#45;&gt;Node19 -->
<g id="edge22" class="edge"><title>Node14&#45;&gt;Node19</title>
<path fill="none" stroke="midnightblue" d="M748.248,-168.083C740.53,-160.22 729.095,-148.569 719.783,-139.081"/>
<polygon fill="midnightblue" stroke="midnightblue" points="722.092,-136.436 712.589,-131.751 717.096,-141.34 722.092,-136.436"/>
</g>
<!-- Node20 -->
<g id="node20" class="node"><title>Node20</title>
<g id="a_node20"><a xlink:href="ObjectsManager_8h.html" target="_top" xlink:title="QualityControl/ObjectsManager.h">
<polygon fill="none" stroke="black" points="822.5,-112.5 822.5,-131.5 983.5,-131.5 983.5,-112.5 822.5,-112.5"/>
<text text-anchor="middle" x="903" y="-119.5" font-family="Helvetica,sans-Serif" font-size="10.00">QualityControl/ObjectsManager.h</text>
</a>
</g>
</g>
<!-- Node14&#45;&gt;Node20 -->
<g id="edge23" class="edge"><title>Node14&#45;&gt;Node20</title>
<path fill="none" stroke="midnightblue" d="M780.134,-168.444C804.482,-159.438 843.007,-145.189 870.423,-135.049"/>
<polygon fill="midnightblue" stroke="midnightblue" points="871.809,-138.268 879.974,-131.516 869.381,-131.703 871.809,-138.268"/>
</g>
<!-- Node20&#45;&gt;Node3 -->
<g id="edge34" class="edge"><title>Node20&#45;&gt;Node3</title>
<path fill="none" stroke="midnightblue" d="M889.287,-112.483C877.8,-104.548 862.032,-91.6109 854,-76 846.604,-61.6246 844.956,-43.1661 844.952,-29.5948"/>
<polygon fill="midnightblue" stroke="midnightblue" points="848.452,-29.6392 845.246,-19.5413 841.455,-29.4347 848.452,-29.6392"/>
</g>
<!-- Node20&#45;&gt;Node12 -->
<g id="edge33" class="edge"><title>Node20&#45;&gt;Node12</title>
<path fill="none" stroke="midnightblue" d="M835.816,-112.444C759.679,-102.747 635.809,-86.9709 555.877,-76.791"/>
<polygon fill="midnightblue" stroke="midnightblue" points="556.232,-73.3079 545.87,-75.5164 555.347,-80.2519 556.232,-73.3079"/>
</g>
<!-- Node20&#45;&gt;Node16 -->
<g id="edge35" class="edge"><title>Node20&#45;&gt;Node16</title>
<path fill="none" stroke="midnightblue" d="M883.51,-112.444C863.358,-103.596 831.677,-89.6875 808.669,-79.5865"/>
<polygon fill="midnightblue" stroke="midnightblue" points="809.962,-76.3316 799.399,-75.5164 807.148,-82.7411 809.962,-76.3316"/>
</g>
<!-- Node21 -->
<g id="node21" class="node"><title>Node21</title>
<g id="a_node21"><a xlink:href="MonitorObject_8h.html" target="_top" xlink:title="QualityControl/MonitorObject.h">
<polygon fill="none" stroke="black" points="1040.5,-56.5 1040.5,-75.5 1191.5,-75.5 1191.5,-56.5 1040.5,-56.5"/>
<text text-anchor="middle" x="1116" y="-63.5" font-family="Helvetica,sans-Serif" font-size="10.00">QualityControl/MonitorObject.h</text>
</a>
</g>
</g>
<!-- Node20&#45;&gt;Node21 -->
<g id="edge24" class="edge"><title>Node20&#45;&gt;Node21</title>
<path fill="none" stroke="midnightblue" d="M936.75,-112.444C973.518,-103.122 1032.45,-88.1828 1072.62,-77.9972"/>
<polygon fill="midnightblue" stroke="midnightblue" points="1073.57,-81.3666 1082.41,-75.5164 1071.85,-74.5813 1073.57,-81.3666"/>
</g>
<!-- Node25 -->
<g id="node25" class="node"><title>Node25</title>
<g id="a_node25"><a xlink:href="Quality_8h.html" target="_top" xlink:title="QualityControl/Quality.h">
<polygon fill="none" stroke="black" points="862.5,-56.5 862.5,-75.5 983.5,-75.5 983.5,-56.5 862.5,-56.5"/>
<text text-anchor="middle" x="923" y="-63.5" font-family="Helvetica,sans-Serif" font-size="10.00">QualityControl/Quality.h</text>
</a>
</g>
</g>
<!-- Node20&#45;&gt;Node25 -->
<g id="edge30" class="edge"><title>Node20&#45;&gt;Node25</title>
<path fill="none" stroke="midnightblue" d="M906.303,-112.083C908.982,-104.849 912.849,-94.4087 916.186,-85.3968"/>
<polygon fill="midnightblue" stroke="midnightblue" points="919.568,-86.3442 919.759,-75.7511 913.004,-83.9129 919.568,-86.3442"/>
</g>
<!-- Node21&#45;&gt;Node3 -->
<g id="edge25" class="edge"><title>Node21&#45;&gt;Node3</title>
<path fill="none" stroke="midnightblue" d="M1072.03,-56.4273C1026.28,-47.4737 952.579,-32.9551 889,-20 884.995,-19.1839 880.782,-18.315 876.624,-17.4512"/>
<polygon fill="midnightblue" stroke="midnightblue" points="877.055,-13.9658 866.551,-15.3476 875.624,-20.818 877.055,-13.9658"/>
</g>
<!-- Node21&#45;&gt;Node15 -->
<g id="edge26" class="edge"><title>Node21&#45;&gt;Node15</title>
<path fill="none" stroke="midnightblue" d="M1132.23,-56.324C1148.35,-47.7034 1173.3,-34.3643 1191.96,-24.3855"/>
<polygon fill="midnightblue" stroke="midnightblue" points="1193.64,-27.456 1200.81,-19.6545 1190.34,-21.283 1193.64,-27.456"/>
</g>
<!-- Node22 -->
<g id="node22" class="node"><title>Node22</title>
<polygon fill="none" stroke="#bfbfbf" points="898,-0.5 898,-19.5 954,-19.5 954,-0.5 898,-0.5"/>
<text text-anchor="middle" x="926" y="-7.5" font-family="Helvetica,sans-Serif" font-size="10.00">Rtypes.h</text>
</g>
<!-- Node21&#45;&gt;Node22 -->
<g id="edge27" class="edge"><title>Node21&#45;&gt;Node22</title>
<path fill="none" stroke="midnightblue" d="M1085.89,-56.4435C1052.8,-47.038 999.582,-31.9127 963.728,-21.7227"/>
<polygon fill="midnightblue" stroke="midnightblue" points="964.683,-18.3556 954.107,-18.9883 962.769,-25.0889 964.683,-18.3556"/>
</g>
<!-- Node23 -->
<g id="node23" class="node"><title>Node23</title>
<polygon fill="none" stroke="#bfbfbf" points="1117.5,-0.5 1117.5,-19.5 1176.5,-19.5 1176.5,-0.5 1117.5,-0.5"/>
<text text-anchor="middle" x="1147" y="-7.5" font-family="Helvetica,sans-Serif" font-size="10.00">TObject.h</text>
</g>
<!-- Node21&#45;&gt;Node23 -->
<g id="edge28" class="edge"><title>Node21&#45;&gt;Node23</title>
<path fill="none" stroke="midnightblue" d="M1121.12,-56.083C1125.41,-48.6127 1131.66,-37.7244 1136.94,-28.5199"/>
<polygon fill="midnightblue" stroke="midnightblue" points="1140.03,-30.1662 1141.98,-19.7511 1133.96,-26.6811 1140.03,-30.1662"/>
</g>
<!-- Node24 -->
<g id="node24" class="node"><title>Node24</title>
<polygon fill="none" stroke="#bfbfbf" points="983,-0.5 983,-19.5 1099,-19.5 1099,-0.5 983,-0.5"/>
<text text-anchor="middle" x="1041" y="-7.5" font-family="Helvetica,sans-Serif" font-size="10.00">Common/Exceptions.h</text>
</g>
<!-- Node21&#45;&gt;Node24 -->
<g id="edge29" class="edge"><title>Node21&#45;&gt;Node24</title>
<path fill="none" stroke="midnightblue" d="M1103.95,-56.324C1092.54,-48.1066 1075.17,-35.6017 1061.57,-25.8069"/>
<polygon fill="midnightblue" stroke="midnightblue" points="1063.43,-22.8366 1053.27,-19.8339 1059.34,-28.5174 1063.43,-22.8366"/>
</g>
<!-- Node25&#45;&gt;Node3 -->
<g id="edge32" class="edge"><title>Node25&#45;&gt;Node3</title>
<path fill="none" stroke="midnightblue" d="M910.629,-56.324C898.842,-48.0577 880.868,-35.4527 866.864,-25.6322"/>
<polygon fill="midnightblue" stroke="midnightblue" points="868.538,-22.5307 858.341,-19.6545 864.518,-28.2619 868.538,-22.5307"/>
</g>
<!-- Node25&#45;&gt;Node22 -->
<g id="edge31" class="edge"><title>Node25&#45;&gt;Node22</title>
<path fill="none" stroke="midnightblue" d="M923.495,-56.083C923.889,-49.0059 924.452,-38.8611 924.945,-29.9865"/>
<polygon fill="midnightblue" stroke="midnightblue" points="928.454,-29.9299 925.514,-19.7511 921.464,-29.5415 928.454,-29.9299"/>
</g>
</g>
</svg>
