<?xml version="1.0" encoding="UTF-8" standalone="no"?>
<!DOCTYPE svg PUBLIC "-//W3C//DTD SVG 1.1//EN"
 "http://www.w3.org/Graphics/SVG/1.1/DTD/svg11.dtd">
<!-- Generated by graphviz version 2.38.0 (20140413.2041)
 -->
<!-- Title: Modules/EMCAL/test/testEMCAL.cxx Pages: 1 -->
<svg width="965pt" height="319pt"
 viewBox="0.00 0.00 965.21 319.00" xmlns="http://www.w3.org/2000/svg" xmlns:xlink="http://www.w3.org/1999/xlink">
<g id="graph0" class="graph" transform="scale(1 1) rotate(0) translate(4 315)">
<title>Modules/EMCAL/test/testEMCAL.cxx</title>
<!-- Node1 -->
<g id="node1" class="node"><title>Node1</title>
<polygon fill="#bfbfbf" stroke="black" points="767.715,-280.5 767.715,-310.5 877.715,-310.5 877.715,-280.5 767.715,-280.5"/>
<text text-anchor="start" x="775.715" y="-298.5" font-family="Helvetica,sans-Serif" font-size="10.00">Modules/EMCAL/test</text>
<text text-anchor="middle" x="822.715" y="-287.5" font-family="Helvetica,sans-Serif" font-size="10.00">/testEMCAL.cxx</text>
</g>
<!-- Node2 -->
<g id="node2" class="node"><title>Node2</title>
<g id="a_node2"><a xlink:href="TaskFactory_8h.html" target="_top" xlink:title="QualityControl/TaskFactory.h">
<polygon fill="none" stroke="black" points="675.215,-224.5 675.215,-243.5 820.215,-243.5 820.215,-224.5 675.215,-224.5"/>
<text text-anchor="middle" x="747.715" y="-231.5" font-family="Helvetica,sans-Serif" font-size="10.00">QualityControl/TaskFactory.h</text>
</a>
</g>
</g>
<!-- Node1&#45;&gt;Node2 -->
<g id="edge1" class="edge"><title>Node1&#45;&gt;Node2</title>
<path fill="none" stroke="midnightblue" d="M804.941,-280.399C793.368,-271.218 778.292,-259.258 766.519,-249.918"/>
<polygon fill="midnightblue" stroke="midnightblue" points="768.637,-247.131 758.628,-243.658 764.287,-252.615 768.637,-247.131"/>
</g>
<!-- Node18 -->
<g id="node18" class="node"><title>Node18</title>
<polygon fill="none" stroke="#bfbfbf" points="838.215,-224.5 838.215,-243.5 957.215,-243.5 957.215,-224.5 838.215,-224.5"/>
<text text-anchor="middle" x="897.715" y="-231.5" font-family="Helvetica,sans-Serif" font-size="10.00">boost/test/unit_test.hpp</text>
</g>
<!-- Node1&#45;&gt;Node18 -->
<g id="edge27" class="edge"><title>Node1&#45;&gt;Node18</title>
<path fill="none" stroke="midnightblue" d="M840.489,-280.399C852.061,-271.218 867.137,-259.258 878.91,-249.918"/>
<polygon fill="midnightblue" stroke="midnightblue" points="881.143,-252.615 886.801,-243.658 876.792,-247.131 881.143,-252.615"/>
</g>
<!-- Node3 -->
<g id="node3" class="node"><title>Node3</title>
<polygon fill="none" stroke="#bfbfbf" points="810.715,-56.5 810.715,-75.5 862.715,-75.5 862.715,-56.5 810.715,-56.5"/>
<text text-anchor="middle" x="836.715" y="-63.5" font-family="Helvetica,sans-Serif" font-size="10.00">memory</text>
</g>
<!-- Node2&#45;&gt;Node3 -->
<g id="edge2" class="edge"><title>Node2&#45;&gt;Node3</title>
<path fill="none" stroke="midnightblue" d="M752.5,-224.075C766.63,-197.719 808.364,-119.878 827.246,-84.6608"/>
<polygon fill="midnightblue" stroke="midnightblue" points="830.48,-86.0352 832.121,-75.5681 824.311,-82.7275 830.48,-86.0352"/>
</g>
<!-- Node4 -->
<g id="node4" class="node"><title>Node4</title>
<g id="a_node4"><a xlink:href="TaskConfig_8h.html" target="_top" xlink:title="QualityControl/TaskConfig.h">
<polygon fill="none" stroke="black" points="652.715,-56.5 652.715,-75.5 792.715,-75.5 792.715,-56.5 652.715,-56.5"/>
<text text-anchor="middle" x="722.715" y="-63.5" font-family="Helvetica,sans-Serif" font-size="10.00">QualityControl/TaskConfig.h</text>
</a>
</g>
</g>
<!-- Node2&#45;&gt;Node4 -->
<g id="edge3" class="edge"><title>Node2&#45;&gt;Node4</title>
<path fill="none" stroke="midnightblue" d="M746.37,-224.075C742.435,-197.945 730.879,-121.211 725.512,-85.577"/>
<polygon fill="midnightblue" stroke="midnightblue" points="728.955,-84.9353 724.005,-75.5681 722.033,-85.9779 728.955,-84.9353"/>
</g>
<!-- Node7 -->
<g id="node7" class="node"><title>Node7</title>
<g id="a_node7"><a xlink:href="TaskInterface_8h.html" target="_top" xlink:title="QualityControl/TaskInterface.h">
<polygon fill="none" stroke="black" points="487.715,-168.5 487.715,-187.5 637.715,-187.5 637.715,-168.5 487.715,-168.5"/>
<text text-anchor="middle" x="562.715" y="-175.5" font-family="Helvetica,sans-Serif" font-size="10.00">QualityControl/TaskInterface.h</text>
</a>
</g>
</g>
<!-- Node2&#45;&gt;Node7 -->
<g id="edge6" class="edge"><title>Node2&#45;&gt;Node7</title>
<path fill="none" stroke="midnightblue" d="M718.401,-224.444C686.872,-215.241 636.583,-200.562 601.729,-190.388"/>
<polygon fill="midnightblue" stroke="midnightblue" points="602.471,-186.959 591.891,-187.516 600.51,-193.678 602.471,-186.959"/>
</g>
<!-- Node5 -->
<g id="node5" class="node"><title>Node5</title>
<polygon fill="none" stroke="#bfbfbf" points="566.215,-0.5 566.215,-19.5 607.215,-19.5 607.215,-0.5 566.215,-0.5"/>
<text text-anchor="middle" x="586.715" y="-7.5" font-family="Helvetica,sans-Serif" font-size="10.00">string</text>
</g>
<!-- Node4&#45;&gt;Node5 -->
<g id="edge4" class="edge"><title>Node4&#45;&gt;Node5</title>
<path fill="none" stroke="midnightblue" d="M701.165,-56.4435C678.419,-47.4121 642.391,-33.1067 616.839,-22.9612"/>
<polygon fill="midnightblue" stroke="midnightblue" points="617.859,-19.6004 607.273,-19.1629 615.276,-26.1063 617.859,-19.6004"/>
</g>
<!-- Node6 -->
<g id="node6" class="node"><title>Node6</title>
<polygon fill="none" stroke="#bfbfbf" points="765.215,-0.5 765.215,-19.5 848.215,-19.5 848.215,-0.5 765.215,-0.5"/>
<text text-anchor="middle" x="806.715" y="-7.5" font-family="Helvetica,sans-Serif" font-size="10.00">unordered_map</text>
</g>
<!-- Node4&#45;&gt;Node6 -->
<g id="edge5" class="edge"><title>Node4&#45;&gt;Node6</title>
<path fill="none" stroke="midnightblue" d="M736.211,-56.324C749.314,-47.9002 769.426,-34.9709 784.821,-25.0741"/>
<polygon fill="midnightblue" stroke="midnightblue" points="786.733,-28.0063 793.252,-19.6545 782.948,-22.118 786.733,-28.0063"/>
</g>
<!-- Node7&#45;&gt;Node3 -->
<g id="edge8" class="edge"><title>Node7&#45;&gt;Node3</title>
<path fill="none" stroke="midnightblue" d="M587.371,-168.435C612.314,-159.664 651.91,-145.448 685.715,-132 728.84,-114.845 778.107,-93.2562 808.311,-79.789"/>
<polygon fill="midnightblue" stroke="midnightblue" points="810.087,-82.8288 817.787,-75.5513 807.229,-76.4387 810.087,-82.8288"/>
</g>
<!-- Node7&#45;&gt;Node5 -->
<g id="edge9" class="edge"><title>Node7&#45;&gt;Node5</title>
<path fill="none" stroke="midnightblue" d="M599.417,-168.349C618.548,-161.775 640.287,-150.583 651.715,-132 663.493,-112.846 622.642,-56.2465 600.312,-27.7669"/>
<polygon fill="midnightblue" stroke="midnightblue" points="602.77,-25.2347 593.803,-19.5915 597.293,-29.5948 602.77,-25.2347"/>
</g>
<!-- Node7&#45;&gt;Node6 -->
<g id="edge10" class="edge"><title>Node7&#45;&gt;Node6</title>
<path fill="none" stroke="midnightblue" d="M637.763,-176.436C711.443,-171.328 820.065,-150.589 871.715,-76 885.751,-55.7299 859.173,-36.2526 835.889,-23.9934"/>
<polygon fill="midnightblue" stroke="midnightblue" points="837.405,-20.8382 826.894,-19.5081 834.281,-27.1026 837.405,-20.8382"/>
</g>
<!-- Node8 -->
<g id="node8" class="node"><title>Node8</title>
<polygon fill="none" stroke="#bfbfbf" points="65.2146,-0.5 65.2146,-19.5 100.215,-19.5 100.215,-0.5 65.2146,-0.5"/>
<text text-anchor="middle" x="82.7146" y="-7.5" font-family="Helvetica,sans-Serif" font-size="10.00">map</text>
</g>
<!-- Node7&#45;&gt;Node8 -->
<g id="edge7" class="edge"><title>Node7&#45;&gt;Node8</title>
<path fill="none" stroke="midnightblue" d="M487.523,-176.415C343.795,-174.511 41.4419,-166.414 9.71455,-132 -21.1426,-98.5298 31.0841,-50.01 62.1638,-25.8413"/>
<polygon fill="midnightblue" stroke="midnightblue" points="64.4167,-28.5259 70.2825,-19.703 60.195,-22.9422 64.4167,-28.5259"/>
</g>
<!-- Node9 -->
<g id="node9" class="node"><title>Node9</title>
<polygon fill="none" stroke="#bfbfbf" points="19.2146,-112.5 19.2146,-131.5 144.215,-131.5 144.215,-112.5 19.2146,-112.5"/>
<text text-anchor="middle" x="81.7146" y="-119.5" font-family="Helvetica,sans-Serif" font-size="10.00">Framework/InitContext.h</text>
</g>
<!-- Node7&#45;&gt;Node9 -->
<g id="edge11" class="edge"><title>Node7&#45;&gt;Node9</title>
<path fill="none" stroke="midnightblue" d="M487.67,-169.079C407.773,-160.57 277.347,-146.461 154.499,-132.077"/>
<polygon fill="midnightblue" stroke="midnightblue" points="154.876,-128.598 144.537,-130.908 154.06,-135.55 154.876,-128.598"/>
</g>
<!-- Node10 -->
<g id="node10" class="node"><title>Node10</title>
<polygon fill="none" stroke="#bfbfbf" points="162.715,-112.5 162.715,-131.5 322.715,-131.5 322.715,-112.5 162.715,-112.5"/>
<text text-anchor="middle" x="242.715" y="-119.5" font-family="Helvetica,sans-Serif" font-size="10.00">Framework/ProcessingContext.h</text>
</g>
<!-- Node7&#45;&gt;Node10 -->
<g id="edge12" class="edge"><title>Node7&#45;&gt;Node10</title>
<path fill="none" stroke="midnightblue" d="M512.01,-168.444C455.367,-158.885 363.719,-143.419 303.335,-133.23"/>
<polygon fill="midnightblue" stroke="midnightblue" points="303.625,-129.729 293.182,-131.516 302.46,-136.632 303.625,-129.729"/>
</g>
<!-- Node11 -->
<g id="node11" class="node"><title>Node11</title>
<g id="a_node11"><a xlink:href="Activity_8h.html" target="_top" xlink:title="QualityControl/Activity.h">
<polygon fill="none" stroke="black" points="341.215,-112.5 341.215,-131.5 464.215,-131.5 464.215,-112.5 341.215,-112.5"/>
<text text-anchor="middle" x="402.715" y="-119.5" font-family="Helvetica,sans-Serif" font-size="10.00">QualityControl/Activity.h</text>
</a>
</g>
</g>
<!-- Node7&#45;&gt;Node11 -->
<g id="edge13" class="edge"><title>Node7&#45;&gt;Node11</title>
<path fill="none" stroke="midnightblue" d="M537.362,-168.444C510.445,-159.359 467.718,-144.939 437.628,-134.783"/>
<polygon fill="midnightblue" stroke="midnightblue" points="438.543,-131.398 427.948,-131.516 436.304,-138.031 438.543,-131.398"/>
</g>
<!-- Node12 -->
<g id="node12" class="node"><title>Node12</title>
<g id="a_node12"><a xlink:href="ObjectsManager_8h.html" target="_top" xlink:title="QualityControl/ObjectsManager.h">
<polygon fill="none" stroke="black" points="482.215,-112.5 482.215,-131.5 643.215,-131.5 643.215,-112.5 482.215,-112.5"/>
<text text-anchor="middle" x="562.715" y="-119.5" font-family="Helvetica,sans-Serif" font-size="10.00">QualityControl/ObjectsManager.h</text>
</a>
</g>
</g>
<!-- Node7&#45;&gt;Node12 -->
<g id="edge14" class="edge"><title>Node7&#45;&gt;Node12</title>
<path fill="none" stroke="midnightblue" d="M562.715,-168.083C562.715,-161.006 562.715,-150.861 562.715,-141.986"/>
<polygon fill="midnightblue" stroke="midnightblue" points="566.215,-141.751 562.715,-131.751 559.215,-141.751 566.215,-141.751"/>
</g>
<!-- Node12&#45;&gt;Node3 -->
<g id="edge26" class="edge"><title>Node12&#45;&gt;Node3</title>
<path fill="none" stroke="midnightblue" d="M613.267,-112.474C659.597,-104.437 730.303,-91.6119 800.488,-76.1644"/>
<polygon fill="midnightblue" stroke="midnightblue" points="801.382,-79.5513 810.386,-73.9675 799.865,-72.7176 801.382,-79.5513"/>
</g>
<!-- Node12&#45;&gt;Node4 -->
<g id="edge24" class="edge"><title>Node12&#45;&gt;Node4</title>
<path fill="none" stroke="midnightblue" d="M588.067,-112.444C614.984,-103.359 657.711,-88.9388 687.802,-78.7831"/>
<polygon fill="midnightblue" stroke="midnightblue" points="689.125,-82.0305 697.481,-75.5164 686.887,-75.3981 689.125,-82.0305"/>
</g>
<!-- Node12&#45;&gt;Node5 -->
<g id="edge25" class="edge"><title>Node12&#45;&gt;Node5</title>
<path fill="none" stroke="midnightblue" d="M564.598,-112.368C568.471,-94.617 577.406,-53.6664 582.657,-29.5974"/>
<polygon fill="midnightblue" stroke="midnightblue" points="586.128,-30.1077 584.84,-19.5914 579.289,-28.6155 586.128,-30.1077"/>
</g>
<!-- Node13 -->
<g id="node13" class="node"><title>Node13</title>
<g id="a_node13"><a xlink:href="MonitorObject_8h.html" target="_top" xlink:title="QualityControl/MonitorObject.h">
<polygon fill="none" stroke="black" points="268.215,-56.5 268.215,-75.5 419.215,-75.5 419.215,-56.5 268.215,-56.5"/>
<text text-anchor="middle" x="343.715" y="-63.5" font-family="Helvetica,sans-Serif" font-size="10.00">QualityControl/MonitorObject.h</text>
</a>
</g>
</g>
<!-- Node12&#45;&gt;Node13 -->
<g id="edge15" class="edge"><title>Node12&#45;&gt;Node13</title>
<path fill="none" stroke="midnightblue" d="M528.013,-112.444C490.13,-103.102 429.366,-88.1194 388.052,-77.9326"/>
<polygon fill="midnightblue" stroke="midnightblue" points="388.801,-74.5123 378.253,-75.5164 387.125,-81.3088 388.801,-74.5123"/>
</g>
<!-- Node17 -->
<g id="node17" class="node"><title>Node17</title>
<g id="a_node17"><a xlink:href="Quality_8h.html" target="_top" xlink:title="QualityControl/Quality.h">
<polygon fill="none" stroke="black" points="437.215,-56.5 437.215,-75.5 558.215,-75.5 558.215,-56.5 437.215,-56.5"/>
<text text-anchor="middle" x="497.715" y="-63.5" font-family="Helvetica,sans-Serif" font-size="10.00">QualityControl/Quality.h</text>
</a>
</g>
</g>
<!-- Node12&#45;&gt;Node17 -->
<g id="edge21" class="edge"><title>Node12&#45;&gt;Node17</title>
<path fill="none" stroke="midnightblue" d="M552.271,-112.324C542.568,-104.263 527.899,-92.0765 516.215,-82.3695"/>
<polygon fill="midnightblue" stroke="midnightblue" points="518.276,-79.532 508.348,-75.8339 513.803,-84.9163 518.276,-79.532"/>
</g>
<!-- Node13&#45;&gt;Node5 -->
<g id="edge16" class="edge"><title>Node13&#45;&gt;Node5</title>
<path fill="none" stroke="midnightblue" d="M382.219,-56.4435C430.414,-45.7335 511.982,-27.6072 556.132,-17.7961"/>
<polygon fill="midnightblue" stroke="midnightblue" points="556.99,-21.191 565.992,-15.6049 555.471,-14.3576 556.99,-21.191"/>
</g>
<!-- Node13&#45;&gt;Node8 -->
<g id="edge17" class="edge"><title>Node13&#45;&gt;Node8</title>
<path fill="none" stroke="midnightblue" d="M302.358,-56.4435C248.617,-45.3247 156.241,-26.2124 110.312,-16.7097"/>
<polygon fill="midnightblue" stroke="midnightblue" points="110.966,-13.2711 100.464,-14.6723 109.548,-20.1259 110.966,-13.2711"/>
</g>
<!-- Node14 -->
<g id="node14" class="node"><title>Node14</title>
<polygon fill="none" stroke="#bfbfbf" points="444.715,-0.5 444.715,-19.5 500.715,-19.5 500.715,-0.5 444.715,-0.5"/>
<text text-anchor="middle" x="472.715" y="-7.5" font-family="Helvetica,sans-Serif" font-size="10.00">Rtypes.h</text>
</g>
<!-- Node13&#45;&gt;Node14 -->
<g id="edge18" class="edge"><title>Node13&#45;&gt;Node14</title>
<path fill="none" stroke="midnightblue" d="M364.155,-56.4435C385.385,-47.5566 418.814,-33.5632 442.97,-23.4514"/>
<polygon fill="midnightblue" stroke="midnightblue" points="444.497,-26.6064 452.37,-19.5164 441.794,-20.1493 444.497,-26.6064"/>
</g>
<!-- Node15 -->
<g id="node15" class="node"><title>Node15</title>
<polygon fill="none" stroke="#bfbfbf" points="221.215,-0.5 221.215,-19.5 280.215,-19.5 280.215,-0.5 221.215,-0.5"/>
<text text-anchor="middle" x="250.715" y="-7.5" font-family="Helvetica,sans-Serif" font-size="10.00">TObject.h</text>
</g>
<!-- Node13&#45;&gt;Node15 -->
<g id="edge19" class="edge"><title>Node13&#45;&gt;Node15</title>
<path fill="none" stroke="midnightblue" d="M328.772,-56.324C314.129,-47.8215 291.581,-34.7288 274.477,-24.7975"/>
<polygon fill="midnightblue" stroke="midnightblue" points="276.025,-21.6491 265.62,-19.6545 272.51,-27.7027 276.025,-21.6491"/>
</g>
<!-- Node16 -->
<g id="node16" class="node"><title>Node16</title>
<polygon fill="none" stroke="#bfbfbf" points="298.715,-0.5 298.715,-19.5 414.715,-19.5 414.715,-0.5 298.715,-0.5"/>
<text text-anchor="middle" x="356.715" y="-7.5" font-family="Helvetica,sans-Serif" font-size="10.00">Common/Exceptions.h</text>
</g>
<!-- Node13&#45;&gt;Node16 -->
<g id="edge20" class="edge"><title>Node13&#45;&gt;Node16</title>
<path fill="none" stroke="midnightblue" d="M345.861,-56.083C347.584,-48.9272 350.062,-38.6353 352.215,-29.6911"/>
<polygon fill="midnightblue" stroke="midnightblue" points="355.67,-30.2925 354.608,-19.7511 348.864,-28.6541 355.67,-30.2925"/>
</g>
<!-- Node17&#45;&gt;Node5 -->
<g id="edge23" class="edge"><title>Node17&#45;&gt;Node5</title>
<path fill="none" stroke="midnightblue" d="M512.014,-56.324C525.897,-47.9002 547.207,-34.9709 563.518,-25.0741"/>
<polygon fill="midnightblue" stroke="midnightblue" points="565.717,-27.8341 572.451,-19.6545 562.086,-21.8495 565.717,-27.8341"/>
</g>
<!-- Node17&#45;&gt;Node14 -->
<g id="edge22" class="edge"><title>Node17&#45;&gt;Node14</title>
<path fill="none" stroke="midnightblue" d="M493.586,-56.083C490.201,-48.77 485.299,-38.1814 481.096,-29.1034"/>
<polygon fill="midnightblue" stroke="midnightblue" points="484.143,-27.3553 476.766,-19.7511 477.791,-30.2962 484.143,-27.3553"/>
</g>
</g>
</svg>
