<?xml version="1.0" encoding="UTF-8" standalone="no"?>
<!DOCTYPE svg PUBLIC "-//W3C//DTD SVG 1.1//EN"
 "http://www.w3.org/Graphics/SVG/1.1/DTD/svg11.dtd">
<!-- Generated by graphviz version 2.38.0 (20140413.2041)
 -->
<!-- Title: Framework/test/testTaskRunner.cxx Pages: 1 -->
<svg width="1223pt" height="319pt"
 viewBox="0.00 0.00 1222.50 319.00" xmlns="http://www.w3.org/2000/svg" xmlns:xlink="http://www.w3.org/1999/xlink">
<g id="graph0" class="graph" transform="scale(1 1) rotate(0) translate(4 315)">
<title>Framework/test/testTaskRunner.cxx</title>
<!-- Node1 -->
<g id="node1" class="node"><title>Node1</title>
<polygon fill="#bfbfbf" stroke="black" points="454.5,-291.5 454.5,-310.5 630.5,-310.5 630.5,-291.5 454.5,-291.5"/>
<text text-anchor="middle" x="542.5" y="-298.5" font-family="Helvetica,sans-Serif" font-size="10.00">Framework/test/testTaskRunner.cxx</text>
</g>
<!-- Node2 -->
<g id="node2" class="node"><title>Node2</title>
<polygon fill="none" stroke="#bfbfbf" points="0,-230 0,-249 119,-249 119,-230 0,-230"/>
<text text-anchor="middle" x="59.5" y="-237" font-family="Helvetica,sans-Serif" font-size="10.00">getTestDataDirectory.h</text>
</g>
<!-- Node1&#45;&gt;Node2 -->
<g id="edge1" class="edge"><title>Node1&#45;&gt;Node2</title>
<path fill="none" stroke="midnightblue" d="M454.312,-293.066C370.062,-285.822 239.664,-272.992 127.5,-255 120.613,-253.895 113.371,-252.551 106.285,-251.131"/>
<polygon fill="midnightblue" stroke="midnightblue" points="106.576,-247.617 96.0737,-249.015 105.156,-254.471 106.576,-247.617"/>
</g>
<!-- Node3 -->
<g id="node3" class="node"><title>Node3</title>
<g id="a_node3"><a xlink:href="TaskRunnerFactory_8h.html" target="_top" xlink:title="QualityControl/TaskRunner\lFactory.h">
<polygon fill="none" stroke="black" points="137,-224.5 137,-254.5 272,-254.5 272,-224.5 137,-224.5"/>
<text text-anchor="start" x="145" y="-242.5" font-family="Helvetica,sans-Serif" font-size="10.00">QualityControl/TaskRunner</text>
<text text-anchor="middle" x="204.5" y="-231.5" font-family="Helvetica,sans-Serif" font-size="10.00">Factory.h</text>
</a>
</g>
</g>
<!-- Node1&#45;&gt;Node3 -->
<g id="edge2" class="edge"><title>Node1&#45;&gt;Node3</title>
<path fill="none" stroke="midnightblue" d="M494.073,-291.475C438.8,-281.745 347.623,-265.695 282.342,-254.203"/>
<polygon fill="midnightblue" stroke="midnightblue" points="282.552,-250.686 272.096,-252.399 281.338,-257.58 282.552,-250.686"/>
</g>
<!-- Node7 -->
<g id="node7" class="node"><title>Node7</title>
<g id="a_node7"><a xlink:href="TaskRunner_8h.html" target="_top" xlink:title="QualityControl/TaskRunner.h">
<polygon fill="none" stroke="black" points="392,-230 392,-249 535,-249 535,-230 392,-230"/>
<text text-anchor="middle" x="463.5" y="-237" font-family="Helvetica,sans-Serif" font-size="10.00">QualityControl/TaskRunner.h</text>
</a>
</g>
</g>
<!-- Node1&#45;&gt;Node7 -->
<g id="edge6" class="edge"><title>Node1&#45;&gt;Node7</title>
<path fill="none" stroke="midnightblue" d="M531.181,-291.475C518.627,-282.02 498.149,-266.596 483.001,-255.187"/>
<polygon fill="midnightblue" stroke="midnightblue" points="484.891,-252.23 474.798,-249.009 480.68,-257.821 484.891,-252.23"/>
</g>
<!-- Node27 -->
<g id="node27" class="node"><title>Node27</title>
<polygon fill="none" stroke="#bfbfbf" points="553.5,-230 553.5,-249 691.5,-249 691.5,-230 553.5,-230"/>
<text text-anchor="middle" x="622.5" y="-237" font-family="Helvetica,sans-Serif" font-size="10.00">Framework/DataSampling.h</text>
</g>
<!-- Node1&#45;&gt;Node27 -->
<g id="edge37" class="edge"><title>Node1&#45;&gt;Node27</title>
<path fill="none" stroke="midnightblue" d="M553.962,-291.475C566.675,-282.02 587.413,-266.596 602.753,-255.187"/>
<polygon fill="midnightblue" stroke="midnightblue" points="605.124,-257.785 611.059,-249.009 600.946,-252.169 605.124,-257.785"/>
</g>
<!-- Node28 -->
<g id="node28" class="node"><title>Node28</title>
<polygon fill="none" stroke="#bfbfbf" points="709.5,-230 709.5,-249 849.5,-249 849.5,-230 709.5,-230"/>
<text text-anchor="middle" x="779.5" y="-237" font-family="Helvetica,sans-Serif" font-size="10.00">Framework/DataSpecUtils.h</text>
</g>
<!-- Node1&#45;&gt;Node28 -->
<g id="edge38" class="edge"><title>Node1&#45;&gt;Node28</title>
<path fill="none" stroke="midnightblue" d="M576.456,-291.475C618.342,-280.959 689.633,-263.062 735.628,-251.514"/>
<polygon fill="midnightblue" stroke="midnightblue" points="736.76,-254.839 745.607,-249.009 735.055,-248.049 736.76,-254.839"/>
</g>
<!-- Node29 -->
<g id="node29" class="node"><title>Node29</title>
<polygon fill="none" stroke="#bfbfbf" points="868,-230 868,-249 987,-249 987,-230 868,-230"/>
<text text-anchor="middle" x="927.5" y="-237" font-family="Helvetica,sans-Serif" font-size="10.00">boost/test/unit_test.hpp</text>
</g>
<!-- Node1&#45;&gt;Node29 -->
<g id="edge39" class="edge"><title>Node1&#45;&gt;Node29</title>
<path fill="none" stroke="midnightblue" d="M611.748,-291.469C675.909,-283.25 773.909,-269.895 858.5,-255 865.223,-253.816 872.291,-252.46 879.235,-251.063"/>
<polygon fill="midnightblue" stroke="midnightblue" points="880.174,-254.443 889.265,-249.002 878.765,-247.587 880.174,-254.443"/>
</g>
<!-- Node4 -->
<g id="node4" class="node"><title>Node4</title>
<polygon fill="none" stroke="#bfbfbf" points="562,-0.5 562,-19.5 603,-19.5 603,-0.5 562,-0.5"/>
<text text-anchor="middle" x="582.5" y="-7.5" font-family="Helvetica,sans-Serif" font-size="10.00">string</text>
</g>
<!-- Node3&#45;&gt;Node4 -->
<g id="edge3" class="edge"><title>Node3&#45;&gt;Node4</title>
<path fill="none" stroke="midnightblue" d="M159.685,-224.428C130.656,-212.613 100.486,-193.556 113.5,-168 151.904,-92.5837 189.075,-87.8113 267.5,-56 365.608,-16.2049 493.363,-10.7732 551.392,-10.5571"/>
<polygon fill="midnightblue" stroke="midnightblue" points="551.711,-14.0575 561.716,-10.5725 551.721,-7.0575 551.711,-14.0575"/>
</g>
<!-- Node5 -->
<g id="node5" class="node"><title>Node5</title>
<polygon fill="none" stroke="#bfbfbf" points="22.5,-168.5 22.5,-187.5 66.5,-187.5 66.5,-168.5 22.5,-168.5"/>
<text text-anchor="middle" x="44.5" y="-175.5" font-family="Helvetica,sans-Serif" font-size="10.00">vector</text>
</g>
<!-- Node3&#45;&gt;Node5 -->
<g id="edge4" class="edge"><title>Node3&#45;&gt;Node5</title>
<path fill="none" stroke="midnightblue" d="M166.582,-224.399C139.05,-214.161 102.221,-200.465 76.2377,-190.802"/>
<polygon fill="midnightblue" stroke="midnightblue" points="77.4454,-187.517 66.8526,-187.312 75.0055,-194.078 77.4454,-187.517"/>
</g>
<!-- Node6 -->
<g id="node6" class="node"><title>Node6</title>
<polygon fill="none" stroke="#bfbfbf" points="122.5,-168.5 122.5,-187.5 286.5,-187.5 286.5,-168.5 122.5,-168.5"/>
<text text-anchor="middle" x="204.5" y="-175.5" font-family="Helvetica,sans-Serif" font-size="10.00">Framework/DataProcessorSpec.h</text>
</g>
<!-- Node3&#45;&gt;Node6 -->
<g id="edge5" class="edge"><title>Node3&#45;&gt;Node6</title>
<path fill="none" stroke="midnightblue" d="M204.5,-224.399C204.5,-216.466 204.5,-206.458 204.5,-197.858"/>
<polygon fill="midnightblue" stroke="midnightblue" points="208,-197.658 204.5,-187.658 201,-197.658 208,-197.658"/>
</g>
<!-- Node7&#45;&gt;Node6 -->
<g id="edge9" class="edge"><title>Node7&#45;&gt;Node6</title>
<path fill="none" stroke="midnightblue" d="M426.392,-229.975C380.329,-219.393 301.726,-201.336 251.497,-189.797"/>
<polygon fill="midnightblue" stroke="midnightblue" points="252.069,-186.337 241.54,-187.509 250.502,-193.159 252.069,-186.337"/>
</g>
<!-- Node8 -->
<g id="node8" class="node"><title>Node8</title>
<polygon fill="none" stroke="#bfbfbf" points="1122.5,-168.5 1122.5,-187.5 1214.5,-187.5 1214.5,-168.5 1122.5,-168.5"/>
<text text-anchor="middle" x="1168.5" y="-175.5" font-family="Helvetica,sans-Serif" font-size="10.00">Common/Timer.h</text>
</g>
<!-- Node7&#45;&gt;Node8 -->
<g id="edge7" class="edge"><title>Node7&#45;&gt;Node8</title>
<path fill="none" stroke="midnightblue" d="M505.822,-229.985C518.241,-227.741 531.877,-225.524 544.5,-224 792.751,-194.026 859.95,-215.901 1112.13,-188.039"/>
<polygon fill="midnightblue" stroke="midnightblue" points="1112.78,-191.487 1122.33,-186.895 1112,-184.53 1112.78,-191.487"/>
</g>
<!-- Node9 -->
<g id="node9" class="node"><title>Node9</title>
<polygon fill="none" stroke="#bfbfbf" points="342.5,-168.5 342.5,-187.5 440.5,-187.5 440.5,-168.5 342.5,-168.5"/>
<text text-anchor="middle" x="391.5" y="-175.5" font-family="Helvetica,sans-Serif" font-size="10.00">Framework/Task.h</text>
</g>
<!-- Node7&#45;&gt;Node9 -->
<g id="edge8" class="edge"><title>Node7&#45;&gt;Node9</title>
<path fill="none" stroke="midnightblue" d="M453.184,-229.975C441.849,-220.608 423.427,-205.384 409.661,-194.008"/>
<polygon fill="midnightblue" stroke="midnightblue" points="411.735,-191.181 401.797,-187.509 407.276,-196.577 411.735,-191.181"/>
</g>
<!-- Node10 -->
<g id="node10" class="node"><title>Node10</title>
<polygon fill="none" stroke="#bfbfbf" points="459,-168.5 459,-187.5 612,-187.5 612,-168.5 459,-168.5"/>
<text text-anchor="middle" x="535.5" y="-175.5" font-family="Helvetica,sans-Serif" font-size="10.00">Framework/CompletionPolicy.h</text>
</g>
<!-- Node7&#45;&gt;Node10 -->
<g id="edge10" class="edge"><title>Node7&#45;&gt;Node10</title>
<path fill="none" stroke="midnightblue" d="M473.816,-229.975C485.151,-220.608 503.573,-205.384 517.339,-194.008"/>
<polygon fill="midnightblue" stroke="midnightblue" points="519.724,-196.577 525.203,-187.509 515.265,-191.181 519.724,-196.577"/>
</g>
<!-- Node11 -->
<g id="node11" class="node"><title>Node11</title>
<polygon fill="none" stroke="#bfbfbf" points="630.5,-168.5 630.5,-187.5 800.5,-187.5 800.5,-168.5 630.5,-168.5"/>
<text text-anchor="middle" x="715.5" y="-175.5" font-family="Helvetica,sans-Serif" font-size="10.00">Framework/EndOfStreamContext.h</text>
</g>
<!-- Node7&#45;&gt;Node11 -->
<g id="edge11" class="edge"><title>Node7&#45;&gt;Node11</title>
<path fill="none" stroke="midnightblue" d="M499.605,-229.975C544.329,-219.415 620.583,-201.411 669.467,-189.869"/>
<polygon fill="midnightblue" stroke="midnightblue" points="670.533,-193.213 679.462,-187.509 668.925,-186.401 670.533,-193.213"/>
</g>
<!-- Node12 -->
<g id="node12" class="node"><title>Node12</title>
<polygon fill="none" stroke="#bfbfbf" points="819,-168.5 819,-187.5 936,-187.5 936,-168.5 819,-168.5"/>
<text text-anchor="middle" x="877.5" y="-175.5" font-family="Helvetica,sans-Serif" font-size="10.00">Headers/DataHeader.h</text>
</g>
<!-- Node7&#45;&gt;Node12 -->
<g id="edge12" class="edge"><title>Node7&#45;&gt;Node12</title>
<path fill="none" stroke="midnightblue" d="M509.278,-229.952C520.762,-227.905 533.068,-225.795 544.5,-224 569.958,-220.003 718.905,-200.087 808.751,-188.13"/>
<polygon fill="midnightblue" stroke="midnightblue" points="809.414,-191.573 818.865,-186.785 808.491,-184.634 809.414,-191.573"/>
</g>
<!-- Node13 -->
<g id="node13" class="node"><title>Node13</title>
<g id="a_node13"><a xlink:href="TaskConfig_8h.html" target="_top" xlink:title="QualityControl/TaskConfig.h">
<polygon fill="none" stroke="black" points="276.5,-56.5 276.5,-75.5 416.5,-75.5 416.5,-56.5 276.5,-56.5"/>
<text text-anchor="middle" x="346.5" y="-63.5" font-family="Helvetica,sans-Serif" font-size="10.00">QualityControl/TaskConfig.h</text>
</a>
</g>
</g>
<!-- Node7&#45;&gt;Node13 -->
<g id="edge13" class="edge"><title>Node7&#45;&gt;Node13</title>
<path fill="none" stroke="midnightblue" d="M401.591,-229.968C376.092,-223.065 348.952,-210.579 333.5,-188 312.106,-156.738 327.057,-109.912 337.936,-84.6589"/>
<polygon fill="midnightblue" stroke="midnightblue" points="341.127,-86.0969 342.096,-75.5464 334.759,-83.1902 341.127,-86.0969"/>
</g>
<!-- Node15 -->
<g id="node15" class="node"><title>Node15</title>
<g id="a_node15"><a xlink:href="TaskInterface_8h.html" target="_top" xlink:title="QualityControl/TaskInterface.h">
<polygon fill="none" stroke="black" points="954.5,-168.5 954.5,-187.5 1104.5,-187.5 1104.5,-168.5 954.5,-168.5"/>
<text text-anchor="middle" x="1029.5" y="-175.5" font-family="Helvetica,sans-Serif" font-size="10.00">QualityControl/TaskInterface.h</text>
</a>
</g>
</g>
<!-- Node7&#45;&gt;Node15 -->
<g id="edge16" class="edge"><title>Node7&#45;&gt;Node15</title>
<path fill="none" stroke="midnightblue" d="M507.109,-229.972C519.187,-227.807 532.323,-225.635 544.5,-224 718.213,-200.68 765.169,-205.221 944.391,-187.988"/>
<polygon fill="midnightblue" stroke="midnightblue" points="944.804,-191.464 954.419,-187.014 944.128,-184.497 944.804,-191.464"/>
</g>
<!-- Node13&#45;&gt;Node4 -->
<g id="edge14" class="edge"><title>Node13&#45;&gt;Node4</title>
<path fill="none" stroke="midnightblue" d="M383.895,-56.4435C430.363,-45.8111 508.775,-27.8693 551.861,-18.0105"/>
<polygon fill="midnightblue" stroke="midnightblue" points="552.794,-21.3878 561.761,-15.7454 551.232,-14.5641 552.794,-21.3878"/>
</g>
<!-- Node14 -->
<g id="node14" class="node"><title>Node14</title>
<polygon fill="none" stroke="#bfbfbf" points="160,-0.5 160,-19.5 243,-19.5 243,-0.5 160,-0.5"/>
<text text-anchor="middle" x="201.5" y="-7.5" font-family="Helvetica,sans-Serif" font-size="10.00">unordered_map</text>
</g>
<!-- Node13&#45;&gt;Node14 -->
<g id="edge15" class="edge"><title>Node13&#45;&gt;Node14</title>
<path fill="none" stroke="midnightblue" d="M323.524,-56.4435C299.343,-47.4381 261.082,-33.1891 233.854,-23.049"/>
<polygon fill="midnightblue" stroke="midnightblue" points="234.961,-19.7265 224.368,-19.5164 232.518,-26.2864 234.961,-19.7265"/>
</g>
<!-- Node15&#45;&gt;Node4 -->
<g id="edge19" class="edge"><title>Node15&#45;&gt;Node4</title>
<path fill="none" stroke="midnightblue" d="M1048.57,-168.345C1072.67,-156.24 1109.02,-133.334 1091.5,-112 1075.99,-93.1114 720.972,-33.6622 613.226,-15.9973"/>
<polygon fill="midnightblue" stroke="midnightblue" points="613.74,-12.535 603.306,-14.3747 612.61,-19.4432 613.74,-12.535"/>
</g>
<!-- Node15&#45;&gt;Node14 -->
<g id="edge20" class="edge"><title>Node15&#45;&gt;Node14</title>
<path fill="none" stroke="midnightblue" d="M954.426,-168.91C951.073,-168.593 947.752,-168.288 944.5,-168 720.363,-148.151 660.338,-175.15 439.5,-132 360.598,-116.583 336.195,-117.764 267.5,-76 246.363,-63.1495 226.8,-42.2761 214.55,-27.6597"/>
<polygon fill="midnightblue" stroke="midnightblue" points="217.251,-25.4337 208.225,-19.8847 211.82,-29.8509 217.251,-25.4337"/>
</g>
<!-- Node16 -->
<g id="node16" class="node"><title>Node16</title>
<polygon fill="none" stroke="#bfbfbf" points="1128,-0.5 1128,-19.5 1163,-19.5 1163,-0.5 1128,-0.5"/>
<text text-anchor="middle" x="1145.5" y="-7.5" font-family="Helvetica,sans-Serif" font-size="10.00">map</text>
</g>
<!-- Node15&#45;&gt;Node16 -->
<g id="edge17" class="edge"><title>Node15&#45;&gt;Node16</title>
<path fill="none" stroke="midnightblue" d="M1066.4,-168.446C1086.61,-161.844 1110.36,-150.594 1124.5,-132 1147.33,-101.976 1148.64,-55.6658 1147.26,-29.9156"/>
<polygon fill="midnightblue" stroke="midnightblue" points="1150.73,-29.381 1146.51,-19.6636 1143.75,-29.8928 1150.73,-29.381"/>
</g>
<!-- Node17 -->
<g id="node17" class="node"><title>Node17</title>
<polygon fill="none" stroke="#bfbfbf" points="450.5,-56.5 450.5,-75.5 502.5,-75.5 502.5,-56.5 450.5,-56.5"/>
<text text-anchor="middle" x="476.5" y="-63.5" font-family="Helvetica,sans-Serif" font-size="10.00">memory</text>
</g>
<!-- Node15&#45;&gt;Node17 -->
<g id="edge18" class="edge"><title>Node15&#45;&gt;Node17</title>
<path fill="none" stroke="midnightblue" d="M954.426,-168.915C951.072,-168.597 947.752,-168.29 944.5,-168 889.462,-163.09 486.131,-172.461 448.5,-132 435.629,-118.161 448.332,-97.4869 460.525,-83.1871"/>
<polygon fill="midnightblue" stroke="midnightblue" points="463.29,-85.3492 467.448,-75.604 458.121,-80.6298 463.29,-85.3492"/>
</g>
<!-- Node18 -->
<g id="node18" class="node"><title>Node18</title>
<polygon fill="none" stroke="#bfbfbf" points="637,-112.5 637,-131.5 762,-131.5 762,-112.5 637,-112.5"/>
<text text-anchor="middle" x="699.5" y="-119.5" font-family="Helvetica,sans-Serif" font-size="10.00">Framework/InitContext.h</text>
</g>
<!-- Node15&#45;&gt;Node18 -->
<g id="edge21" class="edge"><title>Node15&#45;&gt;Node18</title>
<path fill="none" stroke="midnightblue" d="M977.211,-168.444C918.677,-158.865 823.895,-143.356 761.63,-133.167"/>
<polygon fill="midnightblue" stroke="midnightblue" points="761.979,-129.677 751.545,-131.516 760.848,-136.585 761.979,-129.677"/>
</g>
<!-- Node19 -->
<g id="node19" class="node"><title>Node19</title>
<polygon fill="none" stroke="#bfbfbf" points="780.5,-112.5 780.5,-131.5 940.5,-131.5 940.5,-112.5 780.5,-112.5"/>
<text text-anchor="middle" x="860.5" y="-119.5" font-family="Helvetica,sans-Serif" font-size="10.00">Framework/ProcessingContext.h</text>
</g>
<!-- Node15&#45;&gt;Node19 -->
<g id="edge22" class="edge"><title>Node15&#45;&gt;Node19</title>
<path fill="none" stroke="midnightblue" d="M1002.72,-168.444C974.167,-159.32 928.767,-144.813 896.963,-134.651"/>
<polygon fill="midnightblue" stroke="midnightblue" points="897.744,-131.226 887.153,-131.516 895.614,-137.894 897.744,-131.226"/>
</g>
<!-- Node20 -->
<g id="node20" class="node"><title>Node20</title>
<g id="a_node20"><a xlink:href="Activity_8h.html" target="_top" xlink:title="QualityControl/Activity.h">
<polygon fill="none" stroke="black" points="959,-112.5 959,-131.5 1082,-131.5 1082,-112.5 959,-112.5"/>
<text text-anchor="middle" x="1020.5" y="-119.5" font-family="Helvetica,sans-Serif" font-size="10.00">QualityControl/Activity.h</text>
</a>
</g>
</g>
<!-- Node15&#45;&gt;Node20 -->
<g id="edge23" class="edge"><title>Node15&#45;&gt;Node20</title>
<path fill="none" stroke="midnightblue" d="M1028.01,-168.083C1026.82,-160.927 1025.11,-150.635 1023.62,-141.691"/>
<polygon fill="midnightblue" stroke="midnightblue" points="1027.05,-141.04 1021.96,-131.751 1020.15,-142.19 1027.05,-141.04"/>
</g>
<!-- Node21 -->
<g id="node21" class="node"><title>Node21</title>
<g id="a_node21"><a xlink:href="ObjectsManager_8h.html" target="_top" xlink:title="QualityControl/ObjectsManager.h">
<polygon fill="none" stroke="black" points="458,-112.5 458,-131.5 619,-131.5 619,-112.5 458,-112.5"/>
<text text-anchor="middle" x="538.5" y="-119.5" font-family="Helvetica,sans-Serif" font-size="10.00">QualityControl/ObjectsManager.h</text>
</a>
</g>
</g>
<!-- Node15&#45;&gt;Node21 -->
<g id="edge24" class="edge"><title>Node15&#45;&gt;Node21</title>
<path fill="none" stroke="midnightblue" d="M954.393,-168.74C866.007,-159.019 719.478,-142.904 626.029,-132.626"/>
<polygon fill="midnightblue" stroke="midnightblue" points="626.353,-129.141 616.031,-131.527 625.588,-136.099 626.353,-129.141"/>
</g>
<!-- Node21&#45;&gt;Node4 -->
<g id="edge35" class="edge"><title>Node21&#45;&gt;Node4</title>
<path fill="none" stroke="midnightblue" d="M540.372,-112.378C543.263,-99.7291 549.342,-75.5269 557.5,-56 561.462,-46.5166 566.909,-36.4726 571.708,-28.2853"/>
<polygon fill="midnightblue" stroke="midnightblue" points="574.737,-30.0404 576.915,-19.6719 568.746,-26.4188 574.737,-30.0404"/>
</g>
<!-- Node21&#45;&gt;Node13 -->
<g id="edge34" class="edge"><title>Node21&#45;&gt;Node13</title>
<path fill="none" stroke="midnightblue" d="M508.077,-112.444C475.215,-103.201 422.715,-88.4356 386.526,-78.2572"/>
<polygon fill="midnightblue" stroke="midnightblue" points="387.355,-74.8547 376.781,-75.5164 385.46,-81.5932 387.355,-74.8547"/>
</g>
<!-- Node21&#45;&gt;Node17 -->
<g id="edge36" class="edge"><title>Node21&#45;&gt;Node17</title>
<path fill="none" stroke="midnightblue" d="M528.539,-112.324C519.373,-104.341 505.563,-92.3128 494.472,-82.6529"/>
<polygon fill="midnightblue" stroke="midnightblue" points="496.482,-79.7624 486.643,-75.8339 491.885,-85.041 496.482,-79.7624"/>
</g>
<!-- Node22 -->
<g id="node22" class="node"><title>Node22</title>
<g id="a_node22"><a xlink:href="MonitorObject_8h.html" target="_top" xlink:title="QualityControl/MonitorObject.h">
<polygon fill="none" stroke="black" points="969,-56.5 969,-75.5 1120,-75.5 1120,-56.5 969,-56.5"/>
<text text-anchor="middle" x="1044.5" y="-63.5" font-family="Helvetica,sans-Serif" font-size="10.00">QualityControl/MonitorObject.h</text>
</a>
</g>
</g>
<!-- Node21&#45;&gt;Node22 -->
<g id="edge25" class="edge"><title>Node21&#45;&gt;Node22</title>
<path fill="none" stroke="midnightblue" d="M618.398,-112.473C711.1,-102.58 863.369,-86.3302 958.567,-76.1707"/>
<polygon fill="midnightblue" stroke="midnightblue" points="959.169,-79.6265 968.741,-75.085 958.426,-72.666 959.169,-79.6265"/>
</g>
<!-- Node26 -->
<g id="node26" class="node"><title>Node26</title>
<g id="a_node26"><a xlink:href="Quality_8h.html" target="_top" xlink:title="QualityControl/Quality.h">
<polygon fill="none" stroke="black" points="567,-56.5 567,-75.5 688,-75.5 688,-56.5 567,-56.5"/>
<text text-anchor="middle" x="627.5" y="-63.5" font-family="Helvetica,sans-Serif" font-size="10.00">QualityControl/Quality.h</text>
</a>
</g>
</g>
<!-- Node21&#45;&gt;Node26 -->
<g id="edge31" class="edge"><title>Node21&#45;&gt;Node26</title>
<path fill="none" stroke="midnightblue" d="M552.799,-112.324C566.683,-103.9 587.992,-90.9709 604.304,-81.0741"/>
<polygon fill="midnightblue" stroke="midnightblue" points="606.502,-83.8341 613.236,-75.6545 602.871,-77.8495 606.502,-83.8341"/>
</g>
<!-- Node22&#45;&gt;Node4 -->
<g id="edge26" class="edge"><title>Node22&#45;&gt;Node4</title>
<path fill="none" stroke="midnightblue" d="M971.55,-56.4733C868.759,-44.4589 685.757,-23.069 613.283,-14.598"/>
<polygon fill="midnightblue" stroke="midnightblue" points="613.36,-11.0833 603.021,-13.3986 612.547,-18.0359 613.36,-11.0833"/>
</g>
<!-- Node22&#45;&gt;Node16 -->
<g id="edge27" class="edge"><title>Node22&#45;&gt;Node16</title>
<path fill="none" stroke="midnightblue" d="M1060.73,-56.324C1076.85,-47.7034 1101.8,-34.3643 1120.46,-24.3855"/>
<polygon fill="midnightblue" stroke="midnightblue" points="1122.14,-27.456 1129.31,-19.6545 1118.84,-21.283 1122.14,-27.456"/>
</g>
<!-- Node23 -->
<g id="node23" class="node"><title>Node23</title>
<polygon fill="none" stroke="#bfbfbf" points="717.5,-0.5 717.5,-19.5 773.5,-19.5 773.5,-0.5 717.5,-0.5"/>
<text text-anchor="middle" x="745.5" y="-7.5" font-family="Helvetica,sans-Serif" font-size="10.00">Rtypes.h</text>
</g>
<!-- Node22&#45;&gt;Node23 -->
<g id="edge28" class="edge"><title>Node22&#45;&gt;Node23</title>
<path fill="none" stroke="midnightblue" d="M997.123,-56.4435C938.028,-45.771 838.155,-27.7337 783.701,-17.8992"/>
<polygon fill="midnightblue" stroke="midnightblue" points="784.225,-14.4372 773.762,-16.1041 782.98,-21.3258 784.225,-14.4372"/>
</g>
<!-- Node24 -->
<g id="node24" class="node"><title>Node24</title>
<polygon fill="none" stroke="#bfbfbf" points="911,-0.5 911,-19.5 970,-19.5 970,-0.5 911,-0.5"/>
<text text-anchor="middle" x="940.5" y="-7.5" font-family="Helvetica,sans-Serif" font-size="10.00">TObject.h</text>
</g>
<!-- Node22&#45;&gt;Node24 -->
<g id="edge29" class="edge"><title>Node22&#45;&gt;Node24</title>
<path fill="none" stroke="midnightblue" d="M1027.79,-56.324C1011.19,-47.7034 985.498,-34.3643 966.28,-24.3855"/>
<polygon fill="midnightblue" stroke="midnightblue" points="967.656,-21.1565 957.168,-19.6545 964.43,-27.3689 967.656,-21.1565"/>
</g>
<!-- Node25 -->
<g id="node25" class="node"><title>Node25</title>
<polygon fill="none" stroke="#bfbfbf" points="988.5,-0.5 988.5,-19.5 1104.5,-19.5 1104.5,-0.5 988.5,-0.5"/>
<text text-anchor="middle" x="1046.5" y="-7.5" font-family="Helvetica,sans-Serif" font-size="10.00">Common/Exceptions.h</text>
</g>
<!-- Node22&#45;&gt;Node25 -->
<g id="edge30" class="edge"><title>Node22&#45;&gt;Node25</title>
<path fill="none" stroke="midnightblue" d="M1044.83,-56.083C1045.09,-49.0059 1045.47,-38.8611 1045.8,-29.9865"/>
<polygon fill="midnightblue" stroke="midnightblue" points="1049.3,-29.8738 1046.18,-19.7511 1042.31,-29.6147 1049.3,-29.8738"/>
</g>
<!-- Node26&#45;&gt;Node4 -->
<g id="edge33" class="edge"><title>Node26&#45;&gt;Node4</title>
<path fill="none" stroke="midnightblue" d="M620.069,-56.083C613.647,-48.3768 604.194,-37.0333 596.378,-27.6531"/>
<polygon fill="midnightblue" stroke="midnightblue" points="598.883,-25.1927 589.793,-19.7511 593.506,-29.674 598.883,-25.1927"/>
</g>
<!-- Node26&#45;&gt;Node23 -->
<g id="edge32" class="edge"><title>Node26&#45;&gt;Node23</title>
<path fill="none" stroke="midnightblue" d="M646.197,-56.4435C665.444,-47.6356 695.652,-33.8116 717.7,-23.722"/>
<polygon fill="midnightblue" stroke="midnightblue" points="719.253,-26.8603 726.89,-19.5164 716.34,-20.4951 719.253,-26.8603"/>
</g>
</g>
</svg>
