<?xml version="1.0" encoding="UTF-8" standalone="no"?>
<!DOCTYPE svg PUBLIC "-//W3C//DTD SVG 1.1//EN"
 "http://www.w3.org/Graphics/SVG/1.1/DTD/svg11.dtd">
<!-- Generated by graphviz version 2.38.0 (20140413.2041)
 -->
<!-- Title: Framework/test/testTaskInterface.cxx Pages: 1 -->
<svg width="1428pt" height="308pt"
 viewBox="0.00 0.00 1428.00 308.00" xmlns="http://www.w3.org/2000/svg" xmlns:xlink="http://www.w3.org/1999/xlink">
<g id="graph0" class="graph" transform="scale(1 1) rotate(0) translate(4 304)">
<title>Framework/test/testTaskInterface.cxx</title>
<!-- Node1 -->
<g id="node1" class="node"><title>Node1</title>
<polygon fill="#bfbfbf" stroke="black" points="764,-280.5 764,-299.5 947,-299.5 947,-280.5 764,-280.5"/>
<text text-anchor="middle" x="855.5" y="-287.5" font-family="Helvetica,sans-Serif" font-size="10.00">Framework/test/testTaskInterface.cxx</text>
</g>
<!-- Node2 -->
<g id="node2" class="node"><title>Node2</title>
<g id="a_node2"><a xlink:href="TaskFactory_8h.html" target="_top" xlink:title="QualityControl/TaskFactory.h">
<polygon fill="none" stroke="black" points="419,-224.5 419,-243.5 564,-243.5 564,-224.5 419,-224.5"/>
<text text-anchor="middle" x="491.5" y="-231.5" font-family="Helvetica,sans-Serif" font-size="10.00">QualityControl/TaskFactory.h</text>
</a>
</g>
</g>
<!-- Node1&#45;&gt;Node2 -->
<g id="edge1" class="edge"><title>Node1&#45;&gt;Node2</title>
<path fill="none" stroke="midnightblue" d="M797.823,-280.444C732.993,-270.826 627.849,-255.228 559.183,-245.041"/>
<polygon fill="midnightblue" stroke="midnightblue" points="559.312,-241.522 548.907,-243.516 558.285,-248.446 559.312,-241.522"/>
</g>
<!-- Node7 -->
<g id="node7" class="node"><title>Node7</title>
<g id="a_node7"><a xlink:href="TaskInterface_8h.html" target="_top" xlink:title="QualityControl/TaskInterface.h">
<polygon fill="none" stroke="black" points="575.5,-168.5 575.5,-187.5 725.5,-187.5 725.5,-168.5 575.5,-168.5"/>
<text text-anchor="middle" x="650.5" y="-175.5" font-family="Helvetica,sans-Serif" font-size="10.00">QualityControl/TaskInterface.h</text>
</a>
</g>
</g>
<!-- Node1&#45;&gt;Node7 -->
<g id="edge27" class="edge"><title>Node1&#45;&gt;Node7</title>
<path fill="none" stroke="midnightblue" d="M827.408,-280.398C803.334,-272.494 768.118,-259.65 739.5,-244 713.196,-229.616 685.751,-208.489 668.415,-194.263"/>
<polygon fill="midnightblue" stroke="midnightblue" points="670.253,-191.238 660.33,-187.524 665.771,-196.615 670.253,-191.238"/>
</g>
<!-- Node9 -->
<g id="node9" class="node"><title>Node9</title>
<polygon fill="none" stroke="#bfbfbf" points="897,-112.5 897,-131.5 1022,-131.5 1022,-112.5 897,-112.5"/>
<text text-anchor="middle" x="959.5" y="-119.5" font-family="Helvetica,sans-Serif" font-size="10.00">Framework/InitContext.h</text>
</g>
<!-- Node1&#45;&gt;Node9 -->
<g id="edge30" class="edge"><title>Node1&#45;&gt;Node9</title>
<path fill="none" stroke="midnightblue" d="M822.514,-280.438C804.037,-273.769 782.548,-262.453 771.5,-244 761.206,-226.807 767.117,-183.441 781.5,-168 796.082,-152.345 844.315,-140.735 886.898,-133.232"/>
<polygon fill="midnightblue" stroke="midnightblue" points="887.741,-136.639 897.01,-131.507 886.564,-129.738 887.741,-136.639"/>
</g>
<!-- Node18 -->
<g id="node18" class="node"><title>Node18</title>
<g id="a_node18"><a xlink:href="QcInfoLogger_8h.html" target="_top" xlink:title="QualityControl/QcInfoLogger.h">
<polygon fill="none" stroke="black" points="781,-224.5 781,-243.5 930,-243.5 930,-224.5 781,-224.5"/>
<text text-anchor="middle" x="855.5" y="-231.5" font-family="Helvetica,sans-Serif" font-size="10.00">QualityControl/QcInfoLogger.h</text>
</a>
</g>
</g>
<!-- Node1&#45;&gt;Node18 -->
<g id="edge28" class="edge"><title>Node1&#45;&gt;Node18</title>
<path fill="none" stroke="midnightblue" d="M855.5,-280.083C855.5,-273.006 855.5,-262.861 855.5,-253.986"/>
<polygon fill="midnightblue" stroke="midnightblue" points="859,-253.751 855.5,-243.751 852,-253.751 859,-253.751"/>
</g>
<!-- Node20 -->
<g id="node20" class="node"><title>Node20</title>
<polygon fill="none" stroke="#bfbfbf" points="948.5,-224.5 948.5,-243.5 1118.5,-243.5 1118.5,-224.5 948.5,-224.5"/>
<text text-anchor="middle" x="1033.5" y="-231.5" font-family="Helvetica,sans-Serif" font-size="10.00">Framework/ConfigParamRegistry.h</text>
</g>
<!-- Node1&#45;&gt;Node20 -->
<g id="edge31" class="edge"><title>Node1&#45;&gt;Node20</title>
<path fill="none" stroke="midnightblue" d="M883.705,-280.444C913.91,-271.28 962.011,-256.688 995.529,-246.519"/>
<polygon fill="midnightblue" stroke="midnightblue" points="996.874,-249.769 1005.43,-243.516 994.842,-243.07 996.874,-249.769"/>
</g>
<!-- Node21 -->
<g id="node21" class="node"><title>Node21</title>
<polygon fill="none" stroke="#bfbfbf" points="1136.5,-224.5 1136.5,-243.5 1282.5,-243.5 1282.5,-224.5 1136.5,-224.5"/>
<text text-anchor="middle" x="1209.5" y="-231.5" font-family="Helvetica,sans-Serif" font-size="10.00">Framework/ServiceRegistry.h</text>
</g>
<!-- Node1&#45;&gt;Node21 -->
<g id="edge32" class="edge"><title>Node1&#45;&gt;Node21</title>
<path fill="none" stroke="midnightblue" d="M911.592,-280.444C974.641,-270.826 1076.9,-255.228 1143.68,-245.041"/>
<polygon fill="midnightblue" stroke="midnightblue" points="1144.31,-248.484 1153.67,-243.516 1143.26,-241.565 1144.31,-248.484"/>
</g>
<!-- Node22 -->
<g id="node22" class="node"><title>Node22</title>
<polygon fill="none" stroke="#bfbfbf" points="1301,-224.5 1301,-243.5 1420,-243.5 1420,-224.5 1301,-224.5"/>
<text text-anchor="middle" x="1360.5" y="-231.5" font-family="Helvetica,sans-Serif" font-size="10.00">boost/test/unit_test.hpp</text>
</g>
<!-- Node1&#45;&gt;Node22 -->
<g id="edge33" class="edge"><title>Node1&#45;&gt;Node22</title>
<path fill="none" stroke="midnightblue" d="M944.925,-280.479C1030.79,-272.135 1164.43,-258.723 1290.45,-244.094"/>
<polygon fill="midnightblue" stroke="midnightblue" points="1291.15,-247.537 1300.67,-242.903 1290.34,-240.585 1291.15,-247.537"/>
</g>
<!-- Node3 -->
<g id="node3" class="node"><title>Node3</title>
<polygon fill="none" stroke="#bfbfbf" points="562.5,-56.5 562.5,-75.5 614.5,-75.5 614.5,-56.5 562.5,-56.5"/>
<text text-anchor="middle" x="588.5" y="-63.5" font-family="Helvetica,sans-Serif" font-size="10.00">memory</text>
</g>
<!-- Node2&#45;&gt;Node3 -->
<g id="edge2" class="edge"><title>Node2&#45;&gt;Node3</title>
<path fill="none" stroke="midnightblue" d="M483.928,-224.251C466.573,-203.099 427.365,-148.261 453.5,-112 459.5,-103.675 514.58,-87.2004 552.503,-76.6618"/>
<polygon fill="midnightblue" stroke="midnightblue" points="553.499,-80.0179 562.211,-73.9888 551.641,-73.269 553.499,-80.0179"/>
</g>
<!-- Node4 -->
<g id="node4" class="node"><title>Node4</title>
<g id="a_node4"><a xlink:href="TaskConfig_8h.html" target="_top" xlink:title="QualityControl/TaskConfig.h">
<polygon fill="none" stroke="black" points="404.5,-56.5 404.5,-75.5 544.5,-75.5 544.5,-56.5 404.5,-56.5"/>
<text text-anchor="middle" x="474.5" y="-63.5" font-family="Helvetica,sans-Serif" font-size="10.00">QualityControl/TaskConfig.h</text>
</a>
</g>
</g>
<!-- Node2&#45;&gt;Node4 -->
<g id="edge3" class="edge"><title>Node2&#45;&gt;Node4</title>
<path fill="none" stroke="midnightblue" d="M466.339,-224.378C450.081,-217.343 430.207,-205.645 420.5,-188 404.219,-158.405 406.173,-142.589 420.5,-112 426.545,-99.0941 438.312,-88.5985 449.323,-80.9999"/>
<polygon fill="midnightblue" stroke="midnightblue" points="451.328,-83.8723 457.867,-75.5364 447.557,-77.9748 451.328,-83.8723"/>
</g>
<!-- Node2&#45;&gt;Node7 -->
<g id="edge6" class="edge"><title>Node2&#45;&gt;Node7</title>
<path fill="none" stroke="midnightblue" d="M516.694,-224.444C543.443,-215.359 585.903,-200.939 615.805,-190.783"/>
<polygon fill="midnightblue" stroke="midnightblue" points="617.081,-194.046 625.424,-187.516 614.829,-187.418 617.081,-194.046"/>
</g>
<!-- Node5 -->
<g id="node5" class="node"><title>Node5</title>
<polygon fill="none" stroke="#bfbfbf" points="356,-0.5 356,-19.5 397,-19.5 397,-0.5 356,-0.5"/>
<text text-anchor="middle" x="376.5" y="-7.5" font-family="Helvetica,sans-Serif" font-size="10.00">string</text>
</g>
<!-- Node4&#45;&gt;Node5 -->
<g id="edge4" class="edge"><title>Node4&#45;&gt;Node5</title>
<path fill="none" stroke="midnightblue" d="M458.755,-56.324C443.181,-47.7428 419.123,-34.486 401.041,-24.5224"/>
<polygon fill="midnightblue" stroke="midnightblue" points="402.654,-21.4152 392.206,-19.6545 399.276,-27.546 402.654,-21.4152"/>
</g>
<!-- Node6 -->
<g id="node6" class="node"><title>Node6</title>
<polygon fill="none" stroke="#bfbfbf" points="630,-0.5 630,-19.5 713,-19.5 713,-0.5 630,-0.5"/>
<text text-anchor="middle" x="671.5" y="-7.5" font-family="Helvetica,sans-Serif" font-size="10.00">unordered_map</text>
</g>
<!-- Node4&#45;&gt;Node6 -->
<g id="edge5" class="edge"><title>Node4&#45;&gt;Node6</title>
<path fill="none" stroke="midnightblue" d="M505.715,-56.4435C539.433,-47.2011 593.3,-32.4356 630.432,-22.2572"/>
<polygon fill="midnightblue" stroke="midnightblue" points="631.712,-25.5356 640.431,-19.5164 629.861,-18.7846 631.712,-25.5356"/>
</g>
<!-- Node7&#45;&gt;Node3 -->
<g id="edge8" class="edge"><title>Node7&#45;&gt;Node3</title>
<path fill="none" stroke="midnightblue" d="M707.111,-168.438C747.872,-160.982 797.824,-148.733 810.5,-132 815.867,-124.915 816.127,-118.881 810.5,-112 787.418,-83.7693 681.27,-72.8249 624.523,-68.9369"/>
<polygon fill="midnightblue" stroke="midnightblue" points="624.738,-65.4436 614.533,-68.2904 624.286,-72.429 624.738,-65.4436"/>
</g>
<!-- Node7&#45;&gt;Node5 -->
<g id="edge9" class="edge"><title>Node7&#45;&gt;Node5</title>
<path fill="none" stroke="midnightblue" d="M651.47,-168.472C653.468,-146.354 655.463,-86.7295 623.5,-56 593.032,-26.7077 466.981,-15.9716 407.647,-12.4874"/>
<polygon fill="midnightblue" stroke="midnightblue" points="407.561,-8.97738 397.383,-11.9184 407.173,-15.9666 407.561,-8.97738"/>
</g>
<!-- Node7&#45;&gt;Node6 -->
<g id="edge10" class="edge"><title>Node7&#45;&gt;Node6</title>
<path fill="none" stroke="midnightblue" d="M718.199,-168.447C762.217,-161.337 813.876,-149.521 827.5,-132 866.085,-82.3782 769.331,-41.7561 711.342,-22.7046"/>
<polygon fill="midnightblue" stroke="midnightblue" points="712.292,-19.3337 701.701,-19.6172 710.157,-26.0003 712.292,-19.3337"/>
</g>
<!-- Node8 -->
<g id="node8" class="node"><title>Node8</title>
<polygon fill="none" stroke="#bfbfbf" points="0,-0.5 0,-19.5 35,-19.5 35,-0.5 0,-0.5"/>
<text text-anchor="middle" x="17.5" y="-7.5" font-family="Helvetica,sans-Serif" font-size="10.00">map</text>
</g>
<!-- Node7&#45;&gt;Node8 -->
<g id="edge7" class="edge"><title>Node7&#45;&gt;Node8</title>
<path fill="none" stroke="midnightblue" d="M575.377,-175.5C484.711,-172.33 328.148,-162.488 197.5,-132 128.606,-115.923 100.617,-123.84 48.5,-76 34.9954,-63.6034 26.7909,-44.0842 22.2454,-29.668"/>
<polygon fill="midnightblue" stroke="midnightblue" points="25.5536,-28.5049 19.4555,-19.841 18.8198,-30.4168 25.5536,-28.5049"/>
</g>
<!-- Node7&#45;&gt;Node9 -->
<g id="edge11" class="edge"><title>Node7&#45;&gt;Node9</title>
<path fill="none" stroke="midnightblue" d="M699.462,-168.444C754.044,-158.905 842.29,-143.483 900.601,-133.293"/>
<polygon fill="midnightblue" stroke="midnightblue" points="901.519,-136.686 910.767,-131.516 900.314,-129.79 901.519,-136.686"/>
</g>
<!-- Node10 -->
<g id="node10" class="node"><title>Node10</title>
<polygon fill="none" stroke="#bfbfbf" points="462.5,-112.5 462.5,-131.5 622.5,-131.5 622.5,-112.5 462.5,-112.5"/>
<text text-anchor="middle" x="542.5" y="-119.5" font-family="Helvetica,sans-Serif" font-size="10.00">Framework/ProcessingContext.h</text>
</g>
<!-- Node7&#45;&gt;Node10 -->
<g id="edge12" class="edge"><title>Node7&#45;&gt;Node10</title>
<path fill="none" stroke="midnightblue" d="M633.148,-168.324C615.828,-159.664 588.985,-146.242 568.998,-136.249"/>
<polygon fill="midnightblue" stroke="midnightblue" points="570.319,-132.996 559.809,-131.655 567.188,-139.257 570.319,-132.996"/>
</g>
<!-- Node11 -->
<g id="node11" class="node"><title>Node11</title>
<g id="a_node11"><a xlink:href="Activity_8h.html" target="_top" xlink:title="QualityControl/Activity.h">
<polygon fill="none" stroke="black" points="679,-112.5 679,-131.5 802,-131.5 802,-112.5 679,-112.5"/>
<text text-anchor="middle" x="740.5" y="-119.5" font-family="Helvetica,sans-Serif" font-size="10.00">QualityControl/Activity.h</text>
</a>
</g>
</g>
<!-- Node7&#45;&gt;Node11 -->
<g id="edge13" class="edge"><title>Node7&#45;&gt;Node11</title>
<path fill="none" stroke="midnightblue" d="M664.96,-168.324C679,-159.9 700.548,-146.971 717.043,-137.074"/>
<polygon fill="midnightblue" stroke="midnightblue" points="719.302,-139.801 726.076,-131.655 715.7,-133.798 719.302,-139.801"/>
</g>
<!-- Node12 -->
<g id="node12" class="node"><title>Node12</title>
<g id="a_node12"><a xlink:href="ObjectsManager_8h.html" target="_top" xlink:title="QualityControl/ObjectsManager.h">
<polygon fill="none" stroke="black" points="207,-112.5 207,-131.5 368,-131.5 368,-112.5 207,-112.5"/>
<text text-anchor="middle" x="287.5" y="-119.5" font-family="Helvetica,sans-Serif" font-size="10.00">QualityControl/ObjectsManager.h</text>
</a>
</g>
</g>
<!-- Node7&#45;&gt;Node12 -->
<g id="edge14" class="edge"><title>Node7&#45;&gt;Node12</title>
<path fill="none" stroke="midnightblue" d="M592.982,-168.444C528.33,-158.826 423.474,-143.228 354.997,-133.041"/>
<polygon fill="midnightblue" stroke="midnightblue" points="355.156,-129.526 344.749,-131.516 354.125,-136.45 355.156,-129.526"/>
</g>
<!-- Node12&#45;&gt;Node3 -->
<g id="edge26" class="edge"><title>Node12&#45;&gt;Node3</title>
<path fill="none" stroke="midnightblue" d="M346.408,-112.489C398.271,-104.666 476.023,-92.1393 552.393,-76.0977"/>
<polygon fill="midnightblue" stroke="midnightblue" points="553.127,-79.52 562.183,-74.0202 551.674,-72.6725 553.127,-79.52"/>
</g>
<!-- Node12&#45;&gt;Node4 -->
<g id="edge24" class="edge"><title>Node12&#45;&gt;Node4</title>
<path fill="none" stroke="midnightblue" d="M317.131,-112.444C349,-103.241 399.833,-88.5617 435.064,-78.3879"/>
<polygon fill="midnightblue" stroke="midnightblue" points="436.372,-81.6534 445.008,-75.5164 434.429,-74.9282 436.372,-81.6534"/>
</g>
<!-- Node12&#45;&gt;Node5 -->
<g id="edge25" class="edge"><title>Node12&#45;&gt;Node5</title>
<path fill="none" stroke="midnightblue" d="M307.811,-112.452C323.259,-104.968 343.935,-92.6767 356.5,-76 366.703,-62.4578 371.753,-43.6543 374.22,-29.754"/>
<polygon fill="midnightblue" stroke="midnightblue" points="377.683,-30.258 375.694,-19.8516 370.76,-29.2272 377.683,-30.258"/>
</g>
<!-- Node13 -->
<g id="node13" class="node"><title>Node13</title>
<g id="a_node13"><a xlink:href="MonitorObject_8h.html" target="_top" xlink:title="QualityControl/MonitorObject.h">
<polygon fill="none" stroke="black" points="58,-56.5 58,-75.5 209,-75.5 209,-56.5 58,-56.5"/>
<text text-anchor="middle" x="133.5" y="-63.5" font-family="Helvetica,sans-Serif" font-size="10.00">QualityControl/MonitorObject.h</text>
</a>
</g>
</g>
<!-- Node12&#45;&gt;Node13 -->
<g id="edge15" class="edge"><title>Node12&#45;&gt;Node13</title>
<path fill="none" stroke="midnightblue" d="M263.098,-112.444C237.303,-103.399 196.423,-89.064 167.482,-78.9158"/>
<polygon fill="midnightblue" stroke="midnightblue" points="168.382,-75.5226 157.788,-75.5164 166.066,-82.1283 168.382,-75.5226"/>
</g>
<!-- Node17 -->
<g id="node17" class="node"><title>Node17</title>
<g id="a_node17"><a xlink:href="Quality_8h.html" target="_top" xlink:title="QualityControl/Quality.h">
<polygon fill="none" stroke="black" points="227,-56.5 227,-75.5 348,-75.5 348,-56.5 227,-56.5"/>
<text text-anchor="middle" x="287.5" y="-63.5" font-family="Helvetica,sans-Serif" font-size="10.00">QualityControl/Quality.h</text>
</a>
</g>
</g>
<!-- Node12&#45;&gt;Node17 -->
<g id="edge21" class="edge"><title>Node12&#45;&gt;Node17</title>
<path fill="none" stroke="midnightblue" d="M287.5,-112.083C287.5,-105.006 287.5,-94.8611 287.5,-85.9865"/>
<polygon fill="midnightblue" stroke="midnightblue" points="291,-85.751 287.5,-75.7511 284,-85.7511 291,-85.751"/>
</g>
<!-- Node13&#45;&gt;Node5 -->
<g id="edge16" class="edge"><title>Node13&#45;&gt;Node5</title>
<path fill="none" stroke="midnightblue" d="M172.004,-56.4435C220.199,-45.7335 301.768,-27.6072 345.917,-17.7961"/>
<polygon fill="midnightblue" stroke="midnightblue" points="346.775,-21.191 355.778,-15.6049 345.257,-14.3576 346.775,-21.191"/>
</g>
<!-- Node13&#45;&gt;Node8 -->
<g id="edge17" class="edge"><title>Node13&#45;&gt;Node8</title>
<path fill="none" stroke="midnightblue" d="M115.119,-56.4435C96.0619,-47.5719 66.0728,-33.6115 44.36,-23.5038"/>
<polygon fill="midnightblue" stroke="midnightblue" points="45.5782,-20.2103 35.0352,-19.1629 42.6239,-26.5563 45.5782,-20.2103"/>
</g>
<!-- Node14 -->
<g id="node14" class="node"><title>Node14</title>
<polygon fill="none" stroke="#bfbfbf" points="264.5,-0.5 264.5,-19.5 320.5,-19.5 320.5,-0.5 264.5,-0.5"/>
<text text-anchor="middle" x="292.5" y="-7.5" font-family="Helvetica,sans-Serif" font-size="10.00">Rtypes.h</text>
</g>
<!-- Node13&#45;&gt;Node14 -->
<g id="edge18" class="edge"><title>Node13&#45;&gt;Node14</title>
<path fill="none" stroke="midnightblue" d="M158.694,-56.4435C185.443,-47.3591 227.903,-32.9388 257.805,-22.7831"/>
<polygon fill="midnightblue" stroke="midnightblue" points="259.081,-26.0464 267.424,-19.5164 256.829,-19.4182 259.081,-26.0464"/>
</g>
<!-- Node15 -->
<g id="node15" class="node"><title>Node15</title>
<polygon fill="none" stroke="#bfbfbf" points="53,-0.5 53,-19.5 112,-19.5 112,-0.5 53,-0.5"/>
<text text-anchor="middle" x="82.5" y="-7.5" font-family="Helvetica,sans-Serif" font-size="10.00">TObject.h</text>
</g>
<!-- Node13&#45;&gt;Node15 -->
<g id="edge19" class="edge"><title>Node13&#45;&gt;Node15</title>
<path fill="none" stroke="midnightblue" d="M125.078,-56.083C117.652,-48.2195 106.648,-36.5688 97.6878,-27.0813"/>
<polygon fill="midnightblue" stroke="midnightblue" points="100.176,-24.618 90.7649,-19.7511 95.0866,-29.4244 100.176,-24.618"/>
</g>
<!-- Node16 -->
<g id="node16" class="node"><title>Node16</title>
<polygon fill="none" stroke="#bfbfbf" points="130.5,-0.5 130.5,-19.5 246.5,-19.5 246.5,-0.5 130.5,-0.5"/>
<text text-anchor="middle" x="188.5" y="-7.5" font-family="Helvetica,sans-Serif" font-size="10.00">Common/Exceptions.h</text>
</g>
<!-- Node13&#45;&gt;Node16 -->
<g id="edge20" class="edge"><title>Node13&#45;&gt;Node16</title>
<path fill="none" stroke="midnightblue" d="M142.582,-56.083C150.671,-48.1409 162.695,-36.3354 172.41,-26.7973"/>
<polygon fill="midnightblue" stroke="midnightblue" points="174.903,-29.2545 179.587,-19.7511 169.999,-24.2595 174.903,-29.2545"/>
</g>
<!-- Node17&#45;&gt;Node5 -->
<g id="edge23" class="edge"><title>Node17&#45;&gt;Node5</title>
<path fill="none" stroke="midnightblue" d="M301.799,-56.324C315.683,-47.9002 336.992,-34.9709 353.304,-25.0741"/>
<polygon fill="midnightblue" stroke="midnightblue" points="355.502,-27.8341 362.236,-19.6545 351.871,-21.8495 355.502,-27.8341"/>
</g>
<!-- Node17&#45;&gt;Node14 -->
<g id="edge22" class="edge"><title>Node17&#45;&gt;Node14</title>
<path fill="none" stroke="midnightblue" d="M288.326,-56.083C288.981,-49.0059 289.92,-38.8611 290.742,-29.9865"/>
<polygon fill="midnightblue" stroke="midnightblue" points="294.253,-30.0312 291.69,-19.7511 287.283,-29.3858 294.253,-30.0312"/>
</g>
<!-- Node19 -->
<g id="node19" class="node"><title>Node19</title>
<polygon fill="none" stroke="#bfbfbf" points="790.5,-168.5 790.5,-187.5 920.5,-187.5 920.5,-168.5 790.5,-168.5"/>
<text text-anchor="middle" x="855.5" y="-175.5" font-family="Helvetica,sans-Serif" font-size="10.00">InfoLogger/InfoLogger.hxx</text>
</g>
<!-- Node18&#45;&gt;Node19 -->
<g id="edge29" class="edge"><title>Node18&#45;&gt;Node19</title>
<path fill="none" stroke="midnightblue" d="M855.5,-224.083C855.5,-217.006 855.5,-206.861 855.5,-197.986"/>
<polygon fill="midnightblue" stroke="midnightblue" points="859,-197.751 855.5,-187.751 852,-197.751 859,-197.751"/>
</g>
</g>
</svg>
