<?xml version="1.0" encoding="UTF-8" standalone="no"?>
<!DOCTYPE svg PUBLIC "-//W3C//DTD SVG 1.1//EN"
 "http://www.w3.org/Graphics/SVG/1.1/DTD/svg11.dtd">
<!-- Generated by graphviz version 2.38.0 (20140413.2041)
 -->
<!-- Title: Framework/test/testWorkflow.cxx Pages: 1 -->
<!--zoomable 330 -->
<svg id="main" version="1.1" xmlns="http://www.w3.org/2000/svg" xmlns:xlink="http://www.w3.org/1999/xlink" xml:space="preserve" onload="init(evt)">
<style type="text/css"><![CDATA[
.edge:hover path { stroke: red; }
.edge:hover polygon { stroke: red; fill: red; }
]]></style>
<script type="text/javascript"><![CDATA[
var edges = document.getElementsByTagName('g');
if (edges && edges.length) {
  for (var i=0;i<edges.length;i++) {
    if (edges[i].id.substr(0,4)=='edge') {
      edges[i].setAttribute('class','edge');
    }
  }
}
]]></script>
        <defs>
                <circle id="rim" cx="0" cy="0" r="7"/>
                <circle id="rim2" cx="0" cy="0" r="3.5"/>
                <g id="zoomPlus">
                        <use xlink:href="#rim" fill="#404040">
                                <set attributeName="fill" to="#808080" begin="zoomplus.mouseover" end="zoomplus.mouseout"/>
                        </use>
                        <path d="M-4,0h8M0,-4v8" fill="none" stroke="white" stroke-width="1.5" pointer-events="none"/>
                </g>
                <g id="zoomMin">
                        <use xlink:href="#rim" fill="#404040">
                                <set attributeName="fill" to="#808080" begin="zoomminus.mouseover" end="zoomminus.mouseout"/>
                        </use>
                        <path d="M-4,0h8" fill="none" stroke="white" stroke-width="1.5" pointer-events="none"/>
                </g>
                <g id="dirArrow">
                        <path fill="none" stroke="white" stroke-width="1.5" d="M0,-3.0v7 M-2.5,-0.5L0,-3.0L2.5,-0.5"/>
                </g>
               <g id="resetDef">
                       <use xlink:href="#rim2" fill="#404040">
                               <set attributeName="fill" to="#808080" begin="reset.mouseover" end="reset.mouseout"/>
                       </use>
               </g>
        </defs>

<script type="text/javascript">
var viewWidth = 2022;
var viewHeight = 330;
var sectionId = 'dynsection-0';
</script>
<script xlink:href="svgpan.js"/>
<svg id="graph" class="graph">
<g id="viewport">
<title>Framework/test/testWorkflow.cxx</title>
<!-- Node1 -->
<g id="node1" class="node"><title>Node1</title>
<polygon fill="#bfbfbf" stroke="black" points="1223.5,-302.5 1223.5,-321.5 1387.5,-321.5 1387.5,-302.5 1223.5,-302.5"/>
<text text-anchor="middle" x="1305.5" y="-309.5" font-family="Helvetica,sans-Serif" font-size="10.00">Framework/test/testWorkflow.cxx</text>
</g>
<!-- Node2 -->
<g id="node2" class="node"><title>Node2</title>
<polygon fill="none" stroke="#bfbfbf" points="0,-246.5 0,-265.5 119,-265.5 119,-246.5 0,-246.5"/>
<text text-anchor="middle" x="59.5" y="-253.5" font-family="Helvetica,sans-Serif" font-size="10.00">getTestDataDirectory.h</text>
</g>
<!-- Node1&#45;&gt;Node2 -->
<g id="edge1" class="edge"><title>Node1&#45;&gt;Node2</title>
<path fill="none" stroke="midnightblue" d="M1223.31,-310.178C1031.92,-307.754 541.735,-298.606 133.5,-266 132.194,-265.896 130.875,-265.786 129.547,-265.67"/>
<polygon fill="midnightblue" stroke="midnightblue" points="129.517,-262.152 119.232,-264.694 128.858,-269.121 129.517,-262.152"/>
</g>
<!-- Node3 -->
<g id="node3" class="node"><title>Node3</title>
<g id="a_node3"><a xlink:href="CheckRunner_8h.html" target="_top" xlink:title="QualityControl/CheckRunner.h">
<polygon fill="none" stroke="black" points="1144.5,-246.5 1144.5,-265.5 1294.5,-265.5 1294.5,-246.5 1144.5,-246.5"/>
<text text-anchor="middle" x="1219.5" y="-253.5" font-family="Helvetica,sans-Serif" font-size="10.00">QualityControl/CheckRunner.h</text>
</a>
</g>
</g>
<!-- Node1&#45;&gt;Node3 -->
<g id="edge2" class="edge"><title>Node1&#45;&gt;Node3</title>
<path fill="none" stroke="midnightblue" d="M1291.68,-302.324C1278.27,-293.9 1257.68,-280.971 1241.91,-271.074"/>
<polygon fill="midnightblue" stroke="midnightblue" points="1243.61,-268.008 1233.28,-265.655 1239.89,-273.936 1243.61,-268.008"/>
</g>
<!-- Node30 -->
<g id="node30" class="node"><title>Node30</title>
<g id="a_node30"><a xlink:href="InfrastructureGenerator_8h.html" target="_top" xlink:title="QualityControl/Infrastructure\lGenerator.h">
<polygon fill="none" stroke="black" points="213.5,-179.5 213.5,-209.5 353.5,-209.5 353.5,-179.5 213.5,-179.5"/>
<text text-anchor="start" x="221.5" y="-197.5" font-family="Helvetica,sans-Serif" font-size="10.00">QualityControl/Infrastructure</text>
<text text-anchor="middle" x="283.5" y="-186.5" font-family="Helvetica,sans-Serif" font-size="10.00">Generator.h</text>
</a>
</g>
</g>
<!-- Node1&#45;&gt;Node30 -->
<g id="edge58" class="edge"><title>Node1&#45;&gt;Node30</title>
<path fill="none" stroke="midnightblue" d="M1223.42,-303.933C1060.05,-289.478 682.789,-254.141 367.5,-210 366.222,-209.821 364.934,-209.638 363.638,-209.45"/>
<polygon fill="midnightblue" stroke="midnightblue" points="363.983,-205.963 353.574,-207.94 362.944,-212.885 363.983,-205.963"/>
</g>
<!-- Node32 -->
<g id="node32" class="node"><title>Node32</title>
<g id="a_node32"><a xlink:href="runnerUtils_8h.html" target="_top" xlink:title="QualityControl/runnerUtils.h">
<polygon fill="none" stroke="black" points="178,-67.5 178,-86.5 315,-86.5 315,-67.5 178,-67.5"/>
<text text-anchor="middle" x="246.5" y="-74.5" font-family="Helvetica,sans-Serif" font-size="10.00">QualityControl/runnerUtils.h</text>
</a>
</g>
</g>
<!-- Node1&#45;&gt;Node32 -->
<g id="edge62" class="edge"><title>Node1&#45;&gt;Node32</title>
<path fill="none" stroke="midnightblue" d="M1223.22,-307.933C982.088,-298.328 288.805,-266.079 204.5,-210 169.368,-186.631 145.198,-159.422 166.5,-123 175.361,-107.85 191.405,-97.406 206.812,-90.4236"/>
<polygon fill="midnightblue" stroke="midnightblue" points="208.354,-93.5733 216.253,-86.5122 205.675,-87.1064 208.354,-93.5733"/>
</g>
<!-- Node34 -->
<g id="node34" class="node"><title>Node34</title>
<polygon fill="none" stroke="#bfbfbf" points="1312.5,-246.5 1312.5,-265.5 1472.5,-265.5 1472.5,-246.5 1312.5,-246.5"/>
<text text-anchor="middle" x="1392.5" y="-253.5" font-family="Helvetica,sans-Serif" font-size="10.00">Framework/runDataProcessing.h</text>
</g>
<!-- Node1&#45;&gt;Node34 -->
<g id="edge66" class="edge"><title>Node1&#45;&gt;Node34</title>
<path fill="none" stroke="midnightblue" d="M1319.48,-302.324C1333.05,-293.9 1353.88,-280.971 1369.82,-271.074"/>
<polygon fill="midnightblue" stroke="midnightblue" points="1371.91,-273.902 1378.56,-265.655 1368.21,-267.954 1371.91,-273.902"/>
</g>
<!-- Node35 -->
<g id="node35" class="node"><title>Node35</title>
<polygon fill="none" stroke="#bfbfbf" points="1491,-246.5 1491,-265.5 1632,-265.5 1632,-246.5 1491,-246.5"/>
<text text-anchor="middle" x="1561.5" y="-253.5" font-family="Helvetica,sans-Serif" font-size="10.00">Framework/ControlService.h</text>
</g>
<!-- Node1&#45;&gt;Node35 -->
<g id="edge67" class="edge"><title>Node1&#45;&gt;Node35</title>
<path fill="none" stroke="midnightblue" d="M1346.06,-302.444C1390.82,-293.004 1462.88,-277.802 1511.2,-267.611"/>
<polygon fill="midnightblue" stroke="midnightblue" points="1512.06,-271.005 1521.13,-265.516 1510.62,-264.156 1512.06,-271.005"/>
</g>
<!-- Node36 -->
<g id="node36" class="node"><title>Node36</title>
<polygon fill="none" stroke="#bfbfbf" points="1650.5,-246.5 1650.5,-265.5 1788.5,-265.5 1788.5,-246.5 1650.5,-246.5"/>
<text text-anchor="middle" x="1719.5" y="-253.5" font-family="Helvetica,sans-Serif" font-size="10.00">Framework/DataSampling.h</text>
</g>
<!-- Node1&#45;&gt;Node36 -->
<g id="edge68" class="edge"><title>Node1&#45;&gt;Node36</title>
<path fill="none" stroke="midnightblue" d="M1371.1,-302.444C1445.29,-292.767 1565.9,-277.035 1643.96,-266.853"/>
<polygon fill="midnightblue" stroke="midnightblue" points="1644.74,-270.281 1654.21,-265.516 1643.84,-263.339 1644.74,-270.281"/>
</g>
<!-- Node37 -->
<g id="node37" class="node"><title>Node37</title>
<polygon fill="none" stroke="#bfbfbf" points="1806.5,-246.5 1806.5,-265.5 1856.5,-265.5 1856.5,-246.5 1806.5,-246.5"/>
<text text-anchor="middle" x="1831.5" y="-253.5" font-family="Helvetica,sans-Serif" font-size="10.00">TH1F.h</text>
</g>
<!-- Node1&#45;&gt;Node37 -->
<g id="edge69" class="edge"><title>Node1&#45;&gt;Node37</title>
<path fill="none" stroke="midnightblue" d="M1387.89,-307.685C1483.86,-302.875 1647.21,-291.751 1796.11,-265.96"/>
<polygon fill="midnightblue" stroke="midnightblue" points="1797.11,-269.338 1806.35,-264.159 1795.9,-262.444 1797.11,-269.338"/>
</g>
<!-- Node4 -->
<g id="node4" class="node"><title>Node4</title>
<polygon fill="none" stroke="#bfbfbf" points="1950.5,-185 1950.5,-204 1996.5,-204 1996.5,-185 1950.5,-185"/>
<text text-anchor="middle" x="1973.5" y="-192" font-family="Helvetica,sans-Serif" font-size="10.00">chrono</text>
</g>
<!-- Node3&#45;&gt;Node4 -->
<g id="edge3" class="edge"><title>Node3&#45;&gt;Node4</title>
<path fill="none" stroke="midnightblue" d="M1294.59,-246.766C1297.6,-246.496 1300.58,-246.239 1303.5,-246 1586.12,-222.888 1664.75,-276.088 1940.5,-210 1942.86,-209.434 1945.27,-208.706 1947.65,-207.879"/>
<polygon fill="midnightblue" stroke="midnightblue" points="1949.14,-211.05 1957.12,-204.076 1946.53,-204.555 1949.14,-211.05"/>
</g>
<!-- Node5 -->
<g id="node5" class="node"><title>Node5</title>
<polygon fill="none" stroke="#bfbfbf" points="471.5,-123.5 471.5,-142.5 523.5,-142.5 523.5,-123.5 471.5,-123.5"/>
<text text-anchor="middle" x="497.5" y="-130.5" font-family="Helvetica,sans-Serif" font-size="10.00">memory</text>
</g>
<!-- Node3&#45;&gt;Node5 -->
<g id="edge4" class="edge"><title>Node3&#45;&gt;Node5</title>
<path fill="none" stroke="midnightblue" d="M1144.39,-252.221C1013.87,-246.846 750.616,-233.441 661.5,-210 608.418,-196.038 551.315,-165.677 520.464,-147.844"/>
<polygon fill="midnightblue" stroke="midnightblue" points="522.163,-144.783 511.766,-142.744 518.622,-150.821 522.163,-144.783"/>
</g>
<!-- Node6 -->
<g id="node6" class="node"><title>Node6</title>
<polygon fill="none" stroke="#bfbfbf" points="558,-6 558,-25 599,-25 599,-6 558,-6"/>
<text text-anchor="middle" x="578.5" y="-13" font-family="Helvetica,sans-Serif" font-size="10.00">string</text>
</g>
<!-- Node3&#45;&gt;Node6 -->
<g id="edge5" class="edge"><title>Node3&#45;&gt;Node6</title>
<path fill="none" stroke="midnightblue" d="M1144.34,-255.039C985.681,-254.35 621.55,-248.475 504.5,-210 452.266,-192.83 426.824,-191.273 400.5,-143 364.971,-77.8467 487.847,-38.3699 547.656,-23.3964"/>
<polygon fill="midnightblue" stroke="midnightblue" points="548.804,-26.7196 557.699,-20.964 547.156,-19.9163 548.804,-26.7196"/>
</g>
<!-- Node7 -->
<g id="node7" class="node"><title>Node7</title>
<polygon fill="none" stroke="#bfbfbf" points="1315,-6 1315,-25 1350,-25 1350,-6 1315,-6"/>
<text text-anchor="middle" x="1332.5" y="-13" font-family="Helvetica,sans-Serif" font-size="10.00">map</text>
</g>
<!-- Node3&#45;&gt;Node7 -->
<g id="edge6" class="edge"><title>Node3&#45;&gt;Node7</title>
<path fill="none" stroke="midnightblue" d="M1231.67,-246.317C1243.95,-237.454 1263.36,-223.168 1279.5,-210 1295.6,-196.866 1295.6,-187.629 1314.5,-179 1369.97,-153.681 1546.31,-188.855 1586.5,-143 1654.72,-65.1529 1439.84,-29.8765 1360.63,-19.732"/>
<polygon fill="midnightblue" stroke="midnightblue" points="1360.75,-16.2203 1350.39,-18.4656 1359.89,-23.1673 1360.75,-16.2203"/>
</g>
<!-- Node8 -->
<g id="node8" class="node"><title>Node8</title>
<polygon fill="none" stroke="#bfbfbf" points="409.5,-123.5 409.5,-142.5 453.5,-142.5 453.5,-123.5 409.5,-123.5"/>
<text text-anchor="middle" x="431.5" y="-130.5" font-family="Helvetica,sans-Serif" font-size="10.00">vector</text>
</g>
<!-- Node3&#45;&gt;Node8 -->
<g id="edge7" class="edge"><title>Node3&#45;&gt;Node8</title>
<path fill="none" stroke="midnightblue" d="M1144.22,-253.494C998.659,-249.959 683.764,-239.114 579.5,-210 531.011,-196.46 479.943,-166.127 452.286,-148.145"/>
<polygon fill="midnightblue" stroke="midnightblue" points="454.113,-145.157 443.841,-142.562 450.253,-150.997 454.113,-145.157"/>
</g>
<!-- Node9 -->
<g id="node9" class="node"><title>Node9</title>
<polygon fill="none" stroke="#bfbfbf" points="1323.5,-185 1323.5,-204 1401.5,-204 1401.5,-185 1323.5,-185"/>
<text text-anchor="middle" x="1362.5" y="-192" font-family="Helvetica,sans-Serif" font-size="10.00">unordered_set</text>
</g>
<!-- Node3&#45;&gt;Node9 -->
<g id="edge8" class="edge"><title>Node3&#45;&gt;Node9</title>
<path fill="none" stroke="midnightblue" d="M1239.99,-246.475C1264.31,-236.357 1305.05,-219.405 1332.82,-207.851"/>
<polygon fill="midnightblue" stroke="midnightblue" points="1334.16,-211.082 1342.05,-204.009 1331.47,-204.619 1334.16,-211.082"/>
</g>
<!-- Node10 -->
<g id="node10" class="node"><title>Node10</title>
<polygon fill="none" stroke="#bfbfbf" points="1419.5,-185 1419.5,-204 1511.5,-204 1511.5,-185 1419.5,-185"/>
<text text-anchor="middle" x="1465.5" y="-192" font-family="Helvetica,sans-Serif" font-size="10.00">Common/Timer.h</text>
</g>
<!-- Node3&#45;&gt;Node10 -->
<g id="edge9" class="edge"><title>Node3&#45;&gt;Node10</title>
<path fill="none" stroke="midnightblue" d="M1256.9,-246.495C1295.46,-237.656 1357.28,-223.281 1410.5,-210 1414.88,-208.908 1419.44,-207.744 1423.99,-206.569"/>
<polygon fill="midnightblue" stroke="midnightblue" points="1425.04,-209.911 1433.84,-204.001 1423.28,-203.137 1425.04,-209.911"/>
</g>
<!-- Node11 -->
<g id="node11" class="node"><title>Node11</title>
<polygon fill="none" stroke="#bfbfbf" points="1529.5,-185 1529.5,-204 1627.5,-204 1627.5,-185 1529.5,-185"/>
<text text-anchor="middle" x="1578.5" y="-192" font-family="Helvetica,sans-Serif" font-size="10.00">Framework/Task.h</text>
</g>
<!-- Node3&#45;&gt;Node11 -->
<g id="edge10" class="edge"><title>Node3&#45;&gt;Node11</title>
<path fill="none" stroke="midnightblue" d="M1289.47,-246.486C1350.69,-238.574 1441.86,-225.669 1520.5,-210 1525.84,-208.935 1531.44,-207.697 1536.95,-206.402"/>
<polygon fill="midnightblue" stroke="midnightblue" points="1537.82,-209.792 1546.72,-204.034 1536.17,-202.989 1537.82,-209.792"/>
</g>
<!-- Node12 -->
<g id="node12" class="node"><title>Node12</title>
<polygon fill="none" stroke="#bfbfbf" points="1646,-185 1646,-204 1763,-204 1763,-185 1646,-185"/>
<text text-anchor="middle" x="1704.5" y="-192" font-family="Helvetica,sans-Serif" font-size="10.00">Headers/DataHeader.h</text>
</g>
<!-- Node3&#45;&gt;Node12 -->
<g id="edge11" class="edge"><title>Node3&#45;&gt;Node12</title>
<path fill="none" stroke="midnightblue" d="M1294.57,-246.948C1413.5,-234.184 1632.32,-210.67 1636.5,-210 1643.39,-208.897 1650.63,-207.553 1657.72,-206.134"/>
<polygon fill="midnightblue" stroke="midnightblue" points="1658.84,-209.474 1667.93,-204.019 1657.42,-202.62 1658.84,-209.474"/>
</g>
<!-- Node13 -->
<g id="node13" class="node"><title>Node13</title>
<polygon fill="none" stroke="#bfbfbf" points="1781,-185 1781,-204 1932,-204 1932,-185 1781,-185"/>
<text text-anchor="middle" x="1856.5" y="-192" font-family="Helvetica,sans-Serif" font-size="10.00">Monitoring/MonitoringFactory.h</text>
</g>
<!-- Node3&#45;&gt;Node13 -->
<g id="edge12" class="edge"><title>Node3&#45;&gt;Node13</title>
<path fill="none" stroke="midnightblue" d="M1294.59,-246.841C1297.6,-246.55 1300.58,-246.269 1303.5,-246 1511.24,-226.886 1564.46,-235.567 1771.5,-210 1781.09,-208.815 1791.25,-207.306 1801.09,-205.711"/>
<polygon fill="midnightblue" stroke="midnightblue" points="1801.89,-209.125 1811.18,-204.027 1800.74,-202.221 1801.89,-209.125"/>
</g>
<!-- Node14 -->
<g id="node14" class="node"><title>Node14</title>
<polygon fill="none" stroke="#bfbfbf" points="1392.5,-123.5 1392.5,-142.5 1556.5,-142.5 1556.5,-123.5 1392.5,-123.5"/>
<text text-anchor="middle" x="1474.5" y="-130.5" font-family="Helvetica,sans-Serif" font-size="10.00">Framework/DataProcessorSpec.h</text>
</g>
<!-- Node3&#45;&gt;Node14 -->
<g id="edge13" class="edge"><title>Node3&#45;&gt;Node14</title>
<path fill="none" stroke="midnightblue" d="M1219.53,-246.442C1220.09,-230.595 1223.68,-196.69 1243.5,-179 1255.54,-168.251 1340.76,-153.623 1404.21,-144.002"/>
<polygon fill="midnightblue" stroke="midnightblue" points="1404.82,-147.449 1414.19,-142.502 1403.78,-140.527 1404.82,-147.449"/>
</g>
<!-- Node15 -->
<g id="node15" class="node"><title>Node15</title>
<g id="a_node15"><a xlink:href="CheckInterface_8h.html" target="_top" xlink:title="QualityControl/CheckInterface.h">
<polygon fill="none" stroke="black" points="1103,-123.5 1103,-142.5 1260,-142.5 1260,-123.5 1103,-123.5"/>
<text text-anchor="middle" x="1181.5" y="-130.5" font-family="Helvetica,sans-Serif" font-size="10.00">QualityControl/CheckInterface.h</text>
</a>
</g>
</g>
<!-- Node3&#45;&gt;Node15 -->
<g id="edge14" class="edge"><title>Node3&#45;&gt;Node15</title>
<path fill="none" stroke="midnightblue" d="M1216.77,-246.298C1210.6,-226.676 1195.52,-178.638 1187.21,-152.193"/>
<polygon fill="midnightblue" stroke="midnightblue" points="1190.54,-151.115 1184.21,-142.623 1183.87,-153.212 1190.54,-151.115"/>
</g>
<!-- Node18 -->
<g id="node18" class="node"><title>Node18</title>
<g id="a_node18"><a xlink:href="MonitorObject_8h.html" target="_top" xlink:title="QualityControl/MonitorObject.h">
<polygon fill="none" stroke="black" points="1153,-67.5 1153,-86.5 1304,-86.5 1304,-67.5 1153,-67.5"/>
<text text-anchor="middle" x="1228.5" y="-74.5" font-family="Helvetica,sans-Serif" font-size="10.00">QualityControl/MonitorObject.h</text>
</a>
</g>
</g>
<!-- Node3&#45;&gt;Node18 -->
<g id="edge40" class="edge"><title>Node3&#45;&gt;Node18</title>
<path fill="none" stroke="midnightblue" d="M1223.83,-246.098C1232.33,-229.677 1252.91,-194.855 1281.5,-179 1394.01,-116.611 1650.24,-219.804 1565.5,-123 1549.14,-104.305 1408.53,-90.7366 1314.18,-83.6375"/>
<polygon fill="midnightblue" stroke="midnightblue" points="1314.29,-80.1362 1304.06,-82.8873 1313.78,-87.117 1314.29,-80.1362"/>
</g>
<!-- Node22 -->
<g id="node22" class="node"><title>Node22</title>
<g id="a_node22"><a xlink:href="DatabaseInterface_8h.html" target="_top" xlink:title="QualityControl/DatabaseInterface.h">
<polygon fill="none" stroke="black" points="670.5,-185 670.5,-204 840.5,-204 840.5,-185 670.5,-185"/>
<text text-anchor="middle" x="755.5" y="-192" font-family="Helvetica,sans-Serif" font-size="10.00">QualityControl/DatabaseInterface.h</text>
</a>
</g>
</g>
<!-- Node3&#45;&gt;Node22 -->
<g id="edge28" class="edge"><title>Node3&#45;&gt;Node22</title>
<path fill="none" stroke="midnightblue" d="M1153.02,-246.475C1068.09,-235.584 921.399,-216.774 831.938,-205.302"/>
<polygon fill="midnightblue" stroke="midnightblue" points="832.221,-201.81 821.857,-204.009 831.33,-208.753 832.221,-201.81"/>
</g>
<!-- Node25 -->
<g id="node25" class="node"><title>Node25</title>
<g id="a_node25"><a xlink:href="QcInfoLogger_8h.html" target="_top" xlink:title="QualityControl/QcInfoLogger.h">
<polygon fill="none" stroke="black" points="1800,-123.5 1800,-142.5 1949,-142.5 1949,-123.5 1800,-123.5"/>
<text text-anchor="middle" x="1874.5" y="-130.5" font-family="Helvetica,sans-Serif" font-size="10.00">QualityControl/QcInfoLogger.h</text>
</a>
</g>
</g>
<!-- Node3&#45;&gt;Node25 -->
<g id="edge41" class="edge"><title>Node3&#45;&gt;Node25</title>
<path fill="none" stroke="midnightblue" d="M1294.59,-246.746C1297.6,-246.482 1300.58,-246.231 1303.5,-246 1342.43,-242.919 1978.6,-238.312 2005.5,-210 2034.64,-179.326 1975.39,-157.186 1927.35,-144.971"/>
<polygon fill="midnightblue" stroke="midnightblue" points="1928.16,-141.566 1917.62,-142.588 1926.5,-148.365 1928.16,-141.566"/>
</g>
<!-- Node27 -->
<g id="node27" class="node"><title>Node27</title>
<g id="a_node27"><a xlink:href="Check_8h_source.html" target="_top" xlink:title="QualityControl/Check.h">
<polygon fill="none" stroke="black" points="996,-185 996,-204 1115,-204 1115,-185 996,-185"/>
<text text-anchor="middle" x="1055.5" y="-192" font-family="Helvetica,sans-Serif" font-size="10.00">QualityControl/Check.h</text>
</a>
</g>
</g>
<!-- Node3&#45;&gt;Node27 -->
<g id="edge43" class="edge"><title>Node3&#45;&gt;Node27</title>
<path fill="none" stroke="midnightblue" d="M1196,-246.475C1167.87,-236.269 1120.57,-219.108 1088.71,-207.549"/>
<polygon fill="midnightblue" stroke="midnightblue" points="1089.55,-204.13 1078.95,-204.009 1087.16,-210.71 1089.55,-204.13"/>
</g>
<!-- Node15&#45;&gt;Node6 -->
<g id="edge15" class="edge"><title>Node15&#45;&gt;Node6</title>
<path fill="none" stroke="midnightblue" d="M1170.17,-123.421C1150.37,-108.94 1107.62,-79.961 1066.5,-67 907.655,-16.9337 859.026,-49.4193 693.5,-31 664.883,-27.8156 632.329,-23.6611 609.18,-20.6157"/>
<polygon fill="midnightblue" stroke="midnightblue" points="609.626,-17.1443 599.253,-19.302 608.708,-24.0838 609.626,-17.1443"/>
</g>
<!-- Node15&#45;&gt;Node7 -->
<g id="edge16" class="edge"><title>Node15&#45;&gt;Node7</title>
<path fill="none" stroke="midnightblue" d="M1243.31,-123.44C1267.81,-117.116 1294.39,-106.12 1312.5,-87 1325.73,-73.0249 1330.31,-50.9473 1331.84,-35.2236"/>
<polygon fill="midnightblue" stroke="midnightblue" points="1335.34,-35.3096 1332.5,-25.1041 1328.36,-34.8567 1335.34,-35.3096"/>
</g>
<!-- Node16 -->
<g id="node16" class="node"><title>Node16</title>
<polygon fill="none" stroke="#bfbfbf" points="649,-67.5 649,-86.5 732,-86.5 732,-67.5 649,-67.5"/>
<text text-anchor="middle" x="690.5" y="-74.5" font-family="Helvetica,sans-Serif" font-size="10.00">unordered_map</text>
</g>
<!-- Node15&#45;&gt;Node16 -->
<g id="edge17" class="edge"><title>Node15&#45;&gt;Node16</title>
<path fill="none" stroke="midnightblue" d="M1103.97,-123.473C1002.83,-112.349 828.601,-93.1884 742.196,-83.6855"/>
<polygon fill="midnightblue" stroke="midnightblue" points="742.427,-80.1899 732.105,-82.5756 741.662,-87.148 742.427,-80.1899"/>
</g>
<!-- Node17 -->
<g id="node17" class="node"><title>Node17</title>
<polygon fill="none" stroke="#bfbfbf" points="1096.5,-6 1096.5,-25 1152.5,-25 1152.5,-6 1096.5,-6"/>
<text text-anchor="middle" x="1124.5" y="-13" font-family="Helvetica,sans-Serif" font-size="10.00">Rtypes.h</text>
</g>
<!-- Node15&#45;&gt;Node17 -->
<g id="edge18" class="edge"><title>Node15&#45;&gt;Node17</title>
<path fill="none" stroke="midnightblue" d="M1172.02,-123.234C1163.39,-114.751 1150.9,-101.132 1143.5,-87 1134.88,-70.5332 1129.9,-49.8019 1127.22,-35.093"/>
<polygon fill="midnightblue" stroke="midnightblue" points="1130.67,-34.4911 1125.6,-25.1894 1123.76,-35.624 1130.67,-34.4911"/>
</g>
<!-- Node15&#45;&gt;Node18 -->
<g id="edge19" class="edge"><title>Node15&#45;&gt;Node18</title>
<path fill="none" stroke="midnightblue" d="M1189.26,-123.083C1196.04,-115.298 1206.04,-103.801 1214.26,-94.3665"/>
<polygon fill="midnightblue" stroke="midnightblue" points="1216.96,-96.592 1220.88,-86.7511 1211.68,-91.9963 1216.96,-96.592"/>
</g>
<!-- Node21 -->
<g id="node21" class="node"><title>Node21</title>
<g id="a_node21"><a xlink:href="Quality_8h.html" target="_top" xlink:title="QualityControl/Quality.h">
<polygon fill="none" stroke="black" points="937,-67.5 937,-86.5 1058,-86.5 1058,-67.5 937,-67.5"/>
<text text-anchor="middle" x="997.5" y="-74.5" font-family="Helvetica,sans-Serif" font-size="10.00">QualityControl/Quality.h</text>
</a>
</g>
</g>
<!-- Node15&#45;&gt;Node21 -->
<g id="edge25" class="edge"><title>Node15&#45;&gt;Node21</title>
<path fill="none" stroke="midnightblue" d="M1152.34,-123.444C1120.99,-114.241 1070.97,-99.5617 1036.3,-89.3879"/>
<polygon fill="midnightblue" stroke="midnightblue" points="1037.1,-85.9742 1026.52,-86.5164 1035.13,-92.6909 1037.1,-85.9742"/>
</g>
<!-- Node18&#45;&gt;Node6 -->
<g id="edge20" class="edge"><title>Node18&#45;&gt;Node6</title>
<path fill="none" stroke="midnightblue" d="M1152.66,-70.6167C1048.89,-63.024 856.883,-48.164 693.5,-31 664.864,-27.9917 632.313,-23.8164 609.169,-20.7185"/>
<polygon fill="midnightblue" stroke="midnightblue" points="609.623,-17.2482 599.245,-19.379 608.687,-24.1853 609.623,-17.2482"/>
</g>
<!-- Node18&#45;&gt;Node7 -->
<g id="edge21" class="edge"><title>Node18&#45;&gt;Node7</title>
<path fill="none" stroke="midnightblue" d="M1243.4,-67.4751C1260.47,-57.7106 1288.66,-41.5807 1308.76,-30.0808"/>
<polygon fill="midnightblue" stroke="midnightblue" points="1310.69,-33.013 1317.63,-25.0091 1307.21,-26.9371 1310.69,-33.013"/>
</g>
<!-- Node18&#45;&gt;Node17 -->
<g id="edge22" class="edge"><title>Node18&#45;&gt;Node17</title>
<path fill="none" stroke="midnightblue" d="M1213.6,-67.4751C1196.53,-57.7106 1168.34,-41.5807 1148.24,-30.0808"/>
<polygon fill="midnightblue" stroke="midnightblue" points="1149.79,-26.9371 1139.37,-25.0091 1146.31,-33.013 1149.79,-26.9371"/>
</g>
<!-- Node19 -->
<g id="node19" class="node"><title>Node19</title>
<polygon fill="none" stroke="#bfbfbf" points="930,-6 930,-25 989,-25 989,-6 930,-6"/>
<text text-anchor="middle" x="959.5" y="-13" font-family="Helvetica,sans-Serif" font-size="10.00">TObject.h</text>
</g>
<!-- Node18&#45;&gt;Node19 -->
<g id="edge23" class="edge"><title>Node18&#45;&gt;Node19</title>
<path fill="none" stroke="midnightblue" d="M1189.96,-67.4751C1139.26,-56.2619 1050.62,-36.6544 999.303,-25.3039"/>
<polygon fill="midnightblue" stroke="midnightblue" points="999.773,-21.8234 989.253,-23.081 998.261,-28.6582 999.773,-21.8234"/>
</g>
<!-- Node20 -->
<g id="node20" class="node"><title>Node20</title>
<polygon fill="none" stroke="#bfbfbf" points="702.5,-6 702.5,-25 818.5,-25 818.5,-6 702.5,-6"/>
<text text-anchor="middle" x="760.5" y="-13" font-family="Helvetica,sans-Serif" font-size="10.00">Common/Exceptions.h</text>
</g>
<!-- Node18&#45;&gt;Node20 -->
<g id="edge24" class="edge"><title>Node18&#45;&gt;Node20</title>
<path fill="none" stroke="midnightblue" d="M1161.45,-67.4751C1072.86,-56.2126 917.669,-36.482 828.575,-25.1548"/>
<polygon fill="midnightblue" stroke="midnightblue" points="828.938,-21.6728 818.576,-23.8836 828.055,-28.6169 828.938,-21.6728"/>
</g>
<!-- Node21&#45;&gt;Node6 -->
<g id="edge27" class="edge"><title>Node21&#45;&gt;Node6</title>
<path fill="none" stroke="midnightblue" d="M937.468,-67.4751C846.825,-54.6034 678.292,-30.6709 609.227,-20.8634"/>
<polygon fill="midnightblue" stroke="midnightblue" points="609.417,-17.3553 599.024,-19.4145 608.433,-24.2858 609.417,-17.3553"/>
</g>
<!-- Node21&#45;&gt;Node17 -->
<g id="edge26" class="edge"><title>Node21&#45;&gt;Node17</title>
<path fill="none" stroke="midnightblue" d="M1015.7,-67.4751C1037.01,-57.4897 1072.53,-40.8476 1097.16,-29.3075"/>
<polygon fill="midnightblue" stroke="midnightblue" points="1098.77,-32.4211 1106.34,-25.0091 1095.8,-26.0822 1098.77,-32.4211"/>
</g>
<!-- Node22&#45;&gt;Node5 -->
<g id="edge30" class="edge"><title>Node22&#45;&gt;Node5</title>
<path fill="none" stroke="midnightblue" d="M718.535,-184.975C669.234,-173.605 582.511,-153.605 533.634,-142.333"/>
<polygon fill="midnightblue" stroke="midnightblue" points="534.337,-138.904 523.806,-140.067 532.764,-145.725 534.337,-138.904"/>
</g>
<!-- Node22&#45;&gt;Node6 -->
<g id="edge29" class="edge"><title>Node22&#45;&gt;Node6</title>
<path fill="none" stroke="midnightblue" d="M694.885,-184.984C646.971,-176.865 585.705,-162.912 570.5,-143 546.33,-111.348 560.332,-61.228 570.614,-34.57"/>
<polygon fill="midnightblue" stroke="midnightblue" points="573.863,-35.8728 574.414,-25.2924 567.385,-33.2195 573.863,-35.8728"/>
</g>
<!-- Node22&#45;&gt;Node8 -->
<g id="edge31" class="edge"><title>Node22&#45;&gt;Node8</title>
<path fill="none" stroke="midnightblue" d="M694.216,-184.979C636.871,-176.544 548.688,-162.394 463.595,-143.049"/>
<polygon fill="midnightblue" stroke="midnightblue" points="464.303,-139.621 453.773,-140.79 462.734,-146.442 464.303,-139.621"/>
</g>
<!-- Node22&#45;&gt;Node16 -->
<g id="edge32" class="edge"><title>Node22&#45;&gt;Node16</title>
<path fill="none" stroke="midnightblue" d="M754.457,-184.697C752.499,-170.776 747.353,-143.187 735.5,-123 728.904,-111.766 718.838,-101.335 709.898,-93.3495"/>
<polygon fill="midnightblue" stroke="midnightblue" points="712.022,-90.5611 702.136,-86.7509 707.488,-95.8945 712.022,-90.5611"/>
</g>
<!-- Node22&#45;&gt;Node18 -->
<g id="edge39" class="edge"><title>Node22&#45;&gt;Node18</title>
<path fill="none" stroke="midnightblue" d="M840.734,-188.077C982.894,-178.619 1254.34,-158.624 1268.5,-143 1282.29,-127.784 1264.72,-107.168 1248.71,-93.2676"/>
<polygon fill="midnightblue" stroke="midnightblue" points="1250.61,-90.2988 1240.65,-86.6747 1246.18,-95.7163 1250.61,-90.2988"/>
</g>
<!-- Node23 -->
<g id="node23" class="node"><title>Node23</title>
<g id="a_node23"><a xlink:href="QualityObject_8h_source.html" target="_top" xlink:title="QualityControl/QualityObject.h">
<polygon fill="none" stroke="black" points="821,-123.5 821,-142.5 970,-142.5 970,-123.5 821,-123.5"/>
<text text-anchor="middle" x="895.5" y="-130.5" font-family="Helvetica,sans-Serif" font-size="10.00">QualityControl/QualityObject.h</text>
</a>
</g>
</g>
<!-- Node22&#45;&gt;Node23 -->
<g id="edge33" class="edge"><title>Node22&#45;&gt;Node23</title>
<path fill="none" stroke="midnightblue" d="M775.559,-184.975C799.262,-174.901 838.906,-158.053 866.083,-146.502"/>
<polygon fill="midnightblue" stroke="midnightblue" points="867.644,-149.642 875.479,-142.509 864.906,-143.199 867.644,-149.642"/>
</g>
<!-- Node23&#45;&gt;Node7 -->
<g id="edge35" class="edge"><title>Node23&#45;&gt;Node7</title>
<path fill="none" stroke="midnightblue" d="M897.094,-123.121C900.185,-108.733 908.441,-80.5685 927.5,-67 942.946,-56.0035 1215.76,-28.0854 1304.71,-19.2353"/>
<polygon fill="midnightblue" stroke="midnightblue" points="1305.24,-22.6998 1314.85,-18.2301 1304.55,-15.7339 1305.24,-22.6998"/>
</g>
<!-- Node23&#45;&gt;Node19 -->
<g id="edge36" class="edge"><title>Node23&#45;&gt;Node19</title>
<path fill="none" stroke="midnightblue" d="M893.034,-123.471C889.785,-110.519 885.471,-85.4496 894.5,-67 902.333,-50.9958 917.955,-38.6016 931.921,-30.0975"/>
<polygon fill="midnightblue" stroke="midnightblue" points="933.798,-33.0569 940.761,-25.072 930.338,-26.9715 933.798,-33.0569"/>
</g>
<!-- Node23&#45;&gt;Node20 -->
<g id="edge37" class="edge"><title>Node23&#45;&gt;Node20</title>
<path fill="none" stroke="midnightblue" d="M845.861,-123.478C822.733,-117.096 796.608,-106.04 779.5,-87 766.683,-72.7354 762.379,-50.7104 761.003,-35.0783"/>
<polygon fill="midnightblue" stroke="midnightblue" points="764.494,-34.8158 760.438,-25.0279 757.505,-35.2086 764.494,-34.8158"/>
</g>
<!-- Node23&#45;&gt;Node21 -->
<g id="edge38" class="edge"><title>Node23&#45;&gt;Node21</title>
<path fill="none" stroke="midnightblue" d="M911.888,-123.324C928.171,-114.703 953.367,-101.364 972.216,-91.3855"/>
<polygon fill="midnightblue" stroke="midnightblue" points="973.952,-94.4267 981.153,-86.6545 970.677,-88.2402 973.952,-94.4267"/>
</g>
<!-- Node24 -->
<g id="node24" class="node"><title>Node24</title>
<polygon fill="none" stroke="#bfbfbf" points="788.5,-67.5 788.5,-86.5 842.5,-86.5 842.5,-67.5 788.5,-67.5"/>
<text text-anchor="middle" x="815.5" y="-74.5" font-family="Helvetica,sans-Serif" font-size="10.00">iostream</text>
</g>
<!-- Node23&#45;&gt;Node24 -->
<g id="edge34" class="edge"><title>Node23&#45;&gt;Node24</title>
<path fill="none" stroke="midnightblue" d="M882.647,-123.324C870.284,-114.979 851.37,-102.212 836.763,-92.3524"/>
<polygon fill="midnightblue" stroke="midnightblue" points="838.568,-89.3483 828.321,-86.6545 834.652,-95.1503 838.568,-89.3483"/>
</g>
<!-- Node26 -->
<g id="node26" class="node"><title>Node26</title>
<polygon fill="none" stroke="#bfbfbf" points="1809.5,-67.5 1809.5,-86.5 1939.5,-86.5 1939.5,-67.5 1809.5,-67.5"/>
<text text-anchor="middle" x="1874.5" y="-74.5" font-family="Helvetica,sans-Serif" font-size="10.00">InfoLogger/InfoLogger.hxx</text>
</g>
<!-- Node25&#45;&gt;Node26 -->
<g id="edge42" class="edge"><title>Node25&#45;&gt;Node26</title>
<path fill="none" stroke="midnightblue" d="M1874.5,-123.083C1874.5,-116.006 1874.5,-105.861 1874.5,-96.9865"/>
<polygon fill="midnightblue" stroke="midnightblue" points="1878,-96.751 1874.5,-86.7511 1871,-96.7511 1878,-96.751"/>
</g>
<!-- Node27&#45;&gt;Node5 -->
<g id="edge47" class="edge"><title>Node27&#45;&gt;Node5</title>
<path fill="none" stroke="midnightblue" d="M995.728,-187.644C904.139,-178.587 723.589,-160.405 570.5,-143 558.43,-141.628 545.249,-140.032 533.451,-138.569"/>
<polygon fill="midnightblue" stroke="midnightblue" points="533.857,-135.093 523.501,-137.327 532.99,-142.039 533.857,-135.093"/>
</g>
<!-- Node27&#45;&gt;Node7 -->
<g id="edge45" class="edge"><title>Node27&#45;&gt;Node7</title>
<path fill="none" stroke="midnightblue" d="M1115.18,-189.54C1183.87,-183.742 1290.91,-170.494 1319.5,-143 1348.45,-115.159 1342.82,-62.9993 1337.14,-35.1481"/>
<polygon fill="midnightblue" stroke="midnightblue" points="1340.49,-34.1294 1334.87,-25.1477 1333.67,-35.6735 1340.49,-34.1294"/>
</g>
<!-- Node27&#45;&gt;Node8 -->
<g id="edge46" class="edge"><title>Node27&#45;&gt;Node8</title>
<path fill="none" stroke="midnightblue" d="M995.885,-189.096C862.444,-179.147 545.599,-154.981 464.006,-142.739"/>
<polygon fill="midnightblue" stroke="midnightblue" points="464.164,-139.217 453.724,-141.022 463.011,-146.122 464.164,-139.217"/>
</g>
<!-- Node27&#45;&gt;Node14 -->
<g id="edge49" class="edge"><title>Node27&#45;&gt;Node14</title>
<path fill="none" stroke="midnightblue" d="M1115.09,-185.038C1191.35,-174.208 1323.28,-155.473 1404.33,-143.965"/>
<polygon fill="midnightblue" stroke="midnightblue" points="1405.03,-147.4 1414.44,-142.529 1404.05,-140.47 1405.03,-147.4"/>
</g>
<!-- Node27&#45;&gt;Node15 -->
<g id="edge53" class="edge"><title>Node27&#45;&gt;Node15</title>
<path fill="none" stroke="midnightblue" d="M1073.55,-184.975C1094.7,-174.99 1129.94,-158.348 1154.38,-146.807"/>
<polygon fill="midnightblue" stroke="midnightblue" points="1155.93,-149.944 1163.48,-142.509 1152.94,-143.614 1155.93,-149.944"/>
</g>
<!-- Node27&#45;&gt;Node16 -->
<g id="edge48" class="edge"><title>Node27&#45;&gt;Node16</title>
<path fill="none" stroke="midnightblue" d="M995.76,-186.056C945.531,-178.644 872.386,-165.123 811.5,-143 774.698,-129.628 735.325,-106.668 711.821,-91.9212"/>
<polygon fill="midnightblue" stroke="midnightblue" points="713.658,-88.9417 703.343,-86.5244 709.899,-94.8469 713.658,-88.9417"/>
</g>
<!-- Node27&#45;&gt;Node18 -->
<g id="edge52" class="edge"><title>Node27&#45;&gt;Node18</title>
<path fill="none" stroke="midnightblue" d="M1115.04,-189.773C1180.44,-184.292 1279.29,-171.44 1302.5,-143 1319.33,-122.381 1288.34,-102.807 1261.46,-90.6286"/>
<polygon fill="midnightblue" stroke="midnightblue" points="1262.77,-87.3848 1252.2,-86.64 1260,-93.8129 1262.77,-87.3848"/>
</g>
<!-- Node27&#45;&gt;Node21 -->
<g id="edge50" class="edge"><title>Node27&#45;&gt;Node21</title>
<path fill="none" stroke="midnightblue" d="M1047.2,-184.894C1038.43,-175.361 1024.74,-159.189 1016.5,-143 1009,-128.267 1004,-110.106 1001.03,-96.7297"/>
<polygon fill="midnightblue" stroke="midnightblue" points="1004.43,-95.8913 998.99,-86.7986 997.571,-97.298 1004.43,-95.8913"/>
</g>
<!-- Node27&#45;&gt;Node23 -->
<g id="edge51" class="edge"><title>Node27&#45;&gt;Node23</title>
<path fill="none" stroke="midnightblue" d="M1032.58,-184.975C1005.13,-174.769 958.984,-157.608 927.901,-146.049"/>
<polygon fill="midnightblue" stroke="midnightblue" points="928.974,-142.714 918.382,-142.509 926.535,-149.275 928.974,-142.714"/>
</g>
<!-- Node27&#45;&gt;Node25 -->
<g id="edge54" class="edge"><title>Node27&#45;&gt;Node25</title>
<path fill="none" stroke="midnightblue" d="M1115.06,-189.173C1258.47,-178.754 1623.35,-152.246 1789.62,-140.166"/>
<polygon fill="midnightblue" stroke="midnightblue" points="1790.08,-143.642 1799.8,-139.427 1789.57,-136.661 1790.08,-143.642"/>
</g>
<!-- Node28 -->
<g id="node28" class="node"><title>Node28</title>
<polygon fill="none" stroke="#bfbfbf" points="1026,-123.5 1026,-142.5 1085,-142.5 1085,-123.5 1026,-123.5"/>
<text text-anchor="middle" x="1055.5" y="-130.5" font-family="Helvetica,sans-Serif" font-size="10.00">functional</text>
</g>
<!-- Node27&#45;&gt;Node28 -->
<g id="edge44" class="edge"><title>Node27&#45;&gt;Node28</title>
<path fill="none" stroke="midnightblue" d="M1055.5,-184.975C1055.5,-176.58 1055.5,-163.481 1055.5,-152.663"/>
<polygon fill="midnightblue" stroke="midnightblue" points="1059,-152.509 1055.5,-142.509 1052,-152.509 1059,-152.509"/>
</g>
<!-- Node29 -->
<g id="node29" class="node"><title>Node29</title>
<g id="a_node29"><a xlink:href="CheckConfig_8h.html" target="_top" xlink:title="QualityControl/CheckConfig.h">
<polygon fill="none" stroke="black" points="580,-123.5 580,-142.5 727,-142.5 727,-123.5 580,-123.5"/>
<text text-anchor="middle" x="653.5" y="-130.5" font-family="Helvetica,sans-Serif" font-size="10.00">QualityControl/CheckConfig.h</text>
</a>
</g>
</g>
<!-- Node27&#45;&gt;Node29 -->
<g id="edge55" class="edge"><title>Node27&#45;&gt;Node29</title>
<path fill="none" stroke="midnightblue" d="M997.903,-184.975C924.767,-174.15 798.776,-155.502 721.145,-144.012"/>
<polygon fill="midnightblue" stroke="midnightblue" points="721.395,-140.511 710.99,-142.509 720.37,-147.436 721.395,-140.511"/>
</g>
<!-- Node29&#45;&gt;Node6 -->
<g id="edge56" class="edge"><title>Node29&#45;&gt;Node6</title>
<path fill="none" stroke="midnightblue" d="M647.863,-123.319C635.538,-104.339 605.999,-58.848 589.726,-33.7882"/>
<polygon fill="midnightblue" stroke="midnightblue" points="592.584,-31.7628 584.203,-25.282 586.713,-35.5751 592.584,-31.7628"/>
</g>
<!-- Node29&#45;&gt;Node16 -->
<g id="edge57" class="edge"><title>Node29&#45;&gt;Node16</title>
<path fill="none" stroke="midnightblue" d="M659.61,-123.083C664.782,-115.534 672.346,-104.495 678.694,-95.2298"/>
<polygon fill="midnightblue" stroke="midnightblue" points="681.739,-96.9787 684.504,-86.7511 675.964,-93.0221 681.739,-96.9787"/>
</g>
<!-- Node30&#45;&gt;Node6 -->
<g id="edge60" class="edge"><title>Node30&#45;&gt;Node6</title>
<path fill="none" stroke="midnightblue" d="M296.007,-179.41C304.493,-169.545 315.721,-155.876 324.5,-143 346.363,-110.934 336.497,-90.345 367.5,-67 421.567,-26.2879 503.685,-17.8479 547.841,-16.4338"/>
<polygon fill="midnightblue" stroke="midnightblue" points="548.03,-19.9306 557.952,-16.2132 547.878,-12.9322 548.03,-19.9306"/>
</g>
<!-- Node30&#45;&gt;Node8 -->
<g id="edge59" class="edge"><title>Node30&#45;&gt;Node8</title>
<path fill="none" stroke="midnightblue" d="M318.574,-179.399C343.517,-169.372 376.708,-156.028 400.644,-146.405"/>
<polygon fill="midnightblue" stroke="midnightblue" points="401.992,-149.635 409.965,-142.658 399.381,-143.141 401.992,-149.635"/>
</g>
<!-- Node31 -->
<g id="node31" class="node"><title>Node31</title>
<polygon fill="none" stroke="#bfbfbf" points="175.5,-123.5 175.5,-142.5 315.5,-142.5 315.5,-123.5 175.5,-123.5"/>
<text text-anchor="middle" x="245.5" y="-130.5" font-family="Helvetica,sans-Serif" font-size="10.00">Framework/WorkflowSpec.h</text>
</g>
<!-- Node30&#45;&gt;Node31 -->
<g id="edge61" class="edge"><title>Node30&#45;&gt;Node31</title>
<path fill="none" stroke="midnightblue" d="M274.495,-179.399C269.087,-170.932 262.168,-160.099 256.446,-151.139"/>
<polygon fill="midnightblue" stroke="midnightblue" points="259.362,-149.202 251.029,-142.658 253.462,-152.97 259.362,-149.202"/>
</g>
<!-- Node32&#45;&gt;Node6 -->
<g id="edge63" class="edge"><title>Node32&#45;&gt;Node6</title>
<path fill="none" stroke="midnightblue" d="M294.068,-67.4751C363.273,-55.0724 489.78,-32.4001 547.865,-21.9904"/>
<polygon fill="midnightblue" stroke="midnightblue" points="548.659,-25.4039 557.885,-20.1946 547.424,-18.5136 548.659,-25.4039"/>
</g>
<!-- Node32&#45;&gt;Node20 -->
<g id="edge65" class="edge"><title>Node32&#45;&gt;Node20</title>
<path fill="none" stroke="midnightblue" d="M315.021,-68.0681C413.484,-56.6701 593.932,-35.7817 692.247,-24.4009"/>
<polygon fill="midnightblue" stroke="midnightblue" points="692.838,-27.856 702.369,-23.2292 692.033,-20.9024 692.838,-27.856"/>
</g>
<!-- Node33 -->
<g id="node33" class="node"><title>Node33</title>
<polygon fill="none" stroke="#bfbfbf" points="179,-0.5 179,-30.5 314,-30.5 314,-0.5 179,-0.5"/>
<text text-anchor="start" x="187" y="-18.5" font-family="Helvetica,sans-Serif" font-size="10.00">Configuration/Configuration</text>
<text text-anchor="middle" x="246.5" y="-7.5" font-family="Helvetica,sans-Serif" font-size="10.00">Factory.h</text>
</g>
<!-- Node32&#45;&gt;Node33 -->
<g id="edge64" class="edge"><title>Node32&#45;&gt;Node33</title>
<path fill="none" stroke="midnightblue" d="M246.5,-67.4751C246.5,-60.471 246.5,-50.1919 246.5,-40.6956"/>
<polygon fill="midnightblue" stroke="midnightblue" points="250,-40.5229 246.5,-30.523 243,-40.523 250,-40.5229"/>
</g>
</g>
</svg>
        <g id="navigator" transform="translate(0 0)" fill="#404254">
                <rect fill="#f2f5e9" fill-opacity="0.5" stroke="#606060" stroke-width=".5" x="0" y="0" width="60" height="60"/>
                <use id="zoomplus" xlink:href="#zoomPlus" x="17" y="9" onmousedown="handleZoom(evt,'in')"/>
                <use id="zoomminus" xlink:href="#zoomMin" x="42" y="9" onmousedown="handleZoom(evt,'out')"/>
                <use id="reset" xlink:href="#resetDef" x="30" y="36" onmousedown="handleReset()"/>
                <g id="arrowUp" xlink:href="#dirArrow" transform="translate(30 24)" onmousedown="handlePan(0,-1)">
                  <use xlink:href="#rim" fill="#404040">
                        <set attributeName="fill" to="#808080" begin="arrowUp.mouseover" end="arrowUp.mouseout"/>
                  </use>
                  <path fill="none" stroke="white" stroke-width="1.5" d="M0,-3.0v7 M-2.5,-0.5L0,-3.0L2.5,-0.5"/>
                </g>
                <g id="arrowRight" xlink:href="#dirArrow" transform="rotate(90) translate(36 -43)" onmousedown="handlePan(1,0)">
                  <use xlink:href="#rim" fill="#404040">
                        <set attributeName="fill" to="#808080" begin="arrowRight.mouseover" end="arrowRight.mouseout"/>
                  </use>
                  <path fill="none" stroke="white" stroke-width="1.5" d="M0,-3.0v7 M-2.5,-0.5L0,-3.0L2.5,-0.5"/>
                </g>
                <g id="arrowDown" xlink:href="#dirArrow" transform="rotate(180) translate(-30 -48)" onmousedown="handlePan(0,1)">
                  <use xlink:href="#rim" fill="#404040">
                        <set attributeName="fill" to="#808080" begin="arrowDown.mouseover" end="arrowDown.mouseout"/>
                  </use>
                  <path fill="none" stroke="white" stroke-width="1.5" d="M0,-3.0v7 M-2.5,-0.5L0,-3.0L2.5,-0.5"/>
                </g>
                <g id="arrowLeft" xlink:href="#dirArrow" transform="rotate(270) translate(-36 17)" onmousedown="handlePan(-1,0)">
                  <use xlink:href="#rim" fill="#404040">
                        <set attributeName="fill" to="#808080" begin="arrowLeft.mouseover" end="arrowLeft.mouseout"/>
                  </use>
                  <path fill="none" stroke="white" stroke-width="1.5" d="M0,-3.0v7 M-2.5,-0.5L0,-3.0L2.5,-0.5"/>
                </g>
        </g>
        <svg viewBox="0 0 15 15" width="100%" height="30px" preserveAspectRatio="xMaxYMin meet">
         <g id="arrow_out" transform="scale(0.3 0.3)">
          <a xlink:href="testWorkflow_8cxx__incl_org.svg" target="_base">
           <rect id="button" ry="5" rx="5" y="6" x="6" height="38" width="38"
                fill="#f2f5e9" fill-opacity="0.5" stroke="#606060" stroke-width="1.0"/>
           <path id="arrow"
             d="M 11.500037,31.436501 C 11.940474,20.09759 22.043105,11.32322 32.158766,21.979434 L 37.068811,17.246167 C 37.068811,17.246167 37.088388,32 37.088388,32 L 22.160133,31.978069 C 22.160133,31.978069 26.997745,27.140456 26.997745,27.140456 C 18.528582,18.264221 13.291696,25.230495 11.500037,31.436501 z"
             style="fill:#404040;"/>
          </a>
         </g>
        </svg>
</svg>
