<?xml version="1.0" encoding="UTF-8" standalone="no"?>
<!DOCTYPE svg PUBLIC "-//W3C//DTD SVG 1.1//EN"
 "http://www.w3.org/Graphics/SVG/1.1/DTD/svg11.dtd">
<!-- Generated by graphviz version 2.38.0 (20140413.2041)
 -->
<!-- Title: Modules/Skeleton/test/testQcSkeleton.cxx Pages: 1 -->
<svg width="1017pt" height="319pt"
 viewBox="0.00 0.00 1016.50 319.00" xmlns="http://www.w3.org/2000/svg" xmlns:xlink="http://www.w3.org/1999/xlink">
<g id="graph0" class="graph" transform="scale(1 1) rotate(0) translate(4 315)">
<title>Modules/Skeleton/test/testQcSkeleton.cxx</title>
<!-- Node1 -->
<g id="node1" class="node"><title>Node1</title>
<polygon fill="#bfbfbf" stroke="black" points="212,-280.5 212,-310.5 326,-310.5 326,-280.5 212,-280.5"/>
<text text-anchor="start" x="220" y="-298.5" font-family="Helvetica,sans-Serif" font-size="10.00">Modules/Skeleton/test</text>
<text text-anchor="middle" x="269" y="-287.5" font-family="Helvetica,sans-Serif" font-size="10.00">/testQcSkeleton.cxx</text>
</g>
<!-- Node2 -->
<g id="node2" class="node"><title>Node2</title>
<g id="a_node2"><a xlink:href="SkeletonTask_8h.html" target="_top" xlink:title="Skeleton/SkeletonTask.h">
<polygon fill="none" stroke="black" points="206,-224.5 206,-243.5 332,-243.5 332,-224.5 206,-224.5"/>
<text text-anchor="middle" x="269" y="-231.5" font-family="Helvetica,sans-Serif" font-size="10.00">Skeleton/SkeletonTask.h</text>
</a>
</g>
</g>
<!-- Node1&#45;&gt;Node2 -->
<g id="edge1" class="edge"><title>Node1&#45;&gt;Node2</title>
<path fill="none" stroke="midnightblue" d="M269,-280.399C269,-272.466 269,-262.458 269,-253.858"/>
<polygon fill="midnightblue" stroke="midnightblue" points="272.5,-253.658 269,-243.658 265.5,-253.658 272.5,-253.658"/>
</g>
<!-- Node18 -->
<g id="node18" class="node"><title>Node18</title>
<g id="a_node18"><a xlink:href="TaskFactory_8h.html" target="_top" xlink:title="QualityControl/TaskFactory.h">
<polygon fill="none" stroke="black" points="8.5,-224.5 8.5,-243.5 153.5,-243.5 153.5,-224.5 8.5,-224.5"/>
<text text-anchor="middle" x="81" y="-231.5" font-family="Helvetica,sans-Serif" font-size="10.00">QualityControl/TaskFactory.h</text>
</a>
</g>
</g>
<!-- Node1&#45;&gt;Node18 -->
<g id="edge25" class="edge"><title>Node1&#45;&gt;Node18</title>
<path fill="none" stroke="midnightblue" d="M224.447,-280.399C191.961,-270.118 148.461,-256.351 117.911,-246.682"/>
<polygon fill="midnightblue" stroke="midnightblue" points="118.671,-243.252 108.081,-243.571 116.559,-249.925 118.671,-243.252"/>
</g>
<!-- Node19 -->
<g id="node19" class="node"><title>Node19</title>
<polygon fill="none" stroke="#bfbfbf" points="350.5,-224.5 350.5,-243.5 469.5,-243.5 469.5,-224.5 350.5,-224.5"/>
<text text-anchor="middle" x="410" y="-231.5" font-family="Helvetica,sans-Serif" font-size="10.00">boost/test/unit_test.hpp</text>
</g>
<!-- Node1&#45;&gt;Node19 -->
<g id="edge29" class="edge"><title>Node1&#45;&gt;Node19</title>
<path fill="none" stroke="midnightblue" d="M302.415,-280.399C325.967,-270.461 357.238,-257.265 379.993,-247.662"/>
<polygon fill="midnightblue" stroke="midnightblue" points="381.631,-250.77 389.483,-243.658 378.909,-244.321 381.631,-250.77"/>
</g>
<!-- Node3 -->
<g id="node3" class="node"><title>Node3</title>
<g id="a_node3"><a xlink:href="TaskInterface_8h.html" target="_top" xlink:title="QualityControl/TaskInterface.h">
<polygon fill="none" stroke="black" points="262,-168.5 262,-187.5 412,-187.5 412,-168.5 262,-168.5"/>
<text text-anchor="middle" x="337" y="-175.5" font-family="Helvetica,sans-Serif" font-size="10.00">QualityControl/TaskInterface.h</text>
</a>
</g>
</g>
<!-- Node2&#45;&gt;Node3 -->
<g id="edge2" class="edge"><title>Node2&#45;&gt;Node3</title>
<path fill="none" stroke="midnightblue" d="M279.925,-224.324C290.175,-216.185 305.721,-203.839 318.001,-194.087"/>
<polygon fill="midnightblue" stroke="midnightblue" points="320.221,-196.794 325.876,-187.834 315.868,-191.312 320.221,-196.794"/>
</g>
<!-- Node4 -->
<g id="node4" class="node"><title>Node4</title>
<polygon fill="none" stroke="#bfbfbf" points="973.5,-0.5 973.5,-19.5 1008.5,-19.5 1008.5,-0.5 973.5,-0.5"/>
<text text-anchor="middle" x="991" y="-7.5" font-family="Helvetica,sans-Serif" font-size="10.00">map</text>
</g>
<!-- Node3&#45;&gt;Node4 -->
<g id="edge3" class="edge"><title>Node3&#45;&gt;Node4</title>
<path fill="none" stroke="midnightblue" d="M412.385,-173.798C501.765,-168.995 654.892,-157.587 784,-132 869.103,-115.134 909.422,-137.116 971,-76 983.167,-63.9245 987.966,-44.6389 989.841,-30.2056"/>
<polygon fill="midnightblue" stroke="midnightblue" points="993.358,-30.183 990.803,-19.901 986.389,-29.5325 993.358,-30.183"/>
</g>
<!-- Node5 -->
<g id="node5" class="node"><title>Node5</title>
<polygon fill="none" stroke="#bfbfbf" points="0,-56.5 0,-75.5 52,-75.5 52,-56.5 0,-56.5"/>
<text text-anchor="middle" x="26" y="-63.5" font-family="Helvetica,sans-Serif" font-size="10.00">memory</text>
</g>
<!-- Node3&#45;&gt;Node5 -->
<g id="edge4" class="edge"><title>Node3&#45;&gt;Node5</title>
<path fill="none" stroke="midnightblue" d="M261.921,-175.512C210.306,-171.688 141.668,-160.895 88,-132 66.8495,-120.612 48.7054,-99.3966 37.6068,-84.3023"/>
<polygon fill="midnightblue" stroke="midnightblue" points="40.2638,-81.9965 31.643,-75.8376 34.5414,-86.0282 40.2638,-81.9965"/>
</g>
<!-- Node6 -->
<g id="node6" class="node"><title>Node6</title>
<polygon fill="none" stroke="#bfbfbf" points="628.5,-0.5 628.5,-19.5 669.5,-19.5 669.5,-0.5 628.5,-0.5"/>
<text text-anchor="middle" x="649" y="-7.5" font-family="Helvetica,sans-Serif" font-size="10.00">string</text>
</g>
<!-- Node3&#45;&gt;Node6 -->
<g id="edge5" class="edge"><title>Node3&#45;&gt;Node6</title>
<path fill="none" stroke="midnightblue" d="M412.288,-174.416C528.34,-169.65 740.022,-157.533 763,-132 785.595,-106.892 782,-83.9272 763,-56 758.032,-48.6978 711.556,-31.9391 679.503,-21.0616"/>
<polygon fill="midnightblue" stroke="midnightblue" points="680.268,-17.6263 669.674,-17.7561 678.037,-24.2611 680.268,-17.6263"/>
</g>
<!-- Node7 -->
<g id="node7" class="node"><title>Node7</title>
<polygon fill="none" stroke="#bfbfbf" points="262.5,-0.5 262.5,-19.5 345.5,-19.5 345.5,-0.5 262.5,-0.5"/>
<text text-anchor="middle" x="304" y="-7.5" font-family="Helvetica,sans-Serif" font-size="10.00">unordered_map</text>
</g>
<!-- Node3&#45;&gt;Node7 -->
<g id="edge6" class="edge"><title>Node3&#45;&gt;Node7</title>
<path fill="none" stroke="midnightblue" d="M261.967,-171.293C206.881,-165.36 138.702,-153.77 121,-132 77.3452,-78.3132 187.814,-39.8872 255.64,-22.0998"/>
<polygon fill="midnightblue" stroke="midnightblue" points="256.899,-25.3907 265.721,-19.5244 255.166,-18.6085 256.899,-25.3907"/>
</g>
<!-- Node8 -->
<g id="node8" class="node"><title>Node8</title>
<polygon fill="none" stroke="#bfbfbf" points="130.5,-112.5 130.5,-131.5 255.5,-131.5 255.5,-112.5 130.5,-112.5"/>
<text text-anchor="middle" x="193" y="-119.5" font-family="Helvetica,sans-Serif" font-size="10.00">Framework/InitContext.h</text>
</g>
<!-- Node3&#45;&gt;Node8 -->
<g id="edge7" class="edge"><title>Node3&#45;&gt;Node8</title>
<path fill="none" stroke="midnightblue" d="M314.183,-168.444C290.168,-159.438 252.171,-145.189 225.131,-135.049"/>
<polygon fill="midnightblue" stroke="midnightblue" points="226.303,-131.751 215.71,-131.516 223.845,-138.305 226.303,-131.751"/>
</g>
<!-- Node9 -->
<g id="node9" class="node"><title>Node9</title>
<polygon fill="none" stroke="#bfbfbf" points="274,-112.5 274,-131.5 434,-131.5 434,-112.5 274,-112.5"/>
<text text-anchor="middle" x="354" y="-119.5" font-family="Helvetica,sans-Serif" font-size="10.00">Framework/ProcessingContext.h</text>
</g>
<!-- Node3&#45;&gt;Node9 -->
<g id="edge8" class="edge"><title>Node3&#45;&gt;Node9</title>
<path fill="none" stroke="midnightblue" d="M339.807,-168.083C342.085,-160.849 345.371,-150.409 348.208,-141.397"/>
<polygon fill="midnightblue" stroke="midnightblue" points="351.581,-142.341 351.245,-131.751 344.904,-140.239 351.581,-142.341"/>
</g>
<!-- Node10 -->
<g id="node10" class="node"><title>Node10</title>
<g id="a_node10"><a xlink:href="Activity_8h.html" target="_top" xlink:title="QualityControl/Activity.h">
<polygon fill="none" stroke="black" points="452.5,-112.5 452.5,-131.5 575.5,-131.5 575.5,-112.5 452.5,-112.5"/>
<text text-anchor="middle" x="514" y="-119.5" font-family="Helvetica,sans-Serif" font-size="10.00">QualityControl/Activity.h</text>
</a>
</g>
</g>
<!-- Node3&#45;&gt;Node10 -->
<g id="edge9" class="edge"><title>Node3&#45;&gt;Node10</title>
<path fill="none" stroke="midnightblue" d="M365.046,-168.444C395.082,-159.28 442.913,-144.688 476.243,-134.519"/>
<polygon fill="midnightblue" stroke="midnightblue" points="477.542,-137.782 486.085,-131.516 475.499,-131.087 477.542,-137.782"/>
</g>
<!-- Node11 -->
<g id="node11" class="node"><title>Node11</title>
<g id="a_node11"><a xlink:href="ObjectsManager_8h.html" target="_top" xlink:title="QualityControl/ObjectsManager.h">
<polygon fill="none" stroke="black" points="593.5,-112.5 593.5,-131.5 754.5,-131.5 754.5,-112.5 593.5,-112.5"/>
<text text-anchor="middle" x="674" y="-119.5" font-family="Helvetica,sans-Serif" font-size="10.00">QualityControl/ObjectsManager.h</text>
</a>
</g>
</g>
<!-- Node3&#45;&gt;Node11 -->
<g id="edge10" class="edge"><title>Node3&#45;&gt;Node11</title>
<path fill="none" stroke="midnightblue" d="M390.399,-168.444C450.297,-158.846 547.366,-143.292 610.945,-133.104"/>
<polygon fill="midnightblue" stroke="midnightblue" points="611.531,-136.555 620.851,-131.516 610.423,-129.643 611.531,-136.555"/>
</g>
<!-- Node11&#45;&gt;Node5 -->
<g id="edge24" class="edge"><title>Node11&#45;&gt;Node5</title>
<path fill="none" stroke="midnightblue" d="M593.054,-112.831C589.998,-112.546 586.971,-112.268 584,-112 387.274,-94.2329 151.215,-76.3139 62.2678,-69.6824"/>
<polygon fill="midnightblue" stroke="midnightblue" points="62.3946,-66.1823 52.1624,-68.9304 61.8751,-73.163 62.3946,-66.1823"/>
</g>
<!-- Node11&#45;&gt;Node6 -->
<g id="edge23" class="edge"><title>Node11&#45;&gt;Node6</title>
<path fill="none" stroke="midnightblue" d="M659.048,-112.474C647.068,-104.702 631.127,-92.0025 624,-76 616.806,-59.847 625.991,-40.9359 635.189,-27.69"/>
<polygon fill="midnightblue" stroke="midnightblue" points="638.12,-29.6165 641.357,-19.5283 632.535,-25.3958 638.12,-29.6165"/>
</g>
<!-- Node12 -->
<g id="node12" class="node"><title>Node12</title>
<g id="a_node12"><a xlink:href="MonitorObject_8h.html" target="_top" xlink:title="QualityControl/MonitorObject.h">
<polygon fill="none" stroke="black" points="811.5,-56.5 811.5,-75.5 962.5,-75.5 962.5,-56.5 811.5,-56.5"/>
<text text-anchor="middle" x="887" y="-63.5" font-family="Helvetica,sans-Serif" font-size="10.00">QualityControl/MonitorObject.h</text>
</a>
</g>
</g>
<!-- Node11&#45;&gt;Node12 -->
<g id="edge11" class="edge"><title>Node11&#45;&gt;Node12</title>
<path fill="none" stroke="midnightblue" d="M707.75,-112.444C744.518,-103.122 803.446,-88.1828 843.622,-77.9972"/>
<polygon fill="midnightblue" stroke="midnightblue" points="844.574,-81.3666 853.407,-75.5164 842.854,-74.5813 844.574,-81.3666"/>
</g>
<!-- Node16 -->
<g id="node16" class="node"><title>Node16</title>
<g id="a_node16"><a xlink:href="Quality_8h.html" target="_top" xlink:title="QualityControl/Quality.h">
<polygon fill="none" stroke="black" points="633.5,-56.5 633.5,-75.5 754.5,-75.5 754.5,-56.5 633.5,-56.5"/>
<text text-anchor="middle" x="694" y="-63.5" font-family="Helvetica,sans-Serif" font-size="10.00">QualityControl/Quality.h</text>
</a>
</g>
</g>
<!-- Node11&#45;&gt;Node16 -->
<g id="edge17" class="edge"><title>Node11&#45;&gt;Node16</title>
<path fill="none" stroke="midnightblue" d="M677.303,-112.083C679.982,-104.849 683.849,-94.4087 687.186,-85.3968"/>
<polygon fill="midnightblue" stroke="midnightblue" points="690.568,-86.3442 690.759,-75.7511 684.004,-83.9129 690.568,-86.3442"/>
</g>
<!-- Node17 -->
<g id="node17" class="node"><title>Node17</title>
<g id="a_node17"><a xlink:href="TaskConfig_8h.html" target="_top" xlink:title="QualityControl/TaskConfig.h">
<polygon fill="none" stroke="black" points="336,-56.5 336,-75.5 476,-75.5 476,-56.5 336,-56.5"/>
<text text-anchor="middle" x="406" y="-63.5" font-family="Helvetica,sans-Serif" font-size="10.00">QualityControl/TaskConfig.h</text>
</a>
</g>
</g>
<!-- Node11&#45;&gt;Node17 -->
<g id="edge20" class="edge"><title>Node11&#45;&gt;Node17</title>
<path fill="none" stroke="midnightblue" d="M631.535,-112.444C584.587,-102.984 508.924,-87.7384 458.346,-77.5472"/>
<polygon fill="midnightblue" stroke="midnightblue" points="458.761,-74.0607 448.267,-75.5164 457.378,-80.9228 458.761,-74.0607"/>
</g>
<!-- Node12&#45;&gt;Node4 -->
<g id="edge13" class="edge"><title>Node12&#45;&gt;Node4</title>
<path fill="none" stroke="midnightblue" d="M903.709,-56.324C920.312,-47.7034 946.002,-34.3643 965.22,-24.3855"/>
<polygon fill="midnightblue" stroke="midnightblue" points="967.07,-27.3689 974.332,-19.6545 963.844,-21.1565 967.07,-27.3689"/>
</g>
<!-- Node12&#45;&gt;Node6 -->
<g id="edge12" class="edge"><title>Node12&#45;&gt;Node6</title>
<path fill="none" stroke="midnightblue" d="M842.536,-56.4309C802.406,-48.4623 741.561,-35.8 679.556,-19.9771"/>
<polygon fill="midnightblue" stroke="midnightblue" points="680.154,-16.5171 669.597,-17.4107 678.407,-23.2956 680.154,-16.5171"/>
</g>
<!-- Node13 -->
<g id="node13" class="node"><title>Node13</title>
<polygon fill="none" stroke="#bfbfbf" points="688,-0.5 688,-19.5 744,-19.5 744,-0.5 688,-0.5"/>
<text text-anchor="middle" x="716" y="-7.5" font-family="Helvetica,sans-Serif" font-size="10.00">Rtypes.h</text>
</g>
<!-- Node12&#45;&gt;Node13 -->
<g id="edge14" class="edge"><title>Node12&#45;&gt;Node13</title>
<path fill="none" stroke="midnightblue" d="M859.905,-56.4435C831.012,-47.3196 785.075,-32.8133 752.895,-22.6509"/>
<polygon fill="midnightblue" stroke="midnightblue" points="753.559,-19.1903 742.969,-19.5164 751.451,-25.8654 753.559,-19.1903"/>
</g>
<!-- Node14 -->
<g id="node14" class="node"><title>Node14</title>
<polygon fill="none" stroke="#bfbfbf" points="896.5,-0.5 896.5,-19.5 955.5,-19.5 955.5,-0.5 896.5,-0.5"/>
<text text-anchor="middle" x="926" y="-7.5" font-family="Helvetica,sans-Serif" font-size="10.00">TObject.h</text>
</g>
<!-- Node12&#45;&gt;Node14 -->
<g id="edge15" class="edge"><title>Node12&#45;&gt;Node14</title>
<path fill="none" stroke="midnightblue" d="M893.44,-56.083C898.949,-48.4554 907.031,-37.2645 913.765,-27.9408"/>
<polygon fill="midnightblue" stroke="midnightblue" points="916.662,-29.9071 919.68,-19.7511 910.987,-25.8087 916.662,-29.9071"/>
</g>
<!-- Node15 -->
<g id="node15" class="node"><title>Node15</title>
<polygon fill="none" stroke="#bfbfbf" points="762,-0.5 762,-19.5 878,-19.5 878,-0.5 762,-0.5"/>
<text text-anchor="middle" x="820" y="-7.5" font-family="Helvetica,sans-Serif" font-size="10.00">Common/Exceptions.h</text>
</g>
<!-- Node12&#45;&gt;Node15 -->
<g id="edge16" class="edge"><title>Node12&#45;&gt;Node15</title>
<path fill="none" stroke="midnightblue" d="M876.235,-56.324C866.234,-48.2631 851.113,-36.0765 839.07,-26.3695"/>
<polygon fill="midnightblue" stroke="midnightblue" points="840.943,-23.3841 830.961,-19.8339 836.55,-28.8343 840.943,-23.3841"/>
</g>
<!-- Node16&#45;&gt;Node6 -->
<g id="edge19" class="edge"><title>Node16&#45;&gt;Node6</title>
<path fill="none" stroke="midnightblue" d="M686.569,-56.083C680.147,-48.3768 670.694,-37.0333 662.878,-27.6531"/>
<polygon fill="midnightblue" stroke="midnightblue" points="665.383,-25.1927 656.293,-19.7511 660.006,-29.674 665.383,-25.1927"/>
</g>
<!-- Node16&#45;&gt;Node13 -->
<g id="edge18" class="edge"><title>Node16&#45;&gt;Node13</title>
<path fill="none" stroke="midnightblue" d="M697.633,-56.083C700.612,-48.77 704.926,-38.1814 708.625,-29.1034"/>
<polygon fill="midnightblue" stroke="midnightblue" points="711.903,-30.3326 712.435,-19.7511 705.42,-27.6914 711.903,-30.3326"/>
</g>
<!-- Node17&#45;&gt;Node6 -->
<g id="edge21" class="edge"><title>Node17&#45;&gt;Node6</title>
<path fill="none" stroke="midnightblue" d="M444.504,-56.4435C492.699,-45.7335 574.268,-27.6072 618.417,-17.7961"/>
<polygon fill="midnightblue" stroke="midnightblue" points="619.275,-21.191 628.278,-15.6049 617.757,-14.3576 619.275,-21.191"/>
</g>
<!-- Node17&#45;&gt;Node7 -->
<g id="edge22" class="edge"><title>Node17&#45;&gt;Node7</title>
<path fill="none" stroke="midnightblue" d="M389.612,-56.324C373.329,-47.7034 348.133,-34.3643 329.284,-24.3855"/>
<polygon fill="midnightblue" stroke="midnightblue" points="330.823,-21.2402 320.347,-19.6545 327.548,-27.4267 330.823,-21.2402"/>
</g>
<!-- Node18&#45;&gt;Node3 -->
<g id="edge28" class="edge"><title>Node18&#45;&gt;Node3</title>
<path fill="none" stroke="midnightblue" d="M121.564,-224.444C166.316,-215.004 238.383,-199.802 286.695,-189.611"/>
<polygon fill="midnightblue" stroke="midnightblue" points="287.564,-193.005 296.626,-187.516 286.119,-186.156 287.564,-193.005"/>
</g>
<!-- Node18&#45;&gt;Node5 -->
<g id="edge26" class="edge"><title>Node18&#45;&gt;Node5</title>
<path fill="none" stroke="midnightblue" d="M73.4127,-224.336C66.2725,-215.714 55.8304,-201.809 50,-188 35.4733,-153.595 29.601,-109.917 27.3332,-85.5634"/>
<polygon fill="midnightblue" stroke="midnightblue" points="30.8184,-85.2383 26.5069,-75.5604 23.8422,-85.8146 30.8184,-85.2383"/>
</g>
<!-- Node18&#45;&gt;Node17 -->
<g id="edge27" class="edge"><title>Node18&#45;&gt;Node17</title>
<path fill="none" stroke="midnightblue" d="M81.0059,-224.332C81.5288,-201.875 86.26,-141.503 121,-112 151.13,-86.4118 252.433,-75.2706 325.7,-70.4886"/>
<polygon fill="midnightblue" stroke="midnightblue" points="326.079,-73.9718 335.842,-69.8552 325.643,-66.9854 326.079,-73.9718"/>
</g>
</g>
</svg>
