<?xml version="1.0" encoding="UTF-8" standalone="no"?>
<!DOCTYPE svg PUBLIC "-//W3C//DTD SVG 1.1//EN"
 "http://www.w3.org/Graphics/SVG/1.1/DTD/svg11.dtd">
<!-- Generated by graphviz version 2.38.0 (20140413.2041)
 -->
<!-- Title: Framework/test/testCheckWorkflow.cxx Pages: 1 -->
<!--zoomable 352 -->
<svg id="main" version="1.1" xmlns="http://www.w3.org/2000/svg" xmlns:xlink="http://www.w3.org/1999/xlink" xml:space="preserve" onload="init(evt)">
<style type="text/css"><![CDATA[
.edge:hover path { stroke: red; }
.edge:hover polygon { stroke: red; fill: red; }
]]></style>
<script type="text/javascript"><![CDATA[
var edges = document.getElementsByTagName('g');
if (edges && edges.length) {
  for (var i=0;i<edges.length;i++) {
    if (edges[i].id.substr(0,4)=='edge') {
      edges[i].setAttribute('class','edge');
    }
  }
}
]]></script>
        <defs>
                <circle id="rim" cx="0" cy="0" r="7"/>
                <circle id="rim2" cx="0" cy="0" r="3.5"/>
                <g id="zoomPlus">
                        <use xlink:href="#rim" fill="#404040">
                                <set attributeName="fill" to="#808080" begin="zoomplus.mouseover" end="zoomplus.mouseout"/>
                        </use>
                        <path d="M-4,0h8M0,-4v8" fill="none" stroke="white" stroke-width="1.5" pointer-events="none"/>
                </g>
                <g id="zoomMin">
                        <use xlink:href="#rim" fill="#404040">
                                <set attributeName="fill" to="#808080" begin="zoomminus.mouseover" end="zoomminus.mouseout"/>
                        </use>
                        <path d="M-4,0h8" fill="none" stroke="white" stroke-width="1.5" pointer-events="none"/>
                </g>
                <g id="dirArrow">
                        <path fill="none" stroke="white" stroke-width="1.5" d="M0,-3.0v7 M-2.5,-0.5L0,-3.0L2.5,-0.5"/>
                </g>
               <g id="resetDef">
                       <use xlink:href="#rim2" fill="#404040">
                               <set attributeName="fill" to="#808080" begin="reset.mouseover" end="reset.mouseout"/>
                       </use>
               </g>
        </defs>

<script type="text/javascript">
var viewWidth = 2292;
var viewHeight = 352;
var sectionId = 'dynsection-0';
</script>
<script xlink:href="svgpan.js"/>
<svg id="graph" class="graph">
<g id="viewport">
<title>Framework/test/testCheckWorkflow.cxx</title>
<!-- Node1 -->
<g id="node1" class="node"><title>Node1</title>
<polygon fill="#bfbfbf" stroke="black" points="528.5,-313.5 528.5,-343.5 661.5,-343.5 661.5,-313.5 528.5,-313.5"/>
<text text-anchor="start" x="536.5" y="-331.5" font-family="Helvetica,sans-Serif" font-size="10.00">Framework/test/testCheck</text>
<text text-anchor="middle" x="595" y="-320.5" font-family="Helvetica,sans-Serif" font-size="10.00">Workflow.cxx</text>
</g>
<!-- Node2 -->
<g id="node2" class="node"><title>Node2</title>
<polygon fill="none" stroke="#bfbfbf" points="0,-252 0,-271 138,-271 138,-252 0,-252"/>
<text text-anchor="middle" x="69" y="-259" font-family="Helvetica,sans-Serif" font-size="10.00">Framework/DataSampling.h</text>
</g>
<!-- Node1&#45;&gt;Node2 -->
<g id="edge1" class="edge"><title>Node1&#45;&gt;Node2</title>
<path fill="none" stroke="midnightblue" d="M528.391,-321.493C440.713,-313.244 281.895,-297.115 147,-277 138.864,-275.787 130.28,-274.351 121.899,-272.861"/>
<polygon fill="midnightblue" stroke="midnightblue" points="122.285,-269.374 111.82,-271.03 121.033,-276.262 122.285,-269.374"/>
</g>
<!-- Node3 -->
<g id="node3" class="node"><title>Node3</title>
<polygon fill="none" stroke="#bfbfbf" points="156.5,-246.5 156.5,-276.5 301.5,-276.5 301.5,-246.5 156.5,-246.5"/>
<text text-anchor="start" x="164.5" y="-264.5" font-family="Helvetica,sans-Serif" font-size="10.00">Framework/CompletionPolicy</text>
<text text-anchor="middle" x="229" y="-253.5" font-family="Helvetica,sans-Serif" font-size="10.00">Helpers.h</text>
</g>
<!-- Node1&#45;&gt;Node3 -->
<g id="edge2" class="edge"><title>Node1&#45;&gt;Node3</title>
<path fill="none" stroke="midnightblue" d="M528.296,-315.654C467.303,-304.822 376.881,-288.763 311.396,-277.133"/>
<polygon fill="midnightblue" stroke="midnightblue" points="311.974,-273.681 301.516,-275.378 310.75,-280.573 311.974,-273.681"/>
</g>
<!-- Node4 -->
<g id="node4" class="node"><title>Node4</title>
<polygon fill="none" stroke="#bfbfbf" points="320,-252 320,-271 450,-271 450,-252 320,-252"/>
<text text-anchor="middle" x="385" y="-259" font-family="Helvetica,sans-Serif" font-size="10.00">Framework/DeviceSpec.h</text>
</g>
<!-- Node1&#45;&gt;Node4 -->
<g id="edge3" class="edge"><title>Node1&#45;&gt;Node4</title>
<path fill="none" stroke="midnightblue" d="M549.692,-313.476C511.721,-301.723 458.155,-285.143 422.543,-274.12"/>
<polygon fill="midnightblue" stroke="midnightblue" points="423.142,-270.642 412.554,-271.029 421.072,-277.329 423.142,-270.642"/>
</g>
<!-- Node5 -->
<g id="node5" class="node"><title>Node5</title>
<g id="a_node5"><a xlink:href="InfrastructureGenerator_8h.html" target="_top" xlink:title="QualityControl/Infrastructure\lGenerator.h">
<polygon fill="none" stroke="black" points="461,-179.5 461,-209.5 601,-209.5 601,-179.5 461,-179.5"/>
<text text-anchor="start" x="469" y="-197.5" font-family="Helvetica,sans-Serif" font-size="10.00">QualityControl/Infrastructure</text>
<text text-anchor="middle" x="531" y="-186.5" font-family="Helvetica,sans-Serif" font-size="10.00">Generator.h</text>
</a>
</g>
</g>
<!-- Node1&#45;&gt;Node5 -->
<g id="edge4" class="edge"><title>Node1&#45;&gt;Node5</title>
<path fill="none" stroke="midnightblue" d="M588.151,-313.374C577.18,-290.746 555.554,-246.143 542.278,-218.761"/>
<polygon fill="midnightblue" stroke="midnightblue" points="545.312,-216.996 537.8,-209.525 539.013,-220.05 545.312,-216.996"/>
</g>
<!-- Node9 -->
<g id="node9" class="node"><title>Node9</title>
<polygon fill="none" stroke="#bfbfbf" points="1309.5,-252 1309.5,-271 1428.5,-271 1428.5,-252 1309.5,-252"/>
<text text-anchor="middle" x="1369" y="-259" font-family="Helvetica,sans-Serif" font-size="10.00">getTestDataDirectory.h</text>
</g>
<!-- Node1&#45;&gt;Node9 -->
<g id="edge8" class="edge"><title>Node1&#45;&gt;Node9</title>
<path fill="none" stroke="midnightblue" d="M661.899,-325.728C787.507,-321.734 1066.98,-309.675 1300,-277 1307.5,-275.948 1315.41,-274.557 1323.09,-273.053"/>
<polygon fill="midnightblue" stroke="midnightblue" points="1323.9,-276.46 1332.99,-271.029 1322.5,-269.602 1323.9,-276.46"/>
</g>
<!-- Node10 -->
<g id="node10" class="node"><title>Node10</title>
<g id="a_node10"><a xlink:href="CheckRunner_8h.html" target="_top" xlink:title="QualityControl/CheckRunner.h">
<polygon fill="none" stroke="black" points="1141,-252 1141,-271 1291,-271 1291,-252 1141,-252"/>
<text text-anchor="middle" x="1216" y="-259" font-family="Helvetica,sans-Serif" font-size="10.00">QualityControl/CheckRunner.h</text>
</a>
</g>
</g>
<!-- Node1&#45;&gt;Node10 -->
<g id="edge9" class="edge"><title>Node1&#45;&gt;Node10</title>
<path fill="none" stroke="midnightblue" d="M661.753,-320.513C775.251,-308.633 1005.66,-284.516 1130.69,-271.43"/>
<polygon fill="midnightblue" stroke="midnightblue" points="1131.39,-274.875 1140.97,-270.353 1130.66,-267.913 1131.39,-274.875"/>
</g>
<!-- Node28 -->
<g id="node28" class="node"><title>Node28</title>
<g id="a_node28"><a xlink:href="QualityObject_8h_source.html" target="_top" xlink:title="QualityControl/QualityObject.h">
<polygon fill="none" stroke="black" points="1015.5,-123.5 1015.5,-142.5 1164.5,-142.5 1164.5,-123.5 1015.5,-123.5"/>
<text text-anchor="middle" x="1090" y="-130.5" font-family="Helvetica,sans-Serif" font-size="10.00">QualityControl/QualityObject.h</text>
</a>
</g>
</g>
<!-- Node1&#45;&gt;Node28 -->
<g id="edge65" class="edge"><title>Node1&#45;&gt;Node28</title>
<path fill="none" stroke="midnightblue" d="M598.972,-313.491C608.395,-283.102 635.211,-211.266 686,-179 699.299,-170.551 890.698,-151.987 1005.21,-141.535"/>
<polygon fill="midnightblue" stroke="midnightblue" points="1005.71,-145.003 1015.36,-140.611 1005.08,-138.032 1005.71,-145.003"/>
</g>
<!-- Node35 -->
<g id="node35" class="node"><title>Node35</title>
<g id="a_node35"><a xlink:href="runnerUtils_8h.html" target="_top" xlink:title="QualityControl/runnerUtils.h">
<polygon fill="none" stroke="black" points="402.5,-67.5 402.5,-86.5 539.5,-86.5 539.5,-67.5 402.5,-67.5"/>
<text text-anchor="middle" x="471" y="-74.5" font-family="Helvetica,sans-Serif" font-size="10.00">QualityControl/runnerUtils.h</text>
</a>
</g>
</g>
<!-- Node1&#45;&gt;Node35 -->
<g id="edge66" class="edge"><title>Node1&#45;&gt;Node35</title>
<path fill="none" stroke="midnightblue" d="M565.331,-313.349C530.742,-294.997 475.34,-259.387 452,-210 435.478,-175.041 444.327,-160.898 452,-123 453.893,-113.649 457.792,-103.827 461.567,-95.7526"/>
<polygon fill="midnightblue" stroke="midnightblue" points="464.788,-97.1381 466.124,-86.6279 458.525,-94.0106 464.788,-97.1381"/>
</g>
<!-- Node37 -->
<g id="node37" class="node"><title>Node37</title>
<polygon fill="none" stroke="#bfbfbf" points="1447,-252 1447,-271 1607,-271 1607,-252 1447,-252"/>
<text text-anchor="middle" x="1527" y="-259" font-family="Helvetica,sans-Serif" font-size="10.00">Framework/runDataProcessing.h</text>
</g>
<!-- Node1&#45;&gt;Node37 -->
<g id="edge70" class="edge"><title>Node1&#45;&gt;Node37</title>
<path fill="none" stroke="midnightblue" d="M661.504,-325.768C804.026,-321.561 1149.34,-308.719 1437,-277 1447.49,-275.843 1458.62,-274.305 1469.35,-272.663"/>
<polygon fill="midnightblue" stroke="midnightblue" points="1470.15,-276.081 1479.48,-271.066 1469.06,-269.166 1470.15,-276.081"/>
</g>
<!-- Node38 -->
<g id="node38" class="node"><title>Node38</title>
<polygon fill="none" stroke="#bfbfbf" points="1625.5,-252 1625.5,-271 1766.5,-271 1766.5,-252 1625.5,-252"/>
<text text-anchor="middle" x="1696" y="-259" font-family="Helvetica,sans-Serif" font-size="10.00">Framework/ControlService.h</text>
</g>
<!-- Node1&#45;&gt;Node38 -->
<g id="edge71" class="edge"><title>Node1&#45;&gt;Node38</title>
<path fill="none" stroke="midnightblue" d="M661.539,-327.194C824.73,-325.796 1257.64,-318.162 1616,-277 1625.27,-275.935 1635.08,-274.454 1644.55,-272.842"/>
<polygon fill="midnightblue" stroke="midnightblue" points="1645.39,-276.246 1654.63,-271.055 1644.17,-269.353 1645.39,-276.246"/>
</g>
<!-- Node6 -->
<g id="node6" class="node"><title>Node6</title>
<polygon fill="none" stroke="#bfbfbf" points="916,-123.5 916,-142.5 960,-142.5 960,-123.5 916,-123.5"/>
<text text-anchor="middle" x="938" y="-130.5" font-family="Helvetica,sans-Serif" font-size="10.00">vector</text>
</g>
<!-- Node5&#45;&gt;Node6 -->
<g id="edge5" class="edge"><title>Node5&#45;&gt;Node6</title>
<path fill="none" stroke="midnightblue" d="M601.098,-181.224C605.8,-180.455 610.467,-179.707 615,-179 721.118,-162.453 847.32,-145.721 905.576,-138.163"/>
<polygon fill="midnightblue" stroke="midnightblue" points="906.174,-141.614 915.642,-136.86 905.276,-134.672 906.174,-141.614"/>
</g>
<!-- Node7 -->
<g id="node7" class="node"><title>Node7</title>
<polygon fill="none" stroke="#bfbfbf" points="1056.5,-6 1056.5,-25 1097.5,-25 1097.5,-6 1056.5,-6"/>
<text text-anchor="middle" x="1077" y="-13" font-family="Helvetica,sans-Serif" font-size="10.00">string</text>
</g>
<!-- Node5&#45;&gt;Node7 -->
<g id="edge6" class="edge"><title>Node5&#45;&gt;Node7</title>
<path fill="none" stroke="midnightblue" d="M560.131,-179.386C576.227,-170.552 595.781,-158.007 610,-143 636.693,-114.828 620.692,-88.5026 653,-67 717.582,-24.0175 959.975,-17.5622 1046.26,-16.6374"/>
<polygon fill="midnightblue" stroke="midnightblue" points="1046.48,-20.1356 1056.45,-16.5466 1046.42,-13.1359 1046.48,-20.1356"/>
</g>
<!-- Node8 -->
<g id="node8" class="node"><title>Node8</title>
<polygon fill="none" stroke="#bfbfbf" points="461,-123.5 461,-142.5 601,-142.5 601,-123.5 461,-123.5"/>
<text text-anchor="middle" x="531" y="-130.5" font-family="Helvetica,sans-Serif" font-size="10.00">Framework/WorkflowSpec.h</text>
</g>
<!-- Node5&#45;&gt;Node8 -->
<g id="edge7" class="edge"><title>Node5&#45;&gt;Node8</title>
<path fill="none" stroke="midnightblue" d="M531,-179.399C531,-171.466 531,-161.458 531,-152.858"/>
<polygon fill="midnightblue" stroke="midnightblue" points="534.5,-152.658 531,-142.658 527.5,-152.658 534.5,-152.658"/>
</g>
<!-- Node10&#45;&gt;Node6 -->
<g id="edge14" class="edge"><title>Node10&#45;&gt;Node6</title>
<path fill="none" stroke="midnightblue" d="M1263.21,-251.958C1305.37,-243.258 1362.48,-228.442 1376,-210 1384.15,-198.888 1385.3,-189.168 1376,-179 1345.74,-145.905 1018.22,-150.461 974,-143 972.749,-142.789 971.478,-142.557 970.197,-142.309"/>
<polygon fill="midnightblue" stroke="midnightblue" points="970.871,-138.874 960.355,-140.161 969.378,-145.713 970.871,-138.874"/>
</g>
<!-- Node10&#45;&gt;Node7 -->
<g id="edge12" class="edge"><title>Node10&#45;&gt;Node7</title>
<path fill="none" stroke="midnightblue" d="M1140.96,-258.825C1002.01,-254.944 716.003,-242.997 686,-210 574.928,-87.8412 936.531,-33.4189 1046.36,-19.9513"/>
<polygon fill="midnightblue" stroke="midnightblue" points="1046.95,-23.4053 1056.46,-18.7412 1046.12,-16.4549 1046.95,-23.4053"/>
</g>
<!-- Node11 -->
<g id="node11" class="node"><title>Node11</title>
<polygon fill="none" stroke="#bfbfbf" points="695,-185 695,-204 741,-204 741,-185 695,-185"/>
<text text-anchor="middle" x="718" y="-192" font-family="Helvetica,sans-Serif" font-size="10.00">chrono</text>
</g>
<!-- Node10&#45;&gt;Node11 -->
<g id="edge10" class="edge"><title>Node10&#45;&gt;Node11</title>
<path fill="none" stroke="midnightblue" d="M1140.8,-259.636C1047.54,-256.916 884.43,-246.727 750,-210 747.849,-209.412 745.659,-208.697 743.486,-207.902"/>
<polygon fill="midnightblue" stroke="midnightblue" points="744.814,-204.663 734.236,-204.059 742.128,-211.127 744.814,-204.663"/>
</g>
<!-- Node12 -->
<g id="node12" class="node"><title>Node12</title>
<polygon fill="none" stroke="#bfbfbf" points="1220,-123.5 1220,-142.5 1272,-142.5 1272,-123.5 1220,-123.5"/>
<text text-anchor="middle" x="1246" y="-130.5" font-family="Helvetica,sans-Serif" font-size="10.00">memory</text>
</g>
<!-- Node10&#45;&gt;Node12 -->
<g id="edge11" class="edge"><title>Node10&#45;&gt;Node12</title>
<path fill="none" stroke="midnightblue" d="M1263.02,-251.933C1275.06,-249.865 1287.99,-247.749 1300,-246 1367.1,-236.23 1557.97,-260.696 1603,-210 1612.15,-199.699 1612.19,-189.269 1603,-179 1556.92,-127.482 1367.84,-153.677 1282.42,-142.75"/>
<polygon fill="midnightblue" stroke="midnightblue" points="1282.7,-139.253 1272.29,-141.181 1281.63,-146.171 1282.7,-139.253"/>
</g>
<!-- Node13 -->
<g id="node13" class="node"><title>Node13</title>
<polygon fill="none" stroke="#bfbfbf" points="1764.5,-6 1764.5,-25 1799.5,-25 1799.5,-6 1764.5,-6"/>
<text text-anchor="middle" x="1782" y="-13" font-family="Helvetica,sans-Serif" font-size="10.00">map</text>
</g>
<!-- Node10&#45;&gt;Node13 -->
<g id="edge13" class="edge"><title>Node10&#45;&gt;Node13</title>
<path fill="none" stroke="midnightblue" d="M1259.02,-251.983C1272.12,-249.683 1286.61,-247.436 1300,-246 1486.44,-226.011 1961.4,-256.694 2143,-210 2207.87,-193.319 2242.7,-199.927 2278,-143 2288.81,-125.561 2283.86,-81.7409 2268,-67 2234.24,-35.6202 1907.47,-21.1221 1809.58,-17.4598"/>
<polygon fill="midnightblue" stroke="midnightblue" points="1809.68,-13.9614 1799.56,-17.0933 1809.43,-20.9567 1809.68,-13.9614"/>
</g>
<!-- Node14 -->
<g id="node14" class="node"><title>Node14</title>
<polygon fill="none" stroke="#bfbfbf" points="759,-185 759,-204 837,-204 837,-185 759,-185"/>
<text text-anchor="middle" x="798" y="-192" font-family="Helvetica,sans-Serif" font-size="10.00">unordered_set</text>
</g>
<!-- Node10&#45;&gt;Node14 -->
<g id="edge15" class="edge"><title>Node10&#45;&gt;Node14</title>
<path fill="none" stroke="midnightblue" d="M1140.98,-253.766C1065.8,-246.198 947.037,-232.012 846,-210 841.838,-209.093 837.512,-208.003 833.239,-206.833"/>
<polygon fill="midnightblue" stroke="midnightblue" points="834.041,-203.422 823.462,-204.006 832.096,-210.146 834.041,-203.422"/>
</g>
<!-- Node15 -->
<g id="node15" class="node"><title>Node15</title>
<polygon fill="none" stroke="#bfbfbf" points="855,-185 855,-204 947,-204 947,-185 855,-185"/>
<text text-anchor="middle" x="901" y="-192" font-family="Helvetica,sans-Serif" font-size="10.00">Common/Timer.h</text>
</g>
<!-- Node10&#45;&gt;Node15 -->
<g id="edge16" class="edge"><title>Node10&#45;&gt;Node15</title>
<path fill="none" stroke="midnightblue" d="M1166.92,-251.963C1114.49,-242.613 1029.07,-226.708 956,-210 951.37,-208.941 946.539,-207.769 941.745,-206.562"/>
<polygon fill="midnightblue" stroke="midnightblue" points="942.591,-203.166 932.035,-204.064 940.847,-209.945 942.591,-203.166"/>
</g>
<!-- Node16 -->
<g id="node16" class="node"><title>Node16</title>
<polygon fill="none" stroke="#bfbfbf" points="965,-185 965,-204 1063,-204 1063,-185 965,-185"/>
<text text-anchor="middle" x="1014" y="-192" font-family="Helvetica,sans-Serif" font-size="10.00">Framework/Task.h</text>
</g>
<!-- Node10&#45;&gt;Node16 -->
<g id="edge17" class="edge"><title>Node10&#45;&gt;Node16</title>
<path fill="none" stroke="midnightblue" d="M1189.18,-251.869C1153.46,-240.376 1090.16,-220.008 1050.23,-207.159"/>
<polygon fill="midnightblue" stroke="midnightblue" points="1051.2,-203.795 1040.61,-204.064 1049.06,-210.459 1051.2,-203.795"/>
</g>
<!-- Node17 -->
<g id="node17" class="node"><title>Node17</title>
<polygon fill="none" stroke="#bfbfbf" points="1081.5,-185 1081.5,-204 1198.5,-204 1198.5,-185 1081.5,-185"/>
<text text-anchor="middle" x="1140" y="-192" font-family="Helvetica,sans-Serif" font-size="10.00">Headers/DataHeader.h</text>
</g>
<!-- Node10&#45;&gt;Node17 -->
<g id="edge18" class="edge"><title>Node10&#45;&gt;Node17</title>
<path fill="none" stroke="midnightblue" d="M1205.75,-251.734C1193.56,-241.305 1172.98,-223.709 1158.09,-210.973"/>
<polygon fill="midnightblue" stroke="midnightblue" points="1159.96,-207.967 1150.09,-204.127 1155.41,-213.287 1159.96,-207.967"/>
</g>
<!-- Node18 -->
<g id="node18" class="node"><title>Node18</title>
<polygon fill="none" stroke="#bfbfbf" points="1216.5,-185 1216.5,-204 1367.5,-204 1367.5,-185 1216.5,-185"/>
<text text-anchor="middle" x="1292" y="-192" font-family="Helvetica,sans-Serif" font-size="10.00">Monitoring/MonitoringFactory.h</text>
</g>
<!-- Node10&#45;&gt;Node18 -->
<g id="edge19" class="edge"><title>Node10&#45;&gt;Node18</title>
<path fill="none" stroke="midnightblue" d="M1226.25,-251.734C1238.44,-241.305 1259.02,-223.709 1273.91,-210.973"/>
<polygon fill="midnightblue" stroke="midnightblue" points="1276.59,-213.287 1281.91,-204.127 1272.04,-207.967 1276.59,-213.287"/>
</g>
<!-- Node19 -->
<g id="node19" class="node"><title>Node19</title>
<polygon fill="none" stroke="#bfbfbf" points="1900,-123.5 1900,-142.5 2064,-142.5 2064,-123.5 1900,-123.5"/>
<text text-anchor="middle" x="1982" y="-130.5" font-family="Helvetica,sans-Serif" font-size="10.00">Framework/DataProcessorSpec.h</text>
</g>
<!-- Node10&#45;&gt;Node19 -->
<g id="edge20" class="edge"><title>Node10&#45;&gt;Node19</title>
<path fill="none" stroke="midnightblue" d="M1260.78,-251.929C1273.43,-249.738 1287.22,-247.563 1300,-246 1519.39,-219.169 1580.8,-260.427 1796,-210 1855.92,-195.96 1921.58,-165.179 1956.62,-147.398"/>
<polygon fill="midnightblue" stroke="midnightblue" points="1958.37,-150.436 1965.66,-142.752 1955.17,-144.21 1958.37,-150.436"/>
</g>
<!-- Node20 -->
<g id="node20" class="node"><title>Node20</title>
<g id="a_node20"><a xlink:href="CheckInterface_8h.html" target="_top" xlink:title="QualityControl/CheckInterface.h">
<polygon fill="none" stroke="black" points="1686.5,-123.5 1686.5,-142.5 1843.5,-142.5 1843.5,-123.5 1686.5,-123.5"/>
<text text-anchor="middle" x="1765" y="-130.5" font-family="Helvetica,sans-Serif" font-size="10.00">QualityControl/CheckInterface.h</text>
</a>
</g>
</g>
<!-- Node10&#45;&gt;Node20 -->
<g id="edge21" class="edge"><title>Node10&#45;&gt;Node20</title>
<path fill="none" stroke="midnightblue" d="M1260.78,-251.951C1273.43,-249.76 1287.22,-247.579 1300,-246 1352.97,-239.453 1742.7,-249.129 1779,-210 1793.57,-194.296 1784.52,-168.617 1775.64,-151.515"/>
<polygon fill="midnightblue" stroke="midnightblue" points="1778.57,-149.579 1770.62,-142.577 1772.47,-153.009 1778.57,-149.579"/>
</g>
<!-- Node23 -->
<g id="node23" class="node"><title>Node23</title>
<g id="a_node23"><a xlink:href="MonitorObject_8h.html" target="_top" xlink:title="QualityControl/MonitorObject.h">
<polygon fill="none" stroke="black" points="1564.5,-67.5 1564.5,-86.5 1715.5,-86.5 1715.5,-67.5 1564.5,-67.5"/>
<text text-anchor="middle" x="1640" y="-74.5" font-family="Helvetica,sans-Serif" font-size="10.00">QualityControl/MonitorObject.h</text>
</a>
</g>
</g>
<!-- Node10&#45;&gt;Node23 -->
<g id="edge47" class="edge"><title>Node10&#45;&gt;Node23</title>
<path fill="none" stroke="midnightblue" d="M1260.34,-251.942C1273.1,-249.724 1287.07,-247.532 1300,-246 1472.09,-225.614 1969.93,-282.315 2073,-143 2115.37,-85.7293 1863.58,-77.4775 1725.66,-77.1657"/>
<polygon fill="midnightblue" stroke="midnightblue" points="1725.53,-73.6657 1715.53,-77.1565 1725.53,-80.6657 1725.53,-73.6657"/>
</g>
<!-- Node27 -->
<g id="node27" class="node"><title>Node27</title>
<g id="a_node27"><a xlink:href="DatabaseInterface_8h.html" target="_top" xlink:title="QualityControl/DatabaseInterface.h">
<polygon fill="none" stroke="black" points="1424,-185 1424,-204 1594,-204 1594,-185 1424,-185"/>
<text text-anchor="middle" x="1509" y="-192" font-family="Helvetica,sans-Serif" font-size="10.00">QualityControl/DatabaseInterface.h</text>
</a>
</g>
</g>
<!-- Node10&#45;&gt;Node27 -->
<g id="edge35" class="edge"><title>Node10&#45;&gt;Node27</title>
<path fill="none" stroke="midnightblue" d="M1254.61,-251.936C1307.53,-240.196 1402.59,-219.105 1460.33,-206.297"/>
<polygon fill="midnightblue" stroke="midnightblue" points="1461.3,-209.666 1470.31,-204.083 1459.79,-202.832 1461.3,-209.666"/>
</g>
<!-- Node30 -->
<g id="node30" class="node"><title>Node30</title>
<g id="a_node30"><a xlink:href="QcInfoLogger_8h.html" target="_top" xlink:title="QualityControl/QcInfoLogger.h">
<polygon fill="none" stroke="black" points="2119.5,-123.5 2119.5,-142.5 2268.5,-142.5 2268.5,-123.5 2119.5,-123.5"/>
<text text-anchor="middle" x="2194" y="-130.5" font-family="Helvetica,sans-Serif" font-size="10.00">QualityControl/QcInfoLogger.h</text>
</a>
</g>
</g>
<!-- Node10&#45;&gt;Node30 -->
<g id="edge48" class="edge"><title>Node10&#45;&gt;Node30</title>
<path fill="none" stroke="midnightblue" d="M1259.02,-252C1272.13,-249.7 1286.61,-247.449 1300,-246 1478.25,-226.713 1939.4,-276.252 2106,-210 2137.27,-197.564 2165.14,-169.092 2180.77,-150.746"/>
<polygon fill="midnightblue" stroke="midnightblue" points="2183.76,-152.612 2187.42,-142.668 2178.36,-148.162 2183.76,-152.612"/>
</g>
<!-- Node32 -->
<g id="node32" class="node"><title>Node32</title>
<g id="a_node32"><a xlink:href="Check_8h_source.html" target="_top" xlink:title="QualityControl/Check.h">
<polygon fill="none" stroke="black" points="1650.5,-185 1650.5,-204 1769.5,-204 1769.5,-185 1650.5,-185"/>
<text text-anchor="middle" x="1710" y="-192" font-family="Helvetica,sans-Serif" font-size="10.00">QualityControl/Check.h</text>
</a>
</g>
</g>
<!-- Node10&#45;&gt;Node32 -->
<g id="edge50" class="edge"><title>Node10&#45;&gt;Node32</title>
<path fill="none" stroke="midnightblue" d="M1262.13,-251.989C1274.41,-249.873 1287.69,-247.72 1300,-246 1448.74,-225.216 1487.5,-232.461 1636,-210 1643.74,-208.83 1651.89,-207.416 1659.85,-205.935"/>
<polygon fill="midnightblue" stroke="midnightblue" points="1660.62,-209.353 1669.78,-204.038 1659.31,-202.477 1660.62,-209.353"/>
</g>
<!-- Node20&#45;&gt;Node7 -->
<g id="edge22" class="edge"><title>Node20&#45;&gt;Node7</title>
<path fill="none" stroke="midnightblue" d="M1705.01,-123.453C1662.36,-116.345 1604.17,-104.53 1555,-87 1536.65,-80.4584 1534.64,-72.6484 1516,-67 1367.95,-22.1422 1180.75,-16.6195 1107.94,-16.2964"/>
<polygon fill="midnightblue" stroke="midnightblue" points="1107.66,-12.7961 1097.65,-16.2831 1107.65,-19.7961 1107.66,-12.7961"/>
</g>
<!-- Node20&#45;&gt;Node13 -->
<g id="edge23" class="edge"><title>Node20&#45;&gt;Node13</title>
<path fill="none" stroke="midnightblue" d="M1766.28,-123.319C1769.01,-104.757 1775.47,-60.8391 1779.21,-35.4734"/>
<polygon fill="midnightblue" stroke="midnightblue" points="1782.71,-35.6851 1780.71,-25.282 1775.79,-34.6657 1782.71,-35.6851"/>
</g>
<!-- Node21 -->
<g id="node21" class="node"><title>Node21</title>
<polygon fill="none" stroke="#bfbfbf" points="1424.5,-67.5 1424.5,-86.5 1507.5,-86.5 1507.5,-67.5 1424.5,-67.5"/>
<text text-anchor="middle" x="1466" y="-74.5" font-family="Helvetica,sans-Serif" font-size="10.00">unordered_map</text>
</g>
<!-- Node20&#45;&gt;Node21 -->
<g id="edge24" class="edge"><title>Node20&#45;&gt;Node21</title>
<path fill="none" stroke="midnightblue" d="M1717.62,-123.444C1663.21,-113.617 1574.23,-97.5461 1517.96,-87.3839"/>
<polygon fill="midnightblue" stroke="midnightblue" points="1518.31,-83.8911 1507.85,-85.558 1517.07,-90.7796 1518.31,-83.8911"/>
</g>
<!-- Node22 -->
<g id="node22" class="node"><title>Node22</title>
<polygon fill="none" stroke="#bfbfbf" points="1612,-6 1612,-25 1668,-25 1668,-6 1612,-6"/>
<text text-anchor="middle" x="1640" y="-13" font-family="Helvetica,sans-Serif" font-size="10.00">Rtypes.h</text>
</g>
<!-- Node20&#45;&gt;Node22 -->
<g id="edge25" class="edge"><title>Node20&#45;&gt;Node22</title>
<path fill="none" stroke="midnightblue" d="M1761.21,-123.087C1755.15,-109.634 1742.18,-83.919 1725,-67 1709,-51.2506 1687.17,-38.4132 1669.63,-29.6229"/>
<polygon fill="midnightblue" stroke="midnightblue" points="1670.93,-26.3604 1660.4,-25.1629 1667.88,-32.6637 1670.93,-26.3604"/>
</g>
<!-- Node20&#45;&gt;Node23 -->
<g id="edge26" class="edge"><title>Node20&#45;&gt;Node23</title>
<path fill="none" stroke="midnightblue" d="M1745.19,-123.444C1724.71,-114.596 1692.52,-100.687 1669.14,-90.5865"/>
<polygon fill="midnightblue" stroke="midnightblue" points="1670.28,-87.2692 1659.71,-86.5164 1667.51,-93.6953 1670.28,-87.2692"/>
</g>
<!-- Node26 -->
<g id="node26" class="node"><title>Node26</title>
<g id="a_node26"><a xlink:href="Quality_8h.html" target="_top" xlink:title="QualityControl/Quality.h">
<polygon fill="none" stroke="black" points="1285.5,-67.5 1285.5,-86.5 1406.5,-86.5 1406.5,-67.5 1285.5,-67.5"/>
<text text-anchor="middle" x="1346" y="-74.5" font-family="Helvetica,sans-Serif" font-size="10.00">QualityControl/Quality.h</text>
</a>
</g>
</g>
<!-- Node20&#45;&gt;Node26 -->
<g id="edge32" class="edge"><title>Node20&#45;&gt;Node26</title>
<path fill="none" stroke="midnightblue" d="M1698.55,-123.493C1630.34,-114.753 1520.84,-100.698 1416.65,-87.2115"/>
<polygon fill="midnightblue" stroke="midnightblue" points="1416.95,-83.7214 1406.58,-85.9083 1416.05,-90.6635 1416.95,-83.7214"/>
</g>
<!-- Node23&#45;&gt;Node7 -->
<g id="edge27" class="edge"><title>Node23&#45;&gt;Node7</title>
<path fill="none" stroke="midnightblue" d="M1564.36,-68.0065C1439.12,-54.77 1193.92,-28.8569 1107.8,-19.7549"/>
<polygon fill="midnightblue" stroke="midnightblue" points="1107.95,-16.252 1097.64,-18.6816 1107.22,-23.2132 1107.95,-16.252"/>
</g>
<!-- Node23&#45;&gt;Node13 -->
<g id="edge28" class="edge"><title>Node23&#45;&gt;Node13</title>
<path fill="none" stroke="midnightblue" d="M1660.35,-67.4751C1685.21,-57.0579 1727.36,-39.3959 1754.94,-27.84"/>
<polygon fill="midnightblue" stroke="midnightblue" points="1756.51,-30.9763 1764.38,-23.8836 1753.8,-24.5202 1756.51,-30.9763"/>
</g>
<!-- Node23&#45;&gt;Node22 -->
<g id="edge29" class="edge"><title>Node23&#45;&gt;Node22</title>
<path fill="none" stroke="midnightblue" d="M1640,-67.4751C1640,-59.0803 1640,-45.9806 1640,-35.1631"/>
<polygon fill="midnightblue" stroke="midnightblue" points="1643.5,-35.0091 1640,-25.0091 1636.5,-35.0091 1643.5,-35.0091"/>
</g>
<!-- Node24 -->
<g id="node24" class="node"><title>Node24</title>
<polygon fill="none" stroke="#bfbfbf" points="1369.5,-6 1369.5,-25 1428.5,-25 1428.5,-6 1369.5,-6"/>
<text text-anchor="middle" x="1399" y="-13" font-family="Helvetica,sans-Serif" font-size="10.00">TObject.h</text>
</g>
<!-- Node23&#45;&gt;Node24 -->
<g id="edge30" class="edge"><title>Node23&#45;&gt;Node24</title>
<path fill="none" stroke="midnightblue" d="M1605.47,-67.4751C1561.3,-56.5711 1484.99,-37.7295 1438.54,-26.2614"/>
<polygon fill="midnightblue" stroke="midnightblue" points="1439.09,-22.7916 1428.54,-23.7926 1437.41,-29.5876 1439.09,-22.7916"/>
</g>
<!-- Node25 -->
<g id="node25" class="node"><title>Node25</title>
<polygon fill="none" stroke="#bfbfbf" points="545,-6 545,-25 661,-25 661,-6 545,-6"/>
<text text-anchor="middle" x="603" y="-13" font-family="Helvetica,sans-Serif" font-size="10.00">Common/Exceptions.h</text>
</g>
<!-- Node23&#45;&gt;Node25 -->
<g id="edge31" class="edge"><title>Node23&#45;&gt;Node25</title>
<path fill="none" stroke="midnightblue" d="M1564.27,-70.2958C1548.33,-69.1534 1531.62,-67.9986 1516,-67 1200.46,-46.8237 823.258,-27.4741 671.346,-19.8778"/>
<polygon fill="midnightblue" stroke="midnightblue" points="671.396,-16.3761 661.234,-19.373 671.047,-23.3674 671.396,-16.3761"/>
</g>
<!-- Node26&#45;&gt;Node7 -->
<g id="edge34" class="edge"><title>Node26&#45;&gt;Node7</title>
<path fill="none" stroke="midnightblue" d="M1307.46,-67.4751C1253.59,-55.5603 1156.88,-34.1679 1107.63,-23.2744"/>
<polygon fill="midnightblue" stroke="midnightblue" points="1108.11,-19.7963 1097.59,-21.0539 1106.6,-26.6311 1108.11,-19.7963"/>
</g>
<!-- Node26&#45;&gt;Node22 -->
<g id="edge33" class="edge"><title>Node26&#45;&gt;Node22</title>
<path fill="none" stroke="midnightblue" d="M1388.12,-67.4751C1445.25,-55.9132 1546.48,-35.4269 1601.61,-24.2695"/>
<polygon fill="midnightblue" stroke="midnightblue" points="1602.56,-27.6475 1611.67,-22.2334 1601.17,-20.7866 1602.56,-27.6475"/>
</g>
<!-- Node27&#45;&gt;Node6 -->
<g id="edge38" class="edge"><title>Node27&#45;&gt;Node6</title>
<path fill="none" stroke="midnightblue" d="M1455.13,-184.98C1440.51,-182.841 1424.67,-180.678 1410,-179 1216.82,-156.9 1165.84,-174.684 974,-143 972.749,-142.793 971.477,-142.565 970.195,-142.32"/>
<polygon fill="midnightblue" stroke="midnightblue" points="970.865,-138.884 960.351,-140.185 969.382,-145.725 970.865,-138.884"/>
</g>
<!-- Node27&#45;&gt;Node7 -->
<g id="edge36" class="edge"><title>Node27&#45;&gt;Node7</title>
<path fill="none" stroke="midnightblue" d="M1444.57,-184.997C1428.1,-182.927 1410.4,-180.795 1394,-179 1350.96,-174.291 1035.17,-174.998 1006,-143 974.209,-108.123 1027,-56.5284 1057.58,-31.3756"/>
<polygon fill="midnightblue" stroke="midnightblue" points="1059.91,-33.9978 1065.53,-25.0183 1055.53,-28.5313 1059.91,-33.9978"/>
</g>
<!-- Node27&#45;&gt;Node12 -->
<g id="edge37" class="edge"><title>Node27&#45;&gt;Node12</title>
<path fill="none" stroke="midnightblue" d="M1468.54,-184.97C1424.94,-175.681 1353.26,-160.136 1282.35,-143.266"/>
<polygon fill="midnightblue" stroke="midnightblue" points="1282.89,-139.797 1272.35,-140.877 1281.26,-146.605 1282.89,-139.797"/>
</g>
<!-- Node27&#45;&gt;Node21 -->
<g id="edge39" class="edge"><title>Node27&#45;&gt;Node21</title>
<path fill="none" stroke="midnightblue" d="M1453.16,-184.964C1367.97,-171.812 1214.9,-147.622 1211,-143 1205.26,-136.21 1205.29,-129.81 1211,-123 1211,-123 1339.8,-100.27 1414.33,-87.1189"/>
<polygon fill="midnightblue" stroke="midnightblue" points="1415.22,-90.5149 1424.46,-85.3302 1414.01,-83.6214 1415.22,-90.5149"/>
</g>
<!-- Node27&#45;&gt;Node23 -->
<g id="edge46" class="edge"><title>Node27&#45;&gt;Node23</title>
<path fill="none" stroke="midnightblue" d="M1513.79,-184.784C1521.99,-170.493 1539.85,-141.791 1561,-123 1575.75,-109.889 1594.94,-98.8492 1610.71,-90.9859"/>
<polygon fill="midnightblue" stroke="midnightblue" points="1612.53,-93.998 1620.02,-86.5103 1609.49,-87.6894 1612.53,-93.998"/>
</g>
<!-- Node27&#45;&gt;Node28 -->
<g id="edge40" class="edge"><title>Node27&#45;&gt;Node28</title>
<path fill="none" stroke="midnightblue" d="M1451.16,-184.972C1437.66,-182.996 1423.33,-180.913 1410,-179 1324.61,-166.742 1226.34,-152.974 1161.48,-143.932"/>
<polygon fill="midnightblue" stroke="midnightblue" points="1161.75,-140.436 1151.36,-142.523 1160.78,-147.369 1161.75,-140.436"/>
</g>
<!-- Node28&#45;&gt;Node13 -->
<g id="edge42" class="edge"><title>Node28&#45;&gt;Node13</title>
<path fill="none" stroke="midnightblue" d="M1120.56,-123.468C1149.56,-115.099 1194.22,-101.513 1232,-87 1252.05,-79.2971 1255.23,-72.4825 1276,-67 1449.01,-21.3301 1499.21,-51.2449 1677,-31 1703.28,-28.0078 1733.14,-23.8052 1754.29,-20.6944"/>
<polygon fill="midnightblue" stroke="midnightblue" points="1754.82,-24.1537 1764.2,-19.2223 1753.79,-17.2297 1754.82,-24.1537"/>
</g>
<!-- Node28&#45;&gt;Node24 -->
<g id="edge43" class="edge"><title>Node28&#45;&gt;Node24</title>
<path fill="none" stroke="midnightblue" d="M1108.36,-123.408C1136.55,-110.374 1192.35,-85.1977 1241,-67 1280.79,-52.1159 1327.2,-37.615 1359.37,-27.999"/>
<polygon fill="midnightblue" stroke="midnightblue" points="1360.7,-31.2551 1369.3,-25.0543 1358.71,-24.5445 1360.7,-31.2551"/>
</g>
<!-- Node28&#45;&gt;Node25 -->
<g id="edge44" class="edge"><title>Node28&#45;&gt;Node25</title>
<path fill="none" stroke="midnightblue" d="M1053.79,-123.413C966.61,-102.736 745.128,-50.208 648.853,-27.3748"/>
<polygon fill="midnightblue" stroke="midnightblue" points="649.651,-23.9671 639.114,-25.065 648.036,-30.7782 649.651,-23.9671"/>
</g>
<!-- Node28&#45;&gt;Node26 -->
<g id="edge45" class="edge"><title>Node28&#45;&gt;Node26</title>
<path fill="none" stroke="midnightblue" d="M1130.56,-123.444C1175.32,-114.004 1247.38,-98.802 1295.7,-88.6111"/>
<polygon fill="midnightblue" stroke="midnightblue" points="1296.56,-92.0051 1305.63,-86.5164 1295.12,-85.1558 1296.56,-92.0051"/>
</g>
<!-- Node29 -->
<g id="node29" class="node"><title>Node29</title>
<polygon fill="none" stroke="#bfbfbf" points="1063,-67.5 1063,-86.5 1117,-86.5 1117,-67.5 1063,-67.5"/>
<text text-anchor="middle" x="1090" y="-74.5" font-family="Helvetica,sans-Serif" font-size="10.00">iostream</text>
</g>
<!-- Node28&#45;&gt;Node29 -->
<g id="edge41" class="edge"><title>Node28&#45;&gt;Node29</title>
<path fill="none" stroke="midnightblue" d="M1090,-123.083C1090,-116.006 1090,-105.861 1090,-96.9865"/>
<polygon fill="midnightblue" stroke="midnightblue" points="1093.5,-96.751 1090,-86.7511 1086.5,-96.7511 1093.5,-96.751"/>
</g>
<!-- Node31 -->
<g id="node31" class="node"><title>Node31</title>
<polygon fill="none" stroke="#bfbfbf" points="2129,-67.5 2129,-86.5 2259,-86.5 2259,-67.5 2129,-67.5"/>
<text text-anchor="middle" x="2194" y="-74.5" font-family="Helvetica,sans-Serif" font-size="10.00">InfoLogger/InfoLogger.hxx</text>
</g>
<!-- Node30&#45;&gt;Node31 -->
<g id="edge49" class="edge"><title>Node30&#45;&gt;Node31</title>
<path fill="none" stroke="midnightblue" d="M2194,-123.083C2194,-116.006 2194,-105.861 2194,-96.9865"/>
<polygon fill="midnightblue" stroke="midnightblue" points="2197.5,-96.751 2194,-86.7511 2190.5,-96.7511 2197.5,-96.751"/>
</g>
<!-- Node32&#45;&gt;Node6 -->
<g id="edge53" class="edge"><title>Node32&#45;&gt;Node6</title>
<path fill="none" stroke="midnightblue" d="M1653.17,-184.998C1636.99,-182.795 1619.33,-180.596 1603,-179 1338.45,-153.134 1270.59,-168.455 1006,-143 994.202,-141.865 981.299,-140.252 969.934,-138.704"/>
<polygon fill="midnightblue" stroke="midnightblue" points="970.392,-135.235 960.004,-137.317 969.424,-142.167 970.392,-135.235"/>
</g>
<!-- Node32&#45;&gt;Node12 -->
<g id="edge54" class="edge"><title>Node32&#45;&gt;Node12</title>
<path fill="none" stroke="midnightblue" d="M1670.18,-184.995C1659.14,-182.831 1647.14,-180.652 1636,-179 1482.35,-156.205 1438.9,-170.223 1282.27,-142.977"/>
<polygon fill="midnightblue" stroke="midnightblue" points="1282.74,-139.505 1272.28,-141.21 1281.52,-146.398 1282.74,-139.505"/>
</g>
<!-- Node32&#45;&gt;Node13 -->
<g id="edge52" class="edge"><title>Node32&#45;&gt;Node13</title>
<path fill="none" stroke="midnightblue" d="M1749.41,-184.947C1787.36,-175.816 1840.76,-160.303 1853,-143 1879.87,-105.012 1830.97,-55.9656 1801.68,-31.6105"/>
<polygon fill="midnightblue" stroke="midnightblue" points="1803.65,-28.7043 1793.67,-25.1542 1799.26,-34.1545 1803.65,-28.7043"/>
</g>
<!-- Node32&#45;&gt;Node19 -->
<g id="edge56" class="edge"><title>Node32&#45;&gt;Node19</title>
<path fill="none" stroke="midnightblue" d="M1748.97,-184.975C1797.55,-174.349 1880.58,-156.185 1933.3,-144.652"/>
<polygon fill="midnightblue" stroke="midnightblue" points="1934.08,-148.065 1943.1,-142.509 1932.58,-141.227 1934.08,-148.065"/>
</g>
<!-- Node32&#45;&gt;Node20 -->
<g id="edge60" class="edge"><title>Node32&#45;&gt;Node20</title>
<path fill="none" stroke="midnightblue" d="M1717.88,-184.975C1726.29,-175.873 1739.82,-161.241 1750.23,-149.983"/>
<polygon fill="midnightblue" stroke="midnightblue" points="1752.92,-152.228 1757.13,-142.509 1747.78,-147.477 1752.92,-152.228"/>
</g>
<!-- Node32&#45;&gt;Node21 -->
<g id="edge55" class="edge"><title>Node32&#45;&gt;Node21</title>
<path fill="none" stroke="midnightblue" d="M1676.41,-184.958C1645.5,-176.445 1598.87,-161.924 1561,-143 1532.6,-128.811 1502.87,-107.205 1484.39,-92.849"/>
<polygon fill="midnightblue" stroke="midnightblue" points="1486.53,-90.0768 1476.51,-86.6322 1482.2,-95.573 1486.53,-90.0768"/>
</g>
<!-- Node32&#45;&gt;Node23 -->
<g id="edge59" class="edge"><title>Node32&#45;&gt;Node23</title>
<path fill="none" stroke="midnightblue" d="M1704.47,-184.98C1698.02,-174.988 1687.07,-157.894 1678,-143 1668.36,-127.163 1657.73,-108.921 1650.18,-95.8008"/>
<polygon fill="midnightblue" stroke="midnightblue" points="1653.08,-93.8214 1645.06,-86.8908 1647.01,-97.306 1653.08,-93.8214"/>
</g>
<!-- Node32&#45;&gt;Node26 -->
<g id="edge57" class="edge"><title>Node32&#45;&gt;Node26</title>
<path fill="none" stroke="midnightblue" d="M1675.32,-184.936C1637.96,-175.502 1576.88,-159.471 1525,-143 1472.58,-126.357 1412.7,-103.896 1377.19,-90.2062"/>
<polygon fill="midnightblue" stroke="midnightblue" points="1378.44,-86.9358 1367.85,-86.5897 1375.91,-93.4638 1378.44,-86.9358"/>
</g>
<!-- Node32&#45;&gt;Node28 -->
<g id="edge58" class="edge"><title>Node32&#45;&gt;Node28</title>
<path fill="none" stroke="midnightblue" d="M1650.91,-184.985C1635.35,-182.881 1618.56,-180.735 1603,-179 1522.41,-170.01 1298.45,-151.166 1174.77,-140.946"/>
<polygon fill="midnightblue" stroke="midnightblue" points="1174.83,-137.44 1164.58,-140.105 1174.26,-144.416 1174.83,-137.44"/>
</g>
<!-- Node32&#45;&gt;Node30 -->
<g id="edge61" class="edge"><title>Node32&#45;&gt;Node30</title>
<path fill="none" stroke="midnightblue" d="M1769.83,-186.144C1856.67,-175.469 2017.79,-155.662 2114.52,-143.771"/>
<polygon fill="midnightblue" stroke="midnightblue" points="2115.04,-147.233 2124.54,-142.539 2114.19,-140.286 2115.04,-147.233"/>
</g>
<!-- Node33 -->
<g id="node33" class="node"><title>Node33</title>
<polygon fill="none" stroke="#bfbfbf" points="1570.5,-123.5 1570.5,-142.5 1629.5,-142.5 1629.5,-123.5 1570.5,-123.5"/>
<text text-anchor="middle" x="1600" y="-130.5" font-family="Helvetica,sans-Serif" font-size="10.00">functional</text>
</g>
<!-- Node32&#45;&gt;Node33 -->
<g id="edge51" class="edge"><title>Node32&#45;&gt;Node33</title>
<path fill="none" stroke="midnightblue" d="M1694.24,-184.975C1676.02,-175.122 1645.83,-158.788 1624.53,-147.27"/>
<polygon fill="midnightblue" stroke="midnightblue" points="1626.19,-144.188 1615.73,-142.509 1622.86,-150.345 1626.19,-144.188"/>
</g>
<!-- Node34 -->
<g id="node34" class="node"><title>Node34</title>
<g id="a_node34"><a xlink:href="CheckConfig_8h.html" target="_top" xlink:title="QualityControl/CheckConfig.h">
<polygon fill="none" stroke="black" points="1290.5,-123.5 1290.5,-142.5 1437.5,-142.5 1437.5,-123.5 1290.5,-123.5"/>
<text text-anchor="middle" x="1364" y="-130.5" font-family="Helvetica,sans-Serif" font-size="10.00">QualityControl/CheckConfig.h</text>
</a>
</g>
</g>
<!-- Node32&#45;&gt;Node34 -->
<g id="edge62" class="edge"><title>Node32&#45;&gt;Node34</title>
<path fill="none" stroke="midnightblue" d="M1667.39,-184.927C1657.12,-182.923 1646.18,-180.839 1636,-179 1565.16,-166.203 1483.68,-152.912 1428.51,-144.123"/>
<polygon fill="midnightblue" stroke="midnightblue" points="1428.95,-140.649 1418.53,-142.536 1427.85,-147.562 1428.95,-140.649"/>
</g>
<!-- Node34&#45;&gt;Node7 -->
<g id="edge63" class="edge"><title>Node34&#45;&gt;Node7</title>
<path fill="none" stroke="midnightblue" d="M1342.43,-123.319C1291.78,-102.936 1165.16,-51.978 1107.03,-28.5849"/>
<polygon fill="midnightblue" stroke="midnightblue" points="1108.24,-25.2995 1097.66,-24.813 1105.63,-31.7934 1108.24,-25.2995"/>
</g>
<!-- Node34&#45;&gt;Node21 -->
<g id="edge64" class="edge"><title>Node34&#45;&gt;Node21</title>
<path fill="none" stroke="midnightblue" d="M1380.39,-123.324C1396.67,-114.703 1421.87,-101.364 1440.72,-91.3855"/>
<polygon fill="midnightblue" stroke="midnightblue" points="1442.45,-94.4267 1449.65,-86.6545 1439.18,-88.2402 1442.45,-94.4267"/>
</g>
<!-- Node35&#45;&gt;Node7 -->
<g id="edge67" class="edge"><title>Node35&#45;&gt;Node7</title>
<path fill="none" stroke="midnightblue" d="M539.632,-69.2614C670.935,-56.3694 952.95,-28.6798 1046.29,-19.5148"/>
<polygon fill="midnightblue" stroke="midnightblue" points="1046.86,-22.9758 1056.47,-18.5153 1046.18,-16.0093 1046.86,-22.9758"/>
</g>
<!-- Node35&#45;&gt;Node25 -->
<g id="edge69" class="edge"><title>Node35&#45;&gt;Node25</title>
<path fill="none" stroke="midnightblue" d="M489.912,-67.4751C512.163,-57.4455 549.312,-40.7002 574.926,-29.1546"/>
<polygon fill="midnightblue" stroke="midnightblue" points="576.444,-32.3094 584.123,-25.0091 573.568,-25.9277 576.444,-32.3094"/>
</g>
<!-- Node36 -->
<g id="node36" class="node"><title>Node36</title>
<polygon fill="none" stroke="#bfbfbf" points="391.5,-0.5 391.5,-30.5 526.5,-30.5 526.5,-0.5 391.5,-0.5"/>
<text text-anchor="start" x="399.5" y="-18.5" font-family="Helvetica,sans-Serif" font-size="10.00">Configuration/Configuration</text>
<text text-anchor="middle" x="459" y="-7.5" font-family="Helvetica,sans-Serif" font-size="10.00">Factory.h</text>
</g>
<!-- Node35&#45;&gt;Node36 -->
<g id="edge68" class="edge"><title>Node35&#45;&gt;Node36</title>
<path fill="none" stroke="midnightblue" d="M469.281,-67.4751C467.853,-60.3957 465.75,-49.9705 463.818,-40.3896"/>
<polygon fill="midnightblue" stroke="midnightblue" points="467.236,-39.6336 461.828,-30.523 460.374,-41.0176 467.236,-39.6336"/>
</g>
</g>
</svg>
        <g id="navigator" transform="translate(0 0)" fill="#404254">
                <rect fill="#f2f5e9" fill-opacity="0.5" stroke="#606060" stroke-width=".5" x="0" y="0" width="60" height="60"/>
                <use id="zoomplus" xlink:href="#zoomPlus" x="17" y="9" onmousedown="handleZoom(evt,'in')"/>
                <use id="zoomminus" xlink:href="#zoomMin" x="42" y="9" onmousedown="handleZoom(evt,'out')"/>
                <use id="reset" xlink:href="#resetDef" x="30" y="36" onmousedown="handleReset()"/>
                <g id="arrowUp" xlink:href="#dirArrow" transform="translate(30 24)" onmousedown="handlePan(0,-1)">
                  <use xlink:href="#rim" fill="#404040">
                        <set attributeName="fill" to="#808080" begin="arrowUp.mouseover" end="arrowUp.mouseout"/>
                  </use>
                  <path fill="none" stroke="white" stroke-width="1.5" d="M0,-3.0v7 M-2.5,-0.5L0,-3.0L2.5,-0.5"/>
                </g>
                <g id="arrowRight" xlink:href="#dirArrow" transform="rotate(90) translate(36 -43)" onmousedown="handlePan(1,0)">
                  <use xlink:href="#rim" fill="#404040">
                        <set attributeName="fill" to="#808080" begin="arrowRight.mouseover" end="arrowRight.mouseout"/>
                  </use>
                  <path fill="none" stroke="white" stroke-width="1.5" d="M0,-3.0v7 M-2.5,-0.5L0,-3.0L2.5,-0.5"/>
                </g>
                <g id="arrowDown" xlink:href="#dirArrow" transform="rotate(180) translate(-30 -48)" onmousedown="handlePan(0,1)">
                  <use xlink:href="#rim" fill="#404040">
                        <set attributeName="fill" to="#808080" begin="arrowDown.mouseover" end="arrowDown.mouseout"/>
                  </use>
                  <path fill="none" stroke="white" stroke-width="1.5" d="M0,-3.0v7 M-2.5,-0.5L0,-3.0L2.5,-0.5"/>
                </g>
                <g id="arrowLeft" xlink:href="#dirArrow" transform="rotate(270) translate(-36 17)" onmousedown="handlePan(-1,0)">
                  <use xlink:href="#rim" fill="#404040">
                        <set attributeName="fill" to="#808080" begin="arrowLeft.mouseover" end="arrowLeft.mouseout"/>
                  </use>
                  <path fill="none" stroke="white" stroke-width="1.5" d="M0,-3.0v7 M-2.5,-0.5L0,-3.0L2.5,-0.5"/>
                </g>
        </g>
        <svg viewBox="0 0 15 15" width="100%" height="30px" preserveAspectRatio="xMaxYMin meet">
         <g id="arrow_out" transform="scale(0.3 0.3)">
          <a xlink:href="testCheckWorkflow_8cxx__incl_org.svg" target="_base">
           <rect id="button" ry="5" rx="5" y="6" x="6" height="38" width="38"
                fill="#f2f5e9" fill-opacity="0.5" stroke="#606060" stroke-width="1.0"/>
           <path id="arrow"
             d="M 11.500037,31.436501 C 11.940474,20.09759 22.043105,11.32322 32.158766,21.979434 L 37.068811,17.246167 C 37.068811,17.246167 37.088388,32 37.088388,32 L 22.160133,31.978069 C 22.160133,31.978069 26.997745,27.140456 26.997745,27.140456 C 18.528582,18.264221 13.291696,25.230495 11.500037,31.436501 z"
             style="fill:#404040;"/>
          </a>
         </g>
        </svg>
</svg>
