<?xml version="1.0" encoding="UTF-8" standalone="no"?>
<!DOCTYPE svg PUBLIC "-//W3C//DTD SVG 1.1//EN"
 "http://www.w3.org/Graphics/SVG/1.1/DTD/svg11.dtd">
<!-- Generated by graphviz version 2.38.0 (20140413.2041)
 -->
<!-- Title: Modules/Example/test/testQcExample.cxx Pages: 1 -->
<svg width="1017pt" height="330pt"
 viewBox="0.00 0.00 1016.50 330.00" xmlns="http://www.w3.org/2000/svg" xmlns:xlink="http://www.w3.org/1999/xlink">
<g id="graph0" class="graph" transform="scale(1 1) rotate(0) translate(4 326)">
<title>Modules/Example/test/testQcExample.cxx</title>
<!-- Node1 -->
<g id="node1" class="node"><title>Node1</title>
<polygon fill="#bfbfbf" stroke="black" points="303,-291.5 303,-321.5 417,-321.5 417,-291.5 303,-291.5"/>
<text text-anchor="start" x="311" y="-309.5" font-family="Helvetica,sans-Serif" font-size="10.00">Modules/Example/test</text>
<text text-anchor="middle" x="360" y="-298.5" font-family="Helvetica,sans-Serif" font-size="10.00">/testQcExample.cxx</text>
</g>
<!-- Node2 -->
<g id="node2" class="node"><title>Node2</title>
<g id="a_node2"><a xlink:href="ExampleTask_8h.html" target="_top" xlink:title="../include/Example\l/ExampleTask.h">
<polygon fill="none" stroke="black" points="211,-224.5 211,-254.5 309,-254.5 309,-224.5 211,-224.5"/>
<text text-anchor="start" x="219" y="-242.5" font-family="Helvetica,sans-Serif" font-size="10.00">../include/Example</text>
<text text-anchor="middle" x="260" y="-231.5" font-family="Helvetica,sans-Serif" font-size="10.00">/ExampleTask.h</text>
</a>
</g>
</g>
<!-- Node1&#45;&gt;Node2 -->
<g id="edge1" class="edge"><title>Node1&#45;&gt;Node2</title>
<path fill="none" stroke="midnightblue" d="M338.301,-291.396C324.28,-282.282 305.831,-270.29 290.363,-260.236"/>
<polygon fill="midnightblue" stroke="midnightblue" points="291.948,-257.092 281.656,-254.577 288.133,-262.961 291.948,-257.092"/>
</g>
<!-- Node18 -->
<g id="node18" class="node"><title>Node18</title>
<g id="a_node18"><a xlink:href="TaskFactory_8h.html" target="_top" xlink:title="QualityControl/TaskFactory.h">
<polygon fill="none" stroke="black" points="10.5,-230 10.5,-249 155.5,-249 155.5,-230 10.5,-230"/>
<text text-anchor="middle" x="83" y="-237" font-family="Helvetica,sans-Serif" font-size="10.00">QualityControl/TaskFactory.h</text>
</a>
</g>
</g>
<!-- Node1&#45;&gt;Node18 -->
<g id="edge25" class="edge"><title>Node1&#45;&gt;Node18</title>
<path fill="none" stroke="midnightblue" d="M302.941,-292.111C251.487,-280.037 176.773,-262.504 129.036,-251.303"/>
<polygon fill="midnightblue" stroke="midnightblue" points="129.813,-247.89 119.277,-249.013 128.213,-254.705 129.813,-247.89"/>
</g>
<!-- Node19 -->
<g id="node19" class="node"><title>Node19</title>
<polygon fill="none" stroke="#bfbfbf" points="327.5,-230 327.5,-249 392.5,-249 392.5,-230 327.5,-230"/>
<text text-anchor="middle" x="360" y="-237" font-family="Helvetica,sans-Serif" font-size="10.00">TSystem.h</text>
</g>
<!-- Node1&#45;&gt;Node19 -->
<g id="edge29" class="edge"><title>Node1&#45;&gt;Node19</title>
<path fill="none" stroke="midnightblue" d="M360,-291.396C360,-282.064 360,-269.714 360,-259.517"/>
<polygon fill="midnightblue" stroke="midnightblue" points="363.5,-259.195 360,-249.195 356.5,-259.195 363.5,-259.195"/>
</g>
<!-- Node20 -->
<g id="node20" class="node"><title>Node20</title>
<polygon fill="none" stroke="#bfbfbf" points="410.5,-230 410.5,-249 529.5,-249 529.5,-230 410.5,-230"/>
<text text-anchor="middle" x="470" y="-237" font-family="Helvetica,sans-Serif" font-size="10.00">boost/test/unit_test.hpp</text>
</g>
<!-- Node1&#45;&gt;Node20 -->
<g id="edge30" class="edge"><title>Node1&#45;&gt;Node20</title>
<path fill="none" stroke="midnightblue" d="M383.868,-291.396C402.571,-280.344 428.436,-265.061 446.931,-254.132"/>
<polygon fill="midnightblue" stroke="midnightblue" points="448.775,-257.108 455.604,-249.007 445.214,-251.081 448.775,-257.108"/>
</g>
<!-- Node21 -->
<g id="node21" class="node"><title>Node21</title>
<polygon fill="none" stroke="#bfbfbf" points="548,-230 548,-249 592,-249 592,-230 548,-230"/>
<text text-anchor="middle" x="570" y="-237" font-family="Helvetica,sans-Serif" font-size="10.00">TH1.h</text>
</g>
<!-- Node1&#45;&gt;Node21 -->
<g id="edge31" class="edge"><title>Node1&#45;&gt;Node21</title>
<path fill="none" stroke="midnightblue" d="M417.206,-291.589C452.451,-282.45 498.334,-269.522 538,-255 539.614,-254.409 541.261,-253.772 542.914,-253.107"/>
<polygon fill="midnightblue" stroke="midnightblue" points="544.441,-256.261 552.255,-249.107 541.685,-249.826 544.441,-256.261"/>
</g>
<!-- Node3 -->
<g id="node3" class="node"><title>Node3</title>
<g id="a_node3"><a xlink:href="TaskInterface_8h.html" target="_top" xlink:title="QualityControl/TaskInterface.h">
<polygon fill="none" stroke="black" points="260,-168.5 260,-187.5 410,-187.5 410,-168.5 260,-168.5"/>
<text text-anchor="middle" x="335" y="-175.5" font-family="Helvetica,sans-Serif" font-size="10.00">QualityControl/TaskInterface.h</text>
</a>
</g>
</g>
<!-- Node2&#45;&gt;Node3 -->
<g id="edge2" class="edge"><title>Node2&#45;&gt;Node3</title>
<path fill="none" stroke="midnightblue" d="M277.774,-224.399C289.346,-215.218 304.423,-203.258 316.196,-193.918"/>
<polygon fill="midnightblue" stroke="midnightblue" points="318.428,-196.615 324.087,-187.658 314.077,-191.131 318.428,-196.615"/>
</g>
<!-- Node4 -->
<g id="node4" class="node"><title>Node4</title>
<polygon fill="none" stroke="#bfbfbf" points="973.5,-0.5 973.5,-19.5 1008.5,-19.5 1008.5,-0.5 973.5,-0.5"/>
<text text-anchor="middle" x="991" y="-7.5" font-family="Helvetica,sans-Serif" font-size="10.00">map</text>
</g>
<!-- Node3&#45;&gt;Node4 -->
<g id="edge3" class="edge"><title>Node3&#45;&gt;Node4</title>
<path fill="none" stroke="midnightblue" d="M410.324,-173.849C500.047,-169.086 654.122,-157.71 784,-132 869.106,-115.153 909.422,-137.116 971,-76 983.167,-63.9245 987.966,-44.6389 989.841,-30.2056"/>
<polygon fill="midnightblue" stroke="midnightblue" points="993.358,-30.183 990.803,-19.901 986.389,-29.5325 993.358,-30.183"/>
</g>
<!-- Node5 -->
<g id="node5" class="node"><title>Node5</title>
<polygon fill="none" stroke="#bfbfbf" points="0,-56.5 0,-75.5 52,-75.5 52,-56.5 0,-56.5"/>
<text text-anchor="middle" x="26" y="-63.5" font-family="Helvetica,sans-Serif" font-size="10.00">memory</text>
</g>
<!-- Node3&#45;&gt;Node5 -->
<g id="edge4" class="edge"><title>Node3&#45;&gt;Node5</title>
<path fill="none" stroke="midnightblue" d="M259.966,-175.352C208.827,-171.438 141.038,-160.605 88,-132 66.8576,-120.597 48.7118,-99.3847 37.6107,-84.2952"/>
<polygon fill="midnightblue" stroke="midnightblue" points="40.2678,-81.9899 31.6452,-75.8335 34.5467,-86.0233 40.2678,-81.9899"/>
</g>
<!-- Node6 -->
<g id="node6" class="node"><title>Node6</title>
<polygon fill="none" stroke="#bfbfbf" points="628.5,-0.5 628.5,-19.5 669.5,-19.5 669.5,-0.5 628.5,-0.5"/>
<text text-anchor="middle" x="649" y="-7.5" font-family="Helvetica,sans-Serif" font-size="10.00">string</text>
</g>
<!-- Node3&#45;&gt;Node6 -->
<g id="edge5" class="edge"><title>Node3&#45;&gt;Node6</title>
<path fill="none" stroke="midnightblue" d="M410.168,-174.462C526.659,-169.745 739.878,-157.68 763,-132 785.601,-106.898 782,-83.9272 763,-56 758.032,-48.6978 711.556,-31.9391 679.503,-21.0616"/>
<polygon fill="midnightblue" stroke="midnightblue" points="680.268,-17.6263 669.674,-17.7561 678.037,-24.2611 680.268,-17.6263"/>
</g>
<!-- Node7 -->
<g id="node7" class="node"><title>Node7</title>
<polygon fill="none" stroke="#bfbfbf" points="262.5,-0.5 262.5,-19.5 345.5,-19.5 345.5,-0.5 262.5,-0.5"/>
<text text-anchor="middle" x="304" y="-7.5" font-family="Helvetica,sans-Serif" font-size="10.00">unordered_map</text>
</g>
<!-- Node3&#45;&gt;Node7 -->
<g id="edge6" class="edge"><title>Node3&#45;&gt;Node7</title>
<path fill="none" stroke="midnightblue" d="M259.815,-171.103C205.384,-165.09 138.435,-153.482 121,-132 77.3953,-78.2725 187.843,-39.8636 255.652,-22.0896"/>
<polygon fill="midnightblue" stroke="midnightblue" points="256.908,-25.3812 265.732,-19.5161 255.177,-18.5988 256.908,-25.3812"/>
</g>
<!-- Node8 -->
<g id="node8" class="node"><title>Node8</title>
<polygon fill="none" stroke="#bfbfbf" points="130.5,-112.5 130.5,-131.5 255.5,-131.5 255.5,-112.5 130.5,-112.5"/>
<text text-anchor="middle" x="193" y="-119.5" font-family="Helvetica,sans-Serif" font-size="10.00">Framework/InitContext.h</text>
</g>
<!-- Node3&#45;&gt;Node8 -->
<g id="edge7" class="edge"><title>Node3&#45;&gt;Node8</title>
<path fill="none" stroke="midnightblue" d="M312.5,-168.444C288.923,-159.478 251.678,-145.314 225.036,-135.183"/>
<polygon fill="midnightblue" stroke="midnightblue" points="225.986,-131.8 215.395,-131.516 223.498,-138.342 225.986,-131.8"/>
</g>
<!-- Node9 -->
<g id="node9" class="node"><title>Node9</title>
<polygon fill="none" stroke="#bfbfbf" points="274,-112.5 274,-131.5 434,-131.5 434,-112.5 274,-112.5"/>
<text text-anchor="middle" x="354" y="-119.5" font-family="Helvetica,sans-Serif" font-size="10.00">Framework/ProcessingContext.h</text>
</g>
<!-- Node3&#45;&gt;Node9 -->
<g id="edge8" class="edge"><title>Node3&#45;&gt;Node9</title>
<path fill="none" stroke="midnightblue" d="M338.137,-168.083C340.683,-160.849 344.356,-150.409 347.527,-141.397"/>
<polygon fill="midnightblue" stroke="midnightblue" points="350.903,-142.346 350.921,-131.751 344.3,-140.023 350.903,-142.346"/>
</g>
<!-- Node10 -->
<g id="node10" class="node"><title>Node10</title>
<g id="a_node10"><a xlink:href="Activity_8h.html" target="_top" xlink:title="QualityControl/Activity.h">
<polygon fill="none" stroke="black" points="452.5,-112.5 452.5,-131.5 575.5,-131.5 575.5,-112.5 452.5,-112.5"/>
<text text-anchor="middle" x="514" y="-119.5" font-family="Helvetica,sans-Serif" font-size="10.00">QualityControl/Activity.h</text>
</a>
</g>
</g>
<!-- Node3&#45;&gt;Node10 -->
<g id="edge9" class="edge"><title>Node3&#45;&gt;Node10</title>
<path fill="none" stroke="midnightblue" d="M363.363,-168.444C393.738,-159.28 442.11,-144.688 475.816,-134.519"/>
<polygon fill="midnightblue" stroke="midnightblue" points="477.207,-137.756 485.77,-131.516 475.185,-131.054 477.207,-137.756"/>
</g>
<!-- Node11 -->
<g id="node11" class="node"><title>Node11</title>
<g id="a_node11"><a xlink:href="ObjectsManager_8h.html" target="_top" xlink:title="QualityControl/ObjectsManager.h">
<polygon fill="none" stroke="black" points="593.5,-112.5 593.5,-131.5 754.5,-131.5 754.5,-112.5 593.5,-112.5"/>
<text text-anchor="middle" x="674" y="-119.5" font-family="Helvetica,sans-Serif" font-size="10.00">QualityControl/ObjectsManager.h</text>
</a>
</g>
</g>
<!-- Node3&#45;&gt;Node11 -->
<g id="edge10" class="edge"><title>Node3&#45;&gt;Node11</title>
<path fill="none" stroke="midnightblue" d="M388.716,-168.444C448.969,-158.846 546.614,-143.292 610.571,-133.104"/>
<polygon fill="midnightblue" stroke="midnightblue" points="611.211,-136.546 620.536,-131.516 610.11,-129.633 611.211,-136.546"/>
</g>
<!-- Node11&#45;&gt;Node5 -->
<g id="edge24" class="edge"><title>Node11&#45;&gt;Node5</title>
<path fill="none" stroke="midnightblue" d="M593.054,-112.831C589.998,-112.546 586.971,-112.268 584,-112 387.274,-94.2329 151.215,-76.3139 62.2678,-69.6824"/>
<polygon fill="midnightblue" stroke="midnightblue" points="62.3946,-66.1823 52.1624,-68.9304 61.8751,-73.163 62.3946,-66.1823"/>
</g>
<!-- Node11&#45;&gt;Node6 -->
<g id="edge23" class="edge"><title>Node11&#45;&gt;Node6</title>
<path fill="none" stroke="midnightblue" d="M659.048,-112.474C647.068,-104.702 631.127,-92.0025 624,-76 616.806,-59.847 625.991,-40.9359 635.189,-27.69"/>
<polygon fill="midnightblue" stroke="midnightblue" points="638.12,-29.6165 641.357,-19.5283 632.535,-25.3958 638.12,-29.6165"/>
</g>
<!-- Node12 -->
<g id="node12" class="node"><title>Node12</title>
<g id="a_node12"><a xlink:href="MonitorObject_8h.html" target="_top" xlink:title="QualityControl/MonitorObject.h">
<polygon fill="none" stroke="black" points="811.5,-56.5 811.5,-75.5 962.5,-75.5 962.5,-56.5 811.5,-56.5"/>
<text text-anchor="middle" x="887" y="-63.5" font-family="Helvetica,sans-Serif" font-size="10.00">QualityControl/MonitorObject.h</text>
</a>
</g>
</g>
<!-- Node11&#45;&gt;Node12 -->
<g id="edge11" class="edge"><title>Node11&#45;&gt;Node12</title>
<path fill="none" stroke="midnightblue" d="M707.75,-112.444C744.518,-103.122 803.446,-88.1828 843.622,-77.9972"/>
<polygon fill="midnightblue" stroke="midnightblue" points="844.574,-81.3666 853.407,-75.5164 842.854,-74.5813 844.574,-81.3666"/>
</g>
<!-- Node16 -->
<g id="node16" class="node"><title>Node16</title>
<g id="a_node16"><a xlink:href="Quality_8h.html" target="_top" xlink:title="QualityControl/Quality.h">
<polygon fill="none" stroke="black" points="633.5,-56.5 633.5,-75.5 754.5,-75.5 754.5,-56.5 633.5,-56.5"/>
<text text-anchor="middle" x="694" y="-63.5" font-family="Helvetica,sans-Serif" font-size="10.00">QualityControl/Quality.h</text>
</a>
</g>
</g>
<!-- Node11&#45;&gt;Node16 -->
<g id="edge17" class="edge"><title>Node11&#45;&gt;Node16</title>
<path fill="none" stroke="midnightblue" d="M677.303,-112.083C679.982,-104.849 683.849,-94.4087 687.186,-85.3968"/>
<polygon fill="midnightblue" stroke="midnightblue" points="690.568,-86.3442 690.759,-75.7511 684.004,-83.9129 690.568,-86.3442"/>
</g>
<!-- Node17 -->
<g id="node17" class="node"><title>Node17</title>
<g id="a_node17"><a xlink:href="TaskConfig_8h.html" target="_top" xlink:title="QualityControl/TaskConfig.h">
<polygon fill="none" stroke="black" points="336,-56.5 336,-75.5 476,-75.5 476,-56.5 336,-56.5"/>
<text text-anchor="middle" x="406" y="-63.5" font-family="Helvetica,sans-Serif" font-size="10.00">QualityControl/TaskConfig.h</text>
</a>
</g>
</g>
<!-- Node11&#45;&gt;Node17 -->
<g id="edge20" class="edge"><title>Node11&#45;&gt;Node17</title>
<path fill="none" stroke="midnightblue" d="M631.535,-112.444C584.587,-102.984 508.924,-87.7384 458.346,-77.5472"/>
<polygon fill="midnightblue" stroke="midnightblue" points="458.761,-74.0607 448.267,-75.5164 457.378,-80.9228 458.761,-74.0607"/>
</g>
<!-- Node12&#45;&gt;Node4 -->
<g id="edge13" class="edge"><title>Node12&#45;&gt;Node4</title>
<path fill="none" stroke="midnightblue" d="M903.709,-56.324C920.312,-47.7034 946.002,-34.3643 965.22,-24.3855"/>
<polygon fill="midnightblue" stroke="midnightblue" points="967.07,-27.3689 974.332,-19.6545 963.844,-21.1565 967.07,-27.3689"/>
</g>
<!-- Node12&#45;&gt;Node6 -->
<g id="edge12" class="edge"><title>Node12&#45;&gt;Node6</title>
<path fill="none" stroke="midnightblue" d="M842.536,-56.4309C802.406,-48.4623 741.561,-35.8 679.556,-19.9771"/>
<polygon fill="midnightblue" stroke="midnightblue" points="680.154,-16.5171 669.597,-17.4107 678.407,-23.2956 680.154,-16.5171"/>
</g>
<!-- Node13 -->
<g id="node13" class="node"><title>Node13</title>
<polygon fill="none" stroke="#bfbfbf" points="688,-0.5 688,-19.5 744,-19.5 744,-0.5 688,-0.5"/>
<text text-anchor="middle" x="716" y="-7.5" font-family="Helvetica,sans-Serif" font-size="10.00">Rtypes.h</text>
</g>
<!-- Node12&#45;&gt;Node13 -->
<g id="edge14" class="edge"><title>Node12&#45;&gt;Node13</title>
<path fill="none" stroke="midnightblue" d="M859.905,-56.4435C831.012,-47.3196 785.075,-32.8133 752.895,-22.6509"/>
<polygon fill="midnightblue" stroke="midnightblue" points="753.559,-19.1903 742.969,-19.5164 751.451,-25.8654 753.559,-19.1903"/>
</g>
<!-- Node14 -->
<g id="node14" class="node"><title>Node14</title>
<polygon fill="none" stroke="#bfbfbf" points="896.5,-0.5 896.5,-19.5 955.5,-19.5 955.5,-0.5 896.5,-0.5"/>
<text text-anchor="middle" x="926" y="-7.5" font-family="Helvetica,sans-Serif" font-size="10.00">TObject.h</text>
</g>
<!-- Node12&#45;&gt;Node14 -->
<g id="edge15" class="edge"><title>Node12&#45;&gt;Node14</title>
<path fill="none" stroke="midnightblue" d="M893.44,-56.083C898.949,-48.4554 907.031,-37.2645 913.765,-27.9408"/>
<polygon fill="midnightblue" stroke="midnightblue" points="916.662,-29.9071 919.68,-19.7511 910.987,-25.8087 916.662,-29.9071"/>
</g>
<!-- Node15 -->
<g id="node15" class="node"><title>Node15</title>
<polygon fill="none" stroke="#bfbfbf" points="762,-0.5 762,-19.5 878,-19.5 878,-0.5 762,-0.5"/>
<text text-anchor="middle" x="820" y="-7.5" font-family="Helvetica,sans-Serif" font-size="10.00">Common/Exceptions.h</text>
</g>
<!-- Node12&#45;&gt;Node15 -->
<g id="edge16" class="edge"><title>Node12&#45;&gt;Node15</title>
<path fill="none" stroke="midnightblue" d="M876.235,-56.324C866.234,-48.2631 851.113,-36.0765 839.07,-26.3695"/>
<polygon fill="midnightblue" stroke="midnightblue" points="840.943,-23.3841 830.961,-19.8339 836.55,-28.8343 840.943,-23.3841"/>
</g>
<!-- Node16&#45;&gt;Node6 -->
<g id="edge19" class="edge"><title>Node16&#45;&gt;Node6</title>
<path fill="none" stroke="midnightblue" d="M686.569,-56.083C680.147,-48.3768 670.694,-37.0333 662.878,-27.6531"/>
<polygon fill="midnightblue" stroke="midnightblue" points="665.383,-25.1927 656.293,-19.7511 660.006,-29.674 665.383,-25.1927"/>
</g>
<!-- Node16&#45;&gt;Node13 -->
<g id="edge18" class="edge"><title>Node16&#45;&gt;Node13</title>
<path fill="none" stroke="midnightblue" d="M697.633,-56.083C700.612,-48.77 704.926,-38.1814 708.625,-29.1034"/>
<polygon fill="midnightblue" stroke="midnightblue" points="711.903,-30.3326 712.435,-19.7511 705.42,-27.6914 711.903,-30.3326"/>
</g>
<!-- Node17&#45;&gt;Node6 -->
<g id="edge21" class="edge"><title>Node17&#45;&gt;Node6</title>
<path fill="none" stroke="midnightblue" d="M444.504,-56.4435C492.699,-45.7335 574.268,-27.6072 618.417,-17.7961"/>
<polygon fill="midnightblue" stroke="midnightblue" points="619.275,-21.191 628.278,-15.6049 617.757,-14.3576 619.275,-21.191"/>
</g>
<!-- Node17&#45;&gt;Node7 -->
<g id="edge22" class="edge"><title>Node17&#45;&gt;Node7</title>
<path fill="none" stroke="midnightblue" d="M389.612,-56.324C373.329,-47.7034 348.133,-34.3643 329.284,-24.3855"/>
<polygon fill="midnightblue" stroke="midnightblue" points="330.823,-21.2402 320.347,-19.6545 327.548,-27.4267 330.823,-21.2402"/>
</g>
<!-- Node18&#45;&gt;Node3 -->
<g id="edge28" class="edge"><title>Node18&#45;&gt;Node3</title>
<path fill="none" stroke="midnightblue" d="M119.105,-229.975C163.829,-219.415 240.083,-201.411 288.967,-189.869"/>
<polygon fill="midnightblue" stroke="midnightblue" points="290.033,-193.213 298.962,-187.509 288.425,-186.401 290.033,-193.213"/>
</g>
<!-- Node18&#45;&gt;Node5 -->
<g id="edge26" class="edge"><title>Node18&#45;&gt;Node5</title>
<path fill="none" stroke="midnightblue" d="M75.7909,-229.783C68.206,-220.156 56.4874,-203.904 50,-188 35.8945,-153.42 29.8696,-109.805 27.4617,-85.5101"/>
<polygon fill="midnightblue" stroke="midnightblue" points="30.9465,-85.183 26.5721,-75.5334 23.9742,-85.8047 30.9465,-85.183"/>
</g>
<!-- Node18&#45;&gt;Node17 -->
<g id="edge27" class="edge"><title>Node18&#45;&gt;Node17</title>
<path fill="none" stroke="midnightblue" d="M82.7137,-229.802C82.467,-206.66 85.2443,-143.221 121,-112 150.776,-86.0007 252.162,-74.9552 325.544,-70.3072"/>
<polygon fill="midnightblue" stroke="midnightblue" points="325.931,-73.7902 335.702,-69.6929 325.509,-66.803 325.931,-73.7902"/>
</g>
</g>
</svg>
