<?xml version="1.0" encoding="UTF-8" standalone="no"?>
<!DOCTYPE svg PUBLIC "-//W3C//DTD SVG 1.1//EN"
 "http://www.w3.org/Graphics/SVG/1.1/DTD/svg11.dtd">
<!-- Generated by graphviz version 2.38.0 (20140413.2041)
 -->
<!-- Title: Modules/TOF/src/TOFTask.cxx Pages: 1 -->
<svg width="1317pt" height="308pt"
 viewBox="0.00 0.00 1316.50 308.00" xmlns="http://www.w3.org/2000/svg" xmlns:xlink="http://www.w3.org/1999/xlink">
<g id="graph0" class="graph" transform="scale(1 1) rotate(0) translate(4 304)">
<title>Modules/TOF/src/TOFTask.cxx</title>
<!-- Node1 -->
<g id="node1" class="node"><title>Node1</title>
<polygon fill="#bfbfbf" stroke="black" points="194,-280.5 194,-299.5 349,-299.5 349,-280.5 194,-280.5"/>
<text text-anchor="middle" x="271.5" y="-287.5" font-family="Helvetica,sans-Serif" font-size="10.00">Modules/TOF/src/TOFTask.cxx</text>
</g>
<!-- Node2 -->
<g id="node2" class="node"><title>Node2</title>
<polygon fill="none" stroke="#bfbfbf" points="0,-224.5 0,-243.5 65,-243.5 65,-224.5 0,-224.5"/>
<text text-anchor="middle" x="32.5" y="-231.5" font-family="Helvetica,sans-Serif" font-size="10.00">TCanvas.h</text>
</g>
<!-- Node1&#45;&gt;Node2 -->
<g id="edge1" class="edge"><title>Node1&#45;&gt;Node2</title>
<path fill="none" stroke="midnightblue" d="M233.63,-280.444C190.433,-270.684 119.978,-254.765 74.9564,-244.593"/>
<polygon fill="midnightblue" stroke="midnightblue" points="75.7261,-241.178 65.2006,-242.388 74.1833,-248.006 75.7261,-241.178"/>
</g>
<!-- Node3 -->
<g id="node3" class="node"><title>Node3</title>
<polygon fill="none" stroke="#bfbfbf" points="83.5,-224.5 83.5,-243.5 127.5,-243.5 127.5,-224.5 83.5,-224.5"/>
<text text-anchor="middle" x="105.5" y="-231.5" font-family="Helvetica,sans-Serif" font-size="10.00">TH1.h</text>
</g>
<!-- Node1&#45;&gt;Node3 -->
<g id="edge2" class="edge"><title>Node1&#45;&gt;Node3</title>
<path fill="none" stroke="midnightblue" d="M245.197,-280.444C215.912,-270.917 168.589,-255.523 137.262,-245.332"/>
<polygon fill="midnightblue" stroke="midnightblue" points="138.288,-241.986 127.696,-242.22 136.123,-248.642 138.288,-241.986"/>
</g>
<!-- Node4 -->
<g id="node4" class="node"><title>Node4</title>
<polygon fill="none" stroke="#bfbfbf" points="145.5,-224.5 145.5,-243.5 195.5,-243.5 195.5,-224.5 145.5,-224.5"/>
<text text-anchor="middle" x="170.5" y="-231.5" font-family="Helvetica,sans-Serif" font-size="10.00">TH1F.h</text>
</g>
<!-- Node1&#45;&gt;Node4 -->
<g id="edge3" class="edge"><title>Node1&#45;&gt;Node4</title>
<path fill="none" stroke="midnightblue" d="M255.273,-280.324C239.149,-271.703 214.2,-258.364 195.536,-248.386"/>
<polygon fill="midnightblue" stroke="midnightblue" points="197.156,-245.283 186.687,-243.655 193.856,-251.456 197.156,-245.283"/>
</g>
<!-- Node5 -->
<g id="node5" class="node"><title>Node5</title>
<polygon fill="none" stroke="#bfbfbf" points="213.5,-224.5 213.5,-243.5 263.5,-243.5 263.5,-224.5 213.5,-224.5"/>
<text text-anchor="middle" x="238.5" y="-231.5" font-family="Helvetica,sans-Serif" font-size="10.00">TH2F.h</text>
</g>
<!-- Node1&#45;&gt;Node5 -->
<g id="edge4" class="edge"><title>Node1&#45;&gt;Node5</title>
<path fill="none" stroke="midnightblue" d="M266.051,-280.083C261.486,-272.613 254.832,-261.724 249.207,-252.52"/>
<polygon fill="midnightblue" stroke="midnightblue" points="252.049,-250.459 243.848,-243.751 246.076,-254.109 252.049,-250.459"/>
</g>
<!-- Node6 -->
<g id="node6" class="node"><title>Node6</title>
<polygon fill="none" stroke="#bfbfbf" points="282,-224.5 282,-243.5 329,-243.5 329,-224.5 282,-224.5"/>
<text text-anchor="middle" x="305.5" y="-231.5" font-family="Helvetica,sans-Serif" font-size="10.00">TH1I.h</text>
</g>
<!-- Node1&#45;&gt;Node6 -->
<g id="edge5" class="edge"><title>Node1&#45;&gt;Node6</title>
<path fill="none" stroke="midnightblue" d="M277.114,-280.083C281.867,-272.534 288.818,-261.495 294.652,-252.23"/>
<polygon fill="midnightblue" stroke="midnightblue" points="297.624,-254.078 299.99,-243.751 291.7,-250.349 297.624,-254.078"/>
</g>
<!-- Node7 -->
<g id="node7" class="node"><title>Node7</title>
<polygon fill="none" stroke="#bfbfbf" points="347,-224.5 347,-243.5 394,-243.5 394,-224.5 347,-224.5"/>
<text text-anchor="middle" x="370.5" y="-231.5" font-family="Helvetica,sans-Serif" font-size="10.00">TH2I.h</text>
</g>
<!-- Node1&#45;&gt;Node7 -->
<g id="edge6" class="edge"><title>Node1&#45;&gt;Node7</title>
<path fill="none" stroke="midnightblue" d="M287.406,-280.324C303.138,-271.743 327.442,-258.486 345.709,-248.522"/>
<polygon fill="midnightblue" stroke="midnightblue" points="347.53,-251.516 354.633,-243.655 344.178,-245.37 347.53,-251.516"/>
</g>
<!-- Node8 -->
<g id="node8" class="node"><title>Node8</title>
<g id="a_node8"><a xlink:href="QcInfoLogger_8h.html" target="_top" xlink:title="QualityControl/QcInfoLogger.h">
<polygon fill="none" stroke="black" points="412,-224.5 412,-243.5 561,-243.5 561,-224.5 412,-224.5"/>
<text text-anchor="middle" x="486.5" y="-231.5" font-family="Helvetica,sans-Serif" font-size="10.00">QualityControl/QcInfoLogger.h</text>
</a>
</g>
</g>
<!-- Node1&#45;&gt;Node8 -->
<g id="edge7" class="edge"><title>Node1&#45;&gt;Node8</title>
<path fill="none" stroke="midnightblue" d="M305.567,-280.444C342.68,-271.122 402.161,-256.183 442.715,-245.997"/>
<polygon fill="midnightblue" stroke="midnightblue" points="443.746,-249.347 452.592,-243.516 442.041,-242.558 443.746,-249.347"/>
</g>
<!-- Node10 -->
<g id="node10" class="node"><title>Node10</title>
<g id="a_node10"><a xlink:href="TOFTask_8h.html" target="_top" xlink:title="TOF/TOFTask.h">
<polygon fill="none" stroke="black" points="584,-224.5 584,-243.5 673,-243.5 673,-224.5 584,-224.5"/>
<text text-anchor="middle" x="628.5" y="-231.5" font-family="Helvetica,sans-Serif" font-size="10.00">TOF/TOFTask.h</text>
</a>
</g>
</g>
<!-- Node1&#45;&gt;Node10 -->
<g id="edge9" class="edge"><title>Node1&#45;&gt;Node10</title>
<path fill="none" stroke="midnightblue" d="M328.078,-280.482C388.023,-271.451 485.438,-256.758 569.5,-244 570.797,-243.803 572.109,-243.604 573.433,-243.403"/>
<polygon fill="midnightblue" stroke="midnightblue" points="574.363,-246.802 583.723,-241.838 573.311,-239.881 574.363,-246.802"/>
</g>
<!-- Node9 -->
<g id="node9" class="node"><title>Node9</title>
<polygon fill="none" stroke="#bfbfbf" points="415.5,-168.5 415.5,-187.5 545.5,-187.5 545.5,-168.5 415.5,-168.5"/>
<text text-anchor="middle" x="480.5" y="-175.5" font-family="Helvetica,sans-Serif" font-size="10.00">InfoLogger/InfoLogger.hxx</text>
</g>
<!-- Node8&#45;&gt;Node9 -->
<g id="edge8" class="edge"><title>Node8&#45;&gt;Node9</title>
<path fill="none" stroke="midnightblue" d="M485.509,-224.083C484.714,-216.927 483.571,-206.635 482.577,-197.691"/>
<polygon fill="midnightblue" stroke="midnightblue" points="486.055,-197.303 481.472,-187.751 479.098,-198.076 486.055,-197.303"/>
</g>
<!-- Node11 -->
<g id="node11" class="node"><title>Node11</title>
<g id="a_node11"><a xlink:href="TaskInterface_8h.html" target="_top" xlink:title="QualityControl/TaskInterface.h">
<polygon fill="none" stroke="black" points="563.5,-168.5 563.5,-187.5 713.5,-187.5 713.5,-168.5 563.5,-168.5"/>
<text text-anchor="middle" x="638.5" y="-175.5" font-family="Helvetica,sans-Serif" font-size="10.00">QualityControl/TaskInterface.h</text>
</a>
</g>
</g>
<!-- Node10&#45;&gt;Node11 -->
<g id="edge10" class="edge"><title>Node10&#45;&gt;Node11</title>
<path fill="none" stroke="midnightblue" d="M630.151,-224.083C631.476,-216.927 633.382,-206.635 635.039,-197.691"/>
<polygon fill="midnightblue" stroke="midnightblue" points="638.5,-198.221 636.879,-187.751 631.617,-196.947 638.5,-198.221"/>
</g>
<!-- Node12 -->
<g id="node12" class="node"><title>Node12</title>
<polygon fill="none" stroke="#bfbfbf" points="771,-0.5 771,-19.5 806,-19.5 806,-0.5 771,-0.5"/>
<text text-anchor="middle" x="788.5" y="-7.5" font-family="Helvetica,sans-Serif" font-size="10.00">map</text>
</g>
<!-- Node11&#45;&gt;Node12 -->
<g id="edge11" class="edge"><title>Node11&#45;&gt;Node12</title>
<path fill="none" stroke="midnightblue" d="M595.433,-168.486C575.104,-162.074 552.677,-150.991 540.5,-132 522.268,-103.565 518.852,-81.9291 540.5,-56 568.353,-22.6382 702.293,-13.9562 760.92,-11.7405"/>
<polygon fill="midnightblue" stroke="midnightblue" points="761.073,-15.2374 770.948,-11.3975 760.834,-8.24147 761.073,-15.2374"/>
</g>
<!-- Node13 -->
<g id="node13" class="node"><title>Node13</title>
<polygon fill="none" stroke="#bfbfbf" points="633.5,-56.5 633.5,-75.5 685.5,-75.5 685.5,-56.5 633.5,-56.5"/>
<text text-anchor="middle" x="659.5" y="-63.5" font-family="Helvetica,sans-Serif" font-size="10.00">memory</text>
</g>
<!-- Node11&#45;&gt;Node13 -->
<g id="edge12" class="edge"><title>Node11&#45;&gt;Node13</title>
<path fill="none" stroke="midnightblue" d="M630.364,-168.116C619.893,-155.549 604.004,-131.896 612.5,-112 617.647,-99.9469 627.781,-89.5764 637.326,-81.8389"/>
<polygon fill="midnightblue" stroke="midnightblue" points="639.54,-84.5532 645.422,-75.7409 635.328,-78.9619 639.54,-84.5532"/>
</g>
<!-- Node14 -->
<g id="node14" class="node"><title>Node14</title>
<polygon fill="none" stroke="#bfbfbf" points="901,-0.5 901,-19.5 942,-19.5 942,-0.5 901,-0.5"/>
<text text-anchor="middle" x="921.5" y="-7.5" font-family="Helvetica,sans-Serif" font-size="10.00">string</text>
</g>
<!-- Node11&#45;&gt;Node14 -->
<g id="edge13" class="edge"><title>Node11&#45;&gt;Node14</title>
<path fill="none" stroke="midnightblue" d="M629.48,-168.34C621.428,-159.932 610.202,-146.363 605.5,-132 594.668,-98.9107 597.804,-78.3509 624.5,-56 644.753,-39.0433 818.967,-20.7414 890.766,-13.8438"/>
<polygon fill="midnightblue" stroke="midnightblue" points="891.355,-17.3037 900.979,-12.8734 890.693,-10.3351 891.355,-17.3037"/>
</g>
<!-- Node15 -->
<g id="node15" class="node"><title>Node15</title>
<polygon fill="none" stroke="#bfbfbf" points="515,-0.5 515,-19.5 598,-19.5 598,-0.5 515,-0.5"/>
<text text-anchor="middle" x="556.5" y="-7.5" font-family="Helvetica,sans-Serif" font-size="10.00">unordered_map</text>
</g>
<!-- Node11&#45;&gt;Node15 -->
<g id="edge14" class="edge"><title>Node11&#45;&gt;Node15</title>
<path fill="none" stroke="midnightblue" d="M563.342,-169.312C540.048,-162.981 516.773,-151.756 502.5,-132 482.72,-104.62 488.173,-86.5888 502.5,-56 508.545,-43.0941 520.312,-32.5985 531.323,-24.9999"/>
<polygon fill="midnightblue" stroke="midnightblue" points="533.328,-27.8723 539.867,-19.5364 529.557,-21.9748 533.328,-27.8723"/>
</g>
<!-- Node16 -->
<g id="node16" class="node"><title>Node16</title>
<polygon fill="none" stroke="#bfbfbf" points="621,-112.5 621,-131.5 746,-131.5 746,-112.5 621,-112.5"/>
<text text-anchor="middle" x="683.5" y="-119.5" font-family="Helvetica,sans-Serif" font-size="10.00">Framework/InitContext.h</text>
</g>
<!-- Node11&#45;&gt;Node16 -->
<g id="edge15" class="edge"><title>Node11&#45;&gt;Node16</title>
<path fill="none" stroke="midnightblue" d="M645.931,-168.083C652.353,-160.377 661.806,-149.033 669.622,-139.653"/>
<polygon fill="midnightblue" stroke="midnightblue" points="672.494,-141.674 676.207,-131.751 667.117,-137.193 672.494,-141.674"/>
</g>
<!-- Node17 -->
<g id="node17" class="node"><title>Node17</title>
<polygon fill="none" stroke="#bfbfbf" points="764.5,-112.5 764.5,-131.5 924.5,-131.5 924.5,-112.5 764.5,-112.5"/>
<text text-anchor="middle" x="844.5" y="-119.5" font-family="Helvetica,sans-Serif" font-size="10.00">Framework/ProcessingContext.h</text>
</g>
<!-- Node11&#45;&gt;Node17 -->
<g id="edge16" class="edge"><title>Node11&#45;&gt;Node17</title>
<path fill="none" stroke="midnightblue" d="M671.141,-168.444C706.55,-159.162 763.209,-144.309 802.053,-134.127"/>
<polygon fill="midnightblue" stroke="midnightblue" points="803.226,-137.438 812.011,-131.516 801.451,-130.667 803.226,-137.438"/>
</g>
<!-- Node18 -->
<g id="node18" class="node"><title>Node18</title>
<g id="a_node18"><a xlink:href="Activity_8h.html" target="_top" xlink:title="QualityControl/Activity.h">
<polygon fill="none" stroke="black" points="943,-112.5 943,-131.5 1066,-131.5 1066,-112.5 943,-112.5"/>
<text text-anchor="middle" x="1004.5" y="-119.5" font-family="Helvetica,sans-Serif" font-size="10.00">QualityControl/Activity.h</text>
</a>
</g>
</g>
<!-- Node11&#45;&gt;Node18 -->
<g id="edge17" class="edge"><title>Node11&#45;&gt;Node18</title>
<path fill="none" stroke="midnightblue" d="M696.494,-168.444C761.814,-158.806 867.837,-143.163 936.87,-132.978"/>
<polygon fill="midnightblue" stroke="midnightblue" points="937.396,-136.439 946.778,-131.516 936.374,-129.514 937.396,-136.439"/>
</g>
<!-- Node19 -->
<g id="node19" class="node"><title>Node19</title>
<g id="a_node19"><a xlink:href="ObjectsManager_8h.html" target="_top" xlink:title="QualityControl/ObjectsManager.h">
<polygon fill="none" stroke="black" points="1084,-112.5 1084,-131.5 1245,-131.5 1245,-112.5 1084,-112.5"/>
<text text-anchor="middle" x="1164.5" y="-119.5" font-family="Helvetica,sans-Serif" font-size="10.00">QualityControl/ObjectsManager.h</text>
</a>
</g>
</g>
<!-- Node11&#45;&gt;Node19 -->
<g id="edge18" class="edge"><title>Node11&#45;&gt;Node19</title>
<path fill="none" stroke="midnightblue" d="M713.583,-169.292C808.494,-159.548 971.749,-142.788 1073.61,-132.331"/>
<polygon fill="midnightblue" stroke="midnightblue" points="1073.98,-135.811 1083.57,-131.308 1073.27,-128.848 1073.98,-135.811"/>
</g>
<!-- Node19&#45;&gt;Node13 -->
<g id="edge32" class="edge"><title>Node19&#45;&gt;Node13</title>
<path fill="none" stroke="midnightblue" d="M1084.76,-112.473C973.706,-100.598 776.995,-79.5638 695.952,-70.8979"/>
<polygon fill="midnightblue" stroke="midnightblue" points="696.07,-67.3905 685.754,-69.8074 695.325,-74.3509 696.07,-67.3905"/>
</g>
<!-- Node19&#45;&gt;Node14 -->
<g id="edge31" class="edge"><title>Node19&#45;&gt;Node14</title>
<path fill="none" stroke="midnightblue" d="M1106.81,-112.478C1044.9,-102.844 953.725,-87.0663 941.5,-76 928.526,-64.2556 923.871,-44.3216 922.251,-29.6182"/>
<polygon fill="midnightblue" stroke="midnightblue" points="925.74,-29.3328 921.516,-19.6162 918.759,-29.8458 925.74,-29.3328"/>
</g>
<!-- Node20 -->
<g id="node20" class="node"><title>Node20</title>
<g id="a_node20"><a xlink:href="MonitorObject_8h.html" target="_top" xlink:title="QualityControl/MonitorObject.h">
<polygon fill="none" stroke="black" points="1089,-56.5 1089,-75.5 1240,-75.5 1240,-56.5 1089,-56.5"/>
<text text-anchor="middle" x="1164.5" y="-63.5" font-family="Helvetica,sans-Serif" font-size="10.00">QualityControl/MonitorObject.h</text>
</a>
</g>
</g>
<!-- Node19&#45;&gt;Node20 -->
<g id="edge19" class="edge"><title>Node19&#45;&gt;Node20</title>
<path fill="none" stroke="midnightblue" d="M1164.5,-112.083C1164.5,-105.006 1164.5,-94.8611 1164.5,-85.9865"/>
<polygon fill="midnightblue" stroke="midnightblue" points="1168,-85.751 1164.5,-75.7511 1161,-85.7511 1168,-85.751"/>
</g>
<!-- Node24 -->
<g id="node24" class="node"><title>Node24</title>
<g id="a_node24"><a xlink:href="Quality_8h.html" target="_top" xlink:title="QualityControl/Quality.h">
<polygon fill="none" stroke="black" points="950,-56.5 950,-75.5 1071,-75.5 1071,-56.5 950,-56.5"/>
<text text-anchor="middle" x="1010.5" y="-63.5" font-family="Helvetica,sans-Serif" font-size="10.00">QualityControl/Quality.h</text>
</a>
</g>
</g>
<!-- Node19&#45;&gt;Node24 -->
<g id="edge25" class="edge"><title>Node19&#45;&gt;Node24</title>
<path fill="none" stroke="midnightblue" d="M1140.1,-112.444C1114.3,-103.399 1073.42,-89.064 1044.48,-78.9158"/>
<polygon fill="midnightblue" stroke="midnightblue" points="1045.38,-75.5226 1034.79,-75.5164 1043.07,-82.1283 1045.38,-75.5226"/>
</g>
<!-- Node25 -->
<g id="node25" class="node"><title>Node25</title>
<g id="a_node25"><a xlink:href="TaskConfig_8h.html" target="_top" xlink:title="QualityControl/TaskConfig.h">
<polygon fill="none" stroke="black" points="753.5,-56.5 753.5,-75.5 893.5,-75.5 893.5,-56.5 753.5,-56.5"/>
<text text-anchor="middle" x="823.5" y="-63.5" font-family="Helvetica,sans-Serif" font-size="10.00">QualityControl/TaskConfig.h</text>
</a>
</g>
</g>
<!-- Node19&#45;&gt;Node25 -->
<g id="edge28" class="edge"><title>Node19&#45;&gt;Node25</title>
<path fill="none" stroke="midnightblue" d="M1110.47,-112.444C1049.86,-102.846 951.638,-87.2916 887.303,-77.1037"/>
<polygon fill="midnightblue" stroke="midnightblue" points="887.704,-73.6237 877.28,-75.5164 886.609,-80.5375 887.704,-73.6237"/>
</g>
<!-- Node20&#45;&gt;Node12 -->
<g id="edge21" class="edge"><title>Node20&#45;&gt;Node12</title>
<path fill="none" stroke="midnightblue" d="M1104.92,-56.4435C1022.49,-44.6044 876.948,-23.7026 816.273,-14.9887"/>
<polygon fill="midnightblue" stroke="midnightblue" points="816.69,-11.5127 806.294,-13.5555 815.695,-18.4416 816.69,-11.5127"/>
</g>
<!-- Node20&#45;&gt;Node14 -->
<g id="edge20" class="edge"><title>Node20&#45;&gt;Node14</title>
<path fill="none" stroke="midnightblue" d="M1126,-56.4435C1077.8,-45.7335 996.232,-27.6072 952.083,-17.7961"/>
<polygon fill="midnightblue" stroke="midnightblue" points="952.743,-14.3576 942.222,-15.6049 951.225,-21.191 952.743,-14.3576"/>
</g>
<!-- Node21 -->
<g id="node21" class="node"><title>Node21</title>
<polygon fill="none" stroke="#bfbfbf" points="1001.5,-0.5 1001.5,-19.5 1057.5,-19.5 1057.5,-0.5 1001.5,-0.5"/>
<text text-anchor="middle" x="1029.5" y="-7.5" font-family="Helvetica,sans-Serif" font-size="10.00">Rtypes.h</text>
</g>
<!-- Node20&#45;&gt;Node21 -->
<g id="edge22" class="edge"><title>Node20&#45;&gt;Node21</title>
<path fill="none" stroke="midnightblue" d="M1143.11,-56.4435C1120.79,-47.5171 1085.6,-33.4387 1060.29,-23.3168"/>
<polygon fill="midnightblue" stroke="midnightblue" points="1061.38,-19.9807 1050.79,-19.5164 1058.78,-26.4801 1061.38,-19.9807"/>
</g>
<!-- Node22 -->
<g id="node22" class="node"><title>Node22</title>
<polygon fill="none" stroke="#bfbfbf" points="1115,-0.5 1115,-19.5 1174,-19.5 1174,-0.5 1115,-0.5"/>
<text text-anchor="middle" x="1144.5" y="-7.5" font-family="Helvetica,sans-Serif" font-size="10.00">TObject.h</text>
</g>
<!-- Node20&#45;&gt;Node22 -->
<g id="edge23" class="edge"><title>Node20&#45;&gt;Node22</title>
<path fill="none" stroke="midnightblue" d="M1161.2,-56.083C1158.52,-48.8486 1154.65,-38.4087 1151.31,-29.3968"/>
<polygon fill="midnightblue" stroke="midnightblue" points="1154.5,-27.9129 1147.74,-19.7511 1147.93,-30.3442 1154.5,-27.9129"/>
</g>
<!-- Node23 -->
<g id="node23" class="node"><title>Node23</title>
<polygon fill="none" stroke="#bfbfbf" points="1192.5,-0.5 1192.5,-19.5 1308.5,-19.5 1308.5,-0.5 1192.5,-0.5"/>
<text text-anchor="middle" x="1250.5" y="-7.5" font-family="Helvetica,sans-Serif" font-size="10.00">Common/Exceptions.h</text>
</g>
<!-- Node20&#45;&gt;Node23 -->
<g id="edge24" class="edge"><title>Node20&#45;&gt;Node23</title>
<path fill="none" stroke="midnightblue" d="M1178.32,-56.324C1191.73,-47.9002 1212.32,-34.9709 1228.09,-25.0741"/>
<polygon fill="midnightblue" stroke="midnightblue" points="1230.11,-27.9364 1236.72,-19.6545 1226.39,-22.0081 1230.11,-27.9364"/>
</g>
<!-- Node24&#45;&gt;Node14 -->
<g id="edge27" class="edge"><title>Node24&#45;&gt;Node14</title>
<path fill="none" stroke="midnightblue" d="M996.201,-56.324C982.317,-47.9002 961.008,-34.9709 944.696,-25.0741"/>
<polygon fill="midnightblue" stroke="midnightblue" points="946.129,-21.8495 935.764,-19.6545 942.498,-27.8341 946.129,-21.8495"/>
</g>
<!-- Node24&#45;&gt;Node21 -->
<g id="edge26" class="edge"><title>Node24&#45;&gt;Node21</title>
<path fill="none" stroke="midnightblue" d="M1013.64,-56.083C1016.18,-48.8486 1019.86,-38.4087 1023.03,-29.3968"/>
<polygon fill="midnightblue" stroke="midnightblue" points="1026.4,-30.3459 1026.42,-19.7511 1019.8,-28.0225 1026.4,-30.3459"/>
</g>
<!-- Node25&#45;&gt;Node14 -->
<g id="edge29" class="edge"><title>Node25&#45;&gt;Node14</title>
<path fill="none" stroke="midnightblue" d="M839.245,-56.324C854.819,-47.7428 878.877,-34.486 896.959,-24.5224"/>
<polygon fill="midnightblue" stroke="midnightblue" points="898.724,-27.546 905.794,-19.6545 895.346,-21.4152 898.724,-27.546"/>
</g>
<!-- Node25&#45;&gt;Node15 -->
<g id="edge30" class="edge"><title>Node25&#45;&gt;Node15</title>
<path fill="none" stroke="midnightblue" d="M781.193,-56.4435C734.283,-46.9561 658.596,-31.6487 608.206,-21.4574"/>
<polygon fill="midnightblue" stroke="midnightblue" points="608.665,-17.9794 598.169,-19.4275 607.277,-24.8405 608.665,-17.9794"/>
</g>
</g>
</svg>
