<?xml version="1.0" encoding="UTF-8" standalone="no"?>
<!DOCTYPE svg PUBLIC "-//W3C//DTD SVG 1.1//EN"
 "http://www.w3.org/Graphics/SVG/1.1/DTD/svg11.dtd">
<!-- Generated by graphviz version 2.38.0 (20140413.2041)
 -->
<!-- Title: Modules/TOF/src/TOFTaskCompressed.cxx Pages: 1 -->
<!--zoomable 319 -->
<svg id="main" version="1.1" xmlns="http://www.w3.org/2000/svg" xmlns:xlink="http://www.w3.org/1999/xlink" xml:space="preserve" onload="init(evt)">
<style type="text/css"><![CDATA[
.edge:hover path { stroke: red; }
.edge:hover polygon { stroke: red; fill: red; }
]]></style>
<script type="text/javascript"><![CDATA[
var edges = document.getElementsByTagName('g');
if (edges && edges.length) {
  for (var i=0;i<edges.length;i++) {
    if (edges[i].id.substr(0,4)=='edge') {
      edges[i].setAttribute('class','edge');
    }
  }
}
]]></script>
        <defs>
                <circle id="rim" cx="0" cy="0" r="7"/>
                <circle id="rim2" cx="0" cy="0" r="3.5"/>
                <g id="zoomPlus">
                        <use xlink:href="#rim" fill="#404040">
                                <set attributeName="fill" to="#808080" begin="zoomplus.mouseover" end="zoomplus.mouseout"/>
                        </use>
                        <path d="M-4,0h8M0,-4v8" fill="none" stroke="white" stroke-width="1.5" pointer-events="none"/>
                </g>
                <g id="zoomMin">
                        <use xlink:href="#rim" fill="#404040">
                                <set attributeName="fill" to="#808080" begin="zoomminus.mouseover" end="zoomminus.mouseout"/>
                        </use>
                        <path d="M-4,0h8" fill="none" stroke="white" stroke-width="1.5" pointer-events="none"/>
                </g>
                <g id="dirArrow">
                        <path fill="none" stroke="white" stroke-width="1.5" d="M0,-3.0v7 M-2.5,-0.5L0,-3.0L2.5,-0.5"/>
                </g>
               <g id="resetDef">
                       <use xlink:href="#rim2" fill="#404040">
                               <set attributeName="fill" to="#808080" begin="reset.mouseover" end="reset.mouseout"/>
                       </use>
               </g>
        </defs>

<script type="text/javascript">
var viewWidth = 1239;
var viewHeight = 319;
var sectionId = 'dynsection-0';
</script>
<script xlink:href="svgpan.js"/>
<svg id="graph" class="graph">
<g id="viewport">
<title>Modules/TOF/src/TOFTaskCompressed.cxx</title>
<!-- Node1 -->
<g id="node1" class="node"><title>Node1</title>
<polygon fill="#bfbfbf" stroke="black" points="375,-291.5 375,-310.5 586,-310.5 586,-291.5 375,-291.5"/>
<text text-anchor="middle" x="480.5" y="-298.5" font-family="Helvetica,sans-Serif" font-size="10.00">Modules/TOF/src/TOFTaskCompressed.cxx</text>
</g>
<!-- Node2 -->
<g id="node2" class="node"><title>Node2</title>
<polygon fill="none" stroke="#bfbfbf" points="39,-235.5 39,-254.5 104,-254.5 104,-235.5 39,-235.5"/>
<text text-anchor="middle" x="71.5" y="-242.5" font-family="Helvetica,sans-Serif" font-size="10.00">TCanvas.h</text>
</g>
<!-- Node1&#45;&gt;Node2 -->
<g id="edge1" class="edge"><title>Node1&#45;&gt;Node2</title>
<path fill="none" stroke="midnightblue" d="M391.298,-291.474C318.968,-284.01 214.21,-271.954 114.103,-255.146"/>
<polygon fill="midnightblue" stroke="midnightblue" points="114.564,-251.675 104.119,-253.451 113.392,-258.576 114.564,-251.675"/>
</g>
<!-- Node3 -->
<g id="node3" class="node"><title>Node3</title>
<polygon fill="none" stroke="#bfbfbf" points="856.5,-118 856.5,-137 900.5,-137 900.5,-118 856.5,-118"/>
<text text-anchor="middle" x="878.5" y="-125" font-family="Helvetica,sans-Serif" font-size="10.00">TH1.h</text>
</g>
<!-- Node1&#45;&gt;Node3 -->
<g id="edge2" class="edge"><title>Node1&#45;&gt;Node3</title>
<path fill="none" stroke="midnightblue" d="M586.36,-294.02C691.917,-287.028 841.105,-273.946 860.5,-255 889.371,-226.799 886.297,-174.791 882.102,-147.058"/>
<polygon fill="midnightblue" stroke="midnightblue" points="885.533,-146.362 880.384,-137.103 878.635,-147.552 885.533,-146.362"/>
</g>
<!-- Node4 -->
<g id="node4" class="node"><title>Node4</title>
<polygon fill="none" stroke="#bfbfbf" points="288.5,-235.5 288.5,-254.5 338.5,-254.5 338.5,-235.5 288.5,-235.5"/>
<text text-anchor="middle" x="313.5" y="-242.5" font-family="Helvetica,sans-Serif" font-size="10.00">TH1F.h</text>
</g>
<!-- Node1&#45;&gt;Node4 -->
<g id="edge3" class="edge"><title>Node1&#45;&gt;Node4</title>
<path fill="none" stroke="midnightblue" d="M454.038,-291.444C425.49,-282.212 379.902,-267.471 348.428,-257.294"/>
<polygon fill="midnightblue" stroke="midnightblue" points="349.336,-253.909 338.745,-254.163 347.183,-260.57 349.336,-253.909"/>
</g>
<!-- Node5 -->
<g id="node5" class="node"><title>Node5</title>
<polygon fill="none" stroke="#bfbfbf" points="356.5,-235.5 356.5,-254.5 406.5,-254.5 406.5,-235.5 356.5,-235.5"/>
<text text-anchor="middle" x="381.5" y="-242.5" font-family="Helvetica,sans-Serif" font-size="10.00">TH2F.h</text>
</g>
<!-- Node1&#45;&gt;Node5 -->
<g id="edge4" class="edge"><title>Node1&#45;&gt;Node5</title>
<path fill="none" stroke="midnightblue" d="M464.594,-291.324C448.862,-282.743 424.558,-269.486 406.291,-259.522"/>
<polygon fill="midnightblue" stroke="midnightblue" points="407.822,-256.37 397.367,-254.655 404.47,-262.516 407.822,-256.37"/>
</g>
<!-- Node6 -->
<g id="node6" class="node"><title>Node6</title>
<polygon fill="none" stroke="#bfbfbf" points="425,-235.5 425,-254.5 472,-254.5 472,-235.5 425,-235.5"/>
<text text-anchor="middle" x="448.5" y="-242.5" font-family="Helvetica,sans-Serif" font-size="10.00">TH1I.h</text>
</g>
<!-- Node1&#45;&gt;Node6 -->
<g id="edge5" class="edge"><title>Node1&#45;&gt;Node6</title>
<path fill="none" stroke="midnightblue" d="M475.216,-291.083C470.789,-283.613 464.337,-272.724 458.882,-263.52"/>
<polygon fill="midnightblue" stroke="midnightblue" points="461.795,-261.57 453.686,-254.751 455.773,-265.138 461.795,-261.57"/>
</g>
<!-- Node7 -->
<g id="node7" class="node"><title>Node7</title>
<polygon fill="none" stroke="#bfbfbf" points="490,-235.5 490,-254.5 537,-254.5 537,-235.5 490,-235.5"/>
<text text-anchor="middle" x="513.5" y="-242.5" font-family="Helvetica,sans-Serif" font-size="10.00">TH2I.h</text>
</g>
<!-- Node1&#45;&gt;Node7 -->
<g id="edge6" class="edge"><title>Node1&#45;&gt;Node7</title>
<path fill="none" stroke="midnightblue" d="M485.949,-291.083C490.514,-283.613 497.168,-272.724 502.793,-263.52"/>
<polygon fill="midnightblue" stroke="midnightblue" points="505.924,-265.109 508.152,-254.751 499.951,-261.459 505.924,-265.109"/>
</g>
<!-- Node8 -->
<g id="node8" class="node"><title>Node8</title>
<polygon fill="none" stroke="#bfbfbf" points="1078.5,-112.5 1078.5,-142.5 1230.5,-142.5 1230.5,-112.5 1078.5,-112.5"/>
<text text-anchor="start" x="1086.5" y="-130.5" font-family="Helvetica,sans-Serif" font-size="10.00">DataFormatsTOF/Compressed</text>
<text text-anchor="middle" x="1154.5" y="-119.5" font-family="Helvetica,sans-Serif" font-size="10.00">DataFormat.h</text>
</g>
<!-- Node1&#45;&gt;Node8 -->
<g id="edge7" class="edge"><title>Node1&#45;&gt;Node8</title>
<path fill="none" stroke="midnightblue" d="M586.358,-292.995C667.639,-286.444 782.375,-274.651 881.5,-255 969.948,-237.466 997.686,-242.806 1076.5,-199 1099.19,-186.389 1120.74,-166.033 1135.42,-150.429"/>
<polygon fill="midnightblue" stroke="midnightblue" points="1138.26,-152.507 1142.43,-142.768 1133.1,-147.778 1138.26,-152.507"/>
</g>
<!-- Node9 -->
<g id="node9" class="node"><title>Node9</title>
<polygon fill="none" stroke="#bfbfbf" points="717.5,-235.5 717.5,-254.5 851.5,-254.5 851.5,-235.5 717.5,-235.5"/>
<text text-anchor="middle" x="784.5" y="-242.5" font-family="Helvetica,sans-Serif" font-size="10.00">Framework/DataRefUtils.h</text>
</g>
<!-- Node1&#45;&gt;Node9 -->
<g id="edge8" class="edge"><title>Node1&#45;&gt;Node9</title>
<path fill="none" stroke="midnightblue" d="M528.67,-291.444C582.369,-281.905 669.186,-266.483 726.554,-256.293"/>
<polygon fill="midnightblue" stroke="midnightblue" points="727.322,-259.712 736.556,-254.516 726.098,-252.819 727.322,-259.712"/>
</g>
<!-- Node10 -->
<g id="node10" class="node"><title>Node10</title>
<g id="a_node10"><a xlink:href="QcInfoLogger_8h.html" target="_top" xlink:title="QualityControl/QcInfoLogger.h">
<polygon fill="none" stroke="black" points="122,-235.5 122,-254.5 271,-254.5 271,-235.5 122,-235.5"/>
<text text-anchor="middle" x="196.5" y="-242.5" font-family="Helvetica,sans-Serif" font-size="10.00">QualityControl/QcInfoLogger.h</text>
</a>
</g>
</g>
<!-- Node1&#45;&gt;Node10 -->
<g id="edge9" class="edge"><title>Node1&#45;&gt;Node10</title>
<path fill="none" stroke="midnightblue" d="M435.499,-291.444C385.541,-281.944 304.899,-266.611 251.301,-256.42"/>
<polygon fill="midnightblue" stroke="midnightblue" points="251.768,-252.946 241.29,-254.516 250.46,-259.823 251.768,-252.946"/>
</g>
<!-- Node12 -->
<g id="node12" class="node"><title>Node12</title>
<g id="a_node12"><a xlink:href="TOFTaskCompressed_8h.html" target="_top" xlink:title="TOF/TOFTaskCompressed.h">
<polygon fill="none" stroke="black" points="555.5,-235.5 555.5,-254.5 699.5,-254.5 699.5,-235.5 555.5,-235.5"/>
<text text-anchor="middle" x="627.5" y="-242.5" font-family="Helvetica,sans-Serif" font-size="10.00">TOF/TOFTaskCompressed.h</text>
</a>
</g>
</g>
<!-- Node1&#45;&gt;Node12 -->
<g id="edge11" class="edge"><title>Node1&#45;&gt;Node12</title>
<path fill="none" stroke="midnightblue" d="M503.793,-291.444C528.307,-282.438 567.096,-268.189 594.7,-258.049"/>
<polygon fill="midnightblue" stroke="midnightblue" points="596.137,-261.25 604.316,-254.516 593.723,-254.679 596.137,-261.25"/>
</g>
<!-- Node11 -->
<g id="node11" class="node"><title>Node11</title>
<polygon fill="none" stroke="#bfbfbf" points="131.5,-179.5 131.5,-198.5 261.5,-198.5 261.5,-179.5 131.5,-179.5"/>
<text text-anchor="middle" x="196.5" y="-186.5" font-family="Helvetica,sans-Serif" font-size="10.00">InfoLogger/InfoLogger.hxx</text>
</g>
<!-- Node10&#45;&gt;Node11 -->
<g id="edge10" class="edge"><title>Node10&#45;&gt;Node11</title>
<path fill="none" stroke="midnightblue" d="M196.5,-235.083C196.5,-228.006 196.5,-217.861 196.5,-208.986"/>
<polygon fill="midnightblue" stroke="midnightblue" points="200,-208.751 196.5,-198.751 193,-208.751 200,-208.751"/>
</g>
<!-- Node13 -->
<g id="node13" class="node"><title>Node13</title>
<g id="a_node13"><a xlink:href="TaskInterface_8h.html" target="_top" xlink:title="QualityControl/TaskInterface.h">
<polygon fill="none" stroke="black" points="446.5,-179.5 446.5,-198.5 596.5,-198.5 596.5,-179.5 446.5,-179.5"/>
<text text-anchor="middle" x="521.5" y="-186.5" font-family="Helvetica,sans-Serif" font-size="10.00">QualityControl/TaskInterface.h</text>
</a>
</g>
</g>
<!-- Node12&#45;&gt;Node13 -->
<g id="edge12" class="edge"><title>Node12&#45;&gt;Node13</title>
<path fill="none" stroke="midnightblue" d="M610.469,-235.324C593.47,-226.664 567.124,-213.242 547.507,-203.249"/>
<polygon fill="midnightblue" stroke="midnightblue" points="548.988,-200.075 538.488,-198.655 545.81,-206.312 548.988,-200.075"/>
</g>
<!-- Node28 -->
<g id="node28" class="node"><title>Node28</title>
<g id="a_node28"><a xlink:href="TOFDecoderCompressed_8h.html" target="_top" xlink:title="TOF/TOFDecoderCompressed.h">
<polygon fill="none" stroke="black" points="909,-179.5 909,-198.5 1068,-198.5 1068,-179.5 909,-179.5"/>
<text text-anchor="middle" x="988.5" y="-186.5" font-family="Helvetica,sans-Serif" font-size="10.00">TOF/TOFDecoderCompressed.h</text>
</a>
</g>
</g>
<!-- Node12&#45;&gt;Node28 -->
<g id="edge35" class="edge"><title>Node12&#45;&gt;Node28</title>
<path fill="none" stroke="midnightblue" d="M684.702,-235.444C748.997,-225.826 853.275,-210.228 921.375,-200.041"/>
<polygon fill="midnightblue" stroke="midnightblue" points="922.194,-203.457 931.566,-198.516 921.158,-196.534 922.194,-203.457"/>
</g>
<!-- Node14 -->
<g id="node14" class="node"><title>Node14</title>
<polygon fill="none" stroke="#bfbfbf" points="804,-0.5 804,-19.5 839,-19.5 839,-0.5 804,-0.5"/>
<text text-anchor="middle" x="821.5" y="-7.5" font-family="Helvetica,sans-Serif" font-size="10.00">map</text>
</g>
<!-- Node13&#45;&gt;Node14 -->
<g id="edge13" class="edge"><title>Node13&#45;&gt;Node14</title>
<path fill="none" stroke="midnightblue" d="M596.669,-184.281C666.085,-179.314 762.54,-168.027 790.5,-143 822.707,-114.171 824.66,-58.7853 823.191,-29.773"/>
<polygon fill="midnightblue" stroke="midnightblue" points="826.678,-29.4681 822.487,-19.7374 819.695,-29.9577 826.678,-29.4681"/>
</g>
<!-- Node15 -->
<g id="node15" class="node"><title>Node15</title>
<polygon fill="none" stroke="#bfbfbf" points="748.5,-56.5 748.5,-75.5 800.5,-75.5 800.5,-56.5 748.5,-56.5"/>
<text text-anchor="middle" x="774.5" y="-63.5" font-family="Helvetica,sans-Serif" font-size="10.00">memory</text>
</g>
<!-- Node13&#45;&gt;Node15 -->
<g id="edge14" class="edge"><title>Node13&#45;&gt;Node15</title>
<path fill="none" stroke="midnightblue" d="M596.681,-184.442C661.459,-179.652 747.992,-168.544 770.5,-143 784.114,-127.549 782.634,-102.741 779.392,-85.697"/>
<polygon fill="midnightblue" stroke="midnightblue" points="782.772,-84.7736 777.149,-75.794 775.945,-86.3202 782.772,-84.7736"/>
</g>
<!-- Node16 -->
<g id="node16" class="node"><title>Node16</title>
<polygon fill="none" stroke="#bfbfbf" points="391,-0.5 391,-19.5 432,-19.5 432,-0.5 391,-0.5"/>
<text text-anchor="middle" x="411.5" y="-7.5" font-family="Helvetica,sans-Serif" font-size="10.00">string</text>
</g>
<!-- Node13&#45;&gt;Node16 -->
<g id="edge15" class="edge"><title>Node13&#45;&gt;Node16</title>
<path fill="none" stroke="midnightblue" d="M446.292,-184.693C338.118,-179.154 149.243,-166.254 128.5,-143 119.329,-132.718 120.562,-123.261 128.5,-112 158.527,-69.4015 314.084,-31.7713 380.923,-17.3047"/>
<polygon fill="midnightblue" stroke="midnightblue" points="381.807,-20.6949 390.856,-15.1845 380.346,-13.8492 381.807,-20.6949"/>
</g>
<!-- Node17 -->
<g id="node17" class="node"><title>Node17</title>
<polygon fill="none" stroke="#bfbfbf" points="0,-0.5 0,-19.5 83,-19.5 83,-0.5 0,-0.5"/>
<text text-anchor="middle" x="41.5" y="-7.5" font-family="Helvetica,sans-Serif" font-size="10.00">unordered_map</text>
</g>
<!-- Node13&#45;&gt;Node17 -->
<g id="edge16" class="edge"><title>Node13&#45;&gt;Node17</title>
<path fill="none" stroke="midnightblue" d="M446.44,-183.619C346.982,-177.127 177.251,-163.474 118.5,-143 65.5158,-124.536 38.6794,-125.087 11.5,-76 2.52575,-59.7922 14.1738,-40.4213 25.4711,-27.0661"/>
<polygon fill="midnightblue" stroke="midnightblue" points="28.119,-29.3568 32.2725,-19.61 22.9474,-24.6393 28.119,-29.3568"/>
</g>
<!-- Node18 -->
<g id="node18" class="node"><title>Node18</title>
<polygon fill="none" stroke="#bfbfbf" points="138,-118 138,-137 263,-137 263,-118 138,-118"/>
<text text-anchor="middle" x="200.5" y="-125" font-family="Helvetica,sans-Serif" font-size="10.00">Framework/InitContext.h</text>
</g>
<!-- Node13&#45;&gt;Node18 -->
<g id="edge17" class="edge"><title>Node13&#45;&gt;Node18</title>
<path fill="none" stroke="midnightblue" d="M472.78,-179.491C422.545,-170.648 341.97,-156.271 272.5,-143 265.936,-141.746 259.043,-140.398 252.229,-139.047"/>
<polygon fill="midnightblue" stroke="midnightblue" points="252.844,-135.6 242.352,-137.075 251.473,-142.465 252.844,-135.6"/>
</g>
<!-- Node19 -->
<g id="node19" class="node"><title>Node19</title>
<polygon fill="none" stroke="#bfbfbf" points="281.5,-118 281.5,-137 441.5,-137 441.5,-118 281.5,-118"/>
<text text-anchor="middle" x="361.5" y="-125" font-family="Helvetica,sans-Serif" font-size="10.00">Framework/ProcessingContext.h</text>
</g>
<!-- Node13&#45;&gt;Node19 -->
<g id="edge18" class="edge"><title>Node13&#45;&gt;Node19</title>
<path fill="none" stroke="midnightblue" d="M498.576,-179.475C471.13,-169.269 424.984,-152.108 393.901,-140.549"/>
<polygon fill="midnightblue" stroke="midnightblue" points="394.974,-137.214 384.382,-137.009 392.535,-143.775 394.974,-137.214"/>
</g>
<!-- Node20 -->
<g id="node20" class="node"><title>Node20</title>
<g id="a_node20"><a xlink:href="Activity_8h.html" target="_top" xlink:title="QualityControl/Activity.h">
<polygon fill="none" stroke="black" points="460,-118 460,-137 583,-137 583,-118 460,-118"/>
<text text-anchor="middle" x="521.5" y="-125" font-family="Helvetica,sans-Serif" font-size="10.00">QualityControl/Activity.h</text>
</a>
</g>
</g>
<!-- Node13&#45;&gt;Node20 -->
<g id="edge19" class="edge"><title>Node13&#45;&gt;Node20</title>
<path fill="none" stroke="midnightblue" d="M521.5,-179.475C521.5,-171.08 521.5,-157.981 521.5,-147.163"/>
<polygon fill="midnightblue" stroke="midnightblue" points="525,-147.009 521.5,-137.009 518,-147.009 525,-147.009"/>
</g>
<!-- Node21 -->
<g id="node21" class="node"><title>Node21</title>
<g id="a_node21"><a xlink:href="ObjectsManager_8h.html" target="_top" xlink:title="QualityControl/ObjectsManager.h">
<polygon fill="none" stroke="black" points="601,-118 601,-137 762,-137 762,-118 601,-118"/>
<text text-anchor="middle" x="681.5" y="-125" font-family="Helvetica,sans-Serif" font-size="10.00">QualityControl/ObjectsManager.h</text>
</a>
</g>
</g>
<!-- Node13&#45;&gt;Node21 -->
<g id="edge20" class="edge"><title>Node13&#45;&gt;Node21</title>
<path fill="none" stroke="midnightblue" d="M544.424,-179.475C571.87,-169.269 618.016,-152.108 649.099,-140.549"/>
<polygon fill="midnightblue" stroke="midnightblue" points="650.465,-143.775 658.618,-137.009 648.026,-137.214 650.465,-143.775"/>
</g>
<!-- Node21&#45;&gt;Node15 -->
<g id="edge34" class="edge"><title>Node21&#45;&gt;Node15</title>
<path fill="none" stroke="midnightblue" d="M694.825,-117.975C709.88,-108.343 734.616,-92.5175 752.537,-81.0517"/>
<polygon fill="midnightblue" stroke="midnightblue" points="754.663,-83.8466 761.2,-75.5091 750.89,-77.9501 754.663,-83.8466"/>
</g>
<!-- Node21&#45;&gt;Node16 -->
<g id="edge33" class="edge"><title>Node21&#45;&gt;Node16</title>
<path fill="none" stroke="midnightblue" d="M632.574,-117.994C561.671,-105.477 437.951,-82.8371 430.5,-76 417.661,-64.218 413.32,-44.29 411.94,-29.5982"/>
<polygon fill="midnightblue" stroke="midnightblue" points="415.434,-29.3903 411.371,-19.6056 408.445,-29.7885 415.434,-29.3903"/>
</g>
<!-- Node22 -->
<g id="node22" class="node"><title>Node22</title>
<g id="a_node22"><a xlink:href="MonitorObject_8h.html" target="_top" xlink:title="QualityControl/MonitorObject.h">
<polygon fill="none" stroke="black" points="579,-56.5 579,-75.5 730,-75.5 730,-56.5 579,-56.5"/>
<text text-anchor="middle" x="654.5" y="-63.5" font-family="Helvetica,sans-Serif" font-size="10.00">QualityControl/MonitorObject.h</text>
</a>
</g>
</g>
<!-- Node21&#45;&gt;Node22 -->
<g id="edge21" class="edge"><title>Node21&#45;&gt;Node22</title>
<path fill="none" stroke="midnightblue" d="M677.632,-117.975C673.702,-109.315 667.5,-95.6486 662.507,-84.6453"/>
<polygon fill="midnightblue" stroke="midnightblue" points="665.681,-83.1691 658.361,-75.5091 659.306,-86.0617 665.681,-83.1691"/>
</g>
<!-- Node26 -->
<g id="node26" class="node"><title>Node26</title>
<g id="a_node26"><a xlink:href="Quality_8h.html" target="_top" xlink:title="QualityControl/Quality.h">
<polygon fill="none" stroke="black" points="440,-56.5 440,-75.5 561,-75.5 561,-56.5 440,-56.5"/>
<text text-anchor="middle" x="500.5" y="-63.5" font-family="Helvetica,sans-Serif" font-size="10.00">QualityControl/Quality.h</text>
</a>
</g>
</g>
<!-- Node21&#45;&gt;Node26 -->
<g id="edge27" class="edge"><title>Node21&#45;&gt;Node26</title>
<path fill="none" stroke="midnightblue" d="M655.567,-117.975C624.25,-107.68 571.41,-90.3103 536.244,-78.7502"/>
<polygon fill="midnightblue" stroke="midnightblue" points="536.978,-75.3071 526.385,-75.5091 534.792,-81.957 536.978,-75.3071"/>
</g>
<!-- Node27 -->
<g id="node27" class="node"><title>Node27</title>
<g id="a_node27"><a xlink:href="TaskConfig_8h.html" target="_top" xlink:title="QualityControl/TaskConfig.h">
<polygon fill="none" stroke="black" points="20.5,-56.5 20.5,-75.5 160.5,-75.5 160.5,-56.5 20.5,-56.5"/>
<text text-anchor="middle" x="90.5" y="-63.5" font-family="Helvetica,sans-Serif" font-size="10.00">QualityControl/TaskConfig.h</text>
</a>
</g>
</g>
<!-- Node21&#45;&gt;Node27 -->
<g id="edge30" class="edge"><title>Node21&#45;&gt;Node27</title>
<path fill="none" stroke="midnightblue" d="M632.544,-117.973C619.254,-115.833 604.848,-113.673 591.5,-112 443.578,-93.4641 270.158,-79.6389 171.02,-72.4842"/>
<polygon fill="midnightblue" stroke="midnightblue" points="171.004,-68.9741 160.779,-71.7498 170.503,-75.9562 171.004,-68.9741"/>
</g>
<!-- Node22&#45;&gt;Node14 -->
<g id="edge23" class="edge"><title>Node22&#45;&gt;Node14</title>
<path fill="none" stroke="midnightblue" d="M680.962,-56.4435C711.866,-46.4507 762.737,-30.0013 794.056,-19.874"/>
<polygon fill="midnightblue" stroke="midnightblue" points="795.433,-23.1073 803.871,-16.7003 793.279,-16.4469 795.433,-23.1073"/>
</g>
<!-- Node22&#45;&gt;Node16 -->
<g id="edge22" class="edge"><title>Node22&#45;&gt;Node16</title>
<path fill="none" stroke="midnightblue" d="M615.996,-56.4435C567.801,-45.7335 486.232,-27.6072 442.083,-17.7961"/>
<polygon fill="midnightblue" stroke="midnightblue" points="442.743,-14.3576 432.222,-15.6049 441.225,-21.191 442.743,-14.3576"/>
</g>
<!-- Node23 -->
<g id="node23" class="node"><title>Node23</title>
<polygon fill="none" stroke="#bfbfbf" points="479.5,-0.5 479.5,-19.5 535.5,-19.5 535.5,-0.5 479.5,-0.5"/>
<text text-anchor="middle" x="507.5" y="-7.5" font-family="Helvetica,sans-Serif" font-size="10.00">Rtypes.h</text>
</g>
<!-- Node22&#45;&gt;Node23 -->
<g id="edge24" class="edge"><title>Node22&#45;&gt;Node23</title>
<path fill="none" stroke="midnightblue" d="M631.207,-56.4435C606.693,-47.4381 567.904,-33.1891 540.3,-23.049"/>
<polygon fill="midnightblue" stroke="midnightblue" points="541.277,-19.6793 530.684,-19.5164 538.863,-26.25 541.277,-19.6793"/>
</g>
<!-- Node24 -->
<g id="node24" class="node"><title>Node24</title>
<polygon fill="none" stroke="#bfbfbf" points="713,-0.5 713,-19.5 772,-19.5 772,-0.5 713,-0.5"/>
<text text-anchor="middle" x="742.5" y="-7.5" font-family="Helvetica,sans-Serif" font-size="10.00">TObject.h</text>
</g>
<!-- Node22&#45;&gt;Node24 -->
<g id="edge25" class="edge"><title>Node22&#45;&gt;Node24</title>
<path fill="none" stroke="midnightblue" d="M668.639,-56.324C682.366,-47.9002 703.436,-34.9709 719.564,-25.0741"/>
<polygon fill="midnightblue" stroke="midnightblue" points="721.704,-27.8678 728.396,-19.6545 718.043,-21.9016 721.704,-27.8678"/>
</g>
<!-- Node25 -->
<g id="node25" class="node"><title>Node25</title>
<polygon fill="none" stroke="#bfbfbf" points="578.5,-0.5 578.5,-19.5 694.5,-19.5 694.5,-0.5 578.5,-0.5"/>
<text text-anchor="middle" x="636.5" y="-7.5" font-family="Helvetica,sans-Serif" font-size="10.00">Common/Exceptions.h</text>
</g>
<!-- Node22&#45;&gt;Node25 -->
<g id="edge26" class="edge"><title>Node22&#45;&gt;Node25</title>
<path fill="none" stroke="midnightblue" d="M651.528,-56.083C649.116,-48.8486 645.636,-38.4087 642.632,-29.3968"/>
<polygon fill="midnightblue" stroke="midnightblue" points="645.9,-28.1311 639.417,-19.7511 639.259,-30.3447 645.9,-28.1311"/>
</g>
<!-- Node26&#45;&gt;Node16 -->
<g id="edge29" class="edge"><title>Node26&#45;&gt;Node16</title>
<path fill="none" stroke="midnightblue" d="M486.201,-56.324C472.317,-47.9002 451.008,-34.9709 434.696,-25.0741"/>
<polygon fill="midnightblue" stroke="midnightblue" points="436.129,-21.8495 425.764,-19.6545 432.498,-27.8341 436.129,-21.8495"/>
</g>
<!-- Node26&#45;&gt;Node23 -->
<g id="edge28" class="edge"><title>Node26&#45;&gt;Node23</title>
<path fill="none" stroke="midnightblue" d="M501.656,-56.083C502.584,-48.9272 503.918,-38.6353 505.077,-29.6911"/>
<polygon fill="midnightblue" stroke="midnightblue" points="508.551,-30.1181 506.366,-19.7511 501.609,-29.2181 508.551,-30.1181"/>
</g>
<!-- Node27&#45;&gt;Node16 -->
<g id="edge31" class="edge"><title>Node27&#45;&gt;Node16</title>
<path fill="none" stroke="midnightblue" d="M141.363,-56.4435C208.792,-45.1004 325.673,-25.4382 380.906,-16.1466"/>
<polygon fill="midnightblue" stroke="midnightblue" points="381.507,-19.5948 390.788,-14.4843 380.346,-12.6918 381.507,-19.5948"/>
</g>
<!-- Node27&#45;&gt;Node17 -->
<g id="edge32" class="edge"><title>Node27&#45;&gt;Node17</title>
<path fill="none" stroke="midnightblue" d="M82.4086,-56.083C75.3446,-48.2982 64.9124,-36.8015 56.3511,-27.3665"/>
<polygon fill="midnightblue" stroke="midnightblue" points="58.7527,-24.8047 49.4408,-19.7511 53.5688,-29.5087 58.7527,-24.8047"/>
</g>
<!-- Node28&#45;&gt;Node3 -->
<g id="edge36" class="edge"><title>Node28&#45;&gt;Node3</title>
<path fill="none" stroke="midnightblue" d="M972.74,-179.475C954.524,-169.622 924.327,-153.288 903.032,-141.77"/>
<polygon fill="midnightblue" stroke="midnightblue" points="904.692,-138.688 894.231,-137.009 901.362,-144.845 904.692,-138.688"/>
</g>
<!-- Node28&#45;&gt;Node8 -->
<g id="edge38" class="edge"><title>Node28&#45;&gt;Node8</title>
<path fill="none" stroke="midnightblue" d="M1012.28,-179.475C1036.55,-170.776 1074.91,-157.026 1105.68,-145.998"/>
<polygon fill="midnightblue" stroke="midnightblue" points="1107.14,-149.192 1115.38,-142.523 1104.78,-142.602 1107.14,-149.192"/>
</g>
<!-- Node29 -->
<g id="node29" class="node"><title>Node29</title>
<polygon fill="none" stroke="#bfbfbf" points="918.5,-112.5 918.5,-142.5 1060.5,-142.5 1060.5,-112.5 918.5,-112.5"/>
<text text-anchor="start" x="926.5" y="-130.5" font-family="Helvetica,sans-Serif" font-size="10.00">TOFReconstruction/Decoder</text>
<text text-anchor="middle" x="989.5" y="-119.5" font-family="Helvetica,sans-Serif" font-size="10.00">Base.h</text>
</g>
<!-- Node28&#45;&gt;Node29 -->
<g id="edge37" class="edge"><title>Node28&#45;&gt;Node29</title>
<path fill="none" stroke="midnightblue" d="M988.643,-179.475C988.761,-172.471 988.934,-162.192 989.093,-152.696"/>
<polygon fill="midnightblue" stroke="midnightblue" points="992.596,-152.58 989.264,-142.523 985.597,-152.463 992.596,-152.58"/>
</g>
</g>
</svg>
        <g id="navigator" transform="translate(0 0)" fill="#404254">
                <rect fill="#f2f5e9" fill-opacity="0.5" stroke="#606060" stroke-width=".5" x="0" y="0" width="60" height="60"/>
                <use id="zoomplus" xlink:href="#zoomPlus" x="17" y="9" onmousedown="handleZoom(evt,'in')"/>
                <use id="zoomminus" xlink:href="#zoomMin" x="42" y="9" onmousedown="handleZoom(evt,'out')"/>
                <use id="reset" xlink:href="#resetDef" x="30" y="36" onmousedown="handleReset()"/>
                <g id="arrowUp" xlink:href="#dirArrow" transform="translate(30 24)" onmousedown="handlePan(0,-1)">
                  <use xlink:href="#rim" fill="#404040">
                        <set attributeName="fill" to="#808080" begin="arrowUp.mouseover" end="arrowUp.mouseout"/>
                  </use>
                  <path fill="none" stroke="white" stroke-width="1.5" d="M0,-3.0v7 M-2.5,-0.5L0,-3.0L2.5,-0.5"/>
                </g>
                <g id="arrowRight" xlink:href="#dirArrow" transform="rotate(90) translate(36 -43)" onmousedown="handlePan(1,0)">
                  <use xlink:href="#rim" fill="#404040">
                        <set attributeName="fill" to="#808080" begin="arrowRight.mouseover" end="arrowRight.mouseout"/>
                  </use>
                  <path fill="none" stroke="white" stroke-width="1.5" d="M0,-3.0v7 M-2.5,-0.5L0,-3.0L2.5,-0.5"/>
                </g>
                <g id="arrowDown" xlink:href="#dirArrow" transform="rotate(180) translate(-30 -48)" onmousedown="handlePan(0,1)">
                  <use xlink:href="#rim" fill="#404040">
                        <set attributeName="fill" to="#808080" begin="arrowDown.mouseover" end="arrowDown.mouseout"/>
                  </use>
                  <path fill="none" stroke="white" stroke-width="1.5" d="M0,-3.0v7 M-2.5,-0.5L0,-3.0L2.5,-0.5"/>
                </g>
                <g id="arrowLeft" xlink:href="#dirArrow" transform="rotate(270) translate(-36 17)" onmousedown="handlePan(-1,0)">
                  <use xlink:href="#rim" fill="#404040">
                        <set attributeName="fill" to="#808080" begin="arrowLeft.mouseover" end="arrowLeft.mouseout"/>
                  </use>
                  <path fill="none" stroke="white" stroke-width="1.5" d="M0,-3.0v7 M-2.5,-0.5L0,-3.0L2.5,-0.5"/>
                </g>
        </g>
        <svg viewBox="0 0 15 15" width="100%" height="30px" preserveAspectRatio="xMaxYMin meet">
         <g id="arrow_out" transform="scale(0.3 0.3)">
          <a xlink:href="TOFTaskCompressed_8cxx__incl_org.svg" target="_base">
           <rect id="button" ry="5" rx="5" y="6" x="6" height="38" width="38"
                fill="#f2f5e9" fill-opacity="0.5" stroke="#606060" stroke-width="1.0"/>
           <path id="arrow"
             d="M 11.500037,31.436501 C 11.940474,20.09759 22.043105,11.32322 32.158766,21.979434 L 37.068811,17.246167 C 37.068811,17.246167 37.088388,32 37.088388,32 L 22.160133,31.978069 C 22.160133,31.978069 26.997745,27.140456 26.997745,27.140456 C 18.528582,18.264221 13.291696,25.230495 11.500037,31.436501 z"
             style="fill:#404040;"/>
          </a>
         </g>
        </svg>
</svg>
