<?xml version="1.0" encoding="UTF-8" standalone="no"?>
<!DOCTYPE svg PUBLIC "-//W3C//DTD SVG 1.1//EN"
 "http://www.w3.org/Graphics/SVG/1.1/DTD/svg11.dtd">
<!-- Generated by graphviz version 2.38.0 (20140413.2041)
 -->
<!-- Title: Modules/TOF/include/TOF/TOFTaskCompressed.h Pages: 1 -->
<svg width="1342pt" height="274pt"
 viewBox="0.00 0.00 1342.01 274.00" xmlns="http://www.w3.org/2000/svg" xmlns:xlink="http://www.w3.org/1999/xlink">
<g id="graph0" class="graph" transform="scale(1 1) rotate(0) translate(4 270)">
<title>Modules/TOF/include/TOF/TOFTaskCompressed.h</title>
<!-- Node1 -->
<g id="node1" class="node"><title>Node1</title>
<polygon fill="#bfbfbf" stroke="black" points="720.507,-235.5 720.507,-265.5 867.507,-265.5 867.507,-235.5 720.507,-235.5"/>
<text text-anchor="start" x="728.507" y="-253.5" font-family="Helvetica,sans-Serif" font-size="10.00">Modules/TOF/include</text>
<text text-anchor="middle" x="794.007" y="-242.5" font-family="Helvetica,sans-Serif" font-size="10.00">/TOF/TOFTaskCompressed.h</text>
</g>
<!-- Node2 -->
<g id="node2" class="node"><title>Node2</title>
<g id="a_node2"><a xlink:href="TaskInterface_8h.html" target="_top" xlink:title="QualityControl/TaskInterface.h">
<polygon fill="none" stroke="black" points="420.007,-179.5 420.007,-198.5 570.007,-198.5 570.007,-179.5 420.007,-179.5"/>
<text text-anchor="middle" x="495.007" y="-186.5" font-family="Helvetica,sans-Serif" font-size="10.00">QualityControl/TaskInterface.h</text>
</a>
</g>
</g>
<!-- Node1&#45;&gt;Node2 -->
<g id="edge1" class="edge"><title>Node1&#45;&gt;Node2</title>
<path fill="none" stroke="midnightblue" d="M723.527,-235.475C669.691,-224.761 596.669,-210.23 547.8,-200.506"/>
<polygon fill="midnightblue" stroke="midnightblue" points="548.244,-197.025 537.754,-198.506 546.878,-203.891 548.244,-197.025"/>
</g>
<!-- Node17 -->
<g id="node17" class="node"><title>Node17</title>
<g id="a_node17"><a xlink:href="TOFDecoderCompressed_8h.html" target="_top" xlink:title="TOF/TOFDecoderCompressed.h">
<polygon fill="none" stroke="black" points="1014.51,-179.5 1014.51,-198.5 1173.51,-198.5 1173.51,-179.5 1014.51,-179.5"/>
<text text-anchor="middle" x="1094.01" y="-186.5" font-family="Helvetica,sans-Serif" font-size="10.00">TOF/TOFDecoderCompressed.h</text>
</a>
</g>
</g>
<!-- Node1&#45;&gt;Node17 -->
<g id="edge24" class="edge"><title>Node1&#45;&gt;Node17</title>
<path fill="none" stroke="midnightblue" d="M864.723,-235.475C918.74,-224.761 992.005,-210.23 1041.04,-200.506"/>
<polygon fill="midnightblue" stroke="midnightblue" points="1041.99,-203.885 1051.12,-198.506 1040.63,-197.019 1041.99,-203.885"/>
</g>
<!-- Node3 -->
<g id="node3" class="node"><title>Node3</title>
<polygon fill="none" stroke="#bfbfbf" points="907.507,-0.5 907.507,-19.5 942.507,-19.5 942.507,-0.5 907.507,-0.5"/>
<text text-anchor="middle" x="925.007" y="-7.5" font-family="Helvetica,sans-Serif" font-size="10.00">map</text>
</g>
<!-- Node2&#45;&gt;Node3 -->
<g id="edge2" class="edge"><title>Node2&#45;&gt;Node3</title>
<path fill="none" stroke="midnightblue" d="M562.647,-179.496C669.318,-164.583 869.042,-130.062 913.007,-76 923.519,-63.0739 925.968,-43.9026 926.117,-29.7275"/>
<polygon fill="midnightblue" stroke="midnightblue" points="929.614,-29.5507 925.855,-19.6452 922.616,-29.7329 929.614,-29.5507"/>
</g>
<!-- Node4 -->
<g id="node4" class="node"><title>Node4</title>
<polygon fill="none" stroke="#bfbfbf" points="852.007,-56.5 852.007,-75.5 904.007,-75.5 904.007,-56.5 852.007,-56.5"/>
<text text-anchor="middle" x="878.007" y="-63.5" font-family="Helvetica,sans-Serif" font-size="10.00">memory</text>
</g>
<!-- Node2&#45;&gt;Node4 -->
<g id="edge3" class="edge"><title>Node2&#45;&gt;Node4</title>
<path fill="none" stroke="midnightblue" d="M542.807,-179.453C583.283,-171.667 642.596,-158.961 693.007,-143 750.498,-124.797 815.128,-96.3144 850.751,-79.8771"/>
<polygon fill="midnightblue" stroke="midnightblue" points="852.407,-82.9676 860,-75.579 849.456,-76.6196 852.407,-82.9676"/>
</g>
<!-- Node5 -->
<g id="node5" class="node"><title>Node5</title>
<polygon fill="none" stroke="#bfbfbf" points="494.507,-0.5 494.507,-19.5 535.507,-19.5 535.507,-0.5 494.507,-0.5"/>
<text text-anchor="middle" x="515.007" y="-7.5" font-family="Helvetica,sans-Serif" font-size="10.00">string</text>
</g>
<!-- Node2&#45;&gt;Node5 -->
<g id="edge4" class="edge"><title>Node2&#45;&gt;Node5</title>
<path fill="none" stroke="midnightblue" d="M495.358,-179.352C495.5,-163.662 493.437,-130.423 475.007,-112 428.486,-65.4954 297.629,-107.928 338.007,-56 355.793,-33.1269 438.397,-19.9772 484.205,-14.3255"/>
<polygon fill="midnightblue" stroke="midnightblue" points="484.673,-17.7945 494.191,-13.1402 483.848,-10.8433 484.673,-17.7945"/>
</g>
<!-- Node6 -->
<g id="node6" class="node"><title>Node6</title>
<polygon fill="none" stroke="#bfbfbf" points="163.507,-0.5 163.507,-19.5 246.507,-19.5 246.507,-0.5 163.507,-0.5"/>
<text text-anchor="middle" x="205.007" y="-7.5" font-family="Helvetica,sans-Serif" font-size="10.00">unordered_map</text>
</g>
<!-- Node2&#45;&gt;Node6 -->
<g id="edge5" class="edge"><title>Node2&#45;&gt;Node6</title>
<path fill="none" stroke="midnightblue" d="M419.859,-186.445C290.959,-182.993 38.8968,-172.511 12.0074,-143 -39.3036,-86.6863 88.3415,-41.9985 160.134,-22.1555"/>
<polygon fill="midnightblue" stroke="midnightblue" points="161.131,-25.5119 169.87,-19.5218 159.303,-18.7548 161.131,-25.5119"/>
</g>
<!-- Node7 -->
<g id="node7" class="node"><title>Node7</title>
<polygon fill="none" stroke="#bfbfbf" points="21.5074,-118 21.5074,-137 146.507,-137 146.507,-118 21.5074,-118"/>
<text text-anchor="middle" x="84.0074" y="-125" font-family="Helvetica,sans-Serif" font-size="10.00">Framework/InitContext.h</text>
</g>
<!-- Node2&#45;&gt;Node7 -->
<g id="edge6" class="edge"><title>Node2&#45;&gt;Node7</title>
<path fill="none" stroke="midnightblue" d="M419.727,-179.468C350.888,-171.32 246.337,-158.074 156.007,-143 148.831,-141.802 141.276,-140.418 133.868,-138.99"/>
<polygon fill="midnightblue" stroke="midnightblue" points="134.396,-135.527 123.908,-137.029 133.043,-142.395 134.396,-135.527"/>
</g>
<!-- Node8 -->
<g id="node8" class="node"><title>Node8</title>
<polygon fill="none" stroke="#bfbfbf" points="165.007,-118 165.007,-137 325.007,-137 325.007,-118 165.007,-118"/>
<text text-anchor="middle" x="245.007" y="-125" font-family="Helvetica,sans-Serif" font-size="10.00">Framework/ProcessingContext.h</text>
</g>
<!-- Node2&#45;&gt;Node8 -->
<g id="edge7" class="edge"><title>Node2&#45;&gt;Node8</title>
<path fill="none" stroke="midnightblue" d="M459.188,-179.475C414.819,-168.915 339.171,-150.911 290.675,-139.369"/>
<polygon fill="midnightblue" stroke="midnightblue" points="291.298,-135.92 280.76,-137.009 289.678,-142.729 291.298,-135.92"/>
</g>
<!-- Node9 -->
<g id="node9" class="node"><title>Node9</title>
<g id="a_node9"><a xlink:href="Activity_8h.html" target="_top" xlink:title="QualityControl/Activity.h">
<polygon fill="none" stroke="black" points="343.507,-118 343.507,-137 466.507,-137 466.507,-118 343.507,-118"/>
<text text-anchor="middle" x="405.007" y="-125" font-family="Helvetica,sans-Serif" font-size="10.00">QualityControl/Activity.h</text>
</a>
</g>
</g>
<!-- Node2&#45;&gt;Node9 -->
<g id="edge8" class="edge"><title>Node2&#45;&gt;Node9</title>
<path fill="none" stroke="midnightblue" d="M482.113,-179.475C467.543,-169.843 443.605,-154.017 426.262,-142.552"/>
<polygon fill="midnightblue" stroke="midnightblue" points="428.15,-139.604 417.878,-137.009 424.29,-145.444 428.15,-139.604"/>
</g>
<!-- Node10 -->
<g id="node10" class="node"><title>Node10</title>
<g id="a_node10"><a xlink:href="ObjectsManager_8h.html" target="_top" xlink:title="QualityControl/ObjectsManager.h">
<polygon fill="none" stroke="black" points="523.507,-118 523.507,-137 684.507,-137 684.507,-118 523.507,-118"/>
<text text-anchor="middle" x="604.007" y="-125" font-family="Helvetica,sans-Serif" font-size="10.00">QualityControl/ObjectsManager.h</text>
</a>
</g>
</g>
<!-- Node2&#45;&gt;Node10 -->
<g id="edge9" class="edge"><title>Node2&#45;&gt;Node10</title>
<path fill="none" stroke="midnightblue" d="M510.624,-179.475C528.593,-169.666 558.329,-153.435 579.414,-141.925"/>
<polygon fill="midnightblue" stroke="midnightblue" points="581.319,-144.873 588.419,-137.009 577.965,-138.728 581.319,-144.873"/>
</g>
<!-- Node10&#45;&gt;Node4 -->
<g id="edge23" class="edge"><title>Node10&#45;&gt;Node4</title>
<path fill="none" stroke="midnightblue" d="M646.672,-117.928C692.33,-108.648 767.12,-93.14 841.653,-76.0121"/>
<polygon fill="midnightblue" stroke="midnightblue" points="842.731,-79.3553 851.688,-73.6957 841.157,-72.5347 842.731,-79.3553"/>
</g>
<!-- Node10&#45;&gt;Node5 -->
<g id="edge22" class="edge"><title>Node10&#45;&gt;Node5</title>
<path fill="none" stroke="midnightblue" d="M586.176,-117.979C570.245,-109.481 547.41,-94.9698 534.007,-76 524.361,-62.3471 519.569,-43.8085 517.214,-30.0232"/>
<polygon fill="midnightblue" stroke="midnightblue" points="520.63,-29.1808 515.757,-19.7731 513.7,-30.1662 520.63,-29.1808"/>
</g>
<!-- Node11 -->
<g id="node11" class="node"><title>Node11</title>
<g id="a_node11"><a xlink:href="MonitorObject_8h.html" target="_top" xlink:title="QualityControl/MonitorObject.h">
<polygon fill="none" stroke="black" points="682.507,-56.5 682.507,-75.5 833.507,-75.5 833.507,-56.5 682.507,-56.5"/>
<text text-anchor="middle" x="758.007" y="-63.5" font-family="Helvetica,sans-Serif" font-size="10.00">QualityControl/MonitorObject.h</text>
</a>
</g>
</g>
<!-- Node10&#45;&gt;Node11 -->
<g id="edge10" class="edge"><title>Node10&#45;&gt;Node11</title>
<path fill="none" stroke="midnightblue" d="M626.072,-117.975C652.374,-107.813 696.52,-90.7564 726.432,-79.1996"/>
<polygon fill="midnightblue" stroke="midnightblue" points="727.917,-82.3779 735.984,-75.5091 725.394,-75.8483 727.917,-82.3779"/>
</g>
<!-- Node15 -->
<g id="node15" class="node"><title>Node15</title>
<g id="a_node15"><a xlink:href="Quality_8h.html" target="_top" xlink:title="QualityControl/Quality.h">
<polygon fill="none" stroke="black" points="543.507,-56.5 543.507,-75.5 664.507,-75.5 664.507,-56.5 543.507,-56.5"/>
<text text-anchor="middle" x="604.007" y="-63.5" font-family="Helvetica,sans-Serif" font-size="10.00">QualityControl/Quality.h</text>
</a>
</g>
</g>
<!-- Node10&#45;&gt;Node15 -->
<g id="edge16" class="edge"><title>Node10&#45;&gt;Node15</title>
<path fill="none" stroke="midnightblue" d="M604.007,-117.975C604.007,-109.58 604.007,-96.4806 604.007,-85.6631"/>
<polygon fill="midnightblue" stroke="midnightblue" points="607.507,-85.5091 604.007,-75.5091 600.507,-85.5091 607.507,-85.5091"/>
</g>
<!-- Node16 -->
<g id="node16" class="node"><title>Node16</title>
<g id="a_node16"><a xlink:href="TaskConfig_8h.html" target="_top" xlink:title="QualityControl/TaskConfig.h">
<polygon fill="none" stroke="black" points="347.007,-56.5 347.007,-75.5 487.007,-75.5 487.007,-56.5 347.007,-56.5"/>
<text text-anchor="middle" x="417.007" y="-63.5" font-family="Helvetica,sans-Serif" font-size="10.00">QualityControl/TaskConfig.h</text>
</a>
</g>
</g>
<!-- Node10&#45;&gt;Node16 -->
<g id="edge19" class="edge"><title>Node10&#45;&gt;Node16</title>
<path fill="none" stroke="midnightblue" d="M577.215,-117.975C544.721,-107.636 489.799,-90.1611 453.47,-78.6017"/>
<polygon fill="midnightblue" stroke="midnightblue" points="454.341,-75.2059 443.75,-75.5091 452.218,-81.8764 454.341,-75.2059"/>
</g>
<!-- Node11&#45;&gt;Node3 -->
<g id="edge12" class="edge"><title>Node11&#45;&gt;Node3</title>
<path fill="none" stroke="midnightblue" d="M784.469,-56.4435C815.373,-46.4507 866.244,-30.0013 897.564,-19.874"/>
<polygon fill="midnightblue" stroke="midnightblue" points="898.94,-23.1073 907.379,-16.7003 896.787,-16.4469 898.94,-23.1073"/>
</g>
<!-- Node11&#45;&gt;Node5 -->
<g id="edge11" class="edge"><title>Node11&#45;&gt;Node5</title>
<path fill="none" stroke="midnightblue" d="M719.503,-56.4435C671.308,-45.7335 589.74,-27.6072 545.59,-17.7961"/>
<polygon fill="midnightblue" stroke="midnightblue" points="546.251,-14.3576 535.73,-15.6049 544.732,-21.191 546.251,-14.3576"/>
</g>
<!-- Node12 -->
<g id="node12" class="node"><title>Node12</title>
<polygon fill="none" stroke="#bfbfbf" points="583.007,-0.5 583.007,-19.5 639.007,-19.5 639.007,-0.5 583.007,-0.5"/>
<text text-anchor="middle" x="611.007" y="-7.5" font-family="Helvetica,sans-Serif" font-size="10.00">Rtypes.h</text>
</g>
<!-- Node11&#45;&gt;Node12 -->
<g id="edge13" class="edge"><title>Node11&#45;&gt;Node12</title>
<path fill="none" stroke="midnightblue" d="M734.715,-56.4435C710.2,-47.4381 671.411,-33.1891 643.808,-23.049"/>
<polygon fill="midnightblue" stroke="midnightblue" points="644.785,-19.6793 634.191,-19.5164 642.371,-26.25 644.785,-19.6793"/>
</g>
<!-- Node13 -->
<g id="node13" class="node"><title>Node13</title>
<polygon fill="none" stroke="#bfbfbf" points="816.507,-0.5 816.507,-19.5 875.507,-19.5 875.507,-0.5 816.507,-0.5"/>
<text text-anchor="middle" x="846.007" y="-7.5" font-family="Helvetica,sans-Serif" font-size="10.00">TObject.h</text>
</g>
<!-- Node11&#45;&gt;Node13 -->
<g id="edge14" class="edge"><title>Node11&#45;&gt;Node13</title>
<path fill="none" stroke="midnightblue" d="M772.146,-56.324C785.874,-47.9002 806.944,-34.9709 823.072,-25.0741"/>
<polygon fill="midnightblue" stroke="midnightblue" points="825.211,-27.8678 831.904,-19.6545 821.55,-21.9016 825.211,-27.8678"/>
</g>
<!-- Node14 -->
<g id="node14" class="node"><title>Node14</title>
<polygon fill="none" stroke="#bfbfbf" points="682.007,-0.5 682.007,-19.5 798.007,-19.5 798.007,-0.5 682.007,-0.5"/>
<text text-anchor="middle" x="740.007" y="-7.5" font-family="Helvetica,sans-Serif" font-size="10.00">Common/Exceptions.h</text>
</g>
<!-- Node11&#45;&gt;Node14 -->
<g id="edge15" class="edge"><title>Node11&#45;&gt;Node14</title>
<path fill="none" stroke="midnightblue" d="M755.035,-56.083C752.624,-48.8486 749.144,-38.4087 746.14,-29.3968"/>
<polygon fill="midnightblue" stroke="midnightblue" points="749.407,-28.1311 742.924,-19.7511 742.766,-30.3447 749.407,-28.1311"/>
</g>
<!-- Node15&#45;&gt;Node5 -->
<g id="edge18" class="edge"><title>Node15&#45;&gt;Node5</title>
<path fill="none" stroke="midnightblue" d="M589.708,-56.324C575.824,-47.9002 554.515,-34.9709 538.204,-25.0741"/>
<polygon fill="midnightblue" stroke="midnightblue" points="539.636,-21.8495 529.271,-19.6545 536.005,-27.8341 539.636,-21.8495"/>
</g>
<!-- Node15&#45;&gt;Node12 -->
<g id="edge17" class="edge"><title>Node15&#45;&gt;Node12</title>
<path fill="none" stroke="midnightblue" d="M605.163,-56.083C606.091,-48.9272 607.425,-38.6353 608.584,-29.6911"/>
<polygon fill="midnightblue" stroke="midnightblue" points="612.058,-30.1181 609.873,-19.7511 605.116,-29.2181 612.058,-30.1181"/>
</g>
<!-- Node16&#45;&gt;Node5 -->
<g id="edge20" class="edge"><title>Node16&#45;&gt;Node5</title>
<path fill="none" stroke="midnightblue" d="M432.753,-56.324C448.326,-47.7428 472.385,-34.486 490.467,-24.5224"/>
<polygon fill="midnightblue" stroke="midnightblue" points="492.232,-27.546 499.301,-19.6545 488.854,-21.4152 492.232,-27.546"/>
</g>
<!-- Node16&#45;&gt;Node6 -->
<g id="edge21" class="edge"><title>Node16&#45;&gt;Node6</title>
<path fill="none" stroke="midnightblue" d="M383.415,-56.4435C346.82,-47.1221 288.169,-32.1828 248.182,-21.9972"/>
<polygon fill="midnightblue" stroke="midnightblue" points="248.997,-18.5932 238.442,-19.5164 247.269,-25.3766 248.997,-18.5932"/>
</g>
<!-- Node18 -->
<g id="node18" class="node"><title>Node18</title>
<polygon fill="none" stroke="#bfbfbf" points="1130.01,-118 1130.01,-137 1174.01,-137 1174.01,-118 1130.01,-118"/>
<text text-anchor="middle" x="1152.01" y="-125" font-family="Helvetica,sans-Serif" font-size="10.00">TH1.h</text>
</g>
<!-- Node17&#45;&gt;Node18 -->
<g id="edge25" class="edge"><title>Node17&#45;&gt;Node18</title>
<path fill="none" stroke="midnightblue" d="M1102.32,-179.475C1111.19,-170.373 1125.45,-155.741 1136.43,-144.483"/>
<polygon fill="midnightblue" stroke="midnightblue" points="1139.24,-146.613 1143.71,-137.009 1134.23,-141.727 1139.24,-146.613"/>
</g>
<!-- Node19 -->
<g id="node19" class="node"><title>Node19</title>
<polygon fill="none" stroke="#bfbfbf" points="1192.01,-112.5 1192.01,-142.5 1334.01,-142.5 1334.01,-112.5 1192.01,-112.5"/>
<text text-anchor="start" x="1200.01" y="-130.5" font-family="Helvetica,sans-Serif" font-size="10.00">TOFReconstruction/Decoder</text>
<text text-anchor="middle" x="1263.01" y="-119.5" font-family="Helvetica,sans-Serif" font-size="10.00">Base.h</text>
</g>
<!-- Node17&#45;&gt;Node19 -->
<g id="edge26" class="edge"><title>Node17&#45;&gt;Node19</title>
<path fill="none" stroke="midnightblue" d="M1118.22,-179.475C1143.03,-170.739 1182.32,-156.907 1213.71,-145.855"/>
<polygon fill="midnightblue" stroke="midnightblue" points="1214.91,-149.145 1223.18,-142.523 1212.58,-142.543 1214.91,-149.145"/>
</g>
<!-- Node20 -->
<g id="node20" class="node"><title>Node20</title>
<polygon fill="none" stroke="#bfbfbf" points="960.007,-112.5 960.007,-142.5 1112.01,-142.5 1112.01,-112.5 960.007,-112.5"/>
<text text-anchor="start" x="968.007" y="-130.5" font-family="Helvetica,sans-Serif" font-size="10.00">DataFormatsTOF/Compressed</text>
<text text-anchor="middle" x="1036.01" y="-119.5" font-family="Helvetica,sans-Serif" font-size="10.00">DataFormat.h</text>
</g>
<!-- Node17&#45;&gt;Node20 -->
<g id="edge27" class="edge"><title>Node17&#45;&gt;Node20</title>
<path fill="none" stroke="midnightblue" d="M1085.7,-179.475C1078.21,-171.793 1066.88,-160.172 1056.93,-149.964"/>
<polygon fill="midnightblue" stroke="midnightblue" points="1059.16,-147.241 1049.68,-142.523 1054.15,-152.127 1059.16,-147.241"/>
</g>
</g>
</svg>
