<?xml version="1.0" encoding="UTF-8" standalone="no"?>
<!DOCTYPE svg PUBLIC "-//W3C//DTD SVG 1.1//EN"
 "http://www.w3.org/Graphics/SVG/1.1/DTD/svg11.dtd">
<!-- Generated by graphviz version 2.38.0 (20140413.2041)
 -->
<!-- Title: Modules/TPC/src/Tracks.cxx Pages: 1 -->
<!--zoomable 308 -->
<svg id="main" version="1.1" xmlns="http://www.w3.org/2000/svg" xmlns:xlink="http://www.w3.org/1999/xlink" xml:space="preserve" onload="init(evt)">
<style type="text/css"><![CDATA[
.edge:hover path { stroke: red; }
.edge:hover polygon { stroke: red; fill: red; }
]]></style>
<script type="text/javascript"><![CDATA[
var edges = document.getElementsByTagName('g');
if (edges && edges.length) {
  for (var i=0;i<edges.length;i++) {
    if (edges[i].id.substr(0,4)=='edge') {
      edges[i].setAttribute('class','edge');
    }
  }
}
]]></script>
        <defs>
                <circle id="rim" cx="0" cy="0" r="7"/>
                <circle id="rim2" cx="0" cy="0" r="3.5"/>
                <g id="zoomPlus">
                        <use xlink:href="#rim" fill="#404040">
                                <set attributeName="fill" to="#808080" begin="zoomplus.mouseover" end="zoomplus.mouseout"/>
                        </use>
                        <path d="M-4,0h8M0,-4v8" fill="none" stroke="white" stroke-width="1.5" pointer-events="none"/>
                </g>
                <g id="zoomMin">
                        <use xlink:href="#rim" fill="#404040">
                                <set attributeName="fill" to="#808080" begin="zoomminus.mouseover" end="zoomminus.mouseout"/>
                        </use>
                        <path d="M-4,0h8" fill="none" stroke="white" stroke-width="1.5" pointer-events="none"/>
                </g>
                <g id="dirArrow">
                        <path fill="none" stroke="white" stroke-width="1.5" d="M0,-3.0v7 M-2.5,-0.5L0,-3.0L2.5,-0.5"/>
                </g>
               <g id="resetDef">
                       <use xlink:href="#rim2" fill="#404040">
                               <set attributeName="fill" to="#808080" begin="reset.mouseover" end="reset.mouseout"/>
                       </use>
               </g>
        </defs>

<script type="text/javascript">
var viewWidth = 810;
var viewHeight = 308;
var sectionId = 'dynsection-0';
</script>
<script xlink:href="svgpan.js"/>
<svg id="graph" class="graph">
<g id="viewport">
<title>Modules/TPC/src/Tracks.cxx</title>
<!-- Node1 -->
<g id="node1" class="node"><title>Node1</title>
<polygon fill="#bfbfbf" stroke="black" points="245.5,-280.5 245.5,-299.5 390.5,-299.5 390.5,-280.5 245.5,-280.5"/>
<text text-anchor="middle" x="318" y="-287.5" font-family="Helvetica,sans-Serif" font-size="10.00">Modules/TPC/src/Tracks.cxx</text>
</g>
<!-- Node2 -->
<g id="node2" class="node"><title>Node2</title>
<polygon fill="none" stroke="#bfbfbf" points="100.5,-224.5 100.5,-243.5 165.5,-243.5 165.5,-224.5 100.5,-224.5"/>
<text text-anchor="middle" x="133" y="-231.5" font-family="Helvetica,sans-Serif" font-size="10.00">TCanvas.h</text>
</g>
<!-- Node1&#45;&gt;Node2 -->
<g id="edge1" class="edge"><title>Node1&#45;&gt;Node2</title>
<path fill="none" stroke="midnightblue" d="M288.686,-280.444C257.158,-271.241 206.869,-256.562 172.014,-246.388"/>
<polygon fill="midnightblue" stroke="midnightblue" points="172.757,-242.959 162.177,-243.516 170.795,-249.678 172.757,-242.959"/>
</g>
<!-- Node3 -->
<g id="node3" class="node"><title>Node3</title>
<polygon fill="none" stroke="#bfbfbf" points="184,-224.5 184,-243.5 228,-243.5 228,-224.5 184,-224.5"/>
<text text-anchor="middle" x="206" y="-231.5" font-family="Helvetica,sans-Serif" font-size="10.00">TH1.h</text>
</g>
<!-- Node1&#45;&gt;Node3 -->
<g id="edge2" class="edge"><title>Node1&#45;&gt;Node3</title>
<path fill="none" stroke="midnightblue" d="M300.005,-280.324C281.962,-271.625 253.953,-258.12 233.197,-248.113"/>
<polygon fill="midnightblue" stroke="midnightblue" points="234.478,-244.845 223.95,-243.655 231.438,-251.15 234.478,-244.845"/>
</g>
<!-- Node4 -->
<g id="node4" class="node"><title>Node4</title>
<polygon fill="none" stroke="#bfbfbf" points="246,-224.5 246,-243.5 290,-243.5 290,-224.5 246,-224.5"/>
<text text-anchor="middle" x="268" y="-231.5" font-family="Helvetica,sans-Serif" font-size="10.00">TH2.h</text>
</g>
<!-- Node1&#45;&gt;Node4 -->
<g id="edge3" class="edge"><title>Node1&#45;&gt;Node4</title>
<path fill="none" stroke="midnightblue" d="M309.744,-280.083C302.535,-272.298 291.89,-260.801 283.154,-251.367"/>
<polygon fill="midnightblue" stroke="midnightblue" points="285.465,-248.711 276.103,-243.751 280.329,-253.467 285.465,-248.711"/>
</g>
<!-- Node5 -->
<g id="node5" class="node"><title>Node5</title>
<polygon fill="none" stroke="#bfbfbf" points="0,-112.5 0,-131.5 160,-131.5 160,-112.5 0,-112.5"/>
<text text-anchor="middle" x="80" y="-119.5" font-family="Helvetica,sans-Serif" font-size="10.00">Framework/ProcessingContext.h</text>
</g>
<!-- Node1&#45;&gt;Node5 -->
<g id="edge4" class="edge"><title>Node1&#45;&gt;Node5</title>
<path fill="none" stroke="midnightblue" d="M317.689,-280.355C316.761,-266.795 313.126,-240.384 299,-224 255.901,-174.012 182.839,-147.289 133.058,-134.134"/>
<polygon fill="midnightblue" stroke="midnightblue" points="133.673,-130.679 123.119,-131.605 131.947,-137.463 133.673,-130.679"/>
</g>
<!-- Node6 -->
<g id="node6" class="node"><title>Node6</title>
<polygon fill="none" stroke="#bfbfbf" points="443,-224.5 443,-243.5 593,-243.5 593,-224.5 443,-224.5"/>
<text text-anchor="middle" x="518" y="-231.5" font-family="Helvetica,sans-Serif" font-size="10.00">DataFormatsTPC/TrackTPC.h</text>
</g>
<!-- Node1&#45;&gt;Node6 -->
<g id="edge5" class="edge"><title>Node1&#45;&gt;Node6</title>
<path fill="none" stroke="midnightblue" d="M349.691,-280.444C384.068,-271.162 439.077,-256.309 476.789,-246.127"/>
<polygon fill="midnightblue" stroke="midnightblue" points="477.716,-249.502 486.458,-243.516 475.891,-242.744 477.716,-249.502"/>
</g>
<!-- Node7 -->
<g id="node7" class="node"><title>Node7</title>
<g id="a_node7"><a xlink:href="QcInfoLogger_8h.html" target="_top" xlink:title="QualityControl/QcInfoLogger.h">
<polygon fill="none" stroke="black" points="613.5,-224.5 613.5,-243.5 762.5,-243.5 762.5,-224.5 613.5,-224.5"/>
<text text-anchor="middle" x="688" y="-231.5" font-family="Helvetica,sans-Serif" font-size="10.00">QualityControl/QcInfoLogger.h</text>
</a>
</g>
</g>
<!-- Node1&#45;&gt;Node7 -->
<g id="edge6" class="edge"><title>Node1&#45;&gt;Node7</title>
<path fill="none" stroke="midnightblue" d="M376.628,-280.444C442.662,-270.806 549.843,-255.163 619.631,-244.978"/>
<polygon fill="midnightblue" stroke="midnightblue" points="620.257,-248.424 629.647,-243.516 619.246,-241.497 620.257,-248.424"/>
</g>
<!-- Node9 -->
<g id="node9" class="node"><title>Node9</title>
<g id="a_node9"><a xlink:href="Tracks_8h.html" target="_top" xlink:title="TPC/Tracks.h">
<polygon fill="none" stroke="black" points="347,-224.5 347,-243.5 425,-243.5 425,-224.5 347,-224.5"/>
<text text-anchor="middle" x="386" y="-231.5" font-family="Helvetica,sans-Serif" font-size="10.00">TPC/Tracks.h</text>
</a>
</g>
</g>
<!-- Node1&#45;&gt;Node9 -->
<g id="edge8" class="edge"><title>Node1&#45;&gt;Node9</title>
<path fill="none" stroke="midnightblue" d="M328.925,-280.324C339.175,-272.185 354.721,-259.839 367.001,-250.087"/>
<polygon fill="midnightblue" stroke="midnightblue" points="369.221,-252.794 374.876,-243.834 364.868,-247.312 369.221,-252.794"/>
</g>
<!-- Node8 -->
<g id="node8" class="node"><title>Node8</title>
<polygon fill="none" stroke="#bfbfbf" points="625,-168.5 625,-187.5 755,-187.5 755,-168.5 625,-168.5"/>
<text text-anchor="middle" x="690" y="-175.5" font-family="Helvetica,sans-Serif" font-size="10.00">InfoLogger/InfoLogger.hxx</text>
</g>
<!-- Node7&#45;&gt;Node8 -->
<g id="edge7" class="edge"><title>Node7&#45;&gt;Node8</title>
<path fill="none" stroke="midnightblue" d="M688.33,-224.083C688.592,-217.006 688.968,-206.861 689.297,-197.986"/>
<polygon fill="midnightblue" stroke="midnightblue" points="692.803,-197.874 689.676,-187.751 685.808,-197.615 692.803,-197.874"/>
</g>
<!-- Node10 -->
<g id="node10" class="node"><title>Node10</title>
<polygon fill="none" stroke="#bfbfbf" points="513.5,-168.5 513.5,-187.5 606.5,-187.5 606.5,-168.5 513.5,-168.5"/>
<text text-anchor="middle" x="560" y="-175.5" font-family="Helvetica,sans-Serif" font-size="10.00">TPCQC/Tracks.h</text>
</g>
<!-- Node9&#45;&gt;Node10 -->
<g id="edge9" class="edge"><title>Node9&#45;&gt;Node10</title>
<path fill="none" stroke="midnightblue" d="M413.571,-224.444C443.097,-215.28 490.118,-200.688 522.883,-190.519"/>
<polygon fill="midnightblue" stroke="midnightblue" points="524.045,-193.823 532.558,-187.516 521.97,-187.138 524.045,-193.823"/>
</g>
<!-- Node11 -->
<g id="node11" class="node"><title>Node11</title>
<g id="a_node11"><a xlink:href="TaskInterface_8h.html" target="_top" xlink:title="QualityControl/TaskInterface.h">
<polygon fill="none" stroke="black" points="346,-168.5 346,-187.5 496,-187.5 496,-168.5 346,-168.5"/>
<text text-anchor="middle" x="421" y="-175.5" font-family="Helvetica,sans-Serif" font-size="10.00">QualityControl/TaskInterface.h</text>
</a>
</g>
</g>
<!-- Node9&#45;&gt;Node11 -->
<g id="edge10" class="edge"><title>Node9&#45;&gt;Node11</title>
<path fill="none" stroke="midnightblue" d="M391.78,-224.083C396.672,-216.534 403.827,-205.495 409.833,-196.23"/>
<polygon fill="midnightblue" stroke="midnightblue" points="412.826,-198.046 415.328,-187.751 406.952,-194.239 412.826,-198.046"/>
</g>
<!-- Node11&#45;&gt;Node5 -->
<g id="edge16" class="edge"><title>Node11&#45;&gt;Node5</title>
<path fill="none" stroke="midnightblue" d="M366.968,-168.444C306.359,-158.846 208.138,-143.292 143.803,-133.104"/>
<polygon fill="midnightblue" stroke="midnightblue" points="144.204,-129.624 133.78,-131.516 143.109,-136.538 144.204,-129.624"/>
</g>
<!-- Node12 -->
<g id="node12" class="node"><title>Node12</title>
<polygon fill="none" stroke="#bfbfbf" points="161.5,-0.5 161.5,-19.5 196.5,-19.5 196.5,-0.5 161.5,-0.5"/>
<text text-anchor="middle" x="179" y="-7.5" font-family="Helvetica,sans-Serif" font-size="10.00">map</text>
</g>
<!-- Node11&#45;&gt;Node12 -->
<g id="edge11" class="edge"><title>Node11&#45;&gt;Node12</title>
<path fill="none" stroke="midnightblue" d="M345.724,-169.753C292.247,-163.062 226.59,-151.2 207,-132 179.501,-105.049 176.742,-56.821 177.588,-30.1137"/>
<polygon fill="midnightblue" stroke="midnightblue" points="181.1,-29.9803 178.132,-19.8096 174.11,-29.6111 181.1,-29.9803"/>
</g>
<!-- Node13 -->
<g id="node13" class="node"><title>Node13</title>
<polygon fill="none" stroke="#bfbfbf" points="721,-56.5 721,-75.5 773,-75.5 773,-56.5 721,-56.5"/>
<text text-anchor="middle" x="747" y="-63.5" font-family="Helvetica,sans-Serif" font-size="10.00">memory</text>
</g>
<!-- Node11&#45;&gt;Node13 -->
<g id="edge12" class="edge"><title>Node11&#45;&gt;Node13</title>
<path fill="none" stroke="midnightblue" d="M491.712,-168.472C554.16,-160.182 639.969,-146.716 671,-132 695.619,-120.325 718.615,-98.5363 732.726,-83.4219"/>
<polygon fill="midnightblue" stroke="midnightblue" points="735.492,-85.582 739.605,-75.8183 730.301,-80.8857 735.492,-85.582"/>
</g>
<!-- Node14 -->
<g id="node14" class="node"><title>Node14</title>
<polygon fill="none" stroke="#bfbfbf" points="514.5,-0.5 514.5,-19.5 555.5,-19.5 555.5,-0.5 514.5,-0.5"/>
<text text-anchor="middle" x="535" y="-7.5" font-family="Helvetica,sans-Serif" font-size="10.00">string</text>
</g>
<!-- Node11&#45;&gt;Node14 -->
<g id="edge13" class="edge"><title>Node11&#45;&gt;Node14</title>
<path fill="none" stroke="midnightblue" d="M496.239,-168.517C565.609,-160.028 663.088,-146.219 699,-132 740.375,-115.618 761.111,-115.293 782,-76 786.173,-68.1513 787.694,-62.8255 782,-56 754.793,-23.3887 625.883,-14.3507 565.871,-11.8938"/>
<polygon fill="midnightblue" stroke="midnightblue" points="565.63,-8.38249 555.507,-11.5074 565.37,-15.3776 565.63,-8.38249"/>
</g>
<!-- Node15 -->
<g id="node15" class="node"><title>Node15</title>
<polygon fill="none" stroke="#bfbfbf" points="694.5,-0.5 694.5,-19.5 777.5,-19.5 777.5,-0.5 694.5,-0.5"/>
<text text-anchor="middle" x="736" y="-7.5" font-family="Helvetica,sans-Serif" font-size="10.00">unordered_map</text>
</g>
<!-- Node11&#45;&gt;Node15 -->
<g id="edge14" class="edge"><title>Node11&#45;&gt;Node15</title>
<path fill="none" stroke="midnightblue" d="M496.07,-168.705C582.597,-158.77 715.692,-142.193 737,-132 775.822,-113.429 816.398,-94.4156 797,-56 790.193,-42.5199 777.232,-32.083 765.002,-24.6696"/>
<polygon fill="midnightblue" stroke="midnightblue" points="766.343,-21.4099 755.906,-19.5896 762.93,-27.5214 766.343,-21.4099"/>
</g>
<!-- Node16 -->
<g id="node16" class="node"><title>Node16</title>
<polygon fill="none" stroke="#bfbfbf" points="216.5,-112.5 216.5,-131.5 341.5,-131.5 341.5,-112.5 216.5,-112.5"/>
<text text-anchor="middle" x="279" y="-119.5" font-family="Helvetica,sans-Serif" font-size="10.00">Framework/InitContext.h</text>
</g>
<!-- Node11&#45;&gt;Node16 -->
<g id="edge15" class="edge"><title>Node11&#45;&gt;Node16</title>
<path fill="none" stroke="midnightblue" d="M398.5,-168.444C374.923,-159.478 337.678,-145.314 311.036,-135.183"/>
<polygon fill="midnightblue" stroke="midnightblue" points="311.986,-131.8 301.395,-131.516 309.498,-138.342 311.986,-131.8"/>
</g>
<!-- Node17 -->
<g id="node17" class="node"><title>Node17</title>
<g id="a_node17"><a xlink:href="Activity_8h.html" target="_top" xlink:title="QualityControl/Activity.h">
<polygon fill="none" stroke="black" points="359.5,-112.5 359.5,-131.5 482.5,-131.5 482.5,-112.5 359.5,-112.5"/>
<text text-anchor="middle" x="421" y="-119.5" font-family="Helvetica,sans-Serif" font-size="10.00">QualityControl/Activity.h</text>
</a>
</g>
</g>
<!-- Node11&#45;&gt;Node17 -->
<g id="edge17" class="edge"><title>Node11&#45;&gt;Node17</title>
<path fill="none" stroke="midnightblue" d="M421,-168.083C421,-161.006 421,-150.861 421,-141.986"/>
<polygon fill="midnightblue" stroke="midnightblue" points="424.5,-141.751 421,-131.751 417.5,-141.751 424.5,-141.751"/>
</g>
<!-- Node18 -->
<g id="node18" class="node"><title>Node18</title>
<g id="a_node18"><a xlink:href="ObjectsManager_8h.html" target="_top" xlink:title="QualityControl/ObjectsManager.h">
<polygon fill="none" stroke="black" points="500.5,-112.5 500.5,-131.5 661.5,-131.5 661.5,-112.5 500.5,-112.5"/>
<text text-anchor="middle" x="581" y="-119.5" font-family="Helvetica,sans-Serif" font-size="10.00">QualityControl/ObjectsManager.h</text>
</a>
</g>
</g>
<!-- Node11&#45;&gt;Node18 -->
<g id="edge18" class="edge"><title>Node11&#45;&gt;Node18</title>
<path fill="none" stroke="midnightblue" d="M446.352,-168.444C473.269,-159.359 515.996,-144.939 546.087,-134.783"/>
<polygon fill="midnightblue" stroke="midnightblue" points="547.41,-138.031 555.766,-131.516 545.172,-131.398 547.41,-138.031"/>
</g>
<!-- Node18&#45;&gt;Node13 -->
<g id="edge32" class="edge"><title>Node18&#45;&gt;Node13</title>
<path fill="none" stroke="midnightblue" d="M607.303,-112.444C635.351,-103.32 679.944,-88.8133 711.184,-78.6509"/>
<polygon fill="midnightblue" stroke="midnightblue" points="712.393,-81.9383 720.82,-75.5164 710.228,-75.2816 712.393,-81.9383"/>
</g>
<!-- Node18&#45;&gt;Node14 -->
<g id="edge31" class="edge"><title>Node18&#45;&gt;Node14</title>
<path fill="none" stroke="midnightblue" d="M574.922,-112.396C568.929,-103.595 559.843,-89.3552 554,-76 547.373,-60.8529 542.294,-42.7333 539.061,-29.4774"/>
<polygon fill="midnightblue" stroke="midnightblue" points="542.453,-28.6107 536.787,-19.6585 535.634,-30.1904 542.453,-28.6107"/>
</g>
<!-- Node19 -->
<g id="node19" class="node"><title>Node19</title>
<g id="a_node19"><a xlink:href="MonitorObject_8h.html" target="_top" xlink:title="QualityControl/MonitorObject.h">
<polygon fill="none" stroke="black" points="216.5,-56.5 216.5,-75.5 367.5,-75.5 367.5,-56.5 216.5,-56.5"/>
<text text-anchor="middle" x="292" y="-63.5" font-family="Helvetica,sans-Serif" font-size="10.00">QualityControl/MonitorObject.h</text>
</a>
</g>
</g>
<!-- Node18&#45;&gt;Node19 -->
<g id="edge19" class="edge"><title>Node18&#45;&gt;Node19</title>
<path fill="none" stroke="midnightblue" d="M535.207,-112.444C484.263,-102.925 401.966,-87.5472 347.426,-77.3563"/>
<polygon fill="midnightblue" stroke="midnightblue" points="348.051,-73.9128 337.579,-75.5164 346.766,-80.7937 348.051,-73.9128"/>
</g>
<!-- Node23 -->
<g id="node23" class="node"><title>Node23</title>
<g id="a_node23"><a xlink:href="Quality_8h.html" target="_top" xlink:title="QualityControl/Quality.h">
<polygon fill="none" stroke="black" points="385.5,-56.5 385.5,-75.5 506.5,-75.5 506.5,-56.5 385.5,-56.5"/>
<text text-anchor="middle" x="446" y="-63.5" font-family="Helvetica,sans-Serif" font-size="10.00">QualityControl/Quality.h</text>
</a>
</g>
</g>
<!-- Node18&#45;&gt;Node23 -->
<g id="edge25" class="edge"><title>Node18&#45;&gt;Node23</title>
<path fill="none" stroke="midnightblue" d="M559.609,-112.444C537.293,-103.517 502.097,-89.4387 476.792,-79.3168"/>
<polygon fill="midnightblue" stroke="midnightblue" points="477.876,-75.9807 467.291,-75.5164 475.276,-82.4801 477.876,-75.9807"/>
</g>
<!-- Node24 -->
<g id="node24" class="node"><title>Node24</title>
<g id="a_node24"><a xlink:href="TaskConfig_8h.html" target="_top" xlink:title="QualityControl/TaskConfig.h">
<polygon fill="none" stroke="black" points="563,-56.5 563,-75.5 703,-75.5 703,-56.5 563,-56.5"/>
<text text-anchor="middle" x="633" y="-63.5" font-family="Helvetica,sans-Serif" font-size="10.00">QualityControl/TaskConfig.h</text>
</a>
</g>
</g>
<!-- Node18&#45;&gt;Node24 -->
<g id="edge28" class="edge"><title>Node18&#45;&gt;Node24</title>
<path fill="none" stroke="midnightblue" d="M589.587,-112.083C597.159,-104.22 608.378,-92.5688 617.514,-83.0813"/>
<polygon fill="midnightblue" stroke="midnightblue" points="620.158,-85.3821 624.573,-75.7511 615.115,-80.5266 620.158,-85.3821"/>
</g>
<!-- Node19&#45;&gt;Node12 -->
<g id="edge21" class="edge"><title>Node19&#45;&gt;Node12</title>
<path fill="none" stroke="midnightblue" d="M274.095,-56.4435C255.746,-47.6751 226.995,-33.9355 205.906,-23.8579"/>
<polygon fill="midnightblue" stroke="midnightblue" points="207.353,-20.6703 196.821,-19.5164 204.335,-26.9862 207.353,-20.6703"/>
</g>
<!-- Node19&#45;&gt;Node14 -->
<g id="edge20" class="edge"><title>Node19&#45;&gt;Node14</title>
<path fill="none" stroke="midnightblue" d="M330.504,-56.4435C378.699,-45.7335 460.268,-27.6072 504.417,-17.7961"/>
<polygon fill="midnightblue" stroke="midnightblue" points="505.275,-21.191 514.278,-15.6049 503.757,-14.3576 505.275,-21.191"/>
</g>
<!-- Node20 -->
<g id="node20" class="node"><title>Node20</title>
<polygon fill="none" stroke="#bfbfbf" points="427,-0.5 427,-19.5 483,-19.5 483,-0.5 427,-0.5"/>
<text text-anchor="middle" x="455" y="-7.5" font-family="Helvetica,sans-Serif" font-size="10.00">Rtypes.h</text>
</g>
<!-- Node19&#45;&gt;Node20 -->
<g id="edge22" class="edge"><title>Node19&#45;&gt;Node20</title>
<path fill="none" stroke="midnightblue" d="M317.828,-56.4435C345.249,-47.3591 388.777,-32.9388 419.432,-22.7831"/>
<polygon fill="midnightblue" stroke="midnightblue" points="420.901,-25.9837 429.293,-19.5164 418.7,-19.3389 420.901,-25.9837"/>
</g>
<!-- Node21 -->
<g id="node21" class="node"><title>Node21</title>
<polygon fill="none" stroke="#bfbfbf" points="349.5,-0.5 349.5,-19.5 408.5,-19.5 408.5,-0.5 349.5,-0.5"/>
<text text-anchor="middle" x="379" y="-7.5" font-family="Helvetica,sans-Serif" font-size="10.00">TObject.h</text>
</g>
<!-- Node19&#45;&gt;Node21 -->
<g id="edge23" class="edge"><title>Node19&#45;&gt;Node21</title>
<path fill="none" stroke="midnightblue" d="M305.978,-56.324C319.55,-47.9002 340.38,-34.9709 356.325,-25.0741"/>
<polygon fill="midnightblue" stroke="midnightblue" points="358.406,-27.9019 365.057,-19.6545 354.714,-21.9544 358.406,-27.9019"/>
</g>
<!-- Node22 -->
<g id="node22" class="node"><title>Node22</title>
<polygon fill="none" stroke="#bfbfbf" points="215,-0.5 215,-19.5 331,-19.5 331,-0.5 215,-0.5"/>
<text text-anchor="middle" x="273" y="-7.5" font-family="Helvetica,sans-Serif" font-size="10.00">Common/Exceptions.h</text>
</g>
<!-- Node19&#45;&gt;Node22 -->
<g id="edge24" class="edge"><title>Node19&#45;&gt;Node22</title>
<path fill="none" stroke="midnightblue" d="M288.863,-56.083C286.317,-48.8486 282.644,-38.4087 279.473,-29.3968"/>
<polygon fill="midnightblue" stroke="midnightblue" points="282.7,-28.0225 276.079,-19.7511 276.097,-30.3459 282.7,-28.0225"/>
</g>
<!-- Node23&#45;&gt;Node14 -->
<g id="edge27" class="edge"><title>Node23&#45;&gt;Node14</title>
<path fill="none" stroke="midnightblue" d="M460.299,-56.324C474.183,-47.9002 495.492,-34.9709 511.804,-25.0741"/>
<polygon fill="midnightblue" stroke="midnightblue" points="514.002,-27.8341 520.736,-19.6545 510.371,-21.8495 514.002,-27.8341"/>
</g>
<!-- Node23&#45;&gt;Node20 -->
<g id="edge26" class="edge"><title>Node23&#45;&gt;Node20</title>
<path fill="none" stroke="midnightblue" d="M447.486,-56.083C448.679,-48.9272 450.394,-38.6353 451.885,-29.6911"/>
<polygon fill="midnightblue" stroke="midnightblue" points="455.35,-30.1904 453.541,-19.7511 448.445,-29.0396 455.35,-30.1904"/>
</g>
<!-- Node24&#45;&gt;Node14 -->
<g id="edge29" class="edge"><title>Node24&#45;&gt;Node14</title>
<path fill="none" stroke="midnightblue" d="M617.255,-56.324C601.681,-47.7428 577.623,-34.486 559.541,-24.5224"/>
<polygon fill="midnightblue" stroke="midnightblue" points="561.154,-21.4152 550.706,-19.6545 557.776,-27.546 561.154,-21.4152"/>
</g>
<!-- Node24&#45;&gt;Node15 -->
<g id="edge30" class="edge"><title>Node24&#45;&gt;Node15</title>
<path fill="none" stroke="midnightblue" d="M649.549,-56.324C665.992,-47.7034 691.435,-34.3643 710.468,-24.3855"/>
<polygon fill="midnightblue" stroke="midnightblue" points="712.261,-27.3977 719.492,-19.6545 709.011,-21.198 712.261,-27.3977"/>
</g>
</g>
</svg>
        <g id="navigator" transform="translate(0 0)" fill="#404254">
                <rect fill="#f2f5e9" fill-opacity="0.5" stroke="#606060" stroke-width=".5" x="0" y="0" width="60" height="60"/>
                <use id="zoomplus" xlink:href="#zoomPlus" x="17" y="9" onmousedown="handleZoom(evt,'in')"/>
                <use id="zoomminus" xlink:href="#zoomMin" x="42" y="9" onmousedown="handleZoom(evt,'out')"/>
                <use id="reset" xlink:href="#resetDef" x="30" y="36" onmousedown="handleReset()"/>
                <g id="arrowUp" xlink:href="#dirArrow" transform="translate(30 24)" onmousedown="handlePan(0,-1)">
                  <use xlink:href="#rim" fill="#404040">
                        <set attributeName="fill" to="#808080" begin="arrowUp.mouseover" end="arrowUp.mouseout"/>
                  </use>
                  <path fill="none" stroke="white" stroke-width="1.5" d="M0,-3.0v7 M-2.5,-0.5L0,-3.0L2.5,-0.5"/>
                </g>
                <g id="arrowRight" xlink:href="#dirArrow" transform="rotate(90) translate(36 -43)" onmousedown="handlePan(1,0)">
                  <use xlink:href="#rim" fill="#404040">
                        <set attributeName="fill" to="#808080" begin="arrowRight.mouseover" end="arrowRight.mouseout"/>
                  </use>
                  <path fill="none" stroke="white" stroke-width="1.5" d="M0,-3.0v7 M-2.5,-0.5L0,-3.0L2.5,-0.5"/>
                </g>
                <g id="arrowDown" xlink:href="#dirArrow" transform="rotate(180) translate(-30 -48)" onmousedown="handlePan(0,1)">
                  <use xlink:href="#rim" fill="#404040">
                        <set attributeName="fill" to="#808080" begin="arrowDown.mouseover" end="arrowDown.mouseout"/>
                  </use>
                  <path fill="none" stroke="white" stroke-width="1.5" d="M0,-3.0v7 M-2.5,-0.5L0,-3.0L2.5,-0.5"/>
                </g>
                <g id="arrowLeft" xlink:href="#dirArrow" transform="rotate(270) translate(-36 17)" onmousedown="handlePan(-1,0)">
                  <use xlink:href="#rim" fill="#404040">
                        <set attributeName="fill" to="#808080" begin="arrowLeft.mouseover" end="arrowLeft.mouseout"/>
                  </use>
                  <path fill="none" stroke="white" stroke-width="1.5" d="M0,-3.0v7 M-2.5,-0.5L0,-3.0L2.5,-0.5"/>
                </g>
        </g>
        <svg viewBox="0 0 15 15" width="100%" height="30px" preserveAspectRatio="xMaxYMin meet">
         <g id="arrow_out" transform="scale(0.3 0.3)">
          <a xlink:href="Tracks_8cxx__incl_org.svg" target="_base">
           <rect id="button" ry="5" rx="5" y="6" x="6" height="38" width="38"
                fill="#f2f5e9" fill-opacity="0.5" stroke="#606060" stroke-width="1.0"/>
           <path id="arrow"
             d="M 11.500037,31.436501 C 11.940474,20.09759 22.043105,11.32322 32.158766,21.979434 L 37.068811,17.246167 C 37.068811,17.246167 37.088388,32 37.088388,32 L 22.160133,31.978069 C 22.160133,31.978069 26.997745,27.140456 26.997745,27.140456 C 18.528582,18.264221 13.291696,25.230495 11.500037,31.436501 z"
             style="fill:#404040;"/>
          </a>
         </g>
        </svg>
</svg>
