<?xml version="1.0" encoding="UTF-8" standalone="no"?>
<!DOCTYPE svg PUBLIC "-//W3C//DTD SVG 1.1//EN"
 "http://www.w3.org/Graphics/SVG/1.1/DTD/svg11.dtd">
<!-- Generated by graphviz version 2.38.0 (20140413.2041)
 -->
<!-- Title: Modules/TPC/include/TPC/Tracks.h Pages: 1 -->
<svg width="864pt" height="263pt"
 viewBox="0.00 0.00 863.50 263.00" xmlns="http://www.w3.org/2000/svg" xmlns:xlink="http://www.w3.org/1999/xlink">
<g id="graph0" class="graph" transform="scale(1 1) rotate(0) translate(4 259)">
<title>Modules/TPC/include/TPC/Tracks.h</title>
<!-- Node1 -->
<g id="node1" class="node"><title>Node1</title>
<polygon fill="#bfbfbf" stroke="black" points="60.5,-224.5 60.5,-254.5 170.5,-254.5 170.5,-224.5 60.5,-224.5"/>
<text text-anchor="start" x="68.5" y="-242.5" font-family="Helvetica,sans-Serif" font-size="10.00">Modules/TPC/include</text>
<text text-anchor="middle" x="115.5" y="-231.5" font-family="Helvetica,sans-Serif" font-size="10.00">/TPC/Tracks.h</text>
</g>
<!-- Node2 -->
<g id="node2" class="node"><title>Node2</title>
<polygon fill="none" stroke="#bfbfbf" points="0,-168.5 0,-187.5 93,-187.5 93,-168.5 0,-168.5"/>
<text text-anchor="middle" x="46.5" y="-175.5" font-family="Helvetica,sans-Serif" font-size="10.00">TPCQC/Tracks.h</text>
</g>
<!-- Node1&#45;&gt;Node2 -->
<g id="edge1" class="edge"><title>Node1&#45;&gt;Node2</title>
<path fill="none" stroke="midnightblue" d="M99.148,-224.399C88.6046,-215.308 74.9001,-203.49 64.1164,-194.191"/>
<polygon fill="midnightblue" stroke="midnightblue" points="66.399,-191.538 56.5401,-187.658 61.8276,-196.839 66.399,-191.538"/>
</g>
<!-- Node3 -->
<g id="node3" class="node"><title>Node3</title>
<g id="a_node3"><a xlink:href="TaskInterface_8h.html" target="_top" xlink:title="QualityControl/TaskInterface.h">
<polygon fill="none" stroke="black" points="110.5,-168.5 110.5,-187.5 260.5,-187.5 260.5,-168.5 110.5,-168.5"/>
<text text-anchor="middle" x="185.5" y="-175.5" font-family="Helvetica,sans-Serif" font-size="10.00">QualityControl/TaskInterface.h</text>
</a>
</g>
</g>
<!-- Node1&#45;&gt;Node3 -->
<g id="edge2" class="edge"><title>Node1&#45;&gt;Node3</title>
<path fill="none" stroke="midnightblue" d="M132.089,-224.399C142.785,-215.308 156.688,-203.49 167.628,-194.191"/>
<polygon fill="midnightblue" stroke="midnightblue" points="169.962,-196.801 175.314,-187.658 165.428,-191.468 169.962,-196.801"/>
</g>
<!-- Node4 -->
<g id="node4" class="node"><title>Node4</title>
<polygon fill="none" stroke="#bfbfbf" points="318,-0.5 318,-19.5 353,-19.5 353,-0.5 318,-0.5"/>
<text text-anchor="middle" x="335.5" y="-7.5" font-family="Helvetica,sans-Serif" font-size="10.00">map</text>
</g>
<!-- Node3&#45;&gt;Node4 -->
<g id="edge3" class="edge"><title>Node3&#45;&gt;Node4</title>
<path fill="none" stroke="midnightblue" d="M142.433,-168.486C122.104,-162.074 99.6772,-150.991 87.5,-132 69.2677,-103.565 65.8524,-81.9291 87.5,-56 115.353,-22.6382 249.293,-13.9562 307.92,-11.7405"/>
<polygon fill="midnightblue" stroke="midnightblue" points="308.073,-15.2374 317.948,-11.3975 307.834,-8.24147 308.073,-15.2374"/>
</g>
<!-- Node5 -->
<g id="node5" class="node"><title>Node5</title>
<polygon fill="none" stroke="#bfbfbf" points="180.5,-56.5 180.5,-75.5 232.5,-75.5 232.5,-56.5 180.5,-56.5"/>
<text text-anchor="middle" x="206.5" y="-63.5" font-family="Helvetica,sans-Serif" font-size="10.00">memory</text>
</g>
<!-- Node3&#45;&gt;Node5 -->
<g id="edge4" class="edge"><title>Node3&#45;&gt;Node5</title>
<path fill="none" stroke="midnightblue" d="M177.1,-168.133C166.284,-155.587 149.853,-131.958 158.5,-112 163.768,-99.8399 174.12,-89.4594 183.865,-81.7429"/>
<polygon fill="midnightblue" stroke="midnightblue" points="186.144,-84.4116 192.13,-75.6698 181.999,-78.7707 186.144,-84.4116"/>
</g>
<!-- Node6 -->
<g id="node6" class="node"><title>Node6</title>
<polygon fill="none" stroke="#bfbfbf" points="448,-0.5 448,-19.5 489,-19.5 489,-0.5 448,-0.5"/>
<text text-anchor="middle" x="468.5" y="-7.5" font-family="Helvetica,sans-Serif" font-size="10.00">string</text>
</g>
<!-- Node3&#45;&gt;Node6 -->
<g id="edge5" class="edge"><title>Node3&#45;&gt;Node6</title>
<path fill="none" stroke="midnightblue" d="M176.48,-168.34C168.428,-159.932 157.202,-146.363 152.5,-132 141.668,-98.9107 144.804,-78.3509 171.5,-56 191.753,-39.0433 365.967,-20.7414 437.766,-13.8438"/>
<polygon fill="midnightblue" stroke="midnightblue" points="438.355,-17.3037 447.979,-12.8734 437.693,-10.3351 438.355,-17.3037"/>
</g>
<!-- Node7 -->
<g id="node7" class="node"><title>Node7</title>
<polygon fill="none" stroke="#bfbfbf" points="62,-0.5 62,-19.5 145,-19.5 145,-0.5 62,-0.5"/>
<text text-anchor="middle" x="103.5" y="-7.5" font-family="Helvetica,sans-Serif" font-size="10.00">unordered_map</text>
</g>
<!-- Node3&#45;&gt;Node7 -->
<g id="edge6" class="edge"><title>Node3&#45;&gt;Node7</title>
<path fill="none" stroke="midnightblue" d="M110.342,-169.312C87.0481,-162.981 63.7728,-151.756 49.5,-132 29.7196,-104.62 35.173,-86.5888 49.5,-56 55.5448,-43.0941 67.3119,-32.5985 78.3226,-24.9999"/>
<polygon fill="midnightblue" stroke="midnightblue" points="80.3276,-27.8723 86.867,-19.5364 76.5566,-21.9748 80.3276,-27.8723"/>
</g>
<!-- Node8 -->
<g id="node8" class="node"><title>Node8</title>
<polygon fill="none" stroke="#bfbfbf" points="168,-112.5 168,-131.5 293,-131.5 293,-112.5 168,-112.5"/>
<text text-anchor="middle" x="230.5" y="-119.5" font-family="Helvetica,sans-Serif" font-size="10.00">Framework/InitContext.h</text>
</g>
<!-- Node3&#45;&gt;Node8 -->
<g id="edge7" class="edge"><title>Node3&#45;&gt;Node8</title>
<path fill="none" stroke="midnightblue" d="M192.931,-168.083C199.353,-160.377 208.806,-149.033 216.622,-139.653"/>
<polygon fill="midnightblue" stroke="midnightblue" points="219.494,-141.674 223.207,-131.751 214.117,-137.193 219.494,-141.674"/>
</g>
<!-- Node9 -->
<g id="node9" class="node"><title>Node9</title>
<polygon fill="none" stroke="#bfbfbf" points="311.5,-112.5 311.5,-131.5 471.5,-131.5 471.5,-112.5 311.5,-112.5"/>
<text text-anchor="middle" x="391.5" y="-119.5" font-family="Helvetica,sans-Serif" font-size="10.00">Framework/ProcessingContext.h</text>
</g>
<!-- Node3&#45;&gt;Node9 -->
<g id="edge8" class="edge"><title>Node3&#45;&gt;Node9</title>
<path fill="none" stroke="midnightblue" d="M218.141,-168.444C253.55,-159.162 310.209,-144.309 349.053,-134.127"/>
<polygon fill="midnightblue" stroke="midnightblue" points="350.226,-137.438 359.011,-131.516 348.451,-130.667 350.226,-137.438"/>
</g>
<!-- Node10 -->
<g id="node10" class="node"><title>Node10</title>
<g id="a_node10"><a xlink:href="Activity_8h.html" target="_top" xlink:title="QualityControl/Activity.h">
<polygon fill="none" stroke="black" points="490,-112.5 490,-131.5 613,-131.5 613,-112.5 490,-112.5"/>
<text text-anchor="middle" x="551.5" y="-119.5" font-family="Helvetica,sans-Serif" font-size="10.00">QualityControl/Activity.h</text>
</a>
</g>
</g>
<!-- Node3&#45;&gt;Node10 -->
<g id="edge9" class="edge"><title>Node3&#45;&gt;Node10</title>
<path fill="none" stroke="midnightblue" d="M243.494,-168.444C308.814,-158.806 414.837,-143.163 483.87,-132.978"/>
<polygon fill="midnightblue" stroke="midnightblue" points="484.396,-136.439 493.778,-131.516 483.374,-129.514 484.396,-136.439"/>
</g>
<!-- Node11 -->
<g id="node11" class="node"><title>Node11</title>
<g id="a_node11"><a xlink:href="ObjectsManager_8h.html" target="_top" xlink:title="QualityControl/ObjectsManager.h">
<polygon fill="none" stroke="black" points="631,-112.5 631,-131.5 792,-131.5 792,-112.5 631,-112.5"/>
<text text-anchor="middle" x="711.5" y="-119.5" font-family="Helvetica,sans-Serif" font-size="10.00">QualityControl/ObjectsManager.h</text>
</a>
</g>
</g>
<!-- Node3&#45;&gt;Node11 -->
<g id="edge10" class="edge"><title>Node3&#45;&gt;Node11</title>
<path fill="none" stroke="midnightblue" d="M260.583,-169.292C355.494,-159.548 518.749,-142.788 620.605,-132.331"/>
<polygon fill="midnightblue" stroke="midnightblue" points="620.981,-135.811 630.572,-131.308 620.266,-128.848 620.981,-135.811"/>
</g>
<!-- Node11&#45;&gt;Node5 -->
<g id="edge24" class="edge"><title>Node11&#45;&gt;Node5</title>
<path fill="none" stroke="midnightblue" d="M631.76,-112.473C520.706,-100.598 323.995,-79.5638 242.952,-70.8979"/>
<polygon fill="midnightblue" stroke="midnightblue" points="243.07,-67.3905 232.754,-69.8074 242.325,-74.3509 243.07,-67.3905"/>
</g>
<!-- Node11&#45;&gt;Node6 -->
<g id="edge23" class="edge"><title>Node11&#45;&gt;Node6</title>
<path fill="none" stroke="midnightblue" d="M653.249,-112.481C591.035,-102.887 499.685,-87.1783 487.5,-76 474.659,-64.2199 470.318,-44.2915 468.939,-29.5992"/>
<polygon fill="midnightblue" stroke="midnightblue" points="472.433,-29.391 468.37,-19.6061 465.444,-29.7889 472.433,-29.391"/>
</g>
<!-- Node12 -->
<g id="node12" class="node"><title>Node12</title>
<g id="a_node12"><a xlink:href="MonitorObject_8h.html" target="_top" xlink:title="QualityControl/MonitorObject.h">
<polygon fill="none" stroke="black" points="636,-56.5 636,-75.5 787,-75.5 787,-56.5 636,-56.5"/>
<text text-anchor="middle" x="711.5" y="-63.5" font-family="Helvetica,sans-Serif" font-size="10.00">QualityControl/MonitorObject.h</text>
</a>
</g>
</g>
<!-- Node11&#45;&gt;Node12 -->
<g id="edge11" class="edge"><title>Node11&#45;&gt;Node12</title>
<path fill="none" stroke="midnightblue" d="M711.5,-112.083C711.5,-105.006 711.5,-94.8611 711.5,-85.9865"/>
<polygon fill="midnightblue" stroke="midnightblue" points="715,-85.751 711.5,-75.7511 708,-85.7511 715,-85.751"/>
</g>
<!-- Node16 -->
<g id="node16" class="node"><title>Node16</title>
<g id="a_node16"><a xlink:href="Quality_8h.html" target="_top" xlink:title="QualityControl/Quality.h">
<polygon fill="none" stroke="black" points="497,-56.5 497,-75.5 618,-75.5 618,-56.5 497,-56.5"/>
<text text-anchor="middle" x="557.5" y="-63.5" font-family="Helvetica,sans-Serif" font-size="10.00">QualityControl/Quality.h</text>
</a>
</g>
</g>
<!-- Node11&#45;&gt;Node16 -->
<g id="edge17" class="edge"><title>Node11&#45;&gt;Node16</title>
<path fill="none" stroke="midnightblue" d="M687.098,-112.444C661.303,-103.399 620.423,-89.064 591.482,-78.9158"/>
<polygon fill="midnightblue" stroke="midnightblue" points="592.382,-75.5226 581.788,-75.5164 590.066,-82.1283 592.382,-75.5226"/>
</g>
<!-- Node17 -->
<g id="node17" class="node"><title>Node17</title>
<g id="a_node17"><a xlink:href="TaskConfig_8h.html" target="_top" xlink:title="QualityControl/TaskConfig.h">
<polygon fill="none" stroke="black" points="300.5,-56.5 300.5,-75.5 440.5,-75.5 440.5,-56.5 300.5,-56.5"/>
<text text-anchor="middle" x="370.5" y="-63.5" font-family="Helvetica,sans-Serif" font-size="10.00">QualityControl/TaskConfig.h</text>
</a>
</g>
</g>
<!-- Node11&#45;&gt;Node17 -->
<g id="edge20" class="edge"><title>Node11&#45;&gt;Node17</title>
<path fill="none" stroke="midnightblue" d="M657.468,-112.444C596.859,-102.846 498.638,-87.2916 434.303,-77.1037"/>
<polygon fill="midnightblue" stroke="midnightblue" points="434.704,-73.6237 424.28,-75.5164 433.609,-80.5375 434.704,-73.6237"/>
</g>
<!-- Node12&#45;&gt;Node4 -->
<g id="edge13" class="edge"><title>Node12&#45;&gt;Node4</title>
<path fill="none" stroke="midnightblue" d="M651.922,-56.4435C569.486,-44.6044 423.948,-23.7026 363.273,-14.9887"/>
<polygon fill="midnightblue" stroke="midnightblue" points="363.69,-11.5127 353.294,-13.5555 362.695,-18.4416 363.69,-11.5127"/>
</g>
<!-- Node12&#45;&gt;Node6 -->
<g id="edge12" class="edge"><title>Node12&#45;&gt;Node6</title>
<path fill="none" stroke="midnightblue" d="M672.996,-56.4435C624.801,-45.7335 543.232,-27.6072 499.083,-17.7961"/>
<polygon fill="midnightblue" stroke="midnightblue" points="499.743,-14.3576 489.222,-15.6049 498.225,-21.191 499.743,-14.3576"/>
</g>
<!-- Node13 -->
<g id="node13" class="node"><title>Node13</title>
<polygon fill="none" stroke="#bfbfbf" points="548.5,-0.5 548.5,-19.5 604.5,-19.5 604.5,-0.5 548.5,-0.5"/>
<text text-anchor="middle" x="576.5" y="-7.5" font-family="Helvetica,sans-Serif" font-size="10.00">Rtypes.h</text>
</g>
<!-- Node12&#45;&gt;Node13 -->
<g id="edge14" class="edge"><title>Node12&#45;&gt;Node13</title>
<path fill="none" stroke="midnightblue" d="M690.109,-56.4435C667.793,-47.5171 632.597,-33.4387 607.292,-23.3168"/>
<polygon fill="midnightblue" stroke="midnightblue" points="608.376,-19.9807 597.791,-19.5164 605.776,-26.4801 608.376,-19.9807"/>
</g>
<!-- Node14 -->
<g id="node14" class="node"><title>Node14</title>
<polygon fill="none" stroke="#bfbfbf" points="662,-0.5 662,-19.5 721,-19.5 721,-0.5 662,-0.5"/>
<text text-anchor="middle" x="691.5" y="-7.5" font-family="Helvetica,sans-Serif" font-size="10.00">TObject.h</text>
</g>
<!-- Node12&#45;&gt;Node14 -->
<g id="edge15" class="edge"><title>Node12&#45;&gt;Node14</title>
<path fill="none" stroke="midnightblue" d="M708.197,-56.083C705.518,-48.8486 701.651,-38.4087 698.314,-29.3968"/>
<polygon fill="midnightblue" stroke="midnightblue" points="701.496,-27.9129 694.741,-19.7511 694.932,-30.3442 701.496,-27.9129"/>
</g>
<!-- Node15 -->
<g id="node15" class="node"><title>Node15</title>
<polygon fill="none" stroke="#bfbfbf" points="739.5,-0.5 739.5,-19.5 855.5,-19.5 855.5,-0.5 739.5,-0.5"/>
<text text-anchor="middle" x="797.5" y="-7.5" font-family="Helvetica,sans-Serif" font-size="10.00">Common/Exceptions.h</text>
</g>
<!-- Node12&#45;&gt;Node15 -->
<g id="edge16" class="edge"><title>Node12&#45;&gt;Node15</title>
<path fill="none" stroke="midnightblue" d="M725.317,-56.324C738.733,-47.9002 759.324,-34.9709 775.086,-25.0741"/>
<polygon fill="midnightblue" stroke="midnightblue" points="777.109,-27.9364 783.717,-19.6545 773.387,-22.0081 777.109,-27.9364"/>
</g>
<!-- Node16&#45;&gt;Node6 -->
<g id="edge19" class="edge"><title>Node16&#45;&gt;Node6</title>
<path fill="none" stroke="midnightblue" d="M543.201,-56.324C529.317,-47.9002 508.008,-34.9709 491.696,-25.0741"/>
<polygon fill="midnightblue" stroke="midnightblue" points="493.129,-21.8495 482.764,-19.6545 489.498,-27.8341 493.129,-21.8495"/>
</g>
<!-- Node16&#45;&gt;Node13 -->
<g id="edge18" class="edge"><title>Node16&#45;&gt;Node13</title>
<path fill="none" stroke="midnightblue" d="M560.637,-56.083C563.183,-48.8486 566.856,-38.4087 570.027,-29.3968"/>
<polygon fill="midnightblue" stroke="midnightblue" points="573.403,-30.3459 573.421,-19.7511 566.8,-28.0225 573.403,-30.3459"/>
</g>
<!-- Node17&#45;&gt;Node6 -->
<g id="edge21" class="edge"><title>Node17&#45;&gt;Node6</title>
<path fill="none" stroke="midnightblue" d="M386.245,-56.324C401.819,-47.7428 425.877,-34.486 443.959,-24.5224"/>
<polygon fill="midnightblue" stroke="midnightblue" points="445.724,-27.546 452.794,-19.6545 442.346,-21.4152 445.724,-27.546"/>
</g>
<!-- Node17&#45;&gt;Node7 -->
<g id="edge22" class="edge"><title>Node17&#45;&gt;Node7</title>
<path fill="none" stroke="midnightblue" d="M328.193,-56.4435C281.283,-46.9561 205.596,-31.6487 155.206,-21.4574"/>
<polygon fill="midnightblue" stroke="midnightblue" points="155.665,-17.9794 145.169,-19.4275 154.277,-24.8405 155.665,-17.9794"/>
</g>
</g>
</svg>
